<?xml version="1.0" encoding="UTF-8"?>
<svg version="1.1" xmlns="http://www.w3.org/2000/svg" width="96" height="96">
<path d="M0 0 C0.86462357 -0.00960754 1.72924713 -0.01921509 2.62007141 -0.02911377 C4.02472908 -0.03548859 4.02472908 -0.03548859 5.45776367 -0.04199219 C6.41970139 -0.04769226 7.3816391 -0.05339233 8.37272644 -0.05926514 C10.4112335 -0.06872231 12.44975589 -0.07525196 14.48828125 -0.07910156 C17.60273047 -0.08879559 20.71651663 -0.11980756 23.83081055 -0.15136719 C25.81062433 -0.15789835 27.79044284 -0.16314838 29.77026367 -0.16699219 C30.70062943 -0.17933899 31.63099518 -0.19168579 32.58955383 -0.20440674 C37.46480152 -0.18766788 40.90580045 -0.10007553 44.81323242 3.16113281 C47.2509246 6.81767108 47.05267681 8.85113382 46.81323242 13.16113281 C45.81323242 14.16113281 45.81323242 14.16113281 43.06323242 14.53613281 C39.81323242 14.16113281 39.81323242 14.16113281 37.59887695 11.67480469 C34.09417665 8.51228109 31.48919015 8.46333414 26.99291992 8.56738281 C25.88220627 8.56732239 25.88220627 8.56732239 24.74905396 8.56726074 C23.19077013 8.57260233 21.63248575 8.59012716 20.07446289 8.61914062 C17.68837426 8.66113032 15.30509832 8.66019612 12.91870117 8.65332031 C11.40175447 8.66380921 9.88482229 8.67674571 8.36791992 8.69238281 C7.29911087 8.69268494 7.29911087 8.69268494 6.20870972 8.69299316 C2.42736808 8.74850871 2.42736808 8.74850871 -0.87390137 10.39367676 C-2.57255972 12.68050839 -2.56687015 14.0264699 -2.57495117 16.86035156 C-2.58440765 17.81143799 -2.59386414 18.76252441 -2.60360718 19.74243164 C-2.59449814 21.28000122 -2.59449814 21.28000122 -2.58520508 22.84863281 C-2.58807526 23.90268311 -2.59094543 24.9567334 -2.59390259 26.04272461 C-2.59594471 28.27197812 -2.59040456 30.50124948 -2.57788086 32.73046875 C-2.56182988 36.1478675 -2.57772517 39.56408347 -2.59692383 42.98144531 C-2.59494142 45.14551043 -2.59109781 47.30957481 -2.58520508 49.47363281 C-2.59127777 50.4986792 -2.59735046 51.52372559 -2.60360718 52.57983398 C-2.5941507 53.53092041 -2.58469421 54.48200684 -2.57495117 55.46191406 C-2.57256439 56.29891846 -2.57017761 57.13592285 -2.56771851 57.99829102 C-2.09504097 60.68190893 -1.37074057 61.56562052 0.81323242 63.16113281 C3.41184948 63.48375598 5.76684245 63.62914756 8.36791992 63.62988281 C9.10648224 63.63749634 9.84504456 63.64510986 10.60598755 63.6529541 C12.1677106 63.6637526 13.72950586 63.66660918 15.29125977 63.66210938 C17.67351797 63.66113881 20.0525347 63.70271665 22.43432617 63.74707031 C23.95385073 63.75227903 25.47338644 63.75496548 26.99291992 63.75488281 C27.70141083 63.77127808 28.40990173 63.78767334 29.13986206 63.80456543 C33.10895872 63.74949289 34.60626017 63.34789761 37.59887695 60.64746094 C38.69498291 59.41672852 38.69498291 59.41672852 39.81323242 58.16113281 C43.06323242 57.78613281 43.06323242 57.78613281 45.81323242 58.16113281 C46.81323242 59.16113281 46.81323242 59.16113281 47.18823242 62.41113281 C46.81323242 66.16113281 46.81323242 66.16113281 44.43823242 69.03613281 C41.19478638 71.66177961 39.70431847 72.28518868 35.64233398 72.35400391 C34.78093811 72.37006683 33.91954224 72.38612976 33.03204346 72.40267944 C29.08574212 72.44717828 25.13960896 72.48820614 21.19311523 72.51123047 C19.1135742 72.52777596 17.0340897 72.55504731 14.95483398 72.59326172 C11.95420879 72.64812212 8.9549171 72.66991983 5.95385742 72.68457031 C5.02865295 72.70723969 4.10344849 72.72990906 3.15020752 72.75326538 C-1.26220344 72.73887697 -4.24925539 72.59007449 -7.75805664 69.75341797 C-11.1315557 66.152713 -11.31811007 64.52685846 -11.37963867 59.70507812 C-11.3957016 58.56339172 -11.41176453 57.42170532 -11.42831421 56.24542236 C-11.47270645 51.01682301 -11.51427655 45.78831142 -11.53686523 40.55957031 C-11.55018886 37.80076827 -11.57801 35.0427087 -11.61889648 32.28417969 C-11.67778481 28.31089321 -11.69553743 24.33796575 -11.71020508 20.36425781 C-11.73287445 19.13282043 -11.75554382 17.90138306 -11.77890015 16.63262939 C-11.75533279 7.08759818 -11.75533279 7.08759818 -8.77905273 3.3984375 C-5.55557992 0.61637827 -4.13216447 0.03702035 0 0 Z " fill="#BB6B24" transform="translate(23.186767578125,11.8388671875)"/>
<path d="M0 0 C4.88275164 1.48566098 7.78445731 4.23481773 11.3125 7.75 C11.86228516 8.26304688 12.41207031 8.77609375 12.97851562 9.3046875 C15.4376711 11.73634931 16.8967116 13.58955029 17.74609375 16.96484375 C16.64618024 21.439361 14.04508057 23.71851107 10.75 26.8125 C9.87021484 27.68938477 9.87021484 27.68938477 8.97265625 28.58398438 C3.80922503 33.59077217 3.80922503 33.59077217 0 34 C-2.25 32.0625 -2.25 32.0625 -4 30 C-2.7191375 26.35446828 -1.83328987 24.83328987 1 22 C-17.315 21.505 -17.315 21.505 -36 21 C-36.66 19.35 -37.32 17.7 -38 16 C-37.34 15.01 -36.68 14.02 -36 13 C-33.16975238 12.66228483 -30.54756033 12.51096665 -27.7109375 12.48828125 C-26.89251373 12.47033005 -26.07408997 12.45237885 -25.23086548 12.43388367 C-22.61229636 12.37962486 -19.99391106 12.34583596 -17.375 12.3125 C-15.60153683 12.27934057 -13.82809796 12.24485221 -12.0546875 12.20898438 C-7.70325736 12.12388981 -3.35188321 12.0571536 1 12 C0.360625 11.38125 -0.27875 10.7625 -0.9375 10.125 C-4 6.96969697 -4 6.96969697 -4 4 C-2.0625 1.75 -2.0625 1.75 0 0 Z " fill="#BB6B24" transform="translate(67,31)"/>
</svg>
