<?xml version="1.0" encoding="UTF-8"?>
<svg version="1.1" xmlns="http://www.w3.org/2000/svg" width="96" height="96">
<path d="M0 0 C0.87648193 -0.00287018 1.75296387 -0.00574036 2.65600586 -0.00869751 C4.50863288 -0.01073848 6.36128142 -0.00520628 8.21386719 0.00732422 C11.05192179 0.02337766 13.88855227 0.00747695 16.7265625 -0.01171875 C18.52604481 -0.00973632 20.32552624 -0.00589266 22.125 0 C22.97505615 -0.00607269 23.8251123 -0.01214539 24.70092773 -0.0184021 C30.61524505 0.05231125 30.61524505 0.05231125 32.78604126 1.73226929 C34.82024004 4.3875195 34.45183116 6.85974809 34.4609375 10.1484375 C34.46380768 10.80295898 34.46667786 11.45748047 34.46963501 12.13183594 C34.47167368 13.51368069 34.46615746 14.89555443 34.45361328 16.27734375 C34.43755436 18.391282 34.45346601 20.50330863 34.47265625 22.6171875 C34.47067378 23.96094172 34.46683002 25.30469474 34.4609375 26.6484375 C34.45755371 27.87046875 34.45416992 29.0925 34.45068359 30.3515625 C34.0625 33.3984375 34.0625 33.3984375 32.78222656 35.31469727 C30.23242323 36.9215367 27.7781698 36.51019722 24.85449219 36.40844727 C17.77535918 36.02169652 17.77535918 36.02169652 11.43652344 38.61035156 C9.15913585 41.16438493 7.62904673 43.7968765 5.984375 46.80859375 C5.35015625 47.66324219 4.7159375 48.51789062 4.0625 49.3984375 C0.890625 49.83203125 0.890625 49.83203125 -1.9375 49.3984375 C-2.9375 48.3984375 -2.9375 48.3984375 -3.03515625 45.67578125 C-3.02355469 44.57363281 -3.01195312 43.47148438 -3 42.3359375 C-2.99097656 41.23121094 -2.98195313 40.12648437 -2.97265625 38.98828125 C-2.96105469 38.13363281 -2.94945312 37.27898438 -2.9375 36.3984375 C-3.865625 36.4603125 -4.79375 36.5221875 -5.75 36.5859375 C-8.9375 36.3984375 -8.9375 36.3984375 -10.61181641 35.30859375 C-12.5929697 32.45398172 -12.32639887 30.09324673 -12.3359375 26.6484375 C-12.33880768 25.99391602 -12.34167786 25.33939453 -12.34463501 24.66503906 C-12.34667368 23.28319431 -12.34115746 21.90132057 -12.32861328 20.51953125 C-12.31255436 18.405593 -12.32846601 16.29356637 -12.34765625 14.1796875 C-12.34567378 12.83593328 -12.34183002 11.49218026 -12.3359375 10.1484375 C-12.33255371 8.92640625 -12.32916992 7.704375 -12.32568359 6.4453125 C-11.9375 3.3984375 -11.9375 3.3984375 -10.66104126 1.73226929 C-7.60527793 -0.63255618 -3.71308018 -0.02652577 0 0 Z M-5.9375 7.3984375 C-6.0366657 9.02101294 -6.06829777 10.64783581 -6.0703125 12.2734375 C-6.07160156 13.25828125 -6.07289062 14.243125 -6.07421875 15.2578125 C-6.07035156 16.29421875 -6.06648438 17.330625 -6.0625 18.3984375 C-6.06636719 19.43484375 -6.07023437 20.47125 -6.07421875 21.5390625 C-6.07292969 22.52390625 -6.07164063 23.50875 -6.0703125 24.5234375 C-6.06918457 25.43351562 -6.06805664 26.34359375 -6.06689453 27.28125 C-6.17310009 29.3837223 -6.17310009 29.3837223 -4.9375 30.3984375 C-2.26691149 30.53958911 0.38682238 30.44090857 3.0625 30.3984375 C3.0625 32.7084375 3.0625 35.0184375 3.0625 37.3984375 C3.701875 36.5940625 4.34125 35.7896875 5 34.9609375 C7.0625 32.3984375 7.0625 32.3984375 8.0625 31.3984375 C9.46447402 31.25422596 10.87292831 31.17157626 12.28125 31.1171875 C13.55548828 31.06111328 13.55548828 31.06111328 14.85546875 31.00390625 C17.5625 30.8984375 17.5625 30.8984375 20.26953125 30.79296875 C21.54376953 30.73689453 21.54376953 30.73689453 22.84375 30.6796875 C24.0203418 30.63424805 24.0203418 30.63424805 25.22070312 30.58789062 C27.07876196 30.59252282 27.07876196 30.59252282 28.0625 29.3984375 C28.1616657 27.77586206 28.19329777 26.14903919 28.1953125 24.5234375 C28.19660156 23.53859375 28.19789062 22.55375 28.19921875 21.5390625 C28.19341797 19.98445313 28.19341797 19.98445313 28.1875 18.3984375 C28.19136719 17.36203125 28.19523437 16.325625 28.19921875 15.2578125 C28.19792969 14.27296875 28.19664063 13.288125 28.1953125 12.2734375 C28.19362061 10.90832031 28.19362061 10.90832031 28.19189453 9.515625 C28.29810009 7.4131527 28.29810009 7.4131527 27.0625 6.3984375 C24.69851532 6.2976563 22.36438689 6.25870535 20 6.265625 C19.29351318 6.26466827 18.58702637 6.26371155 17.85913086 6.26272583 C16.36279207 6.26204417 14.86645033 6.26389745 13.37011719 6.26806641 C11.07219843 6.27341493 8.77447514 6.26812099 6.4765625 6.26171875 C5.02604123 6.26237953 3.57552009 6.2636607 2.125 6.265625 C1.4333374 6.26360077 0.7416748 6.26157654 0.02905273 6.25949097 C-3.23485638 5.99613017 -3.23485638 5.99613017 -5.9375 7.3984375 Z " fill="#BC6B24" transform="translate(41.9375,-0.3984375)"/>
<path d="M0 0 C0.72711182 0.00404846 1.45422363 0.00809692 2.20336914 0.01226807 C2.95046143 0.01035461 3.69755371 0.00844116 4.46728516 0.00646973 C6.04761085 0.00510809 7.62794772 0.00880307 9.20825195 0.01715088 C11.63135836 0.02785107 14.05372337 0.01725527 16.47680664 0.00445557 C18.01066245 0.00577717 19.54451779 0.00833957 21.07836914 0.01226807 C21.80548096 0.0082196 22.53259277 0.00417114 23.28173828 0 C28.41094553 0.04796946 28.41094553 0.04796946 30.64086914 2.27789307 C31.33722898 5.70422996 31.3395047 8.85300297 30.64086914 12.27789307 C28.68881575 14.90915407 26.43366677 16.59767335 23.64086914 18.27789307 C22.77461914 18.83670166 22.77461914 18.83670166 21.89086914 19.40679932 C15.97841683 21.69582165 6.78767952 21.45173912 0.91821289 19.26226807 C-1.03359824 18.05105069 -2.68493014 16.8460758 -4.35913086 15.27789307 C-4.91342773 14.83187744 -5.46772461 14.38586182 -6.03881836 13.92633057 C-7.86088745 11.65143957 -7.72676082 10.09487355 -7.67163086 7.21539307 C-7.66776367 6.3375415 -7.66389648 5.45968994 -7.65991211 4.55523682 C-7.02942133 -0.2184791 -4.16267193 0.03893021 0 0 Z M-1.35913086 6.27789307 C0.75898102 10.51411682 1.50791813 11.35545355 5.64086914 13.27789307 C10.90962295 14.0650151 16.68034307 14.3986134 21.32836914 11.46539307 C23.85598183 9.4190163 23.85598183 9.4190163 24.64086914 6.27789307 C16.06086914 6.27789307 7.48086914 6.27789307 -1.35913086 6.27789307 Z " fill="#BC6B24" transform="translate(61.359130859375,69.72210693359375)"/>
<path d="M0 0 C0.72711182 0.00404846 1.45422363 0.00809692 2.20336914 0.01226807 C2.95046143 0.01035461 3.69755371 0.00844116 4.46728516 0.00646973 C6.04761085 0.00510809 7.62794772 0.00880307 9.20825195 0.01715088 C11.63135836 0.02785107 14.05372337 0.01725527 16.47680664 0.00445557 C18.01066245 0.00577717 19.54451779 0.00833957 21.07836914 0.01226807 C21.80548096 0.0082196 22.53259277 0.00417114 23.28173828 0 C28.41094553 0.04796946 28.41094553 0.04796946 30.64086914 2.27789307 C31.33722898 5.70422996 31.3395047 8.85300297 30.64086914 12.27789307 C28.68881575 14.90915407 26.43366677 16.59767335 23.64086914 18.27789307 C22.77461914 18.83670166 22.77461914 18.83670166 21.89086914 19.40679932 C15.97841683 21.69582165 6.78767952 21.45173912 0.91821289 19.26226807 C-1.03359824 18.05105069 -2.68493014 16.8460758 -4.35913086 15.27789307 C-4.91342773 14.83187744 -5.46772461 14.38586182 -6.03881836 13.92633057 C-7.86088745 11.65143957 -7.72676082 10.09487355 -7.67163086 7.21539307 C-7.66776367 6.3375415 -7.66389648 5.45968994 -7.65991211 4.55523682 C-7.02942133 -0.2184791 -4.16267193 0.03893021 0 0 Z M-1.35913086 6.27789307 C0.75898102 10.51411682 1.50791813 11.35545355 5.64086914 13.27789307 C10.90962295 14.0650151 16.68034307 14.3986134 21.32836914 11.46539307 C23.85598183 9.4190163 23.85598183 9.4190163 24.64086914 6.27789307 C16.06086914 6.27789307 7.48086914 6.27789307 -1.35913086 6.27789307 Z " fill="#BC6B24" transform="translate(11.359130859375,69.72210693359375)"/>
<path d="M0 0 C4.16884941 2.04785585 6.28187228 3.73164682 8 8 C8.7121481 13.01815989 8.52912753 16.94174495 6.25 21.5 C3.46859064 24.59045484 1.53548229 25.77965133 -2.5859375 26.37109375 C-11.04284983 26.57244881 -11.04284983 26.57244881 -14.625 23.625 C-18.61817306 19.21149294 -18.3872683 15.80487343 -18.359375 9.99609375 C-17.82285181 5.52312326 -16.3330708 3.93627666 -13 1 C-9.05322303 -0.97338848 -4.30160477 -0.44290148 0 0 Z M-9.875 8.125 C-11.52854531 10.88090884 -11.39365568 12.85075452 -11 16 C-10 18 -10 18 -8 19 C-4.85075452 19.39365568 -2.88090884 19.52854531 -0.125 17.875 C1.52854531 15.11909116 1.39365568 13.14924548 1 10 C0 8 0 8 -2 7 C-5.14924548 6.60634432 -7.11909116 6.47145469 -9.875 8.125 Z " fill="#BC6923" transform="translate(78,40)"/>
<path d="M0 0 C4.16884941 2.04785585 6.28187228 3.73164682 8 8 C8.7121481 13.01815989 8.52912753 16.94174495 6.25 21.5 C3.46859064 24.59045484 1.53548229 25.77965133 -2.5859375 26.37109375 C-11.04284983 26.57244881 -11.04284983 26.57244881 -14.625 23.625 C-18.61817306 19.21149294 -18.3872683 15.80487343 -18.359375 9.99609375 C-17.82285181 5.52312326 -16.3330708 3.93627666 -13 1 C-9.05322303 -0.97338848 -4.30160477 -0.44290148 0 0 Z M-9.875 8.125 C-11.52854531 10.88090884 -11.39365568 12.85075452 -11 16 C-10 18 -10 18 -8 19 C-4.85075452 19.39365568 -2.88090884 19.52854531 -0.125 17.875 C1.52854531 15.11909116 1.39365568 13.14924548 1 10 C0 8 0 8 -2 7 C-5.14924548 6.60634432 -7.11909116 6.47145469 -9.875 8.125 Z " fill="#BC6923" transform="translate(28,40)"/>
<path d="M0 0 C0.99 0 1.98 0 3 0 C3.33 1.65 3.66 3.3 4 5 C5.98 5 7.96 5 10 5 C10 5.99 10 6.98 10 8 C9.01 8.66 8.02 9.32 7 10 C6.7497843 13.08365871 6.7497843 13.08365871 7 16 C6.113125 15.814375 5.22625 15.62875 4.3125 15.4375 C1.14821189 15.01957516 -0.94839642 15.19222258 -4 16 C-3.9071875 14.576875 -3.9071875 14.576875 -3.8125 13.125 C-3.874375 12.09375 -3.93625 11.0625 -4 10 C-4.99 9.34 -5.98 8.68 -7 8 C-7 7.01 -7 6.02 -7 5 C-5.02 5 -3.04 5 -1 5 C-0.67 3.35 -0.34 1.7 0 0 Z " fill="#BC6A24" transform="translate(52,10)"/>
</svg>
