<?xml version="1.0" encoding="UTF-8"?>
<svg version="1.1" xmlns="http://www.w3.org/2000/svg" width="96" height="96">
<path d="M0 0 C0.72694061 -0.0254187 1.45388123 -0.0508374 2.20285034 -0.07702637 C13.67596123 -0.23896337 21.09258163 2.78114706 29.42114258 10.66186523 C30.58061301 11.82900259 31.73200549 13.00422284 32.875 14.1875 C33.72075089 15.04276779 33.72075089 15.04276779 34.58358765 15.91531372 C40.04523397 21.57587986 44.4559738 26.52487035 44.49609375 34.796875 C44.19702148 37.79589844 44.19702148 37.79589844 43.8125 39.9375 C40.8425 39.4425 40.8425 39.4425 37.8125 38.9375 C37.8125 37.2875 37.8125 35.6375 37.8125 33.9375 C37.20253174 33.96368408 36.59256348 33.98986816 35.96411133 34.0168457 C33.18467242 34.12115719 30.40564561 34.18592982 27.625 34.25 C26.66529297 34.29189453 25.70558594 34.33378906 24.71679688 34.37695312 C20.26351899 34.45399946 17.55786993 34.37291412 13.65625 32.09375 C10.94194536 27.4472285 11.27182045 23.39251481 11.5 18.125 C11.603125 14.763125 11.70625 11.40125 11.8125 7.9375 C-0.5625 8.4325 -0.5625 8.4325 -13.1875 8.9375 C-13.1875 30.7175 -13.1875 52.4975 -13.1875 74.9375 C-4.9375 75.2675 3.3125 75.5975 11.8125 75.9375 C13.1325 77.9175 14.4525 79.8975 15.8125 81.9375 C11.48927539 82.06150035 7.16700398 82.15202256 2.8425293 82.2121582 C1.37294475 82.23723644 -0.09651587 82.27130856 -1.56567383 82.31469727 C-3.68341681 82.37565499 -5.79950576 82.40377316 -7.91796875 82.42578125 C-9.19051514 82.45196533 -10.46306152 82.47814941 -11.77416992 82.50512695 C-16.18642701 81.77138132 -17.41128857 80.39317866 -20.1875 76.9375 C-20.82241821 73.71240234 -20.82241821 73.71240234 -20.83447266 70.0234375 C-20.84761505 69.01026459 -20.84761505 69.01026459 -20.86102295 67.97662354 C-20.88294369 65.75458618 -20.86849347 63.53455584 -20.8515625 61.3125 C-20.85493282 59.76220316 -20.85978724 58.21190891 -20.86605835 56.66162109 C-20.87341963 53.4167356 -20.86274926 50.17253955 -20.83935547 46.92773438 C-20.81086682 42.7744967 -20.82727498 38.62287449 -20.85721779 34.46969604 C-20.87531168 31.26965223 -20.86952345 28.06998957 -20.85657883 24.86993408 C-20.85325053 23.33896695 -20.85731169 21.80796488 -20.86897659 20.27703857 C-20.88172147 18.1342851 -20.86226493 15.99412351 -20.83447266 13.8515625 C-20.83049469 12.6342041 -20.82651672 11.4168457 -20.82241821 10.16259766 C-18.81526336 -0.03284211 -8.43393527 0.27627171 0 0 Z M17.8125 13.9375 C17.73135894 15.70757714 17.67324495 17.47872098 17.625 19.25 C17.59019531 20.23613281 17.55539063 21.22226562 17.51953125 22.23828125 C17.61122439 24.91473679 17.61122439 24.91473679 18.96875 26.78125 C21.55381215 28.40239067 23.4768388 28.23169981 26.5 28.125 C27.99080078 28.08439453 27.99080078 28.08439453 29.51171875 28.04296875 C30.27097656 28.00816406 31.03023437 27.97335938 31.8125 27.9375 C27.71723413 23.04315787 23.54892915 18.23029666 18.8125 13.9375 C18.4825 13.9375 18.1525 13.9375 17.8125 13.9375 Z " fill="#BB6B24" transform="translate(36.1875,6.0625)"/>
<path d="M0 0 C6.12274216 3.14913382 10.05196347 7.5230779 12.25390625 14.12890625 C13.3818169 28.8472157 13.3818169 28.8472157 8.25390625 35.12890625 C2.53255327 40.82723567 -1.12979555 43.27049258 -9.37109375 43.50390625 C-16.01341389 43.44221287 -20.64127419 42.47504774 -25.74609375 38.12890625 C-31.51387408 31.77739875 -32.1631964 26.03695807 -32.0859375 17.71875 C-31.52068385 11.74785221 -29.39562677 7.53493733 -24.9609375 3.5078125 C-17.79680873 -1.86148146 -8.51453049 -2.70091081 0 0 Z M-13.74609375 15.12890625 C-17.78444226 19.56123998 -20.74609375 26.04229702 -20.74609375 32.12890625 C-14.8249065 31.6614441 -9.52010204 29.62984566 -4.74609375 26.12890625 C-1.24515434 21.35489796 0.7864441 16.0500935 1.25390625 10.12890625 C-4.15212881 10.12890625 -9.01738947 12.64666398 -13.74609375 15.12890625 Z " fill="#BC6A24" transform="translate(79.74609375,48.87109375)"/>
<path d="M0 0 C7.26 0 14.52 0 22 0 C17 6 17 6 14.87182617 6.68115234 C14.18580322 6.64973145 13.49978027 6.61831055 12.79296875 6.5859375 C11.66665039 6.55693359 11.66665039 6.55693359 10.51757812 6.52734375 C9.74865234 6.47707031 8.97972656 6.42679688 8.1875 6.375 C7.00510742 6.33439453 7.00510742 6.33439453 5.79882812 6.29296875 C3.86469843 6.22263676 1.93198696 6.11502458 0 6 C0 4.02 0 2.04 0 0 Z " fill="#BB6C24" transform="translate(32,50)"/>
<path d="M0 0 C4.29 0 8.58 0 13 0 C13 1.98 13 3.96 13 6 C8.71 6 4.42 6 0 6 C0 4.02 0 2.04 0 0 Z " fill="#BB6C24" transform="translate(32,64)"/>
<path d="M0 0 C1.98 0 3.96 0 6 0 C6 1.98 6 3.96 6 6 C4.02 6 2.04 6 0 6 C0 4.02 0 2.04 0 0 Z " fill="#B96E25" transform="translate(67,67)"/>
</svg>
