<svg xmlns="http://www.w3.org/2000/svg" xmlns:xlink="http://www.w3.org/1999/xlink" width="1500" zoomAndPan="magnify" viewBox="0 0 1125 217.499994" height="290" preserveAspectRatio="xMidYMid meet" version="1.0"><defs><g/><clipPath id="3dcaa3ea58"><path d="M 1.289062 0 L 1123.707031 0 L 1123.707031 217 L 1.289062 217 Z M 1.289062 0 " clip-rule="nonzero"/></clipPath></defs><g clip-path="url(#3dcaa3ea58)"><path stroke-linecap="butt" transform="matrix(0.74828, 0, 0, 0.74828, -118.373271, 54.501779)" fill="none" stroke-linejoin="miter" d="M 452.091926 65.256679 C 453.381342 63.346046 455.062281 62.662186 457.134743 63.205098 C 459.201984 63.75323 460.919465 64.828614 462.287186 66.431248 C 463.654906 68.028662 463.868939 69.631296 462.934504 71.23393 C 461.331869 73.812762 459.400356 77.545281 457.134743 82.426268 C 454.905672 87.270713 452.232874 92.464918 449.105911 98.014104 C 445.978947 103.521528 442.329952 108.794038 438.148486 113.831634 C 434.008783 118.86923 429.341829 122.993273 424.142403 126.193321 C 418.948198 129.398589 413.070132 131.001224 406.508206 131.001224 C 400.922478 131.001224 396.391252 129.398589 392.914527 126.193321 C 389.474345 122.993273 386.994699 118.676079 385.47037 113.24696 C 383.987803 107.817841 383.246519 101.819708 383.246519 95.257782 C 383.246519 92.209123 383.403128 89.009075 383.716347 85.647197 C 384.029565 82.29054 384.494172 78.772053 385.120609 75.102178 C 380.004708 74.752417 375.003654 74.261708 370.122668 73.635271 C 365.23646 73.014055 360.491201 72.131823 355.88167 70.999016 C 354.435645 73.577848 352.98962 76.193222 351.548816 78.850358 C 350.102791 81.470952 348.656766 84.044563 347.210741 86.586853 C 341.781621 96.040828 335.491152 104.925791 328.344552 113.24696 C 321.234494 121.568129 313.638947 128.286664 305.552692 133.402565 C 297.502978 138.518466 289.166148 141.076416 280.531761 141.076416 C 269.63176 141.076416 260.78334 139.10314 253.9865 135.161808 C 247.189661 131.251798 242.230369 126.193321 239.103405 119.986376 C 235.981662 113.732448 234.41557 107.327132 234.41557 100.765206 C 234.41557 94.20328 235.746748 87.933692 238.403884 81.95644 C 241.019258 75.942647 244.730896 71.05644 249.533579 67.308259 C 254.341481 63.518317 259.94287 61.623345 266.353407 61.623345 C 268.733867 61.623345 269.924097 62.583882 269.924097 64.494514 C 269.924097 69.808786 272.210592 74.105099 276.78358 77.388672 C 281.351349 80.667025 286.916196 82.306201 293.478122 82.306201 C 300.979703 82.306201 307.896609 80.473873 314.223621 76.798777 C 320.550633 73.092359 326.428699 68.106966 331.857818 61.858259 C 319.553555 55.646094 309.791581 47.58072 302.561456 37.662137 C 295.373093 27.738333 291.781522 16.780909 291.781522 4.789864 C 291.781522 -3.724456 293.577308 -10.855396 297.174099 -16.597733 C 300.76567 -22.340071 305.510929 -26.735569 311.409876 -29.779008 C 317.345365 -32.827667 323.693258 -34.351997 330.453556 -34.351997 C 339.55255 -34.351997 346.213662 -31.987198 350.43167 -27.26282 C 354.69144 -22.533222 356.821326 -17.380779 356.821326 -11.795051 C 356.977935 -10.035807 356.565531 -8.589782 355.589333 -7.456976 C 354.654898 -6.360711 353.302839 -5.896104 351.548816 -6.052713 C 348.500156 -6.360711 345.414955 -5.953527 342.287991 -4.820721 C 339.166248 -3.724456 336.566535 -1.615452 334.494073 1.506291 C 332.426832 4.633255 331.393211 9.164481 331.393211 15.09997 C 331.393211 27.404234 335.861793 37.328037 344.809399 44.86616 C 345.942206 43.070375 347.017589 41.253708 348.030329 39.41616 C 349.084831 37.583832 350.181095 35.704521 351.313902 33.793889 C 363.461556 11.879041 375.045417 -5.113058 386.060264 -17.182408 C 397.111654 -29.293519 407.599251 -37.692993 417.523054 -42.380829 C 427.446857 -47.105207 436.822529 -49.470006 445.650067 -49.470006 C 454.122626 -49.470006 460.355672 -47.183511 464.338766 -42.615743 C 468.32186 -38.084516 470.316018 -32.53533 470.316018 -25.973404 C 470.159408 -18.278672 468.363623 -11.674984 464.92344 -6.16756 C 461.488479 -0.660136 457.213047 2.096186 452.091926 2.096186 C 450.494512 2.096186 449.048487 1.6629 447.759071 0.80677 C 446.506198 -0.0963431 445.002749 -0.466985 443.243506 -0.310376 C 440.826504 -0.310376 438.169368 1.782967 435.277318 5.959213 C 432.42703 10.104137 429.477557 17.13067 426.428898 27.054473 C 424.982873 32.013765 423.57861 37.307156 422.21089 42.934647 C 420.843169 48.520375 420.159309 53.636276 420.159309 58.287569 C 420.159309 63.246861 421.078083 67.287378 422.915631 70.414342 C 424.789721 73.541306 427.953227 75.102178 432.406149 75.102178 C 436.117787 75.102178 439.772002 74.340013 443.363573 72.815683 C 446.955144 71.291354 449.868075 68.775166 452.091926 65.256679 Z M 388.753943 58.752176 C 391.959211 47.544178 394.945227 38.617453 397.71721 31.977222 C 400.530955 25.336992 402.81745 20.02272 404.576693 16.039625 C 406.330716 12.056531 407.212948 8.45974 407.212948 5.259692 C 407.212948 2.994079 406.252411 1.861272 404.341779 1.861272 C 402.739145 1.861272 401.058206 2.466828 399.298963 3.677939 C 397.54494 4.88905 394.908685 7.561847 391.390198 11.70155 C 386.587515 17.955478 381.977984 24.767979 377.561605 32.154713 C 373.186988 39.494464 368.833252 47.095231 364.495177 54.946573 C 368.013664 56.037617 371.798386 56.878086 375.865005 57.462761 C 379.962946 58.010893 384.259259 58.438958 388.753943 58.752176 Z M 474.648872 131.001224 C 465.236659 131.001224 458.324973 127.717651 453.908593 121.155725 C 449.497434 114.593799 447.289244 106.507544 447.289244 96.896959 C 447.289244 87.954573 448.557778 78.521479 451.094848 68.597675 C 453.673679 58.673872 457.562808 49.360844 462.757013 40.648152 C 467.992981 31.93546 474.476602 24.830622 482.207877 19.317978 C 489.980914 13.774012 498.985943 11.002029 509.222965 11.002029 C 514.025647 11.002029 517.737285 11.565822 520.352659 12.698629 C 523.009795 13.794894 525.024834 15.09997 526.387334 16.6243 C 527.755054 18.148629 528.908742 19.51635 529.848397 20.727461 C 530.824595 21.938572 532.11401 22.544128 533.711424 22.544128 C 535.00084 22.544128 536.039681 21.098103 536.817507 18.206053 C 537.642315 15.314003 538.832545 11.038571 540.393417 5.374539 C 541.996051 -0.326037 544.496578 -7.263824 547.894998 -15.428384 C 550.901895 -22.768136 553.88791 -28.317322 556.858265 -32.065502 C 559.82862 -35.818903 562.658026 -38.335091 565.356925 -39.624507 C 568.087145 -40.913923 570.665977 -41.55602 573.088199 -41.55602 C 577.227902 -41.55602 579.984224 -39.50966 581.351945 -35.406499 C 582.719665 -31.3451 581.800891 -25.874218 578.595623 -18.999074 L 551.465688 50.373584 C 547.482594 59.164581 546.000027 65.883116 547.012766 70.529189 C 548.067268 75.180482 551.235994 77.503519 556.508504 77.503519 C 560.648208 77.503519 564.239779 76.428135 567.288438 74.282589 C 570.337097 72.095281 573.067318 69.088384 575.48954 65.256679 C 576.742414 63.346046 578.360709 62.662186 580.354866 63.205098 C 582.385566 63.75323 584.066504 64.828614 585.392462 66.431248 C 586.760183 68.028662 587.05252 69.631296 586.274694 71.23393 C 583.382644 76.819658 580.297443 83.031824 577.01387 89.865205 C 573.735517 96.662045 570.081302 103.187429 566.056446 109.436136 C 562.073352 115.648301 557.521244 120.805964 552.405343 124.903905 C 547.289442 128.970524 541.369614 131.001224 534.65108 131.001224 C 526.992889 131.001224 521.313195 127.639346 517.601557 120.920811 C 513.926461 114.202276 512.736231 105.881107 514.025647 95.962524 L 513.091212 95.962524 C 508.1267 105.724498 502.326939 114.009125 495.686709 120.805964 C 489.046479 127.602804 482.035606 131.001224 474.648872 131.001224 Z M 496.506297 81.314343 C 500.489391 81.314343 504.007878 80.118892 507.051317 77.738433 C 510.099976 75.31621 512.501317 72.387618 514.260561 68.947436 C 516.019804 65.512474 516.896816 62.114054 516.896816 58.752176 C 516.896816 55.23891 515.863195 52.247674 513.790733 49.788909 C 511.723492 47.288382 508.361614 46.040729 503.715541 46.040729 C 499.883836 46.040729 496.485416 47.173536 493.520282 49.439149 C 490.549927 51.663 488.22689 54.497626 486.545952 57.932588 C 484.865013 61.37277 484.024543 64.849495 484.024543 68.362761 C 484.024543 71.881248 484.98508 74.924687 486.895712 77.503519 C 488.811565 80.040588 492.016833 81.314343 496.506297 81.314343 Z M 585.063583 131.001224 C 579.477855 131.001224 575.160661 129.320285 572.112002 125.958407 C 569.068563 122.60175 567.544233 118.441165 567.544233 113.481874 C 567.544233 107.896145 568.029722 100.900934 569.005919 92.50146 C 569.945574 84.107207 572.09112 75.023873 575.452998 65.256679 C 578.809655 55.338096 582.093228 46.291304 585.298497 38.126744 C 588.498545 29.967404 591.740356 23.400258 595.023929 18.440967 C 598.302281 13.481675 601.544092 11.002029 604.74936 11.002029 C 607.484801 11.002029 609.400654 11.915583 610.491698 13.753131 C 611.624504 15.590679 612.193518 17.720564 612.193518 20.142787 C 612.193518 24.125881 613.383748 26.84044 615.764208 28.286465 C 618.18643 29.73249 621.313394 28.521379 625.139879 24.653132 C 629.634563 20.356819 634.280636 17.015823 639.083319 14.635363 C 643.891221 12.213141 648.928817 11.002029 654.201327 11.002029 C 660.100274 11.002029 664.767229 12.442834 668.207411 15.334884 C 671.642373 18.185172 673.928867 21.781963 675.061674 26.114818 C 675.374892 27.717452 676.001329 28.636226 676.935764 28.87114 C 677.911961 29.106054 679.279682 28.18728 681.038925 26.114818 C 685.684998 20.998917 690.571205 17.13067 695.687106 14.515296 C 700.803007 11.85816 706.253007 10.532202 712.037107 10.532202 C 721.449321 10.532202 728.06867 12.698629 731.900375 17.036704 C 735.763402 21.333017 737.700136 26.527222 737.700136 32.61932 C 737.700136 36.764244 737.052818 40.548966 735.763402 43.989149 C 734.515749 47.42411 733.247214 50.785988 731.957798 54.064341 C 730.668383 57.347914 730.021065 61.002129 730.021065 65.021765 C 730.021065 73.342934 733.946735 77.503519 741.798077 77.503519 C 745.473173 77.503519 748.537493 76.349831 751.001478 74.047676 C 753.502005 71.703758 755.939888 68.775166 758.325568 65.256679 C 759.614984 63.346046 761.290703 62.662186 763.363165 63.205098 C 765.472169 63.75323 767.18965 64.828614 768.520828 66.431248 C 769.888548 68.028662 770.102581 69.631296 769.162926 71.23393 C 767.560291 73.812762 765.628778 77.545281 763.363165 82.426268 C 761.134094 87.270713 758.461296 92.464918 755.334333 98.014104 C 752.212589 103.521528 748.558374 108.794038 744.376909 113.831634 C 740.237205 118.86923 735.570251 122.993273 730.376045 126.193321 C 725.18184 129.398589 719.298554 131.001224 712.736628 131.001224 C 705.083659 131.001224 699.727624 128.479815 696.684185 123.442219 C 693.635526 118.404623 692.111196 112.443033 692.111196 105.567888 C 692.111196 99.47579 692.951665 93.676029 694.632604 88.168606 C 696.313543 82.661182 697.994482 77.623586 699.6702 73.050597 C 701.351139 68.482828 702.191609 64.5937 702.191609 61.388431 C 702.191609 58.694753 701.351139 56.627511 699.6702 55.181486 C 697.994482 53.735461 695.786292 53.009839 693.050851 53.009839 C 688.399558 53.009839 684.124126 54.925691 680.219337 58.752176 C 676.314547 62.583882 673.145821 67.386564 670.728819 73.165444 C 668.343139 78.907781 667.152909 84.827609 667.152909 90.919707 C 667.152909 94.438194 667.424365 97.152754 667.972497 99.068606 C 668.557171 100.979239 668.849509 103.693798 668.849509 107.212285 C 668.849509 110.610705 668.322258 114.10309 667.267756 117.699882 C 666.213254 121.291453 664.161673 124.340112 661.118234 126.840639 C 658.111337 129.299404 653.55923 130.531396 647.467132 130.531396 C 642.032792 130.531396 637.465024 129.007066 633.753385 125.958407 C 630.08351 122.914968 628.245962 117.464968 628.245962 109.613626 C 628.245962 103.55807 629.24304 97.737428 631.231977 92.1517 C 633.267897 86.529429 635.277715 81.236038 637.266652 76.271526 C 639.260809 71.312235 640.257888 66.838432 640.257888 62.855338 C 640.257888 59.650069 639.417418 57.29049 637.73648 55.766161 C 636.060761 54.241831 633.852571 53.479666 631.11713 53.479666 C 626.507599 53.479666 622.232168 55.452942 618.285616 59.399494 C 614.380827 63.304284 611.2121 68.383643 608.795098 74.63235 C 606.409418 80.844515 605.219188 87.56305 605.219188 94.787955 L 605.219188 105.567888 C 605.219188 109.556203 604.728479 113.518416 603.752282 117.464968 C 602.817847 121.369757 600.901994 124.611568 598.009944 127.1904 C 595.159657 129.732689 590.842463 131.001224 585.063583 131.001224 Z M 801.04856 1.156531 C 795.306222 1.156531 790.346931 -0.0754619 786.165465 -2.534226 C 782.025762 -5.034753 779.9533 -9.487675 779.9533 -15.892992 C 779.9533 -24.37077 782.318099 -30.170531 787.042477 -33.297495 C 791.772075 -36.424459 797.394345 -37.98533 803.919729 -37.98533 C 810.011827 -37.98533 815.16949 -36.61761 819.387498 -33.882169 C 823.647269 -31.146728 825.463935 -26.030828 824.837498 -18.529247 C 824.17452 -11.147733 821.595688 -6.010951 817.101004 -3.118901 C 812.648082 -0.268613 807.297267 1.156531 801.04856 1.156531 Z M 774.445876 131.001224 C 766.437925 131.001224 760.753011 128.088292 757.396354 122.26765 C 754.034476 116.410466 752.358758 109.321289 752.358758 101.00012 C 752.358758 95.414392 752.90167 89.494564 753.997934 83.245856 C 755.130741 76.997149 756.576766 70.999016 758.330789 65.256679 C 763.95828 47.794752 769.40828 34.399445 774.68079 25.060316 C 779.9533 15.689865 786.029737 11.002029 792.904881 11.002029 C 798.334 11.002029 801.04856 14.5936 801.04856 21.781963 C 801.04856 26.584645 800.129786 31.507395 798.292238 36.544991 C 796.45991 41.587807 794.658904 46.547099 792.904881 51.428086 C 791.145638 56.314293 790.268626 60.923824 790.268626 65.256679 C 790.268626 69.239773 791.260485 72.231009 793.254642 74.225166 C 795.248799 76.214103 797.843292 77.211182 801.04856 77.211182 C 804.760198 77.211182 807.8454 76.099256 810.304164 73.870185 C 812.768149 71.646334 815.206032 68.775166 817.628255 65.256679 C 818.91767 63.346046 820.556847 62.620424 822.551004 63.090251 C 824.545161 63.560079 826.22088 64.630242 827.5886 66.311181 C 828.956321 67.99212 829.232997 69.552991 828.413409 70.999016 C 826.810774 73.577848 824.936684 77.268605 822.785918 82.076508 C 820.635151 86.837427 818.040659 92.036853 814.992 97.659124 C 811.948561 103.244852 808.450955 108.559124 804.504403 113.59672 C 800.599614 118.634317 796.162353 122.794901 791.203061 126.078474 C 786.24377 129.356827 780.658041 131.001224 774.445876 131.001224 Z M 826.983045 131.001224 C 821.397316 131.001224 817.080122 129.320285 814.031463 125.958407 C 810.988024 122.60175 809.463695 118.441165 809.463695 113.481874 C 809.463695 107.896145 810.105792 100.900934 811.395208 92.50146 C 812.684624 84.107207 814.678781 75.023873 817.37246 65.256679 C 820.1079 55.802703 823.114797 46.959503 826.39837 38.716639 C 829.676723 30.473774 833.038601 23.791781 836.473563 18.67588 C 839.913745 13.55998 843.155555 11.002029 846.198994 11.002029 C 849.404263 11.002029 851.513267 11.915583 852.531226 13.753131 C 853.585728 15.590679 854.112979 17.720564 854.112979 20.142787 C 854.112979 24.752318 855.224905 27.623486 857.448756 28.756293 C 859.714369 29.8891 862.763028 28.521379 866.589513 24.653132 C 871.084197 20.356819 875.714609 17.015823 880.48075 14.635363 C 885.283432 12.213141 890.341909 11.002029 895.656182 11.002029 C 902.995933 11.002029 908.425052 13.168457 911.943539 17.501311 C 915.456806 21.802844 917.216049 26.99705 917.216049 33.089148 C 917.216049 37.228851 916.573951 41.018794 915.284536 44.458976 C 914.031662 47.893938 912.763127 51.255816 911.473712 54.534168 C 910.184296 57.817741 909.542198 61.466736 909.542198 65.491593 C 909.542198 73.499543 913.389564 77.503519 921.084296 77.503519 C 924.754172 77.503519 927.823713 76.349831 930.282477 74.047676 C 932.783004 71.703758 935.226108 68.775166 937.606568 65.256679 C 938.895984 63.346046 940.576922 62.662186 942.644164 63.205098 C 944.753168 63.75323 946.475869 64.828614 947.801827 66.431248 C 949.169547 68.028662 949.38358 69.631296 948.449145 71.23393 C 946.846511 73.812762 944.909777 77.545281 942.644164 82.426268 C 940.420313 87.270713 937.742296 92.464918 934.620552 98.014104 C 931.493588 103.521528 927.839374 108.794038 923.663128 113.831634 C 919.523425 118.86923 914.85125 122.993273 909.657045 126.193321 C 904.462839 129.398589 898.584774 131.001224 892.022848 131.001224 C 884.521267 131.001224 879.248757 128.521578 876.200098 123.557066 C 873.156659 118.597774 871.632329 112.756251 871.632329 106.037716 C 871.632329 99.945618 872.472799 94.145857 874.148517 88.638433 C 875.829456 83.13101 877.510395 78.088193 879.191334 73.520425 C 880.867052 68.947436 881.707522 65.063527 881.707522 61.858259 C 881.707522 59.164581 880.867052 57.092119 879.191334 55.646094 C 877.510395 54.205289 875.302205 53.479666 872.566764 53.479666 C 867.957233 53.479666 863.681802 55.452942 859.73525 59.399494 C 855.83046 63.304284 852.666954 68.383643 850.244732 74.63235 C 847.859052 80.844515 846.668822 87.56305 846.668822 94.787955 L 846.668822 105.567888 C 846.668822 109.556203 846.183333 113.518416 845.207136 117.464968 C 844.267481 121.369757 842.393391 124.611568 839.579645 127.1904 C 836.7659 129.732689 832.568773 131.001224 826.983045 131.001224 Z M 1168.975789 65.256679 C 1170.265205 63.346046 1171.904381 62.662186 1173.893318 63.205098 C 1175.887475 63.75323 1177.568414 64.828614 1178.936135 66.431248 C 1180.303855 68.028662 1180.596192 69.631296 1179.813146 71.23393 C 1173.40783 83.538193 1167.644611 93.618606 1162.52871 101.469948 C 1157.412809 109.321289 1152.604907 115.376845 1148.115443 119.631395 C 1143.620759 123.849403 1139.246141 126.798877 1134.991591 128.479815 C 1130.768363 130.160754 1126.336322 131.001224 1121.690249 131.001224 C 1114.188668 131.001224 1107.428371 129.57608 1101.414577 126.720572 C 1095.437326 123.833742 1090.128274 120.142985 1085.47698 115.648301 C 1080.830907 111.158837 1076.513714 106.429239 1072.530619 101.469948 C 1066.276692 111.701749 1059.422429 119.673158 1051.96261 125.373733 C 1044.539334 131.037766 1035.868404 133.872392 1025.944601 133.872392 C 1017.315434 133.872392 1010.085309 131.998302 1004.264666 128.244902 C 998.407482 124.496721 994.032865 119.673158 991.140815 113.774211 C 988.248765 107.833502 986.80796 101.50649 986.80796 94.787955 C 986.80796 88.032878 988.525441 81.549257 991.960403 75.337091 C 995.400585 69.088384 1000.537367 63.967263 1007.370749 59.984169 C 1014.167588 55.959312 1022.608825 53.949494 1032.684017 53.949494 C 1038.426355 53.949494 1043.740627 54.591592 1048.621614 55.881008 C 1053.502601 57.170423 1058.112132 58.773058 1062.450207 60.68891 C 1063.233253 59.242885 1064.052841 57.682013 1064.908971 56.001075 C 1065.812084 54.320136 1066.668215 52.680959 1067.487803 51.078325 C 1053.544363 47.095231 1042.566058 40.548966 1034.558107 31.449971 C 1026.591919 22.309214 1022.608825 11.409213 1022.608825 -1.244811 C 1022.608825 -14.525271 1026.471852 -25.21124 1034.208347 -33.297495 C 1041.981384 -41.38375 1052.197524 -45.424268 1064.851548 -45.424268 C 1072.822957 -45.424268 1079.207392 -43.529296 1084.015295 -39.744574 C 1088.817977 -35.991173 1091.219318 -31.146728 1091.219318 -25.21124 C 1091.219318 -20.914927 1089.950783 -18.764161 1087.413714 -18.764161 C 1081.629614 -18.764161 1076.691204 -16.790885 1072.588043 -12.849553 C 1068.526644 -8.939543 1066.490724 -3.473882 1066.490724 3.557872 C 1066.490724 8.517163 1067.487803 12.933543 1069.48196 16.80179 C 1071.51266 20.628275 1074.206338 23.890967 1077.568216 26.584645 C 1084.286751 10.104137 1090.926981 -3.60961 1097.488907 -14.546153 C 1104.050832 -25.524458 1111.082586 -33.767322 1118.584167 -39.274746 C 1126.12229 -44.78217 1134.756677 -47.533272 1144.482109 -47.533272 C 1155.38211 -47.533272 1163.995616 -44.740408 1170.322628 -39.154679 C 1176.64964 -33.568951 1179.813146 -25.169477 1179.813146 -13.961478 C 1179.813146 -5.640309 1178.116546 2.602556 1174.718127 10.767116 C 1171.356249 18.931675 1166.27689 26.334071 1159.480051 32.974301 C 1152.683211 39.614531 1144.168891 44.944465 1133.937089 48.969321 C 1123.700067 52.952415 1111.709023 54.946573 1097.958734 54.946573 L 1095.322479 54.946573 C 1092.430429 61.821717 1089.538379 68.284457 1086.65155 74.340013 C 1091.924059 77.388672 1097.431483 80.004046 1103.173821 82.191354 C 1108.952701 84.342121 1115.378898 85.412284 1122.452414 85.412284 C 1127.881533 85.412284 1133.582108 84.728423 1139.55936 83.360703 C 1145.573153 81.998203 1151.179763 79.847436 1156.373968 76.918844 C 1161.573394 73.94849 1165.770521 70.064581 1168.975789 65.256679 Z M 1132.997434 -6.052713 C 1131.551409 -6.052713 1129.578133 -5.327091 1127.077606 -3.881066 C 1124.618841 -2.435041 1121.591064 0.963379 1117.999492 6.314194 C 1114.402701 11.665008 1110.12727 20.101024 1105.162758 31.627462 C 1104.812997 32.44705 1104.484118 33.324062 1104.170899 34.263717 C 1112.022241 33.793889 1118.620709 31.841494 1123.971523 28.401312 C 1129.327558 24.96635 1133.44638 20.88407 1136.33843 16.154472 C 1139.22526 11.430094 1140.671285 7.076359 1140.671285 3.088044 C 1140.671285 0.665822 1140.06573 -1.458843 1138.854618 -3.296391 C 1137.643507 -5.133939 1135.691112 -6.052713 1132.997434 -6.052713 Z M 1039.36601 82.776029 C 1043.698865 82.776029 1048.03694 80.374687 1052.369794 75.572005 C 1050.417399 73.656153 1048.444123 72.131823 1046.455187 70.999016 C 1044.461029 69.86621 1042.352025 69.302417 1040.128175 69.302417 C 1037.392734 69.302417 1035.299391 69.986277 1033.858586 71.353997 C 1032.412561 72.716497 1031.686938 74.282589 1031.686938 76.036612 C 1031.686938 77.795856 1032.334256 79.361948 1033.623672 80.724448 C 1034.913088 82.092168 1036.82372 82.776029 1039.36601 82.776029 Z M 1283.232646 65.256679 C 1284.167081 63.810654 1285.670529 63.283403 1287.742991 63.674926 C 1289.851995 64.066449 1291.668662 64.94346 1293.192991 66.311181 C 1294.717321 67.678901 1294.988777 69.318078 1294.01258 71.23393 C 1291.783508 76.036612 1288.875798 81.001124 1285.279006 86.117025 C 1281.687435 91.232926 1277.197971 95.513577 1271.805394 98.948539 C 1266.454579 102.388722 1259.850891 104.106203 1251.99955 104.106203 L 1249.128381 104.106203 C 1243.229434 112.270763 1236.161139 118.790926 1227.918274 123.677133 C 1219.67541 128.55812 1211.061903 131.001224 1202.077755 131.001224 C 1191.376126 131.001224 1182.506825 127.404432 1175.475071 120.22129 C 1168.443318 112.991165 1164.930051 103.150886 1164.930051 90.690014 C 1164.930051 81.700645 1166.569228 72.544227 1169.852801 63.205098 C 1173.131153 53.829427 1177.725023 45.20026 1183.61875 37.307156 C 1189.559459 29.37751 1196.512908 23.013955 1204.479096 18.206053 C 1212.487047 13.40337 1221.298925 11.002029 1230.90429 11.002029 C 1237.471436 11.002029 1243.386043 12.327987 1248.658553 14.985123 C 1253.936284 17.600497 1258.13341 21.959453 1261.260374 28.051552 C 1264.382118 34.107108 1265.942989 42.193363 1265.942989 52.310318 C 1265.942989 60.782876 1264.752759 69.010079 1262.3723 76.976268 L 1264.011476 76.976268 C 1267.529963 76.976268 1270.88662 76.057494 1274.091888 74.225166 C 1277.291937 72.387618 1280.340596 69.396382 1283.232646 65.256679 Z M 1215.791501 81.314343 C 1219.774595 81.314343 1223.287862 80.118892 1226.336521 77.738433 C 1229.38518 75.31621 1231.786521 72.387618 1233.545765 68.947436 C 1235.299788 65.512474 1236.18202 62.114054 1236.18202 58.752176 C 1236.18202 55.23891 1235.143179 52.247674 1233.075937 49.788909 C 1231.003475 47.288382 1227.646818 46.040729 1222.995525 46.040729 C 1219.16904 46.040729 1215.77062 47.173536 1212.800265 49.439149 C 1209.829911 51.663 1207.506874 54.497626 1205.825935 57.932588 C 1204.150217 61.37277 1203.309747 64.849495 1203.309747 68.362761 C 1203.309747 71.881248 1204.265064 74.924687 1206.180916 77.503519 C 1208.091549 80.040588 1211.296817 81.314343 1215.791501 81.314343 Z M 1404.442951 65.256679 C 1405.382607 63.810654 1406.886055 63.283403 1408.953296 63.674926 C 1411.0623 64.066449 1412.878967 64.94346 1414.403297 66.311181 C 1415.927626 67.678901 1416.199082 69.318078 1415.222885 71.23393 C 1411.709618 78.615444 1408.311199 85.824688 1405.027626 92.856441 C 1401.749273 99.888195 1398.272549 106.293511 1394.597453 112.072391 C 1390.927577 117.814728 1386.845297 122.408598 1382.355833 125.84356 C 1377.861149 129.283743 1372.745248 131.001224 1367.00291 131.001224 C 1363.484424 131.001224 1360.675898 129.24198 1358.566894 125.728714 C 1353.445773 142.209223 1347.959231 155.416599 1342.102047 165.335182 C 1336.281404 175.258985 1329.776902 182.447348 1322.588539 186.90027 C 1315.400177 191.389734 1307.235617 193.634466 1298.094859 193.634466 C 1285.477378 193.634466 1275.694523 190.31435 1268.741074 183.67412 C 1261.745863 177.03389 1258.253477 167.950556 1258.253477 156.429338 C 1258.253477 150.373782 1259.130489 145.143035 1260.889732 140.726655 C 1262.648976 136.310276 1264.658794 132.833551 1266.924407 130.296482 C 1269.148258 127.717651 1271.142415 126.078474 1272.901658 125.373733 C 1274.655682 124.632449 1275.616218 124.903905 1275.772827 126.193321 C 1276.435806 132.13403 1279.113824 136.936713 1283.796439 140.611809 C 1288.526037 144.281684 1294.894811 146.197537 1302.902762 146.354146 C 1308.488491 146.354146 1313.761 144.986426 1318.720292 142.250985 C 1323.679584 139.552086 1328.116844 136.002278 1332.021634 131.585898 C 1335.968186 127.211281 1339.053387 122.387717 1341.277238 117.115207 C 1343.542851 111.800935 1344.675658 106.507544 1344.675658 101.235034 C 1344.675658 99.162572 1343.876951 98.165493 1342.274317 98.243798 C 1340.671682 98.322103 1339.309182 99.554095 1338.176376 101.939775 C 1334.971107 110.255724 1330.283272 116.82287 1324.112869 121.625552 C 1317.979008 126.428235 1311.866029 128.829576 1305.773931 128.829576 C 1297.452762 128.829576 1290.812531 125.765256 1285.84802 119.631395 C 1280.888728 113.460993 1278.409082 105.881107 1278.409082 96.896959 C 1278.409082 87.954573 1279.677617 78.521479 1282.214686 68.597675 C 1284.793518 58.673872 1288.682646 49.360844 1293.876852 40.648152 C 1299.112819 31.93546 1305.59644 24.830622 1313.327715 19.317978 C 1321.105972 13.774012 1330.105781 11.002029 1340.342803 11.002029 C 1345.145485 11.002029 1348.857124 11.450976 1351.472497 12.348869 C 1354.129634 13.204999 1356.144672 14.280382 1357.507172 15.569798 C 1358.874893 16.859214 1360.02858 17.955478 1360.968236 18.853371 C 1361.944433 19.709501 1363.233849 20.142787 1364.836483 20.142787 C 1367.530161 20.142787 1369.71747 19.380622 1371.398409 17.856292 C 1373.074127 16.331963 1374.953438 14.807633 1377.020679 13.283303 C 1379.129683 11.764194 1382.021733 11.002029 1385.691609 11.002029 C 1388.896877 11.002029 1391.105067 11.800736 1392.316178 13.40337 C 1393.52729 15.006005 1394.132845 17.172432 1394.132845 19.907873 C 1394.132845 22.75816 1393.19319 26.15658 1391.3191 30.103132 C 1389.481552 34.007922 1387.080211 39.045518 1384.109856 45.221141 C 1381.181264 51.349781 1378.038639 59.300309 1374.676761 69.067503 C 1373.074127 75.472819 1373.074127 79.925741 1374.676761 82.426268 C 1376.279396 84.885033 1378.430162 86.117025 1381.12384 86.117025 C 1384.835479 86.117025 1388.761149 83.893174 1392.900853 79.435032 C 1397.082319 74.945568 1400.929685 70.221191 1404.442951 65.256679 Z M 1327.626136 81.314343 C 1331.60923 81.314343 1335.127717 80.118892 1338.176376 77.738433 C 1341.219815 75.31621 1343.621156 72.387618 1345.380399 68.947436 C 1347.139643 65.512474 1348.016654 62.114054 1348.016654 58.752176 C 1348.016654 55.23891 1346.983033 52.247674 1344.910572 49.788909 C 1342.84333 47.288382 1339.481452 46.040729 1334.835379 46.040729 C 1331.003674 46.040729 1327.605254 47.173536 1324.64012 49.439149 C 1321.669765 51.663 1319.346729 54.497626 1317.66579 57.932588 C 1315.984851 61.37277 1315.144382 64.849495 1315.144382 68.362761 C 1315.144382 71.881248 1316.104918 74.924687 1318.015551 77.503519 C 1319.931403 80.040588 1323.136672 81.314343 1327.626136 81.314343 Z M 1447.129401 1.156531 C 1441.387063 1.156531 1436.422551 -0.0754619 1432.246306 -2.534226 C 1428.106602 -5.034753 1426.034141 -9.487675 1426.034141 -15.892992 C 1426.034141 -24.37077 1428.39894 -30.170531 1433.123317 -33.297495 C 1437.852915 -36.424459 1443.475186 -37.98533 1450.000569 -37.98533 C 1456.092668 -37.98533 1461.250331 -36.61761 1465.468339 -33.882169 C 1469.722889 -31.146728 1471.539556 -26.030828 1470.918339 -18.529247 C 1470.25014 -11.147733 1467.676529 -6.010951 1463.181844 -3.118901 C 1458.728923 -0.268613 1453.378108 1.156531 1447.129401 1.156531 Z M 1420.526717 131.001224 C 1412.518766 131.001224 1406.833852 128.088292 1403.477195 122.26765 C 1400.115317 116.410466 1398.434378 109.321289 1398.434378 101.00012 C 1398.434378 95.414392 1398.98251 89.494564 1400.078775 83.245856 C 1401.211581 76.997149 1402.657606 70.999016 1404.411629 65.256679 C 1410.03912 47.794752 1415.489121 34.399445 1420.761631 25.060316 C 1426.034141 15.689865 1432.110578 11.002029 1438.985722 11.002029 C 1444.414841 11.002029 1447.129401 14.5936 1447.129401 21.781963 C 1447.129401 26.584645 1446.210627 31.507395 1444.373079 36.544991 C 1442.535531 41.587807 1440.739745 46.547099 1438.985722 51.428086 C 1437.226479 56.314293 1436.344247 60.923824 1436.344247 65.256679 C 1436.344247 69.239773 1437.341325 72.231009 1439.335483 74.225166 C 1441.324419 76.214103 1443.924132 77.211182 1447.129401 77.211182 C 1450.841039 77.211182 1453.92624 76.099256 1456.385005 73.870185 C 1458.84899 71.646334 1461.286873 68.775166 1463.709095 65.256679 C 1464.998511 63.346046 1466.637687 62.620424 1468.631845 63.090251 C 1470.626002 63.560079 1472.30172 64.630242 1473.669441 66.311181 C 1475.037161 67.99212 1475.313838 69.552991 1474.489029 70.999016 C 1472.891615 73.577848 1471.012305 77.268605 1468.866759 82.076508 C 1466.715992 86.837427 1464.1215 92.036853 1461.07284 97.659124 C 1458.024181 103.244852 1454.531796 108.559124 1450.585244 113.59672 C 1446.680454 118.634317 1442.243193 122.794901 1437.283902 126.078474 C 1432.32461 129.356827 1426.738882 131.001224 1420.526717 131.001224 Z M 1473.063885 131.001224 C 1467.478157 131.001224 1463.160963 129.320285 1460.112304 125.958407 C 1457.063645 122.60175 1455.544535 118.441165 1455.544535 113.481874 C 1455.544535 107.896145 1456.186633 100.900934 1457.476049 92.50146 C 1458.765465 84.107207 1460.759622 75.023873 1463.4533 65.256679 C 1466.188741 55.802703 1469.195638 46.959503 1472.473991 38.716639 C 1475.757564 30.473774 1479.119441 23.791781 1482.554403 18.67588 C 1485.989365 13.55998 1489.236396 11.002029 1492.279835 11.002029 C 1495.485103 11.002029 1497.594107 11.915583 1498.606847 13.753131 C 1499.661349 15.590679 1500.1886 17.720564 1500.1886 20.142787 C 1500.1886 24.752318 1501.305745 27.623486 1503.529596 28.756293 C 1505.795209 29.8891 1508.843869 28.521379 1512.670354 24.653132 C 1517.165038 20.356819 1521.79023 17.015823 1526.55637 14.635363 C 1531.364273 12.213141 1536.42275 11.002029 1541.731802 11.002029 C 1549.076774 11.002029 1554.505893 13.168457 1558.02438 17.501311 C 1561.537646 21.802844 1563.29689 26.99705 1563.29689 33.089148 C 1563.29689 37.228851 1562.649572 41.018794 1561.365376 44.458976 C 1560.112503 47.893938 1558.843968 51.255816 1557.554552 54.534168 C 1556.265136 57.817741 1555.623039 61.466736 1555.623039 65.491593 C 1555.623039 73.499543 1559.470405 77.503519 1567.165137 77.503519 C 1570.835013 77.503519 1573.904553 76.349831 1576.363318 74.047676 C 1578.863845 71.703758 1581.306948 68.775166 1583.687408 65.256679 C 1584.976824 63.346046 1586.657763 62.662186 1588.725005 63.205098 C 1590.834009 63.75323 1592.55671 64.828614 1593.882668 66.431248 C 1595.250388 68.028662 1595.464421 69.631296 1594.524765 71.23393 C 1592.927352 73.812762 1590.990618 77.545281 1588.725005 82.426268 C 1586.501154 87.270713 1583.823136 92.464918 1580.701393 98.014104 C 1577.574429 103.521528 1573.920214 108.794038 1569.743969 113.831634 C 1565.599045 118.86923 1560.932091 122.993273 1555.737885 126.193321 C 1550.54368 129.398589 1544.665614 131.001224 1538.103689 131.001224 C 1530.602108 131.001224 1525.329598 128.521578 1522.280939 123.557066 C 1519.232279 118.597774 1517.71317 112.756251 1517.71317 106.037716 C 1517.71317 99.945618 1518.548419 94.145857 1520.229358 88.638433 C 1521.910297 83.13101 1523.591236 78.088193 1525.266954 73.520425 C 1526.947893 68.947436 1527.788362 65.063527 1527.788362 61.858259 C 1527.788362 59.164581 1526.947893 57.092119 1525.266954 55.646094 C 1523.591236 54.205289 1521.383046 53.479666 1518.647605 53.479666 C 1514.038074 53.479666 1509.762643 55.452942 1505.816091 59.399494 C 1501.911301 63.304284 1498.747795 68.383643 1496.325573 74.63235 C 1493.939892 80.844515 1492.749663 87.56305 1492.749663 94.787955 L 1492.749663 105.567888 C 1492.749663 109.556203 1492.258954 113.518416 1491.282756 117.464968 C 1490.348321 121.369757 1488.474231 124.611568 1485.660486 127.1904 C 1482.84674 129.732689 1478.649614 131.001224 1473.063885 131.001224 Z M 1473.063885 131.001224 " stroke="#bc6c25" stroke-width="32.700001" stroke-opacity="1" stroke-miterlimit="4"/></g><g fill="#fefae0" fill-opacity="1"><g transform="translate(62.429827, 152.526428)"><g><path d="M 157.5 -49.203125 C 158.457031 -50.640625 159.710938 -51.148438 161.265625 -50.734375 C 162.828125 -50.316406 164.113281 -49.507812 165.125 -48.3125 C 166.144531 -47.113281 166.296875 -45.914062 165.578125 -44.71875 C 164.390625 -42.800781 162.957031 -40.015625 161.28125 -36.359375 C 159.601562 -32.710938 157.59375 -28.820312 155.25 -24.6875 C 152.914062 -20.5625 150.191406 -16.613281 147.078125 -12.84375 C 143.972656 -9.070312 140.472656 -5.988281 136.578125 -3.59375 C 132.691406 -1.195312 128.289062 0 123.375 0 C 119.1875 0 115.804688 -1.195312 113.234375 -3.59375 C 110.660156 -5.988281 108.800781 -9.21875 107.65625 -13.28125 C 106.519531 -17.351562 105.953125 -21.847656 105.953125 -26.765625 C 105.953125 -29.035156 106.070312 -31.425781 106.3125 -33.9375 C 106.550781 -36.457031 106.910156 -39.09375 107.390625 -41.84375 C 103.566406 -42.082031 99.828125 -42.441406 96.171875 -42.921875 C 92.515625 -43.398438 88.953125 -44.0625 85.484375 -44.90625 C 84.410156 -42.988281 83.332031 -41.039062 82.25 -39.0625 C 81.175781 -37.082031 80.097656 -35.132812 79.015625 -33.21875 C 74.953125 -26.15625 70.253906 -19.507812 64.921875 -13.28125 C 59.597656 -7.0625 53.910156 -2.035156 47.859375 1.796875 C 41.816406 5.628906 35.5625 7.546875 29.09375 7.546875 C 20.945312 7.546875 14.328125 6.078125 9.234375 3.140625 C 4.148438 0.210938 0.441406 -3.582031 -1.890625 -8.25 C -4.222656 -12.925781 -5.390625 -17.71875 -5.390625 -22.625 C -5.390625 -27.53125 -4.398438 -32.226562 -2.421875 -36.71875 C -0.453125 -41.21875 2.328125 -44.875 5.921875 -47.6875 C 9.515625 -50.5 13.707031 -51.90625 18.5 -51.90625 C 20.289062 -51.90625 21.1875 -51.1875 21.1875 -49.75 C 21.1875 -45.800781 22.890625 -42.597656 26.296875 -40.140625 C 29.710938 -37.679688 33.878906 -36.453125 38.796875 -36.453125 C 44.421875 -36.453125 49.597656 -37.828125 54.328125 -40.578125 C 59.054688 -43.335938 63.457031 -47.050781 67.53125 -51.71875 C 58.3125 -56.394531 51.003906 -62.441406 45.609375 -69.859375 C 40.222656 -77.285156 37.53125 -85.488281 37.53125 -94.46875 C 37.53125 -100.8125 38.875 -106.140625 41.5625 -110.453125 C 44.257812 -114.765625 47.820312 -118.054688 52.25 -120.328125 C 56.6875 -122.597656 61.421875 -123.734375 66.453125 -123.734375 C 73.273438 -123.734375 78.269531 -121.96875 81.4375 -118.4375 C 84.613281 -114.90625 86.203125 -111.046875 86.203125 -106.859375 C 86.328125 -105.535156 86.03125 -104.457031 85.3125 -103.625 C 84.59375 -102.789062 83.570312 -102.429688 82.25 -102.546875 C 79.976562 -102.785156 77.675781 -102.484375 75.34375 -101.640625 C 73.007812 -100.804688 71.0625 -99.222656 69.5 -96.890625 C 67.945312 -94.554688 67.171875 -91.175781 67.171875 -86.75 C 67.171875 -77.53125 70.519531 -70.101562 77.21875 -64.46875 C 78.0625 -65.789062 78.867188 -67.140625 79.640625 -68.515625 C 80.421875 -69.890625 81.234375 -71.296875 82.078125 -72.734375 C 91.171875 -89.140625 99.847656 -101.859375 108.109375 -110.890625 C 116.367188 -119.929688 124.210938 -126.21875 131.640625 -129.75 C 139.066406 -133.28125 146.070312 -135.046875 152.65625 -135.046875 C 159 -135.046875 163.664062 -133.335938 166.65625 -129.921875 C 169.65625 -126.515625 171.15625 -122.359375 171.15625 -117.453125 C 171.03125 -111.703125 169.679688 -106.757812 167.109375 -102.625 C 164.535156 -98.5 161.332031 -96.4375 157.5 -96.4375 C 156.300781 -96.4375 155.222656 -96.765625 154.265625 -97.421875 C 153.304688 -98.085938 152.171875 -98.359375 150.859375 -98.234375 C 149.066406 -98.234375 147.09375 -96.675781 144.9375 -93.5625 C 142.78125 -90.457031 140.5625 -85.191406 138.28125 -77.765625 C 137.207031 -74.054688 136.160156 -70.101562 135.140625 -65.90625 C 134.128906 -61.71875 133.625 -57.890625 133.625 -54.421875 C 133.625 -50.703125 134.3125 -47.675781 135.6875 -45.34375 C 137.0625 -43.007812 139.425781 -41.84375 142.78125 -41.84375 C 145.53125 -41.84375 148.25 -42.410156 150.9375 -43.546875 C 153.632812 -44.679688 155.820312 -46.566406 157.5 -49.203125 Z M 110.09375 -54.0625 C 112.488281 -62.4375 114.734375 -69.109375 116.828125 -74.078125 C 118.921875 -79.046875 120.625 -83.023438 121.9375 -86.015625 C 123.257812 -89.015625 123.921875 -91.710938 123.921875 -94.109375 C 123.921875 -95.785156 123.203125 -96.625 121.765625 -96.625 C 120.566406 -96.625 119.304688 -96.171875 117.984375 -95.265625 C 116.671875 -94.367188 114.695312 -92.367188 112.0625 -89.265625 C 108.46875 -84.585938 105.023438 -79.492188 101.734375 -73.984375 C 98.441406 -68.484375 95.179688 -62.800781 91.953125 -56.9375 C 94.585938 -56.09375 97.429688 -55.460938 100.484375 -55.046875 C 103.535156 -54.628906 106.738281 -54.300781 110.09375 -54.0625 Z M 110.09375 -54.0625 "/></g></g></g><g fill="#fefae0" fill-opacity="1"><g transform="translate(215.797255, 152.526428)"><g><path d="M 21.015625 0 C 13.953125 0 8.769531 -2.453125 5.46875 -7.359375 C 2.175781 -12.273438 0.53125 -18.320312 0.53125 -25.5 C 0.53125 -32.207031 1.488281 -39.269531 3.40625 -46.6875 C 5.320312 -54.113281 8.222656 -61.085938 12.109375 -67.609375 C 16.003906 -74.140625 20.851562 -79.46875 26.65625 -83.59375 C 32.46875 -87.726562 39.207031 -89.796875 46.875 -89.796875 C 50.46875 -89.796875 53.25 -89.375 55.21875 -88.53125 C 57.195312 -87.695312 58.691406 -86.710938 59.703125 -85.578125 C 60.722656 -84.441406 61.59375 -83.421875 62.3125 -82.515625 C 63.03125 -81.617188 63.988281 -81.171875 65.1875 -81.171875 C 66.144531 -81.171875 66.921875 -82.25 67.515625 -84.40625 C 68.117188 -86.5625 69.019531 -89.765625 70.21875 -94.015625 C 71.414062 -98.265625 73.269531 -103.441406 75.78125 -109.546875 C 78.0625 -115.054688 80.304688 -119.21875 82.515625 -122.03125 C 84.734375 -124.84375 86.859375 -126.726562 88.890625 -127.6875 C 90.929688 -128.644531 92.847656 -129.125 94.640625 -129.125 C 97.753906 -129.125 99.820312 -127.597656 100.84375 -124.546875 C 101.863281 -121.492188 101.175781 -117.394531 98.78125 -112.25 L 78.484375 -60.34375 C 75.492188 -53.757812 74.382812 -48.726562 75.15625 -45.25 C 75.9375 -41.78125 78.300781 -40.046875 82.25 -40.046875 C 85.363281 -40.046875 88.054688 -40.851562 90.328125 -42.46875 C 92.609375 -44.09375 94.644531 -46.335938 96.4375 -49.203125 C 97.394531 -50.640625 98.625 -51.148438 100.125 -50.734375 C 101.625 -50.316406 102.878906 -49.507812 103.890625 -48.3125 C 104.910156 -47.113281 105.125 -45.914062 104.53125 -44.71875 C 102.375 -40.53125 100.066406 -35.890625 97.609375 -30.796875 C 95.148438 -25.710938 92.425781 -20.832031 89.4375 -16.15625 C 86.445312 -11.488281 83.035156 -7.628906 79.203125 -4.578125 C 75.367188 -1.523438 70.9375 0 65.90625 0 C 60.164062 0 55.914062 -2.507812 53.15625 -7.53125 C 50.40625 -12.5625 49.507812 -18.789062 50.46875 -26.21875 L 49.75 -26.21875 C 46.039062 -18.914062 41.703125 -12.71875 36.734375 -7.625 C 31.765625 -2.539062 26.523438 0 21.015625 0 Z M 37.359375 -37.171875 C 40.347656 -37.171875 42.976562 -38.066406 45.25 -39.859375 C 47.53125 -41.660156 49.328125 -43.847656 50.640625 -46.421875 C 51.960938 -48.992188 52.625 -51.539062 52.625 -54.0625 C 52.625 -56.695312 51.84375 -58.941406 50.28125 -60.796875 C 48.726562 -62.648438 46.21875 -63.578125 42.75 -63.578125 C 39.875 -63.578125 37.328125 -62.738281 35.109375 -61.0625 C 32.890625 -59.382812 31.148438 -57.257812 29.890625 -54.6875 C 28.640625 -52.113281 28.015625 -49.507812 28.015625 -46.875 C 28.015625 -44.238281 28.734375 -41.960938 30.171875 -40.046875 C 31.609375 -38.128906 34.003906 -37.171875 37.359375 -37.171875 Z M 37.359375 -37.171875 "/></g></g><g transform="translate(308.105046, 152.526428)"><g><path d="M 11.3125 0 C 7.125 0 3.890625 -1.253906 1.609375 -3.765625 C -0.660156 -6.285156 -1.796875 -9.398438 -1.796875 -13.109375 C -1.796875 -17.296875 -1.4375 -22.53125 -0.71875 -28.8125 C 0 -35.101562 1.613281 -41.898438 4.125 -49.203125 C 6.644531 -56.628906 9.097656 -63.394531 11.484375 -69.5 C 13.878906 -75.601562 16.304688 -80.507812 18.765625 -84.21875 C 21.222656 -87.9375 23.648438 -89.796875 26.046875 -89.796875 C 28.078125 -89.796875 29.507812 -89.109375 30.34375 -87.734375 C 31.1875 -86.359375 31.609375 -84.769531 31.609375 -82.96875 C 31.609375 -79.976562 32.503906 -77.941406 34.296875 -76.859375 C 36.097656 -75.785156 38.4375 -76.6875 41.3125 -79.5625 C 44.65625 -82.789062 48.125 -85.300781 51.71875 -87.09375 C 55.3125 -88.894531 59.082031 -89.796875 63.03125 -89.796875 C 67.46875 -89.796875 70.972656 -88.71875 73.546875 -86.5625 C 76.117188 -84.40625 77.820312 -81.710938 78.65625 -78.484375 C 78.894531 -77.285156 79.375 -76.59375 80.09375 -76.40625 C 80.8125 -76.226562 81.832031 -76.921875 83.15625 -78.484375 C 86.625 -82.316406 90.273438 -85.21875 94.109375 -87.1875 C 97.941406 -89.164062 102.007812 -90.15625 106.3125 -90.15625 C 113.382812 -90.15625 118.351562 -88.535156 121.21875 -85.296875 C 124.09375 -82.066406 125.53125 -78.179688 125.53125 -73.640625 C 125.53125 -70.523438 125.050781 -67.675781 124.09375 -65.09375 C 123.132812 -62.519531 122.175781 -60.003906 121.21875 -57.546875 C 120.269531 -55.097656 119.796875 -52.378906 119.796875 -49.390625 C 119.796875 -43.160156 122.726562 -40.046875 128.59375 -40.046875 C 131.34375 -40.046875 133.644531 -40.910156 135.5 -42.640625 C 137.351562 -44.378906 139.179688 -46.566406 140.984375 -49.203125 C 141.941406 -50.640625 143.195312 -51.148438 144.75 -50.734375 C 146.3125 -50.316406 147.597656 -49.507812 148.609375 -48.3125 C 149.628906 -47.113281 149.78125 -45.914062 149.0625 -44.71875 C 147.863281 -42.800781 146.425781 -40.015625 144.75 -36.359375 C 143.070312 -32.710938 141.066406 -28.820312 138.734375 -24.6875 C 136.398438 -20.5625 133.675781 -16.613281 130.5625 -12.84375 C 127.445312 -9.070312 123.941406 -5.988281 120.046875 -3.59375 C 116.160156 -1.195312 111.765625 0 106.859375 0 C 101.109375 0 97.09375 -1.882812 94.8125 -5.65625 C 92.539062 -9.425781 91.40625 -13.882812 91.40625 -19.03125 C 91.40625 -23.582031 92.035156 -27.921875 93.296875 -32.046875 C 94.554688 -36.179688 95.8125 -39.953125 97.0625 -43.359375 C 98.320312 -46.773438 98.953125 -49.679688 98.953125 -52.078125 C 98.953125 -54.117188 98.320312 -55.675781 97.0625 -56.75 C 95.8125 -57.832031 94.164062 -58.375 92.125 -58.375 C 88.65625 -58.375 85.453125 -56.9375 82.515625 -54.0625 C 79.585938 -51.1875 77.222656 -47.59375 75.421875 -43.28125 C 73.628906 -38.96875 72.734375 -34.535156 72.734375 -29.984375 C 72.734375 -27.359375 72.941406 -25.328125 73.359375 -23.890625 C 73.785156 -22.453125 74 -20.414062 74 -17.78125 C 74 -15.269531 73.609375 -12.664062 72.828125 -9.96875 C 72.046875 -7.269531 70.515625 -4.992188 68.234375 -3.140625 C 65.960938 -1.285156 62.554688 -0.359375 58.015625 -0.359375 C 53.941406 -0.359375 50.523438 -1.492188 47.765625 -3.765625 C 45.015625 -6.046875 43.640625 -10.117188 43.640625 -15.984375 C 43.640625 -20.535156 44.382812 -24.90625 45.875 -29.09375 C 47.375 -33.28125 48.875 -37.226562 50.375 -40.9375 C 51.875 -44.65625 52.625 -48.007812 52.625 -51 C 52.625 -53.394531 51.992188 -55.160156 50.734375 -56.296875 C 49.472656 -57.441406 47.828125 -58.015625 45.796875 -58.015625 C 42.328125 -58.015625 39.125 -56.546875 36.1875 -53.609375 C 33.25 -50.671875 30.882812 -46.867188 29.09375 -42.203125 C 27.300781 -37.535156 26.40625 -32.507812 26.40625 -27.125 L 26.40625 -19.03125 C 26.40625 -16.039062 26.046875 -13.078125 25.328125 -10.140625 C 24.609375 -7.210938 23.171875 -4.789062 21.015625 -2.875 C 18.859375 -0.957031 15.625 0 11.3125 0 Z M 11.3125 0 "/></g></g><g transform="translate(444.95045, 152.526428)"><g><path d="M 36.09375 -97.15625 C 31.789062 -97.15625 28.082031 -98.082031 24.96875 -99.9375 C 21.851562 -101.800781 20.296875 -105.125 20.296875 -109.90625 C 20.296875 -116.257812 22.0625 -120.601562 25.59375 -122.9375 C 29.125 -125.269531 33.34375 -126.4375 38.25 -126.4375 C 42.800781 -126.4375 46.660156 -125.414062 49.828125 -123.375 C 53.003906 -121.34375 54.351562 -117.515625 53.875 -111.890625 C 53.394531 -106.378906 51.476562 -102.546875 48.125 -100.390625 C 44.78125 -98.234375 40.769531 -97.15625 36.09375 -97.15625 Z M 16.15625 0 C 10.175781 0 5.925781 -2.179688 3.40625 -6.546875 C 0.894531 -10.921875 -0.359375 -16.222656 -0.359375 -22.453125 C -0.359375 -26.640625 0.0546875 -31.066406 0.890625 -35.734375 C 1.734375 -40.410156 2.8125 -44.898438 4.125 -49.203125 C 8.320312 -62.253906 12.394531 -72.28125 16.34375 -79.28125 C 20.289062 -86.289062 24.835938 -89.796875 29.984375 -89.796875 C 34.054688 -89.796875 36.09375 -87.101562 36.09375 -81.71875 C 36.09375 -78.125 35.40625 -74.441406 34.03125 -70.671875 C 32.65625 -66.898438 31.304688 -63.1875 29.984375 -59.53125 C 28.671875 -55.882812 28.015625 -52.441406 28.015625 -49.203125 C 28.015625 -46.210938 28.757812 -43.96875 30.25 -42.46875 C 31.75 -40.976562 33.695312 -40.234375 36.09375 -40.234375 C 38.851562 -40.234375 41.160156 -41.066406 43.015625 -42.734375 C 44.867188 -44.410156 46.691406 -46.566406 48.484375 -49.203125 C 49.441406 -50.640625 50.671875 -51.175781 52.171875 -50.8125 C 53.671875 -50.457031 54.925781 -49.648438 55.9375 -48.390625 C 56.957031 -47.140625 57.171875 -45.976562 56.578125 -44.90625 C 55.378906 -42.988281 53.96875 -40.234375 52.34375 -36.640625 C 50.726562 -33.046875 48.785156 -29.148438 46.515625 -24.953125 C 44.242188 -20.765625 41.640625 -16.785156 38.703125 -13.015625 C 35.765625 -9.242188 32.441406 -6.128906 28.734375 -3.671875 C 25.023438 -1.222656 20.832031 0 16.15625 0 Z M 16.15625 0 "/></g></g></g><g fill="#fefae0" fill-opacity="1"><g transform="translate(489.128864, 152.526428)"><g><path d="M 11.3125 0 C 7.125 0 3.890625 -1.253906 1.609375 -3.765625 C -0.660156 -6.285156 -1.796875 -9.398438 -1.796875 -13.109375 C -1.796875 -17.296875 -1.316406 -22.53125 -0.359375 -28.8125 C 0.597656 -35.101562 2.09375 -41.898438 4.125 -49.203125 C 6.164062 -56.273438 8.410156 -62.890625 10.859375 -69.046875 C 13.316406 -75.210938 15.832031 -80.210938 18.40625 -84.046875 C 20.976562 -87.878906 23.40625 -89.796875 25.6875 -89.796875 C 28.082031 -89.796875 29.664062 -89.109375 30.4375 -87.734375 C 31.21875 -86.359375 31.609375 -84.769531 31.609375 -82.96875 C 31.609375 -79.5 32.445312 -77.34375 34.125 -76.5 C 35.800781 -75.664062 38.078125 -76.6875 40.953125 -79.5625 C 44.296875 -82.789062 47.765625 -85.300781 51.359375 -87.09375 C 54.953125 -88.894531 58.722656 -89.796875 62.671875 -89.796875 C 68.179688 -89.796875 72.253906 -88.175781 74.890625 -84.9375 C 77.523438 -81.707031 78.84375 -77.820312 78.84375 -73.28125 C 78.84375 -70.164062 78.363281 -67.316406 77.40625 -64.734375 C 76.445312 -62.160156 75.488281 -59.644531 74.53125 -57.1875 C 73.570312 -54.738281 73.09375 -52.019531 73.09375 -49.03125 C 73.09375 -43.039062 75.96875 -40.046875 81.71875 -40.046875 C 84.46875 -40.046875 86.769531 -40.910156 88.625 -42.640625 C 90.476562 -44.378906 92.304688 -46.566406 94.109375 -49.203125 C 95.066406 -50.640625 96.320312 -51.148438 97.875 -50.734375 C 99.4375 -50.316406 100.722656 -49.507812 101.734375 -48.3125 C 102.753906 -47.113281 102.90625 -45.914062 102.1875 -44.71875 C 100.988281 -42.800781 99.550781 -40.015625 97.875 -36.359375 C 96.195312 -32.710938 94.191406 -28.820312 91.859375 -24.6875 C 89.523438 -20.5625 86.800781 -16.613281 83.6875 -12.84375 C 80.570312 -9.070312 77.066406 -5.988281 73.171875 -3.59375 C 69.285156 -1.195312 64.890625 0 59.984375 0 C 54.359375 0 50.40625 -1.851562 48.125 -5.5625 C 45.851562 -9.28125 44.71875 -13.648438 44.71875 -18.671875 C 44.71875 -23.222656 45.34375 -27.5625 46.59375 -31.6875 C 47.851562 -35.820312 49.113281 -39.59375 50.375 -43 C 51.632812 -46.414062 52.265625 -49.320312 52.265625 -51.71875 C 52.265625 -53.757812 51.632812 -55.316406 50.375 -56.390625 C 49.113281 -57.472656 47.46875 -58.015625 45.4375 -58.015625 C 41.96875 -58.015625 38.765625 -56.546875 35.828125 -53.609375 C 32.890625 -50.671875 30.523438 -46.867188 28.734375 -42.203125 C 26.941406 -37.535156 26.046875 -32.507812 26.046875 -27.125 L 26.046875 -19.03125 C 26.046875 -16.039062 25.6875 -13.078125 24.96875 -10.140625 C 24.25 -7.210938 22.835938 -4.789062 20.734375 -2.875 C 18.640625 -0.957031 15.5 0 11.3125 0 Z M 11.3125 0 "/></g></g></g><g fill="#fefae0" fill-opacity="1"><g transform="translate(579.102016, 152.526428)"><g/></g></g><g fill="#fefae0" fill-opacity="1"><g transform="translate(643.753405, 152.526428)"><g><path d="M 112.609375 -49.203125 C 113.566406 -50.640625 114.789062 -51.148438 116.28125 -50.734375 C 117.78125 -50.316406 119.035156 -49.507812 120.046875 -48.3125 C 121.066406 -47.113281 121.28125 -45.914062 120.6875 -44.71875 C 115.894531 -35.5 111.582031 -27.957031 107.75 -22.09375 C 103.925781 -16.226562 100.335938 -11.707031 96.984375 -8.53125 C 93.628906 -5.351562 90.363281 -3.132812 87.1875 -1.875 C 84.019531 -0.625 80.695312 0 77.21875 0 C 71.59375 0 66.535156 -1.078125 62.046875 -3.234375 C 57.554688 -5.390625 53.578125 -8.140625 50.109375 -11.484375 C 46.640625 -14.835938 43.40625 -18.375 40.40625 -22.09375 C 35.738281 -14.425781 30.617188 -8.46875 25.046875 -4.21875 C 19.484375 0.03125 12.988281 2.15625 5.5625 2.15625 C -0.894531 2.15625 -6.304688 0.75 -10.671875 -2.0625 C -15.046875 -4.875 -18.3125 -8.492188 -20.46875 -12.921875 C -22.625 -17.359375 -23.703125 -22.09375 -23.703125 -27.125 C -23.703125 -32.144531 -22.414062 -36.988281 -19.84375 -41.65625 C -17.269531 -46.332031 -13.4375 -50.164062 -8.34375 -53.15625 C -3.257812 -56.15625 3.050781 -57.65625 10.59375 -57.65625 C 14.90625 -57.65625 18.882812 -57.175781 22.53125 -56.21875 C 26.1875 -55.257812 29.628906 -54.0625 32.859375 -52.625 C 33.460938 -53.695312 34.09375 -54.863281 34.75 -56.125 C 35.40625 -57.382812 36.035156 -58.613281 36.640625 -59.8125 C 26.222656 -62.800781 18.019531 -67.707031 12.03125 -74.53125 C 6.039062 -81.351562 3.046875 -89.492188 3.046875 -98.953125 C 3.046875 -108.890625 5.945312 -116.878906 11.75 -122.921875 C 17.5625 -128.972656 25.195312 -132 34.65625 -132 C 40.644531 -132 45.4375 -130.59375 49.03125 -127.78125 C 52.625 -124.96875 54.421875 -121.347656 54.421875 -116.921875 C 54.421875 -113.679688 53.460938 -112.0625 51.546875 -112.0625 C 47.234375 -112.0625 43.550781 -110.59375 40.5 -107.65625 C 37.445312 -104.726562 35.921875 -100.628906 35.921875 -95.359375 C 35.921875 -91.648438 36.664062 -88.359375 38.15625 -85.484375 C 39.65625 -82.609375 41.664062 -80.15625 44.1875 -78.125 C 49.207031 -90.457031 54.171875 -100.722656 59.078125 -108.921875 C 63.992188 -117.117188 69.265625 -123.285156 74.890625 -127.421875 C 80.515625 -131.554688 86.976562 -133.625 94.28125 -133.625 C 102.425781 -133.625 108.863281 -131.523438 113.59375 -127.328125 C 118.320312 -123.140625 120.6875 -116.851562 120.6875 -108.46875 C 120.6875 -102.25 119.425781 -96.082031 116.90625 -89.96875 C 114.394531 -83.863281 110.59375 -78.328125 105.5 -73.359375 C 100.414062 -68.390625 94.039062 -64.410156 86.375 -61.421875 C 78.71875 -58.429688 69.742188 -56.9375 59.453125 -56.9375 L 57.46875 -56.9375 C 55.3125 -51.78125 53.15625 -46.929688 51 -42.390625 C 54.957031 -40.109375 59.085938 -38.160156 63.390625 -36.546875 C 67.703125 -34.929688 72.492188 -34.125 77.765625 -34.125 C 81.835938 -34.125 86.117188 -34.628906 90.609375 -35.640625 C 95.097656 -36.660156 99.285156 -38.28125 103.171875 -40.5 C 107.066406 -42.71875 110.210938 -45.617188 112.609375 -49.203125 Z M 85.671875 -102.546875 C 84.585938 -102.546875 83.117188 -102.003906 81.265625 -100.921875 C 79.410156 -99.847656 77.132812 -97.304688 74.4375 -93.296875 C 71.75 -89.285156 68.546875 -82.972656 64.828125 -74.359375 C 64.585938 -73.753906 64.347656 -73.09375 64.109375 -72.375 C 69.984375 -72.738281 74.925781 -74.207031 78.9375 -76.78125 C 82.945312 -79.351562 86.023438 -82.40625 88.171875 -85.9375 C 90.328125 -89.46875 91.40625 -92.726562 91.40625 -95.71875 C 91.40625 -97.519531 90.957031 -99.109375 90.0625 -100.484375 C 89.164062 -101.859375 87.703125 -102.546875 85.671875 -102.546875 Z M 15.625 -36.09375 C 18.851562 -36.09375 22.085938 -37.890625 25.328125 -41.484375 C 23.890625 -42.921875 22.421875 -44.054688 20.921875 -44.890625 C 19.421875 -45.734375 17.832031 -46.15625 16.15625 -46.15625 C 14.125 -46.15625 12.566406 -45.644531 11.484375 -44.625 C 10.410156 -43.613281 9.875 -42.445312 9.875 -41.125 C 9.875 -39.8125 10.351562 -38.644531 11.3125 -37.625 C 12.269531 -36.601562 13.707031 -36.09375 15.625 -36.09375 Z M 15.625 -36.09375 "/></g></g></g><g fill="#fefae0" fill-opacity="1"><g transform="translate(752.224056, 152.526428)"><g><path d="M 89.625 -49.203125 C 90.332031 -50.285156 91.460938 -50.675781 93.015625 -50.375 C 94.578125 -50.070312 95.925781 -49.410156 97.0625 -48.390625 C 98.207031 -47.378906 98.421875 -46.15625 97.703125 -44.71875 C 96.023438 -41.125 93.835938 -37.410156 91.140625 -33.578125 C 88.453125 -29.753906 85.097656 -26.550781 81.078125 -23.96875 C 77.066406 -21.394531 72.128906 -20.109375 66.265625 -20.109375 L 64.109375 -20.109375 C 59.679688 -14.003906 54.382812 -9.125 48.21875 -5.46875 C 42.050781 -1.820312 35.617188 0 28.921875 0 C 20.890625 0 14.238281 -2.691406 8.96875 -8.078125 C 3.707031 -13.460938 1.078125 -20.828125 1.078125 -30.171875 C 1.078125 -36.878906 2.300781 -43.734375 4.75 -50.734375 C 7.207031 -57.734375 10.648438 -64.195312 15.078125 -70.125 C 19.515625 -76.050781 24.722656 -80.8125 30.703125 -84.40625 C 36.691406 -88 43.28125 -89.796875 50.46875 -89.796875 C 55.375 -89.796875 59.800781 -88.804688 63.75 -86.828125 C 67.707031 -84.859375 70.851562 -81.597656 73.1875 -77.046875 C 75.519531 -72.492188 76.6875 -66.445312 76.6875 -58.90625 C 76.6875 -52.5625 75.789062 -46.394531 74 -40.40625 L 75.25 -40.40625 C 77.882812 -40.40625 80.398438 -41.09375 82.796875 -42.46875 C 85.191406 -43.851562 87.46875 -46.097656 89.625 -49.203125 Z M 39.15625 -37.171875 C 42.144531 -37.171875 44.773438 -38.066406 47.046875 -39.859375 C 49.328125 -41.660156 51.125 -43.847656 52.4375 -46.421875 C 53.757812 -48.992188 54.421875 -51.539062 54.421875 -54.0625 C 54.421875 -56.695312 53.640625 -58.941406 52.078125 -60.796875 C 50.523438 -62.648438 48.015625 -63.578125 44.546875 -63.578125 C 41.671875 -63.578125 39.125 -62.738281 36.90625 -61.0625 C 34.6875 -59.382812 32.945312 -57.257812 31.6875 -54.6875 C 30.4375 -52.113281 29.8125 -49.507812 29.8125 -46.875 C 29.8125 -44.238281 30.53125 -41.960938 31.96875 -40.046875 C 33.40625 -38.128906 35.800781 -37.171875 39.15625 -37.171875 Z M 39.15625 -37.171875 "/></g></g></g><g fill="#fefae0" fill-opacity="1"><g transform="translate(837.707575, 152.526428)"><g><path d="M 94.828125 -49.203125 C 95.546875 -50.285156 96.679688 -50.675781 98.234375 -50.375 C 99.796875 -50.070312 101.144531 -49.410156 102.28125 -48.390625 C 103.414062 -47.378906 103.625 -46.15625 102.90625 -44.71875 C 100.269531 -39.207031 97.722656 -33.816406 95.265625 -28.546875 C 92.816406 -23.285156 90.210938 -18.5 87.453125 -14.1875 C 84.703125 -9.875 81.648438 -6.429688 78.296875 -3.859375 C 74.953125 -1.285156 71.125 0 66.8125 0 C 64.175781 0 62.078125 -1.316406 60.515625 -3.953125 C 56.691406 8.378906 52.59375 18.253906 48.21875 25.671875 C 43.851562 33.097656 38.972656 38.488281 33.578125 41.84375 C 28.191406 45.195312 22.085938 46.875 15.265625 46.875 C 5.804688 46.875 -1.523438 44.390625 -6.734375 39.421875 C -11.941406 34.453125 -14.546875 27.65625 -14.546875 19.03125 C -14.546875 14.488281 -13.882812 10.566406 -12.5625 7.265625 C -11.25 3.972656 -9.753906 1.375 -8.078125 -0.53125 C -6.398438 -2.445312 -4.898438 -3.675781 -3.578125 -4.21875 C -2.265625 -4.757812 -1.550781 -4.550781 -1.4375 -3.59375 C -0.957031 0.832031 1.046875 4.421875 4.578125 7.171875 C 8.109375 9.929688 12.867188 11.375 18.859375 11.5 C 23.046875 11.5 26.992188 10.476562 30.703125 8.4375 C 34.421875 6.40625 37.742188 3.742188 40.671875 0.453125 C 43.609375 -2.835938 45.914062 -6.457031 47.59375 -10.40625 C 49.269531 -14.363281 50.109375 -18.316406 50.109375 -22.265625 C 50.109375 -23.828125 49.507812 -24.578125 48.3125 -24.515625 C 47.113281 -24.453125 46.09375 -23.523438 45.25 -21.734375 C 42.863281 -15.503906 39.363281 -10.59375 34.75 -7 C 30.144531 -3.40625 25.566406 -1.609375 21.015625 -1.609375 C 14.785156 -1.609375 9.8125 -3.910156 6.09375 -8.515625 C 2.382812 -13.128906 0.53125 -18.789062 0.53125 -25.5 C 0.53125 -32.207031 1.488281 -39.269531 3.40625 -46.6875 C 5.320312 -54.113281 8.222656 -61.085938 12.109375 -67.609375 C 16.003906 -74.140625 20.851562 -79.46875 26.65625 -83.59375 C 32.46875 -87.726562 39.207031 -89.796875 46.875 -89.796875 C 50.46875 -89.796875 53.25 -89.46875 55.21875 -88.8125 C 57.195312 -88.15625 58.691406 -87.347656 59.703125 -86.390625 C 60.722656 -85.429688 61.59375 -84.617188 62.3125 -83.953125 C 63.03125 -83.296875 63.988281 -82.96875 65.1875 -82.96875 C 67.226562 -82.96875 68.875 -83.535156 70.125 -84.671875 C 71.382812 -85.816406 72.789062 -86.957031 74.34375 -88.09375 C 75.90625 -89.226562 78.0625 -89.796875 80.8125 -89.796875 C 83.207031 -89.796875 84.851562 -89.195312 85.75 -88 C 86.65625 -86.800781 87.109375 -85.1875 87.109375 -83.15625 C 87.109375 -81 86.414062 -78.453125 85.03125 -75.515625 C 83.65625 -72.585938 81.859375 -68.816406 79.640625 -64.203125 C 77.429688 -59.597656 75.070312 -53.640625 72.5625 -46.328125 C 71.363281 -41.546875 71.363281 -38.222656 72.5625 -36.359375 C 73.757812 -34.503906 75.375 -33.578125 77.40625 -33.578125 C 80.15625 -33.578125 83.085938 -35.253906 86.203125 -38.609375 C 89.316406 -41.960938 92.191406 -45.492188 94.828125 -49.203125 Z M 37.359375 -37.171875 C 40.347656 -37.171875 42.976562 -38.066406 45.25 -39.859375 C 47.53125 -41.660156 49.328125 -43.847656 50.640625 -46.421875 C 51.960938 -48.992188 52.625 -51.539062 52.625 -54.0625 C 52.625 -56.695312 51.84375 -58.941406 50.28125 -60.796875 C 48.726562 -62.648438 46.21875 -63.578125 42.75 -63.578125 C 39.875 -63.578125 37.328125 -62.738281 35.109375 -61.0625 C 32.890625 -59.382812 31.148438 -57.257812 29.890625 -54.6875 C 28.640625 -52.113281 28.015625 -49.507812 28.015625 -46.875 C 28.015625 -44.238281 28.734375 -41.960938 30.171875 -40.046875 C 31.609375 -38.128906 34.003906 -37.171875 37.359375 -37.171875 Z M 37.359375 -37.171875 "/></g></g></g><g fill="#fefae0" fill-opacity="1"><g transform="translate(928.399045, 152.526428)"><g><path d="M 36.09375 -97.15625 C 31.789062 -97.15625 28.082031 -98.082031 24.96875 -99.9375 C 21.851562 -101.800781 20.296875 -105.125 20.296875 -109.90625 C 20.296875 -116.257812 22.0625 -120.601562 25.59375 -122.9375 C 29.125 -125.269531 33.34375 -126.4375 38.25 -126.4375 C 42.800781 -126.4375 46.660156 -125.414062 49.828125 -123.375 C 53.003906 -121.34375 54.351562 -117.515625 53.875 -111.890625 C 53.394531 -106.378906 51.476562 -102.546875 48.125 -100.390625 C 44.78125 -98.234375 40.769531 -97.15625 36.09375 -97.15625 Z M 16.15625 0 C 10.175781 0 5.925781 -2.179688 3.40625 -6.546875 C 0.894531 -10.921875 -0.359375 -16.222656 -0.359375 -22.453125 C -0.359375 -26.640625 0.0546875 -31.066406 0.890625 -35.734375 C 1.734375 -40.410156 2.8125 -44.898438 4.125 -49.203125 C 8.320312 -62.253906 12.394531 -72.28125 16.34375 -79.28125 C 20.289062 -86.289062 24.835938 -89.796875 29.984375 -89.796875 C 34.054688 -89.796875 36.09375 -87.101562 36.09375 -81.71875 C 36.09375 -78.125 35.40625 -74.441406 34.03125 -70.671875 C 32.65625 -66.898438 31.304688 -63.1875 29.984375 -59.53125 C 28.671875 -55.882812 28.015625 -52.441406 28.015625 -49.203125 C 28.015625 -46.210938 28.757812 -43.96875 30.25 -42.46875 C 31.75 -40.976562 33.695312 -40.234375 36.09375 -40.234375 C 38.851562 -40.234375 41.160156 -41.066406 43.015625 -42.734375 C 44.867188 -44.410156 46.691406 -46.566406 48.484375 -49.203125 C 49.441406 -50.640625 50.671875 -51.175781 52.171875 -50.8125 C 53.671875 -50.457031 54.925781 -49.648438 55.9375 -48.390625 C 56.957031 -47.140625 57.171875 -45.976562 56.578125 -44.90625 C 55.378906 -42.988281 53.96875 -40.234375 52.34375 -36.640625 C 50.726562 -33.046875 48.785156 -29.148438 46.515625 -24.953125 C 44.242188 -20.765625 41.640625 -16.785156 38.703125 -13.015625 C 35.765625 -9.242188 32.441406 -6.128906 28.734375 -3.671875 C 25.023438 -1.222656 20.832031 0 16.15625 0 Z M 16.15625 0 "/></g></g></g><g fill="#fefae0" fill-opacity="1"><g transform="translate(972.577512, 152.526428)"><g><path d="M 11.3125 0 C 7.125 0 3.890625 -1.253906 1.609375 -3.765625 C -0.660156 -6.285156 -1.796875 -9.398438 -1.796875 -13.109375 C -1.796875 -17.296875 -1.316406 -22.53125 -0.359375 -28.8125 C 0.597656 -35.101562 2.09375 -41.898438 4.125 -49.203125 C 6.164062 -56.273438 8.410156 -62.890625 10.859375 -69.046875 C 13.316406 -75.210938 15.832031 -80.210938 18.40625 -84.046875 C 20.976562 -87.878906 23.40625 -89.796875 25.6875 -89.796875 C 28.082031 -89.796875 29.664062 -89.109375 30.4375 -87.734375 C 31.21875 -86.359375 31.609375 -84.769531 31.609375 -82.96875 C 31.609375 -79.5 32.445312 -77.34375 34.125 -76.5 C 35.800781 -75.664062 38.078125 -76.6875 40.953125 -79.5625 C 44.296875 -82.789062 47.765625 -85.300781 51.359375 -87.09375 C 54.953125 -88.894531 58.722656 -89.796875 62.671875 -89.796875 C 68.179688 -89.796875 72.253906 -88.175781 74.890625 -84.9375 C 77.523438 -81.707031 78.84375 -77.820312 78.84375 -73.28125 C 78.84375 -70.164062 78.363281 -67.316406 77.40625 -64.734375 C 76.445312 -62.160156 75.488281 -59.644531 74.53125 -57.1875 C 73.570312 -54.738281 73.09375 -52.019531 73.09375 -49.03125 C 73.09375 -43.039062 75.96875 -40.046875 81.71875 -40.046875 C 84.46875 -40.046875 86.769531 -40.910156 88.625 -42.640625 C 90.476562 -44.378906 92.304688 -46.566406 94.109375 -49.203125 C 95.066406 -50.640625 96.320312 -51.148438 97.875 -50.734375 C 99.4375 -50.316406 100.722656 -49.507812 101.734375 -48.3125 C 102.753906 -47.113281 102.90625 -45.914062 102.1875 -44.71875 C 100.988281 -42.800781 99.550781 -40.015625 97.875 -36.359375 C 96.195312 -32.710938 94.191406 -28.820312 91.859375 -24.6875 C 89.523438 -20.5625 86.800781 -16.613281 83.6875 -12.84375 C 80.570312 -9.070312 77.066406 -5.988281 73.171875 -3.59375 C 69.285156 -1.195312 64.890625 0 59.984375 0 C 54.359375 0 50.40625 -1.851562 48.125 -5.5625 C 45.851562 -9.28125 44.71875 -13.648438 44.71875 -18.671875 C 44.71875 -23.222656 45.34375 -27.5625 46.59375 -31.6875 C 47.851562 -35.820312 49.113281 -39.59375 50.375 -43 C 51.632812 -46.414062 52.265625 -49.320312 52.265625 -51.71875 C 52.265625 -53.757812 51.632812 -55.316406 50.375 -56.390625 C 49.113281 -57.472656 47.46875 -58.015625 45.4375 -58.015625 C 41.96875 -58.015625 38.765625 -56.546875 35.828125 -53.609375 C 32.890625 -50.671875 30.523438 -46.867188 28.734375 -42.203125 C 26.941406 -37.535156 26.046875 -32.507812 26.046875 -27.125 L 26.046875 -19.03125 C 26.046875 -16.039062 25.6875 -13.078125 24.96875 -10.140625 C 24.25 -7.210938 22.835938 -4.789062 20.734375 -2.875 C 18.640625 -0.957031 15.5 0 11.3125 0 Z M 11.3125 0 "/></g></g></g></svg>