<svg xmlns="http://www.w3.org/2000/svg" xmlns:xlink="http://www.w3.org/1999/xlink" width="1100" zoomAndPan="magnify" viewBox="0 0 824.88 225" height="300" preserveAspectRatio="xMidYMid meet" version="1.0"><defs><g/><clipPath id="06722e3e61"><path d="M 168 0.015625 L 664 0.015625 L 664 193 L 168 193 Z M 168 0.015625 " clip-rule="nonzero"/></clipPath><clipPath id="8acf9928fe"><path d="M 0 26 L 824.761719 26 L 824.761719 224.984375 L 0 224.984375 Z M 0 26 " clip-rule="nonzero"/></clipPath></defs><g clip-path="url(#06722e3e61)"><path stroke-linecap="butt" transform="matrix(0.739073, 0, 0, 0.739073, -32.985594, 24.285449)" fill="none" stroke-linejoin="miter" d="M 435.867798 104.913606 C 428.28862 104.913606 421.507529 103.312148 415.513953 100.109232 C 409.552089 96.906315 404.837566 91.916954 401.375668 85.146434 C 397.91377 78.375913 396.180179 69.665672 396.180179 59.015712 C 396.180179 49.301256 397.860917 40.046626 401.217108 31.241249 C 404.578584 22.441158 409.187401 14.629425 415.048843 7.806051 C 420.931427 0.982677 427.622667 -4.3978 435.122565 -8.330093 C 442.648889 -12.288813 450.529332 -14.26553 458.758606 -14.26553 C 468.890603 -14.26553 476.480352 -12.183106 481.533137 -8.018258 C 486.607064 -3.874551 489.149312 1.6592 489.149312 8.588281 C 489.149312 13.297519 488.234948 17.636783 486.411506 21.595503 C 484.619776 25.527796 482.246658 28.963267 479.302724 31.907202 C 476.364074 34.82471 473.235153 37.086835 469.931815 38.704149 C 466.623192 40.289751 463.4837 41.087838 460.513339 41.087838 C 458.27764 41.087838 456.623329 40.421885 455.55569 39.095265 C 454.488051 37.742218 454.382345 36.214754 455.243855 34.523445 C 459.382276 26.632432 460.788177 20.92955 459.461556 17.414799 C 458.134936 13.873621 455.227999 12.103032 450.751316 12.103032 C 445.957512 12.103032 441.607677 13.598784 437.701811 16.595571 C 433.822371 19.587074 430.762159 23.455943 428.521175 28.196893 C 426.285476 32.932558 425.164984 37.974772 425.164984 43.312966 C 425.164984 48.127911 426.311903 52.520029 428.600455 56.478748 C 430.894293 60.411042 434.356191 63.571675 438.991434 65.971219 C 443.626677 68.365478 449.461693 69.559965 456.491195 69.559965 C 461.517554 69.559965 466.607336 68.820018 471.765828 67.334837 C 476.945462 65.82323 480.877755 63.106565 483.562708 59.174272 C 484.397791 57.89522 485.476001 57.44068 486.802621 57.805369 C 488.160954 58.170057 489.27616 58.883578 490.164098 59.951217 C 491.073176 61.018856 491.268734 62.086494 490.75077 63.154133 C 484.033103 76.70046 476.295365 87.049156 467.548127 94.210792 C 458.795604 101.346001 448.235494 104.913606 435.867798 104.913606 Z M 546.743664 59.174272 C 547.599889 57.89522 548.720381 57.44068 550.099855 57.805369 C 551.479329 58.170057 552.626248 58.883578 553.540612 59.951217 C 554.44969 61.018856 554.581824 62.086494 553.926441 63.154133 C 552.858803 64.877154 551.585036 67.361264 550.099855 70.617033 C 548.614675 73.846376 546.833515 77.308274 544.751091 81.008012 C 542.663382 84.681324 540.232125 88.196075 537.446751 91.552266 C 534.682518 94.913742 531.569453 97.662119 528.107555 99.797397 C 524.645657 101.932674 520.723934 103.000313 516.352958 103.000313 C 511.976696 103.000313 508.498943 102.181085 505.919697 100.537344 C 503.366877 98.872462 501.532864 96.737185 500.412372 94.131512 C 499.29188 91.504698 498.731634 88.856742 498.731634 86.203502 C 498.731634 82.477337 499.29188 78.809311 500.412372 75.188853 C 501.532864 71.541968 502.833058 68.064214 504.318239 64.755591 C 505.829846 61.452254 507.145896 58.418468 508.266388 55.654235 C 509.38688 52.868861 509.941841 50.511599 509.941841 48.587736 C 509.941841 47.752652 509.334026 46.515882 508.107827 44.877427 C 506.886914 43.207259 504.672356 41.790788 501.46944 40.617443 C 500.502223 42.726293 499.360589 45.199833 498.028684 48.03806 C 496.702063 50.876288 495.359587 53.651091 494.00654 56.357186 C 492.679919 59.068565 491.596425 61.330691 490.766626 63.154133 C 490.111244 64.538892 489.059461 65.046285 487.600708 64.681596 C 486.16838 64.316908 484.968608 63.545248 484.006676 62.377188 C 483.071171 61.203843 482.912611 60.136204 483.536281 59.174272 C 485.047888 57.038994 486.7022 53.910073 488.499215 49.798078 C 490.322658 45.680798 491.924116 41.817215 493.30359 38.196757 C 491.712702 37.673508 490.438935 36.775 489.477003 35.501233 C 488.509786 34.195754 488.02882 32.11333 488.02882 29.248676 C 488.02882 27.012977 488.615493 24.798419 489.788838 22.610289 C 490.962184 20.422158 492.61121 18.588145 494.746488 17.102964 C 496.88705 15.591357 499.387016 14.835553 502.251671 14.835553 C 507.272744 14.835553 512.103545 15.797485 516.738788 17.726634 C 521.379317 19.655783 525.190047 22.08704 528.186835 25.030974 C 531.183623 27.948482 532.679374 30.839563 532.679374 33.704218 C 532.679374 36.69572 532.119128 39.533948 530.998636 42.218901 C 529.878144 44.877427 528.731225 47.594092 527.563165 50.384751 C 526.389819 53.143699 525.803146 56.177484 525.803146 59.486107 C 525.803146 61.721806 526.548379 63.598102 528.028275 65.109709 C 529.513455 66.59489 532.082131 67.334837 535.72373 67.334837 C 538.176128 67.334837 540.216269 66.568463 541.86001 65.030429 C 543.524892 63.471253 545.152777 61.515678 546.743664 59.174272 Z M 573.143938 103.000313 C 566.738106 103.000313 561.479193 101.567985 557.361913 98.703331 C 553.276345 95.81225 550.242559 91.996234 548.260557 87.255284 C 546.28384 82.493193 545.316622 77.255421 545.369476 71.552539 C 545.422329 65.849657 546.410688 60.146775 548.339837 54.443892 C 550.268986 48.74101 553.038504 43.519094 556.658962 38.78343 C 560.27942 34.016053 564.682109 30.200037 569.861742 27.335383 C 575.046661 24.444302 580.892247 23.001404 587.403786 23.001404 C 592.403718 23.001404 596.478715 23.936909 599.628778 25.813205 C 602.778841 27.663074 605.099105 30.136613 606.584286 33.233822 C 608.064181 36.331032 608.809414 39.639655 608.809414 43.154406 C 608.809414 47.012704 607.741775 50.849861 605.606498 54.681733 C 603.497647 58.508319 600.516715 61.684809 596.658417 64.211201 C 592.83183 66.711167 588.302294 67.958507 583.064522 67.958507 C 580.828823 67.958507 578.640692 67.805232 576.505415 67.493397 C 574.370137 67.155136 572.403991 66.452185 570.606975 65.384547 C 570.0573 65.072712 569.460056 65.056856 568.809959 65.342264 C 568.181004 65.606531 567.869169 66.267198 567.869169 67.334837 C 567.869169 70.093785 569.497054 72.207921 572.752823 73.666675 C 576.008593 75.093717 579.930315 75.812523 584.512705 75.812523 C 589.956605 75.812523 595.580207 74.433049 601.388796 71.674101 C 607.1921 68.883442 611.906623 64.718594 615.527081 59.174272 C 616.388592 57.89522 617.509084 57.44068 618.888558 57.805369 C 620.294458 58.170057 621.436092 58.883578 622.324029 59.951217 C 623.233107 61.018856 623.381097 62.086494 622.752141 63.154133 C 615.696212 76.177211 607.97433 86.071368 599.591781 92.841889 C 591.230372 99.61241 582.414425 103.000313 573.143938 103.000313 Z M 578.9261 55.971356 C 581.996883 55.971356 584.406998 54.977712 586.15116 53.000995 C 587.921749 51.018992 588.809687 49.015848 588.809687 46.986277 C 588.809687 45.189262 588.196587 43.651228 586.970388 42.377461 C 585.749475 41.071982 583.910176 40.421885 581.463064 40.421885 C 578.365854 40.421885 575.902886 41.383817 574.079444 43.312966 C 572.287713 45.242115 571.389205 47.271686 571.389205 49.406963 C 571.389205 51.098272 571.99702 52.62045 573.223218 53.978783 C 574.444132 55.305403 576.346854 55.971356 578.9261 55.971356 Z M 628.819712 103.000313 C 623.375811 103.000313 619.263817 100.759328 616.473157 96.282645 C 613.71421 91.800677 612.334736 85.997373 612.334736 78.856879 C 612.334736 74.353769 612.894982 69.575821 614.015474 64.523036 C 615.135966 59.443824 616.790277 54.459748 618.973123 49.560238 C 621.161254 44.666013 623.909631 40.215757 627.218254 36.204184 C 630.526877 32.19261 634.364034 28.989694 638.740295 26.595435 C 643.116557 24.195891 648.079491 23.001404 653.623813 23.001404 C 656.826729 23.001404 659.300269 23.297383 661.044431 23.899912 C 662.81502 24.470728 664.157496 25.189535 665.07186 26.04576 C 665.980939 26.90727 666.747313 27.636647 667.376268 28.233891 C 668.026365 28.804707 668.88259 29.095401 669.950229 29.095401 C 671.747245 29.095401 673.205999 28.588008 674.326491 27.567938 C 675.446983 26.553152 676.699608 25.538367 678.079082 24.523582 C 679.484983 23.508796 681.408846 23.001404 683.855959 23.001404 C 685.996522 23.001404 687.465846 23.535223 688.274503 24.602862 C 689.077875 25.670501 689.484846 27.113398 689.484846 28.936841 C 689.484846 31.907202 688.649763 34.861707 686.98488 37.805642 C 685.34114 40.749576 683.612833 44.560306 681.789391 49.248403 C 679.130865 55.109845 678.142506 59.586528 678.81903 62.689023 C 679.52198 65.786232 681.630831 67.334837 685.145582 67.334837 C 687.909815 67.334837 690.304074 66.621316 692.333645 65.188989 C 694.368501 63.730235 696.186658 61.721806 697.803972 59.174272 C 698.639055 57.89522 699.717265 57.44068 701.043885 57.805369 C 702.402218 58.170057 703.517424 58.883578 704.405362 59.951217 C 705.31444 61.018856 705.509998 62.086494 704.992034 63.154133 C 703.062885 66.880298 701.006888 71.018719 698.818757 75.579968 C 696.630626 80.109504 694.19937 84.459339 691.514417 88.624187 C 688.855891 92.767894 685.822106 96.203365 682.413061 98.935886 C 679.004017 101.647266 675.055868 103.000313 670.579184 103.000313 C 665.029577 103.000313 661.11314 100.759328 658.819303 96.282645 C 656.525465 91.800677 655.864797 86.256355 656.826729 79.639109 L 656.203059 79.639109 C 653.000143 86.150648 649.041423 91.673829 644.3269 96.203365 C 639.638803 100.732902 634.46974 103.000313 628.819712 103.000313 Z M 644.834292 69.877086 C 647.59324 69.877086 650.019211 69.078999 652.101635 67.493397 C 654.184059 65.876083 655.811944 63.925793 656.98529 61.631955 C 658.15335 59.343403 658.740022 57.075992 658.740022 54.835008 C 658.740022 52.181767 657.984219 50.109914 656.477897 48.624733 C 654.992716 47.113126 652.973716 46.357322 650.420897 46.357322 C 647.661949 46.357322 645.262405 47.113126 643.232834 48.624733 C 641.203264 50.109914 639.628232 51.99678 638.50774 54.290618 C 637.387248 56.57917 636.827002 58.899434 636.827002 61.24084 C 636.827002 63.899366 637.545808 66.008217 638.978136 67.572677 C 640.431604 69.105426 642.38718 69.877086 644.834292 69.877086 Z M 710.277375 103.000313 C 704.289084 103.000313 699.875825 101.1663 697.037597 97.492988 C 694.225796 93.79325 692.819896 88.988876 692.819896 83.079866 C 692.819896 77.16557 693.987956 70.80202 696.334647 63.978646 C 697.740548 59.91422 699.289152 55.537958 700.980461 50.849861 C 702.698197 46.140623 704.563922 41.008558 706.567066 35.458951 C 704.22566 35.458951 702.439215 34.851136 701.218301 33.624938 C 699.992103 32.398739 699.183445 30.966411 698.79233 29.327956 C 698.427642 27.663074 698.427642 26.214891 698.79233 24.993977 C 699.183445 23.767778 699.859969 23.154679 700.827186 23.154679 C 705.515283 23.154679 709.183309 21.854485 711.841835 19.248812 C 714.521503 16.621998 716.397798 13.873621 717.465437 11.008967 C 719.394586 6.32087 721.255026 3.366365 723.052042 2.140166 C 724.875484 0.892826 726.799348 0.26387 728.834204 0.26387 C 731.825706 0.26387 733.691431 1.527067 734.420808 4.053459 C 735.176612 6.553425 734.325672 10.306017 731.87856 15.305948 C 730.7105 17.885194 730.055117 19.835485 729.928269 21.162105 C 729.822562 22.494011 730.525513 23.154679 732.03712 23.154679 L 740.356245 23.154679 C 741.423884 23.154679 742.116264 23.910482 742.428099 25.42209 C 742.739934 26.90727 742.713507 28.614435 742.348819 30.538299 C 741.98413 32.441021 741.291751 34.148186 740.276965 35.654508 C 739.26218 37.139689 737.94613 37.884922 736.334102 37.884922 C 731.434591 37.884922 727.819419 38.080479 725.472728 38.466309 C 723.131322 38.830998 721.47701 39.755932 720.515078 41.241113 C 719.547861 42.726293 718.533076 45.289683 717.465437 48.936568 C 715.747702 54.486175 715.980257 58.910005 718.168387 62.218628 C 720.356518 65.500824 723.807845 67.13928 728.522369 67.13928 C 731.725285 67.13928 734.574083 66.425759 737.074049 64.993431 C 739.574015 63.561104 741.619442 61.621384 743.210329 59.174272 C 744.066554 57.89522 745.16062 57.44068 746.48724 57.805369 C 747.845572 58.170057 748.960779 58.883578 749.848716 59.951217 C 750.757795 61.018856 750.953352 62.086494 750.435389 63.154133 C 749.473457 64.977575 748.183834 67.493397 746.56652 70.696314 C 744.980918 73.872803 743.06234 77.334701 740.826641 81.087292 C 738.585656 84.808172 735.969413 88.322923 732.972625 91.631546 C 730.002264 94.940169 726.619646 97.662119 722.819487 99.797397 C 719.040469 101.932674 714.859764 103.000313 710.277375 103.000313 Z M 769.626459 103.000313 C 763.220627 103.000313 757.956428 101.567985 753.844434 98.703331 C 749.75358 95.81225 746.719795 91.996234 744.743078 87.255284 C 742.761075 82.493193 741.799143 77.255421 741.851997 71.552539 C 741.90485 65.849657 742.893209 60.146775 744.822358 54.443892 C 746.746222 48.74101 749.521025 43.519094 753.141483 38.78343 C 756.761941 34.016053 761.159344 30.200037 766.344263 27.335383 C 771.523896 24.444302 777.369483 23.001404 783.881022 23.001404 C 788.880954 23.001404 792.955951 23.936909 796.111299 25.813205 C 799.261362 27.663074 801.576341 30.136613 803.061521 33.233822 C 804.546702 36.331032 805.28665 39.639655 805.28665 43.154406 C 805.28665 47.012704 804.219011 50.849861 802.083733 54.681733 C 799.974883 58.508319 796.993951 61.684809 793.140938 64.211201 C 789.314351 66.711167 784.77953 67.958507 779.547043 67.958507 C 777.306059 67.958507 775.117928 67.805232 772.98265 67.493397 C 770.847373 67.155136 768.881226 66.452185 767.084211 65.384547 C 766.539821 65.072712 765.937292 65.056856 765.287195 65.342264 C 764.663525 65.606531 764.35169 66.267198 764.35169 67.334837 C 764.35169 70.093785 765.979575 72.207921 769.235344 73.666675 C 772.491114 75.093717 776.407551 75.812523 780.989941 75.812523 C 786.433841 75.812523 792.057443 74.433049 797.866032 71.674101 C 803.674621 68.883442 808.389144 64.718594 812.009602 59.174272 C 812.865827 57.89522 813.986319 57.44068 815.365793 57.805369 C 816.771694 58.170057 817.918613 58.883578 818.80655 59.951217 C 819.715628 61.018856 819.858332 62.086494 819.234662 63.154133 C 812.178733 76.177211 804.456851 86.071368 796.069016 92.841889 C 787.712893 99.61241 778.896946 103.000313 769.626459 103.000313 Z M 775.403336 55.971356 C 778.479404 55.971356 780.889519 54.977712 782.633682 53.000995 C 784.40427 51.018992 785.286922 49.015848 785.286922 46.986277 C 785.286922 45.189262 784.679108 43.651228 783.452909 42.377461 C 782.22671 41.071982 780.392697 40.421885 777.945585 40.421885 C 774.848375 40.421885 772.385407 41.383817 770.561965 43.312966 C 768.764949 45.242115 767.866441 47.271686 767.866441 49.406963 C 767.866441 51.098272 768.479541 52.62045 769.700454 53.978783 C 770.926653 55.305403 772.829375 55.971356 775.403336 55.971356 Z M 775.403336 55.971356 " stroke="#bc6c25" stroke-width="21.799999" stroke-opacity="1" stroke-miterlimit="4"/></g><g clip-path="url(#8acf9928fe)"><path stroke-linecap="butt" transform="matrix(0.739073, 0, 0, 0.739073, -32.985594, 24.285449)" fill="none" stroke-linejoin="miter" d="M 204.576027 203.173365 C 205.437537 201.894313 206.558029 201.439773 207.937503 201.804462 C 209.316977 202.16915 210.463895 202.887957 211.372974 203.955595 C 212.287338 205.023234 212.430042 206.090873 211.806372 207.158511 C 210.738733 208.876247 209.44911 211.360357 207.937503 214.616126 C 206.452322 217.845469 204.671163 221.307367 202.583453 225.007105 C 200.501029 228.680417 198.069773 232.195168 195.279113 235.556644 C 192.520166 238.912835 189.4071 241.661212 185.945202 243.79649 C 182.483305 245.931767 178.561582 246.999406 174.185321 246.999406 C 170.464441 246.999406 167.441226 245.931767 165.126247 243.79649 C 162.83241 241.661212 161.178098 238.785987 160.163313 235.165529 C 159.174954 231.545071 158.678132 227.549354 158.678132 223.173092 C 158.678132 221.138236 158.783839 219.002959 158.989968 216.76726 C 159.201381 214.526276 159.513216 212.18487 159.930758 209.732472 C 156.516428 209.499917 153.186664 209.172226 149.930894 208.75997 C 146.675125 208.342428 143.509206 207.755755 140.438424 206.999951 C 139.476492 208.717687 138.509274 210.461849 137.547342 212.232438 C 136.585411 213.9766 135.618193 215.699621 134.656261 217.39093 C 131.035803 223.691056 126.844529 229.615922 122.077152 235.165529 C 117.336202 240.709851 112.272846 245.191819 106.881799 248.600864 C 101.517178 252.015194 95.957001 253.717073 90.201265 253.717073 C 82.939208 253.717073 77.040768 252.401023 72.505946 249.774209 C 67.97641 247.168537 64.667787 243.79649 62.585363 239.658068 C 60.502939 235.487935 59.461727 231.21738 59.461727 226.841118 C 59.461727 222.470142 60.344379 218.289438 62.114967 214.304291 C 63.864415 210.292718 66.337954 207.036949 69.54087 204.536983 C 72.743787 202.01059 76.480522 200.747394 80.751077 200.747394 C 82.336679 200.747394 83.134765 201.38692 83.134765 202.665972 C 83.134765 206.20715 84.656943 209.071805 87.701299 211.259935 C 90.750941 213.442781 94.461249 214.536846 98.837511 214.536846 C 103.837443 214.536846 108.446259 213.315933 112.663961 210.86882 C 116.881662 208.395281 120.803385 205.070802 124.423843 200.905954 C 116.220995 196.767533 109.709456 191.387056 104.889225 184.775096 C 100.100707 178.15785 97.701163 170.85351 97.701163 162.85679 C 97.701163 157.180335 98.900935 152.428814 101.295194 148.602228 C 103.694739 144.775641 106.855372 141.842278 110.787665 139.812707 C 114.746385 137.783136 118.979942 136.763066 123.483052 136.763066 C 129.550623 136.763066 133.990309 138.343382 136.802109 141.493445 C 139.645622 144.643508 141.062094 148.078979 141.062094 151.805144 C 141.1678 152.978489 140.892963 153.940421 140.242866 154.696225 C 139.619196 155.425602 138.720688 155.737437 137.547342 155.63173 C 135.517772 155.425602 133.456489 155.70044 131.374065 156.450958 C 129.291641 157.180335 127.55805 158.586235 126.178576 160.673945 C 124.799102 162.756369 124.112008 165.774298 124.112008 169.733018 C 124.112008 177.935866 127.09294 184.553112 133.054803 189.57947 C 133.810607 188.379698 134.524128 187.169355 135.200651 185.943156 C 135.908887 184.722242 136.632979 183.469617 137.388782 182.19585 C 145.491209 167.58717 153.213091 156.2554 160.554428 148.211113 C 167.922192 140.140398 174.914697 134.537937 181.531943 131.414301 C 188.143904 128.264239 194.396461 126.689207 200.279045 126.689207 C 205.934359 126.689207 210.083351 128.211385 212.741877 131.255741 C 215.400403 134.278956 216.727024 137.978694 216.727024 142.34967 C 216.621317 147.481736 215.42683 151.884424 213.132992 155.55245 C 210.839155 159.225761 207.990356 161.06506 204.576027 161.06506 C 203.508388 161.06506 202.546456 160.774366 201.684945 160.203549 C 200.855147 159.606306 199.850932 159.357895 198.677587 159.458316 C 197.065558 159.458316 195.294969 160.853646 193.36582 163.63902 C 191.468383 166.403253 189.502236 171.086065 187.46738 177.703311 C 186.505448 181.011934 185.569943 184.537256 184.655579 188.289847 C 183.746501 192.010727 183.286676 195.425056 183.286676 198.522266 C 183.286676 201.830889 183.899776 204.526412 185.125975 206.608836 C 186.373315 208.69126 188.482166 209.732472 191.452527 209.732472 C 193.926066 209.732472 196.362608 209.22508 198.756867 208.210294 C 201.151126 207.195509 203.096131 205.514771 204.576027 203.173365 Z M 162.351444 198.834101 C 164.486721 191.36063 166.479295 185.409337 168.329164 180.985507 C 170.205459 176.556392 171.727637 173.015214 172.900983 170.361973 C 174.069043 167.703447 174.655716 165.309188 174.655716 163.173911 C 174.655716 161.662303 174.01619 160.9065 172.742423 160.9065 C 171.674784 160.9065 170.554292 161.308185 169.380946 162.116843 C 168.212886 162.9255 166.452868 164.706659 164.111462 167.470892 C 160.908546 171.63574 157.832478 176.181133 154.888544 181.101784 C 151.976321 185.996009 149.069384 191.064651 146.178303 196.297137 C 148.524994 197.026514 151.051387 197.58676 153.757481 197.977876 C 156.490002 198.342564 159.354656 198.627972 162.351444 198.834101 Z M 219.618105 246.999406 C 213.339121 246.999406 208.730304 244.811275 205.786369 240.435013 C 202.84772 236.064037 201.37311 230.67299 201.37311 224.267158 C 201.37311 218.300009 202.218765 212.010454 203.915359 205.398493 C 205.633095 198.781247 208.222911 192.570973 211.684809 186.767669 C 215.178419 180.95908 219.501827 176.21813 224.655034 172.544819 C 229.839953 168.850366 235.838814 167.000497 242.662188 167.000497 C 245.865104 167.000497 248.338643 167.375756 250.082805 168.13156 C 251.85868 168.860937 253.195871 169.733018 254.110235 170.747803 C 255.019313 171.767874 255.790973 172.676952 256.414643 173.485609 C 257.06474 174.294266 257.92625 174.695952 258.993889 174.695952 C 259.850114 174.695952 260.542494 173.73402 261.060457 171.804871 C 261.610132 169.875722 262.402933 167.026924 263.444145 163.247905 C 264.511784 159.447746 266.176666 154.823073 268.444077 149.384458 C 270.452506 144.484948 272.439794 140.790495 274.421797 138.290529 C 276.398514 135.790563 278.290666 134.109825 280.087682 133.248314 C 281.905839 132.392089 283.62886 131.958691 285.240888 131.958691 C 287.999836 131.958691 289.839134 133.327595 290.748213 136.060115 C 291.662577 138.771495 291.049477 142.41838 288.9142 147.00077 L 270.827766 193.247496 C 268.16924 199.108938 267.180881 203.590907 267.857404 206.688116 C 268.560355 209.785326 270.669205 211.33393 274.189242 211.33393 C 276.94819 211.33393 279.342449 210.620409 281.372019 209.188082 C 283.406875 207.729328 285.230318 205.726184 286.842346 203.173365 C 287.67743 201.894313 288.75564 201.439773 290.087545 201.804462 C 291.440592 202.16915 292.561084 202.887957 293.443736 203.955595 C 294.3581 205.023234 294.553658 206.090873 294.030409 207.158511 C 292.10126 210.879391 290.045263 215.023098 287.857132 219.579061 C 285.669001 224.108597 283.237744 228.458432 280.552792 232.62328 C 277.899551 236.766987 274.865766 240.202458 271.451436 242.934979 C 268.042391 245.646359 264.094242 246.999406 259.617559 246.999406 C 254.511921 246.999406 250.722332 244.758421 248.248792 240.281738 C 245.80168 235.79977 245.008879 230.255448 245.865104 223.638202 L 245.241434 223.638202 C 241.932811 230.149741 238.069227 235.672922 233.640112 240.202458 C 229.210997 244.731995 224.538756 246.999406 219.618105 246.999406 Z M 234.184502 213.876179 C 236.843028 213.876179 239.184434 213.078092 241.21929 211.49249 C 243.248861 209.875176 244.850319 207.924886 246.023664 205.631048 C 247.19701 203.342496 247.778397 201.075085 247.778397 198.834101 C 247.778397 196.492695 247.091303 194.500122 245.711829 192.861666 C 244.332355 191.191499 242.091371 190.3617 238.994162 190.3617 C 236.441342 190.3617 234.173932 191.112219 232.197214 192.623826 C 230.215212 194.109007 228.666607 195.995873 227.546115 198.289711 C 226.425623 200.578263 225.865377 202.898527 225.865377 205.239933 C 225.865377 207.586624 226.504903 209.616195 227.77867 211.33393 C 229.057722 213.030524 231.193 213.876179 234.184502 213.876179 Z M 293.221752 246.999406 C 289.500872 246.999406 286.620362 245.878914 284.590791 243.643215 C 282.561221 241.40223 281.546436 238.627427 281.546436 235.318804 C 281.546436 231.597924 281.868841 226.936254 282.518938 221.333794 C 283.147894 215.736619 284.580221 209.684904 286.81592 203.173365 C 289.056904 196.556119 291.245035 190.530831 293.380312 185.086931 C 295.51559 179.643031 297.677294 175.266769 299.865425 171.963431 C 302.053555 168.654808 304.21526 167.000497 306.350537 167.000497 C 308.173979 167.000497 309.447746 167.613596 310.177123 168.83451 C 310.932927 170.060709 311.308186 171.47718 311.308186 173.094494 C 311.308186 175.747735 312.106272 177.560607 313.691874 178.522538 C 315.309189 179.48447 317.391613 178.681099 319.944432 176.101853 C 322.935934 173.237198 326.038429 171.01207 329.241345 169.421183 C 332.444261 167.809154 335.800452 167.000497 339.315204 167.000497 C 343.247497 167.000497 346.360562 167.962429 348.6544 169.891578 C 350.942952 171.7943 352.470415 174.188559 353.226219 177.079641 C 353.432347 178.147279 353.849889 178.760379 354.473559 178.913654 C 355.123656 179.072214 356.03802 178.459114 357.20608 177.079641 C 360.308575 173.665311 363.564344 171.086065 366.973389 169.341903 C 370.387719 167.571314 374.018747 166.688662 377.87176 166.688662 C 384.150744 166.688662 388.564003 168.13156 391.116823 171.022641 C 393.690783 173.887295 394.980406 177.349193 394.980406 181.413619 C 394.980406 184.172567 394.552294 186.69896 393.690783 188.992797 C 392.860985 191.28135 392.015331 193.522334 391.15382 195.710465 C 390.29231 197.898596 389.864197 200.335137 389.864197 203.014805 C 389.864197 208.564412 392.48044 211.33393 397.718213 211.33393 C 400.165325 211.33393 402.210752 210.567556 403.849207 209.029522 C 405.514089 207.470347 407.141974 205.514771 408.732861 203.173365 C 409.589087 201.894313 410.709579 201.439773 412.089053 201.804462 C 413.494953 202.16915 414.641872 202.887957 415.529809 203.955595 C 416.438887 205.023234 416.581592 206.090873 415.957922 207.158511 C 414.890283 208.876247 413.60066 211.360357 412.089053 214.616126 C 410.609157 217.845469 408.822712 221.307367 406.740288 225.007105 C 404.657864 228.680417 402.221322 232.195168 399.435948 235.556644 C 396.677001 238.912835 393.563935 241.661212 390.096752 243.79649 C 386.634854 245.931767 382.718417 246.999406 378.342155 246.999406 C 373.236517 246.999406 369.668912 245.318668 367.639342 241.962477 C 365.604486 238.601 364.5897 234.63171 364.5897 230.04932 C 364.5897 225.984893 365.149946 222.116024 366.270439 218.442713 C 367.390931 214.774687 368.511423 211.41321 369.631915 208.368854 C 370.752407 205.319213 371.307368 202.729396 371.307368 200.594119 C 371.307368 198.797103 370.752407 197.41763 369.631915 196.455698 C 368.511423 195.48848 367.036813 195.007514 365.218656 195.007514 C 362.116161 195.007514 359.267363 196.281281 356.66169 198.834101 C 354.056017 201.38692 351.947167 204.589836 350.335138 208.442849 C 348.744251 212.274721 347.951449 216.217585 347.951449 220.282011 C 347.951449 222.623417 348.131151 224.436289 348.49584 225.710056 C 348.886955 226.989108 349.082512 228.796694 349.082512 231.1381 C 349.082512 233.405511 348.73368 235.736346 348.03073 238.130605 C 347.327779 240.530149 345.958876 242.55972 343.929306 244.224602 C 341.920876 245.868343 338.887091 246.687571 334.82795 246.687571 C 331.207492 246.687571 328.157851 245.672785 325.684311 243.643215 C 323.237199 241.608359 322.011 237.97733 322.011 232.739558 C 322.011 228.706843 322.676953 224.827404 324.003573 221.101239 C 325.361906 217.353933 326.699097 213.823325 328.031002 210.514703 C 329.357623 207.20608 330.01829 204.225148 330.01829 201.571907 C 330.01829 199.436629 329.46333 197.861598 328.342837 196.841527 C 327.222345 195.826742 325.747735 195.319349 323.929578 195.319349 C 320.85351 195.319349 318.004712 196.635399 315.372613 199.267499 C 312.76694 201.867886 310.658089 205.255789 309.04606 209.420637 C 307.455173 213.564344 306.662372 218.041027 306.662372 222.861257 L 306.662372 230.04932 C 306.662372 232.702561 306.334681 235.345231 305.684584 237.97733 C 305.060914 240.583003 303.781862 242.744707 301.857998 244.462442 C 299.955275 246.153751 297.08005 246.999406 293.221752 246.999406 Z M 437.21556 160.436104 C 433.383688 160.436104 430.08035 159.616877 427.294976 157.978421 C 424.530743 156.308254 423.151269 153.343178 423.151269 149.072623 C 423.151269 143.417309 424.726301 139.553725 427.876364 137.471301 C 431.031712 135.383592 434.779018 134.34238 439.128853 134.34238 C 443.193279 134.34238 446.628751 135.256744 449.440552 137.080186 C 452.278779 138.903628 453.489122 142.312673 453.07158 147.312605 C 452.632897 152.233256 450.909876 155.658157 447.918374 157.587306 C 444.948012 159.484743 441.380408 160.436104 437.21556 160.436104 Z M 419.477958 246.999406 C 414.139764 246.999406 410.350176 245.059686 408.114477 241.180246 C 405.873492 237.27438 404.753 232.549286 404.753 226.999679 C 404.753 223.273514 405.117689 219.33065 405.847066 215.165802 C 406.602869 210.995668 407.564801 206.999951 408.738147 203.173365 C 412.485453 191.529761 416.121767 182.597536 419.636518 176.37669 C 423.151269 170.124133 427.19984 167.000497 431.78223 167.000497 C 435.402688 167.000497 437.21556 169.394756 437.21556 174.188559 C 437.21556 177.391476 436.60246 180.673672 435.376261 184.029863 C 434.155348 187.391339 432.955576 190.699962 431.78223 193.955732 C 430.61417 197.206216 430.027497 200.282284 430.027497 203.173365 C 430.027497 205.826606 430.688165 207.819179 432.02007 209.145799 C 433.346691 210.477705 435.080282 211.138373 437.21556 211.138373 C 439.689099 211.138373 441.745096 210.398425 443.383552 208.913244 C 445.027292 207.428064 446.655177 205.514771 448.267206 203.173365 C 449.128716 201.894313 450.222782 201.413347 451.549402 201.725182 C 452.876023 202.037017 453.996515 202.755823 454.910879 203.876315 C 455.819957 204.996807 456.004944 206.038019 455.455269 206.999951 C 454.38763 208.717687 453.14029 211.180655 451.707962 214.383572 C 450.275635 217.560061 448.542044 221.021959 446.512473 224.77455 C 444.477617 228.49543 442.146782 232.036608 439.519968 235.398084 C 436.914295 238.75956 433.95979 241.529079 430.651167 243.717209 C 427.342544 245.90534 423.621665 246.999406 419.477958 246.999406 Z M 454.503907 246.999406 C 450.777743 246.999406 447.902518 245.878914 445.872947 243.643215 C 443.838091 241.40223 442.823306 238.627427 442.823306 235.318804 C 442.823306 231.597924 443.251418 226.936254 444.112929 221.333794 C 444.974439 215.736619 446.301059 209.684904 448.098075 203.173365 C 449.921517 196.867954 451.924661 190.969515 454.112792 185.478046 C 456.300923 179.981292 458.541907 175.531036 460.83046 172.116706 C 463.124297 168.707662 465.286001 167.000497 467.315572 167.000497 C 469.450849 167.000497 470.85675 167.613596 471.533273 168.83451 C 472.236224 170.060709 472.590341 171.47718 472.590341 173.094494 C 472.590341 176.165277 473.330289 178.07857 474.81547 178.834373 C 476.327077 179.590177 478.356648 178.681099 480.909467 176.101853 C 483.906255 173.237198 486.992893 171.01207 490.169383 169.421183 C 493.372299 167.809154 496.744346 167.000497 500.285524 167.000497 C 505.179749 167.000497 508.800207 168.443395 511.146898 171.334476 C 513.488304 174.19913 514.661649 177.666313 514.661649 181.725455 C 514.661649 184.484402 514.228251 187.010795 513.372026 189.304632 C 512.536943 191.59847 511.691288 193.834169 510.829778 196.0223 C 509.973553 198.210431 509.54544 200.646972 509.54544 203.32664 C 509.54544 208.664833 512.10883 211.33393 517.240895 211.33393 C 519.688008 211.33393 521.728149 210.567556 523.37189 209.029522 C 525.036772 207.470347 526.664657 205.514771 528.255544 203.173365 C 529.111769 201.894313 530.232261 201.439773 531.611735 201.804462 C 533.017636 202.16915 534.164555 202.887957 535.052492 203.955595 C 535.96157 205.023234 536.104274 206.090873 535.480604 207.158511 C 534.412966 208.876247 533.123343 211.360357 531.611735 214.616126 C 530.126555 217.845469 528.345395 221.307367 526.262971 225.007105 C 524.180547 228.680417 521.744005 232.195168 518.958631 235.556644 C 516.194398 238.912835 513.086618 241.661212 509.619435 243.79649 C 506.157537 245.931767 502.235815 246.999406 497.864838 246.999406 C 492.864906 246.999406 489.350155 245.345094 487.315299 242.036471 C 485.285729 238.733134 484.270943 234.837838 484.270943 230.361155 C 484.270943 226.296728 484.831189 222.427859 485.951681 218.759833 C 487.066888 215.086522 488.18738 211.725045 489.307872 208.680689 C 490.428365 205.631048 490.988611 203.041231 490.988611 200.905954 C 490.988611 199.108938 490.428365 197.729465 489.307872 196.767533 C 488.18738 195.800315 486.718056 195.319349 484.894613 195.319349 C 481.823831 195.319349 478.969747 196.635399 476.337648 199.267499 C 473.73726 201.867886 471.62841 205.255789 470.011095 209.420637 C 468.425493 213.564344 467.627407 218.041027 467.627407 222.861257 L 467.627407 230.04932 C 467.627407 232.702561 467.305001 235.345231 466.654904 237.97733 C 466.025949 240.583003 464.778609 242.744707 462.902313 244.462442 C 461.026017 246.153751 458.230072 246.999406 454.503907 246.999406 Z M 722.497081 203.173365 C 723.358591 201.894313 724.479084 201.439773 725.858557 201.804462 C 727.238031 202.16915 728.38495 202.887957 729.294028 203.955595 C 730.208392 205.023234 730.351096 206.090873 729.727426 207.158511 C 728.659788 208.876247 727.370165 211.360357 725.858557 214.616126 C 724.373377 217.845469 722.586932 221.307367 720.504508 225.007105 C 718.422084 228.680417 715.985542 232.195168 713.200168 235.556644 C 710.44122 238.912835 707.328155 241.661212 703.866257 243.79649 C 700.404359 245.931767 696.482637 246.999406 692.106375 246.999406 C 688.385496 246.999406 685.362281 245.931767 683.047302 243.79649 C 680.753464 241.661212 679.099153 238.785987 678.084368 235.165529 C 677.096009 231.545071 676.599187 227.549354 676.599187 223.173092 C 676.599187 221.138236 676.704894 219.002959 676.911022 216.76726 C 677.122436 214.526276 677.434271 212.18487 677.851813 209.732472 C 674.437483 209.499917 671.107718 209.172226 667.851949 208.75997 C 664.596179 208.342428 661.430261 207.755755 658.359478 206.999951 C 657.392261 208.717687 656.430329 210.461849 655.468397 212.232438 C 654.50118 213.9766 653.539248 215.699621 652.577316 217.39093 C 648.956858 223.691056 644.765583 229.615922 639.998206 235.165529 C 635.257256 240.709851 630.1939 245.191819 624.802853 248.600864 C 619.438233 252.015194 613.878055 253.717073 608.12232 253.717073 C 600.860262 253.717073 594.961823 252.401023 590.427001 249.774209 C 585.897464 247.168537 582.588841 243.79649 580.506417 239.658068 C 578.423993 235.487935 577.382781 231.21738 577.382781 226.841118 C 577.382781 222.470142 578.265433 218.289438 580.036022 214.304291 C 581.780184 210.292718 584.253723 207.036949 587.461925 204.536983 C 590.664841 202.01059 594.401577 200.747394 598.672131 200.747394 C 600.257733 200.747394 601.050534 201.38692 601.050534 202.665972 C 601.050534 206.20715 602.577998 209.071805 605.622354 211.259935 C 608.671995 213.442781 612.382304 214.536846 616.758565 214.536846 C 621.758497 214.536846 626.367314 213.315933 630.585015 210.86882 C 634.802717 208.395281 638.724439 205.070802 642.339612 200.905954 C 634.136764 196.767533 627.63051 191.387056 622.81028 184.775096 C 618.021762 178.15785 615.622217 170.85351 615.622217 162.85679 C 615.622217 157.180335 616.82199 152.428814 619.216249 148.602228 C 621.610508 144.775641 624.776426 141.842278 628.70872 139.812707 C 632.667439 137.783136 636.900997 136.763066 641.404107 136.763066 C 647.471677 136.763066 651.911363 138.343382 654.723164 141.493445 C 657.561392 144.643508 658.983148 148.078979 658.983148 151.805144 C 659.088855 152.978489 658.814017 153.940421 658.16392 154.696225 C 657.534965 155.425602 656.636457 155.737437 655.468397 155.63173 C 653.433541 155.425602 651.377544 155.70044 649.29512 156.450958 C 647.212696 157.180335 645.479104 158.586235 644.09963 160.673945 C 642.720156 162.756369 642.027777 165.774298 642.027777 169.733018 C 642.027777 177.935866 645.013994 184.553112 650.975858 189.57947 C 651.731661 188.379698 652.445182 187.169355 653.121706 185.943156 C 653.824656 184.722242 654.554033 183.469617 655.309837 182.19585 C 663.412263 167.58717 671.12886 156.2554 678.475483 148.211113 C 685.843247 140.140398 692.835752 134.537937 699.452998 131.414301 C 706.064958 128.264239 712.317516 126.689207 718.200099 126.689207 C 723.850128 126.689207 728.004405 128.211385 730.662932 131.255741 C 733.316172 134.278956 734.648078 137.978694 734.648078 142.34967 C 734.542371 147.481736 733.342599 151.884424 731.054047 155.55245 C 728.760209 159.225761 725.911411 161.06506 722.497081 161.06506 C 721.429442 161.06506 720.46751 160.774366 719.606 160.203549 C 718.776202 159.606306 717.771987 159.357895 716.598641 159.458316 C 714.986613 159.458316 713.216024 160.853646 711.286874 163.63902 C 709.384152 166.403253 707.418005 171.086065 705.388435 177.703311 C 704.426503 181.011934 703.485712 184.537256 702.576634 188.289847 C 701.667555 192.010727 701.207731 195.425056 701.207731 198.522266 C 701.207731 201.830889 701.82083 204.526412 703.047029 206.608836 C 704.294369 208.69126 706.40322 209.732472 709.373581 209.732472 C 711.847121 209.732472 714.283662 209.22508 716.677921 208.210294 C 719.072181 207.195509 721.0119 205.514771 722.497081 203.173365 Z M 680.272498 198.834101 C 682.407776 191.36063 684.400349 185.409337 686.250218 180.985507 C 688.121228 176.556392 689.648692 173.015214 690.816752 170.361973 C 691.990098 167.703447 692.57677 165.309188 692.57677 163.173911 C 692.57677 161.662303 691.937244 160.9065 690.663477 160.9065 C 689.595838 160.9065 688.475346 161.308185 687.302001 162.116843 C 686.128655 162.9255 684.373922 164.706659 682.027231 167.470892 C 678.824315 171.63574 675.753532 176.181133 672.809598 181.101784 C 669.89209 185.996009 666.990438 191.064651 664.099357 196.297137 C 666.446048 197.026514 668.967156 197.58676 671.678535 197.977876 C 674.411056 198.342564 677.27571 198.627972 680.272498 198.834101 Z M 746.989347 246.999406 C 740.583515 246.999406 735.351028 245.567079 731.286602 242.702424 C 727.248602 239.811343 724.241243 235.995327 722.264526 231.259663 C 720.282523 226.492286 719.294165 221.333794 719.294165 215.789472 C 719.294165 210.139443 720.22967 204.462988 722.105966 198.760106 C 723.982262 193.057224 726.677785 187.808881 730.192536 183.015078 C 733.707288 178.200133 737.967272 174.331264 742.967203 171.413756 C 747.993562 168.469821 753.654161 167.000497 759.959572 167.000497 C 767.639171 167.000497 773.241632 168.977214 776.756383 172.935934 C 780.271134 176.868227 782.031153 181.450617 782.031153 186.688389 C 782.031153 191.270779 781.143216 194.981088 779.372627 197.819315 C 777.628464 200.631116 775.493187 202.676543 772.966794 203.955595 C 770.466828 205.229362 768.046143 205.868888 765.699452 205.868888 C 762.940504 205.868888 760.85808 205.398493 759.45218 204.462988 C 758.072706 203.495771 757.380326 202.480985 757.380326 201.413347 C 757.380326 200.451415 757.665735 199.658614 758.241837 199.029658 C 758.83908 198.379561 759.45218 197.570904 760.07585 196.608973 C 760.725946 195.647041 761.053638 194.198857 761.053638 192.274994 C 761.053638 190.789813 760.572672 189.489619 759.605454 188.369127 C 758.669949 187.248635 756.962784 186.688389 754.489245 186.688389 C 750.868787 186.688389 748.072842 188.26342 746.09084 191.413483 C 744.140549 194.537119 743.162761 198.13115 743.162761 202.195577 C 743.162761 206.466132 744.283253 209.943886 746.518952 212.623553 C 748.759936 215.282079 751.666873 217.089666 755.234478 218.056883 C 758.802083 218.992388 762.665666 219.098095 766.8358 218.368718 C 771.000648 217.612914 775.102072 215.98503 779.140072 213.485064 C 783.199213 210.985098 786.72982 207.544341 789.726608 203.173365 C 790.556406 201.894313 791.666328 201.439773 793.045802 201.804462 C 794.451702 202.16915 795.598621 202.887957 796.481273 203.955595 C 797.395637 205.023234 797.538341 206.090873 796.909385 207.158511 C 789.879883 220.176304 782.14743 230.070461 773.706742 236.846267 C 765.271339 243.616788 756.365541 246.999406 746.989347 246.999406 Z M 814.192448 246.999406 C 807.78133 246.999406 802.548843 245.567079 798.484417 242.702424 C 794.451702 239.811343 791.444344 235.995327 789.462341 231.259663 C 787.485624 226.492286 786.497265 221.333794 786.497265 215.789472 C 786.497265 210.139443 787.43277 204.462988 789.309066 198.760106 C 791.180077 193.057224 793.8756 187.808881 797.395637 183.015078 C 800.910388 178.200133 805.165087 174.331264 810.165018 171.413756 C 815.191377 168.469821 820.857262 167.000497 827.157387 167.000497 C 834.842272 167.000497 840.439447 168.977214 843.954198 172.935934 C 847.468949 176.868227 849.228968 181.450617 849.228968 186.688389 C 849.228968 191.270779 848.346316 194.981088 846.570442 197.819315 C 844.826279 200.631116 842.691002 202.676543 840.164609 203.955595 C 837.664643 205.229362 835.243958 205.868888 832.902552 205.868888 C 830.138319 205.868888 828.055895 205.398493 826.649994 204.462988 C 825.270521 203.495771 824.578141 202.480985 824.578141 201.413347 C 824.578141 200.451415 824.868835 199.658614 825.439652 199.029658 C 826.036895 198.379561 826.649994 197.570904 827.273665 196.608973 C 827.929047 195.647041 828.251453 194.198857 828.251453 192.274994 C 828.251453 190.789813 827.770487 189.489619 826.808555 188.369127 C 825.867764 187.248635 824.165885 186.688389 821.692345 186.688389 C 818.071887 186.688389 815.270657 188.26342 813.29394 191.413483 C 811.338364 194.537119 810.360576 198.13115 810.360576 202.195577 C 810.360576 206.466132 811.481068 209.943886 813.722052 212.623553 C 815.963037 215.282079 818.864688 217.089666 822.432293 218.056883 C 825.999898 218.992388 829.868767 219.098095 834.033615 218.368718 C 838.198463 217.612914 842.299887 215.98503 846.337887 213.485064 C 850.402313 210.985098 853.927635 207.544341 856.924423 203.173365 C 857.759507 201.894313 858.864143 201.439773 860.243617 201.804462 C 861.649517 202.16915 862.796436 202.887957 863.684373 203.955595 C 864.593452 205.023234 864.736156 206.090873 864.112486 207.158511 C 857.082983 220.176304 849.345245 230.070461 840.909842 236.846267 C 832.469154 243.616788 823.563356 246.999406 814.192448 246.999406 Z M 933.070319 203.173365 C 933.693989 202.206148 934.698204 201.857315 936.077677 202.116297 C 937.483578 202.375279 938.693921 202.961951 939.708706 203.876315 C 940.723491 204.785394 940.908478 205.879459 940.258382 207.158511 C 938.773201 210.361428 936.833481 213.664765 934.439222 217.079095 C 932.039678 220.488139 929.048175 223.342223 925.454144 225.630775 C 921.886539 227.924613 917.483851 229.071532 912.251364 229.071532 L 910.338071 229.071532 C 906.405778 234.515432 901.691254 238.859982 896.194501 242.115751 C 890.697747 245.371521 884.957867 246.999406 878.969577 246.999406 C 871.834368 246.999406 865.920072 244.605147 861.231975 239.811343 C 856.543879 234.996398 854.202473 228.432006 854.202473 220.123451 C 854.202473 214.135161 855.296538 208.030593 857.484669 201.804462 C 859.6728 195.55719 862.733012 189.801454 866.665305 184.537256 C 870.624025 179.251915 875.259268 175.007787 880.571035 171.804871 C 885.909229 168.601955 891.781241 167.000497 898.187074 167.000497 C 902.563335 167.000497 906.506199 167.883149 910.02095 169.653738 C 913.540987 171.403185 916.336932 174.304837 918.419356 178.369264 C 920.507065 182.401978 921.548277 187.793025 921.548277 194.537119 C 921.548277 200.192433 920.750191 205.673331 919.164589 210.985098 L 920.258654 210.985098 C 922.60006 210.985098 924.841044 210.371998 926.976322 209.145799 C 929.111599 207.924886 931.14117 205.932313 933.070319 203.173365 Z M 888.10793 213.876179 C 890.766456 213.876179 893.107862 213.078092 895.142718 211.49249 C 897.172288 209.875176 898.773747 207.924886 899.947092 205.631048 C 901.115152 203.342496 901.701825 201.075085 901.701825 198.834101 C 901.701825 196.492695 901.014731 194.500122 899.629972 192.861666 C 898.250498 191.191499 896.014799 190.3617 892.912304 190.3617 C 890.359485 190.3617 888.097359 191.112219 886.115357 192.623826 C 884.13864 194.109007 882.590035 195.995873 881.469543 198.289711 C 880.349051 200.578263 879.788805 202.898527 879.788805 205.239933 C 879.788805 207.586624 880.428331 209.616195 881.702098 211.33393 C 882.98115 213.030524 885.116428 213.876179 888.10793 213.876179 Z M 1013.058657 203.173365 C 1013.914882 201.894313 1015.035374 201.439773 1016.414848 201.804462 C 1017.799607 202.16915 1018.941241 202.887957 1019.855605 203.955595 C 1020.764683 205.023234 1020.907387 206.090873 1020.283717 207.158511 C 1019.216078 208.876247 1017.926455 211.360357 1016.414848 214.616126 C 1014.934953 217.845469 1013.148508 221.307367 1011.066084 225.007105 C 1008.98366 228.680417 1006.547118 232.195168 1003.761744 235.556644 C 1001.002796 238.912835 997.889731 241.661212 994.422548 243.79649 C 990.96065 245.931767 987.044213 246.999406 982.667951 246.999406 C 973.503171 246.999406 968.915496 241.190817 968.915496 229.578925 C 968.915496 227.549354 969.074056 225.361223 969.385891 223.014532 C 967.668156 226.740697 965.585732 230.451006 963.138619 234.150744 C 960.686221 237.81877 957.86385 240.852555 954.660934 243.2521 C 951.458017 245.646359 947.784706 246.846131 943.646285 246.846131 C 939.37573 246.846131 935.950829 245.292241 933.371583 242.195032 C 930.818764 239.097822 929.544997 234.293448 929.544997 227.781909 C 929.544997 225.334796 929.724699 221.920467 930.089387 217.54949 C 930.480502 213.173229 931.468861 208.379425 933.059748 203.173365 C 936.807054 191.429339 940.570217 182.470688 944.349235 176.29741 C 948.122968 170.097706 952.250818 167.000497 956.727502 167.000497 C 960.036124 167.000497 961.690436 169.135774 961.690436 173.406329 C 961.690436 176.815374 961.077337 180.282557 959.856423 183.797308 C 958.630224 187.312059 957.430452 190.74753 956.262392 194.109007 C 955.089046 197.470483 954.502373 200.747394 954.502373 203.955595 C 954.502373 206.191294 954.956913 207.951313 955.871276 209.22508 C 956.780355 210.504132 958.5668 211.138373 961.220041 211.138373 C 964.111122 211.138373 966.727365 210.266292 969.074056 208.522129 C 971.415462 206.75154 973.281187 203.902742 974.660661 199.970449 L 974.813936 199.304496 C 978.122559 188.860664 981.484035 180.869229 984.893079 175.319622 C 988.307409 169.7753 992.044145 167.000497 996.103286 167.000497 C 997.694173 167.000497 998.915087 167.481463 999.776597 168.443395 C 1000.638108 169.410612 1001.06622 171.064923 1001.06622 173.406329 C 1001.06622 176.403117 1000.453121 179.63246 999.232207 183.094358 C 998.006008 186.556255 996.806236 189.997012 995.638176 193.406056 C 994.46483 196.815101 993.878158 199.854171 993.878158 202.507412 C 993.878158 205.5042 994.697385 207.729328 996.341126 209.188082 C 998.006008 210.620409 999.908731 211.33393 1002.044008 211.33393 C 1004.491121 211.33393 1006.536547 210.567556 1008.175003 209.029522 C 1009.839885 207.470347 1011.46777 205.514771 1013.058657 203.173365 Z M 1019.464489 246.999406 C 1015.738325 246.999406 1012.8631 245.878914 1010.833529 243.643215 C 1008.798673 241.40223 1007.783888 238.627427 1007.783888 235.318804 C 1007.783888 231.597924 1008.212 226.936254 1009.073511 221.333794 C 1009.935021 215.736619 1011.261641 209.684904 1013.058657 203.173365 C 1014.882099 196.867954 1016.885243 190.969515 1019.073374 185.478046 C 1021.261505 179.981292 1023.502489 175.531036 1025.791042 172.116706 C 1028.084879 168.707662 1030.246583 167.000497 1032.276154 167.000497 C 1034.411431 167.000497 1035.817332 167.613596 1036.493855 168.83451 C 1037.196806 170.060709 1037.550924 171.47718 1037.550924 173.094494 C 1037.550924 176.165277 1038.290871 178.07857 1039.776052 178.834373 C 1041.287659 179.590177 1043.31723 178.681099 1045.870049 176.101853 C 1048.866837 173.237198 1051.953475 171.01207 1055.129965 169.421183 C 1058.332881 167.809154 1061.704928 167.000497 1065.246106 167.000497 C 1070.140331 167.000497 1073.760789 168.443395 1076.10748 171.334476 C 1078.448886 174.19913 1079.622231 177.666313 1079.622231 181.725455 C 1079.622231 184.484402 1079.188833 187.010795 1078.332608 189.304632 C 1077.497525 191.59847 1076.65187 193.834169 1075.79036 196.0223 C 1074.934135 198.210431 1074.506022 200.646972 1074.506022 203.32664 C 1074.506022 208.664833 1077.069412 211.33393 1082.196192 211.33393 C 1084.64859 211.33393 1086.688731 210.567556 1088.332472 209.029522 C 1089.997354 207.470347 1091.625239 205.514771 1093.216126 203.173365 C 1094.072351 201.894313 1095.192843 201.439773 1096.572317 201.804462 C 1097.978218 202.16915 1099.125137 202.887957 1100.013074 203.955595 C 1100.922152 205.023234 1101.064856 206.090873 1100.441186 207.158511 C 1099.373548 208.876247 1098.083925 211.360357 1096.572317 214.616126 C 1095.087137 217.845469 1093.305977 221.307367 1091.223553 225.007105 C 1089.141129 228.680417 1086.704587 232.195168 1083.919213 235.556644 C 1081.15498 238.912835 1078.0472 241.661212 1074.580017 243.79649 C 1071.118119 245.931767 1067.196397 246.999406 1062.82542 246.999406 C 1057.825488 246.999406 1054.310737 245.345094 1052.275881 242.036471 C 1050.246311 238.733134 1049.231525 234.837838 1049.231525 230.361155 C 1049.231525 226.296728 1049.791771 222.427859 1050.912263 218.759833 C 1052.02747 215.086522 1053.147962 211.725045 1054.268454 208.680689 C 1055.388947 205.631048 1055.949193 203.041231 1055.949193 200.905954 C 1055.949193 199.108938 1055.388947 197.729465 1054.268454 196.767533 C 1053.147962 195.800315 1051.678638 195.319349 1049.855195 195.319349 C 1046.784413 195.319349 1043.930329 196.635399 1041.29823 199.267499 C 1038.697842 201.867886 1036.588992 205.255789 1034.971677 209.420637 C 1033.386075 213.564344 1032.587989 218.041027 1032.587989 222.861257 L 1032.587989 230.04932 C 1032.587989 232.702561 1032.265583 235.345231 1031.610201 237.97733 C 1030.986531 240.583003 1029.739191 242.744707 1027.862895 244.462442 C 1025.986599 246.153751 1023.190654 246.999406 1019.464489 246.999406 Z M 1105.715956 246.999406 C 1099.727665 246.999406 1095.314406 245.165393 1092.476179 241.492081 C 1089.664378 237.792343 1088.258477 232.987969 1088.258477 227.078959 C 1088.258477 221.164663 1089.426537 214.801113 1091.773228 207.977739 C 1093.179129 203.913313 1094.727734 199.537051 1096.419042 194.848954 C 1098.142063 190.139716 1100.002503 185.007651 1102.005647 179.463329 C 1099.664241 179.463329 1097.877796 178.85023 1096.656883 177.624031 C 1095.430684 176.403117 1094.622027 174.97079 1094.236197 173.327049 C 1093.871508 171.662167 1093.871508 170.213984 1094.236197 168.99307 C 1094.622027 167.766871 1095.303836 167.153772 1096.265768 167.153772 C 1100.953864 167.153772 1104.62189 165.853578 1107.280416 163.247905 C 1109.965369 160.621091 1111.83638 157.872714 1112.904018 155.00806 C 1114.833168 150.319963 1116.693607 147.365458 1118.490623 146.139259 C 1120.314065 144.891919 1122.243214 144.268249 1124.272785 144.268249 C 1127.269573 144.268249 1129.130013 145.52616 1129.85939 148.052552 C 1130.615193 150.552518 1129.769539 154.30511 1127.317141 159.305042 C 1126.149081 161.884288 1125.498984 163.834578 1125.366851 165.166484 C 1125.261144 166.493104 1125.964094 167.153772 1127.475701 167.153772 L 1135.794827 167.153772 C 1136.862465 167.153772 1137.554845 167.909575 1137.86668 169.421183 C 1138.178515 170.906363 1138.152088 172.613528 1137.7874 174.537392 C 1137.422711 176.440114 1136.735617 178.147279 1135.715547 179.658887 C 1134.700761 181.138782 1133.389997 181.884015 1131.772683 181.884015 C 1126.878458 181.884015 1123.258 182.079572 1120.911309 182.470688 C 1118.569903 182.835376 1116.915592 183.760311 1115.95366 185.240206 C 1114.986442 186.725386 1113.971657 189.294062 1112.904018 192.935661 C 1111.186283 198.485268 1111.418838 202.909098 1113.606969 206.217721 C 1115.795099 209.499917 1119.246427 211.138373 1123.96095 211.138373 C 1127.163866 211.138373 1130.012665 210.424852 1132.51263 208.992525 C 1135.012596 207.560197 1137.058023 205.620478 1138.64891 203.173365 C 1139.505135 201.894313 1140.599201 201.439773 1141.931107 201.804462 C 1143.284154 202.16915 1144.404646 202.887957 1145.287298 203.955595 C 1146.201661 205.023234 1146.397219 206.090873 1145.87397 207.158511 C 1144.912038 208.976669 1143.622415 211.49249 1142.005101 214.695407 C 1140.419499 217.871896 1138.506206 221.333794 1136.265222 225.086385 C 1134.024238 228.807265 1131.407994 232.327301 1128.411206 235.630639 C 1125.446131 238.939262 1122.058228 241.661212 1118.258068 243.79649 C 1114.47905 245.931767 1110.303631 246.999406 1105.715956 246.999406 Z M 1105.715956 246.999406 " stroke="#bc6c25" stroke-width="21.799999" stroke-opacity="1" stroke-miterlimit="4"/></g><g fill="#fefae0" fill-opacity="1"><g transform="translate(255.922497, 100.409925)"><g><path d="M 33.234375 1.421875 C 27.628906 1.421875 22.617188 0.238281 18.203125 -2.125 C 13.796875 -4.488281 10.3125 -8.171875 7.75 -13.171875 C 5.1875 -18.179688 3.90625 -24.628906 3.90625 -32.515625 C 3.90625 -39.691406 5.144531 -46.53125 7.625 -53.03125 C 10.113281 -59.539062 13.523438 -65.316406 17.859375 -70.359375 C 22.191406 -75.398438 27.132812 -79.378906 32.6875 -82.296875 C 38.25 -85.210938 44.066406 -86.671875 50.140625 -86.671875 C 57.628906 -86.671875 63.242188 -85.132812 66.984375 -82.0625 C 70.734375 -78.988281 72.609375 -74.890625 72.609375 -69.765625 C 72.609375 -66.296875 71.9375 -63.101562 70.59375 -60.1875 C 69.25 -57.269531 67.492188 -54.726562 65.328125 -52.5625 C 63.160156 -50.394531 60.851562 -48.71875 58.40625 -47.53125 C 55.96875 -46.351562 53.644531 -45.765625 51.4375 -45.765625 C 49.78125 -45.765625 48.554688 -46.253906 47.765625 -47.234375 C 46.984375 -48.222656 46.90625 -49.347656 47.53125 -50.609375 C 50.601562 -56.441406 51.644531 -60.660156 50.65625 -63.265625 C 49.675781 -65.867188 47.53125 -67.171875 44.21875 -67.171875 C 40.675781 -67.171875 37.460938 -66.066406 34.578125 -63.859375 C 31.703125 -61.648438 29.4375 -58.789062 27.78125 -55.28125 C 26.132812 -51.769531 25.3125 -48.046875 25.3125 -44.109375 C 25.3125 -40.554688 26.15625 -37.320312 27.84375 -34.40625 C 29.539062 -31.488281 32.101562 -29.144531 35.53125 -27.375 C 38.957031 -25.601562 43.273438 -24.71875 48.484375 -24.71875 C 52.191406 -24.71875 55.957031 -25.269531 59.78125 -26.375 C 63.601562 -27.476562 66.5 -29.488281 68.46875 -32.40625 C 69.09375 -33.34375 69.898438 -33.671875 70.890625 -33.390625 C 71.878906 -33.117188 72.707031 -32.585938 73.375 -31.796875 C 74.039062 -31.015625 74.175781 -30.226562 73.78125 -29.4375 C 68.820312 -19.425781 63.109375 -11.78125 56.640625 -6.5 C 50.171875 -1.21875 42.367188 1.421875 33.234375 1.421875 Z M 33.234375 1.421875 "/></g></g></g><g fill="#fefae0" fill-opacity="1"><g transform="translate(321.670432, 100.409925)"><g><path d="M 49.421875 -32.40625 C 50.054688 -33.34375 50.882812 -33.671875 51.90625 -33.390625 C 52.9375 -33.117188 53.785156 -32.585938 54.453125 -31.796875 C 55.117188 -31.015625 55.21875 -30.226562 54.75 -29.4375 C 53.957031 -28.175781 53.007812 -26.34375 51.90625 -23.9375 C 50.800781 -21.539062 49.476562 -18.984375 47.9375 -16.265625 C 46.40625 -13.546875 44.613281 -10.941406 42.5625 -8.453125 C 40.519531 -5.972656 38.21875 -3.941406 35.65625 -2.359375 C 33.09375 -0.785156 30.195312 0 26.96875 0 C 23.726562 0 21.160156 -0.609375 19.265625 -1.828125 C 17.378906 -3.054688 16.019531 -4.632812 15.1875 -6.5625 C 14.363281 -8.488281 13.953125 -10.441406 13.953125 -12.421875 C 13.953125 -15.179688 14.363281 -17.898438 15.1875 -20.578125 C 16.019531 -23.253906 16.988281 -25.8125 18.09375 -28.25 C 19.195312 -30.695312 20.160156 -32.945312 20.984375 -35 C 21.816406 -37.050781 22.234375 -38.785156 22.234375 -40.203125 C 22.234375 -40.835938 21.78125 -41.765625 20.875 -42.984375 C 19.96875 -44.203125 18.332031 -45.25 15.96875 -46.125 C 15.257812 -44.539062 14.410156 -42.703125 13.421875 -40.609375 C 12.429688 -38.523438 11.441406 -36.476562 10.453125 -34.46875 C 9.472656 -32.457031 8.671875 -30.78125 8.046875 -29.4375 C 7.566406 -28.414062 6.796875 -28.039062 5.734375 -28.3125 C 4.671875 -28.59375 3.785156 -29.164062 3.078125 -30.03125 C 2.367188 -30.90625 2.25 -31.695312 2.71875 -32.40625 C 3.820312 -33.976562 5.039062 -36.28125 6.375 -39.3125 C 7.71875 -42.351562 8.90625 -45.210938 9.9375 -47.890625 C 8.75 -48.285156 7.800781 -48.957031 7.09375 -49.90625 C 6.382812 -50.851562 6.03125 -52.390625 6.03125 -54.515625 C 6.03125 -56.171875 6.460938 -57.804688 7.328125 -59.421875 C 8.191406 -61.035156 9.410156 -62.394531 10.984375 -63.5 C 12.566406 -64.601562 14.425781 -65.15625 16.5625 -65.15625 C 20.257812 -65.15625 23.820312 -64.445312 27.25 -63.03125 C 30.6875 -61.613281 33.503906 -59.816406 35.703125 -57.640625 C 37.910156 -55.472656 39.015625 -53.328125 39.015625 -51.203125 C 39.015625 -48.992188 38.601562 -46.90625 37.78125 -44.9375 C 36.957031 -42.96875 36.109375 -40.957031 35.234375 -38.90625 C 34.367188 -36.851562 33.9375 -34.601562 33.9375 -32.15625 C 33.9375 -30.507812 34.488281 -29.132812 35.59375 -28.03125 C 36.695312 -26.925781 38.585938 -26.375 41.265625 -26.375 C 43.078125 -26.375 44.59375 -26.941406 45.8125 -28.078125 C 47.039062 -29.222656 48.242188 -30.664062 49.421875 -32.40625 Z M 49.421875 -32.40625 "/></g></g></g><g fill="#fefae0" fill-opacity="1"><g transform="translate(368.379839, 100.409925)"><g><path d="M 22.234375 0 C 17.503906 0 13.617188 -1.0625 10.578125 -3.1875 C 7.546875 -5.320312 5.300781 -8.140625 3.84375 -11.640625 C 2.382812 -15.148438 1.675781 -19.015625 1.71875 -23.234375 C 1.757812 -27.453125 2.488281 -31.671875 3.90625 -35.890625 C 5.320312 -40.109375 7.367188 -43.96875 10.046875 -47.46875 C 12.734375 -50.976562 15.988281 -53.796875 19.8125 -55.921875 C 23.632812 -58.054688 27.945312 -59.125 32.75 -59.125 C 36.457031 -59.125 39.472656 -58.429688 41.796875 -57.046875 C 44.128906 -55.671875 45.84375 -53.835938 46.9375 -51.546875 C 48.039062 -49.265625 48.59375 -46.820312 48.59375 -44.21875 C 48.59375 -41.382812 47.804688 -38.546875 46.234375 -35.703125 C 44.660156 -32.867188 42.453125 -30.523438 39.609375 -28.671875 C 36.773438 -26.816406 33.425781 -25.890625 29.5625 -25.890625 C 27.90625 -25.890625 26.285156 -26.007812 24.703125 -26.25 C 23.128906 -26.488281 21.675781 -27 20.34375 -27.78125 C 19.945312 -28.019531 19.507812 -28.039062 19.03125 -27.84375 C 18.5625 -27.644531 18.328125 -27.15625 18.328125 -26.375 C 18.328125 -24.320312 19.53125 -22.765625 21.9375 -21.703125 C 24.34375 -20.640625 27.238281 -20.109375 30.625 -20.109375 C 34.644531 -20.109375 38.800781 -21.128906 43.09375 -23.171875 C 47.394531 -25.222656 50.882812 -28.300781 53.5625 -32.40625 C 54.195312 -33.34375 55.023438 -33.671875 56.046875 -33.390625 C 57.078125 -33.117188 57.925781 -32.585938 58.59375 -31.796875 C 59.257812 -31.015625 59.359375 -30.226562 58.890625 -29.4375 C 53.679688 -19.820312 47.984375 -12.507812 41.796875 -7.5 C 35.609375 -2.5 29.085938 0 22.234375 0 Z M 26.484375 -34.765625 C 28.773438 -34.765625 30.566406 -35.492188 31.859375 -36.953125 C 33.160156 -38.410156 33.8125 -39.890625 33.8125 -41.390625 C 33.8125 -42.722656 33.359375 -43.863281 32.453125 -44.8125 C 31.546875 -45.757812 30.1875 -46.234375 28.375 -46.234375 C 26.09375 -46.234375 24.28125 -45.523438 22.9375 -44.109375 C 21.601562 -42.691406 20.9375 -41.191406 20.9375 -39.609375 C 20.9375 -38.347656 21.390625 -37.222656 22.296875 -36.234375 C 23.203125 -35.253906 24.597656 -34.765625 26.484375 -34.765625 Z M 26.484375 -34.765625 "/></g></g></g><g fill="#fefae0" fill-opacity="1"><g transform="translate(419.228057, 100.409925)"><g><path d="M 12.53125 0 C 8.507812 0 5.472656 -1.65625 3.421875 -4.96875 C 1.378906 -8.28125 0.359375 -12.578125 0.359375 -17.859375 C 0.359375 -21.171875 0.769531 -24.695312 1.59375 -28.4375 C 2.425781 -32.1875 3.648438 -35.875 5.265625 -39.5 C 6.878906 -43.125 8.90625 -46.410156 11.34375 -49.359375 C 13.789062 -52.316406 16.628906 -54.679688 19.859375 -56.453125 C 23.097656 -58.234375 26.765625 -59.125 30.859375 -59.125 C 33.222656 -59.125 35.054688 -58.90625 36.359375 -58.46875 C 37.660156 -58.039062 38.644531 -57.507812 39.3125 -56.875 C 39.988281 -56.25 40.5625 -55.71875 41.03125 -55.28125 C 41.507812 -54.84375 42.140625 -54.625 42.921875 -54.625 C 44.265625 -54.625 45.347656 -55 46.171875 -55.75 C 47.003906 -56.5 47.929688 -57.25 48.953125 -58 C 49.984375 -58.75 51.40625 -59.125 53.21875 -59.125 C 54.789062 -59.125 55.867188 -58.726562 56.453125 -57.9375 C 57.046875 -57.15625 57.34375 -56.09375 57.34375 -54.75 C 57.34375 -52.539062 56.734375 -50.351562 55.515625 -48.1875 C 54.296875 -46.019531 53.015625 -43.203125 51.671875 -39.734375 C 49.703125 -35.398438 48.972656 -32.085938 49.484375 -29.796875 C 49.992188 -27.515625 51.550781 -26.375 54.15625 -26.375 C 56.207031 -26.375 57.976562 -26.90625 59.46875 -27.96875 C 60.96875 -29.03125 62.3125 -30.507812 63.5 -32.40625 C 64.132812 -33.34375 64.941406 -33.671875 65.921875 -33.390625 C 66.910156 -33.117188 67.738281 -32.585938 68.40625 -31.796875 C 69.070312 -31.015625 69.210938 -30.226562 68.828125 -29.4375 C 67.398438 -26.6875 65.878906 -23.632812 64.265625 -20.28125 C 62.648438 -16.925781 60.859375 -13.710938 58.890625 -10.640625 C 56.921875 -7.566406 54.671875 -5.023438 52.140625 -3.015625 C 49.617188 -1.003906 46.703125 0 43.390625 0 C 39.296875 0 36.398438 -1.65625 34.703125 -4.96875 C 33.003906 -8.28125 32.515625 -12.378906 33.234375 -17.265625 L 32.75 -17.265625 C 30.382812 -12.453125 27.46875 -8.367188 24 -5.015625 C 20.53125 -1.671875 16.707031 0 12.53125 0 Z M 24.359375 -24.484375 C 26.410156 -24.484375 28.203125 -25.070312 29.734375 -26.25 C 31.273438 -27.4375 32.476562 -28.875 33.34375 -30.5625 C 34.207031 -32.257812 34.640625 -33.9375 34.640625 -35.59375 C 34.640625 -37.5625 34.085938 -39.097656 32.984375 -40.203125 C 31.890625 -41.304688 30.394531 -41.859375 28.5 -41.859375 C 26.445312 -41.859375 24.671875 -41.304688 23.171875 -40.203125 C 21.679688 -39.097656 20.519531 -37.695312 19.6875 -36 C 18.863281 -34.3125 18.453125 -32.597656 18.453125 -30.859375 C 18.453125 -28.890625 18.984375 -27.332031 20.046875 -26.1875 C 21.109375 -25.050781 22.546875 -24.484375 24.359375 -24.484375 Z M 24.359375 -24.484375 "/></g></g></g><g fill="#fefae0" fill-opacity="1"><g transform="translate(480.009424, 100.409925)"><g><path d="M 11.9375 0 C 7.53125 0 4.28125 -1.359375 2.1875 -4.078125 C 0.09375 -6.796875 -0.953125 -10.34375 -0.953125 -14.71875 C -0.953125 -19.09375 -0.0820312 -23.804688 1.65625 -28.859375 C 2.675781 -31.847656 3.816406 -35.078125 5.078125 -38.546875 C 6.347656 -42.015625 7.726562 -45.800781 9.21875 -49.90625 C 7.488281 -49.90625 6.171875 -50.359375 5.265625 -51.265625 C 4.359375 -52.171875 3.765625 -53.234375 3.484375 -54.453125 C 3.210938 -55.671875 3.210938 -56.734375 3.484375 -57.640625 C 3.765625 -58.546875 4.257812 -59 4.96875 -59 C 8.4375 -59 11.15625 -59.960938 13.125 -61.890625 C 15.09375 -63.828125 16.472656 -65.863281 17.265625 -68 C 18.679688 -71.46875 20.054688 -73.65625 21.390625 -74.5625 C 22.734375 -75.46875 24.15625 -75.921875 25.65625 -75.921875 C 27.863281 -75.921875 29.242188 -74.992188 29.796875 -73.140625 C 30.347656 -71.285156 29.71875 -68.503906 27.90625 -64.796875 C 27.039062 -62.910156 26.566406 -61.472656 26.484375 -60.484375 C 26.410156 -59.492188 26.925781 -59 28.03125 -59 L 34.171875 -59 C 34.960938 -59 35.472656 -58.445312 35.703125 -57.34375 C 35.941406 -56.25 35.921875 -54.988281 35.640625 -53.5625 C 35.367188 -52.144531 34.859375 -50.882812 34.109375 -49.78125 C 33.359375 -48.675781 32.394531 -48.125 31.21875 -48.125 C 27.59375 -48.125 24.910156 -47.984375 23.171875 -47.703125 C 21.441406 -47.429688 20.222656 -46.742188 19.515625 -45.640625 C 18.804688 -44.535156 18.054688 -42.644531 17.265625 -39.96875 C 16.003906 -35.863281 16.179688 -32.585938 17.796875 -30.140625 C 19.410156 -27.703125 21.953125 -26.484375 25.421875 -26.484375 C 27.785156 -26.484375 29.894531 -27.015625 31.75 -28.078125 C 33.601562 -29.148438 35.117188 -30.59375 36.296875 -32.40625 C 36.929688 -33.34375 37.738281 -33.671875 38.71875 -33.390625 C 39.707031 -33.117188 40.535156 -32.585938 41.203125 -31.796875 C 41.878906 -31.015625 42.019531 -30.226562 41.625 -29.4375 C 40.914062 -28.101562 39.96875 -26.253906 38.78125 -23.890625 C 37.601562 -21.523438 36.1875 -18.960938 34.53125 -16.203125 C 32.875 -13.441406 30.941406 -10.835938 28.734375 -8.390625 C 26.523438 -5.953125 24.019531 -3.941406 21.21875 -2.359375 C 18.425781 -0.785156 15.332031 0 11.9375 0 Z M 11.9375 0 "/></g></g></g><g fill="#fefae0" fill-opacity="1"><g transform="translate(513.592906, 100.409925)"><g><path d="M 22.234375 0 C 17.503906 0 13.617188 -1.0625 10.578125 -3.1875 C 7.546875 -5.320312 5.300781 -8.140625 3.84375 -11.640625 C 2.382812 -15.148438 1.675781 -19.015625 1.71875 -23.234375 C 1.757812 -27.453125 2.488281 -31.671875 3.90625 -35.890625 C 5.320312 -40.109375 7.367188 -43.96875 10.046875 -47.46875 C 12.734375 -50.976562 15.988281 -53.796875 19.8125 -55.921875 C 23.632812 -58.054688 27.945312 -59.125 32.75 -59.125 C 36.457031 -59.125 39.472656 -58.429688 41.796875 -57.046875 C 44.128906 -55.671875 45.84375 -53.835938 46.9375 -51.546875 C 48.039062 -49.265625 48.59375 -46.820312 48.59375 -44.21875 C 48.59375 -41.382812 47.804688 -38.546875 46.234375 -35.703125 C 44.660156 -32.867188 42.453125 -30.523438 39.609375 -28.671875 C 36.773438 -26.816406 33.425781 -25.890625 29.5625 -25.890625 C 27.90625 -25.890625 26.285156 -26.007812 24.703125 -26.25 C 23.128906 -26.488281 21.675781 -27 20.34375 -27.78125 C 19.945312 -28.019531 19.507812 -28.039062 19.03125 -27.84375 C 18.5625 -27.644531 18.328125 -27.15625 18.328125 -26.375 C 18.328125 -24.320312 19.53125 -22.765625 21.9375 -21.703125 C 24.34375 -20.640625 27.238281 -20.109375 30.625 -20.109375 C 34.644531 -20.109375 38.800781 -21.128906 43.09375 -23.171875 C 47.394531 -25.222656 50.882812 -28.300781 53.5625 -32.40625 C 54.195312 -33.34375 55.023438 -33.671875 56.046875 -33.390625 C 57.078125 -33.117188 57.925781 -32.585938 58.59375 -31.796875 C 59.257812 -31.015625 59.359375 -30.226562 58.890625 -29.4375 C 53.679688 -19.820312 47.984375 -12.507812 41.796875 -7.5 C 35.609375 -2.5 29.085938 0 22.234375 0 Z M 26.484375 -34.765625 C 28.773438 -34.765625 30.566406 -35.492188 31.859375 -36.953125 C 33.160156 -38.410156 33.8125 -39.890625 33.8125 -41.390625 C 33.8125 -42.722656 33.359375 -43.863281 32.453125 -44.8125 C 31.546875 -45.757812 30.1875 -46.234375 28.375 -46.234375 C 26.09375 -46.234375 24.28125 -45.523438 22.9375 -44.109375 C 21.601562 -42.691406 20.9375 -41.191406 20.9375 -39.609375 C 20.9375 -38.347656 21.390625 -37.222656 22.296875 -36.234375 C 23.203125 -35.253906 24.597656 -34.765625 26.484375 -34.765625 Z M 26.484375 -34.765625 "/></g></g></g><g fill="#fefae0" fill-opacity="1"><g transform="translate(14.511367, 206.836377)"><g><path d="M 103.703125 -32.40625 C 104.335938 -33.34375 105.164062 -33.671875 106.1875 -33.390625 C 107.207031 -33.117188 108.050781 -32.585938 108.71875 -31.796875 C 109.394531 -31.015625 109.5 -30.226562 109.03125 -29.4375 C 108.238281 -28.175781 107.289062 -26.34375 106.1875 -23.9375 C 105.082031 -21.539062 103.757812 -18.984375 102.21875 -16.265625 C 100.6875 -13.546875 98.894531 -10.941406 96.84375 -8.453125 C 94.789062 -5.972656 92.484375 -3.941406 89.921875 -2.359375 C 87.359375 -0.785156 84.460938 0 81.234375 0 C 78.472656 0 76.242188 -0.785156 74.546875 -2.359375 C 72.859375 -3.941406 71.640625 -6.070312 70.890625 -8.75 C 70.140625 -11.425781 69.765625 -14.382812 69.765625 -17.625 C 69.765625 -19.113281 69.84375 -20.6875 70 -22.34375 C 70.15625 -24 70.394531 -25.734375 70.71875 -27.546875 C 68.1875 -27.703125 65.71875 -27.9375 63.3125 -28.25 C 60.914062 -28.570312 58.570312 -29.007812 56.28125 -29.5625 C 55.570312 -28.300781 54.863281 -27.019531 54.15625 -25.71875 C 53.445312 -24.414062 52.738281 -23.132812 52.03125 -21.875 C 49.351562 -17.226562 46.257812 -12.851562 42.75 -8.75 C 39.238281 -4.644531 35.492188 -1.332031 31.515625 1.1875 C 27.535156 3.707031 23.414062 4.96875 19.15625 4.96875 C 13.789062 4.96875 9.429688 4 6.078125 2.0625 C 2.734375 0.132812 0.296875 -2.363281 -1.234375 -5.4375 C -2.773438 -8.507812 -3.546875 -11.664062 -3.546875 -14.90625 C -3.546875 -18.132812 -2.894531 -21.222656 -1.59375 -24.171875 C -0.289062 -27.128906 1.539062 -29.535156 3.90625 -31.390625 C 6.269531 -33.242188 9.03125 -34.171875 12.1875 -34.171875 C 13.363281 -34.171875 13.953125 -33.695312 13.953125 -32.75 C 13.953125 -30.15625 15.070312 -28.046875 17.3125 -26.421875 C 19.5625 -24.804688 22.304688 -24 25.546875 -24 C 29.242188 -24 32.648438 -24.90625 35.765625 -26.71875 C 38.878906 -28.53125 41.78125 -30.976562 44.46875 -34.0625 C 38.394531 -37.132812 33.582031 -41.113281 30.03125 -46 C 26.488281 -50.882812 24.71875 -56.285156 24.71875 -62.203125 C 24.71875 -66.378906 25.601562 -69.882812 27.375 -72.71875 C 29.144531 -75.5625 31.488281 -77.726562 34.40625 -79.21875 C 37.320312 -80.71875 40.4375 -81.46875 43.75 -81.46875 C 48.25 -81.46875 51.539062 -80.304688 53.625 -77.984375 C 55.71875 -75.660156 56.765625 -73.117188 56.765625 -70.359375 C 56.835938 -69.492188 56.632812 -68.785156 56.15625 -68.234375 C 55.6875 -67.679688 55.019531 -67.441406 54.15625 -67.515625 C 52.65625 -67.671875 51.132812 -67.472656 49.59375 -66.921875 C 48.0625 -66.378906 46.78125 -65.335938 45.75 -63.796875 C 44.726562 -62.253906 44.21875 -60.023438 44.21875 -57.109375 C 44.21875 -51.046875 46.425781 -46.160156 50.84375 -42.453125 C 51.394531 -43.316406 51.925781 -44.203125 52.4375 -45.109375 C 52.957031 -46.015625 53.492188 -46.941406 54.046875 -47.890625 C 60.035156 -58.691406 65.75 -67.066406 71.1875 -73.015625 C 76.625 -78.972656 81.785156 -83.113281 86.671875 -85.4375 C 91.566406 -87.757812 96.179688 -88.921875 100.515625 -88.921875 C 104.691406 -88.921875 107.765625 -87.796875 109.734375 -85.546875 C 111.703125 -83.304688 112.6875 -80.566406 112.6875 -77.328125 C 112.613281 -73.546875 111.726562 -70.296875 110.03125 -67.578125 C 108.332031 -64.859375 106.222656 -63.5 103.703125 -63.5 C 102.910156 -63.5 102.195312 -63.710938 101.5625 -64.140625 C 100.9375 -64.578125 100.191406 -64.757812 99.328125 -64.6875 C 98.148438 -64.6875 96.847656 -63.660156 95.421875 -61.609375 C 94.003906 -59.554688 92.546875 -56.085938 91.046875 -51.203125 C 90.335938 -48.753906 89.648438 -46.148438 88.984375 -43.390625 C 88.316406 -40.640625 87.984375 -38.117188 87.984375 -35.828125 C 87.984375 -33.378906 88.4375 -31.382812 89.34375 -29.84375 C 90.25 -28.3125 91.804688 -27.546875 94.015625 -27.546875 C 95.828125 -27.546875 97.617188 -27.921875 99.390625 -28.671875 C 101.160156 -29.421875 102.597656 -30.664062 103.703125 -32.40625 Z M 72.484375 -35.59375 C 74.066406 -41.113281 75.546875 -45.507812 76.921875 -48.78125 C 78.296875 -52.050781 79.414062 -54.671875 80.28125 -56.640625 C 81.15625 -58.609375 81.59375 -60.382812 81.59375 -61.96875 C 81.59375 -63.070312 81.117188 -63.625 80.171875 -63.625 C 79.378906 -63.625 78.550781 -63.328125 77.6875 -62.734375 C 76.820312 -62.140625 75.519531 -60.816406 73.78125 -58.765625 C 71.414062 -55.691406 69.148438 -52.34375 66.984375 -48.71875 C 64.816406 -45.09375 62.671875 -41.347656 60.546875 -37.484375 C 62.273438 -36.929688 64.144531 -36.515625 66.15625 -36.234375 C 68.164062 -35.960938 70.273438 -35.75 72.484375 -35.59375 Z M 72.484375 -35.59375 "/></g></g></g><g fill="#fefae0" fill-opacity="1"><g transform="translate(115.498301, 206.836377)"><g><path d="M 13.828125 0 C 9.179688 0 5.773438 -1.613281 3.609375 -4.84375 C 1.441406 -8.082031 0.359375 -12.066406 0.359375 -16.796875 C 0.359375 -21.203125 0.988281 -25.847656 2.25 -30.734375 C 3.507812 -35.628906 5.421875 -40.222656 7.984375 -44.515625 C 10.546875 -48.816406 13.738281 -52.328125 17.5625 -55.046875 C 21.382812 -57.765625 25.816406 -59.125 30.859375 -59.125 C 33.222656 -59.125 35.054688 -58.847656 36.359375 -58.296875 C 37.660156 -57.742188 38.644531 -57.09375 39.3125 -56.34375 C 39.988281 -55.59375 40.5625 -54.921875 41.03125 -54.328125 C 41.507812 -53.742188 42.140625 -53.453125 42.921875 -53.453125 C 43.554688 -53.453125 44.066406 -54.160156 44.453125 -55.578125 C 44.847656 -56.992188 45.441406 -59.101562 46.234375 -61.90625 C 47.023438 -64.707031 48.25 -68.113281 49.90625 -72.125 C 51.394531 -75.757812 52.867188 -78.5 54.328125 -80.34375 C 55.796875 -82.195312 57.195312 -83.4375 58.53125 -84.0625 C 59.875 -84.695312 61.132812 -85.015625 62.3125 -85.015625 C 64.363281 -85.015625 65.722656 -84.007812 66.390625 -82 C 67.066406 -79.988281 66.613281 -77.289062 65.03125 -73.90625 L 51.671875 -39.734375 C 49.703125 -35.398438 48.972656 -32.085938 49.484375 -29.796875 C 49.992188 -27.515625 51.550781 -26.375 54.15625 -26.375 C 56.207031 -26.375 57.976562 -26.90625 59.46875 -27.96875 C 60.96875 -29.03125 62.3125 -30.507812 63.5 -32.40625 C 64.132812 -33.34375 64.941406 -33.671875 65.921875 -33.390625 C 66.910156 -33.117188 67.738281 -32.585938 68.40625 -31.796875 C 69.070312 -31.015625 69.210938 -30.226562 68.828125 -29.4375 C 67.398438 -26.6875 65.878906 -23.632812 64.265625 -20.28125 C 62.648438 -16.925781 60.859375 -13.710938 58.890625 -10.640625 C 56.921875 -7.566406 54.671875 -5.023438 52.140625 -3.015625 C 49.617188 -1.003906 46.703125 0 43.390625 0 C 39.609375 0 36.8125 -1.65625 35 -4.96875 C 33.1875 -8.28125 32.597656 -12.378906 33.234375 -17.265625 L 32.75 -17.265625 C 30.3125 -12.453125 27.457031 -8.367188 24.1875 -5.015625 C 20.914062 -1.671875 17.460938 0 13.828125 0 Z M 24.59375 -24.484375 C 26.5625 -24.484375 28.296875 -25.070312 29.796875 -26.25 C 31.296875 -27.4375 32.476562 -28.875 33.34375 -30.5625 C 34.207031 -32.257812 34.640625 -33.9375 34.640625 -35.59375 C 34.640625 -37.320312 34.128906 -38.796875 33.109375 -40.015625 C 32.085938 -41.242188 30.429688 -41.859375 28.140625 -41.859375 C 26.253906 -41.859375 24.582031 -41.304688 23.125 -40.203125 C 21.664062 -39.097656 20.519531 -37.695312 19.6875 -36 C 18.863281 -34.3125 18.453125 -32.597656 18.453125 -30.859375 C 18.453125 -29.128906 18.921875 -27.632812 19.859375 -26.375 C 20.804688 -25.113281 22.382812 -24.484375 24.59375 -24.484375 Z M 24.59375 -24.484375 "/></g></g></g><g fill="#fefae0" fill-opacity="1"><g transform="translate(176.279667, 206.836377)"><g><path d="M 7.453125 0 C 4.691406 0 2.5625 -0.828125 1.0625 -2.484375 C -0.4375 -4.140625 -1.1875 -6.1875 -1.1875 -8.625 C -1.1875 -11.382812 -0.945312 -14.832031 -0.46875 -18.96875 C 0 -23.113281 1.0625 -27.59375 2.71875 -32.40625 C 4.375 -37.289062 5.988281 -41.742188 7.5625 -45.765625 C 9.144531 -49.785156 10.742188 -53.015625 12.359375 -55.453125 C 13.972656 -57.898438 15.566406 -59.125 17.140625 -59.125 C 18.484375 -59.125 19.429688 -58.671875 19.984375 -57.765625 C 20.535156 -56.859375 20.8125 -55.8125 20.8125 -54.625 C 20.8125 -52.65625 21.398438 -51.316406 22.578125 -50.609375 C 23.765625 -49.898438 25.304688 -50.492188 27.203125 -52.390625 C 29.410156 -54.515625 31.695312 -56.164062 34.0625 -57.34375 C 36.425781 -58.53125 38.90625 -59.125 41.5 -59.125 C 44.414062 -59.125 46.722656 -58.414062 48.421875 -57 C 50.117188 -55.582031 51.242188 -53.804688 51.796875 -51.671875 C 51.953125 -50.890625 52.265625 -50.4375 52.734375 -50.3125 C 53.210938 -50.195312 53.882812 -50.648438 54.75 -51.671875 C 57.03125 -54.191406 59.429688 -56.101562 61.953125 -57.40625 C 64.484375 -58.707031 67.164062 -59.359375 70 -59.359375 C 74.65625 -59.359375 77.925781 -58.289062 79.8125 -56.15625 C 81.707031 -54.03125 82.65625 -51.472656 82.65625 -48.484375 C 82.65625 -46.429688 82.335938 -44.554688 81.703125 -42.859375 C 81.078125 -41.171875 80.445312 -39.515625 79.8125 -37.890625 C 79.1875 -36.273438 78.875 -34.484375 78.875 -32.515625 C 78.875 -28.421875 80.804688 -26.375 84.671875 -26.375 C 86.484375 -26.375 88 -26.941406 89.21875 -28.078125 C 90.4375 -29.222656 91.640625 -30.664062 92.828125 -32.40625 C 93.453125 -33.34375 94.273438 -33.671875 95.296875 -33.390625 C 96.328125 -33.117188 97.175781 -32.585938 97.84375 -31.796875 C 98.519531 -31.015625 98.617188 -30.226562 98.140625 -29.4375 C 97.359375 -28.175781 96.414062 -26.34375 95.3125 -23.9375 C 94.207031 -21.539062 92.882812 -18.984375 91.34375 -16.265625 C 89.8125 -13.546875 88.019531 -10.941406 85.96875 -8.453125 C 83.914062 -5.972656 81.609375 -3.941406 79.046875 -2.359375 C 76.484375 -0.785156 73.585938 0 70.359375 0 C 66.578125 0 63.9375 -1.238281 62.4375 -3.71875 C 60.9375 -6.207031 60.1875 -9.144531 60.1875 -12.53125 C 60.1875 -15.53125 60.597656 -18.390625 61.421875 -21.109375 C 62.253906 -23.828125 63.082031 -26.304688 63.90625 -28.546875 C 64.738281 -30.796875 65.15625 -32.710938 65.15625 -34.296875 C 65.15625 -35.628906 64.738281 -36.648438 63.90625 -37.359375 C 63.082031 -38.078125 62 -38.4375 60.65625 -38.4375 C 58.375 -38.4375 56.265625 -37.488281 54.328125 -35.59375 C 52.398438 -33.695312 50.84375 -31.328125 49.65625 -28.484375 C 48.476562 -25.648438 47.890625 -22.738281 47.890625 -19.75 C 47.890625 -18.007812 48.023438 -16.664062 48.296875 -15.71875 C 48.578125 -14.78125 48.71875 -13.441406 48.71875 -11.703125 C 48.71875 -10.046875 48.460938 -8.332031 47.953125 -6.5625 C 47.441406 -4.789062 46.4375 -3.289062 44.9375 -2.0625 C 43.4375 -0.84375 41.1875 -0.234375 38.1875 -0.234375 C 35.507812 -0.234375 33.265625 -0.984375 31.453125 -2.484375 C 29.640625 -3.984375 28.734375 -6.664062 28.734375 -10.53125 C 28.734375 -13.519531 29.222656 -16.394531 30.203125 -19.15625 C 31.191406 -21.914062 32.175781 -24.515625 33.15625 -26.953125 C 34.144531 -29.398438 34.640625 -31.609375 34.640625 -33.578125 C 34.640625 -35.160156 34.222656 -36.320312 33.390625 -37.0625 C 32.566406 -37.8125 31.488281 -38.1875 30.15625 -38.1875 C 27.863281 -38.1875 25.753906 -37.222656 23.828125 -35.296875 C 21.898438 -33.367188 20.34375 -30.863281 19.15625 -27.78125 C 17.96875 -24.707031 17.375 -21.398438 17.375 -17.859375 L 17.375 -12.53125 C 17.375 -10.5625 17.140625 -8.609375 16.671875 -6.671875 C 16.203125 -4.742188 15.253906 -3.148438 13.828125 -1.890625 C 12.410156 -0.628906 10.285156 0 7.453125 0 Z M 7.453125 0 "/></g></g></g><g fill="#fefae0" fill-opacity="1"><g transform="translate(266.387429, 206.836377)"><g><path d="M 23.765625 -63.96875 C 20.929688 -63.96875 18.488281 -64.578125 16.4375 -65.796875 C 14.382812 -67.023438 13.359375 -69.21875 13.359375 -72.375 C 13.359375 -76.550781 14.519531 -79.40625 16.84375 -80.9375 C 19.175781 -82.476562 21.957031 -83.25 25.1875 -83.25 C 28.1875 -83.25 30.726562 -82.578125 32.8125 -81.234375 C 34.90625 -79.898438 35.789062 -77.378906 35.46875 -73.671875 C 35.15625 -70.046875 33.894531 -67.519531 31.6875 -66.09375 C 29.476562 -64.675781 26.835938 -63.96875 23.765625 -63.96875 Z M 10.640625 0 C 6.703125 0 3.90625 -1.4375 2.25 -4.3125 C 0.59375 -7.1875 -0.234375 -10.675781 -0.234375 -14.78125 C -0.234375 -17.539062 0.0390625 -20.457031 0.59375 -23.53125 C 1.144531 -26.601562 1.851562 -29.5625 2.71875 -32.40625 C 5.476562 -41 8.15625 -47.597656 10.75 -52.203125 C 13.351562 -56.816406 16.351562 -59.125 19.75 -59.125 C 22.425781 -59.125 23.765625 -57.347656 23.765625 -53.796875 C 23.765625 -51.429688 23.3125 -49.007812 22.40625 -46.53125 C 21.5 -44.050781 20.613281 -41.609375 19.75 -39.203125 C 18.882812 -36.796875 18.453125 -34.53125 18.453125 -32.40625 C 18.453125 -30.425781 18.941406 -28.941406 19.921875 -27.953125 C 20.910156 -26.972656 22.191406 -26.484375 23.765625 -26.484375 C 25.578125 -26.484375 27.09375 -27.035156 28.3125 -28.140625 C 29.539062 -29.242188 30.742188 -30.664062 31.921875 -32.40625 C 32.554688 -33.34375 33.363281 -33.691406 34.34375 -33.453125 C 35.332031 -33.222656 36.160156 -32.691406 36.828125 -31.859375 C 37.503906 -31.035156 37.644531 -30.269531 37.25 -29.5625 C 36.457031 -28.300781 35.53125 -26.488281 34.46875 -24.125 C 33.40625 -21.757812 32.125 -19.195312 30.625 -16.4375 C 29.125 -13.675781 27.40625 -11.050781 25.46875 -8.5625 C 23.539062 -6.082031 21.351562 -4.035156 18.90625 -2.421875 C 16.46875 -0.804688 13.710938 0 10.640625 0 Z M 10.640625 0 "/></g></g></g><g fill="#fefae0" fill-opacity="1"><g transform="translate(295.477337, 206.836377)"><g><path d="M 7.453125 0 C 4.691406 0 2.5625 -0.828125 1.0625 -2.484375 C -0.4375 -4.140625 -1.1875 -6.1875 -1.1875 -8.625 C -1.1875 -11.382812 -0.867188 -14.832031 -0.234375 -18.96875 C 0.390625 -23.113281 1.375 -27.59375 2.71875 -32.40625 C 4.0625 -37.050781 5.539062 -41.40625 7.15625 -45.46875 C 8.769531 -49.53125 10.421875 -52.820312 12.109375 -55.34375 C 13.804688 -57.863281 15.40625 -59.125 16.90625 -59.125 C 18.488281 -59.125 19.535156 -58.671875 20.046875 -57.765625 C 20.554688 -56.859375 20.8125 -55.8125 20.8125 -54.625 C 20.8125 -52.34375 21.363281 -50.925781 22.46875 -50.375 C 23.570312 -49.820312 25.070312 -50.492188 26.96875 -52.390625 C 29.164062 -54.515625 31.445312 -56.164062 33.8125 -57.34375 C 36.175781 -58.53125 38.660156 -59.125 41.265625 -59.125 C 44.890625 -59.125 47.566406 -58.054688 49.296875 -55.921875 C 51.035156 -53.796875 51.90625 -51.238281 51.90625 -48.25 C 51.90625 -46.195312 51.585938 -44.320312 50.953125 -42.625 C 50.328125 -40.9375 49.695312 -39.28125 49.0625 -37.65625 C 48.4375 -36.039062 48.125 -34.25 48.125 -32.28125 C 48.125 -28.34375 50.015625 -26.375 53.796875 -26.375 C 55.617188 -26.375 57.140625 -26.941406 58.359375 -28.078125 C 59.578125 -29.222656 60.78125 -30.664062 61.96875 -32.40625 C 62.59375 -33.34375 63.414062 -33.671875 64.4375 -33.390625 C 65.46875 -33.117188 66.316406 -32.585938 66.984375 -31.796875 C 67.660156 -31.015625 67.757812 -30.226562 67.28125 -29.4375 C 66.5 -28.175781 65.554688 -26.34375 64.453125 -23.9375 C 63.347656 -21.539062 62.023438 -18.984375 60.484375 -16.265625 C 58.941406 -13.546875 57.144531 -10.941406 55.09375 -8.453125 C 53.050781 -5.972656 50.75 -3.941406 48.1875 -2.359375 C 45.625 -0.785156 42.726562 0 39.5 0 C 35.789062 0 33.1875 -1.21875 31.6875 -3.65625 C 30.1875 -6.101562 29.4375 -8.984375 29.4375 -12.296875 C 29.4375 -15.296875 29.847656 -18.15625 30.671875 -20.875 C 31.503906 -23.59375 32.332031 -26.070312 33.15625 -28.3125 C 33.988281 -30.5625 34.40625 -32.476562 34.40625 -34.0625 C 34.40625 -35.394531 33.988281 -36.414062 33.15625 -37.125 C 32.332031 -37.832031 31.253906 -38.1875 29.921875 -38.1875 C 27.628906 -38.1875 25.515625 -37.222656 23.578125 -35.296875 C 21.648438 -33.367188 20.09375 -30.863281 18.90625 -27.78125 C 17.726562 -24.707031 17.140625 -21.398438 17.140625 -17.859375 L 17.140625 -12.53125 C 17.140625 -10.5625 16.90625 -8.609375 16.4375 -6.671875 C 15.96875 -4.742188 15.039062 -3.148438 13.65625 -1.890625 C 12.28125 -0.628906 10.210938 0 7.453125 0 Z M 7.453125 0 "/></g></g></g><g fill="#fefae0" fill-opacity="1"><g transform="translate(354.721443, 206.836377)"><g/></g></g><g fill="#fefae0" fill-opacity="1"><g transform="translate(397.292051, 206.836377)"><g><path d="M 103.703125 -32.40625 C 104.335938 -33.34375 105.164062 -33.671875 106.1875 -33.390625 C 107.207031 -33.117188 108.050781 -32.585938 108.71875 -31.796875 C 109.394531 -31.015625 109.5 -30.226562 109.03125 -29.4375 C 108.238281 -28.175781 107.289062 -26.34375 106.1875 -23.9375 C 105.082031 -21.539062 103.757812 -18.984375 102.21875 -16.265625 C 100.6875 -13.546875 98.894531 -10.941406 96.84375 -8.453125 C 94.789062 -5.972656 92.484375 -3.941406 89.921875 -2.359375 C 87.359375 -0.785156 84.460938 0 81.234375 0 C 78.472656 0 76.242188 -0.785156 74.546875 -2.359375 C 72.859375 -3.941406 71.640625 -6.070312 70.890625 -8.75 C 70.140625 -11.425781 69.765625 -14.382812 69.765625 -17.625 C 69.765625 -19.113281 69.84375 -20.6875 70 -22.34375 C 70.15625 -24 70.394531 -25.734375 70.71875 -27.546875 C 68.1875 -27.703125 65.71875 -27.9375 63.3125 -28.25 C 60.914062 -28.570312 58.570312 -29.007812 56.28125 -29.5625 C 55.570312 -28.300781 54.863281 -27.019531 54.15625 -25.71875 C 53.445312 -24.414062 52.738281 -23.132812 52.03125 -21.875 C 49.351562 -17.226562 46.257812 -12.851562 42.75 -8.75 C 39.238281 -4.644531 35.492188 -1.332031 31.515625 1.1875 C 27.535156 3.707031 23.414062 4.96875 19.15625 4.96875 C 13.789062 4.96875 9.429688 4 6.078125 2.0625 C 2.734375 0.132812 0.296875 -2.363281 -1.234375 -5.4375 C -2.773438 -8.507812 -3.546875 -11.664062 -3.546875 -14.90625 C -3.546875 -18.132812 -2.894531 -21.222656 -1.59375 -24.171875 C -0.289062 -27.128906 1.539062 -29.535156 3.90625 -31.390625 C 6.269531 -33.242188 9.03125 -34.171875 12.1875 -34.171875 C 13.363281 -34.171875 13.953125 -33.695312 13.953125 -32.75 C 13.953125 -30.15625 15.070312 -28.046875 17.3125 -26.421875 C 19.5625 -24.804688 22.304688 -24 25.546875 -24 C 29.242188 -24 32.648438 -24.90625 35.765625 -26.71875 C 38.878906 -28.53125 41.78125 -30.976562 44.46875 -34.0625 C 38.394531 -37.132812 33.582031 -41.113281 30.03125 -46 C 26.488281 -50.882812 24.71875 -56.285156 24.71875 -62.203125 C 24.71875 -66.378906 25.601562 -69.882812 27.375 -72.71875 C 29.144531 -75.5625 31.488281 -77.726562 34.40625 -79.21875 C 37.320312 -80.71875 40.4375 -81.46875 43.75 -81.46875 C 48.25 -81.46875 51.539062 -80.304688 53.625 -77.984375 C 55.71875 -75.660156 56.765625 -73.117188 56.765625 -70.359375 C 56.835938 -69.492188 56.632812 -68.785156 56.15625 -68.234375 C 55.6875 -67.679688 55.019531 -67.441406 54.15625 -67.515625 C 52.65625 -67.671875 51.132812 -67.472656 49.59375 -66.921875 C 48.0625 -66.378906 46.78125 -65.335938 45.75 -63.796875 C 44.726562 -62.253906 44.21875 -60.023438 44.21875 -57.109375 C 44.21875 -51.046875 46.425781 -46.160156 50.84375 -42.453125 C 51.394531 -43.316406 51.925781 -44.203125 52.4375 -45.109375 C 52.957031 -46.015625 53.492188 -46.941406 54.046875 -47.890625 C 60.035156 -58.691406 65.75 -67.066406 71.1875 -73.015625 C 76.625 -78.972656 81.785156 -83.113281 86.671875 -85.4375 C 91.566406 -87.757812 96.179688 -88.921875 100.515625 -88.921875 C 104.691406 -88.921875 107.765625 -87.796875 109.734375 -85.546875 C 111.703125 -83.304688 112.6875 -80.566406 112.6875 -77.328125 C 112.613281 -73.546875 111.726562 -70.296875 110.03125 -67.578125 C 108.332031 -64.859375 106.222656 -63.5 103.703125 -63.5 C 102.910156 -63.5 102.195312 -63.710938 101.5625 -64.140625 C 100.9375 -64.578125 100.191406 -64.757812 99.328125 -64.6875 C 98.148438 -64.6875 96.847656 -63.660156 95.421875 -61.609375 C 94.003906 -59.554688 92.546875 -56.085938 91.046875 -51.203125 C 90.335938 -48.753906 89.648438 -46.148438 88.984375 -43.390625 C 88.316406 -40.640625 87.984375 -38.117188 87.984375 -35.828125 C 87.984375 -33.378906 88.4375 -31.382812 89.34375 -29.84375 C 90.25 -28.3125 91.804688 -27.546875 94.015625 -27.546875 C 95.828125 -27.546875 97.617188 -27.921875 99.390625 -28.671875 C 101.160156 -29.421875 102.597656 -30.664062 103.703125 -32.40625 Z M 72.484375 -35.59375 C 74.066406 -41.113281 75.546875 -45.507812 76.921875 -48.78125 C 78.296875 -52.050781 79.414062 -54.671875 80.28125 -56.640625 C 81.15625 -58.609375 81.59375 -60.382812 81.59375 -61.96875 C 81.59375 -63.070312 81.117188 -63.625 80.171875 -63.625 C 79.378906 -63.625 78.550781 -63.328125 77.6875 -62.734375 C 76.820312 -62.140625 75.519531 -60.816406 73.78125 -58.765625 C 71.414062 -55.691406 69.148438 -52.34375 66.984375 -48.71875 C 64.816406 -45.09375 62.671875 -41.347656 60.546875 -37.484375 C 62.273438 -36.929688 64.144531 -36.515625 66.15625 -36.234375 C 68.164062 -35.960938 70.273438 -35.75 72.484375 -35.59375 Z M 72.484375 -35.59375 "/></g></g></g><g fill="#fefae0" fill-opacity="1"><g transform="translate(498.278985, 206.836377)"><g><path d="M 20.8125 0 C 16.082031 0 12.21875 -1.0625 9.21875 -3.1875 C 6.226562 -5.320312 4.003906 -8.140625 2.546875 -11.640625 C 1.085938 -15.148438 0.359375 -18.957031 0.359375 -23.0625 C 0.359375 -27.238281 1.046875 -31.4375 2.421875 -35.65625 C 3.804688 -39.875 5.796875 -43.753906 8.390625 -47.296875 C 10.992188 -50.847656 14.144531 -53.707031 17.84375 -55.875 C 21.550781 -58.039062 25.734375 -59.125 30.390625 -59.125 C 36.066406 -59.125 40.203125 -57.664062 42.796875 -54.75 C 45.398438 -51.832031 46.703125 -48.441406 46.703125 -44.578125 C 46.703125 -41.191406 46.050781 -38.453125 44.75 -36.359375 C 43.457031 -34.273438 41.882812 -32.757812 40.03125 -31.8125 C 38.175781 -30.863281 36.378906 -30.390625 34.640625 -30.390625 C 32.597656 -30.390625 31.0625 -30.742188 30.03125 -31.453125 C 29.007812 -32.160156 28.5 -32.910156 28.5 -33.703125 C 28.5 -34.410156 28.710938 -35 29.140625 -35.46875 C 29.578125 -35.945312 30.03125 -36.539062 30.5 -37.25 C 30.976562 -37.957031 31.21875 -39.019531 31.21875 -40.4375 C 31.21875 -41.539062 30.863281 -42.503906 30.15625 -43.328125 C 29.445312 -44.160156 28.1875 -44.578125 26.375 -44.578125 C 23.6875 -44.578125 21.613281 -43.414062 20.15625 -41.09375 C 18.695312 -38.769531 17.96875 -36.109375 17.96875 -33.109375 C 17.96875 -29.953125 18.796875 -27.390625 20.453125 -25.421875 C 22.109375 -23.453125 24.253906 -22.113281 26.890625 -21.40625 C 29.535156 -20.695312 32.394531 -20.617188 35.46875 -21.171875 C 38.550781 -21.722656 41.585938 -22.921875 44.578125 -24.765625 C 47.578125 -26.617188 50.179688 -29.164062 52.390625 -32.40625 C 53.015625 -33.34375 53.835938 -33.671875 54.859375 -33.390625 C 55.890625 -33.117188 56.738281 -32.585938 57.40625 -31.796875 C 58.082031 -31.015625 58.179688 -30.226562 57.703125 -29.4375 C 52.503906 -19.820312 46.789062 -12.507812 40.5625 -7.5 C 34.332031 -2.5 27.75 0 20.8125 0 Z M 20.8125 0 "/></g></g></g><g fill="#fefae0" fill-opacity="1"><g transform="translate(547.944671, 206.836377)"><g><path d="M 20.8125 0 C 16.082031 0 12.21875 -1.0625 9.21875 -3.1875 C 6.226562 -5.320312 4.003906 -8.140625 2.546875 -11.640625 C 1.085938 -15.148438 0.359375 -18.957031 0.359375 -23.0625 C 0.359375 -27.238281 1.046875 -31.4375 2.421875 -35.65625 C 3.804688 -39.875 5.796875 -43.753906 8.390625 -47.296875 C 10.992188 -50.847656 14.144531 -53.707031 17.84375 -55.875 C 21.550781 -58.039062 25.734375 -59.125 30.390625 -59.125 C 36.066406 -59.125 40.203125 -57.664062 42.796875 -54.75 C 45.398438 -51.832031 46.703125 -48.441406 46.703125 -44.578125 C 46.703125 -41.191406 46.050781 -38.453125 44.75 -36.359375 C 43.457031 -34.273438 41.882812 -32.757812 40.03125 -31.8125 C 38.175781 -30.863281 36.378906 -30.390625 34.640625 -30.390625 C 32.597656 -30.390625 31.0625 -30.742188 30.03125 -31.453125 C 29.007812 -32.160156 28.5 -32.910156 28.5 -33.703125 C 28.5 -34.410156 28.710938 -35 29.140625 -35.46875 C 29.578125 -35.945312 30.03125 -36.539062 30.5 -37.25 C 30.976562 -37.957031 31.21875 -39.019531 31.21875 -40.4375 C 31.21875 -41.539062 30.863281 -42.503906 30.15625 -43.328125 C 29.445312 -44.160156 28.1875 -44.578125 26.375 -44.578125 C 23.6875 -44.578125 21.613281 -43.414062 20.15625 -41.09375 C 18.695312 -38.769531 17.96875 -36.109375 17.96875 -33.109375 C 17.96875 -29.953125 18.796875 -27.390625 20.453125 -25.421875 C 22.109375 -23.453125 24.253906 -22.113281 26.890625 -21.40625 C 29.535156 -20.695312 32.394531 -20.617188 35.46875 -21.171875 C 38.550781 -21.722656 41.585938 -22.921875 44.578125 -24.765625 C 47.578125 -26.617188 50.179688 -29.164062 52.390625 -32.40625 C 53.015625 -33.34375 53.835938 -33.671875 54.859375 -33.390625 C 55.890625 -33.117188 56.738281 -32.585938 57.40625 -31.796875 C 58.082031 -31.015625 58.179688 -30.226562 57.703125 -29.4375 C 52.503906 -19.820312 46.789062 -12.507812 40.5625 -7.5 C 34.332031 -2.5 27.75 0 20.8125 0 Z M 20.8125 0 "/></g></g></g><g fill="#fefae0" fill-opacity="1"><g transform="translate(597.610402, 206.836377)"><g><path d="M 59 -32.40625 C 59.476562 -33.113281 60.226562 -33.367188 61.25 -33.171875 C 62.28125 -32.972656 63.164062 -32.535156 63.90625 -31.859375 C 64.65625 -31.191406 64.796875 -30.382812 64.328125 -29.4375 C 63.222656 -27.070312 61.78125 -24.628906 60 -22.109375 C 58.226562 -19.585938 56.019531 -17.476562 53.375 -15.78125 C 50.738281 -14.09375 47.492188 -13.25 43.640625 -13.25 L 42.21875 -13.25 C 39.300781 -9.226562 35.8125 -6.015625 31.75 -3.609375 C 27.6875 -1.203125 23.445312 0 19.03125 0 C 13.75 0 9.375 -1.769531 5.90625 -5.3125 C 2.4375 -8.863281 0.703125 -13.710938 0.703125 -19.859375 C 0.703125 -24.273438 1.507812 -28.789062 3.125 -33.40625 C 4.75 -38.019531 7.019531 -42.273438 9.9375 -46.171875 C 12.851562 -50.078125 16.28125 -53.210938 20.21875 -55.578125 C 24.164062 -57.941406 28.503906 -59.125 33.234375 -59.125 C 36.460938 -59.125 39.375 -58.472656 41.96875 -57.171875 C 44.570312 -55.867188 46.644531 -53.71875 48.1875 -50.71875 C 49.726562 -47.726562 50.5 -43.75 50.5 -38.78125 C 50.5 -34.601562 49.90625 -30.546875 48.71875 -26.609375 L 49.546875 -26.609375 C 51.273438 -26.609375 52.925781 -27.0625 54.5 -27.96875 C 56.082031 -28.875 57.582031 -30.351562 59 -32.40625 Z M 25.78125 -24.484375 C 27.75 -24.484375 29.484375 -25.070312 30.984375 -26.25 C 32.484375 -27.4375 33.664062 -28.875 34.53125 -30.5625 C 35.394531 -32.257812 35.828125 -33.9375 35.828125 -35.59375 C 35.828125 -37.320312 35.3125 -38.796875 34.28125 -40.015625 C 33.257812 -41.242188 31.609375 -41.859375 29.328125 -41.859375 C 27.429688 -41.859375 25.753906 -41.304688 24.296875 -40.203125 C 22.835938 -39.097656 21.691406 -37.695312 20.859375 -36 C 20.035156 -34.3125 19.625 -32.597656 19.625 -30.859375 C 19.625 -29.128906 20.097656 -27.632812 21.046875 -26.375 C 21.992188 -25.113281 23.570312 -24.484375 25.78125 -24.484375 Z M 25.78125 -24.484375 "/></g></g></g><g fill="#fefae0" fill-opacity="1"><g transform="translate(653.898195, 206.836377)"><g><path d="M 61.84375 -32.40625 C 62.476562 -33.34375 63.304688 -33.671875 64.328125 -33.390625 C 65.347656 -33.117188 66.191406 -32.585938 66.859375 -31.796875 C 67.535156 -31.015625 67.640625 -30.226562 67.171875 -29.4375 C 66.378906 -28.175781 65.429688 -26.34375 64.328125 -23.9375 C 63.222656 -21.539062 61.898438 -18.984375 60.359375 -16.265625 C 58.828125 -13.546875 57.035156 -10.941406 54.984375 -8.453125 C 52.929688 -5.972656 50.625 -3.941406 48.0625 -2.359375 C 45.5 -0.785156 42.601562 0 39.375 0 C 32.59375 0 29.203125 -4.296875 29.203125 -12.890625 C 29.203125 -14.390625 29.320312 -16.003906 29.5625 -17.734375 C 28.300781 -14.972656 26.765625 -12.234375 24.953125 -9.515625 C 23.140625 -6.796875 21.050781 -4.550781 18.6875 -2.78125 C 16.320312 -1.007812 13.601562 -0.125 10.53125 -0.125 C 7.375 -0.125 4.847656 -1.265625 2.953125 -3.546875 C 1.066406 -5.835938 0.125 -9.382812 0.125 -14.1875 C 0.125 -16 0.257812 -18.519531 0.53125 -21.75 C 0.8125 -24.988281 1.539062 -28.539062 2.71875 -32.40625 C 5.476562 -41.070312 8.253906 -47.691406 11.046875 -52.265625 C 13.847656 -56.835938 16.90625 -59.125 20.21875 -59.125 C 22.664062 -59.125 23.890625 -57.546875 23.890625 -54.390625 C 23.890625 -51.867188 23.4375 -49.304688 22.53125 -46.703125 C 21.625 -44.109375 20.734375 -41.566406 19.859375 -39.078125 C 18.992188 -36.597656 18.5625 -34.175781 18.5625 -31.8125 C 18.5625 -30.15625 18.894531 -28.851562 19.5625 -27.90625 C 20.238281 -26.957031 21.5625 -26.484375 23.53125 -26.484375 C 25.65625 -26.484375 27.582031 -27.132812 29.3125 -28.4375 C 31.050781 -29.738281 32.4375 -31.847656 33.46875 -34.765625 L 33.578125 -35.234375 C 36.023438 -42.960938 38.507812 -48.875 41.03125 -52.96875 C 43.550781 -57.070312 46.3125 -59.125 49.3125 -59.125 C 50.488281 -59.125 51.390625 -58.769531 52.015625 -58.0625 C 52.648438 -57.351562 52.96875 -56.128906 52.96875 -54.390625 C 52.96875 -52.179688 52.515625 -49.796875 51.609375 -47.234375 C 50.703125 -44.671875 49.816406 -42.128906 48.953125 -39.609375 C 48.085938 -37.085938 47.65625 -34.84375 47.65625 -32.875 C 47.65625 -30.664062 48.265625 -29.03125 49.484375 -27.96875 C 50.710938 -26.90625 52.113281 -26.375 53.6875 -26.375 C 55.5 -26.375 57.015625 -26.941406 58.234375 -28.078125 C 59.460938 -29.222656 60.664062 -30.664062 61.84375 -32.40625 Z M 61.84375 -32.40625 "/></g></g></g><g fill="#fefae0" fill-opacity="1"><g transform="translate(713.024047, 206.836377)"><g><path d="M 7.453125 0 C 4.691406 0 2.5625 -0.828125 1.0625 -2.484375 C -0.4375 -4.140625 -1.1875 -6.1875 -1.1875 -8.625 C -1.1875 -11.382812 -0.867188 -14.832031 -0.234375 -18.96875 C 0.390625 -23.113281 1.375 -27.59375 2.71875 -32.40625 C 4.0625 -37.050781 5.539062 -41.40625 7.15625 -45.46875 C 8.769531 -49.53125 10.421875 -52.820312 12.109375 -55.34375 C 13.804688 -57.863281 15.40625 -59.125 16.90625 -59.125 C 18.488281 -59.125 19.535156 -58.671875 20.046875 -57.765625 C 20.554688 -56.859375 20.8125 -55.8125 20.8125 -54.625 C 20.8125 -52.34375 21.363281 -50.925781 22.46875 -50.375 C 23.570312 -49.820312 25.070312 -50.492188 26.96875 -52.390625 C 29.164062 -54.515625 31.445312 -56.164062 33.8125 -57.34375 C 36.175781 -58.53125 38.660156 -59.125 41.265625 -59.125 C 44.890625 -59.125 47.566406 -58.054688 49.296875 -55.921875 C 51.035156 -53.796875 51.90625 -51.238281 51.90625 -48.25 C 51.90625 -46.195312 51.585938 -44.320312 50.953125 -42.625 C 50.328125 -40.9375 49.695312 -39.28125 49.0625 -37.65625 C 48.4375 -36.039062 48.125 -34.25 48.125 -32.28125 C 48.125 -28.34375 50.015625 -26.375 53.796875 -26.375 C 55.617188 -26.375 57.140625 -26.941406 58.359375 -28.078125 C 59.578125 -29.222656 60.78125 -30.664062 61.96875 -32.40625 C 62.59375 -33.34375 63.414062 -33.671875 64.4375 -33.390625 C 65.46875 -33.117188 66.316406 -32.585938 66.984375 -31.796875 C 67.660156 -31.015625 67.757812 -30.226562 67.28125 -29.4375 C 66.5 -28.175781 65.554688 -26.34375 64.453125 -23.9375 C 63.347656 -21.539062 62.023438 -18.984375 60.484375 -16.265625 C 58.941406 -13.546875 57.144531 -10.941406 55.09375 -8.453125 C 53.050781 -5.972656 50.75 -3.941406 48.1875 -2.359375 C 45.625 -0.785156 42.726562 0 39.5 0 C 35.789062 0 33.1875 -1.21875 31.6875 -3.65625 C 30.1875 -6.101562 29.4375 -8.984375 29.4375 -12.296875 C 29.4375 -15.296875 29.847656 -18.15625 30.671875 -20.875 C 31.503906 -23.59375 32.332031 -26.070312 33.15625 -28.3125 C 33.988281 -30.5625 34.40625 -32.476562 34.40625 -34.0625 C 34.40625 -35.394531 33.988281 -36.414062 33.15625 -37.125 C 32.332031 -37.832031 31.253906 -38.1875 29.921875 -38.1875 C 27.628906 -38.1875 25.515625 -37.222656 23.578125 -35.296875 C 21.648438 -33.367188 20.09375 -30.863281 18.90625 -27.78125 C 17.726562 -24.707031 17.140625 -21.398438 17.140625 -17.859375 L 17.140625 -12.53125 C 17.140625 -10.5625 16.90625 -8.609375 16.4375 -6.671875 C 15.96875 -4.742188 15.039062 -3.148438 13.65625 -1.890625 C 12.28125 -0.628906 10.210938 0 7.453125 0 Z M 7.453125 0 "/></g></g></g><g fill="#fefae0" fill-opacity="1"><g transform="translate(772.268175, 206.836377)"><g><path d="M 11.9375 0 C 7.53125 0 4.28125 -1.359375 2.1875 -4.078125 C 0.09375 -6.796875 -0.953125 -10.34375 -0.953125 -14.71875 C -0.953125 -19.09375 -0.0820312 -23.804688 1.65625 -28.859375 C 2.675781 -31.847656 3.816406 -35.078125 5.078125 -38.546875 C 6.347656 -42.015625 7.726562 -45.800781 9.21875 -49.90625 C 7.488281 -49.90625 6.171875 -50.359375 5.265625 -51.265625 C 4.359375 -52.171875 3.765625 -53.234375 3.484375 -54.453125 C 3.210938 -55.671875 3.210938 -56.734375 3.484375 -57.640625 C 3.765625 -58.546875 4.257812 -59 4.96875 -59 C 8.4375 -59 11.15625 -59.960938 13.125 -61.890625 C 15.09375 -63.828125 16.472656 -65.863281 17.265625 -68 C 18.679688 -71.46875 20.054688 -73.65625 21.390625 -74.5625 C 22.734375 -75.46875 24.15625 -75.921875 25.65625 -75.921875 C 27.863281 -75.921875 29.242188 -74.992188 29.796875 -73.140625 C 30.347656 -71.285156 29.71875 -68.503906 27.90625 -64.796875 C 27.039062 -62.910156 26.566406 -61.472656 26.484375 -60.484375 C 26.410156 -59.492188 26.925781 -59 28.03125 -59 L 34.171875 -59 C 34.960938 -59 35.472656 -58.445312 35.703125 -57.34375 C 35.941406 -56.25 35.921875 -54.988281 35.640625 -53.5625 C 35.367188 -52.144531 34.859375 -50.882812 34.109375 -49.78125 C 33.359375 -48.675781 32.394531 -48.125 31.21875 -48.125 C 27.59375 -48.125 24.910156 -47.984375 23.171875 -47.703125 C 21.441406 -47.429688 20.222656 -46.742188 19.515625 -45.640625 C 18.804688 -44.535156 18.054688 -42.644531 17.265625 -39.96875 C 16.003906 -35.863281 16.179688 -32.585938 17.796875 -30.140625 C 19.410156 -27.703125 21.953125 -26.484375 25.421875 -26.484375 C 27.785156 -26.484375 29.894531 -27.015625 31.75 -28.078125 C 33.601562 -29.148438 35.117188 -30.59375 36.296875 -32.40625 C 36.929688 -33.34375 37.738281 -33.671875 38.71875 -33.390625 C 39.707031 -33.117188 40.535156 -32.585938 41.203125 -31.796875 C 41.878906 -31.015625 42.019531 -30.226562 41.625 -29.4375 C 40.914062 -28.101562 39.96875 -26.253906 38.78125 -23.890625 C 37.601562 -21.523438 36.1875 -18.960938 34.53125 -16.203125 C 32.875 -13.441406 30.941406 -10.835938 28.734375 -8.390625 C 26.523438 -5.953125 24.019531 -3.941406 21.21875 -2.359375 C 18.425781 -0.785156 15.332031 0 11.9375 0 Z M 11.9375 0 "/></g></g></g></svg>