<svg xmlns="http://www.w3.org/2000/svg" xmlns:xlink="http://www.w3.org/1999/xlink" width="700" zoomAndPan="magnify" viewBox="0 0 525 187.499995" height="250" preserveAspectRatio="xMidYMid meet" version="1.0"><defs><g/><clipPath id="2d17591e21"><path d="M 0.699219 0 L 524.300781 0 L 524.300781 167 L 0.699219 167 Z M 0.699219 0 " clip-rule="nonzero"/></clipPath><clipPath id="4c7b18e4fd"><path d="M 0.699219 20 L 524.300781 20 L 524.300781 187 L 0.699219 187 Z M 0.699219 20 " clip-rule="nonzero"/></clipPath></defs><g clip-path="url(#2d17591e21)"><path stroke-linecap="butt" transform="matrix(0.748005, 0, 0, 0.748005, 7.882724, 21.472981)" fill="none" stroke-linejoin="miter" d="M 73.278346 39.615346 C 74.625679 38.529123 75.915568 38.127012 77.153235 38.409012 C 78.41179 38.670124 79.038457 40.090568 79.038457 42.675568 C 79.038457 43.996791 78.78779 45.798457 78.291679 48.075346 C 77.811235 50.336569 76.944346 52.623902 75.68579 54.947791 C 74.448123 57.245569 72.672568 59.19868 70.348679 60.807125 C 68.045679 62.410347 65.074234 63.21457 61.429123 63.21457 C 61.084456 63.21457 60.703234 63.21457 60.290678 63.21457 C 59.899011 63.21457 59.476011 63.162347 59.021678 63.052681 C 57.5229 69.194015 56.060678 73.935793 54.624566 77.278015 C 53.193677 80.594126 51.564344 82.886682 49.741788 84.145238 C 47.940122 85.382905 45.61101 85.999127 42.74401 85.999127 C 39.64201 85.999127 37.417343 85.23146 36.07001 83.690904 C 34.748787 82.124238 34.445898 79.372126 35.161343 75.418904 C 35.876787 71.450015 37.699343 65.904014 40.62901 58.786125 C 38.587121 58.263903 36.592232 57.809569 34.639121 57.417903 C 32.686009 57.005347 30.722454 56.80168 28.748454 56.80168 C 26.189564 56.80168 24.210342 57.203791 22.821231 58.008014 C 21.458231 58.807014 20.30412 59.632125 19.374564 60.478125 C 18.439786 61.324125 17.259564 61.747125 15.823453 61.747125 C 13.870341 61.747125 12.136564 60.948125 10.616897 59.339681 C 9.118119 57.736458 8.350452 55.736347 8.303452 53.349791 C 8.261674 50.942347 9.347897 48.534902 11.562119 46.122235 C 15.640675 41.871346 19.353675 37.834568 22.695898 34.017123 C 26.032898 30.173567 28.706676 26.549345 30.701565 23.144456 C 32.696454 19.713456 33.693898 16.491344 33.693898 13.478122 C 33.693898 10.804344 32.764343 9.472677 30.894787 9.472677 C 29.37512 9.472677 28.268009 10.088899 27.578676 11.326566 C 25.70912 10.893122 24.257342 9.765121 23.212898 7.942566 C 22.194564 6.12001 21.682786 4.046788 21.682786 1.722899 C 21.682786 -0.83599 22.304231 -3.431435 23.541898 -6.052991 C 24.800453 -8.679769 26.784898 -10.883547 29.495231 -12.664325 C 32.210787 -14.43988 35.64701 -15.33288 39.814343 -15.33288 C 45.32901 -15.33288 49.506788 -13.59388 52.347677 -10.126324 C 55.188567 -6.653546 56.614233 -2.517546 56.614233 2.276454 C 56.614233 6.532566 55.428789 10.82001 53.063122 15.133566 C 50.718344 19.452344 47.506677 23.708456 43.428121 27.896678 C 39.349565 32.064012 34.680898 36.184346 29.432565 40.262901 C 28.71712 40.806013 28.398565 41.349124 28.487342 41.892235 C 28.57612 42.414457 29.103565 42.675568 30.08012 42.675568 C 32.66512 42.675568 35.485121 42.675568 38.545343 42.675568 C 41.626454 42.675568 44.71801 42.628568 47.825233 42.545013 C 53.162344 30.889012 57.554233 21.5569 61.006122 14.548677 C 64.4789 7.519566 67.439901 2.427899 69.894345 -0.715879 C 72.343568 -3.885768 74.677901 -5.468102 76.892124 -5.468102 C 79.106346 -5.468102 79.874013 -4.157324 79.200346 -1.530546 C 78.55279 1.096232 77.106235 4.99201 74.871123 10.156788 C 72.662123 15.300677 70.176345 21.734456 67.419012 29.458123 C 66.703567 31.604456 66.050789 33.698568 65.465901 35.740457 C 64.901901 37.782346 64.400567 39.819012 63.967123 41.860902 C 66.270123 41.59979 68.244123 41.296901 69.894345 40.947013 C 71.544568 40.581457 72.672568 40.137568 73.278346 39.615346 Z M 90.496013 91.597349 C 85.331235 91.597349 81.038568 90.500683 77.607568 88.312571 C 74.202679 86.140127 71.649012 83.330571 69.957012 79.878682 C 68.265012 76.405904 67.419012 72.84957 67.419012 69.204459 C 67.419012 65.559348 68.155345 62.076125 69.633234 58.754792 C 71.085012 55.412569 73.14779 52.702236 75.816346 50.618569 C 78.484901 48.514013 81.602568 47.459124 85.158902 47.459124 C 86.485346 47.459124 87.143347 47.991791 87.143347 49.051902 C 87.143347 52.00768 88.501124 54.394236 91.211458 56.216791 C 93.927014 58.039347 97.018569 58.948014 100.491347 58.948014 C 103.509792 58.948014 106.611792 58.169903 109.80257 56.608458 C 113.014237 55.041791 116.105793 52.582124 119.077238 49.219013 C 122.074793 45.829791 124.591905 41.469235 126.628572 36.132123 C 127.77746 33.113679 128.952461 29.99079 130.143127 26.758234 C 131.359905 23.499567 132.54535 20.455011 133.694239 17.6089 C 134.582017 15.290233 135.757017 13.640011 137.208794 12.663455 C 138.686683 11.686899 140.399572 11.19601 142.352684 11.19601 C 145.193573 11.19601 147.063128 11.848788 147.950906 13.149122 C 148.838684 14.428566 148.927462 16.178011 148.212017 18.392233 C 145.736684 25.510123 146.629684 29.066456 150.880573 29.066456 C 153.721462 29.066456 156.369129 27.959345 158.823574 25.745123 C 161.272796 23.510011 162.500018 20.355789 162.500018 16.277233 C 162.500018 13.5199 161.612241 11.295233 159.831463 9.603233 C 158.050685 7.911232 155.721574 6.663121 152.833684 5.858899 C 149.945795 5.054677 146.723684 4.652566 143.16735 4.652566 C 138.002572 4.652566 133.239905 5.305343 128.874127 6.605677 C 124.53446 7.890344 121.030349 9.864344 118.361793 12.532899 C 115.693237 15.201455 114.356348 18.674233 114.356348 22.946011 C 114.356348 24.899123 114.847237 26.518012 115.823793 27.797456 C 116.800349 29.076901 118.00146 29.719234 119.437571 29.719234 C 120.043349 31.150123 120.074682 32.863012 119.531571 34.863123 C 119.014571 36.858012 117.970126 38.769346 116.408682 40.591901 C 114.868126 42.414457 112.873237 43.955013 110.418793 45.213568 C 107.990459 46.451235 105.165237 47.067457 101.95357 47.067457 C 98.308458 47.067457 95.237792 46.242346 92.741569 44.597346 C 90.271458 42.947124 88.401902 40.816457 87.143347 38.21579 C 85.90568 35.589012 85.289458 32.758568 85.289458 29.719234 C 85.289458 23.948678 86.647235 18.465344 89.357569 13.279677 C 92.073125 8.073121 95.953236 3.493232 101.01357 -0.454768 C 106.08957 -4.42888 112.220459 -7.541324 119.401015 -9.797324 C 126.607683 -12.053324 134.743905 -13.181325 143.814906 -13.181325 C 153.517796 -13.181325 161.49213 -11.980213 167.74313 -9.572769 C 174.015019 -7.180991 178.678464 -4.016324 181.738686 -0.0631014 C 184.819798 3.884899 186.360353 8.214121 186.360353 12.924566 C 186.360353 16.392122 185.62402 19.671678 184.146131 22.752789 C 182.694353 25.813011 180.673353 28.408456 178.093575 30.533901 C 175.508575 32.659345 172.526686 34.038012 169.142686 34.664679 C 168.077352 34.92579 167.523797 35.369679 167.482019 36.001568 C 167.440241 36.628234 167.60213 37.160901 167.967686 37.594346 C 169.727575 39.286346 171.226352 41.448346 172.464019 44.075124 C 173.722575 46.701902 174.349242 50.096347 174.349242 54.26368 C 174.349242 60.927236 172.907908 66.750014 170.020019 71.742459 C 167.13213 76.714015 163.382574 80.552349 158.755685 83.267904 C 154.134018 85.978238 149.240795 87.336016 144.076017 87.336016 C 138.305461 87.336016 133.683794 85.675349 130.211016 82.354015 C 126.759127 79.011793 124.847794 74.583348 124.482238 69.073903 C 119.59946 76.364126 114.293682 81.94146 108.564904 85.805905 C 102.836125 89.665127 96.814903 91.597349 90.496013 91.597349 Z M 145.282351 58.394458 C 148.494017 58.394458 150.99024 57.062791 152.771018 54.394236 C 154.546573 51.72568 155.439574 48.837791 155.439574 45.735791 C 155.439574 43.866235 154.745018 42.205568 153.355907 40.75379 C 151.987684 39.275901 149.783906 38.581346 146.744573 38.670124 C 143.814906 38.670124 141.56935 39.76679 140.007906 41.960124 C 138.46735 44.127346 137.699683 46.493013 137.699683 49.051902 C 137.699683 51.464569 138.295017 53.621347 139.485684 55.53268 C 140.681572 57.444014 142.613795 58.394458 145.282351 58.394458 Z M 201.149688 25.452678 C 198.846688 25.452678 196.851799 24.836456 195.159799 23.598789 C 193.467798 22.361122 192.621798 20.627344 192.621798 18.392233 C 192.621798 16.721122 193.107465 15.311122 194.084021 14.157011 C 195.060576 12.987233 196.350465 12.532899 197.95891 12.794011 C 201.865132 13.420677 204.988021 13.248344 207.332799 12.271788 C 209.698466 11.295233 211.3278 10.125455 212.215577 8.757233 C 213.103355 7.368121 213.192133 6.360232 212.476689 5.728343 C 211.954466 5.294899 211.447911 5.41501 210.946577 6.088677 C 210.471355 6.736232 209.385133 7.065232 207.693133 7.065232 C 205.740021 7.065232 203.750355 6.172232 201.734577 4.391454 C 199.739688 2.615899 198.742243 0.218899 198.742243 -2.799546 C 198.742243 -5.901546 199.844132 -8.538769 202.058355 -10.711213 C 204.293466 -12.899325 206.930688 -13.995991 209.970022 -13.995991 C 213.072022 -13.995991 215.709244 -12.773991 217.881689 -10.319547 C 220.0698 -7.891213 221.166467 -4.449768 221.166467 -0.000434757 C 221.166467 4.793566 220.200356 9.133233 218.268133 13.018566 C 216.362022 16.883011 213.876244 19.922344 210.816022 22.136567 C 207.755799 24.345567 204.533688 25.452678 201.149688 25.452678 Z M 277.268804 49.474902 C 277.984249 48.414791 278.898138 48.033569 280.005249 48.336458 C 281.133249 48.644569 282.068027 49.239902 282.80436 50.12768 C 283.561582 51.02068 283.723471 51.908458 283.290027 52.796236 C 282.574582 54.315902 281.524916 56.430903 280.135804 59.146458 C 278.767582 61.856792 277.044249 64.744681 274.960582 67.804903 C 272.876915 70.865126 270.338915 73.773904 267.341359 76.526015 C 264.369914 79.283349 260.949359 81.528904 257.090136 83.267904 C 253.225691 85.001682 248.797247 85.868571 243.804802 85.868571 C 237.95069 85.868571 233.302912 84.630904 229.877134 82.160793 C 226.467023 79.664571 224.137912 76.505126 222.879356 72.687681 C 221.641689 68.844126 221.2918 64.843903 221.834912 60.676569 C 222.357134 56.488347 223.594801 52.754458 225.547912 49.474902 L 226.101467 48.665458 C 228.488023 45.47468 230.85369 41.991457 233.193246 38.21579 C 235.558912 34.440123 237.992468 30.878567 240.488691 27.536345 C 242.984913 24.194122 245.554246 21.442011 248.201913 19.269567 C 250.870469 17.102344 253.627803 16.016122 256.468692 16.016122 C 260.656914 16.016122 263.74847 16.992678 265.748581 18.945789 C 267.74347 20.8989 268.699137 22.935567 268.610359 25.066234 C 268.610359 26.126345 268.145581 27.019345 267.210804 27.734789 C 266.276026 28.450234 265.15847 29.09779 263.858137 29.687901 C 262.578692 30.251901 261.450692 30.956901 260.474136 31.802901 C 259.497581 32.648901 259.006692 33.735123 259.006692 35.056345 C 259.006692 35.860568 259.628136 37.46379 260.865803 39.876457 C 262.124359 42.263013 263.456026 44.952457 264.866026 47.950013 C 266.302137 50.921458 267.289137 53.783236 267.832248 56.540569 C 269.868915 56.451791 271.618359 55.746791 273.070137 54.425569 C 274.548026 53.078236 275.947582 51.428013 277.268804 49.474902 Z M 239.021246 58.394458 C 241.950913 58.394458 244.217358 57.464903 245.825802 55.595347 C 247.429024 53.731013 248.233247 51.417569 248.233247 48.665458 C 248.233247 47.057013 247.98258 45.417235 247.486469 43.746124 C 246.985135 42.054124 246.248802 40.320346 245.272246 38.539568 C 244.384469 36.75879 243.319135 36.75879 242.081468 38.539568 C 240.389468 41.03579 238.587802 43.552902 236.676468 46.090902 C 234.770357 48.608013 233.067912 50.843124 231.569134 52.796236 C 231.569134 54.40468 232.253246 55.736347 233.616246 56.80168 C 235.005357 57.867014 236.807024 58.394458 239.021246 58.394458 Z M 345.293476 40.393457 C 341.648364 40.393457 338.577697 39.526568 336.081475 37.79279 C 333.585253 36.05379 331.715697 33.766456 330.483252 30.925567 C 329.245586 28.079456 328.624141 25.066234 328.624141 21.875456 C 328.624141 17.165011 329.752141 12.501566 332.008141 7.874677 C 334.290253 3.25301 337.705586 -0.945657 342.264587 -4.721324 C 346.844476 -8.496991 352.646365 -11.510213 359.680699 -13.771436 C 366.709811 -16.048325 374.976589 -17.186769 384.481034 -17.186769 C 389.280257 -17.186769 393.411035 -17.103214 396.883813 -16.925658 C 400.356591 -16.753325 403.557813 -16.580991 406.48748 -16.408658 C 409.417147 -16.231103 412.388591 -16.147547 415.407036 -16.147547 C 420.201036 -16.147547 423.914037 -16.382547 426.540815 -16.862991 C 429.167593 -17.359103 431.324371 -17.609769 433.016371 -17.609769 C 435.05826 -17.609769 436.436927 -17.144992 437.152371 -16.210214 C 437.867815 -15.275436 438.222927 -13.92288 438.222927 -12.142102 C 438.222927 -8.758102 437.403038 -5.546435 435.752815 -2.507102 C 434.102593 0.511343 431.648148 2.950121 428.394704 4.819677 C 425.162148 6.68401 421.146259 7.618788 416.352258 7.618788 C 413.140592 7.618788 410.351925 7.258455 407.986258 6.54301 C 405.64148 5.827566 403.328035 5.023343 401.051146 4.135566 C 398.795146 3.242565 396.246701 2.45401 393.40059 1.759454 C 390.559701 1.038788 387.05559 0.683676 382.888256 0.683676 C 377.6347 0.683676 373.1227 1.440899 369.347033 2.960565 C 365.571366 4.459343 362.683477 6.433343 360.688588 8.887788 C 358.693699 11.316122 357.691032 13.953344 357.691032 16.794233 C 357.691032 18.575011 358.181921 20.073789 359.158477 21.290567 C 360.135032 22.481233 361.330921 23.076567 362.740921 23.076567 C 363.367588 24.486567 363.409366 26.204678 362.871477 28.220456 C 362.349255 30.220567 361.30481 32.126679 359.743366 33.949234 C 358.181921 35.750901 356.176588 37.281012 353.722143 38.539568 C 351.293809 39.777235 348.479031 40.393457 345.293476 40.393457 Z M 341.288031 91.597349 C 335.146697 91.597349 330.164697 90.500683 326.347252 88.312571 C 322.529807 86.140127 319.751585 83.330571 318.012585 79.878682 C 316.278807 76.405904 315.411918 72.84957 315.411918 69.204459 C 315.411918 65.559348 316.148251 62.076125 317.620918 58.754792 C 319.077918 55.412569 321.140696 52.702236 323.809252 50.618569 C 326.477808 48.514013 329.590252 47.459124 333.151808 47.459124 C 334.47303 47.459124 335.136253 47.991791 335.136253 49.051902 C 335.136253 52.00768 336.285142 54.394236 338.588142 56.216791 C 340.906809 58.039347 343.98792 58.948014 347.831476 58.948014 C 350.588809 58.948014 353.581143 58.169903 356.813699 56.608458 C 360.072366 55.041791 363.205699 52.603013 366.224144 49.28168 C 369.237366 45.939457 371.811922 41.558013 373.937367 36.132123 C 375.107144 33.113679 376.292589 29.99079 377.483256 26.758234 C 378.679145 23.499567 379.848923 20.455011 380.997812 17.6089 C 381.890812 15.290233 383.071034 13.640011 384.548923 12.663455 C 386.02159 11.686899 387.739701 11.19601 389.692812 11.19601 C 392.622479 11.19601 394.554701 11.848788 395.484257 13.149122 C 396.419035 14.428566 396.528701 16.178011 395.813257 18.392233 C 393.599035 25.421345 391.416146 32.027456 389.269812 38.21579 C 387.139145 44.378013 384.830923 50.399235 382.334701 56.279458 C 377.279589 68.368903 371.258366 77.278015 364.271033 83.006793 C 357.304588 88.735571 349.643587 91.597349 341.288031 91.597349 Z M 447.67515 49.474902 C 448.390594 48.414791 449.325372 48.033569 450.474261 48.336458 C 451.62315 48.644569 452.578817 49.239902 453.336039 50.12768 C 454.098483 51.02068 454.20815 51.908458 453.665039 52.796236 C 452.772039 54.232347 451.711928 56.300347 450.474261 59.015903 C 449.236594 61.705347 447.748261 64.593236 446.014483 67.674348 C 444.275483 70.73457 442.24926 73.664237 439.925371 76.463348 C 437.627593 79.26246 435.032149 81.549793 432.149482 83.330571 C 429.261593 85.111349 425.992481 85.999127 422.34737 85.999127 C 418.702259 85.999127 415.803925 85.315016 413.657592 83.946793 C 411.532147 82.562904 410.002036 80.782126 409.067258 78.609682 C 408.137702 76.421571 407.667702 74.217793 407.667702 72.00357 C 407.667702 68.90157 408.137702 65.841348 409.067258 62.822903 C 410.002036 59.783569 411.088258 56.890458 412.325925 54.133125 C 413.58448 51.375791 414.675925 48.848235 415.610703 46.550457 C 416.545481 44.226568 417.010258 42.263013 417.010258 40.654568 C 417.010258 39.960012 416.498481 38.931235 415.480147 37.563012 C 414.461814 36.173901 412.618369 34.993679 409.949814 34.017123 C 409.145591 35.77179 408.189925 37.834568 407.082813 40.200235 C 405.975702 42.565902 404.858147 44.879346 403.730146 47.135346 C 402.623035 49.391346 401.724813 51.276569 401.030257 52.796236 C 400.487146 53.950347 399.604591 54.373347 398.393035 54.065236 C 397.197146 53.762347 396.199701 53.125236 395.395479 52.14868 C 394.617368 51.172124 394.486812 50.279124 395.003813 49.474902 C 396.262368 47.699346 397.641035 45.093457 399.139813 41.667679 C 400.65948 38.236679 401.996369 35.014568 403.145258 31.996123 C 401.818813 31.562679 400.758702 30.815901 399.95448 29.750567 C 399.150257 28.664345 398.748146 26.930567 398.748146 24.544011 C 398.748146 22.674456 399.239035 20.831011 400.215591 19.008455 C 401.192146 17.1859 402.570813 15.655789 404.346369 14.418122 C 406.127147 13.159566 408.210813 12.532899 410.597369 12.532899 C 414.785592 12.532899 418.811925 13.337122 422.67637 14.940344 C 426.535592 16.548789 429.715926 18.575011 432.212148 21.029456 C 434.708371 23.457789 435.956482 25.865234 435.956482 28.251789 C 435.956482 30.748012 435.491704 33.113679 434.556926 35.34879 C 433.622149 37.563012 432.666482 39.829457 431.689926 42.153346 C 430.713371 44.451124 430.227704 46.983902 430.227704 49.736013 C 430.227704 51.605569 430.843926 53.167013 432.081593 54.425569 C 433.31926 55.663236 435.455149 56.279458 438.494482 56.279458 C 440.536371 56.279458 442.238816 55.642347 443.607038 54.35768 C 444.996149 53.057347 446.348705 51.428013 447.67515 49.474902 Z M 458.735817 85.999127 C 454.202928 85.999127 450.771928 84.134793 448.453261 80.400904 C 446.150261 76.667015 445.001372 71.831237 445.001372 65.883125 C 445.001372 62.128347 445.466149 58.149014 446.400927 53.93468 C 447.335705 49.70468 448.714372 45.547791 450.536927 41.469235 C 452.359483 37.390679 454.646817 33.677679 457.40415 30.335456 C 460.161484 26.993234 463.362706 24.324678 467.007818 22.329789 C 470.652929 20.3349 474.783707 19.337455 479.410596 19.337455 C 482.079152 19.337455 484.136708 19.5829 485.593708 20.084233 C 487.066374 20.559456 488.18393 21.160011 488.946375 21.875456 C 489.703597 22.5909 490.34593 23.196678 490.868153 23.698011 C 491.411264 24.173234 492.126708 24.413456 493.014486 24.413456 C 494.513264 24.413456 495.72482 23.990456 496.659597 23.144456 C 497.594375 22.298456 498.633598 21.452456 499.787709 20.606456 C 500.957487 19.760456 502.560709 19.337455 504.602598 19.337455 C 506.383376 19.337455 507.610598 19.781344 508.279043 20.669122 C 508.952709 21.5569 509.292154 22.763234 509.292154 24.2829 C 509.292154 26.758234 508.597598 29.217901 507.208487 31.672345 C 505.840265 34.121568 504.398931 37.301901 502.879264 41.208124 C 500.665042 46.090902 499.839931 49.824791 500.403931 52.404569 C 500.98882 54.989569 502.748709 56.279458 505.678376 56.279458 C 507.976154 56.279458 509.976265 55.684125 511.668265 54.488236 C 513.360265 53.27668 514.879932 51.605569 516.222043 49.474902 C 516.916599 48.414791 517.820043 48.033569 518.927154 48.336458 C 520.055155 48.644569 520.98471 49.239902 521.726266 50.12768 C 522.483488 51.02068 522.645377 51.908458 522.211933 52.796236 C 520.60871 55.903458 518.890599 59.350125 517.068043 63.146681 C 515.245488 66.922348 513.219265 70.54657 510.984154 74.019348 C 508.769932 77.471237 506.242376 80.338238 503.396265 82.615127 C 500.555375 84.871127 497.270597 85.999127 493.536708 85.999127 C 488.915041 85.999127 485.64593 84.134793 483.739819 80.400904 C 481.828485 76.667015 481.27493 72.045348 482.079152 66.535903 L 481.55693 66.535903 C 478.888374 71.961792 475.587929 76.562571 471.660818 80.338238 C 467.754595 84.113904 463.446262 85.999127 458.735817 85.999127 Z M 472.083818 58.394458 C 474.386818 58.394458 476.402596 57.736458 478.136374 56.410014 C 479.875374 55.067902 481.233152 53.438569 482.209707 51.527236 C 483.186263 49.621124 483.67193 47.73068 483.67193 45.866346 C 483.67193 43.652124 483.045263 41.923568 481.786707 40.691124 C 480.549041 39.432568 478.867485 38.800679 476.736818 38.800679 C 474.43904 38.800679 472.444151 39.432568 470.752151 40.691124 C 469.054929 41.923568 467.744151 43.500679 466.809373 45.406791 C 465.879817 47.318124 465.409817 49.250346 465.409817 51.203458 C 465.409817 53.41768 466.010373 55.172347 467.20104 56.477903 C 468.417818 57.757347 470.041929 58.394458 472.083818 58.394458 Z M 575.671825 49.474902 C 576.214936 48.675902 577.060936 48.383458 578.209825 48.597569 C 579.363937 48.816902 580.361381 49.302569 581.207381 50.065013 C 582.053381 50.822235 582.204826 51.736124 581.661714 52.796236 C 580.424048 55.464791 578.810381 58.222125 576.81027 61.068236 C 574.815381 63.909125 572.319158 66.285237 569.326825 68.19657 C 566.350158 70.102681 562.694602 71.058348 558.354935 71.058348 C 556.031046 71.058348 553.936935 70.395126 552.072601 69.073903 C 548.772157 73.867904 545.194934 77.873348 541.330489 81.085015 C 537.466045 84.275793 533.497156 85.868571 529.4186 85.868571 C 525.857044 85.868571 522.937821 84.76146 520.660932 82.547238 C 518.404932 80.312126 516.765154 77.419015 515.746821 73.857459 C 514.728488 70.301126 514.237599 66.374014 514.279376 62.076125 C 514.326376 57.757347 514.879932 53.55868 515.940043 49.474902 C 516.744265 46.007346 517.783488 42.487568 519.068155 38.931235 C 520.368488 35.369679 521.809821 32.10579 523.397377 29.134345 C 525.000599 26.157678 526.671711 23.781567 528.410711 22.006011 C 530.144489 20.225233 531.946155 19.337455 533.810489 19.337455 C 535.136933 19.337455 536.155267 19.734344 536.870711 20.538567 C 537.586156 21.342789 537.946489 22.721456 537.946489 24.674567 C 537.946489 27.170789 537.434711 29.881123 536.416378 32.81079 C 535.398045 35.740457 534.395378 38.691012 533.418822 41.667679 C 532.442267 44.639124 531.9566 47.459124 531.9566 50.12768 C 531.9566 52.623902 532.572822 54.629236 533.810489 56.148903 C 535.048156 57.64768 537.043045 58.394458 539.800378 58.394458 C 542.646489 58.394458 544.824156 57.778236 546.343823 56.540569 C 547.86349 55.282014 548.928823 54.164458 549.534601 53.187902 C 549.101157 51.146013 548.740823 49.109346 548.458823 47.067457 C 548.197712 45.030791 548.067157 42.936679 548.067157 40.785124 C 548.067157 36.878901 548.537157 33.291234 549.466712 30.011678 C 550.40149 26.711234 551.868935 24.063567 553.863824 22.068678 C 555.858713 20.073789 558.375824 19.076344 561.415157 19.076344 C 565.149047 19.076344 567.504269 20.637789 568.480825 23.760678 C 569.45738 26.862678 569.227602 31.129234 567.796713 36.555123 C 566.386713 41.960124 563.859158 48.174569 560.208824 55.208902 C 561.535269 55.725902 563.128046 55.987014 564.997602 55.987014 C 566.950713 55.987014 568.815047 55.475236 570.595825 54.456902 C 572.376603 53.438569 574.068603 51.777902 575.671825 49.474902 Z M 597.673049 85.999127 C 592.330715 85.999127 587.94927 84.80846 584.51827 82.421904 C 581.113381 80.009238 578.585825 76.828904 576.935603 72.880904 C 575.285381 68.912015 574.481158 64.546236 574.528158 59.794014 C 574.569936 55.041791 575.395047 50.289569 576.99827 45.537346 C 578.606714 40.785124 580.914937 36.435012 583.933381 32.487012 C 586.951826 28.512901 590.617826 25.337789 594.936604 22.946011 C 599.255382 20.538567 604.127716 19.337455 609.553605 19.337455 C 613.720939 19.337455 617.115384 20.115567 619.742162 21.677011 C 622.363717 23.217567 624.29594 25.280345 625.533606 27.865345 C 626.771273 30.445123 627.387495 33.202456 627.387495 36.132123 C 627.387495 39.34379 626.499718 42.545013 624.71894 45.735791 C 622.964273 48.926569 620.478495 51.569013 617.266828 53.678791 C 614.07605 55.762458 610.300383 56.80168 605.939827 56.80168 C 604.070272 56.80168 602.247716 56.671125 600.47216 56.410014 C 598.691382 56.128014 597.051604 55.543125 595.552827 54.655347 C 595.098493 54.394236 594.602382 54.383791 594.059271 54.618791 C 593.537049 54.838125 593.275937 55.39168 593.275937 56.279458 C 593.275937 58.582458 594.633715 60.337125 597.344049 61.553903 C 600.059605 62.749792 603.323494 63.345125 607.140938 63.345125 C 611.67905 63.345125 616.363384 62.196236 621.204384 59.893236 C 626.045384 57.569347 629.972496 54.101791 632.99094 49.474902 C 633.706385 48.414791 634.63594 48.033569 635.790052 48.336458 C 636.959829 48.644569 637.915496 49.239902 638.65183 50.12768 C 639.414274 51.02068 639.529163 51.908458 639.012163 52.796236 C 633.13194 63.648014 626.69294 71.893904 619.705606 77.539126 C 612.744383 83.179127 605.396716 85.999127 597.673049 85.999127 Z M 602.487938 46.806346 C 605.046827 46.806346 607.057383 45.981235 608.509161 44.336235 C 609.98705 42.686013 610.723383 41.014901 610.723383 39.322901 C 610.723383 37.824123 610.211605 36.544679 609.193272 35.479346 C 608.174939 34.393123 606.644827 33.855234 604.602938 33.855234 C 602.02316 33.855234 599.970827 34.654234 598.45116 36.262679 C 596.952382 37.865901 596.205604 39.557901 596.205604 41.338679 C 596.205604 42.748679 596.717382 44.017679 597.735716 45.14568 C 598.754049 46.252791 600.341605 46.806346 602.487938 46.806346 Z M 641.262941 85.999127 C 636.557718 85.999127 633.267718 84.688349 631.403385 82.061571 C 629.533829 79.434793 628.604273 76.170904 628.604273 72.264681 C 628.604273 68.875459 629.027273 65.18857 629.873273 61.19357 C 630.719273 57.203791 631.805496 53.297569 633.126718 49.474902 C 637.664829 36.502901 641.503163 25.619789 644.652163 16.830789 C 647.81683 8.015677 650.866608 1.367788 653.796275 -3.123324 C 656.725942 -7.619658 659.968942 -9.865213 663.530498 -9.865213 C 666.287831 -9.865213 668.021609 -8.820769 668.737054 -6.737102 C 669.452498 -4.653435 668.784054 -1.520102 666.721276 2.668121 C 663.097053 10.047122 659.968942 16.872566 657.347386 23.144456 C 654.720608 29.416345 652.647386 35.34879 651.127719 40.947013 C 650.412275 43.511124 649.900497 45.970791 649.597608 48.336458 C 649.294719 50.681235 649.587164 52.592569 650.474941 54.065236 C 651.367942 55.543125 653.148719 56.279458 655.817275 56.279458 C 658.115053 56.279458 660.136053 55.684125 661.869831 54.488236 C 663.603609 53.27668 665.18072 51.605569 666.59072 49.474902 C 667.306165 48.414791 668.240943 48.033569 669.389832 48.336458 C 670.55961 48.644569 671.515276 49.239902 672.25161 50.12768 C 673.014054 51.02068 673.134165 51.908458 672.611943 52.796236 C 671.724165 54.232347 670.648387 56.300347 669.389832 59.015903 C 668.152165 61.705347 666.663831 64.593236 664.930054 67.674348 C 663.196276 70.73457 661.164831 73.664237 658.840942 76.463348 C 656.543164 79.26246 653.947719 81.549793 651.065053 83.330571 C 648.177164 85.111349 644.913274 85.999127 641.262941 85.999127 Z M 641.262941 85.999127 " stroke="#bc6c25" stroke-width="18.166622" stroke-opacity="1" stroke-miterlimit="4"/></g><g clip-path="url(#4c7b18e4fd)"><path stroke-linecap="butt" transform="matrix(0.748005, 0, 0, 0.748005, 7.882724, 21.472981)" fill="none" stroke-linejoin="miter" d="M 68.750679 204.997913 C 64.217789 204.997913 60.786789 203.133579 58.468122 199.39969 C 56.165122 195.671023 55.016233 190.830023 55.016233 184.881912 C 55.016233 181.127133 55.481011 177.1478 56.415789 172.938688 C 57.350567 168.703466 58.724011 164.551799 60.551789 160.468021 C 62.374345 156.389465 64.661678 152.681687 67.419012 149.339465 C 70.171123 145.997242 73.372346 143.328686 77.022679 141.328575 C 80.667791 139.333686 84.798569 138.336242 89.420236 138.336242 C 92.094014 138.336242 94.151569 138.586908 95.608569 139.083019 C 97.081236 139.563464 98.198792 140.158797 98.961236 140.874242 C 99.718459 141.589686 100.360792 142.195464 100.877792 142.696797 C 101.420903 143.17202 102.14157 143.412242 103.029348 143.412242 C 104.528126 143.412242 105.739681 142.989242 106.674459 142.143242 C 107.609237 141.297242 108.648459 140.451242 109.797348 139.605242 C 110.972348 138.759242 112.575571 138.336242 114.61746 138.336242 C 116.398237 138.336242 117.620238 138.780131 118.293904 139.667908 C 118.967571 140.560908 119.301793 141.76202 119.301793 143.281686 C 119.301793 145.75702 118.61246 148.221909 117.223349 150.671131 C 115.855126 153.125576 114.408571 156.30591 112.894126 160.20691 C 110.679904 165.089688 109.854793 168.823577 110.418793 171.408577 C 111.003682 173.988355 112.763571 175.278244 115.693237 175.278244 C 117.991015 175.278244 119.985904 174.682911 121.683127 173.492244 C 123.375127 172.275466 124.894794 170.604355 126.236905 168.47891 C 126.93146 167.413577 127.834905 167.032355 128.942016 167.340466 C 130.070016 167.643355 130.999572 168.238688 131.741127 169.126466 C 132.49835 170.019466 132.660239 170.907244 132.226794 171.800244 C 130.623572 174.902244 128.905461 178.348911 127.082905 182.150689 C 125.260349 185.926356 123.234127 189.550578 120.999016 193.023357 C 118.784793 196.470023 116.257237 199.337024 113.411126 201.613913 C 110.570237 203.869913 107.280237 204.997913 103.55157 204.997913 C 98.924681 204.997913 95.660792 203.133579 93.749458 199.39969 C 91.843347 195.671023 91.289791 191.044134 92.094014 185.534689 L 91.571791 185.534689 C 88.903236 190.960579 85.602791 195.561357 81.675679 199.337024 C 77.769457 203.112691 73.461123 204.997913 68.750679 204.997913 Z M 82.09868 177.398467 C 84.396457 177.398467 86.417458 176.735244 88.151235 175.4088 C 89.890236 174.066689 91.242791 172.437355 92.219347 170.526022 C 93.195903 168.61991 93.686791 166.729466 93.686791 164.865132 C 93.686791 162.65091 93.054902 160.927576 91.796347 159.68991 C 90.563902 158.431354 88.882347 157.799465 86.75168 157.799465 C 84.453902 157.799465 82.453791 158.431354 80.761791 159.68991 C 79.06979 160.927576 77.759013 162.499465 76.824235 164.410799 C 75.889457 166.31691 75.424679 168.249133 75.424679 170.202244 C 75.424679 172.416466 76.020012 174.176355 77.215901 175.476689 C 78.432679 176.756133 80.05679 177.398467 82.09868 177.398467 Z M 131.553127 204.997913 C 128.451127 204.997913 126.054127 204.068357 124.362127 202.198802 C 122.664905 200.334468 121.818905 198.021024 121.818905 195.268912 C 121.818905 192.16169 122.179238 188.281578 122.894682 183.612911 C 123.610127 178.949467 124.717238 173.9048 126.216016 168.47891 C 127.735683 163.225354 129.406794 158.311243 131.22935 153.731354 C 133.051905 149.151465 134.916239 145.443687 136.827572 142.597575 C 138.738906 139.756686 140.540572 138.336242 142.232573 138.336242 C 144.008128 138.336242 145.183128 138.842797 145.747128 139.866353 C 146.332017 140.884686 146.624462 142.070131 146.624462 143.412242 C 146.624462 145.971131 147.245906 147.569131 148.478351 148.195798 C 149.736906 148.827687 151.434129 148.065242 153.559573 145.918909 C 156.055796 143.532353 158.625129 141.678464 161.272796 140.35202 C 163.941352 139.009908 166.750908 138.336242 169.701463 138.336242 C 173.785241 138.336242 176.798464 139.537353 178.751575 141.95002 C 180.704686 144.336575 181.681242 147.219242 181.681242 150.608465 C 181.681242 152.906243 181.326131 155.010798 180.610686 156.922132 C 179.916131 158.833465 179.211131 160.697799 178.490464 162.520354 C 177.77502 164.34291 177.419908 166.374355 177.419908 168.609466 C 177.419908 173.0588 179.555797 175.278244 183.832798 175.278244 C 185.869465 175.278244 187.577131 174.641133 188.940131 173.361688 C 190.329243 172.056133 191.687021 170.432022 193.008243 168.47891 C 193.72891 167.413577 194.658465 167.032355 195.812576 167.340466 C 196.982354 167.643355 197.938021 168.238688 198.674354 169.126466 C 199.431577 170.019466 199.551688 170.907244 199.034688 171.800244 C 198.141688 173.231133 197.071132 175.304355 195.812576 178.014689 C 194.57491 180.704133 193.086576 183.592023 191.352798 186.673134 C 189.613798 189.733356 187.587576 192.663023 185.263687 195.462134 C 182.960687 198.261246 180.370464 200.553801 177.482575 202.329357 C 174.599908 204.110135 171.330797 204.997913 167.685685 204.997913 C 163.518352 204.997913 160.588685 203.624468 158.896685 200.867135 C 157.204685 198.109801 156.358685 194.866801 156.358685 191.132912 C 156.358685 187.748912 156.823463 184.5268 157.75824 181.466578 C 158.693018 178.406355 159.622574 175.607244 160.557352 173.069244 C 161.49213 170.526022 161.956907 168.369244 161.956907 166.588466 C 161.956907 165.089688 161.49213 163.940799 160.557352 163.136577 C 159.622574 162.337577 158.395352 161.935465 156.880907 161.935465 C 154.316796 161.935465 151.940684 163.032132 149.752573 165.220243 C 147.580129 167.392688 145.82024 170.212688 144.478128 173.685466 C 143.151684 177.137355 142.493684 180.871245 142.493684 184.881912 L 142.493684 190.871801 C 142.493684 193.086023 142.222128 195.289801 141.679017 197.483135 C 141.156795 199.650357 140.11235 201.452024 138.550906 202.882913 C 136.989461 204.292913 134.655128 204.997913 131.553127 204.997913 Z M 205.546799 204.997913 C 200.314132 204.997913 196.475799 203.175357 194.021354 199.530246 C 191.572132 195.885134 190.344909 191.394023 190.344909 186.056912 C 190.344909 181.085356 191.049909 175.847466 192.459909 170.332799 C 193.890798 164.823355 196.052799 159.64291 198.935465 154.807132 C 201.844243 149.966131 205.447577 146.018131 209.745466 142.957909 C 214.064244 139.876797 219.067134 138.336242 224.748912 138.336242 C 227.417467 138.336242 229.480245 138.649575 230.937245 139.281464 C 232.409912 139.887242 233.527468 140.613131 234.289912 141.459131 C 235.047135 142.305131 235.689468 143.067575 236.206468 143.73602 C 236.749579 144.409686 237.465024 144.749131 238.358024 144.749131 C 239.073468 144.749131 239.647913 143.944909 240.081357 142.336464 C 240.535691 140.733242 241.198913 138.35713 242.065802 135.20813 C 242.958802 132.043463 244.347913 128.189463 246.233135 123.656574 C 247.904247 119.572796 249.564913 116.491685 251.215136 114.408018 C 252.865358 112.324351 254.437247 110.924795 255.936025 110.209351 C 257.455692 109.493906 258.886581 109.138795 260.233914 109.138795 C 262.531692 109.138795 264.061803 110.27724 264.819026 112.554129 C 265.58147 114.810129 265.069692 117.849462 263.288914 121.666907 L 248.21758 160.20691 C 246.00858 165.089688 245.183469 168.823577 245.747469 171.408577 C 246.332358 173.988355 248.092247 175.278244 251.016691 175.278244 C 253.319691 175.278244 255.314581 174.682911 257.006581 173.492244 C 258.703803 172.275466 260.218248 170.604355 261.565581 168.47891 C 262.260137 167.413577 263.158359 167.032355 264.26547 167.340466 C 265.398692 167.643355 266.328248 168.238688 267.064581 169.126466 C 267.827026 170.019466 267.988915 170.907244 267.55547 171.800244 C 265.947026 174.902244 264.234137 178.348911 262.411581 182.150689 C 260.589025 185.926356 258.562803 189.550578 256.327692 193.023357 C 254.113469 196.470023 251.585914 199.337024 248.739802 201.613913 C 245.898913 203.869913 242.608913 204.997913 238.880246 204.997913 C 234.624135 204.997913 231.46469 203.133579 229.407134 199.39969 C 227.365245 195.671023 226.702023 191.044134 227.417467 185.534689 L 226.900467 185.534689 C 224.143134 190.960579 220.921023 195.561357 217.228911 199.337024 C 213.542022 203.112691 209.646244 204.997913 205.546799 204.997913 Z M 217.688467 177.398467 C 219.902689 177.398467 221.8558 176.735244 223.547801 175.4088 C 225.239801 174.066689 226.571467 172.437355 227.548023 170.526022 C 228.524579 168.61991 229.015468 166.729466 229.015468 164.865132 C 229.015468 162.912021 228.441023 161.251354 227.286912 159.883132 C 226.138023 158.494021 224.273689 157.799465 221.688689 157.799465 C 219.563245 157.799465 217.678022 158.431354 216.0278 159.68991 C 214.377578 160.927576 213.087689 162.499465 212.152911 164.410799 C 211.218133 166.31691 210.753355 168.249133 210.753355 170.202244 C 210.753355 172.155355 211.286022 173.847355 212.346133 175.278244 C 213.411466 176.693466 215.192244 177.398467 217.688467 177.398467 Z M 329.689475 159.397465 C 326.044363 159.397465 322.973696 158.525354 320.477474 156.791576 C 317.981252 155.057798 316.116918 152.765243 314.879251 149.924354 C 313.641585 147.078242 313.025362 144.06502 313.025362 140.874242 C 313.025362 136.163797 314.153362 131.500352 316.409363 126.878685 C 318.686252 122.257018 322.106807 118.053129 326.665808 114.277462 C 331.240475 110.501795 337.047586 107.488573 344.076698 105.232573 C 351.111032 102.950461 359.37781 101.812017 368.882255 101.812017 C 373.676255 101.812017 377.812256 101.900795 381.285034 102.073128 C 384.757812 102.245461 387.959034 102.417795 390.888701 102.59535 C 393.818368 102.767684 396.789813 102.856461 399.808257 102.856461 C 404.602258 102.856461 408.315258 102.616239 410.936814 102.135795 C 413.563592 101.639683 415.725592 101.389017 417.417592 101.389017 C 419.454259 101.389017 420.832925 101.853795 421.54837 102.788572 C 422.269037 103.72335 422.624148 105.075906 422.624148 106.856684 C 422.624148 110.240684 421.799037 113.457573 420.148814 116.491685 C 418.503814 119.510129 416.04937 121.948907 412.795925 123.818463 C 409.563369 125.682796 405.54748 126.617574 400.748257 126.617574 C 397.53659 126.617574 394.747924 126.257241 392.382257 125.541796 C 390.042701 124.826352 387.729256 124.022129 385.452367 123.134352 C 383.196367 122.241352 380.6427 121.452796 377.801811 120.75824 C 374.960922 120.042796 371.456811 119.682463 367.289477 119.682463 C 362.035921 119.682463 357.523921 120.444907 353.748254 121.959352 C 349.972587 123.458129 347.084698 125.43213 345.089809 127.886574 C 343.089698 130.314908 342.092253 132.95213 342.092253 135.798241 C 342.092253 137.573797 342.583142 139.072575 343.559698 140.289353 C 344.536253 141.48002 345.72692 142.080575 347.13692 142.080575 C 347.768809 143.490575 347.810587 145.203464 347.267476 147.219242 C 346.750476 149.219353 345.706031 151.125465 344.144587 152.94802 C 342.583142 154.749687 340.572586 156.279798 338.123364 157.538354 C 335.689808 158.776021 332.880253 159.397465 329.689475 159.397465 Z M 325.689252 210.601358 C 319.547918 210.601358 314.565918 209.504691 310.748473 207.311358 C 306.925806 205.138913 304.147584 202.329357 302.413806 198.88269 C 300.674806 195.409912 299.807917 191.848356 299.807917 188.203245 C 299.807917 184.558134 300.54425 181.074911 302.022139 177.753578 C 303.473917 174.411355 305.536695 171.701022 308.205251 169.617355 C 310.879029 167.512799 313.991474 166.45791 317.547807 166.45791 C 318.874252 166.45791 319.537474 166.990577 319.537474 168.05591 C 319.537474 171.006466 320.686363 173.393022 322.984141 175.215577 C 325.30803 177.038133 328.389141 177.952022 332.227475 177.952022 C 334.984808 177.952022 337.982364 177.168689 341.21492 175.607244 C 344.468365 174.0458 347.60692 171.601799 350.620143 168.280466 C 353.638587 164.938243 356.207921 160.556799 358.338588 155.130909 C 359.508366 152.112465 360.688588 148.989576 361.884477 145.75702 C 363.080366 142.503575 364.250144 139.453797 365.399033 136.607686 C 366.292033 134.289019 367.472255 132.638797 368.950144 131.662241 C 370.422811 130.685685 372.1357 130.194797 374.088811 130.194797 C 377.018478 130.194797 378.9507 130.847574 379.885478 132.147908 C 380.820256 133.432575 380.9247 135.176797 380.209256 137.391019 C 377.995034 144.420131 375.817367 151.031465 373.665811 157.214576 C 371.540366 163.376799 369.232144 169.398022 366.735922 175.278244 C 361.675588 187.367689 355.654365 196.276801 348.667031 202.005579 C 341.700587 207.734358 334.039586 210.601358 325.689252 210.601358 Z M 442.881149 168.47891 C 443.403371 167.674688 444.238927 167.382244 445.387816 167.596355 C 446.557594 167.815688 447.570705 168.301355 448.416705 169.063799 C 449.262705 169.821022 449.41415 170.734911 448.871038 171.800244 C 447.633372 174.4688 446.014483 177.220911 444.019594 180.067022 C 442.024705 182.907911 439.528482 185.284023 436.530927 187.195356 C 433.559482 189.10669 429.893482 190.057134 425.532926 190.057134 L 423.934926 190.057134 C 420.660592 194.595246 416.733481 198.219468 412.153591 200.929802 C 407.573702 203.645357 402.790146 204.997913 397.797702 204.997913 C 391.84959 204.997913 386.925034 203.003024 383.018812 199.008024 C 379.112589 194.997357 377.159478 189.52969 377.159478 182.605022 C 377.159478 177.612578 378.073367 172.526133 379.895923 167.340466 C 381.718478 162.128688 384.266923 157.334687 387.541256 152.94802 C 390.841701 148.545687 394.706146 145.010242 399.129368 142.336464 C 403.578702 139.667908 408.471925 138.336242 413.814258 138.336242 C 417.45937 138.336242 420.744148 139.072575 423.673815 140.550464 C 426.603481 142.002242 428.937815 144.420131 430.671593 147.809353 C 432.410593 151.172465 433.277482 155.663576 433.277482 161.282688 C 433.277482 165.993132 432.61426 170.562577 431.293037 174.9858 L 432.201704 174.9858 C 434.154815 174.9858 436.024371 174.479244 437.805149 173.455688 C 439.580705 172.437355 441.272705 170.776688 442.881149 168.47891 Z M 405.411702 177.398467 C 407.625924 177.398467 409.579036 176.735244 411.271036 175.4088 C 412.968258 174.066689 414.299925 172.437355 415.276481 170.526022 C 416.253036 168.61991 416.743925 166.729466 416.743925 164.865132 C 416.743925 162.912021 416.169481 161.251354 415.015369 159.883132 C 413.86648 158.494021 412.002147 157.799465 409.417147 157.799465 C 407.291702 157.799465 405.401258 158.431354 403.756258 159.68991 C 402.106035 160.927576 400.816146 162.499465 399.881368 164.410799 C 398.946591 166.31691 398.481813 168.249133 398.481813 170.202244 C 398.481813 172.155355 399.014479 173.847355 400.074591 175.278244 C 401.139924 176.693466 402.920702 177.398467 405.411702 177.398467 Z M 509.537598 168.47891 C 510.253043 167.413577 511.182598 167.032355 512.33671 167.340466 C 513.485599 167.643355 514.441265 168.238688 515.198488 169.126466 C 515.960932 170.019466 516.075821 170.907244 515.558821 171.800244 C 514.665821 173.231133 513.595265 175.304355 512.33671 178.014689 C 511.099043 180.704133 509.610709 183.592023 507.876932 186.673134 C 506.137931 189.733356 504.111709 192.663023 501.78782 195.462134 C 499.490042 198.261246 496.894597 200.553801 494.006708 202.329357 C 491.124041 204.110135 487.85493 204.997913 484.209819 204.997913 C 476.569707 204.997913 472.752262 200.162135 472.752262 190.480134 C 472.752262 188.788134 472.882818 186.965578 473.143929 185.012467 C 471.707818 188.114467 469.97404 191.211245 467.932151 194.292357 C 465.895484 197.352579 463.540262 199.880135 460.871706 201.875024 C 458.20315 203.869913 455.142928 204.867357 451.691039 204.867357 C 448.134705 204.867357 445.278149 203.577468 443.131816 200.99769 C 441.001149 198.41269 439.941038 194.412468 439.941038 188.986578 C 439.941038 186.944689 440.092482 184.1038 440.395371 180.458689 C 440.719149 176.808355 441.54426 172.818577 442.870705 168.47891 C 445.993594 158.692465 449.13215 151.224687 452.275928 146.080798 C 455.424928 140.91602 458.86115 138.336242 462.595039 138.336242 C 465.352373 138.336242 466.73104 140.117019 466.73104 143.673353 C 466.73104 146.514242 466.219262 149.402131 465.200929 152.331798 C 464.182595 155.261465 463.179928 158.128465 462.203373 160.927576 C 461.226817 163.726688 460.74115 166.45791 460.74115 169.126466 C 460.74115 170.996022 461.122373 172.458244 461.879595 173.523577 C 462.642039 174.583689 464.125151 175.116355 466.339373 175.116355 C 468.746818 175.116355 470.929707 174.390466 472.882818 172.938688 C 474.835929 171.460799 476.386929 169.084688 477.535818 165.810355 L 477.666374 165.256799 C 480.423707 156.551354 483.222819 149.89302 486.063708 145.266131 C 488.909819 140.644464 492.022264 138.336242 495.406264 138.336242 C 496.732709 138.336242 497.751042 138.738353 498.466486 139.537353 C 499.181931 140.341575 499.542264 141.720242 499.542264 143.673353 C 499.542264 146.169575 499.030486 148.85902 498.012153 151.746909 C 496.99382 154.634798 495.991153 157.496576 495.014597 160.337465 C 494.038042 163.183577 493.552375 165.711132 493.552375 167.925355 C 493.552375 170.421577 494.236486 172.275466 495.604708 173.492244 C 496.99382 174.682911 498.576153 175.278244 500.356931 175.278244 C 502.393598 175.278244 504.101265 174.641133 505.464265 173.361688 C 506.853376 172.056133 508.211154 170.432022 509.537598 168.47891 Z M 562.203713 168.47891 C 562.919158 167.413577 563.848713 167.032355 565.002824 167.340466 C 566.151713 167.643355 567.10738 168.238688 567.864602 169.126466 C 568.627047 170.019466 568.731491 170.907244 568.193602 171.800244 C 567.300602 173.231133 566.240491 175.304355 565.002824 178.014689 C 563.765158 180.704133 562.276824 183.592023 560.543046 186.673134 C 558.804046 189.733356 556.777824 192.663023 554.453935 195.462134 C 552.156157 198.261246 549.560712 200.553801 546.672823 202.329357 C 543.790156 204.110135 540.521045 204.997913 536.875934 204.997913 C 533.230822 204.997913 530.332489 204.319024 528.186155 202.950802 C 526.060711 201.56169 524.530599 199.780913 523.595821 197.608468 C 522.661044 195.420357 522.196266 193.216579 522.196266 191.002356 C 522.196266 187.900356 522.661044 184.840134 523.595821 181.821689 C 524.530599 178.787578 525.616822 175.889244 526.849266 173.131911 C 528.107822 170.374577 529.204489 167.847021 530.139266 165.549243 C 531.074044 163.225354 531.538822 161.261799 531.538822 159.658576 C 531.538822 158.964021 531.027044 157.930021 530.008711 156.561798 C 528.990377 155.172687 527.146933 153.992465 524.473155 153.015909 C 523.674155 154.775798 522.718488 156.833354 521.611377 159.199021 C 520.504266 161.564688 519.38671 163.878132 518.25871 166.134132 C 517.151599 168.390133 516.248154 170.280577 515.553599 171.800244 C 515.01571 172.949133 514.133154 173.372133 512.921599 173.069244 C 511.72571 172.761133 510.728265 172.124022 509.924043 171.147466 C 509.145932 170.17091 509.015376 169.27791 509.532376 168.47891 C 510.790932 166.698132 512.169598 164.092243 513.668376 160.666465 C 515.188043 157.235465 516.51971 154.013354 517.673821 150.994909 C 516.347377 150.561465 515.287265 149.814687 514.483043 148.749353 C 513.678821 147.668353 513.27671 145.929353 513.27671 143.542798 C 513.27671 141.678464 513.767599 139.829797 514.744154 138.007242 C 515.72071 136.184686 517.099377 134.654575 518.874932 133.42213 C 520.65571 132.163574 522.739377 131.531686 525.125933 131.531686 C 529.314155 131.531686 533.340489 132.335908 537.204934 133.93913 C 541.064156 135.547575 544.24449 137.573797 546.740712 140.028242 C 549.236934 142.456575 550.485046 144.869242 550.485046 147.255798 C 550.485046 149.75202 550.015046 152.112465 549.08549 154.352798 C 548.150712 156.561798 547.195045 158.833465 546.21849 161.152132 C 545.241934 163.455132 544.756267 165.982688 544.756267 168.740021 C 544.756267 170.604355 545.37249 172.1658 546.610156 173.424355 C 547.847823 174.662022 549.983712 175.278244 553.023046 175.278244 C 555.064935 175.278244 556.767379 174.641133 558.135602 173.361688 C 559.519491 172.056133 560.877269 170.432022 562.203713 168.47891 Z M 613.924606 168.47891 C 614.64005 167.413577 615.548717 167.032355 616.655828 167.340466 C 617.783828 167.643355 618.718606 168.238688 619.454939 169.126466 C 620.217384 170.019466 620.379273 170.907244 619.945828 171.800244 C 619.230384 173.314688 618.175495 175.434911 616.786384 178.145244 C 615.418161 180.855578 613.694828 183.743467 611.611161 186.803689 C 609.527494 189.863912 606.989494 192.77269 603.99716 195.530023 C 601.020494 198.282135 597.60516 200.52769 593.740715 202.26669 C 589.876271 204.000468 585.453048 204.867357 580.460603 204.867357 C 574.60127 204.867357 569.958714 203.634913 566.527713 201.159579 C 563.122824 198.663357 560.788491 195.503912 559.529935 191.686468 C 558.292268 187.842912 557.947602 183.842689 558.485491 179.675356 C 559.007713 175.487133 560.24538 171.753244 562.198491 168.47891 L 562.752046 167.664244 C 565.138602 164.473466 567.504269 160.990243 569.849047 157.214576 C 572.214714 153.438909 574.643047 149.877354 577.13927 146.540353 C 579.635492 143.198131 582.204826 140.440797 584.852492 138.268353 C 587.521048 136.10113 590.278382 135.014908 593.124493 135.014908 C 597.312716 135.014908 600.404271 135.991464 602.39916 137.944575 C 604.394049 139.897686 605.349716 141.939575 605.266161 144.06502 C 605.266161 145.125131 604.796161 146.018131 603.866605 146.733576 C 602.931827 147.44902 601.814271 148.101798 600.513938 148.686687 C 599.229271 149.250687 598.101271 149.955687 597.124716 150.801687 C 596.14816 151.647687 595.662493 152.733909 595.662493 154.055132 C 595.662493 154.859354 596.278715 156.467798 597.516382 158.875243 C 598.774938 161.261799 600.111827 163.951243 601.521827 166.948799 C 602.952716 169.920244 603.939716 172.787244 604.482827 175.539355 C 606.524716 175.4558 608.268939 174.7508 609.725939 173.424355 C 611.198605 172.082244 612.598161 170.432022 613.924606 168.47891 Z M 575.677047 177.398467 C 578.606714 177.398467 580.873159 176.463689 582.476381 174.599355 C 584.084826 172.7298 584.889048 170.421577 584.889048 167.664244 C 584.889048 166.055799 584.638381 164.421243 584.137048 162.750132 C 583.640937 161.058132 582.899381 159.319132 581.922826 157.538354 C 581.035048 155.762798 579.969714 155.762798 578.73727 157.538354 C 577.040047 160.034576 575.238381 162.551688 573.332269 165.089688 C 571.420936 167.612021 569.718491 169.847133 568.219714 171.800244 C 568.219714 173.403466 568.903825 174.740355 570.272047 175.800466 C 571.661158 176.8658 573.462825 177.398467 575.677047 177.398467 Z M 575.677047 177.398467 " stroke="#bc6c25" stroke-width="18.166622" stroke-opacity="1" stroke-miterlimit="4"/></g><g fill="#fefae0" fill-opacity="1"><g transform="translate(9.250171, 85.801434)"><g><path d="M 53.453125 -34.703125 C 54.453125 -35.503906 55.414062 -35.804688 56.34375 -35.609375 C 57.28125 -35.410156 57.75 -34.34375 57.75 -32.40625 C 57.75 -31.414062 57.566406 -30.070312 57.203125 -28.375 C 56.835938 -26.675781 56.1875 -24.960938 55.25 -23.234375 C 54.320312 -21.503906 52.992188 -20.039062 51.265625 -18.84375 C 49.535156 -17.644531 47.304688 -17.046875 44.578125 -17.046875 C 44.316406 -17.046875 44.035156 -17.046875 43.734375 -17.046875 C 43.429688 -17.046875 43.113281 -17.082031 42.78125 -17.15625 C 41.65625 -12.5625 40.5625 -9.019531 39.5 -6.53125 C 38.4375 -4.039062 37.222656 -2.328125 35.859375 -1.390625 C 34.492188 -0.460938 32.75 0 30.625 0 C 28.289062 0 26.625 -0.578125 25.625 -1.734375 C 24.632812 -2.898438 24.40625 -4.960938 24.9375 -7.921875 C 25.46875 -10.878906 26.828125 -15.019531 29.015625 -20.34375 C 27.492188 -20.738281 26 -21.085938 24.53125 -21.390625 C 23.070312 -21.691406 21.609375 -21.84375 20.140625 -21.84375 C 18.210938 -21.84375 16.734375 -21.539062 15.703125 -20.9375 C 14.671875 -20.34375 13.804688 -19.726562 13.109375 -19.09375 C 12.410156 -18.46875 11.53125 -18.15625 10.46875 -18.15625 C 9.007812 -18.15625 7.710938 -18.75 6.578125 -19.9375 C 5.453125 -21.132812 4.867188 -22.628906 4.828125 -24.421875 C 4.796875 -26.222656 5.613281 -28.023438 7.28125 -29.828125 C 10.34375 -33.015625 13.117188 -36.035156 15.609375 -38.890625 C 18.097656 -41.753906 20.09375 -44.460938 21.59375 -47.015625 C 23.09375 -49.578125 23.84375 -51.988281 23.84375 -54.25 C 23.84375 -56.25 23.140625 -57.25 21.734375 -57.25 C 20.609375 -57.25 19.78125 -56.78125 19.25 -55.84375 C 17.851562 -56.175781 16.769531 -57.023438 16 -58.390625 C 15.238281 -59.753906 14.859375 -61.300781 14.859375 -63.03125 C 14.859375 -64.957031 15.320312 -66.898438 16.25 -68.859375 C 17.1875 -70.828125 18.664062 -72.472656 20.6875 -73.796875 C 22.71875 -75.128906 25.296875 -75.796875 28.421875 -75.796875 C 32.546875 -75.796875 35.671875 -74.5 37.796875 -71.90625 C 39.921875 -69.3125 40.984375 -66.222656 40.984375 -62.640625 C 40.984375 -59.441406 40.101562 -56.226562 38.34375 -53 C 36.582031 -49.78125 34.171875 -46.609375 31.109375 -43.484375 C 28.054688 -40.359375 24.566406 -37.265625 20.640625 -34.203125 C 20.109375 -33.804688 19.875 -33.40625 19.9375 -33 C 20.007812 -32.601562 20.410156 -32.40625 21.140625 -32.40625 C 23.066406 -32.40625 25.175781 -32.40625 27.46875 -32.40625 C 29.769531 -32.40625 32.082031 -32.441406 34.40625 -32.515625 C 38.394531 -41.222656 41.6875 -48.203125 44.28125 -53.453125 C 46.875 -58.710938 49.082031 -62.519531 50.90625 -64.875 C 52.738281 -67.238281 54.488281 -68.421875 56.15625 -68.421875 C 57.8125 -68.421875 58.390625 -67.4375 57.890625 -65.46875 C 57.390625 -63.507812 56.304688 -60.601562 54.640625 -56.75 C 52.984375 -52.894531 51.125 -48.070312 49.0625 -42.28125 C 48.53125 -40.6875 48.046875 -39.125 47.609375 -37.59375 C 47.179688 -36.070312 46.800781 -34.546875 46.46875 -33.015625 C 48.195312 -33.210938 49.675781 -33.441406 50.90625 -33.703125 C 52.144531 -33.972656 52.992188 -34.304688 53.453125 -34.703125 Z M 53.453125 -34.703125 "/></g></g></g><g fill="#fefae0" fill-opacity="1"><g transform="translate(63.303938, 85.801434)"><g><path d="M 12.265625 4.1875 C 8.410156 4.1875 5.203125 3.367188 2.640625 1.734375 C 0.078125 0.109375 -1.832031 -2 -3.09375 -4.59375 C -4.351562 -7.1875 -4.984375 -9.84375 -4.984375 -12.5625 C -4.984375 -15.289062 -4.4375 -17.898438 -3.34375 -20.390625 C -2.25 -22.890625 -0.707031 -24.921875 1.28125 -26.484375 C 3.28125 -28.046875 5.613281 -28.828125 8.28125 -28.828125 C 9.28125 -28.828125 9.78125 -28.425781 9.78125 -27.625 C 9.78125 -25.425781 10.789062 -23.644531 12.8125 -22.28125 C 14.84375 -20.925781 17.15625 -20.25 19.75 -20.25 C 22.007812 -20.25 24.332031 -20.828125 26.71875 -21.984375 C 29.113281 -23.148438 31.425781 -24.992188 33.65625 -27.515625 C 35.882812 -30.046875 37.765625 -33.304688 39.296875 -37.296875 C 40.160156 -39.554688 41.039062 -41.898438 41.9375 -44.328125 C 42.832031 -46.753906 43.710938 -49.03125 44.578125 -51.15625 C 45.242188 -52.882812 46.125 -54.113281 47.21875 -54.84375 C 48.320312 -55.582031 49.601562 -55.953125 51.0625 -55.953125 C 53.1875 -55.953125 54.582031 -55.46875 55.25 -54.5 C 55.914062 -53.539062 55.984375 -52.226562 55.453125 -50.5625 C 53.585938 -45.25 54.253906 -42.59375 57.453125 -42.59375 C 59.578125 -42.59375 61.550781 -43.421875 63.375 -45.078125 C 65.207031 -46.742188 66.125 -49.101562 66.125 -52.15625 C 66.125 -54.21875 65.457031 -55.878906 64.125 -57.140625 C 62.800781 -58.410156 61.054688 -59.34375 58.890625 -59.9375 C 56.734375 -60.539062 54.320312 -60.84375 51.65625 -60.84375 C 47.800781 -60.84375 44.242188 -60.359375 40.984375 -59.390625 C 37.734375 -58.429688 35.109375 -56.953125 33.109375 -54.953125 C 31.117188 -52.960938 30.125 -50.367188 30.125 -47.171875 C 30.125 -45.710938 30.488281 -44.5 31.21875 -43.53125 C 31.945312 -42.570312 32.84375 -42.09375 33.90625 -42.09375 C 34.375 -41.019531 34.40625 -39.734375 34 -38.234375 C 33.601562 -36.742188 32.820312 -35.316406 31.65625 -33.953125 C 30.5 -32.597656 29.003906 -31.453125 27.171875 -30.515625 C 25.347656 -29.585938 23.238281 -29.125 20.84375 -29.125 C 18.113281 -29.125 15.816406 -29.738281 13.953125 -30.96875 C 12.097656 -32.195312 10.703125 -33.789062 9.765625 -35.75 C 8.835938 -37.71875 8.375 -39.832031 8.375 -42.09375 C 8.375 -46.414062 9.390625 -50.519531 11.421875 -54.40625 C 13.453125 -58.289062 16.359375 -61.710938 20.140625 -64.671875 C 23.929688 -67.628906 28.519531 -69.957031 33.90625 -71.65625 C 39.289062 -73.351562 45.375 -74.203125 52.15625 -74.203125 C 59.40625 -74.203125 65.375 -73.300781 70.0625 -71.5 C 74.75 -69.707031 78.238281 -67.332031 80.53125 -64.375 C 82.820312 -61.414062 83.96875 -58.175781 83.96875 -54.65625 C 83.96875 -52.0625 83.421875 -49.617188 82.328125 -47.328125 C 81.234375 -45.035156 79.722656 -43.085938 77.796875 -41.484375 C 75.867188 -39.890625 73.640625 -38.859375 71.109375 -38.390625 C 70.304688 -38.191406 69.890625 -37.859375 69.859375 -37.390625 C 69.828125 -36.929688 69.945312 -36.535156 70.21875 -36.203125 C 71.539062 -34.941406 72.664062 -33.328125 73.59375 -31.359375 C 74.53125 -29.398438 75 -26.859375 75 -23.734375 C 75 -18.742188 73.914062 -14.390625 71.75 -10.671875 C 69.59375 -6.953125 66.785156 -4.078125 63.328125 -2.046875 C 59.867188 -0.015625 56.210938 1 52.359375 1 C 48.035156 1 44.578125 -0.242188 41.984375 -2.734375 C 39.390625 -5.234375 37.960938 -8.546875 37.703125 -12.671875 C 34.046875 -7.210938 30.070312 -3.035156 25.78125 -0.140625 C 21.488281 2.742188 16.984375 4.1875 12.265625 4.1875 Z M 53.265625 -20.640625 C 55.648438 -20.640625 57.507812 -21.632812 58.84375 -23.625 C 60.175781 -25.625 60.84375 -27.789062 60.84375 -30.125 C 60.84375 -31.519531 60.328125 -32.765625 59.296875 -33.859375 C 58.265625 -34.953125 56.617188 -35.46875 54.359375 -35.40625 C 52.160156 -35.40625 50.476562 -34.585938 49.3125 -32.953125 C 48.15625 -31.328125 47.578125 -29.550781 47.578125 -27.625 C 47.578125 -25.832031 48.023438 -24.21875 48.921875 -22.78125 C 49.816406 -21.351562 51.265625 -20.640625 53.265625 -20.640625 Z M 53.265625 -20.640625 "/></g></g></g><g fill="#fefae0" fill-opacity="1"><g transform="translate(142.589449, 85.801434)"><g><path d="M 15.765625 -45.28125 C 14.035156 -45.28125 12.535156 -45.742188 11.265625 -46.671875 C 10.003906 -47.609375 9.375 -48.90625 9.375 -50.5625 C 9.375 -51.820312 9.738281 -52.882812 10.46875 -53.75 C 11.195312 -54.613281 12.160156 -54.945312 13.359375 -54.75 C 16.285156 -54.289062 18.628906 -54.425781 20.390625 -55.15625 C 22.148438 -55.882812 23.363281 -56.765625 24.03125 -57.796875 C 24.695312 -58.828125 24.765625 -59.578125 24.234375 -60.046875 C 23.835938 -60.367188 23.457031 -60.28125 23.09375 -59.78125 C 22.726562 -59.289062 21.910156 -59.046875 20.640625 -59.046875 C 19.179688 -59.046875 17.703125 -59.707031 16.203125 -61.03125 C 14.710938 -62.363281 13.96875 -64.160156 13.96875 -66.421875 C 13.96875 -68.742188 14.796875 -70.71875 16.453125 -72.34375 C 18.117188 -73.976562 20.082031 -74.796875 22.34375 -74.796875 C 24.664062 -74.796875 26.640625 -73.878906 28.265625 -72.046875 C 29.898438 -70.222656 30.71875 -67.648438 30.71875 -64.328125 C 30.71875 -60.734375 30 -57.488281 28.5625 -54.59375 C 27.132812 -51.707031 25.273438 -49.429688 22.984375 -47.765625 C 20.691406 -46.109375 18.285156 -45.28125 15.765625 -45.28125 Z M 15.765625 -45.28125 "/></g></g></g><g fill="#fefae0" fill-opacity="1"><g transform="translate(174.303646, 85.801434)"><g><path d="M 40.984375 -27.328125 C 41.515625 -28.128906 42.195312 -28.410156 43.03125 -28.171875 C 43.863281 -27.941406 44.5625 -27.492188 45.125 -26.828125 C 45.695312 -26.160156 45.816406 -25.492188 45.484375 -24.828125 C 44.953125 -23.703125 44.171875 -22.125 43.140625 -20.09375 C 42.109375 -18.0625 40.8125 -15.898438 39.25 -13.609375 C 37.6875 -11.316406 35.789062 -9.140625 33.5625 -7.078125 C 31.332031 -5.015625 28.769531 -3.332031 25.875 -2.03125 C 22.988281 -0.738281 19.679688 -0.09375 15.953125 -0.09375 C 11.566406 -0.09375 8.09375 -1.023438 5.53125 -2.890625 C 2.976562 -4.753906 1.234375 -7.113281 0.296875 -9.96875 C -0.628906 -12.832031 -0.894531 -15.828125 -0.5 -18.953125 C -0.101562 -22.078125 0.828125 -24.867188 2.296875 -27.328125 L 2.6875 -27.921875 C 4.488281 -30.316406 6.269531 -32.925781 8.03125 -35.75 C 9.789062 -38.582031 11.597656 -41.242188 13.453125 -43.734375 C 15.316406 -46.222656 17.242188 -48.28125 19.234375 -49.90625 C 21.234375 -51.539062 23.300781 -52.359375 25.4375 -52.359375 C 28.5625 -52.359375 30.867188 -51.625 32.359375 -50.15625 C 33.859375 -48.695312 34.578125 -47.171875 34.515625 -45.578125 C 34.515625 -44.773438 34.160156 -44.109375 33.453125 -43.578125 C 32.753906 -43.046875 31.921875 -42.5625 30.953125 -42.125 C 29.992188 -41.695312 29.148438 -41.164062 28.421875 -40.53125 C 27.691406 -39.90625 27.328125 -39.09375 27.328125 -38.09375 C 27.328125 -37.5 27.789062 -36.300781 28.71875 -34.5 C 29.65625 -32.707031 30.65625 -30.695312 31.71875 -28.46875 C 32.78125 -26.25 33.507812 -24.109375 33.90625 -22.046875 C 35.4375 -22.109375 36.75 -22.640625 37.84375 -23.640625 C 38.945312 -24.640625 39.992188 -25.867188 40.984375 -27.328125 Z M 12.359375 -20.640625 C 14.554688 -20.640625 16.253906 -21.335938 17.453125 -22.734375 C 18.648438 -24.128906 19.25 -25.859375 19.25 -27.921875 C 19.25 -29.117188 19.066406 -30.347656 18.703125 -31.609375 C 18.335938 -32.878906 17.785156 -34.175781 17.046875 -35.5 C 16.390625 -36.832031 15.59375 -36.832031 14.65625 -35.5 C 13.394531 -33.644531 12.050781 -31.769531 10.625 -29.875 C 9.195312 -27.976562 7.914062 -26.296875 6.78125 -24.828125 C 6.78125 -23.628906 7.296875 -22.628906 8.328125 -21.828125 C 9.359375 -21.035156 10.703125 -20.640625 12.359375 -20.640625 Z M 12.359375 -20.640625 "/></g></g></g><g fill="#fefae0" fill-opacity="1"><g transform="translate(212.899216, 85.801434)"><g/></g></g><g fill="#fefae0" fill-opacity="1"><g transform="translate(248.802099, 85.801434)"><g><path d="M 17.359375 -34.109375 C 14.628906 -34.109375 12.332031 -34.753906 10.46875 -36.046875 C 8.601562 -37.347656 7.207031 -39.0625 6.28125 -41.1875 C 5.351562 -43.3125 4.890625 -45.570312 4.890625 -47.96875 C 4.890625 -51.5 5.734375 -54.988281 7.421875 -58.4375 C 9.117188 -61.894531 11.679688 -65.035156 15.109375 -67.859375 C 18.535156 -70.691406 22.875 -72.953125 28.125 -74.640625 C 33.375 -76.335938 39.554688 -77.1875 46.671875 -77.1875 C 50.265625 -77.1875 53.359375 -77.117188 55.953125 -76.984375 C 58.546875 -76.859375 60.9375 -76.726562 63.125 -76.59375 C 65.320312 -76.457031 67.550781 -76.390625 69.8125 -76.390625 C 73.40625 -76.390625 76.179688 -76.570312 78.140625 -76.9375 C 80.097656 -77.3125 81.710938 -77.5 82.984375 -77.5 C 84.503906 -77.5 85.53125 -77.148438 86.0625 -76.453125 C 86.601562 -75.753906 86.875 -74.738281 86.875 -73.40625 C 86.875 -70.875 86.253906 -68.476562 85.015625 -66.21875 C 83.785156 -63.957031 81.957031 -62.128906 79.53125 -60.734375 C 77.101562 -59.335938 74.097656 -58.640625 70.515625 -58.640625 C 68.117188 -58.640625 66.039062 -58.90625 64.28125 -59.4375 C 62.519531 -59.96875 60.789062 -60.566406 59.09375 -61.234375 C 57.394531 -61.898438 55.484375 -62.5 53.359375 -63.03125 C 51.234375 -63.5625 48.609375 -63.828125 45.484375 -63.828125 C 41.554688 -63.828125 38.175781 -63.257812 35.34375 -62.125 C 32.519531 -61 30.359375 -59.519531 28.859375 -57.6875 C 27.367188 -55.863281 26.625 -53.890625 26.625 -51.765625 C 26.625 -50.429688 26.988281 -49.316406 27.71875 -48.421875 C 28.457031 -47.523438 29.359375 -47.078125 30.421875 -47.078125 C 30.878906 -46.015625 30.910156 -44.734375 30.515625 -43.234375 C 30.117188 -41.734375 29.335938 -40.300781 28.171875 -38.9375 C 27.003906 -37.582031 25.503906 -36.4375 23.671875 -35.5 C 21.847656 -34.570312 19.742188 -34.109375 17.359375 -34.109375 Z M 14.359375 4.1875 C 9.773438 4.1875 6.050781 3.367188 3.1875 1.734375 C 0.332031 0.109375 -1.738281 -2 -3.03125 -4.59375 C -4.332031 -7.1875 -4.984375 -9.84375 -4.984375 -12.5625 C -4.984375 -15.289062 -4.4375 -17.898438 -3.34375 -20.390625 C -2.25 -22.890625 -0.707031 -24.921875 1.28125 -26.484375 C 3.28125 -28.046875 5.613281 -28.828125 8.28125 -28.828125 C 9.28125 -28.828125 9.78125 -28.425781 9.78125 -27.625 C 9.78125 -25.425781 10.640625 -23.644531 12.359375 -22.28125 C 14.085938 -20.925781 16.382812 -20.25 19.25 -20.25 C 21.3125 -20.25 23.554688 -20.828125 25.984375 -21.984375 C 28.410156 -23.148438 30.753906 -24.976562 33.015625 -27.46875 C 35.273438 -29.96875 37.203125 -33.242188 38.796875 -37.296875 C 39.660156 -39.554688 40.539062 -41.898438 41.4375 -44.328125 C 42.332031 -46.753906 43.210938 -49.03125 44.078125 -51.15625 C 44.742188 -52.882812 45.625 -54.113281 46.71875 -54.84375 C 47.820312 -55.582031 49.101562 -55.953125 50.5625 -55.953125 C 52.757812 -55.953125 54.207031 -55.46875 54.90625 -54.5 C 55.601562 -53.539062 55.6875 -52.226562 55.15625 -50.5625 C 53.488281 -45.3125 51.859375 -40.375 50.265625 -35.75 C 48.671875 -31.132812 46.941406 -26.628906 45.078125 -22.234375 C 41.285156 -13.191406 36.78125 -6.523438 31.5625 -2.234375 C 26.34375 2.046875 20.609375 4.1875 14.359375 4.1875 Z M 14.359375 4.1875 "/></g></g></g><g fill="#fefae0" fill-opacity="1"><g transform="translate(301.060726, 85.801434)"><g><path d="M 41.6875 -27.328125 C 42.21875 -28.128906 42.914062 -28.410156 43.78125 -28.171875 C 44.644531 -27.941406 45.359375 -27.492188 45.921875 -26.828125 C 46.492188 -26.160156 46.578125 -25.492188 46.171875 -24.828125 C 45.503906 -23.765625 44.707031 -22.21875 43.78125 -20.1875 C 42.851562 -18.164062 41.738281 -16.003906 40.4375 -13.703125 C 39.144531 -11.410156 37.632812 -9.21875 35.90625 -7.125 C 34.175781 -5.03125 32.226562 -3.316406 30.0625 -1.984375 C 27.90625 -0.660156 25.460938 0 22.734375 0 C 20.015625 0 17.851562 -0.515625 16.25 -1.546875 C 14.65625 -2.578125 13.507812 -3.90625 12.8125 -5.53125 C 12.113281 -7.164062 11.765625 -8.8125 11.765625 -10.46875 C 11.765625 -12.800781 12.113281 -15.097656 12.8125 -17.359375 C 13.507812 -19.617188 14.320312 -21.773438 15.25 -23.828125 C 16.1875 -25.890625 17.003906 -27.785156 17.703125 -29.515625 C 18.398438 -31.242188 18.75 -32.707031 18.75 -33.90625 C 18.75 -34.4375 18.363281 -35.21875 17.59375 -36.25 C 16.832031 -37.28125 15.457031 -38.160156 13.46875 -38.890625 C 12.863281 -37.566406 12.144531 -36.019531 11.3125 -34.25 C 10.488281 -32.488281 9.660156 -30.757812 8.828125 -29.0625 C 7.992188 -27.375 7.3125 -25.960938 6.78125 -24.828125 C 6.382812 -23.960938 5.734375 -23.644531 4.828125 -23.875 C 3.929688 -24.113281 3.1875 -24.597656 2.59375 -25.328125 C 2 -26.054688 1.898438 -26.722656 2.296875 -27.328125 C 3.222656 -28.660156 4.25 -30.601562 5.375 -33.15625 C 6.507812 -35.71875 7.507812 -38.128906 8.375 -40.390625 C 7.375 -40.722656 6.578125 -41.285156 5.984375 -42.078125 C 5.390625 -42.878906 5.09375 -44.179688 5.09375 -45.984375 C 5.09375 -47.378906 5.457031 -48.753906 6.1875 -50.109375 C 6.914062 -51.472656 7.941406 -52.617188 9.265625 -53.546875 C 10.597656 -54.484375 12.164062 -54.953125 13.96875 -54.953125 C 17.09375 -54.953125 20.097656 -54.351562 22.984375 -53.15625 C 25.878906 -51.957031 28.253906 -50.441406 30.109375 -48.609375 C 31.972656 -46.785156 32.90625 -44.976562 32.90625 -43.1875 C 32.90625 -41.320312 32.554688 -39.554688 31.859375 -37.890625 C 31.160156 -36.234375 30.445312 -34.539062 29.71875 -32.8125 C 28.988281 -31.082031 28.625 -29.1875 28.625 -27.125 C 28.625 -25.726562 29.085938 -24.5625 30.015625 -23.625 C 30.953125 -22.695312 32.550781 -22.234375 34.8125 -22.234375 C 36.332031 -22.234375 37.609375 -22.71875 38.640625 -23.6875 C 39.671875 -24.65625 40.6875 -25.867188 41.6875 -27.328125 Z M 41.6875 -27.328125 "/></g></g></g><g fill="#fefae0" fill-opacity="1"><g transform="translate(340.454156, 85.801434)"><g><path d="M 10.578125 0 C 7.179688 0 4.617188 -1.394531 2.890625 -4.1875 C 1.160156 -6.976562 0.296875 -10.601562 0.296875 -15.0625 C 0.296875 -17.851562 0.644531 -20.828125 1.34375 -23.984375 C 2.039062 -27.140625 3.070312 -30.25 4.4375 -33.3125 C 5.800781 -36.375 7.515625 -39.148438 9.578125 -41.640625 C 11.640625 -44.128906 14.03125 -46.117188 16.75 -47.609375 C 19.476562 -49.109375 22.570312 -49.859375 26.03125 -49.859375 C 28.019531 -49.859375 29.5625 -49.675781 30.65625 -49.3125 C 31.757812 -48.945312 32.59375 -48.5 33.15625 -47.96875 C 33.726562 -47.4375 34.210938 -46.988281 34.609375 -46.625 C 35.003906 -46.257812 35.535156 -46.078125 36.203125 -46.078125 C 37.335938 -46.078125 38.253906 -46.390625 38.953125 -47.015625 C 39.648438 -47.648438 40.429688 -48.28125 41.296875 -48.90625 C 42.160156 -49.539062 43.351562 -49.859375 44.875 -49.859375 C 46.207031 -49.859375 47.125 -49.523438 47.625 -48.859375 C 48.125 -48.203125 48.375 -47.304688 48.375 -46.171875 C 48.375 -44.316406 47.859375 -42.472656 46.828125 -40.640625 C 45.796875 -38.816406 44.710938 -36.441406 43.578125 -33.515625 C 41.921875 -29.859375 41.304688 -27.0625 41.734375 -25.125 C 42.171875 -23.195312 43.484375 -22.234375 45.671875 -22.234375 C 47.398438 -22.234375 48.894531 -22.679688 50.15625 -23.578125 C 51.425781 -24.484375 52.5625 -25.734375 53.5625 -27.328125 C 54.09375 -28.128906 54.769531 -28.410156 55.59375 -28.171875 C 56.425781 -27.941406 57.125 -27.492188 57.6875 -26.828125 C 58.257812 -26.160156 58.378906 -25.492188 58.046875 -24.828125 C 56.847656 -22.503906 55.566406 -19.925781 54.203125 -17.09375 C 52.835938 -14.269531 51.320312 -11.5625 49.65625 -8.96875 C 48 -6.382812 46.109375 -4.242188 43.984375 -2.546875 C 41.859375 -0.847656 39.398438 0 36.609375 0 C 33.148438 0 30.703125 -1.394531 29.265625 -4.1875 C 27.835938 -6.976562 27.425781 -10.4375 28.03125 -14.5625 L 27.625 -14.5625 C 25.632812 -10.507812 23.175781 -7.066406 20.25 -4.234375 C 17.320312 -1.410156 14.097656 0 10.578125 0 Z M 20.546875 -20.640625 C 22.273438 -20.640625 23.785156 -21.140625 25.078125 -22.140625 C 26.378906 -23.140625 27.394531 -24.351562 28.125 -25.78125 C 28.851562 -27.207031 29.21875 -28.617188 29.21875 -30.015625 C 29.21875 -31.679688 28.75 -32.976562 27.8125 -33.90625 C 26.882812 -34.84375 25.625 -35.3125 24.03125 -35.3125 C 22.300781 -35.3125 20.804688 -34.84375 19.546875 -33.90625 C 18.285156 -32.976562 17.304688 -31.796875 16.609375 -30.359375 C 15.910156 -28.929688 15.5625 -27.488281 15.5625 -26.03125 C 15.5625 -24.363281 16.007812 -23.046875 16.90625 -22.078125 C 17.800781 -21.117188 19.015625 -20.640625 20.546875 -20.640625 Z M 20.546875 -20.640625 "/></g></g></g><g fill="#fefae0" fill-opacity="1"><g transform="translate(391.715481, 85.801434)"><g><path d="M 46.78125 -27.328125 C 47.175781 -27.921875 47.804688 -28.132812 48.671875 -27.96875 C 49.535156 -27.800781 50.28125 -27.4375 50.90625 -26.875 C 51.539062 -26.3125 51.660156 -25.628906 51.265625 -24.828125 C 50.328125 -22.835938 49.109375 -20.773438 47.609375 -18.640625 C 46.117188 -16.515625 44.257812 -14.738281 42.03125 -13.3125 C 39.8125 -11.882812 37.070312 -11.171875 33.8125 -11.171875 C 32.082031 -11.171875 30.519531 -11.671875 29.125 -12.671875 C 26.664062 -9.078125 23.988281 -6.082031 21.09375 -3.6875 C 18.195312 -1.289062 15.222656 -0.09375 12.171875 -0.09375 C 9.503906 -0.09375 7.320312 -0.925781 5.625 -2.59375 C 3.9375 -4.257812 2.707031 -6.421875 1.9375 -9.078125 C 1.175781 -11.734375 0.8125 -14.671875 0.84375 -17.890625 C 0.875 -21.117188 1.289062 -24.265625 2.09375 -27.328125 C 2.6875 -29.921875 3.46875 -32.546875 4.4375 -35.203125 C 5.40625 -37.867188 6.484375 -40.3125 7.671875 -42.53125 C 8.867188 -44.757812 10.113281 -46.535156 11.40625 -47.859375 C 12.707031 -49.191406 14.054688 -49.859375 15.453125 -49.859375 C 16.453125 -49.859375 17.21875 -49.5625 17.75 -48.96875 C 18.28125 -48.375 18.546875 -47.34375 18.546875 -45.875 C 18.546875 -44.007812 18.160156 -41.976562 17.390625 -39.78125 C 16.628906 -37.59375 15.882812 -35.382812 15.15625 -33.15625 C 14.425781 -30.9375 14.0625 -28.828125 14.0625 -26.828125 C 14.0625 -24.960938 14.523438 -23.460938 15.453125 -22.328125 C 16.390625 -21.203125 17.890625 -20.640625 19.953125 -20.640625 C 22.078125 -20.640625 23.703125 -21.101562 24.828125 -22.03125 C 25.960938 -22.96875 26.765625 -23.800781 27.234375 -24.53125 C 26.898438 -26.0625 26.628906 -27.59375 26.421875 -29.125 C 26.222656 -30.65625 26.125 -32.21875 26.125 -33.8125 C 26.125 -36.738281 26.472656 -39.429688 27.171875 -41.890625 C 27.867188 -44.347656 28.96875 -46.320312 30.46875 -47.8125 C 31.96875 -49.3125 33.847656 -50.0625 36.109375 -50.0625 C 38.898438 -50.0625 40.660156 -48.894531 41.390625 -46.5625 C 42.117188 -44.238281 41.953125 -41.050781 40.890625 -37 C 39.828125 -32.945312 37.929688 -28.289062 35.203125 -23.03125 C 36.203125 -22.632812 37.398438 -22.4375 38.796875 -22.4375 C 40.253906 -22.4375 41.648438 -22.816406 42.984375 -23.578125 C 44.316406 -24.347656 45.582031 -25.597656 46.78125 -27.328125 Z M 46.78125 -27.328125 "/></g></g></g><g fill="#fefae0" fill-opacity="1"><g transform="translate(436.195132, 85.801434)"><g><path d="M 18.75 0 C 14.757812 0 11.484375 -0.894531 8.921875 -2.6875 C 6.367188 -4.488281 4.472656 -6.867188 3.234375 -9.828125 C 2.003906 -12.785156 1.40625 -16.039062 1.4375 -19.59375 C 1.476562 -23.15625 2.097656 -26.710938 3.296875 -30.265625 C 4.492188 -33.828125 6.222656 -37.085938 8.484375 -40.046875 C 10.742188 -43.003906 13.484375 -45.378906 16.703125 -47.171875 C 19.929688 -48.960938 23.570312 -49.859375 27.625 -49.859375 C 30.75 -49.859375 33.289062 -49.273438 35.25 -48.109375 C 37.21875 -46.953125 38.664062 -45.410156 39.59375 -43.484375 C 40.519531 -41.554688 40.984375 -39.492188 40.984375 -37.296875 C 40.984375 -34.898438 40.316406 -32.503906 38.984375 -30.109375 C 37.660156 -27.722656 35.800781 -25.75 33.40625 -24.1875 C 31.019531 -22.625 28.195312 -21.84375 24.9375 -21.84375 C 23.539062 -21.84375 22.175781 -21.941406 20.84375 -22.140625 C 19.507812 -22.335938 18.28125 -22.769531 17.15625 -23.4375 C 16.820312 -23.632812 16.453125 -23.648438 16.046875 -23.484375 C 15.648438 -23.316406 15.453125 -22.898438 15.453125 -22.234375 C 15.453125 -20.503906 16.46875 -19.191406 18.5 -18.296875 C 20.53125 -17.398438 22.972656 -16.953125 25.828125 -16.953125 C 29.222656 -16.953125 32.726562 -17.816406 36.34375 -19.546875 C 39.96875 -21.273438 42.910156 -23.867188 45.171875 -27.328125 C 45.710938 -28.128906 46.414062 -28.410156 47.28125 -28.171875 C 48.144531 -27.941406 48.859375 -27.492188 49.421875 -26.828125 C 49.984375 -26.160156 50.066406 -25.492188 49.671875 -24.828125 C 45.273438 -16.722656 40.46875 -10.554688 35.25 -6.328125 C 30.03125 -2.109375 24.53125 0 18.75 0 Z M 22.34375 -29.328125 C 24.269531 -29.328125 25.78125 -29.941406 26.875 -31.171875 C 27.976562 -32.398438 28.53125 -33.644531 28.53125 -34.90625 C 28.53125 -36.039062 28.144531 -37.003906 27.375 -37.796875 C 26.613281 -38.597656 25.46875 -39 23.9375 -39 C 22.007812 -39 20.476562 -38.398438 19.34375 -37.203125 C 18.21875 -36.003906 17.65625 -34.738281 17.65625 -33.40625 C 17.65625 -32.34375 18.035156 -31.394531 18.796875 -30.5625 C 19.566406 -29.738281 20.75 -29.328125 22.34375 -29.328125 Z M 22.34375 -29.328125 "/></g></g></g><g fill="#fefae0" fill-opacity="1"><g transform="translate(479.079109, 85.801434)"><g><path d="M 8.484375 0 C 4.953125 0 2.488281 -0.976562 1.09375 -2.9375 C -0.300781 -4.90625 -1 -7.347656 -1 -10.265625 C -1 -12.796875 -0.679688 -15.554688 -0.046875 -18.546875 C 0.578125 -21.535156 1.390625 -24.460938 2.390625 -27.328125 C 5.785156 -37.035156 8.660156 -45.179688 11.015625 -51.765625 C 13.378906 -58.347656 15.65625 -63.316406 17.84375 -66.671875 C 20.039062 -70.023438 22.472656 -71.703125 25.140625 -71.703125 C 27.191406 -71.703125 28.484375 -70.921875 29.015625 -69.359375 C 29.554688 -67.796875 29.0625 -65.453125 27.53125 -62.328125 C 24.800781 -56.816406 22.453125 -51.71875 20.484375 -47.03125 C 18.523438 -42.34375 16.984375 -37.898438 15.859375 -33.703125 C 15.328125 -31.773438 14.941406 -29.929688 14.703125 -28.171875 C 14.472656 -26.410156 14.691406 -24.976562 15.359375 -23.875 C 16.023438 -22.78125 17.351562 -22.234375 19.34375 -22.234375 C 21.070312 -22.234375 22.582031 -22.679688 23.875 -23.578125 C 25.175781 -24.484375 26.359375 -25.734375 27.421875 -27.328125 C 27.953125 -28.128906 28.648438 -28.410156 29.515625 -28.171875 C 30.378906 -27.941406 31.09375 -27.492188 31.65625 -26.828125 C 32.226562 -26.160156 32.316406 -25.492188 31.921875 -24.828125 C 31.253906 -23.765625 30.453125 -22.21875 29.515625 -20.1875 C 28.585938 -18.164062 27.472656 -16.003906 26.171875 -13.703125 C 24.878906 -11.410156 23.367188 -9.21875 21.640625 -7.125 C 19.910156 -5.03125 17.960938 -3.316406 15.796875 -1.984375 C 13.640625 -0.660156 11.203125 0 8.484375 0 Z M 8.484375 0 "/></g></g></g><g fill="#fefae0" fill-opacity="1"><g transform="translate(48.742512, 174.814061)"><g><path d="M 10.578125 0 C 7.179688 0 4.617188 -1.394531 2.890625 -4.1875 C 1.160156 -6.976562 0.296875 -10.601562 0.296875 -15.0625 C 0.296875 -17.851562 0.644531 -20.828125 1.34375 -23.984375 C 2.039062 -27.140625 3.070312 -30.25 4.4375 -33.3125 C 5.800781 -36.375 7.515625 -39.148438 9.578125 -41.640625 C 11.640625 -44.128906 14.03125 -46.117188 16.75 -47.609375 C 19.476562 -49.109375 22.570312 -49.859375 26.03125 -49.859375 C 28.019531 -49.859375 29.5625 -49.675781 30.65625 -49.3125 C 31.757812 -48.945312 32.59375 -48.5 33.15625 -47.96875 C 33.726562 -47.4375 34.210938 -46.988281 34.609375 -46.625 C 35.003906 -46.257812 35.535156 -46.078125 36.203125 -46.078125 C 37.335938 -46.078125 38.253906 -46.390625 38.953125 -47.015625 C 39.648438 -47.648438 40.429688 -48.28125 41.296875 -48.90625 C 42.160156 -49.539062 43.351562 -49.859375 44.875 -49.859375 C 46.207031 -49.859375 47.125 -49.523438 47.625 -48.859375 C 48.125 -48.203125 48.375 -47.304688 48.375 -46.171875 C 48.375 -44.316406 47.859375 -42.472656 46.828125 -40.640625 C 45.796875 -38.816406 44.710938 -36.441406 43.578125 -33.515625 C 41.921875 -29.859375 41.304688 -27.0625 41.734375 -25.125 C 42.171875 -23.195312 43.484375 -22.234375 45.671875 -22.234375 C 47.398438 -22.234375 48.894531 -22.679688 50.15625 -23.578125 C 51.425781 -24.484375 52.5625 -25.734375 53.5625 -27.328125 C 54.09375 -28.128906 54.769531 -28.410156 55.59375 -28.171875 C 56.425781 -27.941406 57.125 -27.492188 57.6875 -26.828125 C 58.257812 -26.160156 58.378906 -25.492188 58.046875 -24.828125 C 56.847656 -22.503906 55.566406 -19.925781 54.203125 -17.09375 C 52.835938 -14.269531 51.320312 -11.5625 49.65625 -8.96875 C 48 -6.382812 46.109375 -4.242188 43.984375 -2.546875 C 41.859375 -0.847656 39.398438 0 36.609375 0 C 33.148438 0 30.703125 -1.394531 29.265625 -4.1875 C 27.835938 -6.976562 27.425781 -10.4375 28.03125 -14.5625 L 27.625 -14.5625 C 25.632812 -10.507812 23.175781 -7.066406 20.25 -4.234375 C 17.320312 -1.410156 14.097656 0 10.578125 0 Z M 20.546875 -20.640625 C 22.273438 -20.640625 23.785156 -21.140625 25.078125 -22.140625 C 26.378906 -23.140625 27.394531 -24.351562 28.125 -25.78125 C 28.851562 -27.207031 29.21875 -28.617188 29.21875 -30.015625 C 29.21875 -31.679688 28.75 -32.976562 27.8125 -33.90625 C 26.882812 -34.84375 25.625 -35.3125 24.03125 -35.3125 C 22.300781 -35.3125 20.804688 -34.84375 19.546875 -33.90625 C 18.285156 -32.976562 17.304688 -31.796875 16.609375 -30.359375 C 15.910156 -28.929688 15.5625 -27.488281 15.5625 -26.03125 C 15.5625 -24.363281 16.007812 -23.046875 16.90625 -22.078125 C 17.800781 -21.117188 19.015625 -20.640625 20.546875 -20.640625 Z M 20.546875 -20.640625 "/></g></g></g><g fill="#fefae0" fill-opacity="1"><g transform="translate(100.003837, 174.814061)"><g><path d="M 6.28125 0 C 3.957031 0 2.160156 -0.695312 0.890625 -2.09375 C -0.367188 -3.488281 -1 -5.21875 -1 -7.28125 C -1 -9.601562 -0.734375 -12.507812 -0.203125 -16 C 0.328125 -19.5 1.160156 -23.273438 2.296875 -27.328125 C 3.421875 -31.253906 4.664062 -34.925781 6.03125 -38.34375 C 7.394531 -41.769531 8.789062 -44.546875 10.21875 -46.671875 C 11.644531 -48.796875 12.992188 -49.859375 14.265625 -49.859375 C 15.585938 -49.859375 16.460938 -49.476562 16.890625 -48.71875 C 17.328125 -47.957031 17.546875 -47.078125 17.546875 -46.078125 C 17.546875 -44.148438 18.007812 -42.953125 18.9375 -42.484375 C 19.875 -42.015625 21.140625 -42.582031 22.734375 -44.1875 C 24.597656 -45.976562 26.523438 -47.367188 28.515625 -48.359375 C 30.515625 -49.359375 32.613281 -49.859375 34.8125 -49.859375 C 37.863281 -49.859375 40.117188 -48.960938 41.578125 -47.171875 C 43.046875 -45.378906 43.78125 -43.21875 43.78125 -40.6875 C 43.78125 -38.957031 43.515625 -37.378906 42.984375 -35.953125 C 42.453125 -34.523438 41.921875 -33.128906 41.390625 -31.765625 C 40.859375 -30.398438 40.59375 -28.890625 40.59375 -27.234375 C 40.59375 -23.898438 42.1875 -22.234375 45.375 -22.234375 C 46.90625 -22.234375 48.1875 -22.71875 49.21875 -23.6875 C 50.25 -24.65625 51.265625 -25.867188 52.265625 -27.328125 C 52.796875 -28.128906 53.492188 -28.410156 54.359375 -28.171875 C 55.222656 -27.941406 55.9375 -27.492188 56.5 -26.828125 C 57.0625 -26.160156 57.144531 -25.492188 56.75 -24.828125 C 56.082031 -23.765625 55.28125 -22.21875 54.34375 -20.1875 C 53.414062 -18.164062 52.300781 -16.003906 51 -13.703125 C 49.707031 -11.410156 48.195312 -9.21875 46.46875 -7.125 C 44.75 -5.03125 42.804688 -3.316406 40.640625 -1.984375 C 38.484375 -0.660156 36.039062 0 33.3125 0 C 30.1875 0 27.988281 -1.03125 26.71875 -3.09375 C 25.457031 -5.15625 24.828125 -7.582031 24.828125 -10.375 C 24.828125 -12.894531 25.175781 -15.300781 25.875 -17.59375 C 26.570312 -19.894531 27.269531 -21.992188 27.96875 -23.890625 C 28.664062 -25.785156 29.015625 -27.394531 29.015625 -28.71875 C 29.015625 -29.851562 28.664062 -30.71875 27.96875 -31.3125 C 27.269531 -31.914062 26.359375 -32.21875 25.234375 -32.21875 C 23.304688 -32.21875 21.523438 -31.398438 19.890625 -29.765625 C 18.265625 -28.140625 16.953125 -26.03125 15.953125 -23.4375 C 14.960938 -20.84375 14.46875 -18.050781 14.46875 -15.0625 L 14.46875 -10.578125 C 14.46875 -8.910156 14.265625 -7.257812 13.859375 -5.625 C 13.460938 -4 12.679688 -2.65625 11.515625 -1.59375 C 10.359375 -0.53125 8.613281 0 6.28125 0 Z M 6.28125 0 "/></g></g></g><g fill="#fefae0" fill-opacity="1"><g transform="translate(149.968662, 174.814061)"><g><path d="M 11.671875 0 C 7.742188 0 4.863281 -1.359375 3.03125 -4.078125 C 1.207031 -6.804688 0.296875 -10.164062 0.296875 -14.15625 C 0.296875 -17.882812 0.828125 -21.804688 1.890625 -25.921875 C 2.953125 -30.046875 4.5625 -33.921875 6.71875 -37.546875 C 8.882812 -41.171875 11.578125 -44.128906 14.796875 -46.421875 C 18.023438 -48.710938 21.769531 -49.859375 26.03125 -49.859375 C 28.019531 -49.859375 29.5625 -49.625 30.65625 -49.15625 C 31.757812 -48.695312 32.59375 -48.148438 33.15625 -47.515625 C 33.726562 -46.890625 34.210938 -46.328125 34.609375 -45.828125 C 35.003906 -45.328125 35.535156 -45.078125 36.203125 -45.078125 C 36.734375 -45.078125 37.164062 -45.675781 37.5 -46.875 C 37.832031 -48.070312 38.332031 -49.847656 39 -52.203125 C 39.664062 -54.566406 40.695312 -57.445312 42.09375 -60.84375 C 43.351562 -63.894531 44.597656 -66.203125 45.828125 -67.765625 C 47.054688 -69.328125 48.234375 -70.375 49.359375 -70.90625 C 50.492188 -71.4375 51.5625 -71.703125 52.5625 -71.703125 C 54.289062 -71.703125 55.4375 -70.851562 56 -69.15625 C 56.5625 -67.46875 56.179688 -65.191406 54.859375 -62.328125 L 43.578125 -33.515625 C 41.921875 -29.859375 41.304688 -27.0625 41.734375 -25.125 C 42.171875 -23.195312 43.484375 -22.234375 45.671875 -22.234375 C 47.398438 -22.234375 48.894531 -22.679688 50.15625 -23.578125 C 51.425781 -24.484375 52.5625 -25.734375 53.5625 -27.328125 C 54.09375 -28.128906 54.769531 -28.410156 55.59375 -28.171875 C 56.425781 -27.941406 57.125 -27.492188 57.6875 -26.828125 C 58.257812 -26.160156 58.378906 -25.492188 58.046875 -24.828125 C 56.847656 -22.503906 55.566406 -19.925781 54.203125 -17.09375 C 52.835938 -14.269531 51.320312 -11.5625 49.65625 -8.96875 C 48 -6.382812 46.109375 -4.242188 43.984375 -2.546875 C 41.859375 -0.847656 39.398438 0 36.609375 0 C 33.410156 0 31.046875 -1.394531 29.515625 -4.1875 C 27.992188 -6.976562 27.5 -10.4375 28.03125 -14.5625 L 27.625 -14.5625 C 25.5625 -10.507812 23.148438 -7.066406 20.390625 -4.234375 C 17.628906 -1.410156 14.722656 0 11.671875 0 Z M 20.75 -20.640625 C 22.40625 -20.640625 23.863281 -21.140625 25.125 -22.140625 C 26.394531 -23.140625 27.394531 -24.351562 28.125 -25.78125 C 28.851562 -27.207031 29.21875 -28.617188 29.21875 -30.015625 C 29.21875 -31.484375 28.785156 -32.734375 27.921875 -33.765625 C 27.054688 -34.796875 25.660156 -35.3125 23.734375 -35.3125 C 22.140625 -35.3125 20.726562 -34.84375 19.5 -33.90625 C 18.269531 -32.976562 17.304688 -31.796875 16.609375 -30.359375 C 15.910156 -28.929688 15.5625 -27.488281 15.5625 -26.03125 C 15.5625 -24.570312 15.957031 -23.304688 16.75 -22.234375 C 17.550781 -21.171875 18.882812 -20.640625 20.75 -20.640625 Z M 20.75 -20.640625 "/></g></g></g><g fill="#fefae0" fill-opacity="1"><g transform="translate(201.229987, 174.814061)"><g/></g></g><g fill="#fefae0" fill-opacity="1"><g transform="translate(237.132859, 174.814061)"><g><path d="M 17.359375 -34.109375 C 14.628906 -34.109375 12.332031 -34.753906 10.46875 -36.046875 C 8.601562 -37.347656 7.207031 -39.0625 6.28125 -41.1875 C 5.351562 -43.3125 4.890625 -45.570312 4.890625 -47.96875 C 4.890625 -51.5 5.734375 -54.988281 7.421875 -58.4375 C 9.117188 -61.894531 11.679688 -65.035156 15.109375 -67.859375 C 18.535156 -70.691406 22.875 -72.953125 28.125 -74.640625 C 33.375 -76.335938 39.554688 -77.1875 46.671875 -77.1875 C 50.265625 -77.1875 53.359375 -77.117188 55.953125 -76.984375 C 58.546875 -76.859375 60.9375 -76.726562 63.125 -76.59375 C 65.320312 -76.457031 67.550781 -76.390625 69.8125 -76.390625 C 73.40625 -76.390625 76.179688 -76.570312 78.140625 -76.9375 C 80.097656 -77.3125 81.710938 -77.5 82.984375 -77.5 C 84.503906 -77.5 85.53125 -77.148438 86.0625 -76.453125 C 86.601562 -75.753906 86.875 -74.738281 86.875 -73.40625 C 86.875 -70.875 86.253906 -68.476562 85.015625 -66.21875 C 83.785156 -63.957031 81.957031 -62.128906 79.53125 -60.734375 C 77.101562 -59.335938 74.097656 -58.640625 70.515625 -58.640625 C 68.117188 -58.640625 66.039062 -58.90625 64.28125 -59.4375 C 62.519531 -59.96875 60.789062 -60.566406 59.09375 -61.234375 C 57.394531 -61.898438 55.484375 -62.5 53.359375 -63.03125 C 51.234375 -63.5625 48.609375 -63.828125 45.484375 -63.828125 C 41.554688 -63.828125 38.175781 -63.257812 35.34375 -62.125 C 32.519531 -61 30.359375 -59.519531 28.859375 -57.6875 C 27.367188 -55.863281 26.625 -53.890625 26.625 -51.765625 C 26.625 -50.429688 26.988281 -49.316406 27.71875 -48.421875 C 28.457031 -47.523438 29.359375 -47.078125 30.421875 -47.078125 C 30.878906 -46.015625 30.910156 -44.734375 30.515625 -43.234375 C 30.117188 -41.734375 29.335938 -40.300781 28.171875 -38.9375 C 27.003906 -37.582031 25.503906 -36.4375 23.671875 -35.5 C 21.847656 -34.570312 19.742188 -34.109375 17.359375 -34.109375 Z M 14.359375 4.1875 C 9.773438 4.1875 6.050781 3.367188 3.1875 1.734375 C 0.332031 0.109375 -1.738281 -2 -3.03125 -4.59375 C -4.332031 -7.1875 -4.984375 -9.84375 -4.984375 -12.5625 C -4.984375 -15.289062 -4.4375 -17.898438 -3.34375 -20.390625 C -2.25 -22.890625 -0.707031 -24.921875 1.28125 -26.484375 C 3.28125 -28.046875 5.613281 -28.828125 8.28125 -28.828125 C 9.28125 -28.828125 9.78125 -28.425781 9.78125 -27.625 C 9.78125 -25.425781 10.640625 -23.644531 12.359375 -22.28125 C 14.085938 -20.925781 16.382812 -20.25 19.25 -20.25 C 21.3125 -20.25 23.554688 -20.828125 25.984375 -21.984375 C 28.410156 -23.148438 30.753906 -24.976562 33.015625 -27.46875 C 35.273438 -29.96875 37.203125 -33.242188 38.796875 -37.296875 C 39.660156 -39.554688 40.539062 -41.898438 41.4375 -44.328125 C 42.332031 -46.753906 43.210938 -49.03125 44.078125 -51.15625 C 44.742188 -52.882812 45.625 -54.113281 46.71875 -54.84375 C 47.820312 -55.582031 49.101562 -55.953125 50.5625 -55.953125 C 52.757812 -55.953125 54.207031 -55.46875 54.90625 -54.5 C 55.601562 -53.539062 55.6875 -52.226562 55.15625 -50.5625 C 53.488281 -45.3125 51.859375 -40.375 50.265625 -35.75 C 48.671875 -31.132812 46.941406 -26.628906 45.078125 -22.234375 C 41.285156 -13.191406 36.78125 -6.523438 31.5625 -2.234375 C 26.34375 2.046875 20.609375 4.1875 14.359375 4.1875 Z M 14.359375 4.1875 "/></g></g></g><g fill="#fefae0" fill-opacity="1"><g transform="translate(289.391475, 174.814061)"><g><path d="M 49.765625 -27.328125 C 50.160156 -27.921875 50.789062 -28.132812 51.65625 -27.96875 C 52.519531 -27.800781 53.269531 -27.4375 53.90625 -26.875 C 54.539062 -26.3125 54.65625 -25.628906 54.25 -24.828125 C 53.320312 -22.835938 52.109375 -20.773438 50.609375 -18.640625 C 49.117188 -16.515625 47.257812 -14.738281 45.03125 -13.3125 C 42.800781 -11.882812 40.054688 -11.171875 36.796875 -11.171875 L 35.609375 -11.171875 C 33.148438 -7.773438 30.207031 -5.0625 26.78125 -3.03125 C 23.351562 -1.007812 19.78125 0 16.0625 0 C 11.601562 0 7.910156 -1.492188 4.984375 -4.484375 C 2.054688 -7.472656 0.59375 -11.5625 0.59375 -16.75 C 0.59375 -20.476562 1.273438 -24.285156 2.640625 -28.171875 C 4.003906 -32.066406 5.914062 -35.660156 8.375 -38.953125 C 10.832031 -42.242188 13.722656 -44.882812 17.046875 -46.875 C 20.378906 -48.863281 24.039062 -49.859375 28.03125 -49.859375 C 30.75 -49.859375 33.207031 -49.3125 35.40625 -48.21875 C 37.601562 -47.125 39.347656 -45.3125 40.640625 -42.78125 C 41.941406 -40.257812 42.59375 -36.90625 42.59375 -32.71875 C 42.59375 -29.1875 42.09375 -25.757812 41.09375 -22.4375 L 41.78125 -22.4375 C 43.25 -22.4375 44.644531 -22.816406 45.96875 -23.578125 C 47.300781 -24.347656 48.566406 -25.597656 49.765625 -27.328125 Z M 21.734375 -20.640625 C 23.398438 -20.640625 24.863281 -21.140625 26.125 -22.140625 C 27.394531 -23.140625 28.394531 -24.351562 29.125 -25.78125 C 29.851562 -27.207031 30.21875 -28.617188 30.21875 -30.015625 C 30.21875 -31.484375 29.785156 -32.734375 28.921875 -33.765625 C 28.054688 -34.796875 26.660156 -35.3125 24.734375 -35.3125 C 23.140625 -35.3125 21.726562 -34.84375 20.5 -33.90625 C 19.269531 -32.976562 18.304688 -31.796875 17.609375 -30.359375 C 16.910156 -28.929688 16.5625 -27.488281 16.5625 -26.03125 C 16.5625 -24.570312 16.957031 -23.304688 17.75 -22.234375 C 18.550781 -21.171875 19.878906 -20.640625 21.734375 -20.640625 Z M 21.734375 -20.640625 "/></g></g></g><g fill="#fefae0" fill-opacity="1"><g transform="translate(336.863056, 174.814061)"><g><path d="M 52.15625 -27.328125 C 52.6875 -28.128906 53.382812 -28.410156 54.25 -28.171875 C 55.113281 -27.941406 55.828125 -27.492188 56.390625 -26.828125 C 56.960938 -26.160156 57.050781 -25.492188 56.65625 -24.828125 C 55.988281 -23.765625 55.1875 -22.21875 54.25 -20.1875 C 53.320312 -18.164062 52.207031 -16.003906 50.90625 -13.703125 C 49.613281 -11.410156 48.101562 -9.21875 46.375 -7.125 C 44.644531 -5.03125 42.695312 -3.316406 40.53125 -1.984375 C 38.375 -0.660156 35.9375 0 33.21875 0 C 27.5 0 24.640625 -3.625 24.640625 -10.875 C 24.640625 -12.132812 24.738281 -13.492188 24.9375 -14.953125 C 23.875 -12.628906 22.578125 -10.320312 21.046875 -8.03125 C 19.515625 -5.738281 17.75 -3.84375 15.75 -2.34375 C 13.757812 -0.84375 11.46875 -0.09375 8.875 -0.09375 C 6.21875 -0.09375 4.085938 -1.054688 2.484375 -2.984375 C 0.890625 -4.921875 0.09375 -7.914062 0.09375 -11.96875 C 0.09375 -13.5 0.207031 -15.625 0.4375 -18.34375 C 0.675781 -21.070312 1.296875 -24.066406 2.296875 -27.328125 C 4.617188 -34.640625 6.957031 -40.222656 9.3125 -44.078125 C 11.675781 -47.929688 14.253906 -49.859375 17.046875 -49.859375 C 19.109375 -49.859375 20.140625 -48.53125 20.140625 -45.875 C 20.140625 -43.75 19.757812 -41.585938 19 -39.390625 C 18.238281 -37.203125 17.488281 -35.0625 16.75 -32.96875 C 16.019531 -30.875 15.65625 -28.828125 15.65625 -26.828125 C 15.65625 -25.429688 15.9375 -24.332031 16.5 -23.53125 C 17.070312 -22.738281 18.1875 -22.34375 19.84375 -22.34375 C 21.644531 -22.34375 23.273438 -22.890625 24.734375 -23.984375 C 26.191406 -25.078125 27.351562 -26.859375 28.21875 -29.328125 L 28.328125 -29.71875 C 30.390625 -36.238281 32.484375 -41.222656 34.609375 -44.671875 C 36.734375 -48.128906 39.0625 -49.859375 41.59375 -49.859375 C 42.582031 -49.859375 43.34375 -49.5625 43.875 -48.96875 C 44.414062 -48.375 44.6875 -47.34375 44.6875 -45.875 C 44.6875 -44.007812 44.300781 -42 43.53125 -39.84375 C 42.769531 -37.6875 42.019531 -35.539062 41.28125 -33.40625 C 40.550781 -31.28125 40.1875 -29.382812 40.1875 -27.71875 C 40.1875 -25.863281 40.703125 -24.484375 41.734375 -23.578125 C 42.765625 -22.679688 43.945312 -22.234375 45.28125 -22.234375 C 46.8125 -22.234375 48.09375 -22.71875 49.125 -23.6875 C 50.15625 -24.65625 51.164062 -25.867188 52.15625 -27.328125 Z M 52.15625 -27.328125 "/></g></g></g><g fill="#fefae0" fill-opacity="1"><g transform="translate(386.728149, 174.814061)"><g><path d="M 41.6875 -27.328125 C 42.21875 -28.128906 42.914062 -28.410156 43.78125 -28.171875 C 44.644531 -27.941406 45.359375 -27.492188 45.921875 -26.828125 C 46.492188 -26.160156 46.578125 -25.492188 46.171875 -24.828125 C 45.503906 -23.765625 44.707031 -22.21875 43.78125 -20.1875 C 42.851562 -18.164062 41.738281 -16.003906 40.4375 -13.703125 C 39.144531 -11.410156 37.632812 -9.21875 35.90625 -7.125 C 34.175781 -5.03125 32.226562 -3.316406 30.0625 -1.984375 C 27.90625 -0.660156 25.460938 0 22.734375 0 C 20.015625 0 17.851562 -0.515625 16.25 -1.546875 C 14.65625 -2.578125 13.507812 -3.90625 12.8125 -5.53125 C 12.113281 -7.164062 11.765625 -8.8125 11.765625 -10.46875 C 11.765625 -12.800781 12.113281 -15.097656 12.8125 -17.359375 C 13.507812 -19.617188 14.320312 -21.773438 15.25 -23.828125 C 16.1875 -25.890625 17.003906 -27.785156 17.703125 -29.515625 C 18.398438 -31.242188 18.75 -32.707031 18.75 -33.90625 C 18.75 -34.4375 18.363281 -35.21875 17.59375 -36.25 C 16.832031 -37.28125 15.457031 -38.160156 13.46875 -38.890625 C 12.863281 -37.566406 12.144531 -36.019531 11.3125 -34.25 C 10.488281 -32.488281 9.660156 -30.757812 8.828125 -29.0625 C 7.992188 -27.375 7.3125 -25.960938 6.78125 -24.828125 C 6.382812 -23.960938 5.734375 -23.644531 4.828125 -23.875 C 3.929688 -24.113281 3.1875 -24.597656 2.59375 -25.328125 C 2 -26.054688 1.898438 -26.722656 2.296875 -27.328125 C 3.222656 -28.660156 4.25 -30.601562 5.375 -33.15625 C 6.507812 -35.71875 7.507812 -38.128906 8.375 -40.390625 C 7.375 -40.722656 6.578125 -41.285156 5.984375 -42.078125 C 5.390625 -42.878906 5.09375 -44.179688 5.09375 -45.984375 C 5.09375 -47.378906 5.457031 -48.753906 6.1875 -50.109375 C 6.914062 -51.472656 7.941406 -52.617188 9.265625 -53.546875 C 10.597656 -54.484375 12.164062 -54.953125 13.96875 -54.953125 C 17.09375 -54.953125 20.097656 -54.351562 22.984375 -53.15625 C 25.878906 -51.957031 28.253906 -50.441406 30.109375 -48.609375 C 31.972656 -46.785156 32.90625 -44.976562 32.90625 -43.1875 C 32.90625 -41.320312 32.554688 -39.554688 31.859375 -37.890625 C 31.160156 -36.234375 30.445312 -34.539062 29.71875 -32.8125 C 28.988281 -31.082031 28.625 -29.1875 28.625 -27.125 C 28.625 -25.726562 29.085938 -24.5625 30.015625 -23.625 C 30.953125 -22.695312 32.550781 -22.234375 34.8125 -22.234375 C 36.332031 -22.234375 37.609375 -22.71875 38.640625 -23.6875 C 39.671875 -24.65625 40.6875 -25.867188 41.6875 -27.328125 Z M 41.6875 -27.328125 "/></g></g></g><g fill="#fefae0" fill-opacity="1"><g transform="translate(426.121578, 174.814061)"><g><path d="M 40.984375 -27.328125 C 41.515625 -28.128906 42.195312 -28.410156 43.03125 -28.171875 C 43.863281 -27.941406 44.5625 -27.492188 45.125 -26.828125 C 45.695312 -26.160156 45.816406 -25.492188 45.484375 -24.828125 C 44.953125 -23.703125 44.171875 -22.125 43.140625 -20.09375 C 42.109375 -18.0625 40.8125 -15.898438 39.25 -13.609375 C 37.6875 -11.316406 35.789062 -9.140625 33.5625 -7.078125 C 31.332031 -5.015625 28.769531 -3.332031 25.875 -2.03125 C 22.988281 -0.738281 19.679688 -0.09375 15.953125 -0.09375 C 11.566406 -0.09375 8.09375 -1.023438 5.53125 -2.890625 C 2.976562 -4.753906 1.234375 -7.113281 0.296875 -9.96875 C -0.628906 -12.832031 -0.894531 -15.828125 -0.5 -18.953125 C -0.101562 -22.078125 0.828125 -24.867188 2.296875 -27.328125 L 2.6875 -27.921875 C 4.488281 -30.316406 6.269531 -32.925781 8.03125 -35.75 C 9.789062 -38.582031 11.597656 -41.242188 13.453125 -43.734375 C 15.316406 -46.222656 17.242188 -48.28125 19.234375 -49.90625 C 21.234375 -51.539062 23.300781 -52.359375 25.4375 -52.359375 C 28.5625 -52.359375 30.867188 -51.625 32.359375 -50.15625 C 33.859375 -48.695312 34.578125 -47.171875 34.515625 -45.578125 C 34.515625 -44.773438 34.160156 -44.109375 33.453125 -43.578125 C 32.753906 -43.046875 31.921875 -42.5625 30.953125 -42.125 C 29.992188 -41.695312 29.148438 -41.164062 28.421875 -40.53125 C 27.691406 -39.90625 27.328125 -39.09375 27.328125 -38.09375 C 27.328125 -37.5 27.789062 -36.300781 28.71875 -34.5 C 29.65625 -32.707031 30.65625 -30.695312 31.71875 -28.46875 C 32.78125 -26.25 33.507812 -24.109375 33.90625 -22.046875 C 35.4375 -22.109375 36.75 -22.640625 37.84375 -23.640625 C 38.945312 -24.640625 39.992188 -25.867188 40.984375 -27.328125 Z M 12.359375 -20.640625 C 14.554688 -20.640625 16.253906 -21.335938 17.453125 -22.734375 C 18.648438 -24.128906 19.25 -25.859375 19.25 -27.921875 C 19.25 -29.117188 19.066406 -30.347656 18.703125 -31.609375 C 18.335938 -32.878906 17.785156 -34.175781 17.046875 -35.5 C 16.390625 -36.832031 15.59375 -36.832031 14.65625 -35.5 C 13.394531 -33.644531 12.050781 -31.769531 10.625 -29.875 C 9.195312 -27.976562 7.914062 -26.296875 6.78125 -24.828125 C 6.78125 -23.628906 7.296875 -22.628906 8.328125 -21.828125 C 9.359375 -21.035156 10.703125 -20.640625 12.359375 -20.640625 Z M 12.359375 -20.640625 "/></g></g></g></svg>