<svg xmlns="http://www.w3.org/2000/svg" xmlns:xlink="http://www.w3.org/1999/xlink" width="1310" zoomAndPan="magnify" viewBox="0 0 982.5 157.5" height="210" preserveAspectRatio="xMidYMid meet" version="1.0"><defs><g/><clipPath id="4dbf46c654"><path d="M 1.304688 0 L 980.695312 0 L 980.695312 157 L 1.304688 157 Z M 1.304688 0 " clip-rule="nonzero"/></clipPath></defs><g clip-path="url(#4dbf46c654)"><path stroke-linecap="butt" transform="matrix(0.747627, 0, 0, 0.747627, -6.170886, 41.915789)" fill="none" stroke-linejoin="miter" d="M 69.128905 100.168859 C 60.539222 100.168859 52.848216 98.355829 46.061113 94.724546 C 39.305358 91.093263 33.960318 85.439956 30.036443 77.76985 C 26.112567 70.094519 24.148016 60.224743 24.148016 48.150073 C 24.148016 37.141277 26.049868 26.649742 29.858797 16.675469 C 33.667726 6.701196 38.892594 -2.154955 45.528176 -9.88776 C 52.200332 -17.620564 59.786841 -23.71276 68.287701 -28.169573 C 76.814685 -32.657734 85.743985 -34.899203 95.070374 -34.899203 C 106.549409 -34.899203 115.154766 -32.537562 120.875997 -27.814282 C 126.633801 -23.12235 129.512703 -16.852509 129.512703 -8.999532 C 129.512703 -3.659717 128.47818 1.256884 126.414357 5.73982 C 124.376658 10.196633 121.691076 14.094384 118.352385 17.42785 C 115.01892 20.735191 111.476459 23.300601 107.730229 25.129305 C 103.983999 26.931885 100.425864 27.830562 97.061049 27.830562 C 94.521763 27.830562 92.65126 27.078181 91.439091 25.573419 C 90.226921 24.037308 90.111974 22.313101 91.0838 20.395575 C 95.775731 11.450601 97.369316 4.987439 95.864554 1.00609 C 94.359792 -3.011834 91.068125 -5.018183 85.994778 -5.018183 C 80.560916 -5.018183 75.633865 -3.320101 71.208402 0.0760634 C 66.809063 3.467003 63.339751 7.850667 60.80569 13.221831 C 58.266404 18.592995 56.996761 24.303776 56.996761 30.354173 C 56.996761 35.81416 58.297753 40.788234 60.894513 45.276396 C 63.491272 49.733208 67.415148 53.317468 72.66614 56.034399 C 77.922357 58.746106 84.531815 60.104571 92.499739 60.104571 C 98.194845 60.104571 103.968324 59.263367 109.809726 57.58096 C 115.682478 55.867203 120.13929 52.784531 123.180163 48.327719 C 124.125865 46.88043 125.348484 46.368393 126.853246 46.781158 C 128.389357 47.193922 129.659 48.003777 130.662174 49.215946 C 131.696698 50.422891 131.916143 51.63506 131.325733 52.842005 C 123.7131 68.192667 114.945772 79.922495 105.028972 88.036715 C 95.112173 96.124811 83.147225 100.168859 69.128905 100.168859 Z M 134.397955 98.000538 C 127.992267 98.000538 123.51978 96.213634 120.980494 92.645049 C 118.446433 89.071239 117.17679 84.630101 117.17679 79.316411 C 117.17679 74.713302 117.751526 69.697429 118.900997 64.268791 C 120.050468 58.834928 121.529105 53.521238 123.32646 48.327719 C 129.497029 30.678115 134.721897 15.881289 139.001064 3.926791 C 143.31158 -8.053831 147.4549 -17.103302 151.441474 -23.211173 C 155.422824 -29.319044 159.837837 -32.375591 164.676065 -32.375591 C 168.42752 -32.375591 170.783935 -30.959652 171.760986 -28.127774 C 172.732811 -25.29067 171.818459 -21.027178 169.01793 -15.332072 C 164.085655 -5.295101 159.837837 3.984265 156.264027 12.516474 C 152.695442 21.043458 149.874014 29.115879 147.810191 36.728512 C 146.838365 40.213499 146.143458 43.562639 145.730693 46.781158 C 145.317929 49.968327 145.715019 52.565087 146.927188 54.571436 C 148.134133 56.577785 150.553247 57.58096 154.18453 57.58096 C 157.314226 57.58096 160.057281 56.771105 162.418922 55.146171 C 164.780562 53.495113 166.917533 51.222296 168.840284 48.327719 C 169.81211 46.88043 171.081753 46.368393 172.643988 46.781158 C 174.237573 47.193922 175.538565 48.003777 176.54174 49.215946 C 177.576264 50.422891 177.738235 51.63506 177.027652 52.842005 C 175.820708 54.79088 174.357745 57.612309 172.643988 61.301066 C 170.961581 64.958473 168.939557 68.887574 166.583141 73.077918 C 164.221501 77.236913 161.457546 81.223487 158.301726 85.027191 C 155.17203 88.83612 151.645244 91.950141 147.721368 94.369255 C 143.797492 96.788369 139.356355 98.000538 134.397955 98.000538 Z M 201.119519 -0.101582 C 196.782878 -0.101582 193.031423 -1.031609 189.875603 -2.891662 C 186.745907 -4.777839 185.183671 -8.142654 185.183671 -12.986106 C 185.183671 -19.391795 186.965351 -23.770234 190.539161 -26.131874 C 194.107746 -28.493515 198.360788 -29.674335 203.287839 -29.674335 C 207.890947 -29.674335 211.788699 -28.639811 214.975868 -26.575988 C 218.194387 -24.512165 219.563302 -20.645763 219.093064 -14.976781 C 218.591477 -9.396622 216.642601 -5.51977 213.251662 -3.335775 C 209.886847 -1.177905 205.842799 -0.101582 201.119519 -0.101582 Z M 181.019452 98.000538 C 174.969054 98.000538 170.674213 95.800869 168.140152 91.40153 C 165.600866 86.976067 164.331223 81.620577 164.331223 75.335061 C 164.331223 71.113368 164.743988 66.640881 165.569517 61.9176 C 166.426395 57.199545 167.518393 52.669584 168.845509 48.327719 C 173.098552 35.134927 177.215748 25.014358 181.197097 17.960786 C 185.183671 10.875865 189.771105 7.333405 194.964624 7.333405 C 199.066145 7.333405 201.119519 10.050336 201.119519 15.478974 C 201.119519 19.110257 200.424611 22.830363 199.040021 26.639292 C 197.650206 30.442996 196.291741 34.194451 194.964624 37.883208 C 193.637508 41.571965 192.973949 45.051727 192.973949 48.327719 C 192.973949 51.337243 193.72633 53.599611 195.231092 55.104373 C 196.735854 56.609135 198.700405 57.361515 201.119519 57.361515 C 203.925273 57.361515 206.255564 56.520312 208.115617 54.837904 C 209.97567 53.155497 211.820048 50.987177 213.648752 48.327719 C 214.620577 46.88043 215.858871 46.337044 217.368858 46.692335 C 218.87362 47.047626 220.138038 47.857481 221.172562 49.127124 C 222.207086 50.396767 222.410855 51.577587 221.794321 52.669584 C 220.582152 54.613235 219.166212 57.403314 217.541278 61.034598 C 215.921569 64.634532 213.957019 68.558407 211.652852 72.81145 C 209.35391 77.033143 206.710127 81.045842 203.731953 84.849546 C 200.779902 88.658474 197.430762 91.803845 193.679307 94.280432 C 189.933076 96.762245 185.711383 98.000538 181.019452 98.000538 Z M 243.37825 98.000538 C 236.120909 98.000538 230.159335 96.375604 225.493527 93.130961 C 220.85907 89.854969 217.421107 85.528779 215.179638 80.157614 C 212.93817 74.760326 211.846172 68.824876 211.903646 62.361714 C 211.96112 55.898552 213.084466 49.435391 215.268461 42.972229 C 217.452456 36.509068 220.597826 30.589292 224.699348 25.218128 C 228.800869 19.820839 233.785393 15.494649 239.663369 12.250006 C 245.536121 8.974013 252.161253 7.333405 259.538767 7.333405 C 265.202524 7.333405 269.821307 8.399278 273.395117 10.520574 C 276.963702 12.615746 279.59181 15.421501 281.274218 18.932612 C 282.956625 22.443723 283.797829 26.195178 283.797829 30.176528 C 283.797829 34.544517 282.58566 38.902057 280.166546 43.238697 C 277.778781 47.575338 274.398291 51.175272 270.030302 54.038499 C 265.693661 56.875603 260.557616 58.291542 254.622166 58.291542 C 252.088105 58.291542 249.606293 58.113896 247.187179 57.758605 C 244.768065 57.37719 242.537047 56.577785 240.504573 55.365616 C 239.882814 55.01555 239.203581 54.999875 238.466875 55.323817 C 237.756293 55.61641 237.401002 56.374015 237.401002 57.58096 C 237.401002 60.710656 239.24538 63.09842 242.939362 64.754704 C 246.628118 66.374413 251.069256 67.189492 256.262775 67.189492 C 262.428119 67.189492 268.807683 65.622032 275.385791 62.497561 C 281.969125 59.336516 287.30894 54.613235 291.410461 48.327719 C 292.387512 46.88043 293.657155 46.368393 295.21939 46.781158 C 296.812975 47.193922 298.113967 48.003777 299.117142 49.215946 C 300.146441 50.422891 300.308412 51.63506 299.603054 52.842005 C 291.603782 67.602257 282.852128 78.814823 273.348093 86.490154 C 263.875407 94.165485 253.88546 98.000538 243.37825 98.000538 Z M 249.930235 44.696436 C 253.415222 44.696436 256.142603 43.578314 258.122828 41.336846 C 260.129177 39.090152 261.132352 36.817335 261.132352 34.518393 C 261.132352 32.480694 260.437444 30.740813 259.052854 29.293525 C 257.663039 27.814887 255.583542 27.078181 252.809137 27.078181 C 249.298026 27.078181 246.507946 28.170178 244.444124 30.354173 C 242.406425 32.538168 241.387576 34.842335 241.387576 37.261449 C 241.387576 39.178975 242.082483 40.908406 243.467073 42.439293 C 244.856888 43.944055 247.009534 44.696436 249.930235 44.696436 Z M 298.683478 98.000538 C 294.461784 98.000538 291.201467 96.730895 288.902525 94.19161 C 286.598358 91.652324 285.448887 88.512178 285.448887 84.760723 C 285.448887 80.544255 285.9348 75.261913 286.906625 68.913699 C 287.883676 62.570709 289.388438 55.705232 291.426136 48.327719 C 293.489959 41.185324 295.762776 34.502718 298.239364 28.274676 C 300.721176 22.046633 303.260462 16.999411 305.857221 13.133008 C 308.453981 9.266606 310.904444 7.333405 313.203386 7.333405 C 315.6225 7.333405 317.221309 8.028312 317.98414 9.418127 C 318.783545 10.802717 319.180635 12.411977 319.180635 14.24068 C 319.180635 17.725667 320.021838 19.893987 321.704246 20.750866 C 323.418002 21.602519 325.716944 20.57322 328.611521 17.652519 C 332.002461 14.402651 335.503122 11.87904 339.103056 10.081685 C 342.734339 8.247757 346.553718 7.333405 350.566416 7.333405 C 356.115226 7.333405 360.221972 8.974013 362.876205 12.250006 C 365.530438 15.494649 366.862779 19.418524 366.862779 24.026858 C 366.862779 27.151329 366.371642 30.014557 365.399816 32.611316 C 364.454115 35.208075 363.497964 37.747361 362.520914 40.229174 C 361.549089 42.705761 361.063176 45.464491 361.063176 48.505364 C 361.063176 54.555761 363.968203 57.58096 369.783481 57.58096 C 372.557885 57.58096 374.872502 56.708407 376.732555 54.968526 C 378.618732 53.197296 380.468336 50.987177 382.26569 48.327719 C 383.24274 46.88043 384.507158 46.368393 386.074619 46.781158 C 387.668204 47.193922 388.963971 48.003777 389.967145 49.215946 C 391.001669 50.422891 391.16364 51.63506 390.458283 52.842005 C 389.246114 54.79088 387.783151 57.612309 386.074619 61.301066 C 384.392211 64.958473 382.370187 68.887574 380.008547 73.077918 C 377.646907 77.236913 374.888177 81.223487 371.732356 85.027191 C 368.60266 88.83612 365.075875 91.950141 361.146774 94.369255 C 357.222898 96.788369 352.78176 98.000538 347.823361 98.000538 C 342.159604 98.000538 338.17303 96.124811 335.868863 92.37858 C 333.569921 88.627125 332.42045 84.217337 332.42045 79.138765 C 332.42045 74.535656 333.052659 70.151992 334.322302 65.992997 C 335.591945 61.834002 336.861588 58.025074 338.131231 54.571436 C 339.395649 51.117798 340.033083 48.181423 340.033083 45.762309 C 340.033083 43.72461 339.395649 42.162375 338.131231 41.070377 C 336.861588 39.97838 335.194855 39.429769 333.125807 39.429769 C 329.646045 39.429769 326.411852 40.918856 323.433677 43.902256 C 320.481627 46.854306 318.088637 50.689359 316.259933 55.41264 C 314.457354 60.104571 313.558677 65.183143 313.558677 70.64313 L 313.558677 78.788699 C 313.558677 81.798223 313.187711 84.792072 312.451005 87.775472 C 311.745647 90.727522 310.329708 93.17276 308.203187 95.121636 C 306.076666 97.039163 302.905171 98.000538 298.683478 98.000538 Z M 396.435532 98.000538 C 389.648429 98.000538 384.643005 95.921041 381.429711 91.756821 C 378.242542 87.566477 376.648957 82.122165 376.648957 75.423884 C 376.648957 68.720378 377.976074 61.504836 380.630306 53.772031 C 382.223891 49.168923 383.979447 44.210523 385.902198 38.902057 C 387.845849 33.557017 389.956696 27.741739 392.229513 21.456223 C 389.57528 21.456223 387.553256 20.761316 386.163442 19.376726 C 384.778852 17.986911 383.8645 16.367202 383.420386 14.507149 C 383.007621 12.615746 383.007621 10.980363 383.420386 9.590548 C 383.8645 8.205958 384.632555 7.51105 385.724553 7.51105 C 391.033019 7.51105 395.197238 6.037638 398.206762 3.085587 C 401.247635 0.102188 403.368932 -3.011834 404.581101 -6.256477 C 406.765096 -11.570167 408.875943 -14.919308 410.913641 -16.303898 C 412.977464 -17.719837 415.161459 -18.430419 417.465625 -18.430419 C 420.856565 -18.430419 422.967411 -16.998805 423.792941 -14.135577 C 424.649819 -11.303699 423.693668 -7.050656 420.919263 -1.3869 C 419.586922 1.533802 418.850215 3.749146 418.703919 5.253908 C 418.583747 6.758669 419.383152 7.51105 421.096909 7.51105 L 430.52257 7.51105 C 431.73474 7.51105 432.51847 8.367929 432.868536 10.081685 C 433.223827 11.764093 433.192478 13.697294 432.779713 15.881289 C 432.366949 18.033934 431.588443 19.967136 430.433748 21.680892 C 429.284277 23.3633 427.795189 24.199279 425.966486 24.199279 C 420.417676 24.199279 416.31093 24.423948 413.656697 24.868062 C 411.002464 25.280826 409.126736 26.3258 408.034739 28.008207 C 406.942741 29.690615 405.79327 32.600866 404.581101 36.728512 C 402.632225 43.014028 402.898694 48.035126 405.380506 51.781357 C 407.857093 55.501463 411.770519 57.361515 417.110334 57.361515 C 420.741618 57.361515 423.970586 56.546436 426.807689 54.926727 C 429.639568 53.301793 431.954184 51.102124 433.756764 48.327719 C 434.728589 46.88043 435.966883 46.368393 437.471645 46.781158 C 439.007756 47.193922 440.277399 48.003777 441.280574 49.215946 C 442.315097 50.422891 442.534542 51.63506 441.944132 52.842005 C 440.852134 54.911052 439.394396 57.758605 437.560468 61.389889 C 435.763113 64.989823 433.594793 68.913699 431.055507 73.166741 C 428.516221 77.383209 425.548496 81.369784 422.157557 85.116014 C 418.792742 88.867469 414.957689 91.950141 410.647173 94.369255 C 406.368006 96.788369 401.629051 98.000538 396.435532 98.000538 Z M 504.109611 48.327719 C 505.086661 46.88043 506.324955 46.368393 507.829717 46.781158 C 509.365828 47.193922 510.635471 48.003777 511.638645 49.215946 C 512.673169 50.422891 512.892614 51.63506 512.302203 52.842005 C 511.325153 54.911052 509.898764 57.789955 508.007362 61.478711 C 506.147309 65.167468 503.801343 69.091344 500.969465 73.255564 C 498.137586 77.414559 494.683949 81.369784 490.608552 85.116014 C 486.564504 88.867469 481.919596 91.918792 476.663379 94.280432 C 471.412387 96.642073 465.388114 97.822893 458.601011 97.822893 C 450.633087 97.822893 444.316222 96.140485 439.65564 92.77567 C 435.021182 89.379506 431.849687 85.08989 430.13593 79.891146 C 428.453523 74.671503 427.983285 69.221966 428.719991 63.558209 C 429.430573 57.863103 431.112981 52.784531 433.767213 48.327719 L 434.519594 47.220047 C 437.764237 42.883406 440.982756 38.144451 444.169925 33.013631 C 447.388444 27.877586 450.690561 23.034133 454.086725 18.488498 C 457.482889 13.948088 460.978326 10.196633 464.57826 7.244582 C 468.209543 4.292532 471.955773 2.819119 475.822175 2.819119 C 481.517282 2.819119 485.7233 4.146236 488.440232 6.805693 C 491.157163 9.459926 492.45293 12.234331 492.337983 15.128908 C 492.337983 16.570971 491.700549 17.783141 490.430906 18.754966 C 489.161263 19.732017 487.640827 20.615019 485.874821 21.414424 C 484.129716 22.18248 482.598829 23.13863 481.266488 24.288101 C 479.939371 25.442797 479.275813 26.91621 479.275813 28.718789 C 479.275813 29.810787 480.117017 31.994782 481.799424 35.270774 C 483.513181 38.515417 485.32621 42.178049 487.243737 46.248221 C 489.192613 50.292269 490.535404 54.190021 491.27211 57.936251 C 494.046515 57.816079 496.42383 56.859928 498.39883 55.057349 C 500.405179 53.228645 502.312256 50.987177 504.109611 48.327719 Z M 452.09605 60.459862 C 456.0774 60.459862 459.165296 59.190219 461.349291 56.650933 C 463.533286 54.111648 464.625283 50.971502 464.625283 47.220047 C 464.625283 45.036052 464.285667 42.810258 463.606434 40.537441 C 462.927201 38.233274 461.924027 35.876859 460.591685 33.45252 C 459.384741 31.033406 457.937453 31.033406 456.255045 33.45252 C 453.956103 36.848684 451.50564 40.270972 448.908881 43.72461 C 446.312121 47.146899 443.99228 50.187772 441.954581 52.842005 C 441.954581 55.026 442.884608 56.844254 444.744661 58.291542 C 446.636063 59.733606 449.086526 60.459862 452.09605 60.459862 Z M 528.420921 15.65662 C 525.291225 15.65662 522.579519 14.815416 520.275352 13.133008 C 517.97641 11.450601 516.821714 9.088961 516.821714 6.053312 C 516.821714 3.780495 517.485272 1.857743 518.817614 0.295508 C 520.14473 -1.298077 521.900286 -1.919836 524.084281 -1.564545 C 529.397971 -0.707667 533.645789 -0.942786 536.832958 -2.269902 C 540.051477 -3.602244 542.261596 -5.195828 543.473766 -7.050656 C 544.685935 -8.942059 544.800882 -10.316199 543.829057 -11.167852 C 543.118475 -11.758263 542.423567 -11.596292 541.749559 -10.68194 C 541.096451 -9.798937 539.623038 -9.354823 537.318871 -9.354823 C 534.664638 -9.354823 531.963382 -10.566993 529.220326 -12.986106 C 526.503395 -15.40522 525.144929 -18.665538 525.144929 -22.767059 C 525.144929 -26.988753 526.649691 -30.573012 529.659215 -33.525062 C 532.700088 -36.508462 536.289572 -37.997549 540.417218 -37.997549 C 544.638911 -37.997549 548.223171 -36.330816 551.175221 -32.997351 C 554.158621 -29.690009 555.647708 -25.013752 555.647708 -18.963355 C 555.647708 -12.437495 554.336266 -6.538619 551.708157 -1.251053 C 549.111398 3.999939 545.730909 8.13281 541.571914 11.142334 C 537.407694 14.151858 533.02403 15.65662 528.420921 15.65662 Z M 644.857103 105.613171 C 637.829656 105.613171 632.165899 104.124084 627.855383 101.140684 C 623.576216 98.193858 620.44652 94.369255 618.47152 89.677324 C 616.465171 84.954043 615.456771 80.115815 615.456771 75.157416 C 615.456771 70.199016 616.465171 65.460061 618.47152 60.945775 C 620.44652 56.40014 623.252274 52.711383 626.883557 49.879505 C 630.509616 47.016277 634.746984 45.584663 639.585211 45.584663 C 641.387791 45.584663 642.286468 46.305695 642.286468 47.752983 C 642.286468 51.765682 643.765106 55.01555 646.711931 57.492137 C 649.695331 59.973949 653.295265 61.212243 657.516958 61.212243 C 662.475358 61.212243 667.72635 58.970775 673.27516 54.482613 C 678.855319 49.994452 684.299631 41.895906 689.613322 30.176528 C 691.206907 26.075006 692.816166 21.827189 694.435875 17.42785 C 696.060809 13.002387 697.670068 8.853842 699.263653 4.987439 C 700.444473 1.831619 702.038058 -0.409849 704.044407 -1.742191 C 706.050757 -3.069307 708.381048 -3.732865 711.040505 -3.732865 C 714.906908 -3.732865 717.440969 -2.844638 718.653138 -1.078632 C 719.865307 0.666473 719.980254 3.038563 719.008429 6.053312 C 717.440969 10.536249 716.202675 14.329503 715.288323 17.42785 C 714.373971 20.500072 713.799236 23.122956 713.564117 25.306951 C 713.443945 27.464821 714.01868 28.823287 715.288323 29.382348 C 716.557966 29.915284 718.282172 30.176528 720.466167 30.176528 C 724.217622 30.176528 727.713059 29.189028 730.957702 27.214027 C 734.233694 25.207678 736.861803 22.475072 738.842028 19.021435 C 740.848377 15.567797 741.851552 11.732744 741.851552 7.51105 C 741.851552 0.133537 738.826353 -5.059982 732.775956 -8.069506 C 726.725559 -11.110379 719.050228 -12.630815 709.755188 -12.630815 C 701.787264 -12.630815 695.073309 -11.449995 689.613322 -9.088355 C 684.179459 -6.726715 680.051814 -3.732865 677.21471 -0.101582 C 674.382832 3.529701 672.966893 7.275931 672.966893 11.142334 C 672.966893 13.561448 673.630451 15.599146 674.957567 17.250204 C 676.284684 18.875138 677.909618 19.684993 679.827144 19.684993 C 680.684023 21.602519 680.741496 23.922361 680.00479 26.639292 C 679.294208 29.350998 677.878269 31.947758 675.756972 34.42957 C 673.630451 36.906158 670.897845 39.00133 667.564379 40.715086 C 664.257038 42.397494 660.437659 43.238697 656.101019 43.238697 C 651.142619 43.238697 646.962725 42.057877 643.571786 39.696237 C 640.175621 37.334597 637.636336 34.220575 635.953928 30.354173 C 634.271521 26.487771 633.430317 22.386249 633.430317 18.049609 C 633.430317 11.643921 635.27992 5.212109 638.968677 -1.251053 C 642.657434 -7.745564 647.939775 -13.681014 654.815701 -19.052178 C 661.691628 -24.423342 670.030517 -28.728634 679.827144 -31.978501 C 689.623772 -35.254494 700.695267 -36.889877 713.03118 -36.889877 C 732.864779 -36.889877 747.546658 -33.410115 757.076817 -26.445366 C 766.64355 -19.506742 771.424304 -9.945233 771.424304 2.244384 C 771.424304 12.27613 768.853669 20.808339 763.717624 27.830562 C 758.586804 34.82666 751.528007 39.064028 742.556909 40.537441 C 740.022848 40.892732 738.324766 41.321171 737.467887 41.822758 C 736.642358 42.292996 736.229594 42.825933 736.229594 43.416343 C 736.229594 44.153049 736.553536 44.727785 737.201419 45.140549 C 737.880652 45.553314 738.795004 46.216872 739.944475 47.131224 C 741.099171 48.050801 742.279991 49.654835 743.486935 51.959002 C 744.814052 54.378116 746.407637 56.40014 748.267689 58.025074 C 750.159092 59.650008 752.860348 60.459862 756.37146 60.459862 C 760.472981 60.459862 763.822121 59.35219 766.418881 57.136846 C 769.01564 54.895378 771.523577 51.959002 773.947915 48.327719 C 774.919741 46.88043 776.158035 46.337044 777.662797 46.692335 C 779.167559 47.047626 780.411077 47.857481 781.382903 49.127124 C 782.354728 50.396767 782.595072 51.63506 782.093485 52.842005 C 779.820667 58.275867 777.014913 63.688831 773.681447 69.091344 C 770.342757 74.462508 766.685349 79.332085 762.704 83.700075 C 758.717425 88.036715 754.453933 91.506028 749.908298 94.102787 C 745.394012 96.699546 740.775229 98.000538 736.051948 98.000538 C 730.973377 98.000538 726.621062 96.187509 722.989778 92.556226 C 719.358495 88.924943 717.252873 83.005167 716.662463 74.802125 C 716.422119 72.262839 716.202675 69.399611 715.998905 66.212442 C 715.82126 62.999148 715.523442 59.973949 715.110678 57.136846 C 714.697913 54.273619 713.888058 51.917203 712.675889 50.05715 C 711.46372 48.165748 709.770862 47.220047 707.586868 47.220047 C 706.259751 47.220047 705.251352 47.591012 704.577344 48.327719 C 703.924235 49.038301 703.3495 50.05715 702.847912 51.384267 C 699.101682 61.656357 694.320928 70.878249 688.50565 79.049942 C 682.721721 87.195511 676.169737 93.663898 668.849697 98.444652 C 661.561006 103.225406 653.561733 105.613171 644.857103 105.613171 Z M 803.865509 98.000538 C 796.602943 98.000538 790.641369 96.375604 785.980786 93.130961 C 781.346328 89.854969 777.908365 85.528779 775.666897 80.157614 C 773.420204 74.760326 772.328206 68.824876 772.390905 62.361714 C 772.448378 55.898552 773.571725 49.435391 775.75572 42.972229 C 777.939715 36.509068 781.07986 30.589292 785.181382 25.218128 C 789.282903 19.820839 794.272652 15.494649 800.145403 12.250006 C 806.018155 8.974013 812.643287 7.333405 820.020801 7.333405 C 825.689783 7.333405 830.308566 8.399278 833.877151 10.520574 C 837.45096 12.615746 840.079069 15.421501 841.761476 18.932612 C 843.443884 22.443723 844.285088 26.195178 844.285088 30.176528 C 844.285088 34.544517 843.072918 38.902057 840.653804 43.238697 C 838.260815 47.575338 834.88555 51.175272 830.517561 54.038499 C 826.175695 56.875603 821.03965 58.291542 815.109425 58.291542 C 812.570139 58.291542 810.093552 58.113896 807.669213 57.758605 C 805.250099 57.37719 803.024306 56.577785 800.986607 55.365616 C 800.364848 55.01555 799.69084 54.999875 798.948909 55.323817 C 798.243551 55.61641 797.88826 56.374015 797.88826 57.58096 C 797.88826 60.710656 799.732639 63.09842 803.421395 64.754704 C 807.110152 66.374413 811.55129 67.189492 816.744809 67.189492 C 822.915378 67.189492 829.289717 65.622032 835.87305 62.497561 C 842.451159 59.336516 847.796199 54.613235 851.89772 48.327719 C 852.869546 46.88043 854.139189 46.368393 855.706649 46.781158 C 857.300234 47.193922 858.596001 48.003777 859.599176 49.215946 C 860.633699 50.422891 860.79567 51.63506 860.085088 52.842005 C 852.09104 67.602257 843.339387 78.814823 833.835352 86.490154 C 824.362666 94.165485 814.372719 98.000538 803.865509 98.000538 Z M 810.417494 44.696436 C 813.897256 44.696436 816.629862 43.578314 818.604862 41.336846 C 820.611211 39.090152 821.614386 36.817335 821.614386 34.518393 C 821.614386 32.480694 820.924703 30.740813 819.534888 29.293525 C 818.150298 27.814887 816.070801 27.078181 813.296396 27.078181 C 809.78006 27.078181 806.995205 28.170178 804.926157 30.354173 C 802.888459 32.538168 801.874835 34.842335 801.874835 37.261449 C 801.874835 39.178975 802.564517 40.908406 803.954332 42.439293 C 805.338922 43.944055 807.496792 44.696436 810.417494 44.696436 Z M 888.921135 134.433543 C 885.404798 134.433543 882.468423 132.798159 880.106782 129.522167 C 877.750367 126.272299 877.363727 121.329574 878.957311 114.688767 C 880.01796 110.440949 881.512272 106.558872 883.429798 103.047761 C 885.378674 99.562774 887.385023 96.260657 889.448846 93.130961 C 891.517894 89.969916 893.27345 86.976067 894.720738 84.144189 C 896.162801 81.280961 896.889058 78.402059 896.889058 75.512707 C 896.889058 73.945246 896.486743 73.224215 895.692563 73.339162 C 894.924508 73.459334 894.172127 74.358011 893.43542 76.040418 C 890.775963 82.712575 887.426822 88.036715 883.382774 92.023289 C 879.343952 96.009864 874.531848 98.000538 868.951689 98.000538 C 862.666173 98.000538 857.6503 95.518726 853.898845 90.560326 C 850.152614 85.601927 848.276887 79.494056 848.276887 72.236715 C 848.276887 65.475735 849.238262 58.349016 851.155789 50.85133 C 853.104665 43.353645 856.041041 36.315747 859.964916 29.737639 C 863.920141 23.154305 868.821068 17.783141 874.66247 13.618921 C 880.535221 9.428577 887.338 7.333405 895.070804 7.333405 C 898.702087 7.333405 901.507841 7.673021 903.482841 8.352254 C 905.489191 9.000138 907.009627 9.815217 908.044151 10.787043 C 909.078675 11.764093 909.946003 12.589622 910.656585 13.268855 C 911.393292 13.916739 912.365117 14.24068 913.577286 14.24068 C 915.614985 14.24068 917.266043 13.665945 918.535686 12.516474 C 919.805329 11.361778 921.221268 10.212307 922.783504 9.062836 C 924.377088 7.90814 926.561083 7.333405 929.335488 7.333405 C 931.759827 7.333405 933.42656 7.93949 934.340912 9.151659 C 935.255263 10.358603 935.709827 11.999212 935.709827 14.063035 C 935.709827 16.220905 935.077618 18.666144 933.807975 21.414424 C 932.538332 24.126131 930.871599 27.564094 928.807776 31.728313 C 926.738729 35.887308 924.52861 41.143525 922.166969 47.486515 C 919.836678 53.83473 917.516837 61.666807 915.21267 70.993196 C 913.619085 77.519056 912.161347 83.433607 910.834231 88.747297 C 909.501889 94.060988 908.237471 99.197033 907.025302 104.155433 C 905.813133 109.113832 904.548715 114.437973 903.216373 120.133079 C 902.009429 125.091479 900.076228 128.707087 897.41677 130.979905 C 894.762537 133.284072 891.930658 134.433543 888.921135 134.433543 Z M 885.467497 60.459862 C 888.477021 60.459862 891.131254 59.561185 893.43542 57.758605 C 895.734362 55.929902 897.552616 53.714558 898.879733 51.117798 C 900.206849 48.521039 900.870407 45.955629 900.870407 43.416343 C 900.870407 40.756885 900.091902 38.499742 898.524442 36.639689 C 896.962206 34.753512 894.42292 33.807811 890.911809 33.807811 C 888.017232 33.807811 885.451822 34.664689 883.210354 36.378446 C 880.963661 38.060853 879.208105 40.197824 877.938462 42.794584 C 876.668819 45.391343 876.03661 48.019452 876.03661 50.673685 C 876.03661 53.333142 876.757642 55.632084 878.20493 57.58096 C 879.652219 59.498486 882.071333 60.459862 885.467497 60.459862 Z M 1026.167966 48.327719 C 1027.139791 46.88043 1028.409434 46.368393 1029.971669 46.781158 C 1031.53913 47.193922 1032.834897 48.003777 1033.869421 49.215946 C 1034.903945 50.422891 1035.065916 51.63506 1034.355334 52.842005 C 1033.148389 54.79088 1031.685426 57.612309 1029.971669 61.301066 C 1028.289262 64.958473 1026.267238 68.887574 1023.910823 73.077918 C 1021.549182 77.236913 1018.790452 81.223487 1015.629407 85.027191 C 1012.499711 88.83612 1008.972925 91.950141 1005.049049 94.369255 C 1001.125174 96.788369 996.684036 98.000538 991.725636 98.000538 C 981.333374 98.000538 976.139855 91.417205 976.139855 78.255762 C 976.139855 75.951596 976.317501 73.475008 976.672792 70.820775 C 974.723916 75.037244 972.362276 79.243262 969.587871 83.433607 C 966.813466 87.597826 963.610622 91.035789 959.984563 93.747496 C 956.35328 96.464427 952.18906 97.822893 947.497129 97.822893 C 942.658901 97.822893 938.776824 96.067337 935.856123 92.556226 C 932.961546 89.045115 931.519483 83.595577 931.519483 76.218064 C 931.519483 73.443659 931.723253 69.577257 932.136017 64.618857 C 932.580131 59.660457 933.703478 54.23182 935.500832 48.327719 C 939.753875 35.01998 944.017367 24.868062 948.296534 17.871964 C 952.575701 10.844516 957.251957 7.333405 962.330529 7.333405 C 966.076759 7.333405 967.952487 9.752519 967.952487 14.595971 C 967.952487 18.462374 967.25758 22.386249 965.87299 26.372824 C 964.483175 30.354173 963.124709 34.251925 961.797593 38.060853 C 960.470476 41.864557 959.806918 45.584663 959.806918 49.215946 C 959.806918 51.750007 960.32418 53.745907 961.353479 55.193195 C 962.388003 56.635259 964.410027 57.361515 967.41955 57.361515 C 970.695543 57.361515 973.663268 56.374015 976.317501 54.393791 C 978.976958 52.387441 981.08258 49.153248 982.650041 44.696436 L 982.827686 43.944055 C 986.573916 32.109729 990.382845 23.049808 994.249247 16.764292 C 998.11565 10.478775 1002.347793 7.333405 1006.950901 7.333405 C 1008.753481 7.333405 1010.138071 7.882016 1011.115121 8.974013 C 1012.086947 10.066011 1012.572859 11.936514 1012.572859 14.595971 C 1012.572859 17.986911 1011.883177 21.649543 1010.493362 25.573419 C 1009.108772 29.497295 1007.750306 33.395046 1006.42319 37.261449 C 1005.096073 41.127851 1004.42729 44.565814 1004.42729 47.575338 C 1004.42729 50.971502 1005.357317 53.495113 1007.21737 55.146171 C 1009.108772 56.771105 1011.261417 57.58096 1013.680531 57.58096 C 1016.454936 57.58096 1018.774777 56.708407 1020.63483 54.968526 C 1022.521008 53.197296 1024.365386 50.987177 1026.167966 48.327719 Z M 1056.090784 98.000538 C 1048.833443 98.000538 1042.871868 96.375604 1038.206061 93.130961 C 1033.571603 89.854969 1030.13364 85.528779 1027.892172 80.157614 C 1025.650704 74.760326 1024.558706 68.824876 1024.61618 62.361714 C 1024.673653 55.898552 1025.797 49.435391 1027.980995 42.972229 C 1030.16499 36.509068 1033.305135 30.589292 1037.411881 25.218128 C 1041.513403 19.820839 1046.497927 15.494649 1052.370678 12.250006 C 1058.248655 8.974013 1064.873787 7.333405 1072.251301 7.333405 C 1077.915058 7.333405 1082.533841 8.399278 1086.107651 10.520574 C 1089.676235 12.615746 1092.304344 15.421501 1093.986752 18.932612 C 1095.669159 22.443723 1096.510363 26.195178 1096.510363 30.176528 C 1096.510363 34.544517 1095.298193 38.902057 1092.87908 43.238697 C 1090.491315 47.575338 1087.110825 51.175272 1082.742836 54.038499 C 1078.406195 56.875603 1073.27015 58.291542 1067.3347 58.291542 C 1064.800639 58.291542 1062.318827 58.113896 1059.899713 57.758605 C 1057.480599 57.37719 1055.249581 56.577785 1053.211882 55.365616 C 1052.595348 55.01555 1051.916115 54.999875 1051.179408 55.323817 C 1050.468826 55.61641 1050.113535 56.374015 1050.113535 57.58096 C 1050.113535 60.710656 1051.957914 63.09842 1055.651895 64.754704 C 1059.340652 66.374413 1063.78179 67.189492 1068.975309 67.189492 C 1075.140653 67.189492 1081.520217 65.622032 1088.098325 62.497561 C 1094.681659 59.336516 1100.021474 54.613235 1104.122995 48.327719 C 1105.100046 46.88043 1106.369689 46.368393 1107.931924 46.781158 C 1109.525509 47.193922 1110.826501 48.003777 1111.829676 49.215946 C 1112.858975 50.422891 1113.020945 51.63506 1112.315588 52.842005 C 1104.316315 67.602257 1095.564662 78.814823 1086.060627 86.490154 C 1076.587941 94.165485 1066.597994 98.000538 1056.090784 98.000538 Z M 1062.642769 44.696436 C 1066.127756 44.696436 1068.855137 43.578314 1070.835362 41.336846 C 1072.841711 39.090152 1073.844886 36.817335 1073.844886 34.518393 C 1073.844886 32.480694 1073.149978 30.740813 1071.765388 29.293525 C 1070.375573 27.814887 1068.296076 27.078181 1065.521671 27.078181 C 1062.01056 27.078181 1059.22048 28.170178 1057.156657 30.354173 C 1055.118959 32.538168 1054.10011 34.842335 1054.10011 37.261449 C 1054.10011 39.178975 1054.795017 40.908406 1056.179607 42.439293 C 1057.569422 43.944055 1059.722068 44.696436 1062.642769 44.696436 Z M 1174.481067 48.327719 C 1175.458117 46.88043 1176.696411 46.368393 1178.201173 46.781158 C 1179.737284 47.193922 1181.001702 48.003777 1182.004877 49.215946 C 1183.039401 50.422891 1183.26407 51.63506 1182.67366 52.842005 C 1181.69661 54.911052 1180.264996 57.789955 1178.378819 61.478711 C 1176.518766 65.167468 1174.1728 69.091344 1171.340921 73.255564 C 1168.503818 77.414559 1165.05018 81.369784 1160.980008 85.116014 C 1156.93596 88.867469 1152.285828 91.918792 1147.034836 94.280432 C 1141.778619 96.642073 1135.759571 97.822893 1128.972467 97.822893 C 1121.004544 97.822893 1114.687678 96.140485 1110.021871 92.77567 C 1105.392638 89.379506 1102.215919 85.08989 1100.507387 79.891146 C 1098.824979 74.671503 1098.349516 69.221966 1099.091447 63.558209 C 1099.796805 57.863103 1101.479212 52.784531 1104.13867 48.327719 L 1104.891051 47.220047 C 1108.135694 42.883406 1111.354213 38.144451 1114.541382 33.013631 C 1117.754676 27.877586 1121.062017 23.034133 1124.458181 18.488498 C 1127.849121 13.948088 1131.349782 10.196633 1134.949716 7.244582 C 1138.580999 4.292532 1142.32723 2.819119 1146.193632 2.819119 C 1151.888738 2.819119 1156.094757 4.146236 1158.811688 6.805693 C 1161.523395 9.459926 1162.824387 12.234331 1162.704215 15.128908 C 1162.704215 16.570971 1162.072006 17.783141 1160.802363 18.754966 C 1159.53272 19.732017 1158.012283 20.615019 1156.241053 21.414424 C 1154.501172 22.18248 1152.965061 23.13863 1151.637944 24.288101 C 1150.310828 25.442797 1149.64727 26.91621 1149.64727 28.718789 C 1149.64727 29.810787 1150.488473 31.994782 1152.170881 35.270774 C 1153.879413 38.515417 1155.697667 42.178049 1157.615193 46.248221 C 1159.564069 50.292269 1160.90686 54.190021 1161.643567 57.936251 C 1164.417971 57.816079 1166.795286 56.859928 1168.770286 55.057349 C 1170.776636 53.228645 1172.683712 50.987177 1174.481067 48.327719 Z M 1122.462282 60.459862 C 1126.448856 60.459862 1129.531528 59.190219 1131.715523 56.650933 C 1133.899518 54.111648 1134.991515 50.971502 1134.991515 47.220047 C 1134.991515 45.036052 1134.651899 42.810258 1133.972666 40.537441 C 1133.293433 38.233274 1132.290258 35.876859 1130.963142 33.45252 C 1129.756197 31.033406 1128.308909 31.033406 1126.626502 33.45252 C 1124.322335 36.848684 1121.871872 40.270972 1119.275112 43.72461 C 1116.678353 47.146899 1114.363736 50.187772 1112.326038 52.842005 C 1112.326038 55.026 1113.256064 56.844254 1115.116117 58.291542 C 1117.002295 59.733606 1119.452758 60.459862 1122.462282 60.459862 Z M 1188.478488 98.000538 C 1181.68616 98.000538 1176.685961 95.921041 1173.467443 91.756821 C 1170.280273 87.566477 1168.686688 82.122165 1168.686688 75.423884 C 1168.686688 68.720378 1170.013805 61.504836 1172.673263 53.772031 C 1174.266847 49.168923 1176.022403 44.210523 1177.93993 38.902057 C 1179.888805 33.557017 1181.999652 27.741739 1184.27247 21.456223 C 1181.613012 21.456223 1179.590988 20.761316 1178.206398 19.376726 C 1176.816583 17.986911 1175.902231 16.367202 1175.463342 14.507149 C 1175.050578 12.615746 1175.050578 10.980363 1175.463342 9.590548 C 1175.902231 8.205958 1176.670287 7.51105 1177.762284 7.51105 C 1183.075975 7.51105 1187.23497 6.037638 1190.249718 3.085587 C 1193.285367 0.102188 1195.411888 -3.011834 1196.624057 -6.256477 C 1198.808052 -11.570167 1200.918899 -14.919308 1202.951372 -16.303898 C 1205.02042 -17.719837 1207.204415 -18.430419 1209.503357 -18.430419 C 1212.899521 -18.430419 1215.010368 -16.998805 1215.835897 -14.135577 C 1216.692775 -11.303699 1215.731399 -7.050656 1212.956995 -1.3869 C 1211.629878 1.533802 1210.893172 3.749146 1210.746875 5.253908 C 1210.626703 6.758669 1211.420883 7.51105 1213.13464 7.51105 L 1222.565527 7.51105 C 1223.772471 7.51105 1224.556201 8.367929 1224.911492 10.081685 C 1225.266783 11.764093 1225.235434 13.697294 1224.82267 15.881289 C 1224.409905 18.033934 1223.626175 19.967136 1222.476704 21.680892 C 1221.327233 23.3633 1219.832921 24.199279 1218.004217 24.199279 C 1212.455407 24.199279 1208.353886 24.423948 1205.699653 24.868062 C 1203.040195 25.280826 1201.169692 26.3258 1200.077695 28.008207 C 1198.985698 29.690615 1197.831002 32.600866 1196.624057 36.728512 C 1194.675182 43.014028 1194.94165 48.035126 1197.418237 51.781357 C 1199.90005 55.501463 1203.808251 57.361515 1209.153291 57.361515 C 1212.779349 57.361515 1216.013542 56.546436 1218.845421 54.926727 C 1221.677299 53.301793 1223.997141 51.102124 1225.794495 48.327719 C 1226.771545 46.88043 1228.009839 46.368393 1229.514601 46.781158 C 1231.050712 47.193922 1232.320355 48.003777 1233.32353 49.215946 C 1234.352829 50.422891 1234.577498 51.63506 1233.987088 52.842005 C 1232.895091 54.911052 1231.432128 57.758605 1229.603424 61.389889 C 1227.800844 64.989823 1225.632524 68.913699 1223.098463 73.166741 C 1220.559177 77.383209 1217.591452 81.369784 1214.195288 85.116014 C 1210.835698 88.867469 1206.99542 91.950141 1202.684904 94.369255 C 1198.405737 96.788369 1193.672007 98.000538 1188.478488 98.000538 Z M 1296.152567 48.327719 C 1297.124392 46.88043 1298.367911 46.368393 1299.872673 46.781158 C 1301.403559 47.193922 1302.673202 48.003777 1303.676377 49.215946 C 1304.710901 50.422891 1304.930345 51.63506 1304.34516 52.842005 C 1303.368109 54.911052 1301.936496 57.789955 1300.050318 61.478711 C 1298.190265 65.167468 1295.8443 69.091344 1293.007196 73.255564 C 1290.175318 77.414559 1286.72168 81.369784 1282.651508 85.116014 C 1278.60746 88.867469 1273.957328 91.918792 1268.706336 94.280432 C 1263.450118 96.642073 1257.43107 97.822893 1250.643967 97.822893 C 1242.676043 97.822893 1236.359178 96.140485 1231.693371 92.77567 C 1227.064138 89.379506 1223.887418 85.08989 1222.178886 79.891146 C 1220.496479 74.671503 1220.021016 69.221966 1220.762947 63.558209 C 1221.468304 57.863103 1223.150712 52.784531 1225.81017 48.327719 L 1226.562551 47.220047 C 1229.807194 42.883406 1233.025712 38.144451 1236.212882 33.013631 C 1239.426176 27.877586 1242.733517 23.034133 1246.129681 18.488498 C 1249.52062 13.948088 1253.021282 10.196633 1256.621216 7.244582 C 1260.247274 4.292532 1263.998729 2.819119 1267.865132 2.819119 C 1273.560238 2.819119 1277.766257 4.146236 1280.483188 6.805693 C 1283.194894 9.459926 1284.495886 12.234331 1284.375714 15.128908 C 1284.375714 16.570971 1283.743505 17.783141 1282.473863 18.754966 C 1281.20422 19.732017 1279.683783 20.615019 1277.912553 21.414424 C 1276.172672 22.18248 1274.636561 23.13863 1273.309444 24.288101 C 1271.982328 25.442797 1271.318769 26.91621 1271.318769 28.718789 C 1271.318769 29.810787 1272.159973 31.994782 1273.842381 35.270774 C 1275.550913 38.515417 1277.369167 42.178049 1279.286693 46.248221 C 1281.235569 50.292269 1282.57836 54.190021 1283.315066 57.936251 C 1286.089471 57.816079 1288.466786 56.859928 1290.441786 55.057349 C 1292.448135 53.228645 1294.349987 50.987177 1296.152567 48.327719 Z M 1244.133782 60.459862 C 1248.120356 60.459862 1251.203028 59.190219 1253.387023 56.650933 C 1255.571018 54.111648 1256.663015 50.971502 1256.663015 47.220047 C 1256.663015 45.036052 1256.323398 42.810258 1255.644166 40.537441 C 1254.964933 38.233274 1253.961758 35.876859 1252.634642 33.45252 C 1251.427697 31.033406 1249.980409 31.033406 1248.298001 33.45252 C 1245.993835 36.848684 1243.543372 40.270972 1240.946612 43.72461 C 1238.349853 47.146899 1236.035236 50.187772 1233.997538 52.842005 C 1233.997538 55.026 1234.927564 56.844254 1236.787617 58.291542 C 1238.673795 59.733606 1241.124258 60.459862 1244.133782 60.459862 Z M 1244.133782 60.459862 " stroke="#bc6c25" stroke-width="24.706621" stroke-opacity="1" stroke-miterlimit="4"/></g><g fill="#fefae0" fill-opacity="1"><g transform="translate(7.41489, 115.183191)"><g><path d="M 38.09375 1.625 C 31.675781 1.625 25.9375 0.269531 20.875 -2.4375 C 15.8125 -5.144531 11.8125 -9.367188 8.875 -15.109375 C 5.9375 -20.847656 4.46875 -28.238281 4.46875 -37.28125 C 4.46875 -45.5 5.890625 -53.335938 8.734375 -60.796875 C 11.585938 -68.253906 15.5 -74.875 20.46875 -80.65625 C 25.4375 -86.4375 31.109375 -91 37.484375 -94.34375 C 43.859375 -97.695312 50.523438 -99.375 57.484375 -99.375 C 66.066406 -99.375 72.503906 -97.609375 76.796875 -94.078125 C 81.085938 -90.554688 83.234375 -85.859375 83.234375 -79.984375 C 83.234375 -76.003906 82.460938 -72.34375 80.921875 -69 C 79.390625 -65.65625 77.378906 -62.738281 74.890625 -60.25 C 72.410156 -57.769531 69.769531 -55.851562 66.96875 -54.5 C 64.164062 -53.144531 61.5 -52.46875 58.96875 -52.46875 C 57.070312 -52.46875 55.671875 -53.03125 54.765625 -54.15625 C 53.859375 -55.289062 53.769531 -56.578125 54.5 -58.015625 C 58.019531 -64.703125 59.210938 -69.535156 58.078125 -72.515625 C 56.953125 -75.503906 54.492188 -77 50.703125 -77 C 46.628906 -77 42.941406 -75.734375 39.640625 -73.203125 C 36.347656 -70.671875 33.753906 -67.394531 31.859375 -63.375 C 29.960938 -59.351562 29.015625 -55.082031 29.015625 -50.5625 C 29.015625 -46.5 29.984375 -42.796875 31.921875 -39.453125 C 33.867188 -36.109375 36.804688 -33.414062 40.734375 -31.375 C 44.671875 -29.34375 49.617188 -28.328125 55.578125 -28.328125 C 59.828125 -28.328125 64.144531 -28.957031 68.53125 -30.21875 C 72.914062 -31.488281 76.234375 -33.796875 78.484375 -37.140625 C 79.210938 -38.222656 80.140625 -38.609375 81.265625 -38.296875 C 82.398438 -37.984375 83.347656 -37.375 84.109375 -36.46875 C 84.878906 -35.5625 85.039062 -34.65625 84.59375 -33.75 C 78.894531 -22.269531 72.335938 -13.503906 64.921875 -7.453125 C 57.515625 -1.398438 48.570312 1.625 38.09375 1.625 Z M 38.09375 1.625 "/></g></g></g><g fill="#fefae0" fill-opacity="1"><g transform="translate(82.789407, 115.183191)"><g><path d="M 11.515625 0 C 6.734375 0 3.390625 -1.332031 1.484375 -4 C -0.410156 -6.664062 -1.359375 -9.988281 -1.359375 -13.96875 C -1.359375 -17.394531 -0.925781 -21.140625 -0.0625 -25.203125 C 0.789062 -29.273438 1.894531 -33.253906 3.25 -37.140625 C 7.863281 -50.335938 11.773438 -61.410156 14.984375 -70.359375 C 18.191406 -79.304688 21.285156 -86.0625 24.265625 -90.625 C 27.242188 -95.1875 30.539062 -97.46875 34.15625 -97.46875 C 36.957031 -97.46875 38.71875 -96.40625 39.4375 -94.28125 C 40.164062 -92.15625 39.492188 -88.96875 37.421875 -84.71875 C 33.710938 -77.21875 30.523438 -70.28125 27.859375 -63.90625 C 25.191406 -57.539062 23.085938 -51.507812 21.546875 -45.8125 C 20.828125 -43.195312 20.304688 -40.691406 19.984375 -38.296875 C 19.671875 -35.898438 19.96875 -33.957031 20.875 -32.46875 C 21.78125 -30.976562 23.585938 -30.234375 26.296875 -30.234375 C 28.648438 -30.234375 30.707031 -30.84375 32.46875 -32.0625 C 34.226562 -33.28125 35.832031 -34.972656 37.28125 -37.140625 C 38 -38.222656 38.945312 -38.609375 40.125 -38.296875 C 41.300781 -37.984375 42.269531 -37.375 43.03125 -36.46875 C 43.800781 -35.5625 43.914062 -34.65625 43.375 -33.75 C 42.476562 -32.3125 41.394531 -30.210938 40.125 -27.453125 C 38.863281 -24.691406 37.347656 -21.753906 35.578125 -18.640625 C 33.816406 -15.523438 31.757812 -12.539062 29.40625 -9.6875 C 27.0625 -6.84375 24.421875 -4.515625 21.484375 -2.703125 C 18.546875 -0.898438 15.222656 0 11.515625 0 Z M 11.515625 0 "/></g></g></g><g fill="#fefae0" fill-opacity="1"><g transform="translate(116.951957, 115.183191)"><g><path d="M 27.25 -73.34375 C 24 -73.34375 21.195312 -74.039062 18.84375 -75.4375 C 16.488281 -76.84375 15.3125 -79.351562 15.3125 -82.96875 C 15.3125 -87.757812 16.644531 -91.035156 19.3125 -92.796875 C 21.976562 -94.554688 25.164062 -95.4375 28.875 -95.4375 C 32.3125 -95.4375 35.226562 -94.664062 37.625 -93.125 C 40.019531 -91.59375 41.035156 -88.703125 40.671875 -84.453125 C 40.304688 -80.296875 38.859375 -77.40625 36.328125 -75.78125 C 33.796875 -74.15625 30.769531 -73.34375 27.25 -73.34375 Z M 12.203125 0 C 7.679688 0 4.472656 -1.644531 2.578125 -4.9375 C 0.679688 -8.238281 -0.265625 -12.238281 -0.265625 -16.9375 C -0.265625 -20.101562 0.046875 -23.445312 0.671875 -26.96875 C 1.304688 -30.5 2.125 -33.890625 3.125 -37.140625 C 6.28125 -46.992188 9.347656 -54.5625 12.328125 -59.84375 C 15.316406 -65.132812 18.753906 -67.78125 22.640625 -67.78125 C 25.710938 -67.78125 27.25 -65.75 27.25 -61.6875 C 27.25 -58.96875 26.726562 -56.1875 25.6875 -53.34375 C 24.644531 -50.5 23.625 -47.695312 22.625 -44.9375 C 21.632812 -42.175781 21.140625 -39.578125 21.140625 -37.140625 C 21.140625 -34.878906 21.703125 -33.179688 22.828125 -32.046875 C 23.960938 -30.921875 25.4375 -30.359375 27.25 -30.359375 C 29.320312 -30.359375 31.054688 -30.988281 32.453125 -32.25 C 33.859375 -33.519531 35.242188 -35.148438 36.609375 -37.140625 C 37.328125 -38.222656 38.25 -38.628906 39.375 -38.359375 C 40.507812 -38.085938 41.457031 -37.476562 42.21875 -36.53125 C 42.988281 -35.582031 43.148438 -34.703125 42.703125 -33.890625 C 41.796875 -32.441406 40.734375 -30.363281 39.515625 -27.65625 C 38.296875 -24.945312 36.828125 -22.007812 35.109375 -18.84375 C 33.390625 -15.675781 31.421875 -12.671875 29.203125 -9.828125 C 26.992188 -6.984375 24.488281 -4.632812 21.6875 -2.78125 C 18.882812 -0.925781 15.722656 0 12.203125 0 Z M 12.203125 0 "/></g></g></g><g fill="#fefae0" fill-opacity="1"><g transform="translate(150.301114, 115.183191)"><g><path d="M 25.484375 0 C 20.066406 0 15.613281 -1.21875 12.125 -3.65625 C 8.644531 -6.101562 6.066406 -9.335938 4.390625 -13.359375 C 2.722656 -17.378906 1.910156 -21.804688 1.953125 -26.640625 C 2.003906 -31.472656 2.84375 -36.304688 4.46875 -41.140625 C 6.09375 -45.972656 8.441406 -50.398438 11.515625 -54.421875 C 14.585938 -58.441406 18.316406 -61.671875 22.703125 -64.109375 C 27.085938 -66.554688 32.035156 -67.78125 37.546875 -67.78125 C 41.796875 -67.78125 45.253906 -66.988281 47.921875 -65.40625 C 50.585938 -63.820312 52.550781 -61.71875 53.8125 -59.09375 C 55.082031 -56.476562 55.71875 -53.679688 55.71875 -50.703125 C 55.71875 -47.441406 54.8125 -44.1875 53 -40.9375 C 51.195312 -37.6875 48.664062 -35 45.40625 -32.875 C 42.15625 -30.75 38.316406 -29.6875 33.890625 -29.6875 C 31.992188 -29.6875 30.140625 -29.820312 28.328125 -30.09375 C 26.523438 -30.363281 24.851562 -30.953125 23.3125 -31.859375 C 22.863281 -32.128906 22.367188 -32.148438 21.828125 -31.921875 C 21.285156 -31.703125 21.015625 -31.140625 21.015625 -30.234375 C 21.015625 -27.878906 22.390625 -26.09375 25.140625 -24.875 C 27.898438 -23.65625 31.222656 -23.046875 35.109375 -23.046875 C 39.722656 -23.046875 44.488281 -24.21875 49.40625 -26.5625 C 54.332031 -28.914062 58.332031 -32.441406 61.40625 -37.140625 C 62.132812 -38.222656 63.082031 -38.609375 64.25 -38.296875 C 65.425781 -37.984375 66.398438 -37.375 67.171875 -36.46875 C 67.941406 -35.5625 68.054688 -34.65625 67.515625 -33.75 C 61.546875 -22.726562 55.015625 -14.347656 47.921875 -8.609375 C 40.828125 -2.867188 33.347656 0 25.484375 0 Z M 30.359375 -39.859375 C 32.984375 -39.859375 35.039062 -40.691406 36.53125 -42.359375 C 38.019531 -44.035156 38.765625 -45.734375 38.765625 -47.453125 C 38.765625 -48.984375 38.242188 -50.289062 37.203125 -51.375 C 36.171875 -52.457031 34.613281 -53 32.53125 -53 C 29.914062 -53 27.835938 -52.1875 26.296875 -50.5625 C 24.765625 -48.9375 24 -47.21875 24 -45.40625 C 24 -43.96875 24.515625 -42.679688 25.546875 -41.546875 C 26.585938 -40.421875 28.191406 -39.859375 30.359375 -39.859375 Z M 30.359375 -39.859375 "/></g></g></g><g fill="#fefae0" fill-opacity="1"><g transform="translate(208.594355, 115.183191)"><g><path d="M 8.546875 0 C 5.378906 0 2.9375 -0.945312 1.21875 -2.84375 C -0.5 -4.738281 -1.359375 -7.085938 -1.359375 -9.890625 C -1.359375 -13.054688 -0.992188 -17.007812 -0.265625 -21.75 C 0.453125 -26.5 1.582031 -31.628906 3.125 -37.140625 C 4.65625 -42.472656 6.347656 -47.46875 8.203125 -52.125 C 10.054688 -56.78125 11.953125 -60.550781 13.890625 -63.4375 C 15.835938 -66.332031 17.671875 -67.78125 19.390625 -67.78125 C 21.191406 -67.78125 22.382812 -67.257812 22.96875 -66.21875 C 23.5625 -65.175781 23.859375 -63.976562 23.859375 -62.625 C 23.859375 -60.007812 24.488281 -58.382812 25.75 -57.75 C 27.019531 -57.113281 28.738281 -57.878906 30.90625 -60.046875 C 33.4375 -62.492188 36.054688 -64.394531 38.765625 -65.75 C 41.484375 -67.101562 44.332031 -67.78125 47.3125 -67.78125 C 51.46875 -67.78125 54.539062 -66.554688 56.53125 -64.109375 C 58.519531 -61.671875 59.515625 -58.738281 59.515625 -55.3125 C 59.515625 -52.957031 59.148438 -50.804688 58.421875 -48.859375 C 57.703125 -46.921875 56.976562 -45.023438 56.25 -43.171875 C 55.53125 -41.316406 55.171875 -39.265625 55.171875 -37.015625 C 55.171875 -32.492188 57.34375 -30.234375 61.6875 -30.234375 C 63.757812 -30.234375 65.492188 -30.882812 66.890625 -32.1875 C 68.296875 -33.5 69.675781 -35.148438 71.03125 -37.140625 C 71.757812 -38.222656 72.707031 -38.609375 73.875 -38.296875 C 75.050781 -37.984375 76.023438 -37.375 76.796875 -36.46875 C 77.566406 -35.5625 77.679688 -34.65625 77.140625 -33.75 C 76.234375 -32.3125 75.144531 -30.210938 73.875 -27.453125 C 72.613281 -24.691406 71.101562 -21.753906 69.34375 -18.640625 C 67.582031 -15.523438 65.523438 -12.539062 63.171875 -9.6875 C 60.816406 -6.84375 58.171875 -4.515625 55.234375 -2.703125 C 52.296875 -0.898438 48.976562 0 45.28125 0 C 41.03125 0 38.046875 -1.398438 36.328125 -4.203125 C 34.609375 -7.003906 33.75 -10.300781 33.75 -14.09375 C 33.75 -17.53125 34.222656 -20.804688 35.171875 -23.921875 C 36.128906 -27.046875 37.082031 -29.894531 38.03125 -32.46875 C 38.976562 -35.039062 39.453125 -37.234375 39.453125 -39.046875 C 39.453125 -40.578125 38.976562 -41.75 38.03125 -42.5625 C 37.082031 -43.375 35.835938 -43.78125 34.296875 -43.78125 C 31.671875 -43.78125 29.25 -42.671875 27.03125 -40.453125 C 24.820312 -38.242188 23.039062 -35.375 21.6875 -31.84375 C 20.332031 -28.320312 19.65625 -24.53125 19.65625 -20.46875 L 19.65625 -14.375 C 19.65625 -12.113281 19.382812 -9.875 18.84375 -7.65625 C 18.300781 -5.445312 17.238281 -3.617188 15.65625 -2.171875 C 14.070312 -0.722656 11.703125 0 8.546875 0 Z M 8.546875 0 "/></g></g></g><g fill="#fefae0" fill-opacity="1"><g transform="translate(276.512764, 115.183191)"><g><path d="M 13.6875 0 C 8.625 0 4.894531 -1.554688 2.5 -4.671875 C 0.113281 -7.796875 -1.078125 -11.863281 -1.078125 -16.875 C -1.078125 -21.894531 -0.0859375 -27.296875 1.890625 -33.078125 C 3.066406 -36.515625 4.378906 -40.21875 5.828125 -44.1875 C 7.273438 -48.164062 8.859375 -52.503906 10.578125 -57.203125 C 8.585938 -57.203125 7.070312 -57.722656 6.03125 -58.765625 C 4.988281 -59.804688 4.3125 -61.023438 4 -62.421875 C 3.6875 -63.828125 3.6875 -65.046875 4 -66.078125 C 4.3125 -67.117188 4.875 -67.640625 5.6875 -67.640625 C 9.664062 -67.640625 12.785156 -68.742188 15.046875 -70.953125 C 17.304688 -73.171875 18.890625 -75.503906 19.796875 -77.953125 C 21.421875 -81.921875 23 -84.425781 24.53125 -85.46875 C 26.070312 -86.507812 27.703125 -87.03125 29.421875 -87.03125 C 31.953125 -87.03125 33.53125 -85.96875 34.15625 -83.84375 C 34.789062 -81.71875 34.070312 -78.53125 32 -74.28125 C 31 -72.113281 30.453125 -70.460938 30.359375 -69.328125 C 30.273438 -68.203125 30.863281 -67.640625 32.125 -67.640625 L 39.171875 -67.640625 C 40.078125 -67.640625 40.664062 -67.003906 40.9375 -65.734375 C 41.207031 -64.472656 41.179688 -63.03125 40.859375 -61.40625 C 40.546875 -59.78125 39.960938 -58.332031 39.109375 -57.0625 C 38.253906 -55.800781 37.144531 -55.171875 35.78125 -55.171875 C 31.625 -55.171875 28.550781 -55.007812 26.5625 -54.6875 C 24.582031 -54.375 23.179688 -53.582031 22.359375 -52.3125 C 21.546875 -51.050781 20.691406 -48.882812 19.796875 -45.8125 C 18.347656 -41.113281 18.550781 -37.363281 20.40625 -34.5625 C 22.257812 -31.757812 25.171875 -30.359375 29.140625 -30.359375 C 31.859375 -30.359375 34.273438 -30.96875 36.390625 -32.1875 C 38.515625 -33.414062 40.257812 -35.066406 41.625 -37.140625 C 42.34375 -38.222656 43.265625 -38.609375 44.390625 -38.296875 C 45.523438 -37.984375 46.472656 -37.375 47.234375 -36.46875 C 48.003906 -35.5625 48.164062 -34.65625 47.71875 -33.75 C 46.90625 -32.21875 45.820312 -30.09375 44.46875 -27.375 C 43.113281 -24.664062 41.484375 -21.726562 39.578125 -18.5625 C 37.679688 -15.40625 35.46875 -12.425781 32.9375 -9.625 C 30.40625 -6.820312 27.535156 -4.515625 24.328125 -2.703125 C 21.117188 -0.898438 17.570312 0 13.6875 0 Z M 13.6875 0 "/></g></g></g><g fill="#fefae0" fill-opacity="1"><g transform="translate(315.013409, 115.183191)"><g><path d="M 55.71875 -37.140625 C 56.4375 -38.222656 57.359375 -38.609375 58.484375 -38.296875 C 59.617188 -37.984375 60.570312 -37.375 61.34375 -36.46875 C 62.113281 -35.5625 62.269531 -34.65625 61.8125 -33.75 C 61.09375 -32.21875 60.03125 -30.070312 58.625 -27.3125 C 57.226562 -24.5625 55.46875 -21.625 53.34375 -18.5 C 51.21875 -15.382812 48.640625 -12.425781 45.609375 -9.625 C 42.585938 -6.820312 39.109375 -4.539062 35.171875 -2.78125 C 31.242188 -1.019531 26.75 -0.140625 21.6875 -0.140625 C 15.726562 -0.140625 11.003906 -1.40625 7.515625 -3.9375 C 4.035156 -6.46875 1.664062 -9.675781 0.40625 -13.5625 C -0.851562 -17.445312 -1.210938 -21.507812 -0.671875 -25.75 C -0.128906 -30 1.132812 -33.796875 3.125 -37.140625 L 3.65625 -37.953125 C 6.101562 -41.210938 8.519531 -44.757812 10.90625 -48.59375 C 13.300781 -52.4375 15.765625 -56.050781 18.296875 -59.4375 C 20.828125 -62.832031 23.445312 -65.632812 26.15625 -67.84375 C 28.875 -70.0625 31.675781 -71.171875 34.5625 -71.171875 C 38.8125 -71.171875 41.953125 -70.175781 43.984375 -68.1875 C 46.023438 -66.195312 47 -64.117188 46.90625 -61.953125 C 46.90625 -60.867188 46.429688 -59.960938 45.484375 -59.234375 C 44.535156 -58.515625 43.40625 -57.859375 42.09375 -57.265625 C 40.78125 -56.679688 39.625 -55.957031 38.625 -55.09375 C 37.632812 -54.238281 37.140625 -53.132812 37.140625 -51.78125 C 37.140625 -50.96875 37.769531 -49.34375 39.03125 -46.90625 C 40.300781 -44.46875 41.660156 -41.734375 43.109375 -38.703125 C 44.554688 -35.671875 45.550781 -32.753906 46.09375 -29.953125 C 48.164062 -30.046875 49.945312 -30.769531 51.4375 -32.125 C 52.9375 -33.476562 54.363281 -35.148438 55.71875 -37.140625 Z M 16.8125 -28.0625 C 19.789062 -28.0625 22.09375 -29.007812 23.71875 -30.90625 C 25.34375 -32.800781 26.15625 -35.148438 26.15625 -37.953125 C 26.15625 -39.578125 25.90625 -41.25 25.40625 -42.96875 C 24.914062 -44.6875 24.175781 -46.453125 23.1875 -48.265625 C 22.28125 -50.066406 21.191406 -50.066406 19.921875 -48.265625 C 18.210938 -45.734375 16.382812 -43.175781 14.4375 -40.59375 C 12.488281 -38.019531 10.75 -35.738281 9.21875 -33.75 C 9.21875 -32.125 9.914062 -30.769531 11.3125 -29.6875 C 12.71875 -28.601562 14.550781 -28.0625 16.8125 -28.0625 Z M 16.8125 -28.0625 "/></g></g></g><g fill="#fefae0" fill-opacity="1"><g transform="translate(367.477341, 115.183191)"><g><path d="M 21.421875 -61.546875 C 19.066406 -61.546875 17.03125 -62.175781 15.3125 -63.4375 C 13.601562 -64.707031 12.75 -66.472656 12.75 -68.734375 C 12.75 -70.453125 13.242188 -71.894531 14.234375 -73.0625 C 15.222656 -74.238281 16.535156 -74.691406 18.171875 -74.421875 C 22.140625 -73.785156 25.320312 -73.960938 27.71875 -74.953125 C 30.113281 -75.953125 31.765625 -77.148438 32.671875 -78.546875 C 33.578125 -79.953125 33.664062 -80.972656 32.9375 -81.609375 C 32.394531 -82.054688 31.875 -81.941406 31.375 -81.265625 C 30.882812 -80.585938 29.78125 -80.25 28.0625 -80.25 C 26.070312 -80.25 24.0625 -81.148438 22.03125 -82.953125 C 20 -84.765625 18.984375 -87.207031 18.984375 -90.28125 C 18.984375 -93.445312 20.109375 -96.132812 22.359375 -98.34375 C 24.617188 -100.5625 27.285156 -101.671875 30.359375 -101.671875 C 33.523438 -101.671875 36.210938 -100.425781 38.421875 -97.9375 C 40.640625 -95.457031 41.75 -91.957031 41.75 -87.4375 C 41.75 -82.5625 40.773438 -78.15625 38.828125 -74.21875 C 36.890625 -70.289062 34.359375 -67.195312 31.234375 -64.9375 C 28.117188 -62.675781 24.847656 -61.546875 21.421875 -61.546875 Z M 21.421875 -61.546875 "/></g></g></g><g fill="#fefae0" fill-opacity="1"><g transform="translate(410.587201, 115.183191)"><g/></g></g><g fill="#fefae0" fill-opacity="1"><g transform="translate(459.390824, 115.183191)"><g><path d="M 16.53125 5.6875 C 11.289062 5.6875 7.066406 4.578125 3.859375 2.359375 C 0.648438 0.148438 -1.695312 -2.710938 -3.1875 -6.234375 C -4.675781 -9.753906 -5.421875 -13.367188 -5.421875 -17.078125 C -5.421875 -20.785156 -4.675781 -24.332031 -3.1875 -27.71875 C -1.695312 -31.113281 0.398438 -33.867188 3.109375 -35.984375 C 5.828125 -38.109375 8.992188 -39.171875 12.609375 -39.171875 C 13.960938 -39.171875 14.640625 -38.628906 14.640625 -37.546875 C 14.640625 -34.566406 15.742188 -32.148438 17.953125 -30.296875 C 20.171875 -28.441406 22.863281 -27.515625 26.03125 -27.515625 C 29.738281 -27.515625 33.671875 -29.1875 37.828125 -32.53125 C 41.984375 -35.875 46.046875 -41.929688 50.015625 -50.703125 C 51.191406 -53.773438 52.390625 -56.957031 53.609375 -60.25 C 54.828125 -63.550781 56.023438 -66.648438 57.203125 -69.546875 C 58.109375 -71.890625 59.304688 -73.554688 60.796875 -74.546875 C 62.285156 -75.546875 64.023438 -76.046875 66.015625 -76.046875 C 68.910156 -76.046875 70.804688 -75.390625 71.703125 -74.078125 C 72.609375 -72.773438 72.703125 -70.992188 71.984375 -68.734375 C 70.804688 -65.390625 69.878906 -62.5625 69.203125 -60.25 C 68.523438 -57.945312 68.097656 -55.984375 67.921875 -54.359375 C 67.828125 -52.734375 68.253906 -51.71875 69.203125 -51.3125 C 70.148438 -50.90625 71.4375 -50.703125 73.0625 -50.703125 C 75.863281 -50.703125 78.484375 -51.445312 80.921875 -52.9375 C 83.367188 -54.425781 85.335938 -56.457031 86.828125 -59.03125 C 88.316406 -61.613281 89.0625 -64.484375 89.0625 -67.640625 C 89.0625 -73.160156 86.800781 -77.046875 82.28125 -79.296875 C 77.769531 -81.554688 72.03125 -82.6875 65.0625 -82.6875 C 59.101562 -82.6875 54.085938 -81.804688 50.015625 -80.046875 C 45.953125 -78.285156 42.859375 -76.046875 40.734375 -73.328125 C 38.609375 -70.617188 37.546875 -67.820312 37.546875 -64.9375 C 37.546875 -63.125 38.039062 -61.609375 39.03125 -60.390625 C 40.03125 -59.171875 41.253906 -58.5625 42.703125 -58.5625 C 43.335938 -57.113281 43.382812 -55.375 42.84375 -53.34375 C 42.300781 -51.3125 41.238281 -49.367188 39.65625 -47.515625 C 38.070312 -45.660156 36.035156 -44.097656 33.546875 -42.828125 C 31.066406 -41.566406 28.195312 -40.9375 24.9375 -40.9375 C 21.238281 -40.9375 18.125 -41.816406 15.59375 -43.578125 C 13.0625 -45.347656 11.160156 -47.675781 9.890625 -50.5625 C 8.628906 -53.457031 8 -56.53125 8 -59.78125 C 8 -64.570312 9.375 -69.382812 12.125 -74.21875 C 14.882812 -79.050781 18.835938 -83.476562 23.984375 -87.5 C 29.140625 -91.519531 35.378906 -94.75 42.703125 -97.1875 C 50.023438 -99.632812 58.296875 -100.859375 67.515625 -100.859375 C 82.335938 -100.859375 93.316406 -98.257812 100.453125 -93.0625 C 107.585938 -87.863281 111.15625 -80.703125 111.15625 -71.578125 C 111.15625 -64.078125 109.234375 -57.703125 105.390625 -52.453125 C 101.554688 -47.210938 96.296875 -44.050781 89.609375 -42.96875 C 87.710938 -42.695312 86.445312 -42.378906 85.8125 -42.015625 C 85.175781 -41.660156 84.859375 -41.253906 84.859375 -40.796875 C 84.859375 -40.253906 85.109375 -39.828125 85.609375 -39.515625 C 86.109375 -39.203125 86.785156 -38.707031 87.640625 -38.03125 C 88.492188 -37.351562 89.375 -36.15625 90.28125 -34.4375 C 91.28125 -32.625 92.476562 -31.109375 93.875 -29.890625 C 95.28125 -28.671875 97.289062 -28.0625 99.90625 -28.0625 C 102.976562 -28.0625 105.484375 -28.894531 107.421875 -30.5625 C 109.367188 -32.238281 111.25 -34.429688 113.0625 -37.140625 C 113.78125 -38.222656 114.703125 -38.628906 115.828125 -38.359375 C 116.960938 -38.085938 117.890625 -37.476562 118.609375 -36.53125 C 119.335938 -35.582031 119.519531 -34.65625 119.15625 -33.75 C 117.4375 -29.6875 115.332031 -25.644531 112.84375 -21.625 C 110.363281 -17.601562 107.632812 -13.960938 104.65625 -10.703125 C 101.675781 -7.453125 98.488281 -4.851562 95.09375 -2.90625 C 91.707031 -0.96875 88.25 0 84.71875 0 C 80.925781 0 77.675781 -1.351562 74.96875 -4.0625 C 72.257812 -6.78125 70.675781 -11.210938 70.21875 -17.359375 C 70.039062 -19.253906 69.882812 -21.398438 69.75 -23.796875 C 69.613281 -26.191406 69.382812 -28.445312 69.0625 -30.5625 C 68.75 -32.6875 68.140625 -34.445312 67.234375 -35.84375 C 66.335938 -37.25 65.070312 -37.953125 63.4375 -37.953125 C 62.445312 -37.953125 61.703125 -37.679688 61.203125 -37.140625 C 60.703125 -36.597656 60.273438 -35.832031 59.921875 -34.84375 C 57.117188 -27.15625 53.546875 -20.257812 49.203125 -14.15625 C 44.867188 -8.0625 39.96875 -3.234375 34.5 0.328125 C 29.03125 3.898438 23.039062 5.6875 16.53125 5.6875 Z M 16.53125 5.6875 "/></g></g></g><g fill="#fefae0" fill-opacity="1"><g transform="translate(569.334593, 115.183191)"><g><path d="M 25.484375 0 C 20.066406 0 15.613281 -1.21875 12.125 -3.65625 C 8.644531 -6.101562 6.066406 -9.335938 4.390625 -13.359375 C 2.722656 -17.378906 1.910156 -21.804688 1.953125 -26.640625 C 2.003906 -31.472656 2.84375 -36.304688 4.46875 -41.140625 C 6.09375 -45.972656 8.441406 -50.398438 11.515625 -54.421875 C 14.585938 -58.441406 18.316406 -61.671875 22.703125 -64.109375 C 27.085938 -66.554688 32.035156 -67.78125 37.546875 -67.78125 C 41.796875 -67.78125 45.253906 -66.988281 47.921875 -65.40625 C 50.585938 -63.820312 52.550781 -61.71875 53.8125 -59.09375 C 55.082031 -56.476562 55.71875 -53.679688 55.71875 -50.703125 C 55.71875 -47.441406 54.8125 -44.1875 53 -40.9375 C 51.195312 -37.6875 48.664062 -35 45.40625 -32.875 C 42.15625 -30.75 38.316406 -29.6875 33.890625 -29.6875 C 31.992188 -29.6875 30.140625 -29.820312 28.328125 -30.09375 C 26.523438 -30.363281 24.851562 -30.953125 23.3125 -31.859375 C 22.863281 -32.128906 22.367188 -32.148438 21.828125 -31.921875 C 21.285156 -31.703125 21.015625 -31.140625 21.015625 -30.234375 C 21.015625 -27.878906 22.390625 -26.09375 25.140625 -24.875 C 27.898438 -23.65625 31.222656 -23.046875 35.109375 -23.046875 C 39.722656 -23.046875 44.488281 -24.21875 49.40625 -26.5625 C 54.332031 -28.914062 58.332031 -32.441406 61.40625 -37.140625 C 62.132812 -38.222656 63.082031 -38.609375 64.25 -38.296875 C 65.425781 -37.984375 66.398438 -37.375 67.171875 -36.46875 C 67.941406 -35.5625 68.054688 -34.65625 67.515625 -33.75 C 61.546875 -22.726562 55.015625 -14.347656 47.921875 -8.609375 C 40.828125 -2.867188 33.347656 0 25.484375 0 Z M 30.359375 -39.859375 C 32.984375 -39.859375 35.039062 -40.691406 36.53125 -42.359375 C 38.019531 -44.035156 38.765625 -45.734375 38.765625 -47.453125 C 38.765625 -48.984375 38.242188 -50.289062 37.203125 -51.375 C 36.171875 -52.457031 34.613281 -53 32.53125 -53 C 29.914062 -53 27.835938 -52.1875 26.296875 -50.5625 C 24.765625 -48.9375 24 -47.21875 24 -45.40625 C 24 -43.96875 24.515625 -42.679688 25.546875 -41.546875 C 26.585938 -40.421875 28.191406 -39.859375 30.359375 -39.859375 Z M 30.359375 -39.859375 "/></g></g></g><g fill="#fefae0" fill-opacity="1"><g transform="translate(627.627834, 115.183191)"><g><path d="M 30.765625 27.25 C 28.148438 27.25 25.957031 26.023438 24.1875 23.578125 C 22.425781 21.140625 22.132812 17.4375 23.3125 12.46875 C 24.125 9.3125 25.253906 6.421875 26.703125 3.796875 C 28.148438 1.171875 29.640625 -1.3125 31.171875 -3.65625 C 32.710938 -6.007812 34.023438 -8.25 35.109375 -10.375 C 36.191406 -12.5 36.734375 -14.644531 36.734375 -16.8125 C 36.734375 -17.988281 36.4375 -18.53125 35.84375 -18.4375 C 35.257812 -18.34375 34.695312 -17.664062 34.15625 -16.40625 C 32.164062 -11.4375 29.65625 -7.457031 26.625 -4.46875 C 23.601562 -1.488281 20.015625 0 15.859375 0 C 11.160156 0 7.410156 -1.847656 4.609375 -5.546875 C 1.804688 -9.253906 0.40625 -13.820312 0.40625 -19.25 C 0.40625 -24.3125 1.128906 -29.644531 2.578125 -35.25 C 4.023438 -40.851562 6.21875 -46.113281 9.15625 -51.03125 C 12.09375 -55.957031 15.75 -59.976562 20.125 -63.09375 C 24.507812 -66.21875 29.59375 -67.78125 35.375 -67.78125 C 38.09375 -67.78125 40.195312 -67.53125 41.6875 -67.03125 C 43.175781 -66.539062 44.304688 -65.929688 45.078125 -65.203125 C 45.847656 -64.484375 46.503906 -63.875 47.046875 -63.375 C 47.585938 -62.875 48.304688 -62.625 49.203125 -62.625 C 50.742188 -62.625 51.988281 -63.050781 52.9375 -63.90625 C 53.882812 -64.769531 54.945312 -65.628906 56.125 -66.484375 C 57.300781 -67.347656 58.925781 -67.78125 61 -67.78125 C 62.8125 -67.78125 64.054688 -67.328125 64.734375 -66.421875 C 65.410156 -65.515625 65.75 -64.296875 65.75 -62.765625 C 65.75 -61.140625 65.273438 -59.304688 64.328125 -57.265625 C 63.378906 -55.234375 62.132812 -52.660156 60.59375 -49.546875 C 59.0625 -46.429688 57.410156 -42.5 55.640625 -37.75 C 53.878906 -33.007812 52.140625 -27.160156 50.421875 -20.203125 C 49.253906 -15.316406 48.171875 -10.882812 47.171875 -6.90625 C 46.179688 -2.9375 45.234375 0.898438 44.328125 4.609375 C 43.421875 8.316406 42.472656 12.289062 41.484375 16.53125 C 40.578125 20.238281 39.128906 22.953125 37.140625 24.671875 C 35.148438 26.390625 33.023438 27.25 30.765625 27.25 Z M 28.203125 -28.0625 C 30.460938 -28.0625 32.445312 -28.738281 34.15625 -30.09375 C 35.875 -31.445312 37.226562 -33.09375 38.21875 -35.03125 C 39.21875 -36.976562 39.71875 -38.898438 39.71875 -40.796875 C 39.71875 -42.785156 39.128906 -44.476562 37.953125 -45.875 C 36.773438 -47.28125 34.878906 -47.984375 32.265625 -47.984375 C 30.097656 -47.984375 28.175781 -47.347656 26.5 -46.078125 C 24.832031 -44.816406 23.519531 -43.210938 22.5625 -41.265625 C 21.613281 -39.328125 21.140625 -37.363281 21.140625 -35.375 C 21.140625 -33.394531 21.679688 -31.679688 22.765625 -30.234375 C 23.859375 -28.785156 25.671875 -28.0625 28.203125 -28.0625 Z M 28.203125 -28.0625 "/></g></g></g><g fill="#fefae0" fill-opacity="1"><g transform="translate(690.1236, 115.183191)"><g><path d="M 70.90625 -37.140625 C 71.625 -38.222656 72.570312 -38.609375 73.75 -38.296875 C 74.925781 -37.984375 75.894531 -37.375 76.65625 -36.46875 C 77.425781 -35.5625 77.539062 -34.65625 77 -33.75 C 76.09375 -32.3125 75.003906 -30.210938 73.734375 -27.453125 C 72.472656 -24.691406 70.960938 -21.753906 69.203125 -18.640625 C 67.441406 -15.523438 65.382812 -12.539062 63.03125 -9.6875 C 60.6875 -6.84375 58.046875 -4.515625 55.109375 -2.703125 C 52.171875 -0.898438 48.847656 0 45.140625 0 C 37.367188 0 33.484375 -4.925781 33.484375 -14.78125 C 33.484375 -16.5 33.617188 -18.347656 33.890625 -20.328125 C 32.441406 -17.171875 30.675781 -14.03125 28.59375 -10.90625 C 26.519531 -7.789062 24.128906 -5.21875 21.421875 -3.1875 C 18.710938 -1.15625 15.59375 -0.140625 12.0625 -0.140625 C 8.445312 -0.140625 5.554688 -1.445312 3.390625 -4.0625 C 1.222656 -6.6875 0.140625 -10.753906 0.140625 -16.265625 C 0.140625 -18.347656 0.296875 -21.238281 0.609375 -24.9375 C 0.921875 -28.644531 1.757812 -32.710938 3.125 -37.140625 C 6.28125 -47.085938 9.460938 -54.679688 12.671875 -59.921875 C 15.878906 -65.160156 19.382812 -67.78125 23.1875 -67.78125 C 25.988281 -67.78125 27.390625 -65.972656 27.390625 -62.359375 C 27.390625 -59.460938 26.867188 -56.523438 25.828125 -53.546875 C 24.785156 -50.566406 23.765625 -47.648438 22.765625 -44.796875 C 21.773438 -41.953125 21.28125 -39.175781 21.28125 -36.46875 C 21.28125 -34.570312 21.664062 -33.078125 22.4375 -31.984375 C 23.207031 -30.898438 24.722656 -30.359375 26.984375 -30.359375 C 29.421875 -30.359375 31.632812 -31.101562 33.625 -32.59375 C 35.613281 -34.09375 37.191406 -36.515625 38.359375 -39.859375 L 38.5 -40.390625 C 41.300781 -49.253906 44.144531 -56.035156 47.03125 -60.734375 C 49.925781 -65.429688 53.09375 -67.78125 56.53125 -67.78125 C 57.882812 -67.78125 58.921875 -67.375 59.640625 -66.5625 C 60.367188 -65.75 60.734375 -64.347656 60.734375 -62.359375 C 60.734375 -59.828125 60.210938 -57.09375 59.171875 -54.15625 C 58.128906 -51.21875 57.109375 -48.300781 56.109375 -45.40625 C 55.117188 -42.519531 54.625 -39.945312 54.625 -37.6875 C 54.625 -35.15625 55.320312 -33.28125 56.71875 -32.0625 C 58.125 -30.84375 59.734375 -30.234375 61.546875 -30.234375 C 63.617188 -30.234375 65.351562 -30.882812 66.75 -32.1875 C 68.15625 -33.5 69.539062 -35.148438 70.90625 -37.140625 Z M 70.90625 -37.140625 "/></g></g></g><g fill="#fefae0" fill-opacity="1"><g transform="translate(757.906461, 115.183191)"><g><path d="M 25.484375 0 C 20.066406 0 15.613281 -1.21875 12.125 -3.65625 C 8.644531 -6.101562 6.066406 -9.335938 4.390625 -13.359375 C 2.722656 -17.378906 1.910156 -21.804688 1.953125 -26.640625 C 2.003906 -31.472656 2.84375 -36.304688 4.46875 -41.140625 C 6.09375 -45.972656 8.441406 -50.398438 11.515625 -54.421875 C 14.585938 -58.441406 18.316406 -61.671875 22.703125 -64.109375 C 27.085938 -66.554688 32.035156 -67.78125 37.546875 -67.78125 C 41.796875 -67.78125 45.253906 -66.988281 47.921875 -65.40625 C 50.585938 -63.820312 52.550781 -61.71875 53.8125 -59.09375 C 55.082031 -56.476562 55.71875 -53.679688 55.71875 -50.703125 C 55.71875 -47.441406 54.8125 -44.1875 53 -40.9375 C 51.195312 -37.6875 48.664062 -35 45.40625 -32.875 C 42.15625 -30.75 38.316406 -29.6875 33.890625 -29.6875 C 31.992188 -29.6875 30.140625 -29.820312 28.328125 -30.09375 C 26.523438 -30.363281 24.851562 -30.953125 23.3125 -31.859375 C 22.863281 -32.128906 22.367188 -32.148438 21.828125 -31.921875 C 21.285156 -31.703125 21.015625 -31.140625 21.015625 -30.234375 C 21.015625 -27.878906 22.390625 -26.09375 25.140625 -24.875 C 27.898438 -23.65625 31.222656 -23.046875 35.109375 -23.046875 C 39.722656 -23.046875 44.488281 -24.21875 49.40625 -26.5625 C 54.332031 -28.914062 58.332031 -32.441406 61.40625 -37.140625 C 62.132812 -38.222656 63.082031 -38.609375 64.25 -38.296875 C 65.425781 -37.984375 66.398438 -37.375 67.171875 -36.46875 C 67.941406 -35.5625 68.054688 -34.65625 67.515625 -33.75 C 61.546875 -22.726562 55.015625 -14.347656 47.921875 -8.609375 C 40.828125 -2.867188 33.347656 0 25.484375 0 Z M 30.359375 -39.859375 C 32.984375 -39.859375 35.039062 -40.691406 36.53125 -42.359375 C 38.019531 -44.035156 38.765625 -45.734375 38.765625 -47.453125 C 38.765625 -48.984375 38.242188 -50.289062 37.203125 -51.375 C 36.171875 -52.457031 34.613281 -53 32.53125 -53 C 29.914062 -53 27.835938 -52.1875 26.296875 -50.5625 C 24.765625 -48.9375 24 -47.21875 24 -45.40625 C 24 -43.96875 24.515625 -42.679688 25.546875 -41.546875 C 26.585938 -40.421875 28.191406 -39.859375 30.359375 -39.859375 Z M 30.359375 -39.859375 "/></g></g></g><g fill="#fefae0" fill-opacity="1"><g transform="translate(816.199702, 115.183191)"><g><path d="M 55.71875 -37.140625 C 56.4375 -38.222656 57.359375 -38.609375 58.484375 -38.296875 C 59.617188 -37.984375 60.570312 -37.375 61.34375 -36.46875 C 62.113281 -35.5625 62.269531 -34.65625 61.8125 -33.75 C 61.09375 -32.21875 60.03125 -30.070312 58.625 -27.3125 C 57.226562 -24.5625 55.46875 -21.625 53.34375 -18.5 C 51.21875 -15.382812 48.640625 -12.425781 45.609375 -9.625 C 42.585938 -6.820312 39.109375 -4.539062 35.171875 -2.78125 C 31.242188 -1.019531 26.75 -0.140625 21.6875 -0.140625 C 15.726562 -0.140625 11.003906 -1.40625 7.515625 -3.9375 C 4.035156 -6.46875 1.664062 -9.675781 0.40625 -13.5625 C -0.851562 -17.445312 -1.210938 -21.507812 -0.671875 -25.75 C -0.128906 -30 1.132812 -33.796875 3.125 -37.140625 L 3.65625 -37.953125 C 6.101562 -41.210938 8.519531 -44.757812 10.90625 -48.59375 C 13.300781 -52.4375 15.765625 -56.050781 18.296875 -59.4375 C 20.828125 -62.832031 23.445312 -65.632812 26.15625 -67.84375 C 28.875 -70.0625 31.675781 -71.171875 34.5625 -71.171875 C 38.8125 -71.171875 41.953125 -70.175781 43.984375 -68.1875 C 46.023438 -66.195312 47 -64.117188 46.90625 -61.953125 C 46.90625 -60.867188 46.429688 -59.960938 45.484375 -59.234375 C 44.535156 -58.515625 43.40625 -57.859375 42.09375 -57.265625 C 40.78125 -56.679688 39.625 -55.957031 38.625 -55.09375 C 37.632812 -54.238281 37.140625 -53.132812 37.140625 -51.78125 C 37.140625 -50.96875 37.769531 -49.34375 39.03125 -46.90625 C 40.300781 -44.46875 41.660156 -41.734375 43.109375 -38.703125 C 44.554688 -35.671875 45.550781 -32.753906 46.09375 -29.953125 C 48.164062 -30.046875 49.945312 -30.769531 51.4375 -32.125 C 52.9375 -33.476562 54.363281 -35.148438 55.71875 -37.140625 Z M 16.8125 -28.0625 C 19.789062 -28.0625 22.09375 -29.007812 23.71875 -30.90625 C 25.34375 -32.800781 26.15625 -35.148438 26.15625 -37.953125 C 26.15625 -39.578125 25.90625 -41.25 25.40625 -42.96875 C 24.914062 -44.6875 24.175781 -46.453125 23.1875 -48.265625 C 22.28125 -50.066406 21.191406 -50.066406 19.921875 -48.265625 C 18.210938 -45.734375 16.382812 -43.175781 14.4375 -40.59375 C 12.488281 -38.019531 10.75 -35.738281 9.21875 -33.75 C 9.21875 -32.125 9.914062 -30.769531 11.3125 -29.6875 C 12.71875 -28.601562 14.550781 -28.0625 16.8125 -28.0625 Z M 16.8125 -28.0625 "/></g></g></g><g fill="#fefae0" fill-opacity="1"><g transform="translate(868.663611, 115.183191)"><g><path d="M 13.6875 0 C 8.625 0 4.894531 -1.554688 2.5 -4.671875 C 0.113281 -7.796875 -1.078125 -11.863281 -1.078125 -16.875 C -1.078125 -21.894531 -0.0859375 -27.296875 1.890625 -33.078125 C 3.066406 -36.515625 4.378906 -40.21875 5.828125 -44.1875 C 7.273438 -48.164062 8.859375 -52.503906 10.578125 -57.203125 C 8.585938 -57.203125 7.070312 -57.722656 6.03125 -58.765625 C 4.988281 -59.804688 4.3125 -61.023438 4 -62.421875 C 3.6875 -63.828125 3.6875 -65.046875 4 -66.078125 C 4.3125 -67.117188 4.875 -67.640625 5.6875 -67.640625 C 9.664062 -67.640625 12.785156 -68.742188 15.046875 -70.953125 C 17.304688 -73.171875 18.890625 -75.503906 19.796875 -77.953125 C 21.421875 -81.921875 23 -84.425781 24.53125 -85.46875 C 26.070312 -86.507812 27.703125 -87.03125 29.421875 -87.03125 C 31.953125 -87.03125 33.53125 -85.96875 34.15625 -83.84375 C 34.789062 -81.71875 34.070312 -78.53125 32 -74.28125 C 31 -72.113281 30.453125 -70.460938 30.359375 -69.328125 C 30.273438 -68.203125 30.863281 -67.640625 32.125 -67.640625 L 39.171875 -67.640625 C 40.078125 -67.640625 40.664062 -67.003906 40.9375 -65.734375 C 41.207031 -64.472656 41.179688 -63.03125 40.859375 -61.40625 C 40.546875 -59.78125 39.960938 -58.332031 39.109375 -57.0625 C 38.253906 -55.800781 37.144531 -55.171875 35.78125 -55.171875 C 31.625 -55.171875 28.550781 -55.007812 26.5625 -54.6875 C 24.582031 -54.375 23.179688 -53.582031 22.359375 -52.3125 C 21.546875 -51.050781 20.691406 -48.882812 19.796875 -45.8125 C 18.347656 -41.113281 18.550781 -37.363281 20.40625 -34.5625 C 22.257812 -31.757812 25.171875 -30.359375 29.140625 -30.359375 C 31.859375 -30.359375 34.273438 -30.96875 36.390625 -32.1875 C 38.515625 -33.414062 40.257812 -35.066406 41.625 -37.140625 C 42.34375 -38.222656 43.265625 -38.609375 44.390625 -38.296875 C 45.523438 -37.984375 46.472656 -37.375 47.234375 -36.46875 C 48.003906 -35.5625 48.164062 -34.65625 47.71875 -33.75 C 46.90625 -32.21875 45.820312 -30.09375 44.46875 -27.375 C 43.113281 -24.664062 41.484375 -21.726562 39.578125 -18.5625 C 37.679688 -15.40625 35.46875 -12.425781 32.9375 -9.625 C 30.40625 -6.820312 27.535156 -4.515625 24.328125 -2.703125 C 21.117188 -0.898438 17.570312 0 13.6875 0 Z M 13.6875 0 "/></g></g></g><g fill="#fefae0" fill-opacity="1"><g transform="translate(907.164279, 115.183191)"><g><path d="M 55.71875 -37.140625 C 56.4375 -38.222656 57.359375 -38.609375 58.484375 -38.296875 C 59.617188 -37.984375 60.570312 -37.375 61.34375 -36.46875 C 62.113281 -35.5625 62.269531 -34.65625 61.8125 -33.75 C 61.09375 -32.21875 60.03125 -30.070312 58.625 -27.3125 C 57.226562 -24.5625 55.46875 -21.625 53.34375 -18.5 C 51.21875 -15.382812 48.640625 -12.425781 45.609375 -9.625 C 42.585938 -6.820312 39.109375 -4.539062 35.171875 -2.78125 C 31.242188 -1.019531 26.75 -0.140625 21.6875 -0.140625 C 15.726562 -0.140625 11.003906 -1.40625 7.515625 -3.9375 C 4.035156 -6.46875 1.664062 -9.675781 0.40625 -13.5625 C -0.851562 -17.445312 -1.210938 -21.507812 -0.671875 -25.75 C -0.128906 -30 1.132812 -33.796875 3.125 -37.140625 L 3.65625 -37.953125 C 6.101562 -41.210938 8.519531 -44.757812 10.90625 -48.59375 C 13.300781 -52.4375 15.765625 -56.050781 18.296875 -59.4375 C 20.828125 -62.832031 23.445312 -65.632812 26.15625 -67.84375 C 28.875 -70.0625 31.675781 -71.171875 34.5625 -71.171875 C 38.8125 -71.171875 41.953125 -70.175781 43.984375 -68.1875 C 46.023438 -66.195312 47 -64.117188 46.90625 -61.953125 C 46.90625 -60.867188 46.429688 -59.960938 45.484375 -59.234375 C 44.535156 -58.515625 43.40625 -57.859375 42.09375 -57.265625 C 40.78125 -56.679688 39.625 -55.957031 38.625 -55.09375 C 37.632812 -54.238281 37.140625 -53.132812 37.140625 -51.78125 C 37.140625 -50.96875 37.769531 -49.34375 39.03125 -46.90625 C 40.300781 -44.46875 41.660156 -41.734375 43.109375 -38.703125 C 44.554688 -35.671875 45.550781 -32.753906 46.09375 -29.953125 C 48.164062 -30.046875 49.945312 -30.769531 51.4375 -32.125 C 52.9375 -33.476562 54.363281 -35.148438 55.71875 -37.140625 Z M 16.8125 -28.0625 C 19.789062 -28.0625 22.09375 -29.007812 23.71875 -30.90625 C 25.34375 -32.800781 26.15625 -35.148438 26.15625 -37.953125 C 26.15625 -39.578125 25.90625 -41.25 25.40625 -42.96875 C 24.914062 -44.6875 24.175781 -46.453125 23.1875 -48.265625 C 22.28125 -50.066406 21.191406 -50.066406 19.921875 -48.265625 C 18.210938 -45.734375 16.382812 -43.175781 14.4375 -40.59375 C 12.488281 -38.019531 10.75 -35.738281 9.21875 -33.75 C 9.21875 -32.125 9.914062 -30.769531 11.3125 -29.6875 C 12.71875 -28.601562 14.550781 -28.0625 16.8125 -28.0625 Z M 16.8125 -28.0625 "/></g></g></g></svg>