<svg xmlns="http://www.w3.org/2000/svg" xmlns:xlink="http://www.w3.org/1999/xlink" width="1500" zoomAndPan="magnify" viewBox="0 0 1125 179.999997" height="240" preserveAspectRatio="xMidYMid meet" version="1.0"><defs><g/></defs><path stroke-linecap="butt" transform="matrix(0.75, 0, 0, 0.75, 9.85655, 48.681182)" fill="none" stroke-linejoin="miter" d="M 178.623569 -47.981162 C 181.618361 -47.981162 183.639195 -47.29887 184.691278 -45.929079 C 185.738153 -44.559287 186.264195 -42.569703 186.264195 -39.960328 C 186.264195 -34.991578 185.087111 -30.278036 182.732945 -25.819702 C 180.373569 -21.392619 176.889194 -17.814494 172.269402 -15.07491 C 167.654819 -12.335327 162.019402 -10.965535 155.363151 -10.965535 C 150.779818 -10.965535 146.785026 -11.491576 143.373567 -12.54366 C 139.998567 -13.595743 136.722525 -14.772827 133.535025 -16.080118 C 130.352733 -17.382202 126.8319 -18.54366 122.982941 -19.564494 C 119.128774 -20.616577 114.399607 -21.142619 108.79544 -21.142619 C 103.066273 -21.142619 97.649606 -20.517619 92.555856 -19.278035 C 87.462105 -18.069702 83.389189 -16.158243 80.331897 -13.548868 C 77.274605 -10.934285 75.743355 -7.54366 75.743355 -3.371784 C 75.743355 -0.762409 76.462105 1.435508 77.894397 3.216758 C 79.326688 4.966758 81.076688 5.846966 83.149605 5.846966 C 84.07148 7.914675 84.13398 10.4303 83.342314 13.388633 C 82.576689 16.320925 81.045438 19.123009 78.753772 21.794884 C 76.462105 24.471967 73.519396 26.716759 69.920438 28.529259 C 66.352729 30.346968 62.227729 31.253218 57.550645 31.253218 C 52.201687 31.253218 47.696478 29.998009 44.029811 27.482384 C 40.368353 24.935509 37.633977 21.576134 35.816269 17.404259 C 34.003769 13.201133 33.097519 8.758425 33.097519 4.076133 C 33.097519 -5.189493 36.149602 -13.720743 42.264186 -21.522827 C 48.41002 -29.356161 57.436062 -35.61137 69.347521 -40.293662 C 81.285022 -45.007204 95.805856 -47.36137 112.904815 -47.36137 C 119.019399 -47.36137 124.191274 -47.23637 128.42565 -46.981162 C 132.691275 -46.725954 136.7069 -46.45512 140.462109 -46.168662 C 144.253776 -45.913454 148.357942 -45.783245 152.785026 -45.783245 C 159.852735 -45.783245 165.295444 -46.153037 169.11836 -46.882204 C 172.972527 -47.616579 176.139194 -47.981162 178.623569 -47.981162 Z M 146.764192 24.998009 C 150.649609 24.998009 153.212109 25.680301 154.456901 27.050093 C 155.696485 28.419884 156.321485 30.154259 156.321485 32.258426 C 156.321485 34.451135 155.633985 36.794885 154.264193 39.27926 C 152.894401 41.763635 150.748568 43.893844 147.816276 45.675094 C 144.889192 47.430302 141.1444 48.305302 136.592317 48.305302 C 133.441275 48.305302 130.498566 48.206344 127.758983 48.018844 C 125.019399 47.794885 122.342316 47.555302 119.732941 47.300094 C 118.842316 49.784469 117.904816 52.300094 116.915232 54.846969 C 115.930857 57.393844 114.910024 59.909469 113.85794 62.393845 C 106.441273 80.128221 97.602731 93.201138 87.35273 101.607389 C 77.128772 110.013639 65.889187 114.216764 53.633978 114.216764 C 44.623561 114.216764 37.316269 112.607389 31.712102 109.388639 C 26.107935 106.206347 22.02981 102.081347 19.482935 97.018847 C 16.93606 91.925096 15.660018 86.706346 15.660018 81.357387 C 15.660018 76.008429 16.743351 70.893845 18.910018 66.024053 C 21.045435 61.117803 24.066268 57.138636 27.982935 54.081344 C 31.899602 50.992802 36.472519 49.451136 41.691269 49.451136 C 43.633978 49.451136 44.607936 50.232386 44.607936 51.789677 C 44.607936 56.123011 46.295436 59.623011 49.670437 62.300095 C 53.076687 64.97197 57.59752 66.310512 63.232937 66.310512 C 68.295438 66.310512 73.88398 64.513636 79.998563 60.914678 C 86.139189 57.315719 91.633981 51.471969 96.472523 43.383427 C 95.550648 43.258427 94.628773 43.164677 93.701689 43.096968 C 92.811064 43.034468 91.904814 43.003218 90.982939 43.003218 C 88.623564 43.003218 86.920439 42.320927 85.873564 40.951135 C 84.85273 39.581343 84.342314 37.862593 84.342314 35.789676 C 84.342314 32.893843 85.248564 30.503218 87.066272 28.628218 C 88.910022 26.748009 91.857939 25.810509 95.899606 25.810509 L 104.118356 25.810509 C 105.805857 21.221967 107.456898 16.654259 109.081898 12.102175 C 110.706899 7.550091 112.363149 3.248008 114.050649 -0.793659 C 115.35794 -4.199909 117.092316 -6.621785 119.253774 -8.054076 C 121.420441 -9.486368 123.936066 -10.205118 126.80065 -10.205118 C 131.102733 -10.205118 133.936067 -9.246785 135.305858 -7.335326 C 136.67565 -5.460326 136.8319 -2.897826 135.779817 0.352174 C 134.477733 4.779258 133.139192 9.044883 131.7694 13.154258 C 130.399608 17.258425 128.998566 21.33655 127.566275 25.378217 C 131.73815 25.253217 135.446483 25.154259 138.696484 25.091759 C 141.972525 25.029259 144.665234 24.998009 146.764192 24.998009 Z M 253.753782 52.409469 C 254.519407 51.232386 255.743366 50.805302 257.430866 51.123011 C 259.149616 51.440719 260.633991 52.159469 261.873574 53.274052 C 263.118366 54.383427 263.337116 55.721969 262.540241 57.284469 C 260.727741 61.201136 258.357949 65.242803 255.425657 69.414678 C 252.498574 73.586554 248.837115 77.070929 244.441282 79.873012 C 240.076698 82.675096 234.696489 84.076138 228.295447 84.076138 L 225.956906 84.076138 C 221.149614 90.732388 215.383988 96.050097 208.670446 100.029264 C 201.951696 104.00843 194.930862 105.998014 187.602737 105.998014 C 178.878778 105.998014 171.654819 103.07093 165.920444 97.211555 C 160.191277 91.32093 157.326693 83.300096 157.326693 73.138637 C 157.326693 65.81572 158.660026 58.352178 161.33711 50.742802 C 164.008985 43.096968 167.753777 36.06051 172.561069 29.628218 C 177.399611 23.164676 183.066278 17.977175 189.56107 14.060508 C 196.09232 10.143841 203.269404 8.185508 211.102738 8.185508 C 216.451697 8.185508 221.274614 9.268841 225.576697 11.4303 C 229.873572 13.565717 233.295448 17.1178 235.842323 22.081342 C 238.389198 27.018843 239.66524 33.607385 239.66524 41.857385 C 239.66524 48.763635 238.69649 55.466761 236.753781 61.961553 L 238.087115 61.961553 C 240.956906 61.961553 243.691282 61.216761 246.305865 59.721969 C 248.91524 58.221969 251.399615 55.784469 253.753782 52.409469 Z M 198.779821 65.498011 C 202.029821 65.498011 204.894404 64.529261 207.378779 62.586553 C 209.863155 60.612595 211.821488 58.221969 213.25378 55.419886 C 214.686072 52.617802 215.404822 49.846969 215.404822 47.112594 C 215.404822 44.242802 214.561072 41.81051 212.873571 39.805302 C 211.180863 37.763635 208.446488 36.74801 204.654821 36.74801 C 201.535029 36.74801 198.764196 37.669885 196.347529 39.518843 C 193.925654 41.331343 192.02982 43.638635 190.660028 46.440719 C 189.295445 49.242802 188.607945 52.076136 188.607945 54.940719 C 188.607945 57.810511 189.389195 60.294886 190.946487 62.393845 C 192.508987 64.461553 195.118362 65.498011 198.779821 65.498011 Z M 331.014204 52.409469 C 332.066287 50.852177 333.436079 50.294886 335.123579 50.742802 C 336.811079 51.185511 338.212121 52.060511 339.326704 53.367802 C 340.441287 54.675094 340.597537 55.977178 339.805871 57.284469 C 338.498579 59.383428 336.936079 62.425095 335.123579 66.404262 C 333.30587 70.352178 331.128787 74.586554 328.581912 79.112596 C 326.029828 83.602179 323.05587 87.899055 319.64962 92.00843 C 316.274619 96.112597 312.467327 99.471972 308.232952 102.081347 C 303.998577 104.695931 299.20691 105.998014 293.857951 105.998014 C 288.508993 105.998014 284.258992 104.998014 281.102742 102.992805 C 277.98295 100.951139 275.738159 98.341763 274.368367 95.159472 C 273.003783 91.940721 272.316283 88.711555 272.316283 85.461554 C 272.316283 80.909471 273.003783 76.419887 274.368367 71.992804 C 275.738159 67.53447 277.331909 63.28447 279.144409 59.242803 C 280.993367 55.195928 282.602742 51.487594 283.972534 48.112594 C 285.342326 44.706344 286.024617 41.826135 286.024617 39.46676 C 286.024617 38.451135 285.274617 36.93551 283.779826 34.930301 C 282.285034 32.893843 279.5767 31.159468 275.660034 29.727176 C 274.48295 32.305301 273.081908 35.331343 271.456908 38.800093 C 269.831908 42.268843 268.191283 45.659469 266.540241 48.971969 C 264.915241 52.284469 263.592324 55.055303 262.571491 57.284469 C 261.779824 58.971969 260.488158 59.591761 258.706908 59.143844 C 256.951699 58.701136 255.488157 57.763636 254.311074 56.326136 C 253.165241 54.893844 252.972532 53.591761 253.738157 52.409469 C 255.587116 49.800094 257.607949 45.982385 259.805866 40.951135 C 262.029824 35.919885 263.988158 31.190718 265.675658 26.763634 C 263.738158 26.128217 262.175658 25.029259 260.998574 23.466759 C 259.821491 21.878217 259.227741 19.331342 259.227741 15.826133 C 259.227741 13.08655 259.946491 10.383425 261.378783 7.706341 C 262.811074 5.034466 264.831908 2.789674 267.446491 0.971966 C 270.055867 -0.871784 273.113158 -1.798868 276.613159 -1.798868 C 282.758992 -1.798868 288.665243 -0.616576 294.337118 1.737591 C 300.003785 4.091758 304.665244 7.070925 308.326702 10.669883 C 311.988161 14.232383 313.821494 17.768842 313.821494 21.27405 C 313.821494 24.935509 313.139202 28.404259 311.769411 31.685509 C 310.399619 34.930301 308.998577 38.258427 307.566285 41.664677 C 306.133994 45.039677 305.415244 48.74801 305.415244 52.794886 C 305.415244 55.534469 306.321494 57.826136 308.139202 59.669886 C 309.951702 61.487595 313.087119 62.393845 317.545453 62.393845 C 320.540245 62.393845 323.040245 61.456345 325.045453 59.576136 C 327.081912 57.664678 329.071495 55.279261 331.014204 52.409469 Z M 429.82671 52.409469 C 430.592335 51.232386 431.816293 50.805302 433.503793 51.123011 C 435.222543 51.440719 436.706918 52.159469 437.946502 53.274052 C 439.191293 54.383427 439.410043 55.721969 438.613168 57.284469 C 435.748585 63.300095 432.977751 69.175095 430.305876 74.90947 C 427.628793 80.638637 424.795459 85.862596 421.805876 90.57093 C 418.811084 95.253222 415.482959 98.992805 411.8215 101.794889 C 408.160042 104.596972 403.988166 105.998014 399.305874 105.998014 C 396.441291 105.998014 394.149624 104.565722 392.430874 101.701139 C 388.258999 115.13864 383.78504 125.899057 379.008998 133.987599 C 374.264206 142.076141 368.962123 147.935516 363.102747 151.565725 C 357.24858 155.227184 350.59233 157.055309 343.139204 157.055309 C 332.857954 157.055309 324.878787 154.352184 319.21212 148.935517 C 313.514202 143.524058 310.665244 136.123016 310.665244 126.727182 C 310.665244 121.79489 311.378786 117.524056 312.811077 113.930306 C 314.243369 110.331348 315.883994 107.498014 317.732953 105.425097 C 319.545453 103.326139 321.170453 101.987597 322.602745 101.41468 C 324.035036 100.810514 324.816287 101.034472 324.946495 102.081347 C 325.482953 106.925097 327.665245 110.841764 331.488162 113.831348 C 335.342329 116.82614 340.529829 118.38864 347.055871 118.51364 C 351.613163 118.51364 355.910038 117.399056 359.951705 115.16989 C 363.998581 112.971973 367.613164 110.076139 370.795456 106.477181 C 374.008998 102.909472 376.524623 98.97718 378.342331 94.680305 C 380.186082 90.35218 381.113165 86.034471 381.113165 81.737596 C 381.113165 80.050096 380.456915 79.237596 379.154831 79.300096 C 377.84754 79.362596 376.732956 80.367804 375.811081 82.310513 C 373.196498 89.091763 369.378789 94.440722 364.347539 98.357388 C 359.347539 102.274055 354.363163 104.232389 349.399621 104.232389 C 342.613163 104.232389 337.201704 101.732389 333.160037 96.732388 C 329.113162 91.701138 327.092328 85.524054 327.092328 78.201137 C 327.092328 70.90947 328.128787 63.22197 330.196495 55.133428 C 332.300662 47.044885 335.467329 39.451135 339.701704 32.352176 C 343.967329 25.253217 349.253788 19.456342 355.56108 14.966758 C 361.894414 10.445925 369.232956 8.185508 377.576706 8.185508 C 381.493373 8.185508 384.519415 8.550091 386.649624 9.284466 C 388.81629 9.982383 390.456915 10.857383 391.571499 11.909467 C 392.686082 12.96155 393.623582 13.852175 394.389207 14.58655 C 395.186082 15.284467 396.238166 15.633425 397.540249 15.633425 C 399.738166 15.633425 401.519416 15.013633 402.889208 13.77405 C 404.259 12.529258 405.79025 11.289675 407.47775 10.050091 C 409.1965 8.8053 411.550667 8.185508 414.545459 8.185508 C 417.154834 8.185508 418.951709 8.83655 419.941292 10.143841 C 420.925667 11.451133 421.420459 13.216758 421.420459 15.445925 C 421.420459 17.768842 420.660042 20.539675 419.128792 23.753217 C 417.634 26.940717 415.675667 31.044884 413.253792 36.076135 C 410.868375 41.076135 408.300667 47.555302 405.566291 55.518844 C 404.259 60.737595 404.259 64.367803 405.566291 66.404262 C 406.868375 68.40947 408.623583 69.414678 410.816292 69.414678 C 413.842334 69.414678 417.045459 67.602178 420.420459 63.97197 C 423.826709 60.310511 426.962126 56.456344 429.82671 52.409469 Z M 367.212122 65.498011 C 370.462123 65.498011 373.326706 64.529261 375.811081 62.586553 C 378.295456 60.612595 380.25379 58.221969 381.686082 55.419886 C 383.118373 52.617802 383.831915 49.846969 383.831915 47.112594 C 383.831915 44.242802 382.988165 41.81051 381.300665 39.805302 C 379.613165 37.763635 376.87879 36.74801 373.087123 36.74801 C 369.967331 36.74801 367.196497 37.669885 364.774622 39.518843 C 362.357955 41.331343 360.462122 43.638635 359.09233 46.440719 C 357.722539 49.242802 357.040247 52.076136 357.040247 54.940719 C 357.040247 57.810511 357.821497 60.294886 359.378789 62.393845 C 360.941289 64.461553 363.550664 65.498011 367.212122 65.498011 Z M 522.93609 52.409469 C 523.696507 51.232386 524.925674 50.805302 526.613174 51.123011 C 528.331924 51.440719 529.811091 52.159469 531.055882 53.274052 C 532.295466 54.383427 532.519424 55.721969 531.722549 57.284469 C 529.910049 61.201136 527.535049 65.242803 524.607965 69.414678 C 521.675673 73.586554 518.014215 77.070929 513.62359 79.873012 C 509.259006 82.675096 503.878797 84.076138 497.477755 84.076138 L 495.139213 84.076138 C 490.331922 90.732388 484.566296 96.050097 477.847546 100.029264 C 471.128795 104.00843 464.107962 105.998014 456.785045 105.998014 C 448.061086 105.998014 440.831919 103.07093 435.102752 97.211555 C 429.368376 91.32093 426.503793 83.300096 426.503793 73.138637 C 426.503793 65.81572 427.842334 58.352178 430.51421 50.742802 C 433.191293 43.096968 436.930877 36.06051 441.738169 29.628218 C 446.581919 23.164676 452.248586 17.977175 458.743378 14.060508 C 465.26942 10.143841 472.451712 8.185508 480.285046 8.185508 C 485.634005 8.185508 490.456922 9.268841 494.753797 11.4303 C 499.05588 13.565717 502.477756 17.1178 505.024631 22.081342 C 507.571506 27.018843 508.847548 33.607385 508.847548 41.857385 C 508.847548 48.763635 507.873589 55.466761 505.930881 61.961553 L 507.269423 61.961553 C 510.134006 61.961553 512.87359 61.216761 515.482965 59.721969 C 518.09234 58.221969 520.576715 55.784469 522.93609 52.409469 Z M 467.962129 65.498011 C 471.20692 65.498011 474.076712 64.529261 476.561087 62.586553 C 479.040254 60.612595 480.998588 58.221969 482.430879 55.419886 C 483.868379 52.617802 484.581921 49.846969 484.581921 47.112594 C 484.581921 44.242802 483.738171 41.81051 482.050671 39.805302 C 480.363171 37.763635 477.623587 36.74801 473.837129 36.74801 C 470.717337 36.74801 467.946504 37.669885 465.524628 39.518843 C 463.107962 41.331343 461.212128 43.638635 459.842336 46.440719 C 458.472545 49.242802 457.790253 52.076136 457.790253 54.940719 C 457.790253 57.810511 458.566295 60.294886 460.128795 62.393845 C 461.691295 64.461553 464.30067 65.498011 467.962129 65.498011 Z M 538.201716 105.998014 C 530.878799 105.998014 525.482965 103.753222 522.009007 99.263639 C 518.571507 94.742805 516.852756 88.867805 516.852756 81.643846 C 516.852756 74.414679 518.285048 66.62822 521.149632 58.284469 C 522.868382 53.320927 524.764215 47.971969 526.831924 42.237593 C 528.936091 36.477176 531.212132 30.201134 533.665257 23.419884 C 530.800674 23.419884 528.618382 22.675092 527.118382 21.175092 C 525.62359 19.6803 524.639215 17.9303 524.160049 15.919883 C 523.712132 13.883425 523.712132 12.1178 524.160049 10.623008 C 524.639215 9.123008 525.46734 8.378216 526.644424 8.378216 C 532.373591 8.378216 536.863174 6.784466 540.113175 3.602174 C 543.389216 0.383424 545.686092 -2.975951 546.988175 -6.475951 C 549.34755 -12.210327 551.623592 -15.82491 553.821509 -17.319702 C 556.050676 -18.845744 558.404842 -19.611369 560.889217 -19.611369 C 564.550676 -19.611369 566.826718 -18.069702 567.717343 -14.98116 C 568.639218 -11.923868 567.607968 -7.335326 564.613176 -1.225951 C 563.180884 1.930299 562.384009 4.315716 562.227759 5.940716 C 562.097551 7.565716 562.956926 8.378216 564.805884 8.378216 L 574.97776 8.378216 C 576.285052 8.378216 577.128802 9.300091 577.50901 11.143842 C 577.889219 12.96155 577.857969 15.044883 577.41526 17.404259 C 576.967343 19.727175 576.123593 21.810509 574.88401 23.659467 C 573.639218 25.471967 572.029843 26.383426 570.055885 26.383426 C 564.071509 26.383426 559.644426 26.623009 556.779842 27.096968 C 553.915259 27.544884 551.894425 28.675093 550.717342 30.487593 C 549.53505 32.305301 548.295467 35.440718 546.988175 39.899052 C 544.889217 46.680302 545.175675 52.091761 547.84755 56.138636 C 550.524634 60.149053 554.743384 62.154261 560.503801 62.154261 C 564.420468 62.154261 567.910051 61.279261 570.967343 59.529261 C 574.024635 57.779261 576.519427 55.404261 578.462135 52.409469 C 579.514219 50.852177 580.85276 50.294886 582.47776 50.742802 C 584.134011 51.185511 585.498594 52.060511 586.581927 53.367802 C 587.696511 54.675094 587.936094 55.977178 587.300677 57.284469 C 586.123594 59.513636 584.545469 62.586553 582.57151 66.50322 C 580.628802 70.388637 578.29026 74.623012 575.550677 79.206346 C 572.811093 83.758429 569.613176 88.055305 565.951718 92.10218 C 562.321509 96.143847 558.180884 99.471972 553.53505 102.081347 C 548.915258 104.695931 543.805883 105.998014 538.201716 105.998014 Z M 736.160061 -39.528037 C 758.732979 -39.528037 775.38923 -35.199911 786.118398 -26.538452 C 796.878815 -17.876994 802.264232 -5.585326 802.264232 10.33655 C 802.264232 16.320925 801.180899 22.383426 799.014232 28.529259 C 796.878815 34.643843 793.634023 40.27926 789.26944 45.440719 C 784.910064 50.596969 779.430897 54.721969 772.842355 57.810511 C 766.248605 60.867803 758.592354 62.393845 749.868396 62.393845 C 745.57152 62.393845 742.274645 61.899053 739.982978 60.914678 C 737.686103 59.925094 735.857978 58.987594 734.488186 58.096969 C 733.118395 57.169886 731.592353 56.711553 729.904853 56.711553 C 727.962144 56.711553 726.399644 57.617803 725.222561 59.430303 L 724.217352 61.388636 L 724.795477 60.008428 L 724.217352 61.388636 C 720.430894 71.294887 715.670477 80.258429 709.94131 88.279263 C 704.206934 96.305305 697.680892 102.623014 690.357975 107.242806 C 683.066308 111.888639 675.186099 114.216764 666.717349 114.216764 C 659.139223 114.216764 652.96214 112.638639 648.186098 109.487597 C 643.441306 106.367806 639.998597 102.336555 637.868389 97.404263 C 635.701722 92.435513 634.618389 87.279263 634.618389 81.930304 C 634.618389 76.451137 635.701722 71.248012 637.868389 66.310512 C 639.998597 61.341761 643.024639 57.300094 646.941306 54.180302 C 650.857973 51.029261 655.425682 49.451136 660.64964 49.451136 C 662.592349 49.451136 663.561099 50.232386 663.561099 51.789677 C 663.561099 56.123011 665.154849 59.623011 668.337141 62.300095 C 671.555891 64.97197 675.441308 66.310512 679.993391 66.310512 C 685.34235 66.310512 691.3111 63.669886 697.904851 58.383428 C 704.493393 53.096969 710.06631 44.581344 714.618393 32.831343 C 716.337144 28.404259 718.076727 23.820926 719.826727 19.076134 C 721.576727 14.300092 723.311102 9.826133 725.029852 5.654258 C 726.337144 2.248008 728.055894 -0.173867 730.191311 -1.606159 C 732.35277 -3.038451 734.868395 -3.757201 737.738187 -3.757201 C 741.910062 -3.757201 744.644437 -2.798868 745.951729 -0.887409 C 747.25902 0.987591 747.38402 3.550091 746.331937 6.800091 C 744.899645 11.096967 743.628812 14.826133 742.514228 17.977175 C 741.399645 21.096967 740.524645 23.899051 739.88402 26.383426 L 740.456937 24.998009 C 739.154853 28.914676 739.055895 31.794884 740.170478 33.643843 C 741.285062 35.456343 743.993395 36.362593 748.29027 36.362593 C 751.951729 36.362593 755.503813 35.362593 758.941313 33.357385 C 762.415271 31.315718 765.279855 28.373009 767.540272 24.518842 C 769.831938 20.664675 770.977772 15.940717 770.977772 10.33655 C 770.977772 1.862591 767.998605 -4.199909 762.04548 -7.861368 C 756.123604 -11.522827 747.748604 -13.35616 736.925686 -13.35616 C 729.378811 -13.35616 722.404852 -12.465535 716.00381 -10.679076 C 709.602768 -8.929076 704.446518 -6.158243 700.529851 -2.371784 C 696.644434 1.419883 694.701726 6.3053 694.701726 12.294883 C 694.701726 14.904258 695.420476 17.102175 696.852767 18.883425 C 698.285059 20.633425 700.035059 21.508425 702.107976 21.508425 C 703.029851 23.581342 703.092351 26.081342 702.295476 29.008426 C 701.535059 31.940718 700.003809 34.742801 697.712142 37.414676 C 695.420476 40.09176 692.472559 42.352177 688.878809 44.195927 C 685.3111 46.013635 681.1861 46.919885 676.503808 46.919885 C 671.154849 46.919885 666.649641 45.643844 662.988182 43.096968 C 659.326723 40.550093 656.592348 37.190718 654.77464 33.018843 C 652.96214 28.852176 652.050681 24.425092 652.050681 19.7428 C 652.050681 11.654258 654.009015 4.060508 657.925682 -3.038451 C 661.842349 -10.16866 667.446516 -16.475952 674.738183 -21.94991 C 682.02985 -27.429077 690.868392 -31.725953 701.248601 -34.845745 C 711.62881 -37.970745 723.264227 -39.528037 736.160061 -39.528037 Z M 813.816316 105.998014 C 807.160066 105.998014 802.128815 103.263639 798.722565 97.784472 C 795.347565 92.310513 793.660065 85.206346 793.660065 76.482387 C 793.660065 70.977178 794.342357 65.133428 795.712148 58.956344 C 797.08194 52.748011 799.102774 46.649052 801.779857 40.664677 C 804.451732 34.675093 807.811107 29.232384 811.857983 24.326134 C 815.89965 19.425092 820.597567 15.508425 825.946525 12.581342 C 831.295484 9.64905 837.363193 8.185508 844.144443 8.185508 C 848.06111 8.185508 851.081943 8.550091 853.21736 9.284466 C 855.384027 9.982383 857.024652 10.857383 858.139235 11.909467 C 859.248611 12.96155 860.191319 13.852175 860.956944 14.58655 C 861.748611 15.284467 862.800694 15.633425 864.107986 15.633425 C 866.305903 15.633425 868.087153 15.013633 869.456944 13.77405 C 870.826736 12.529258 872.352778 11.289675 874.040278 10.050091 C 875.759028 8.8053 878.118403 8.185508 881.107987 8.185508 C 883.72257 8.185508 885.519445 8.83655 886.509029 10.143841 C 887.493404 11.451133 887.988196 13.216758 887.988196 15.445925 C 887.988196 19.076134 886.967362 22.690717 884.930904 26.284467 C 882.925695 29.883426 880.805904 34.550093 878.576737 40.27926 C 875.331945 47.445927 874.118403 52.919886 874.946528 56.711553 C 875.805903 60.498011 878.389237 62.393845 882.686112 62.393845 C 886.061112 62.393845 888.988196 61.518845 891.472571 59.768844 C 893.956946 57.982386 896.186113 55.534469 898.160071 52.409469 C 899.180905 50.852177 900.498613 50.294886 902.123613 50.742802 C 903.779863 51.185511 905.149655 52.060511 906.232988 53.367802 C 907.347572 54.675094 907.587155 55.977178 906.94653 57.284469 C 904.592363 61.836553 902.076738 66.899053 899.404863 72.47197 C 896.727779 78.013637 893.748613 83.331346 890.472571 88.425096 C 887.222571 93.487597 883.514237 97.690722 879.342362 101.034472 C 875.170487 104.341764 870.34757 105.998014 864.873611 105.998014 C 858.087152 105.998014 853.295485 103.263639 850.493402 97.784472 C 847.691318 92.310513 846.878818 85.524054 848.06111 77.440721 L 847.295485 77.440721 C 843.378818 85.399054 838.540276 92.149055 832.774651 97.690722 C 827.045484 103.232389 820.722567 105.998014 813.816316 105.998014 Z M 833.394442 65.498011 C 836.769443 65.498011 839.732984 64.529261 842.27986 62.586553 C 844.826735 60.612595 846.816318 58.221969 848.24861 55.419886 C 849.680902 52.617802 850.399652 49.846969 850.399652 47.112594 C 850.399652 43.862594 849.477777 41.331343 847.628818 39.518843 C 845.816318 37.669885 843.347568 36.74801 840.227776 36.74801 C 836.852776 36.74801 833.920484 37.669885 831.436109 39.518843 C 828.956942 41.331343 827.029859 43.638635 825.660067 46.440719 C 824.290275 49.242802 823.602775 52.076136 823.602775 54.940719 C 823.602775 58.190719 824.482983 60.768845 826.232984 62.680303 C 828.014234 64.560511 830.404859 65.498011 833.394442 65.498011 Z M 974.019451 52.409469 C 975.071534 50.852177 976.404868 50.294886 978.029868 50.742802 C 979.686118 51.185511 981.05591 52.060511 982.139243 53.367802 C 983.253826 54.675094 983.49341 55.977178 982.852785 57.284469 C 981.80591 59.513636 980.259035 62.617803 978.222576 66.59697 C 976.217368 70.576137 973.686117 74.810512 970.628826 79.300096 C 967.571534 83.789679 963.847575 88.055305 959.451742 92.10218 C 955.092366 96.143847 950.076741 99.440722 944.404866 101.987597 C 938.738199 104.534472 932.243407 105.810514 924.92049 105.810514 C 916.321531 105.810514 909.50903 103.992805 904.47778 100.362597 C 899.47778 96.701138 896.055904 92.07093 894.212154 86.466763 C 892.394446 80.831346 891.884029 74.956345 892.680904 68.841762 C 893.446529 62.695928 895.259029 57.221969 898.128821 52.409469 L 898.941321 51.216761 C 902.441321 46.539677 905.910072 41.425093 909.35278 35.888635 C 912.82153 30.346968 916.389239 25.123009 920.050698 20.221967 C 923.712156 15.315717 927.48299 11.27405 931.368407 8.091758 C 935.285073 4.904258 939.32674 3.315716 943.498616 3.315716 C 949.644449 3.315716 954.180908 4.748008 957.1132 7.612591 C 960.040283 10.477175 961.441325 13.471967 961.316325 16.591759 C 961.316325 18.14905 960.628825 19.456342 959.259033 20.508425 C 957.89445 21.560509 956.253825 22.513634 954.342366 23.373009 C 952.462158 24.201134 950.805908 25.237592 949.373616 26.477176 C 947.941324 27.716759 947.227783 29.310509 947.227783 31.253218 C 947.227783 32.430301 948.134033 34.789676 949.946533 38.320927 C 951.795491 41.826135 953.753825 45.774052 955.821533 50.164677 C 957.9257 54.529261 959.373617 58.732386 960.170492 62.774053 C 963.160075 62.649053 965.722575 61.612595 967.857992 59.669886 C 970.024659 57.695928 972.076742 55.279261 974.019451 52.409469 Z M 917.899656 65.498011 C 922.196531 65.498011 925.524656 64.12822 927.884031 61.388636 C 930.238198 58.654261 931.415282 55.263636 931.415282 51.216761 C 931.415282 48.862594 931.050698 46.456344 930.316323 44.008427 C 929.587156 41.524052 928.503823 38.977177 927.071531 36.362593 C 925.76424 33.753218 924.206948 33.753218 922.389239 36.362593 C 919.904864 40.024052 917.264239 43.71676 914.462156 47.445927 C 911.660072 51.138636 909.160072 54.419886 906.962155 57.284469 C 906.962155 59.638636 907.967363 61.59697 909.972572 63.15947 C 912.00903 64.716761 914.649656 65.498011 917.899656 65.498011 Z M 1049.727789 52.409469 C 1050.774664 50.852177 1052.113206 50.294886 1053.738206 50.742802 C 1055.394456 51.185511 1056.764248 52.060511 1057.847581 53.367802 C 1058.962164 54.675094 1059.196539 55.977178 1058.561123 57.284469 C 1057.509039 59.513636 1055.967372 62.617803 1053.930914 66.59697 C 1051.925706 70.576137 1049.394455 74.810512 1046.337164 79.300096 C 1043.279872 83.789679 1039.550705 88.055305 1035.16008 92.10218 C 1030.795496 96.143847 1025.779871 99.440722 1020.113204 101.987597 C 1014.446537 104.534472 1007.951745 105.810514 1000.628827 105.810514 C 992.029869 105.810514 985.217368 103.992805 980.186118 100.362597 C 975.186118 96.701138 971.764242 92.07093 969.915284 86.466763 C 968.102784 80.831346 967.592367 74.956345 968.389242 68.841762 C 969.154867 62.695928 970.967367 57.221969 973.831951 52.409469 L 974.644451 51.216761 C 978.149659 46.539677 981.61841 41.425093 985.05591 35.888635 C 988.529868 30.346968 992.092369 25.123009 995.753827 20.221967 C 999.415286 15.315717 1003.191328 11.27405 1007.076744 8.091758 C 1010.993411 4.904258 1015.035078 3.315716 1019.206954 3.315716 C 1025.352787 3.315716 1029.889246 4.748008 1032.816329 7.612591 C 1035.748621 10.477175 1037.149663 13.471967 1037.019455 16.591759 C 1037.019455 18.14905 1036.337163 19.456342 1034.967371 20.508425 C 1033.597579 21.560509 1031.956954 22.513634 1030.050704 23.373009 C 1028.170496 24.201134 1026.514246 25.237592 1025.081954 26.477176 C 1023.649662 27.716759 1022.930912 29.310509 1022.930912 31.253218 C 1022.930912 32.430301 1023.837162 34.789676 1025.654871 38.320927 C 1027.503829 41.826135 1029.462163 45.774052 1031.529871 50.164677 C 1033.628829 54.529261 1035.081955 58.732386 1035.873621 62.774053 C 1038.868413 62.649053 1041.430913 61.612595 1043.56633 59.669886 C 1045.727789 57.695928 1047.78508 55.279261 1049.727789 52.409469 Z M 993.607994 65.498011 C 997.904869 65.498011 1001.232994 64.12822 1003.587161 61.388636 C 1005.946536 58.654261 1007.123619 55.263636 1007.123619 51.216761 C 1007.123619 48.862594 1006.759036 46.456344 1006.024661 44.008427 C 1005.290286 41.524052 1004.212161 38.977177 1002.774661 36.362593 C 1001.472577 33.753218 999.910077 33.753218 998.097577 36.362593 C 995.613202 40.024052 992.967369 43.71676 990.170493 47.445927 C 987.36841 51.138636 984.86841 54.419886 982.670493 57.284469 C 982.670493 59.638636 983.670493 61.59697 985.68091 63.15947 C 987.717368 64.716761 990.357993 65.498011 993.607994 65.498011 Z M 1181.790297 52.409469 C 1182.587172 51.232386 1183.826755 50.805302 1185.514255 51.123011 C 1187.201755 51.440719 1188.670505 52.159469 1189.910089 53.274052 C 1191.154881 54.383427 1191.373631 55.721969 1190.581964 57.284469 C 1188.764255 61.201136 1186.394464 65.242803 1183.462172 69.414678 C 1180.535088 73.586554 1176.87363 77.070929 1172.477796 79.873012 C 1168.118421 82.675096 1162.748629 84.076138 1156.384045 84.076138 C 1154.279878 84.076138 1152.259045 83.695929 1150.316337 82.930304 C 1145.477795 89.425096 1140.352794 94.873013 1134.936127 99.263639 C 1129.524669 103.628222 1123.951752 105.810514 1118.222585 105.810514 C 1115.483001 105.810514 1112.904876 104.867806 1110.483001 102.992805 C 1108.066334 101.081347 1106.20175 97.659472 1104.894459 92.721971 C 1103.592375 87.753221 1103.337167 80.701137 1104.134042 71.56572 C 1100.722583 80.320929 1096.967375 87.211554 1092.858 92.242805 C 1088.753833 97.242805 1084.644458 100.763639 1080.535082 102.800097 C 1076.430915 104.805306 1072.561123 105.810514 1068.930915 105.810514 C 1063.712165 105.810514 1059.425706 104.185514 1056.081956 100.935514 C 1052.774664 97.659472 1050.368414 93.409472 1048.873622 88.185513 C 1047.373622 82.961554 1046.66008 77.201137 1046.72258 70.893845 C 1046.78508 64.560511 1047.59758 58.399053 1049.16008 52.409469 C 1050.337164 47.315719 1051.863206 42.159468 1053.743414 36.93551 C 1055.654872 31.716759 1057.769456 26.925092 1060.097581 22.560509 C 1062.451748 18.201134 1064.904873 14.71155 1067.451748 12.102175 C 1069.998623 9.4928 1072.639248 8.185508 1075.378832 8.185508 C 1077.32154 8.185508 1078.816332 8.77405 1079.868416 9.951133 C 1080.920499 11.128217 1081.446541 13.154258 1081.446541 16.018842 C 1081.446541 19.6803 1080.696541 23.659467 1079.201749 27.956343 C 1077.701749 32.258426 1076.238207 36.586551 1074.805915 40.951135 C 1073.373624 45.31051 1072.654873 49.451136 1072.654873 53.367802 C 1072.654873 57.029261 1073.535082 59.971969 1075.285082 62.201136 C 1077.035082 64.399053 1079.675707 65.498011 1083.212166 65.498011 C 1088.019458 65.498011 1091.727791 63.779261 1094.342375 60.341761 C 1096.95175 56.867803 1098.717375 53.050094 1099.644458 48.878219 C 1100.404875 45.758427 1100.790292 42.857385 1100.790292 40.18551 C 1100.790292 37.508426 1100.852792 34.774051 1100.977792 31.971968 C 1101.13925 29.169884 1101.665292 26.065717 1102.555917 22.654259 C 1104.404875 16.669884 1106.696542 12.768842 1109.430917 10.956342 C 1112.170501 9.107383 1115.753834 8.185508 1120.180918 8.185508 C 1128.39446 8.185508 1132.503835 12.628217 1132.503835 21.508425 C 1132.503835 24.628217 1131.608002 28.055301 1129.826752 31.779259 C 1128.076752 35.471968 1126.326752 39.180302 1124.571543 42.909468 C 1122.821543 46.633427 1121.946543 50.117802 1121.946543 53.367802 C 1121.946543 57.029261 1122.821543 59.971969 1124.571543 62.201136 C 1126.326752 64.399053 1128.967377 65.498011 1132.503835 65.498011 C 1136.035086 65.498011 1139.061127 64.748011 1141.576753 63.25322 C 1144.123628 61.758428 1146.321545 59.768844 1148.165295 57.284469 C 1147.623628 54.289677 1147.165295 51.362594 1146.779878 48.49801 C 1146.39967 45.628219 1146.206961 42.68551 1146.206961 39.659468 C 1146.206961 33.930301 1146.894461 28.659468 1148.264253 23.852176 C 1149.634045 19.008425 1151.779878 15.128217 1154.71217 12.195925 C 1157.639254 9.268841 1161.316337 7.8053 1165.743421 7.8053 C 1170.837171 7.8053 1174.040296 10.128216 1175.34238 14.77405 C 1176.649671 19.393842 1176.21738 25.779259 1174.055921 33.930301 C 1171.920504 42.081343 1168.180921 51.362594 1162.831962 61.774053 C 1163.467379 61.899053 1164.040296 61.961553 1164.550712 61.961553 C 1165.092379 61.961553 1165.618421 61.961553 1166.123629 61.961553 C 1169.024671 61.961553 1171.759046 61.216761 1174.34238 59.721969 C 1176.951755 58.221969 1179.43613 55.784469 1181.790297 52.409469 Z M 1274.915302 52.409469 C 1275.680927 51.232386 1276.910094 50.805302 1278.597594 51.123011 C 1280.316344 51.440719 1281.795511 52.159469 1283.035095 53.274052 C 1284.279886 54.383427 1284.503845 55.721969 1283.70697 57.284469 C 1281.889261 61.201136 1279.519469 65.242803 1276.587177 69.414678 C 1273.660094 73.586554 1269.998635 77.070929 1265.602802 79.873012 C 1261.243427 82.675096 1255.863218 84.076138 1249.462176 84.076138 L 1247.118426 84.076138 C 1242.311134 90.732388 1236.550717 96.050097 1229.831966 100.029264 C 1223.113216 104.00843 1216.092382 105.998014 1208.769465 105.998014 C 1200.045506 105.998014 1192.816339 103.07093 1187.087172 97.211555 C 1181.352797 91.32093 1178.488213 83.300096 1178.488213 73.138637 C 1178.488213 65.81572 1179.826755 58.352178 1182.49863 50.742802 C 1185.175714 43.096968 1188.915297 36.06051 1193.722589 29.628218 C 1198.561131 23.164676 1204.233006 17.977175 1210.727798 14.060508 C 1217.253841 10.143841 1224.436133 8.185508 1232.264258 8.185508 C 1237.618425 8.185508 1242.441342 9.268841 1246.738217 11.4303 C 1251.035093 13.565717 1254.462176 17.1178 1257.009051 22.081342 C 1259.555926 27.018843 1260.82676 33.607385 1260.82676 41.857385 C 1260.82676 48.763635 1259.85801 55.466761 1257.915301 61.961553 L 1259.253843 61.961553 C 1262.118427 61.961553 1264.85801 61.216761 1267.467385 59.721969 C 1270.07676 58.221969 1272.561136 55.784469 1274.915302 52.409469 Z M 1219.946549 65.498011 C 1223.191341 65.498011 1226.055924 64.529261 1228.5403 62.586553 C 1231.024675 60.612595 1232.983008 58.221969 1234.4153 55.419886 C 1235.847592 52.617802 1236.566342 49.846969 1236.566342 47.112594 C 1236.566342 44.242802 1235.722592 41.81051 1234.035092 39.805302 C 1232.347591 37.763635 1229.608008 36.74801 1225.821549 36.74801 C 1222.696549 36.74801 1219.930924 37.669885 1217.509049 39.518843 C 1215.087174 41.331343 1213.196549 43.638635 1211.826757 46.440719 C 1210.456965 49.242802 1209.769465 52.076136 1209.769465 54.940719 C 1209.769465 57.810511 1210.550715 60.294886 1212.113215 62.393845 C 1213.670507 64.461553 1216.28509 65.498011 1219.946549 65.498011 Z M 1352.180932 52.409469 C 1353.227807 50.852177 1354.597599 50.294886 1356.285099 50.742802 C 1357.972599 51.185511 1359.373641 52.060511 1360.488224 53.367802 C 1361.602808 54.675094 1361.764266 55.977178 1360.967391 57.284469 C 1359.660099 59.383428 1358.102807 62.425095 1356.285099 66.404262 C 1354.472599 70.352178 1352.290307 74.586554 1349.743432 79.112596 C 1347.196557 83.602179 1344.21739 87.899055 1340.81114 92.00843 C 1337.436139 96.112597 1333.628848 99.471972 1329.394472 102.081347 C 1325.160097 104.695931 1320.36843 105.998014 1315.019471 105.998014 C 1309.670513 105.998014 1305.420513 104.998014 1302.269471 102.992805 C 1299.149679 100.951139 1296.904887 98.341763 1295.535095 95.159472 C 1294.165304 91.940721 1293.477804 88.711555 1293.477804 85.461554 C 1293.477804 80.909471 1294.165304 76.419887 1295.535095 71.992804 C 1296.904887 67.53447 1298.493429 63.28447 1300.311137 59.242803 C 1302.154887 55.195928 1303.764262 51.487594 1305.134054 48.112594 C 1306.503846 44.706344 1307.186138 41.826135 1307.186138 39.46676 C 1307.186138 38.451135 1306.441346 36.93551 1304.941346 34.930301 C 1303.446554 32.893843 1300.738221 31.159468 1296.821554 29.727176 C 1295.64447 32.305301 1294.243429 35.331343 1292.618428 38.800093 C 1290.998637 42.268843 1289.358012 45.659469 1287.701761 48.971969 C 1286.076761 52.284469 1284.753845 55.055303 1283.73822 57.284469 C 1282.941345 58.971969 1281.649678 59.591761 1279.868428 59.143844 C 1278.118428 58.701136 1276.649677 57.763636 1275.472594 56.326136 C 1274.326761 54.893844 1274.134052 53.591761 1274.899677 52.409469 C 1276.748636 49.800094 1278.769469 45.982385 1280.967386 40.951135 C 1283.196553 35.919885 1285.154886 31.190718 1286.842386 26.763634 C 1284.899678 26.128217 1283.337178 25.029259 1282.160094 23.466759 C 1280.983011 21.878217 1280.394469 19.331342 1280.394469 15.826133 C 1280.394469 13.08655 1281.108011 10.383425 1282.540303 7.706341 C 1283.977803 5.034466 1285.998636 2.789674 1288.608012 0.971966 C 1291.217387 -0.871784 1294.274679 -1.798868 1297.779887 -1.798868 C 1303.925721 -1.798868 1309.831971 -0.616576 1315.498638 1.737591 C 1321.165305 4.091758 1325.831972 7.070925 1329.493431 10.669883 C 1333.154889 14.232383 1334.983014 17.768842 1334.983014 21.27405 C 1334.983014 24.935509 1334.300723 28.404259 1332.930931 31.685509 C 1331.561139 34.930301 1330.160097 38.258427 1328.727806 41.664677 C 1327.295514 45.039677 1326.576764 48.74801 1326.576764 52.794886 C 1326.576764 55.534469 1327.488222 57.826136 1329.300722 59.669886 C 1331.113222 61.487595 1334.253848 62.393845 1338.712181 62.393845 C 1341.701765 62.393845 1344.201765 61.456345 1346.206973 59.576136 C 1348.243432 57.664678 1350.238224 55.279261 1352.180932 52.409469 Z M 1370.561142 105.998014 C 1362.889266 105.998014 1357.248641 103.326139 1353.65489 97.97718 C 1350.055932 92.628221 1348.253848 86.034471 1348.253848 78.201137 C 1348.253848 70.90947 1349.290307 63.22197 1351.358015 55.133428 C 1353.462182 47.044885 1356.628849 39.451135 1360.863224 32.352176 C 1365.134058 25.253217 1370.415308 19.456342 1376.7226 14.966758 C 1383.055934 10.445925 1390.399684 8.185508 1398.738227 8.185508 C 1402.654893 8.185508 1405.680935 8.64905 1407.816352 9.570925 C 1409.977811 10.46155 1411.618436 11.529258 1412.733019 12.768842 C 1413.847602 14.013633 1414.785103 15.128217 1415.550728 16.112592 C 1416.347603 17.102175 1417.399686 17.591759 1418.701769 17.591759 C 1419.753853 17.591759 1420.597603 16.414675 1421.23302 14.060508 C 1421.904895 11.701133 1422.873645 8.216758 1424.149686 3.602174 C 1425.45177 -1.048868 1427.493437 -6.69991 1430.26427 -13.35616 C 1432.712187 -19.340535 1435.149687 -23.861369 1437.571562 -26.918661 C 1439.988229 -29.975953 1442.295521 -32.028036 1444.493438 -33.080119 C 1446.722604 -34.132203 1448.826771 -34.658245 1450.80073 -34.658245 C 1454.17573 -34.658245 1456.420522 -32.986369 1457.535105 -29.642619 C 1458.649689 -26.330119 1457.899688 -21.871785 1455.290313 -16.267618 L 1433.175729 40.27926 C 1429.925728 47.445927 1428.717395 52.919886 1429.54552 56.711553 C 1430.404895 60.498011 1432.98302 62.393845 1437.285104 62.393845 C 1440.660104 62.393845 1443.587188 61.518845 1446.071563 59.768844 C 1448.555938 57.982386 1450.785105 55.534469 1452.759063 52.409469 C 1453.774688 50.852177 1455.097605 50.294886 1456.722605 50.742802 C 1458.378855 51.185511 1459.748647 52.060511 1460.826772 53.367802 C 1461.941355 54.675094 1462.180939 55.977178 1461.545522 57.284469 C 1459.191355 61.836553 1456.67573 66.899053 1453.998647 72.47197 C 1451.326771 78.013637 1448.347605 83.331346 1445.066354 88.425096 C 1441.821562 93.487597 1438.113229 97.690722 1433.941354 101.034472 C 1429.769478 104.341764 1424.946561 105.998014 1419.467394 105.998014 C 1413.227811 105.998014 1408.592394 103.263639 1405.57156 97.784472 C 1402.576768 92.310513 1401.608018 85.524054 1402.654893 77.440721 L 1401.894477 77.440721 C 1397.847601 85.399054 1393.118435 92.149055 1387.706976 97.690722 C 1382.295517 103.232389 1376.576767 105.998014 1370.561142 105.998014 Z M 1388.373643 65.498011 C 1391.623643 65.498011 1394.488226 64.529261 1396.972601 62.586553 C 1399.456977 60.612595 1401.41531 58.221969 1402.847602 55.419886 C 1404.279894 52.617802 1404.998644 49.846969 1404.998644 47.112594 C 1404.998644 44.242802 1404.154894 41.81051 1402.467393 39.805302 C 1400.779893 37.763635 1398.04031 36.74801 1394.248643 36.74801 C 1391.128851 36.74801 1388.358018 37.669885 1385.941351 39.518843 C 1383.519476 41.331343 1381.623642 43.638635 1380.25385 46.440719 C 1378.889267 49.242802 1378.201767 52.076136 1378.201767 54.940719 C 1378.201767 57.810511 1378.983017 60.294886 1380.540309 62.393845 C 1382.102809 64.461553 1384.712184 65.498011 1388.373643 65.498011 Z M 1388.373643 65.498011 " stroke="#bc6c25" stroke-width="26.654997" stroke-opacity="1" stroke-miterlimit="4"/><g fill="#fefae0" fill-opacity="1"><g transform="translate(28.946392, 128.181177)"><g><path d="M 114.875 -115.46875 C 117.125 -115.46875 118.640625 -114.953125 119.421875 -113.921875 C 120.210938 -112.898438 120.609375 -111.410156 120.609375 -109.453125 C 120.609375 -105.734375 119.726562 -102.210938 117.96875 -98.890625 C 116.207031 -95.566406 113.585938 -92.875 110.109375 -90.8125 C 106.640625 -88.757812 102.410156 -87.734375 97.421875 -87.734375 C 93.992188 -87.734375 91.007812 -88.125 88.46875 -88.90625 C 85.925781 -89.6875 83.457031 -90.566406 81.0625 -91.546875 C 78.664062 -92.523438 76.023438 -93.40625 73.140625 -94.1875 C 70.253906 -94.96875 66.707031 -95.359375 62.5 -95.359375 C 58.195312 -95.359375 54.140625 -94.894531 50.328125 -93.96875 C 46.515625 -93.039062 43.457031 -91.597656 41.15625 -89.640625 C 38.851562 -87.679688 37.703125 -85.140625 37.703125 -82.015625 C 37.703125 -80.054688 38.238281 -78.414062 39.3125 -77.09375 C 40.394531 -75.78125 41.71875 -75.125 43.28125 -75.125 C 43.96875 -73.550781 44.015625 -71.664062 43.421875 -69.46875 C 42.835938 -67.269531 41.6875 -65.164062 39.96875 -63.15625 C 38.257812 -61.15625 36.0625 -59.46875 33.375 -58.09375 C 30.6875 -56.726562 27.582031 -56.046875 24.0625 -56.046875 C 20.050781 -56.046875 16.675781 -57 13.9375 -58.90625 C 11.195312 -60.8125 9.140625 -63.328125 7.765625 -66.453125 C 6.398438 -69.585938 5.71875 -72.914062 5.71875 -76.4375 C 5.71875 -83.382812 8.015625 -89.789062 12.609375 -95.65625 C 17.210938 -101.53125 23.988281 -106.226562 32.9375 -109.75 C 41.882812 -113.269531 52.765625 -115.03125 65.578125 -115.03125 C 70.179688 -115.03125 74.070312 -114.929688 77.25 -114.734375 C 80.425781 -114.535156 83.429688 -114.335938 86.265625 -114.140625 C 89.109375 -113.953125 92.191406 -113.859375 95.515625 -113.859375 C 100.796875 -113.859375 104.878906 -114.125 107.765625 -114.65625 C 110.648438 -115.195312 113.019531 -115.46875 114.875 -115.46875 Z M 90.96875 -60.734375 C 93.894531 -60.734375 95.820312 -60.21875 96.75 -59.1875 C 97.6875 -58.164062 98.15625 -56.875 98.15625 -55.3125 C 98.15625 -53.644531 97.640625 -51.882812 96.609375 -50.03125 C 95.585938 -48.175781 93.972656 -46.585938 91.765625 -45.265625 C 89.566406 -43.941406 86.757812 -43.28125 83.34375 -43.28125 C 80.988281 -43.28125 78.785156 -43.351562 76.734375 -43.5 C 74.679688 -43.644531 72.675781 -43.816406 70.71875 -44.015625 C 70.03125 -42.160156 69.316406 -40.273438 68.578125 -38.359375 C 67.847656 -36.453125 67.09375 -34.570312 66.3125 -32.71875 C 60.738281 -19.414062 54.113281 -9.609375 46.4375 -3.296875 C 38.757812 3.003906 30.320312 6.15625 21.125 6.15625 C 14.375 6.15625 8.894531 4.957031 4.6875 2.5625 C 0.488281 0.164062 -2.5625 -2.9375 -4.46875 -6.75 C -6.375 -10.5625 -7.328125 -14.472656 -7.328125 -18.484375 C -7.328125 -22.492188 -6.519531 -26.332031 -4.90625 -30 C -3.300781 -33.664062 -1.03125 -36.648438 1.90625 -38.953125 C 4.84375 -41.253906 8.265625 -42.40625 12.171875 -42.40625 C 13.640625 -42.40625 14.375 -41.816406 14.375 -40.640625 C 14.375 -37.410156 15.644531 -34.789062 18.1875 -32.78125 C 20.726562 -30.78125 24.101562 -29.78125 28.3125 -29.78125 C 32.125 -29.78125 36.328125 -31.125 40.921875 -33.8125 C 45.523438 -36.507812 49.640625 -40.890625 53.265625 -46.953125 C 52.578125 -47.046875 51.890625 -47.117188 51.203125 -47.171875 C 50.515625 -47.222656 49.832031 -47.25 49.15625 -47.25 C 47.394531 -47.25 46.117188 -47.757812 45.328125 -48.78125 C 44.546875 -49.8125 44.15625 -51.109375 44.15625 -52.671875 C 44.15625 -54.828125 44.835938 -56.613281 46.203125 -58.03125 C 47.578125 -59.445312 49.78125 -60.15625 52.8125 -60.15625 L 58.984375 -60.15625 C 60.253906 -63.582031 61.5 -67.003906 62.71875 -70.421875 C 63.945312 -73.847656 65.195312 -77.078125 66.46875 -80.109375 C 67.445312 -82.648438 68.738281 -84.457031 70.34375 -85.53125 C 71.957031 -86.613281 73.84375 -87.15625 76 -87.15625 C 79.226562 -87.15625 81.351562 -86.441406 82.375 -85.015625 C 83.40625 -83.597656 83.53125 -81.671875 82.75 -79.234375 C 81.769531 -75.898438 80.765625 -72.691406 79.734375 -69.609375 C 78.710938 -66.535156 77.664062 -63.484375 76.59375 -60.453125 C 79.71875 -60.546875 82.503906 -60.613281 84.953125 -60.65625 C 87.398438 -60.707031 89.40625 -60.734375 90.96875 -60.734375 Z M 90.96875 -60.734375 "/></g></g></g><g fill="#fefae0" fill-opacity="1"><g transform="translate(126.95455, 128.181177)"><g><path d="M 73.21875 -40.203125 C 73.800781 -41.078125 74.726562 -41.390625 76 -41.140625 C 77.269531 -40.898438 78.367188 -40.363281 79.296875 -39.53125 C 80.222656 -38.707031 80.394531 -37.707031 79.8125 -36.53125 C 78.445312 -33.59375 76.660156 -30.554688 74.453125 -27.421875 C 72.253906 -24.296875 69.515625 -21.679688 66.234375 -19.578125 C 62.960938 -17.484375 58.929688 -16.4375 54.140625 -16.4375 L 52.375 -16.4375 C 48.757812 -11.445312 44.429688 -7.457031 39.390625 -4.46875 C 34.359375 -1.488281 29.101562 0 23.625 0 C 17.070312 0 11.640625 -2.195312 7.328125 -6.59375 C 3.023438 -11 0.875 -17.019531 0.875 -24.65625 C 0.875 -30.125 1.875 -35.71875 3.875 -41.4375 C 5.882812 -47.164062 8.695312 -52.453125 12.3125 -57.296875 C 15.9375 -62.140625 20.191406 -66.023438 25.078125 -68.953125 C 29.972656 -71.890625 35.359375 -73.359375 41.234375 -73.359375 C 45.242188 -73.359375 48.859375 -72.550781 52.078125 -70.9375 C 55.304688 -69.320312 57.875 -66.65625 59.78125 -62.9375 C 61.695312 -59.21875 62.65625 -54.28125 62.65625 -48.125 C 62.65625 -42.9375 61.921875 -37.898438 60.453125 -33.015625 L 61.46875 -33.015625 C 63.625 -33.015625 65.679688 -33.578125 67.640625 -34.703125 C 69.597656 -35.828125 71.457031 -37.660156 73.21875 -40.203125 Z M 31.984375 -30.375 C 34.429688 -30.375 36.582031 -31.101562 38.4375 -32.5625 C 40.300781 -34.03125 41.769531 -35.816406 42.84375 -37.921875 C 43.914062 -40.023438 44.453125 -42.101562 44.453125 -44.15625 C 44.453125 -46.3125 43.816406 -48.144531 42.546875 -49.65625 C 41.273438 -51.175781 39.222656 -51.9375 36.390625 -51.9375 C 34.035156 -51.9375 31.953125 -51.25 30.140625 -49.875 C 28.335938 -48.507812 26.921875 -46.773438 25.890625 -44.671875 C 24.867188 -42.566406 24.359375 -40.441406 24.359375 -38.296875 C 24.359375 -36.140625 24.941406 -34.28125 26.109375 -32.71875 C 27.285156 -31.15625 29.242188 -30.375 31.984375 -30.375 Z M 31.984375 -30.375 "/></g></g></g><g fill="#fefae0" fill-opacity="1"><g transform="translate(196.792699, 128.181177)"><g><path d="M 61.328125 -40.203125 C 62.109375 -41.378906 63.132812 -41.796875 64.40625 -41.453125 C 65.675781 -41.109375 66.726562 -40.445312 67.5625 -39.46875 C 68.394531 -38.488281 68.519531 -37.507812 67.9375 -36.53125 C 66.957031 -34.96875 65.78125 -32.691406 64.40625 -29.703125 C 63.039062 -26.722656 61.40625 -23.546875 59.5 -20.171875 C 57.59375 -16.796875 55.363281 -13.566406 52.8125 -10.484375 C 50.269531 -7.410156 47.410156 -4.894531 44.234375 -2.9375 C 41.054688 -0.976562 37.460938 0 33.453125 0 C 29.441406 0 26.257812 -0.753906 23.90625 -2.265625 C 21.5625 -3.785156 19.875 -5.742188 18.84375 -8.140625 C 17.820312 -10.535156 17.3125 -12.957031 17.3125 -15.40625 C 17.3125 -18.832031 17.820312 -22.207031 18.84375 -25.53125 C 19.875 -28.851562 21.070312 -32.03125 22.4375 -35.0625 C 23.8125 -38.09375 25.007812 -40.878906 26.03125 -43.421875 C 27.0625 -45.972656 27.578125 -48.128906 27.578125 -49.890625 C 27.578125 -50.671875 27.015625 -51.816406 25.890625 -53.328125 C 24.765625 -54.847656 22.738281 -56.144531 19.8125 -57.21875 C 18.925781 -55.257812 17.867188 -52.984375 16.640625 -50.390625 C 15.421875 -47.804688 14.203125 -45.265625 12.984375 -42.765625 C 11.765625 -40.273438 10.765625 -38.195312 9.984375 -36.53125 C 9.390625 -35.257812 8.429688 -34.796875 7.109375 -35.140625 C 5.796875 -35.484375 4.695312 -36.191406 3.8125 -37.265625 C 2.9375 -38.335938 2.789062 -39.316406 3.375 -40.203125 C 4.738281 -42.160156 6.253906 -45.019531 7.921875 -48.78125 C 9.585938 -52.550781 11.054688 -56.097656 12.328125 -59.421875 C 10.859375 -59.910156 9.679688 -60.738281 8.796875 -61.90625 C 7.921875 -63.082031 7.484375 -64.992188 7.484375 -67.640625 C 7.484375 -69.691406 8.019531 -71.71875 9.09375 -73.71875 C 10.164062 -75.726562 11.679688 -77.414062 13.640625 -78.78125 C 15.597656 -80.15625 17.898438 -80.84375 20.546875 -80.84375 C 25.140625 -80.84375 29.5625 -79.960938 33.8125 -78.203125 C 38.070312 -76.441406 41.570312 -74.210938 44.3125 -71.515625 C 47.050781 -68.828125 48.421875 -66.164062 48.421875 -63.53125 C 48.421875 -60.789062 47.90625 -58.195312 46.875 -55.75 C 45.851562 -53.300781 44.800781 -50.804688 43.71875 -48.265625 C 42.644531 -45.722656 42.109375 -42.9375 42.109375 -39.90625 C 42.109375 -37.851562 42.789062 -36.140625 44.15625 -34.765625 C 45.53125 -33.398438 47.878906 -32.71875 51.203125 -32.71875 C 53.453125 -32.71875 55.332031 -33.425781 56.84375 -34.84375 C 58.363281 -36.257812 59.859375 -38.046875 61.328125 -40.203125 Z M 61.328125 -40.203125 "/></g></g></g><g fill="#fefae0" fill-opacity="1"><g transform="translate(254.746618, 128.181177)"><g><path d="M 77.46875 -40.203125 C 78.050781 -41.078125 78.976562 -41.390625 80.25 -41.140625 C 81.519531 -40.898438 82.617188 -40.363281 83.546875 -39.53125 C 84.484375 -38.707031 84.65625 -37.707031 84.0625 -36.53125 C 81.914062 -32.03125 79.835938 -27.628906 77.828125 -23.328125 C 75.828125 -19.023438 73.703125 -15.113281 71.453125 -11.59375 C 69.203125 -8.070312 66.707031 -5.257812 63.96875 -3.15625 C 61.226562 -1.050781 58.097656 0 54.578125 0 C 52.421875 0 50.707031 -1.078125 49.4375 -3.234375 C 46.3125 6.847656 42.960938 14.921875 39.390625 20.984375 C 35.816406 27.046875 31.828125 31.445312 27.421875 34.1875 C 23.023438 36.925781 18.039062 38.296875 12.46875 38.296875 C 4.738281 38.296875 -1.25 36.265625 -5.5 32.203125 C -9.757812 28.140625 -11.890625 22.585938 -11.890625 15.546875 C -11.890625 11.835938 -11.347656 8.632812 -10.265625 5.9375 C -9.191406 3.25 -7.96875 1.125 -6.59375 -0.4375 C -5.226562 -2 -4.007812 -3 -2.9375 -3.4375 C -1.863281 -3.882812 -1.273438 -3.71875 -1.171875 -2.9375 C -0.785156 0.6875 0.847656 3.625 3.734375 5.875 C 6.617188 8.125 10.507812 9.296875 15.40625 9.390625 C 18.832031 9.390625 22.0625 8.554688 25.09375 6.890625 C 28.125 5.234375 30.835938 3.054688 33.234375 0.359375 C 35.628906 -2.328125 37.507812 -5.28125 38.875 -8.5 C 40.25 -11.726562 40.9375 -14.957031 40.9375 -18.1875 C 40.9375 -19.457031 40.445312 -20.066406 39.46875 -20.015625 C 38.488281 -19.972656 37.65625 -19.21875 36.96875 -17.75 C 35.007812 -12.664062 32.144531 -8.65625 28.375 -5.71875 C 24.613281 -2.789062 20.878906 -1.328125 17.171875 -1.328125 C 12.078125 -1.328125 8.015625 -3.207031 4.984375 -6.96875 C 1.953125 -10.738281 0.4375 -15.359375 0.4375 -20.828125 C 0.4375 -26.304688 1.21875 -32.078125 2.78125 -38.140625 C 4.351562 -44.210938 6.726562 -49.910156 9.90625 -55.234375 C 13.082031 -60.566406 17.039062 -64.921875 21.78125 -68.296875 C 26.53125 -71.671875 32.035156 -73.359375 38.296875 -73.359375 C 41.222656 -73.359375 43.492188 -73.085938 45.109375 -72.546875 C 46.722656 -72.015625 47.945312 -71.351562 48.78125 -70.5625 C 49.613281 -69.78125 50.320312 -69.117188 50.90625 -68.578125 C 51.5 -68.046875 52.285156 -67.78125 53.265625 -67.78125 C 54.921875 -67.78125 56.257812 -68.242188 57.28125 -69.171875 C 58.3125 -70.109375 59.460938 -71.039062 60.734375 -71.96875 C 62.015625 -72.894531 63.773438 -73.359375 66.015625 -73.359375 C 67.972656 -73.359375 69.316406 -72.867188 70.046875 -71.890625 C 70.785156 -70.910156 71.15625 -69.59375 71.15625 -67.9375 C 71.15625 -66.175781 70.59375 -64.09375 69.46875 -61.6875 C 68.34375 -59.289062 66.875 -56.207031 65.0625 -52.4375 C 63.257812 -48.675781 61.332031 -43.816406 59.28125 -37.859375 C 58.300781 -33.941406 58.296875 -31.222656 59.265625 -29.703125 C 60.242188 -28.191406 61.566406 -27.4375 63.234375 -27.4375 C 65.484375 -27.4375 67.878906 -28.804688 70.421875 -31.546875 C 72.960938 -34.285156 75.3125 -37.171875 77.46875 -40.203125 Z M 30.515625 -30.375 C 32.960938 -30.375 35.113281 -31.101562 36.96875 -32.5625 C 38.832031 -34.03125 40.300781 -35.816406 41.375 -37.921875 C 42.445312 -40.023438 42.984375 -42.101562 42.984375 -44.15625 C 42.984375 -46.3125 42.347656 -48.144531 41.078125 -49.65625 C 39.804688 -51.175781 37.753906 -51.9375 34.921875 -51.9375 C 32.566406 -51.9375 30.484375 -51.25 28.671875 -49.875 C 26.867188 -48.507812 25.453125 -46.773438 24.421875 -44.671875 C 23.398438 -42.566406 22.890625 -40.441406 22.890625 -38.296875 C 22.890625 -36.140625 23.472656 -34.28125 24.640625 -32.71875 C 25.816406 -31.15625 27.773438 -30.375 30.515625 -30.375 Z M 30.515625 -30.375 "/></g></g></g><g fill="#fefae0" fill-opacity="1"><g transform="translate(328.839623, 128.181177)"><g><path d="M 73.21875 -40.203125 C 73.800781 -41.078125 74.726562 -41.390625 76 -41.140625 C 77.269531 -40.898438 78.367188 -40.363281 79.296875 -39.53125 C 80.222656 -38.707031 80.394531 -37.707031 79.8125 -36.53125 C 78.445312 -33.59375 76.660156 -30.554688 74.453125 -27.421875 C 72.253906 -24.296875 69.515625 -21.679688 66.234375 -19.578125 C 62.960938 -17.484375 58.929688 -16.4375 54.140625 -16.4375 L 52.375 -16.4375 C 48.757812 -11.445312 44.429688 -7.457031 39.390625 -4.46875 C 34.359375 -1.488281 29.101562 0 23.625 0 C 17.070312 0 11.640625 -2.195312 7.328125 -6.59375 C 3.023438 -11 0.875 -17.019531 0.875 -24.65625 C 0.875 -30.125 1.875 -35.71875 3.875 -41.4375 C 5.882812 -47.164062 8.695312 -52.453125 12.3125 -57.296875 C 15.9375 -62.140625 20.191406 -66.023438 25.078125 -68.953125 C 29.972656 -71.890625 35.359375 -73.359375 41.234375 -73.359375 C 45.242188 -73.359375 48.859375 -72.550781 52.078125 -70.9375 C 55.304688 -69.320312 57.875 -66.65625 59.78125 -62.9375 C 61.695312 -59.21875 62.65625 -54.28125 62.65625 -48.125 C 62.65625 -42.9375 61.921875 -37.898438 60.453125 -33.015625 L 61.46875 -33.015625 C 63.625 -33.015625 65.679688 -33.578125 67.640625 -34.703125 C 69.597656 -35.828125 71.457031 -37.660156 73.21875 -40.203125 Z M 31.984375 -30.375 C 34.429688 -30.375 36.582031 -31.101562 38.4375 -32.5625 C 40.300781 -34.03125 41.769531 -35.816406 42.84375 -37.921875 C 43.914062 -40.023438 44.453125 -42.101562 44.453125 -44.15625 C 44.453125 -46.3125 43.816406 -48.144531 42.546875 -49.65625 C 41.273438 -51.175781 39.222656 -51.9375 36.390625 -51.9375 C 34.035156 -51.9375 31.953125 -51.25 30.140625 -49.875 C 28.335938 -48.507812 26.921875 -46.773438 25.890625 -44.671875 C 24.867188 -42.566406 24.359375 -40.441406 24.359375 -38.296875 C 24.359375 -36.140625 24.941406 -34.28125 26.109375 -32.71875 C 27.285156 -31.15625 29.242188 -30.375 31.984375 -30.375 Z M 31.984375 -30.375 "/></g></g></g><g fill="#fefae0" fill-opacity="1"><g transform="translate(398.677784, 128.181177)"><g><path d="M 14.8125 0 C 9.34375 0 5.3125 -1.6875 2.71875 -5.0625 C 0.125 -8.4375 -1.171875 -12.835938 -1.171875 -18.265625 C -1.171875 -23.691406 -0.0976562 -29.535156 2.046875 -35.796875 C 3.328125 -39.515625 4.75 -43.523438 6.3125 -47.828125 C 7.875 -52.128906 9.582031 -56.828125 11.4375 -61.921875 C 9.289062 -61.921875 7.65625 -62.484375 6.53125 -63.609375 C 5.40625 -64.734375 4.671875 -66.050781 4.328125 -67.5625 C 3.984375 -69.082031 3.984375 -70.40625 4.328125 -71.53125 C 4.671875 -72.65625 5.28125 -73.21875 6.15625 -73.21875 C 10.46875 -73.21875 13.84375 -74.414062 16.28125 -76.8125 C 18.726562 -79.207031 20.441406 -81.722656 21.421875 -84.359375 C 23.179688 -88.660156 24.890625 -91.375 26.546875 -92.5 C 28.210938 -93.625 29.976562 -94.1875 31.84375 -94.1875 C 34.582031 -94.1875 36.289062 -93.035156 36.96875 -90.734375 C 37.65625 -88.441406 36.875 -85 34.625 -80.40625 C 33.550781 -78.050781 32.960938 -76.265625 32.859375 -75.046875 C 32.765625 -73.828125 33.398438 -73.21875 34.765625 -73.21875 L 42.40625 -73.21875 C 43.382812 -73.21875 44.019531 -72.53125 44.3125 -71.15625 C 44.601562 -69.789062 44.578125 -68.226562 44.234375 -66.46875 C 43.890625 -64.707031 43.253906 -63.140625 42.328125 -61.765625 C 41.398438 -60.398438 40.203125 -59.71875 38.734375 -59.71875 C 34.234375 -59.71875 30.90625 -59.546875 28.75 -59.203125 C 26.601562 -58.859375 25.085938 -58 24.203125 -56.625 C 23.328125 -55.257812 22.398438 -52.914062 21.421875 -49.59375 C 19.859375 -44.507812 20.078125 -40.445312 22.078125 -37.40625 C 24.085938 -34.375 27.242188 -32.859375 31.546875 -32.859375 C 34.484375 -32.859375 37.097656 -33.519531 39.390625 -34.84375 C 41.691406 -36.164062 43.578125 -37.953125 45.046875 -40.203125 C 45.828125 -41.378906 46.828125 -41.796875 48.046875 -41.453125 C 49.273438 -41.109375 50.300781 -40.445312 51.125 -39.46875 C 51.957031 -38.488281 52.128906 -37.507812 51.640625 -36.53125 C 50.765625 -34.863281 49.59375 -32.5625 48.125 -29.625 C 46.65625 -26.695312 44.894531 -23.519531 42.84375 -20.09375 C 40.789062 -16.675781 38.394531 -13.453125 35.65625 -10.421875 C 32.914062 -7.390625 29.804688 -4.894531 26.328125 -2.9375 C 22.859375 -0.976562 19.019531 0 14.8125 0 Z M 14.8125 0 "/></g></g></g><g fill="#fefae0" fill-opacity="1"><g transform="translate(440.345903, 128.181177)"><g/></g></g><g fill="#fefae0" fill-opacity="1"><g transform="translate(493.164687, 128.181177)"><g><path d="M 68.8125 -109.15625 C 85.726562 -109.15625 98.222656 -105.898438 106.296875 -99.390625 C 114.367188 -92.890625 118.40625 -83.675781 118.40625 -71.75 C 118.40625 -67.25 117.597656 -62.695312 115.984375 -58.09375 C 114.367188 -53.5 111.921875 -49.269531 108.640625 -45.40625 C 105.367188 -41.539062 101.257812 -38.457031 96.3125 -36.15625 C 91.375 -33.863281 85.628906 -32.71875 79.078125 -32.71875 C 75.847656 -32.71875 73.378906 -33.082031 71.671875 -33.8125 C 69.960938 -34.550781 68.59375 -35.257812 67.5625 -35.9375 C 66.53125 -36.625 65.378906 -36.96875 64.109375 -36.96875 C 62.648438 -36.96875 61.476562 -36.285156 60.59375 -34.921875 L 59.859375 -33.453125 L 60.296875 -34.484375 L 59.859375 -33.453125 C 57.023438 -26.015625 53.453125 -19.285156 49.140625 -13.265625 C 44.835938 -7.253906 39.945312 -2.515625 34.46875 0.953125 C 29 4.421875 23.082031 6.15625 16.71875 6.15625 C 11.050781 6.15625 6.429688 4.984375 2.859375 2.640625 C -0.710938 0.296875 -3.300781 -2.734375 -4.90625 -6.453125 C -6.519531 -10.171875 -7.328125 -14.035156 -7.328125 -18.046875 C -7.328125 -22.148438 -6.519531 -26.0625 -4.90625 -29.78125 C -3.300781 -33.5 -1.03125 -36.53125 1.90625 -38.875 C 4.84375 -41.226562 8.265625 -42.40625 12.171875 -42.40625 C 13.640625 -42.40625 14.375 -41.816406 14.375 -40.640625 C 14.375 -37.410156 15.570312 -34.789062 17.96875 -32.78125 C 20.363281 -30.78125 23.273438 -29.78125 26.703125 -29.78125 C 30.710938 -29.78125 35.1875 -31.757812 40.125 -35.71875 C 45.0625 -39.6875 49.242188 -46.070312 52.671875 -54.875 C 53.941406 -58.195312 55.238281 -61.644531 56.5625 -65.21875 C 57.882812 -68.789062 59.179688 -72.140625 60.453125 -75.265625 C 61.429688 -77.804688 62.722656 -79.613281 64.328125 -80.6875 C 65.941406 -81.769531 67.828125 -82.3125 69.984375 -82.3125 C 73.117188 -82.3125 75.171875 -81.597656 76.140625 -80.171875 C 77.117188 -78.753906 77.21875 -76.828125 76.4375 -74.390625 C 75.363281 -71.160156 74.410156 -68.367188 73.578125 -66.015625 C 72.742188 -63.671875 72.082031 -61.570312 71.59375 -59.71875 L 72.03125 -60.734375 C 71.0625 -57.804688 70.988281 -55.65625 71.8125 -54.28125 C 72.644531 -52.914062 74.675781 -52.234375 77.90625 -52.234375 C 80.644531 -52.234375 83.3125 -52.988281 85.90625 -54.5 C 88.5 -56.019531 90.648438 -58.222656 92.359375 -61.109375 C 94.066406 -63.992188 94.921875 -67.539062 94.921875 -71.75 C 94.921875 -78.101562 92.695312 -82.648438 88.25 -85.390625 C 83.800781 -88.128906 77.515625 -89.5 69.390625 -89.5 C 63.722656 -89.5 58.492188 -88.835938 53.703125 -87.515625 C 48.910156 -86.191406 45.046875 -84.113281 42.109375 -81.28125 C 39.171875 -78.445312 37.703125 -74.78125 37.703125 -70.28125 C 37.703125 -68.320312 38.238281 -66.679688 39.3125 -65.359375 C 40.394531 -64.035156 41.71875 -63.375 43.28125 -63.375 C 43.96875 -61.8125 44.015625 -59.929688 43.421875 -57.734375 C 42.835938 -55.535156 41.6875 -53.429688 39.96875 -51.421875 C 38.257812 -49.421875 36.0625 -47.734375 33.375 -46.359375 C 30.6875 -44.992188 27.582031 -44.3125 24.0625 -44.3125 C 20.050781 -44.3125 16.675781 -45.265625 13.9375 -47.171875 C 11.195312 -49.078125 9.140625 -51.59375 7.765625 -54.71875 C 6.398438 -57.851562 5.71875 -61.179688 5.71875 -64.703125 C 5.71875 -70.765625 7.1875 -76.460938 10.125 -81.796875 C 13.0625 -87.128906 17.265625 -91.847656 22.734375 -95.953125 C 28.210938 -100.054688 34.835938 -103.28125 42.609375 -105.625 C 50.390625 -107.976562 59.125 -109.15625 68.8125 -109.15625 Z M 68.8125 -109.15625 "/></g></g></g><g fill="#fefae0" fill-opacity="1"><g transform="translate(604.670967, 128.181177)"><g><path d="M 15.546875 0 C 10.554688 0 6.789062 -2.050781 4.25 -6.15625 C 1.707031 -10.269531 0.4375 -15.601562 0.4375 -22.15625 C 0.4375 -26.257812 0.945312 -30.632812 1.96875 -35.28125 C 3 -39.925781 4.515625 -44.5 6.515625 -49 C 8.523438 -53.5 11.046875 -57.582031 14.078125 -61.25 C 17.117188 -64.914062 20.644531 -67.847656 24.65625 -70.046875 C 28.664062 -72.253906 33.210938 -73.359375 38.296875 -73.359375 C 41.222656 -73.359375 43.492188 -73.085938 45.109375 -72.546875 C 46.722656 -72.015625 47.945312 -71.351562 48.78125 -70.5625 C 49.613281 -69.78125 50.320312 -69.117188 50.90625 -68.578125 C 51.5 -68.046875 52.285156 -67.78125 53.265625 -67.78125 C 54.921875 -67.78125 56.257812 -68.242188 57.28125 -69.171875 C 58.3125 -70.109375 59.460938 -71.039062 60.734375 -71.96875 C 62.015625 -72.894531 63.773438 -73.359375 66.015625 -73.359375 C 67.972656 -73.359375 69.316406 -72.867188 70.046875 -71.890625 C 70.785156 -70.910156 71.15625 -69.59375 71.15625 -67.9375 C 71.15625 -65.195312 70.394531 -62.476562 68.875 -59.78125 C 67.363281 -57.09375 65.773438 -53.597656 64.109375 -49.296875 C 61.671875 -43.921875 60.769531 -39.8125 61.40625 -36.96875 C 62.039062 -34.132812 63.972656 -32.71875 67.203125 -32.71875 C 69.742188 -32.71875 71.941406 -33.375 73.796875 -34.6875 C 75.660156 -36.007812 77.320312 -37.847656 78.78125 -40.203125 C 79.570312 -41.378906 80.578125 -41.796875 81.796875 -41.453125 C 83.015625 -41.109375 84.039062 -40.445312 84.875 -39.46875 C 85.707031 -38.488281 85.878906 -37.507812 85.390625 -36.53125 C 83.628906 -33.101562 81.742188 -29.3125 79.734375 -25.15625 C 77.734375 -21 75.507812 -17.015625 73.0625 -13.203125 C 70.613281 -9.390625 67.828125 -6.234375 64.703125 -3.734375 C 61.578125 -1.242188 57.957031 0 53.84375 0 C 48.757812 0 45.164062 -2.050781 43.0625 -6.15625 C 40.957031 -10.269531 40.347656 -15.359375 41.234375 -21.421875 L 40.640625 -21.421875 C 37.703125 -15.453125 34.082031 -10.390625 29.78125 -6.234375 C 25.476562 -2.078125 20.734375 0 15.546875 0 Z M 30.21875 -30.375 C 32.757812 -30.375 34.984375 -31.101562 36.890625 -32.5625 C 38.804688 -34.03125 40.300781 -35.816406 41.375 -37.921875 C 42.445312 -40.023438 42.984375 -42.101562 42.984375 -44.15625 C 42.984375 -46.601562 42.296875 -48.507812 40.921875 -49.875 C 39.554688 -51.25 37.703125 -51.9375 35.359375 -51.9375 C 32.816406 -51.9375 30.613281 -51.25 28.75 -49.875 C 26.894531 -48.507812 25.453125 -46.773438 24.421875 -44.671875 C 23.398438 -42.566406 22.890625 -40.441406 22.890625 -38.296875 C 22.890625 -35.847656 23.546875 -33.914062 24.859375 -32.5 C 26.179688 -31.082031 27.96875 -30.375 30.21875 -30.375 Z M 30.21875 -30.375 "/></g></g></g><g fill="#fefae0" fill-opacity="1"><g transform="translate(680.084415, 128.181177)"><g><path d="M 60.296875 -40.203125 C 61.078125 -41.378906 62.078125 -41.796875 63.296875 -41.453125 C 64.523438 -41.109375 65.554688 -40.445312 66.390625 -39.46875 C 67.222656 -38.488281 67.394531 -37.507812 66.90625 -36.53125 C 66.125 -34.863281 64.972656 -32.539062 63.453125 -29.5625 C 61.941406 -26.582031 60.035156 -23.40625 57.734375 -20.03125 C 55.429688 -16.65625 52.640625 -13.453125 49.359375 -10.421875 C 46.085938 -7.390625 42.320312 -4.914062 38.0625 -3 C 33.8125 -1.09375 28.945312 -0.140625 23.46875 -0.140625 C 17.019531 -0.140625 11.910156 -1.507812 8.140625 -4.25 C 4.378906 -6.988281 1.8125 -10.460938 0.4375 -14.671875 C -0.925781 -18.878906 -1.316406 -23.28125 -0.734375 -27.875 C -0.148438 -32.46875 1.21875 -36.578125 3.375 -40.203125 L 3.96875 -41.078125 C 6.601562 -44.597656 9.21875 -48.4375 11.8125 -52.59375 C 14.40625 -56.75 17.070312 -60.660156 19.8125 -64.328125 C 22.550781 -68.003906 25.382812 -71.039062 28.3125 -73.4375 C 31.25 -75.832031 34.28125 -77.03125 37.40625 -77.03125 C 42.007812 -77.03125 45.410156 -75.953125 47.609375 -73.796875 C 49.804688 -71.648438 50.859375 -69.398438 50.765625 -67.046875 C 50.765625 -65.878906 50.25 -64.898438 49.21875 -64.109375 C 48.195312 -63.328125 46.972656 -62.617188 45.546875 -61.984375 C 44.128906 -61.347656 42.882812 -60.566406 41.8125 -59.640625 C 40.738281 -58.710938 40.203125 -57.515625 40.203125 -56.046875 C 40.203125 -55.160156 40.882812 -53.394531 42.25 -50.75 C 43.625 -48.113281 45.09375 -45.15625 46.65625 -41.875 C 48.21875 -38.601562 49.296875 -35.453125 49.890625 -32.421875 C 52.140625 -32.523438 54.066406 -33.304688 55.671875 -34.765625 C 57.285156 -36.234375 58.828125 -38.046875 60.296875 -40.203125 Z M 18.1875 -30.375 C 21.414062 -30.375 23.910156 -31.398438 25.671875 -33.453125 C 27.429688 -35.503906 28.3125 -38.046875 28.3125 -41.078125 C 28.3125 -42.835938 28.039062 -44.644531 27.5 -46.5 C 26.96875 -48.363281 26.164062 -50.273438 25.09375 -52.234375 C 24.113281 -54.191406 22.9375 -54.191406 21.5625 -52.234375 C 19.707031 -49.492188 17.726562 -46.726562 15.625 -43.9375 C 13.519531 -41.15625 11.640625 -38.6875 9.984375 -36.53125 C 9.984375 -34.769531 10.738281 -33.300781 12.25 -32.125 C 13.769531 -30.957031 15.75 -30.375 18.1875 -30.375 Z M 18.1875 -30.375 "/></g></g></g><g fill="#fefae0" fill-opacity="1"><g transform="translate(736.864593, 128.181177)"><g><path d="M 60.296875 -40.203125 C 61.078125 -41.378906 62.078125 -41.796875 63.296875 -41.453125 C 64.523438 -41.109375 65.554688 -40.445312 66.390625 -39.46875 C 67.222656 -38.488281 67.394531 -37.507812 66.90625 -36.53125 C 66.125 -34.863281 64.972656 -32.539062 63.453125 -29.5625 C 61.941406 -26.582031 60.035156 -23.40625 57.734375 -20.03125 C 55.429688 -16.65625 52.640625 -13.453125 49.359375 -10.421875 C 46.085938 -7.390625 42.320312 -4.914062 38.0625 -3 C 33.8125 -1.09375 28.945312 -0.140625 23.46875 -0.140625 C 17.019531 -0.140625 11.910156 -1.507812 8.140625 -4.25 C 4.378906 -6.988281 1.8125 -10.460938 0.4375 -14.671875 C -0.925781 -18.878906 -1.316406 -23.28125 -0.734375 -27.875 C -0.148438 -32.46875 1.21875 -36.578125 3.375 -40.203125 L 3.96875 -41.078125 C 6.601562 -44.597656 9.21875 -48.4375 11.8125 -52.59375 C 14.40625 -56.75 17.070312 -60.660156 19.8125 -64.328125 C 22.550781 -68.003906 25.382812 -71.039062 28.3125 -73.4375 C 31.25 -75.832031 34.28125 -77.03125 37.40625 -77.03125 C 42.007812 -77.03125 45.410156 -75.953125 47.609375 -73.796875 C 49.804688 -71.648438 50.859375 -69.398438 50.765625 -67.046875 C 50.765625 -65.878906 50.25 -64.898438 49.21875 -64.109375 C 48.195312 -63.328125 46.972656 -62.617188 45.546875 -61.984375 C 44.128906 -61.347656 42.882812 -60.566406 41.8125 -59.640625 C 40.738281 -58.710938 40.203125 -57.515625 40.203125 -56.046875 C 40.203125 -55.160156 40.882812 -53.394531 42.25 -50.75 C 43.625 -48.113281 45.09375 -45.15625 46.65625 -41.875 C 48.21875 -38.601562 49.296875 -35.453125 49.890625 -32.421875 C 52.140625 -32.523438 54.066406 -33.304688 55.671875 -34.765625 C 57.285156 -36.234375 58.828125 -38.046875 60.296875 -40.203125 Z M 18.1875 -30.375 C 21.414062 -30.375 23.910156 -31.398438 25.671875 -33.453125 C 27.429688 -35.503906 28.3125 -38.046875 28.3125 -41.078125 C 28.3125 -42.835938 28.039062 -44.644531 27.5 -46.5 C 26.96875 -48.363281 26.164062 -50.273438 25.09375 -52.234375 C 24.113281 -54.191406 22.9375 -54.191406 21.5625 -52.234375 C 19.707031 -49.492188 17.726562 -46.726562 15.625 -43.9375 C 13.519531 -41.15625 11.640625 -38.6875 9.984375 -36.53125 C 9.984375 -34.769531 10.738281 -33.300781 12.25 -32.125 C 13.769531 -30.957031 15.75 -30.375 18.1875 -30.375 Z M 18.1875 -30.375 "/></g></g></g><g fill="#fefae0" fill-opacity="1"><g transform="translate(793.644771, 128.181177)"><g><path d="M 102.5625 -40.203125 C 103.144531 -41.078125 104.070312 -41.390625 105.34375 -41.140625 C 106.613281 -40.898438 107.710938 -40.363281 108.640625 -39.53125 C 109.566406 -38.707031 109.738281 -37.707031 109.15625 -36.53125 C 107.789062 -33.59375 106.003906 -30.554688 103.796875 -27.421875 C 101.597656 -24.296875 98.859375 -21.679688 95.578125 -19.578125 C 92.304688 -17.484375 88.273438 -16.4375 83.484375 -16.4375 C 81.921875 -16.4375 80.40625 -16.726562 78.9375 -17.3125 C 75.3125 -12.425781 71.46875 -8.34375 67.40625 -5.0625 C 63.351562 -1.78125 59.175781 -0.140625 54.875 -0.140625 C 52.820312 -0.140625 50.890625 -0.847656 49.078125 -2.265625 C 47.265625 -3.691406 45.867188 -6.257812 44.890625 -9.96875 C 43.910156 -13.6875 43.71875 -18.972656 44.3125 -25.828125 C 41.769531 -19.273438 38.957031 -14.113281 35.875 -10.34375 C 32.789062 -6.570312 29.707031 -3.925781 26.625 -2.40625 C 23.539062 -0.894531 20.632812 -0.140625 17.90625 -0.140625 C 13.988281 -0.140625 10.78125 -1.363281 8.28125 -3.8125 C 5.789062 -6.257812 3.984375 -9.4375 2.859375 -13.34375 C 1.734375 -17.257812 1.195312 -21.585938 1.25 -26.328125 C 1.300781 -31.078125 1.910156 -35.703125 3.078125 -40.203125 C 3.960938 -44.015625 5.113281 -47.875 6.53125 -51.78125 C 7.945312 -55.695312 9.535156 -59.289062 11.296875 -62.5625 C 13.054688 -65.84375 14.890625 -68.460938 16.796875 -70.421875 C 18.703125 -72.378906 20.679688 -73.359375 22.734375 -73.359375 C 24.203125 -73.359375 25.328125 -72.914062 26.109375 -72.03125 C 26.898438 -71.15625 27.296875 -69.640625 27.296875 -67.484375 C 27.296875 -64.742188 26.734375 -61.757812 25.609375 -58.53125 C 24.484375 -55.3125 23.378906 -52.0625 22.296875 -48.78125 C 21.222656 -45.507812 20.6875 -42.40625 20.6875 -39.46875 C 20.6875 -36.726562 21.347656 -34.523438 22.671875 -32.859375 C 23.992188 -31.203125 25.972656 -30.375 28.609375 -30.375 C 32.222656 -30.375 35.007812 -31.664062 36.96875 -34.25 C 38.925781 -36.84375 40.25 -39.707031 40.9375 -42.84375 C 41.519531 -45.1875 41.8125 -47.359375 41.8125 -49.359375 C 41.8125 -51.367188 41.859375 -53.425781 41.953125 -55.53125 C 42.054688 -57.632812 42.453125 -59.957031 43.140625 -62.5 C 44.503906 -67 46.210938 -69.929688 48.265625 -71.296875 C 50.316406 -72.671875 53.007812 -73.359375 56.34375 -73.359375 C 62.5 -73.359375 65.578125 -70.03125 65.578125 -63.375 C 65.578125 -61.03125 64.914062 -58.460938 63.59375 -55.671875 C 62.28125 -52.890625 60.960938 -50.101562 59.640625 -47.3125 C 58.316406 -44.53125 57.65625 -41.914062 57.65625 -39.46875 C 57.65625 -36.726562 58.316406 -34.523438 59.640625 -32.859375 C 60.960938 -31.203125 62.941406 -30.375 65.578125 -30.375 C 68.222656 -30.375 70.5 -30.9375 72.40625 -32.0625 C 74.3125 -33.1875 75.953125 -34.675781 77.328125 -36.53125 C 76.929688 -38.78125 76.585938 -40.976562 76.296875 -43.125 C 76.003906 -45.28125 75.859375 -47.484375 75.859375 -49.734375 C 75.859375 -54.035156 76.367188 -57.992188 77.390625 -61.609375 C 78.421875 -65.234375 80.035156 -68.144531 82.234375 -70.34375 C 84.429688 -72.550781 87.195312 -73.65625 90.53125 -73.65625 C 94.34375 -73.65625 96.738281 -71.914062 97.71875 -68.4375 C 98.695312 -64.96875 98.378906 -60.175781 96.765625 -54.0625 C 95.148438 -47.945312 92.335938 -40.976562 88.328125 -33.15625 C 88.816406 -33.0625 89.253906 -33.015625 89.640625 -33.015625 C 90.035156 -33.015625 90.425781 -33.015625 90.8125 -33.015625 C 92.96875 -33.015625 95.023438 -33.578125 96.984375 -34.703125 C 98.941406 -35.828125 100.800781 -37.660156 102.5625 -40.203125 Z M 102.5625 -40.203125 "/></g></g></g><g fill="#fefae0" fill-opacity="1"><g transform="translate(892.826681, 128.181177)"><g><path d="M 73.21875 -40.203125 C 73.800781 -41.078125 74.726562 -41.390625 76 -41.140625 C 77.269531 -40.898438 78.367188 -40.363281 79.296875 -39.53125 C 80.222656 -38.707031 80.394531 -37.707031 79.8125 -36.53125 C 78.445312 -33.59375 76.660156 -30.554688 74.453125 -27.421875 C 72.253906 -24.296875 69.515625 -21.679688 66.234375 -19.578125 C 62.960938 -17.484375 58.929688 -16.4375 54.140625 -16.4375 L 52.375 -16.4375 C 48.757812 -11.445312 44.429688 -7.457031 39.390625 -4.46875 C 34.359375 -1.488281 29.101562 0 23.625 0 C 17.070312 0 11.640625 -2.195312 7.328125 -6.59375 C 3.023438 -11 0.875 -17.019531 0.875 -24.65625 C 0.875 -30.125 1.875 -35.71875 3.875 -41.4375 C 5.882812 -47.164062 8.695312 -52.453125 12.3125 -57.296875 C 15.9375 -62.140625 20.191406 -66.023438 25.078125 -68.953125 C 29.972656 -71.890625 35.359375 -73.359375 41.234375 -73.359375 C 45.242188 -73.359375 48.859375 -72.550781 52.078125 -70.9375 C 55.304688 -69.320312 57.875 -66.65625 59.78125 -62.9375 C 61.695312 -59.21875 62.65625 -54.28125 62.65625 -48.125 C 62.65625 -42.9375 61.921875 -37.898438 60.453125 -33.015625 L 61.46875 -33.015625 C 63.625 -33.015625 65.679688 -33.578125 67.640625 -34.703125 C 69.597656 -35.828125 71.457031 -37.660156 73.21875 -40.203125 Z M 31.984375 -30.375 C 34.429688 -30.375 36.582031 -31.101562 38.4375 -32.5625 C 40.300781 -34.03125 41.769531 -35.816406 42.84375 -37.921875 C 43.914062 -40.023438 44.453125 -42.101562 44.453125 -44.15625 C 44.453125 -46.3125 43.816406 -48.144531 42.546875 -49.65625 C 41.273438 -51.175781 39.222656 -51.9375 36.390625 -51.9375 C 34.035156 -51.9375 31.953125 -51.25 30.140625 -49.875 C 28.335938 -48.507812 26.921875 -46.773438 25.890625 -44.671875 C 24.867188 -42.566406 24.359375 -40.441406 24.359375 -38.296875 C 24.359375 -36.140625 24.941406 -34.28125 26.109375 -32.71875 C 27.285156 -31.15625 29.242188 -30.375 31.984375 -30.375 Z M 31.984375 -30.375 "/></g></g></g><g fill="#fefae0" fill-opacity="1"><g transform="translate(962.664842, 128.181177)"><g><path d="M 61.328125 -40.203125 C 62.109375 -41.378906 63.132812 -41.796875 64.40625 -41.453125 C 65.675781 -41.109375 66.726562 -40.445312 67.5625 -39.46875 C 68.394531 -38.488281 68.519531 -37.507812 67.9375 -36.53125 C 66.957031 -34.96875 65.78125 -32.691406 64.40625 -29.703125 C 63.039062 -26.722656 61.40625 -23.546875 59.5 -20.171875 C 57.59375 -16.796875 55.363281 -13.566406 52.8125 -10.484375 C 50.269531 -7.410156 47.410156 -4.894531 44.234375 -2.9375 C 41.054688 -0.976562 37.460938 0 33.453125 0 C 29.441406 0 26.257812 -0.753906 23.90625 -2.265625 C 21.5625 -3.785156 19.875 -5.742188 18.84375 -8.140625 C 17.820312 -10.535156 17.3125 -12.957031 17.3125 -15.40625 C 17.3125 -18.832031 17.820312 -22.207031 18.84375 -25.53125 C 19.875 -28.851562 21.070312 -32.03125 22.4375 -35.0625 C 23.8125 -38.09375 25.007812 -40.878906 26.03125 -43.421875 C 27.0625 -45.972656 27.578125 -48.128906 27.578125 -49.890625 C 27.578125 -50.671875 27.015625 -51.816406 25.890625 -53.328125 C 24.765625 -54.847656 22.738281 -56.144531 19.8125 -57.21875 C 18.925781 -55.257812 17.867188 -52.984375 16.640625 -50.390625 C 15.421875 -47.804688 14.203125 -45.265625 12.984375 -42.765625 C 11.765625 -40.273438 10.765625 -38.195312 9.984375 -36.53125 C 9.390625 -35.257812 8.429688 -34.796875 7.109375 -35.140625 C 5.796875 -35.484375 4.695312 -36.191406 3.8125 -37.265625 C 2.9375 -38.335938 2.789062 -39.316406 3.375 -40.203125 C 4.738281 -42.160156 6.253906 -45.019531 7.921875 -48.78125 C 9.585938 -52.550781 11.054688 -56.097656 12.328125 -59.421875 C 10.859375 -59.910156 9.679688 -60.738281 8.796875 -61.90625 C 7.921875 -63.082031 7.484375 -64.992188 7.484375 -67.640625 C 7.484375 -69.691406 8.019531 -71.71875 9.09375 -73.71875 C 10.164062 -75.726562 11.679688 -77.414062 13.640625 -78.78125 C 15.597656 -80.15625 17.898438 -80.84375 20.546875 -80.84375 C 25.140625 -80.84375 29.5625 -79.960938 33.8125 -78.203125 C 38.070312 -76.441406 41.570312 -74.210938 44.3125 -71.515625 C 47.050781 -68.828125 48.421875 -66.164062 48.421875 -63.53125 C 48.421875 -60.789062 47.90625 -58.195312 46.875 -55.75 C 45.851562 -53.300781 44.800781 -50.804688 43.71875 -48.265625 C 42.644531 -45.722656 42.109375 -42.9375 42.109375 -39.90625 C 42.109375 -37.851562 42.789062 -36.140625 44.15625 -34.765625 C 45.53125 -33.398438 47.878906 -32.71875 51.203125 -32.71875 C 53.453125 -32.71875 55.332031 -33.425781 56.84375 -34.84375 C 58.363281 -36.257812 59.859375 -38.046875 61.328125 -40.203125 Z M 61.328125 -40.203125 "/></g></g></g><g fill="#fefae0" fill-opacity="1"><g transform="translate(1020.618727, 128.181177)"><g><path d="M 17.171875 0 C 11.398438 0 7.164062 -2.003906 4.46875 -6.015625 C 1.78125 -10.023438 0.4375 -14.960938 0.4375 -20.828125 C 0.4375 -26.304688 1.21875 -32.078125 2.78125 -38.140625 C 4.351562 -44.210938 6.726562 -49.910156 9.90625 -55.234375 C 13.082031 -60.566406 17.039062 -64.921875 21.78125 -68.296875 C 26.53125 -71.671875 32.035156 -73.359375 38.296875 -73.359375 C 41.222656 -73.359375 43.492188 -73.015625 45.109375 -72.328125 C 46.722656 -71.648438 47.945312 -70.84375 48.78125 -69.90625 C 49.613281 -68.976562 50.320312 -68.144531 50.90625 -67.40625 C 51.5 -66.675781 52.285156 -66.3125 53.265625 -66.3125 C 54.046875 -66.3125 54.679688 -67.191406 55.171875 -68.953125 C 55.660156 -70.710938 56.390625 -73.328125 57.359375 -76.796875 C 58.335938 -80.273438 59.859375 -84.507812 61.921875 -89.5 C 63.773438 -94 65.601562 -97.394531 67.40625 -99.6875 C 69.21875 -101.988281 70.957031 -103.53125 72.625 -104.3125 C 74.289062 -105.09375 75.859375 -105.484375 77.328125 -105.484375 C 79.867188 -105.484375 81.550781 -104.238281 82.375 -101.75 C 83.207031 -99.257812 82.644531 -95.910156 80.6875 -91.703125 L 64.109375 -49.296875 C 61.671875 -43.921875 60.769531 -39.8125 61.40625 -36.96875 C 62.039062 -34.132812 63.972656 -32.71875 67.203125 -32.71875 C 69.742188 -32.71875 71.941406 -33.375 73.796875 -34.6875 C 75.660156 -36.007812 77.320312 -37.847656 78.78125 -40.203125 C 79.570312 -41.378906 80.578125 -41.796875 81.796875 -41.453125 C 83.015625 -41.109375 84.039062 -40.445312 84.875 -39.46875 C 85.707031 -38.488281 85.878906 -37.507812 85.390625 -36.53125 C 83.628906 -33.101562 81.742188 -29.3125 79.734375 -25.15625 C 77.734375 -21 75.507812 -17.015625 73.0625 -13.203125 C 70.613281 -9.390625 67.828125 -6.234375 64.703125 -3.734375 C 61.578125 -1.242188 57.957031 0 53.84375 0 C 49.144531 0 45.671875 -2.050781 43.421875 -6.15625 C 41.171875 -10.269531 40.441406 -15.359375 41.234375 -21.421875 L 40.640625 -21.421875 C 37.609375 -15.453125 34.0625 -10.390625 30 -6.234375 C 25.945312 -2.078125 21.671875 0 17.171875 0 Z M 30.515625 -30.375 C 32.960938 -30.375 35.113281 -31.101562 36.96875 -32.5625 C 38.832031 -34.03125 40.300781 -35.816406 41.375 -37.921875 C 42.445312 -40.023438 42.984375 -42.101562 42.984375 -44.15625 C 42.984375 -46.3125 42.347656 -48.144531 41.078125 -49.65625 C 39.804688 -51.175781 37.753906 -51.9375 34.921875 -51.9375 C 32.566406 -51.9375 30.484375 -51.25 28.671875 -49.875 C 26.867188 -48.507812 25.453125 -46.773438 24.421875 -44.671875 C 23.398438 -42.566406 22.890625 -40.441406 22.890625 -38.296875 C 22.890625 -36.140625 23.472656 -34.28125 24.640625 -32.71875 C 25.816406 -31.15625 27.773438 -30.375 30.515625 -30.375 Z M 30.515625 -30.375 "/></g></g></g></svg>