<svg xmlns="http://www.w3.org/2000/svg" xmlns:xlink="http://www.w3.org/1999/xlink" width="700" zoomAndPan="magnify" viewBox="0 0 525 179.999997" height="240" preserveAspectRatio="xMidYMid meet" version="1.0"><defs><g/></defs><path stroke-linecap="butt" transform="matrix(0.75, 0, 0, 0.75, -70.806291, 54.307269)" fill="none" stroke-linejoin="miter" d="M 351.153201 66.434062 C 352.476117 64.465312 354.200076 63.762187 356.330284 64.324687 C 358.496951 64.887187 360.262576 65.991354 361.62716 67.637187 C 363.03341 69.283021 363.257368 70.928854 362.293826 72.574688 C 360.642785 75.387188 358.616743 79.262188 356.210493 84.199688 C 353.840701 89.095522 350.929242 94.397606 347.476117 100.095523 C 344.022992 105.756981 339.991742 111.178857 335.37195 116.35594 C 330.793824 121.533024 325.538616 125.767399 319.595907 129.064275 C 313.694865 132.355941 307.111531 134.001775 299.845906 134.001775 C 291.132364 134.001775 284.147988 131.449691 278.887571 126.350733 C 273.627154 121.251774 270.996946 113.928857 270.996946 104.371565 C 270.996946 98.949689 271.361529 93.168439 272.080279 87.027814 C 272.845904 80.845522 274.450071 74.059063 276.897988 66.673646 L 277.200071 65.652812 C 278.647988 60.913229 278.825071 57.72052 277.741738 56.074687 C 276.700071 54.428853 274.653196 53.605937 271.601112 53.605937 C 268.590696 53.605937 264.934445 53.605937 260.642778 53.605937 C 258.835487 53.605937 257.069862 53.84552 255.340695 54.329895 C 253.616736 54.809062 251.845903 56.699687 250.043819 59.991354 C 249.720903 60.673645 249.377153 61.37677 249.017778 62.09552 C 248.694861 62.819479 248.377153 63.522604 248.054236 64.204896 C 246.569861 67.658021 245.205278 70.788229 243.960486 73.60073 C 242.757361 76.371563 241.731319 78.658021 240.887569 80.465313 C 231.856318 99.855939 220.877151 115.350732 207.950067 126.954899 C 195.059441 138.559067 179.825065 144.355942 162.241731 144.355942 C 152.684439 144.355942 144.736521 142.3299 138.392771 138.277817 C 132.090687 134.262192 127.371937 129.064275 124.241729 122.678857 C 121.11152 116.256982 119.543812 109.673648 119.543812 102.928856 C 119.543812 96.184064 120.908395 89.736147 123.64277 83.595522 C 126.33027 77.41323 130.142771 72.397604 135.080271 68.543438 C 140.017771 64.647604 145.783396 62.699687 152.36673 62.699687 C 154.814647 62.699687 156.038605 63.684062 156.038605 65.652812 C 156.038605 71.111146 158.387564 75.527813 163.085481 78.897605 C 167.783398 82.272605 173.502148 83.954897 180.24694 83.954897 C 185.986524 83.954897 191.887566 82.512188 197.950066 79.621563 C 204.054233 76.730938 209.81465 72.173646 215.236526 65.949687 C 220.694859 59.68927 225.309443 51.621562 229.085485 41.741353 C 232.054235 34.033019 235.345902 25.866352 238.960485 17.236143 C 242.575069 8.600726 246.267778 -0.493025 250.043819 -10.045109 C 242.293819 -12.175317 235.085485 -12.133651 228.424027 -9.925317 C 221.799026 -7.716984 216.460484 -3.925317 212.403192 1.454892 C 208.387567 6.793434 206.382359 12.996559 206.382359 20.064268 C 206.382359 23.517393 207.2834 26.428852 209.090692 28.798643 C 210.897984 31.163227 213.127151 32.350727 215.778192 32.350727 C 216.903192 34.996561 216.960484 38.168436 215.955276 41.866353 C 214.991734 45.559061 213.064651 49.090311 210.174025 52.460103 C 207.325067 55.835103 203.632358 58.684062 199.0959 61.012187 C 194.601108 63.303854 189.382357 64.444479 183.439649 64.444479 C 176.694857 64.444479 171.012565 62.762187 166.397981 59.387187 C 161.819856 56.017395 158.366731 51.538228 156.038605 45.960103 C 153.752147 40.340311 152.606314 34.418435 152.606314 28.194477 C 152.606314 17.673643 154.814647 7.741351 159.231314 -1.612817 C 163.684439 -11.008651 170.02819 -19.279484 178.257357 -26.425318 C 186.491732 -33.612819 196.142775 -39.253444 207.226109 -43.347194 C 218.345901 -47.440944 230.56986 -49.48782 243.897986 -49.48782 C 260.48132 -49.48782 271.278196 -45.836778 276.299029 -38.529486 C 281.314655 -31.222194 281.434446 -21.404485 276.658404 -9.081567 C 273.205279 1.798642 269.189654 12.980934 264.616737 24.460102 C 264.616737 24.62156 264.533404 24.803852 264.371945 25.001768 C 262.528195 29.741352 262.345904 32.772602 263.830279 34.095519 C 265.319862 35.418436 267.121946 36.085102 269.252154 36.085102 C 270.575071 36.085102 272.382362 36.043436 274.674029 35.960102 C 277.002154 35.881977 279.309446 35.762186 281.595905 35.600727 C 284.887572 35.277811 287.054238 34.095519 288.101113 32.048644 C 289.184447 29.960102 290.54903 26.788227 292.194864 22.533018 C 297.814656 6.55385 303.215698 -6.972192 308.392781 -18.055526 C 313.575073 -29.175318 319.194865 -37.607611 325.257366 -43.347194 C 331.356324 -49.086778 338.345908 -51.95657 346.210492 -51.95657 C 352.476117 -51.95657 357.533409 -50.029486 361.387576 -46.175319 C 365.28341 -42.321153 367.231327 -36.039902 367.231327 -27.32636 C 367.231327 -18.456568 365.043826 -9.201359 360.663618 0.434058 C 356.288618 10.069476 350.226117 18.918435 342.481325 26.991352 C 334.772991 35.017394 325.840699 41.079894 315.67924 45.173644 C 310.903198 47.184061 308.512573 51.460103 308.512573 58.00177 C 308.512573 63.783021 310.200073 68.741354 313.575073 72.876771 C 316.944865 76.970521 321.580282 79.017397 327.486533 79.017397 C 331.939658 79.017397 336.335491 77.954896 340.674033 75.829896 C 345.049034 73.658021 348.538617 70.527813 351.153201 66.434062 Z M 318.632365 11.392392 C 316.663615 17.658018 315.762573 21.611143 315.924032 23.256976 C 316.080282 24.90281 316.726115 25.725727 317.851115 25.725727 C 320.340699 25.725727 323.090699 24.241352 326.101116 21.267393 C 329.147991 18.298643 331.741741 14.803851 333.866741 10.788226 C 336.033408 6.777809 337.12195 3.283017 337.12195 0.314267 C 337.12195 -3.784692 335.392783 -5.831567 331.939658 -5.831567 C 328.486533 -5.831567 325.778199 -4.065942 323.809449 -0.529483 C 321.845907 3.001767 320.11674 6.975725 318.632365 11.392392 Z M 468.585499 66.434062 C 469.549041 64.949687 471.090708 64.408021 473.220916 64.809062 C 475.387583 65.210104 477.257375 66.111146 478.819875 67.517396 C 480.387583 68.923646 480.668833 70.611146 479.663625 72.574688 C 477.377167 77.512188 474.387583 82.611147 470.689666 87.871564 C 466.996958 93.131981 462.382374 97.527814 456.840707 101.059065 C 451.340707 104.590315 444.554248 106.361148 436.486539 106.361148 L 433.538622 106.361148 C 427.476122 114.751774 420.205288 121.454899 411.736538 126.470524 C 403.267787 131.491358 394.41362 134.001775 385.179244 134.001775 C 374.179244 134.001775 365.06466 130.309066 357.840701 122.918441 C 350.611534 115.491357 347.002159 105.376773 347.002159 92.569481 C 347.002159 83.335105 348.68445 73.918438 352.059451 64.324687 C 355.429243 54.68927 360.147993 45.819478 366.210493 37.710102 C 372.31466 29.55906 379.460494 23.017393 387.647994 18.074684 C 395.877162 13.137184 404.929246 10.668434 414.809454 10.668434 C 421.554247 10.668434 427.632372 12.033017 433.054247 14.767393 C 438.476123 17.454893 442.788623 21.928851 446.002165 28.194477 C 449.215707 34.418435 450.819873 42.725728 450.819873 53.12677 C 450.819873 61.835104 449.595915 70.288229 447.147998 78.47573 L 448.83029 78.47573 C 452.444873 78.47573 455.897999 77.533021 459.189665 75.647605 C 462.481332 73.762188 465.611541 70.689271 468.585499 66.434062 Z M 399.272995 82.934063 C 403.366745 82.934063 406.981329 81.710105 410.111538 79.262188 C 413.241746 76.772605 415.710496 73.762188 417.517788 70.225729 C 419.32508 66.694479 420.226121 63.199687 420.226121 59.746562 C 420.226121 56.137187 419.163621 53.06427 417.033413 50.53302 C 414.908413 47.965311 411.455288 46.678853 406.679246 46.678853 C 402.741745 46.678853 399.252162 47.84552 396.200078 50.173645 C 393.147995 52.460103 390.762578 55.371562 389.033411 58.90802 C 387.309453 62.43927 386.444869 66.012187 386.444869 69.626771 C 386.444869 73.236146 387.429244 76.371563 389.392786 79.017397 C 391.361536 81.626772 394.653203 82.934063 399.272995 82.934063 Z M 478.439667 134.001775 C 472.700083 134.001775 468.262583 132.272608 465.132374 128.819483 C 462.002166 125.366358 460.434457 121.090316 460.434457 115.996565 C 460.434457 110.251773 460.934457 103.069481 461.939666 94.434064 C 462.903207 85.803855 465.111541 76.470521 468.564666 66.434062 C 472.017791 56.236145 475.387583 46.944478 478.67925 38.553852 C 481.970917 30.163227 485.30425 23.418435 488.679251 18.319476 C 492.049042 13.220518 495.382376 10.668434 498.674043 10.668434 C 501.486543 10.668434 503.450085 11.611142 504.575085 13.501768 C 505.741752 15.387184 506.319877 17.574684 506.319877 20.064268 C 506.319877 24.158018 507.543835 26.949685 509.99696 28.43406 C 512.486544 29.918435 515.694877 28.673643 519.632377 24.699685 C 524.246961 20.283018 529.023003 16.850726 533.960503 14.402809 C 538.898004 11.913226 544.080296 10.668434 549.496963 10.668434 C 555.559463 10.668434 560.356338 12.158017 563.892797 15.126768 C 567.424047 18.059059 569.773006 21.751768 570.939672 26.204893 C 571.257381 27.850727 571.903214 28.798643 572.866756 29.038227 C 573.866756 29.27781 575.273006 28.335102 577.080298 26.204893 C 581.85634 20.949685 586.877173 16.970518 592.132382 14.283018 C 597.392799 11.553851 602.991758 10.189267 608.934466 10.189267 C 618.61155 10.189267 625.413634 12.418434 629.351134 16.871559 C 633.325093 21.288226 635.314676 26.626768 635.314676 32.892394 C 635.314676 37.147602 634.648009 41.038228 633.325093 44.574686 C 632.038634 48.105936 630.736551 51.559062 629.408426 54.934062 C 628.085509 58.303854 627.424051 62.059062 627.424051 66.194479 C 627.424051 74.741355 631.460509 79.017397 639.528218 79.017397 C 643.299052 79.017397 646.455302 77.835105 648.981344 75.465313 C 651.549052 73.059063 654.059469 70.048646 656.507386 66.434062 C 657.835511 64.465312 659.559469 63.762187 661.689678 64.324687 C 663.856345 64.887187 665.62197 65.991354 666.986553 67.637187 C 668.392803 69.283021 668.611553 70.928854 667.648011 72.574688 C 666.002178 75.22573 664.017803 79.059063 661.689678 84.079897 C 659.398011 89.053855 656.648011 94.397606 653.439677 100.095523 C 650.226135 105.756981 646.470927 111.178857 642.17926 116.35594 C 637.924051 121.533024 633.121968 125.767399 627.783426 129.064275 C 622.444884 132.355941 616.403217 134.001775 609.658425 134.001775 C 601.788632 134.001775 596.288632 131.408025 593.158424 126.230941 C 590.028215 121.053857 588.460507 114.928857 588.460507 107.866357 C 588.460507 101.600731 589.32509 95.642398 591.049048 89.980939 C 592.778215 84.31948 594.502174 79.142397 596.23134 74.44448 C 597.955299 69.746563 598.819882 65.751771 598.819882 62.460104 C 598.819882 59.68927 597.955299 57.559062 596.23134 56.074687 C 594.502174 54.590312 592.236549 53.84552 589.424048 53.84552 C 584.648006 53.84552 580.252173 55.81427 576.236548 59.746562 C 572.220922 63.684062 568.970922 68.621563 566.481339 74.564271 C 564.033422 80.465313 562.809463 86.548647 562.809463 92.809064 C 562.809463 96.423648 563.090713 99.215314 563.653213 101.178856 C 564.252172 103.147606 564.554255 105.939273 564.554255 109.548648 C 564.554255 113.04344 564.012588 116.63719 562.929255 120.329899 C 561.845922 124.022608 559.736547 127.152816 556.606338 129.725733 C 553.512588 132.251775 548.835504 133.5174 542.575087 133.5174 C 536.991754 133.5174 532.293837 131.9549 528.481336 128.819483 C 524.710503 125.689274 522.819878 120.090316 522.819878 112.017399 C 522.819878 105.798648 523.845919 99.814273 525.892795 94.074689 C 527.981336 88.293439 530.049045 82.855938 532.09592 77.75698 C 534.142795 72.658021 535.168837 68.059063 535.168837 63.965312 C 535.168837 60.673645 534.304253 58.241354 532.575087 56.678853 C 530.851128 55.111145 528.580295 54.329895 525.773003 54.329895 C 521.033419 54.329895 516.637586 56.355937 512.585502 60.413229 C 508.569877 64.423646 505.319877 69.647604 502.830293 76.06948 C 500.382376 82.449688 499.15321 89.355939 499.15321 96.783023 L 499.15321 107.866357 C 499.15321 111.960107 498.65321 116.033024 497.648001 120.090316 C 496.684459 124.105941 494.720918 127.434066 491.746959 130.085108 C 488.819876 132.694483 484.382375 134.001775 478.439667 134.001775 Z M 697.226138 134.001775 C 687.345929 134.001775 679.236554 131.793441 672.898012 127.376774 C 666.59072 122.918441 661.913636 117.038232 658.866761 109.73094 C 655.814677 102.38719 654.330302 94.314272 654.408427 85.522605 C 654.486552 76.730938 656.012594 67.939271 658.986553 59.147604 C 661.955303 50.355936 666.231345 42.303853 671.80947 34.996561 C 677.392804 27.65281 684.179262 21.772601 692.163638 17.355934 C 700.153222 12.897601 709.168847 10.668434 719.205306 10.668434 C 726.91364 10.668434 733.19489 12.116351 738.054266 15.006976 C 742.913641 17.855934 746.486558 21.668435 748.773016 26.449685 C 751.059475 31.225727 752.205308 36.324686 752.205308 41.741353 C 752.205308 47.684061 750.559475 53.605937 747.267808 59.506979 C 744.012599 65.408021 739.418849 70.309063 733.47614 74.199688 C 727.575098 78.053855 720.590723 79.980938 712.517806 79.980938 C 709.069889 79.980938 705.694889 79.741355 702.403222 79.262188 C 699.111555 78.736146 696.080305 77.652813 693.309471 76.00698 C 692.465721 75.527813 691.543846 75.50698 690.538638 75.949688 C 689.575096 76.35073 689.095929 77.371563 689.095929 79.017397 C 689.095929 83.272605 691.606346 86.527814 696.621972 88.772605 C 701.642805 90.980939 707.684472 92.085106 714.746973 92.085106 C 723.137598 92.085106 731.809474 89.960105 740.762599 85.704897 C 749.715725 81.408022 756.98135 74.986146 762.564684 66.434062 C 763.887601 64.465312 765.611559 63.762187 767.741767 64.324687 C 769.908434 64.887187 771.674059 65.991354 773.038643 67.637187 C 774.444893 69.283021 774.668851 70.928854 773.70531 72.574688 C 762.825101 92.647606 750.91885 107.902815 737.991766 118.340316 C 725.106348 128.783025 711.517806 134.001775 697.226138 134.001775 Z M 706.137597 61.496562 C 710.871972 61.496562 714.585514 59.97052 717.278223 56.918437 C 720.00739 53.866353 721.371973 50.777811 721.371973 47.642395 C 721.371973 44.876769 720.429265 42.506978 718.543848 40.538228 C 716.653223 38.533019 713.825098 37.527811 710.049056 37.527811 C 705.273014 37.527811 701.481347 39.012186 698.668847 41.986144 C 695.898013 44.954894 694.512596 48.085103 694.512596 51.37677 C 694.512596 53.986145 695.460513 56.335103 697.34593 58.423645 C 699.231347 60.47052 702.163639 61.496562 706.137597 61.496562 Z M 706.137597 61.496562 " stroke="#bc6c25" stroke-width="33.608379" stroke-opacity="1" stroke-miterlimit="4"/><g fill="#fefae0" fill-opacity="1"><g transform="translate(28.111672, 154.807263)"><g><path d="M 164.46875 -50.6875 C 165.445312 -52.164062 166.738281 -52.6875 168.34375 -52.25 C 169.945312 -51.820312 171.273438 -50.992188 172.328125 -49.765625 C 173.378906 -48.535156 173.535156 -47.300781 172.796875 -46.0625 C 171.554688 -43.96875 170.039062 -41.066406 168.25 -37.359375 C 166.46875 -33.660156 164.28125 -29.6875 161.6875 -25.4375 C 159.101562 -21.1875 156.082031 -17.117188 152.625 -13.234375 C 149.164062 -9.347656 145.21875 -6.171875 140.78125 -3.703125 C 136.34375 -1.234375 131.410156 0 125.984375 0 C 119.453125 0 114.210938 -1.910156 110.265625 -5.734375 C 106.316406 -9.554688 104.34375 -15.046875 104.34375 -22.203125 C 104.34375 -26.273438 104.617188 -30.625 105.171875 -35.25 C 105.722656 -39.875 106.925781 -44.957031 108.78125 -50.5 L 108.96875 -51.25 C 110.070312 -54.820312 110.222656 -57.222656 109.421875 -58.453125 C 108.617188 -59.691406 107.078125 -60.3125 104.796875 -60.3125 C 102.515625 -60.3125 99.769531 -60.3125 96.5625 -60.3125 C 95.207031 -60.3125 93.882812 -60.125 92.59375 -59.75 C 91.300781 -59.382812 89.972656 -57.96875 88.609375 -55.5 C 88.367188 -55.007812 88.125 -54.484375 87.875 -53.921875 C 87.625 -53.367188 87.378906 -52.847656 87.140625 -52.359375 C 86.023438 -49.765625 85.003906 -47.421875 84.078125 -45.328125 C 83.148438 -43.234375 82.378906 -41.503906 81.765625 -40.140625 C 74.984375 -25.585938 66.75 -13.960938 57.0625 -5.265625 C 47.382812 3.421875 35.945312 7.765625 22.75 7.765625 C 15.601562 7.765625 9.65625 6.253906 4.90625 3.234375 C 0.15625 0.210938 -3.390625 -3.695312 -5.734375 -8.5 C -8.078125 -13.3125 -9.25 -18.25 -9.25 -23.3125 C -9.25 -28.363281 -8.226562 -33.203125 -6.1875 -37.828125 C -4.15625 -42.453125 -1.289062 -46.210938 2.40625 -49.109375 C 6.101562 -52.015625 10.421875 -53.46875 15.359375 -53.46875 C 17.203125 -53.46875 18.125 -52.726562 18.125 -51.25 C 18.125 -47.175781 19.878906 -43.875 23.390625 -41.34375 C 26.910156 -38.820312 31.203125 -37.5625 36.265625 -37.5625 C 40.578125 -37.5625 45.015625 -38.640625 49.578125 -40.796875 C 54.140625 -42.953125 58.457031 -46.375 62.53125 -51.0625 C 66.601562 -55.75 70.054688 -61.789062 72.890625 -69.1875 C 75.109375 -74.988281 77.570312 -81.125 80.28125 -87.59375 C 83 -94.070312 85.773438 -100.890625 88.609375 -108.046875 C 82.816406 -109.640625 77.421875 -109.601562 72.421875 -107.9375 C 67.429688 -106.28125 63.425781 -103.445312 60.40625 -99.4375 C 57.382812 -95.425781 55.875 -90.769531 55.875 -85.46875 C 55.875 -82.875 56.550781 -80.679688 57.90625 -78.890625 C 59.257812 -77.109375 60.925781 -76.21875 62.90625 -76.21875 C 63.757812 -74.25 63.816406 -71.875 63.078125 -69.09375 C 62.335938 -66.320312 60.890625 -63.671875 58.734375 -61.140625 C 56.578125 -58.609375 53.800781 -56.476562 50.40625 -54.75 C 47.019531 -53.03125 43.109375 -52.171875 38.671875 -52.171875 C 33.609375 -52.171875 29.347656 -53.429688 25.890625 -55.953125 C 22.441406 -58.484375 19.851562 -61.84375 18.125 -66.03125 C 16.40625 -70.226562 15.546875 -74.671875 15.546875 -79.359375 C 15.546875 -87.253906 17.207031 -94.71875 20.53125 -101.75 C 23.863281 -108.78125 28.613281 -114.976562 34.78125 -120.34375 C 40.945312 -125.707031 48.191406 -129.929688 56.515625 -133.015625 C 64.835938 -136.097656 73.992188 -137.640625 83.984375 -137.640625 C 96.441406 -137.640625 104.550781 -134.894531 108.3125 -129.40625 C 112.070312 -123.914062 112.164062 -116.546875 108.59375 -107.296875 C 106 -99.160156 102.976562 -90.773438 99.53125 -82.140625 C 99.53125 -82.015625 99.46875 -81.890625 99.34375 -81.765625 C 97.988281 -78.191406 97.863281 -75.910156 98.96875 -74.921875 C 100.082031 -73.929688 101.441406 -73.4375 103.046875 -73.4375 C 104.035156 -73.4375 105.390625 -73.46875 107.109375 -73.53125 C 108.835938 -73.59375 110.566406 -73.6875 112.296875 -73.8125 C 114.765625 -74.0625 116.398438 -74.957031 117.203125 -76.5 C 118.003906 -78.039062 119.019531 -80.414062 120.25 -83.625 C 124.445312 -95.582031 128.484375 -105.722656 132.359375 -114.046875 C 136.242188 -122.378906 140.46875 -128.703125 145.03125 -133.015625 C 149.601562 -137.328125 154.847656 -139.484375 160.765625 -139.484375 C 165.453125 -139.484375 169.242188 -138.035156 172.140625 -135.140625 C 175.035156 -132.242188 176.484375 -127.523438 176.484375 -120.984375 C 176.484375 -114.328125 174.847656 -107.390625 171.578125 -100.171875 C 168.316406 -92.960938 163.785156 -86.332031 157.984375 -80.28125 C 152.191406 -74.238281 145.472656 -69.675781 137.828125 -66.59375 C 134.242188 -65.113281 132.453125 -61.910156 132.453125 -56.984375 C 132.453125 -52.660156 133.71875 -48.957031 136.25 -45.875 C 138.78125 -42.789062 142.265625 -41.25 146.703125 -41.25 C 150.035156 -41.25 153.332031 -42.050781 156.59375 -43.65625 C 159.863281 -45.257812 162.488281 -47.601562 164.46875 -50.6875 Z M 140.046875 -91.9375 C 138.566406 -87.257812 137.882812 -84.300781 138 -83.0625 C 138.125 -81.832031 138.617188 -81.21875 139.484375 -81.21875 C 141.335938 -81.21875 143.40625 -82.328125 145.6875 -84.546875 C 147.96875 -86.765625 149.910156 -89.382812 151.515625 -92.40625 C 153.117188 -95.425781 153.921875 -98.046875 153.921875 -100.265625 C 153.921875 -103.347656 152.625 -104.890625 150.03125 -104.890625 C 147.445312 -104.890625 145.410156 -103.5625 143.921875 -100.90625 C 142.441406 -98.257812 141.148438 -95.269531 140.046875 -91.9375 Z M 140.046875 -91.9375 "/></g></g></g><g fill="#fefae0" fill-opacity="1"><g transform="translate(188.31485, 154.807263)"><g><path d="M 92.3125 -50.6875 C 93.050781 -51.800781 94.222656 -52.203125 95.828125 -51.890625 C 97.429688 -51.585938 98.816406 -50.910156 99.984375 -49.859375 C 101.160156 -48.804688 101.378906 -47.539062 100.640625 -46.0625 C 98.910156 -42.363281 96.65625 -38.539062 93.875 -34.59375 C 91.101562 -30.644531 87.648438 -27.34375 83.515625 -24.6875 C 79.390625 -22.039062 74.304688 -20.71875 68.265625 -20.71875 L 66.046875 -20.71875 C 61.484375 -14.425781 56.023438 -9.398438 49.671875 -5.640625 C 43.316406 -1.878906 36.6875 0 29.78125 0 C 21.519531 0 14.675781 -2.773438 9.25 -8.328125 C 3.820312 -13.878906 1.109375 -21.460938 1.109375 -31.078125 C 1.109375 -37.984375 2.367188 -45.039062 4.890625 -52.25 C 7.421875 -59.46875 10.96875 -66.128906 15.53125 -72.234375 C 20.101562 -78.347656 25.472656 -83.253906 31.640625 -86.953125 C 37.804688 -90.648438 44.585938 -92.5 51.984375 -92.5 C 57.035156 -92.5 61.597656 -91.476562 65.671875 -89.4375 C 69.742188 -87.40625 72.984375 -84.046875 75.390625 -79.359375 C 77.796875 -74.671875 79 -68.445312 79 -60.6875 C 79 -54.144531 78.070312 -47.789062 76.21875 -41.625 L 77.515625 -41.625 C 80.222656 -41.625 82.8125 -42.332031 85.28125 -43.75 C 87.75 -45.164062 90.09375 -47.476562 92.3125 -50.6875 Z M 40.328125 -38.296875 C 43.410156 -38.296875 46.125 -39.21875 48.46875 -41.0625 C 50.8125 -42.914062 52.660156 -45.164062 54.015625 -47.8125 C 55.378906 -50.46875 56.0625 -53.09375 56.0625 -55.6875 C 56.0625 -58.394531 55.257812 -60.703125 53.65625 -62.609375 C 52.050781 -64.523438 49.457031 -65.484375 45.875 -65.484375 C 42.914062 -65.484375 40.296875 -64.617188 38.015625 -62.890625 C 35.734375 -61.171875 33.941406 -58.984375 32.640625 -56.328125 C 31.347656 -53.679688 30.703125 -51 30.703125 -48.28125 C 30.703125 -45.570312 31.441406 -43.226562 32.921875 -41.25 C 34.410156 -39.28125 36.878906 -38.296875 40.328125 -38.296875 Z M 40.328125 -38.296875 "/></g></g></g><g fill="#fefae0" fill-opacity="1"><g transform="translate(276.371088, 154.807263)"><g><path d="M 11.65625 0 C 7.34375 0 4.015625 -1.289062 1.671875 -3.875 C -0.671875 -6.46875 -1.84375 -9.675781 -1.84375 -13.5 C -1.84375 -17.820312 -1.472656 -23.21875 -0.734375 -29.6875 C 0.00390625 -36.164062 1.664062 -43.164062 4.25 -50.6875 C 6.84375 -58.332031 9.375 -65.300781 11.84375 -71.59375 C 14.3125 -77.882812 16.804688 -82.941406 19.328125 -86.765625 C 21.859375 -90.585938 24.359375 -92.5 26.828125 -92.5 C 28.921875 -92.5 30.398438 -91.789062 31.265625 -90.375 C 32.128906 -88.957031 32.5625 -87.320312 32.5625 -85.46875 C 32.5625 -82.382812 33.484375 -80.285156 35.328125 -79.171875 C 37.179688 -78.066406 39.585938 -78.992188 42.546875 -81.953125 C 46.003906 -85.285156 49.582031 -87.875 53.28125 -89.71875 C 56.976562 -91.570312 60.863281 -92.5 64.9375 -92.5 C 69.5 -92.5 73.101562 -91.390625 75.75 -89.171875 C 78.40625 -86.953125 80.164062 -84.175781 81.03125 -80.84375 C 81.28125 -79.613281 81.773438 -78.90625 82.515625 -78.71875 C 83.253906 -78.53125 84.300781 -79.238281 85.65625 -80.84375 C 89.226562 -84.789062 92.988281 -87.78125 96.9375 -89.8125 C 100.882812 -91.851562 105.078125 -92.875 109.515625 -92.875 C 116.796875 -92.875 121.914062 -91.207031 124.875 -87.875 C 127.832031 -84.539062 129.3125 -80.53125 129.3125 -75.84375 C 129.3125 -72.644531 128.816406 -69.71875 127.828125 -67.0625 C 126.847656 -64.40625 125.863281 -61.8125 124.875 -59.28125 C 123.882812 -56.757812 123.390625 -53.957031 123.390625 -50.875 C 123.390625 -44.457031 126.410156 -41.25 132.453125 -41.25 C 135.296875 -41.25 137.671875 -42.144531 139.578125 -43.9375 C 141.492188 -45.726562 143.375 -47.976562 145.21875 -50.6875 C 146.207031 -52.164062 147.503906 -52.6875 149.109375 -52.25 C 150.710938 -51.820312 152.035156 -50.992188 153.078125 -49.765625 C 154.128906 -48.535156 154.285156 -47.300781 153.546875 -46.0625 C 152.316406 -44.09375 150.835938 -41.222656 149.109375 -37.453125 C 147.378906 -33.691406 145.3125 -29.6875 142.90625 -25.4375 C 140.507812 -21.1875 137.707031 -17.117188 134.5 -13.234375 C 131.289062 -9.347656 127.679688 -6.171875 123.671875 -3.703125 C 119.660156 -1.234375 115.128906 0 110.078125 0 C 104.148438 0 100.015625 -1.941406 97.671875 -5.828125 C 95.335938 -9.710938 94.171875 -14.304688 94.171875 -19.609375 C 94.171875 -24.296875 94.816406 -28.765625 96.109375 -33.015625 C 97.398438 -37.273438 98.691406 -41.160156 99.984375 -44.671875 C 101.285156 -48.191406 101.9375 -51.1875 101.9375 -53.65625 C 101.9375 -55.75 101.285156 -57.347656 99.984375 -58.453125 C 98.691406 -59.566406 97 -60.125 94.90625 -60.125 C 91.332031 -60.125 88.03125 -58.644531 85 -55.6875 C 81.976562 -52.726562 79.539062 -49.023438 77.6875 -44.578125 C 75.84375 -40.140625 74.921875 -35.578125 74.921875 -30.890625 C 74.921875 -28.179688 75.132812 -26.085938 75.5625 -24.609375 C 76 -23.128906 76.21875 -21.03125 76.21875 -18.3125 C 76.21875 -15.726562 75.816406 -13.046875 75.015625 -10.265625 C 74.210938 -7.492188 72.640625 -5.148438 70.296875 -3.234375 C 67.953125 -1.328125 64.4375 -0.375 59.75 -0.375 C 55.5625 -0.375 52.046875 -1.546875 49.203125 -3.890625 C 46.367188 -6.234375 44.953125 -10.425781 44.953125 -16.46875 C 44.953125 -21.15625 45.722656 -25.65625 47.265625 -29.96875 C 48.804688 -34.28125 50.347656 -38.347656 51.890625 -42.171875 C 53.429688 -46.003906 54.203125 -49.460938 54.203125 -52.546875 C 54.203125 -55.003906 53.550781 -56.816406 52.25 -57.984375 C 50.957031 -59.160156 49.265625 -59.75 47.171875 -59.75 C 43.597656 -59.75 40.300781 -58.238281 37.28125 -55.21875 C 34.257812 -52.195312 31.820312 -48.28125 29.96875 -43.46875 C 28.113281 -38.664062 27.1875 -33.488281 27.1875 -27.9375 L 27.1875 -19.609375 C 27.1875 -16.523438 26.816406 -13.472656 26.078125 -10.453125 C 25.335938 -7.429688 23.859375 -4.929688 21.640625 -2.953125 C 19.421875 -0.984375 16.09375 0 11.65625 0 Z M 11.65625 0 "/></g></g></g><g fill="#fefae0" fill-opacity="1"><g transform="translate(417.335102, 154.807263)"><g><path d="M 34.78125 0 C 27.382812 0 21.3125 -1.660156 16.5625 -4.984375 C 11.8125 -8.316406 8.296875 -12.726562 6.015625 -18.21875 C 3.734375 -23.707031 2.625 -29.75 2.6875 -36.34375 C 2.75 -42.945312 3.890625 -49.546875 6.109375 -56.140625 C 8.328125 -62.742188 11.53125 -68.789062 15.71875 -74.28125 C 19.914062 -79.769531 25.003906 -84.175781 30.984375 -87.5 C 36.960938 -90.832031 43.71875 -92.5 51.25 -92.5 C 57.039062 -92.5 61.753906 -91.421875 65.390625 -89.265625 C 69.035156 -87.109375 71.71875 -84.238281 73.4375 -80.65625 C 75.164062 -77.082031 76.03125 -73.257812 76.03125 -69.1875 C 76.03125 -64.75 74.796875 -60.304688 72.328125 -55.859375 C 69.867188 -51.421875 66.414062 -47.753906 61.96875 -44.859375 C 57.53125 -41.960938 52.289062 -40.515625 46.25 -40.515625 C 43.65625 -40.515625 41.125 -40.695312 38.65625 -41.0625 C 36.195312 -41.4375 33.914062 -42.238281 31.8125 -43.46875 C 31.195312 -43.84375 30.519531 -43.875 29.78125 -43.5625 C 29.039062 -43.257812 28.671875 -42.488281 28.671875 -41.25 C 28.671875 -38.039062 30.550781 -35.601562 34.3125 -33.9375 C 38.070312 -32.28125 42.609375 -31.453125 47.921875 -31.453125 C 54.203125 -31.453125 60.703125 -33.050781 67.421875 -36.25 C 74.148438 -39.457031 79.613281 -44.269531 83.8125 -50.6875 C 84.789062 -52.164062 86.082031 -52.6875 87.6875 -52.25 C 89.289062 -51.820312 90.613281 -50.992188 91.65625 -49.765625 C 92.707031 -48.535156 92.863281 -47.300781 92.125 -46.0625 C 83.988281 -31.019531 75.078125 -19.582031 65.390625 -11.75 C 55.710938 -3.914062 45.507812 0 34.78125 0 Z M 41.4375 -54.390625 C 45.019531 -54.390625 47.828125 -55.53125 49.859375 -57.8125 C 51.890625 -60.09375 52.90625 -62.40625 52.90625 -64.75 C 52.90625 -66.84375 52.195312 -68.628906 50.78125 -70.109375 C 49.363281 -71.585938 47.238281 -72.328125 44.40625 -72.328125 C 40.820312 -72.328125 37.984375 -71.21875 35.890625 -69 C 33.796875 -66.78125 32.75 -64.4375 32.75 -61.96875 C 32.75 -60 33.457031 -58.242188 34.875 -56.703125 C 36.289062 -55.160156 38.476562 -54.390625 41.4375 -54.390625 Z M 41.4375 -54.390625 "/></g></g></g></svg>