<svg xmlns="http://www.w3.org/2000/svg" xmlns:xlink="http://www.w3.org/1999/xlink" width="1500" zoomAndPan="magnify" viewBox="0 0 1125 157.5" height="210" preserveAspectRatio="xMidYMid meet" version="1.0"><defs><g/><clipPath id="1b4dd3be12"><path d="M 1.78125 0 L 1123.21875 0 L 1123.21875 157 L 1.78125 157 Z M 1.78125 0 " clip-rule="nonzero"/></clipPath></defs><g clip-path="url(#1b4dd3be12)"><path stroke-linecap="butt" transform="matrix(0.747627, 0, 0, 0.747627, -0.462816, 37.988593)" fill="none" stroke-linejoin="miter" d="M 47.01065 102.333847 C 40.244446 102.333847 34.784459 100.897008 30.635914 98.028556 C 26.513493 95.186227 23.498744 91.502695 21.591667 86.983185 C 19.658466 82.432325 18.691866 77.771743 18.691866 72.996213 C 18.691866 68.220684 19.658466 63.659374 21.591667 59.307059 C 23.498744 54.92862 26.200001 51.37571 29.695438 48.648329 C 33.190874 45.889598 37.271496 44.510233 41.932078 44.510233 C 43.666734 44.510233 44.534063 45.210366 44.534063 46.60018 C 44.534063 50.466583 45.955227 53.596279 48.797555 55.984043 C 51.671232 58.371808 55.140545 59.563078 59.205492 59.563078 C 63.981021 59.563078 69.038693 57.405207 74.383733 53.084241 C 79.754897 48.763276 85.000665 40.957323 90.121035 29.671608 C 91.651922 25.721608 93.203707 21.630536 94.765943 17.393169 C 96.328178 13.129676 97.879964 9.132652 99.416075 5.412546 C 100.549872 2.366448 102.085983 0.208578 104.019184 -1.071515 C 105.952385 -2.351607 108.199078 -2.989041 110.759264 -2.989041 C 114.47937 -2.989041 116.924608 -2.137388 118.089753 -0.434081 C 119.254899 1.243102 119.369846 3.531594 118.434595 6.431396 C 116.924608 10.752361 115.733338 14.409769 114.850335 17.393169 C 113.967333 20.350444 113.413497 22.87928 113.188827 24.984902 C 113.07388 27.059174 113.627716 28.365391 114.850335 28.903553 C 116.072954 29.41559 117.734462 29.671608 119.840084 29.671608 C 123.450468 29.671608 126.820508 28.720682 129.944979 26.813605 C 133.100799 24.880404 135.629635 22.252296 137.536712 18.92928 C 139.469913 15.601039 140.436514 11.907057 140.436514 7.84211 C 140.436514 0.731065 137.521037 -4.269134 131.69531 -7.168936 C 125.864357 -10.094862 118.476394 -11.56305 109.52097 -11.56305 C 101.845639 -11.56305 95.377253 -10.424028 90.121035 -8.151211 C 84.885718 -5.878393 80.909593 -2.989041 78.176987 0.506395 C 75.449606 4.001832 74.085916 7.612216 74.085916 11.337547 C 74.085916 13.667838 74.72335 15.627163 76.003442 17.220748 C 77.283535 18.782983 78.84577 19.566714 80.695374 19.566714 C 81.520903 21.416317 81.578376 23.647336 80.867794 26.259769 C 80.183337 28.877428 78.819646 31.38014 76.771498 33.767905 C 74.72335 36.155669 72.095241 38.172468 68.881947 39.823527 C 65.700003 41.443236 62.016471 42.25309 57.841801 42.25309 C 53.061047 42.25309 49.043124 41.114069 45.772356 38.841251 C 42.501589 36.568434 40.056351 33.56936 38.436642 29.844029 C 36.816933 26.118698 36.007078 22.168698 36.007078 17.988804 C 36.007078 11.818234 37.783533 5.621541 41.336443 -0.601277 C 44.889354 -6.855444 49.978375 -12.571449 56.603508 -17.744068 C 63.22864 -22.916688 71.259262 -27.070458 80.695374 -30.194929 C 90.131485 -33.350749 100.795441 -34.928659 112.67679 -34.928659 C 131.778907 -34.928659 145.922625 -31.574294 155.102718 -24.865563 C 164.31416 -18.182957 168.922494 -8.97674 168.922494 2.768763 C 168.922494 12.429544 166.445906 20.648261 161.503181 27.414465 C 156.555231 34.14932 149.762903 38.229942 141.115746 39.651106 C 138.675733 39.990722 137.04035 40.403487 136.21482 40.8894 C 135.42064 41.343963 135.018326 41.856 135.018326 42.425511 C 135.018326 43.136093 135.331818 43.689929 135.958802 44.087019 C 136.61191 44.484109 137.494913 45.121543 138.602585 46.004545 C 139.710257 46.887548 140.849278 48.434109 142.014424 50.654678 C 143.294516 52.984969 144.830628 54.92862 146.617532 56.49608 C 148.441011 58.058316 151.037771 58.842046 154.423485 58.842046 C 158.373485 58.842046 161.602454 57.776173 164.099941 55.639202 C 166.602652 53.481331 169.021766 50.654678 171.352057 47.154016 C 172.287309 45.764202 173.483803 45.23649 174.931092 45.576106 C 176.383605 45.920948 177.574875 46.699453 178.515351 47.922072 C 179.450603 49.144691 179.680497 50.341186 179.199809 51.506331 C 177.010589 56.736424 174.309333 61.950842 171.096039 67.154811 C 167.882745 72.32743 164.355959 77.019362 160.520906 81.22538 C 156.680628 85.405275 152.573882 88.743965 148.195443 91.246677 C 143.848352 93.749389 139.396765 94.998132 134.85113 94.998132 C 129.960653 94.998132 125.765084 93.253026 122.269648 89.75759 C 118.774211 86.256928 116.741738 80.556597 116.172227 72.656597 C 115.947558 70.211359 115.733338 67.452628 115.534793 64.385631 C 115.362372 61.287284 115.08023 58.371808 114.677915 55.639202 C 114.280825 52.885697 113.502319 50.607654 112.337174 48.820749 C 111.172028 46.99727 109.536645 46.088143 107.431023 46.088143 C 106.15093 46.088143 105.18433 46.443434 104.531221 47.154016 C 103.904237 47.838474 103.350401 48.820749 102.869713 50.100842 C 99.259329 59.991517 94.650996 68.873792 89.055162 76.747668 C 83.480228 84.59542 77.168588 90.823463 70.120241 95.426571 C 63.098018 100.02968 55.396563 102.333847 47.01065 102.333847 Z M 200.167204 94.998132 C 193.176331 94.998132 187.434201 93.435897 182.940814 90.311426 C 178.478777 87.155605 175.166211 82.991386 173.003116 77.813541 C 170.845245 72.614798 169.795047 66.898792 169.847295 60.675975 C 169.904769 54.447932 170.986317 48.219889 173.091938 41.997072 C 175.192335 35.769029 178.222759 30.068698 182.172759 24.896079 C 186.122759 19.697335 190.929637 15.527891 196.588169 12.40342 C 202.241477 9.247599 208.626265 7.669689 215.732086 7.669689 C 221.192073 7.669689 225.638435 8.693763 229.076398 10.741912 C 232.519586 12.758711 235.048422 15.459967 236.668131 18.840457 C 238.28784 22.226171 239.097695 25.836555 239.097695 29.671608 C 239.097695 33.882852 237.932549 38.073196 235.602258 42.25309 C 233.298092 46.432985 230.042999 49.897072 225.83698 52.655802 C 221.657086 55.388408 216.714361 56.752099 210.998355 56.752099 C 208.553117 56.752099 206.165352 56.579678 203.835061 56.240062 C 201.50477 55.869096 199.357349 55.101041 197.398024 53.935895 C 196.797164 53.596279 196.144056 53.580604 195.433474 53.894096 C 194.754241 54.176239 194.4094 54.902496 194.4094 56.067641 C 194.4094 59.08239 196.185855 61.386557 199.738765 62.974917 C 203.2969 64.537152 207.570842 65.320882 212.576265 65.320882 C 218.51694 65.320882 224.65616 63.81612 230.99915 60.801371 C 237.336915 57.760498 242.483409 53.209638 246.43341 47.154016 C 247.373886 45.764202 248.596505 45.267839 250.101267 45.664929 C 251.637378 46.062019 252.886122 46.845749 253.852722 48.010895 C 254.850672 49.17604 255.002193 50.341186 254.32296 51.506331 C 246.61628 65.717972 238.188568 76.522999 229.034599 83.910962 C 219.91198 91.30415 210.287773 94.998132 200.167204 94.998132 Z M 206.478844 43.65858 C 209.83321 43.65858 212.461318 42.577032 214.368395 40.419162 C 216.301596 38.256066 217.268197 36.066847 217.268197 33.851503 C 217.268197 31.892177 216.599414 30.214995 215.261847 28.819955 C 213.924281 27.398791 211.923157 26.688209 209.248024 26.688209 C 205.867535 26.688209 203.181953 27.738407 201.191278 29.844029 C 199.231953 31.949651 198.249677 34.164995 198.249677 36.495286 C 198.249677 38.344889 198.918461 40.006397 200.250802 41.485035 C 201.588368 42.932323 203.662641 43.65858 206.478844 43.65858 Z M 282.093133 130.09357 C 278.707419 130.09357 275.880765 128.51566 273.607948 125.35984 C 271.33513 122.235369 270.964165 117.470289 272.500276 111.075051 C 273.519125 106.983979 274.955964 103.242974 276.805567 99.862484 C 278.681295 96.508119 280.614496 93.32095 282.60517 90.311426 C 284.595845 87.265328 286.283477 84.3812 287.678517 81.653819 C 289.073557 78.895089 289.768464 76.125909 289.768464 73.33583 C 289.768464 71.831068 289.381824 71.13616 288.618993 71.251107 C 287.877062 71.36083 287.150805 72.228158 286.440223 73.847867 C 283.885263 80.274454 280.656295 85.405275 276.763768 89.245553 C 272.866017 93.080606 268.231559 94.998132 262.860394 94.998132 C 256.804772 94.998132 251.97177 92.610367 248.361386 87.834838 C 244.751002 83.059309 242.948423 77.176108 242.948423 70.180009 C 242.948423 63.675049 243.873224 56.809572 245.717603 49.588805 C 247.59333 42.368037 250.425209 35.586159 254.202788 29.248394 C 258.011717 22.905404 262.734998 17.732785 268.36218 13.725311 C 274.020712 9.686488 280.572697 7.669689 288.018134 7.669689 C 291.518795 7.669689 294.214827 7.998856 296.121904 8.651965 C 298.055105 9.273724 299.518068 10.057454 300.516018 10.99793 C 301.508743 11.933182 302.344721 12.732586 303.029179 13.385695 C 303.739761 14.007454 304.680237 14.320946 305.845383 14.320946 C 307.804708 14.320946 309.398293 13.76711 310.620912 12.659438 C 311.843531 11.551766 313.207222 10.444094 314.711984 9.331197 C 316.248095 8.223525 318.353717 7.669689 321.023624 7.669689 C 323.353915 7.669689 324.963175 8.254875 325.840953 9.42002 C 326.723955 10.585166 327.162844 12.163076 327.162844 14.15375 C 327.162844 16.228023 326.551535 18.584438 325.328916 21.228222 C 324.106296 23.84588 322.502262 27.158447 320.511587 31.16592 C 318.520913 35.173394 316.389166 40.236291 314.116349 46.344162 C 311.869656 52.457257 309.638637 60.007192 307.423293 68.98874 C 305.887182 75.269031 304.481692 80.969362 303.2016 86.089732 C 301.921507 91.204878 300.698888 96.152828 299.533743 100.928357 C 298.368597 105.703887 297.145978 110.834707 295.865885 116.320818 C 294.70074 121.096347 292.840687 124.581334 290.280501 126.770554 C 287.720316 128.985898 284.992935 130.09357 282.093133 130.09357 Z M 278.764892 58.842046 C 281.664694 58.842046 284.224879 57.974718 286.440223 56.240062 C 288.660792 54.474056 290.405898 52.34231 291.685991 49.844823 C 292.966084 47.342112 293.603517 44.865524 293.603517 42.425511 C 293.603517 39.865326 292.851136 37.691781 291.346374 35.899651 C 289.841612 34.081397 287.396374 33.17227 284.01066 33.17227 C 281.225805 33.17227 278.754443 33.992574 276.591347 35.643632 C 274.433477 37.263341 272.74062 39.321939 271.518001 41.824651 C 270.295382 44.327363 269.684072 46.856199 269.684072 49.416384 C 269.684072 51.976569 270.378979 54.191913 271.774019 56.067641 C 273.163834 57.917244 275.49935 58.842046 278.764892 58.842046 Z M 414.292742 47.154016 C 415.227993 45.764202 416.450612 45.267839 417.955374 45.664929 C 419.465361 46.062019 420.714105 46.845749 421.712054 48.010895 C 422.704779 49.17604 422.861525 50.341186 422.177068 51.506331 C 421.011922 53.382059 419.606433 56.09899 417.955374 59.6519 C 416.335665 63.173461 414.392014 66.956266 412.113972 70.995089 C 409.841155 75.002563 407.181697 78.837616 404.140824 82.505473 C 401.126075 86.17333 397.729911 89.172404 393.952331 91.502695 C 390.169527 93.832987 385.89036 94.998132 381.114831 94.998132 C 371.109208 94.998132 366.103785 88.660367 366.103785 75.979613 C 366.103785 73.764269 366.276206 71.376504 366.615822 68.816319 C 364.740094 72.881266 362.467277 76.935764 359.792144 80.969362 C 357.122237 84.976835 354.039565 88.289402 350.538903 90.907061 C 347.043467 93.519494 343.035993 94.830936 338.516482 94.830936 C 333.8559 94.830936 330.114895 93.138079 327.303916 89.75759 C 324.513836 86.371875 323.124021 81.126108 323.124021 74.020287 C 323.124021 71.35038 323.322566 67.625049 323.719656 62.84952 C 324.148095 58.07399 325.224418 52.843898 326.959074 47.154016 C 331.055371 34.337415 335.162117 24.556463 339.284538 17.816383 C 343.406959 11.055404 347.910795 7.669689 352.801271 7.669689 C 356.411655 7.669689 358.219459 9.99998 358.219459 14.665788 C 358.219459 18.385893 357.550676 22.168698 356.21311 26.003751 C 354.875544 29.844029 353.569327 33.595484 352.289234 37.263341 C 351.009141 40.931199 350.371708 44.510233 350.371708 48.010895 C 350.371708 50.456133 350.86807 52.373659 351.860795 53.763474 C 352.858745 55.158514 354.80762 55.853422 357.707422 55.853422 C 360.863242 55.853422 363.71602 54.902496 366.276206 52.995419 C 368.836391 51.067442 370.868865 47.953421 372.373627 43.65858 L 372.546047 42.932323 C 376.156431 31.536886 379.824288 22.806132 383.544394 16.75051 C 387.269725 10.700113 391.350347 7.669689 395.78626 7.669689 C 397.515691 7.669689 398.853257 8.197401 399.793733 9.247599 C 400.728985 10.297798 401.199223 12.105602 401.199223 14.665788 C 401.199223 17.93133 400.53044 21.458116 399.192874 25.24092 C 397.860532 29.0185 396.54909 32.769955 395.274223 36.495286 C 393.99413 40.220617 393.351471 43.533183 393.351471 46.432985 C 393.351471 49.698527 394.250149 52.133316 396.042278 53.721675 C 397.860532 55.283911 399.934805 56.067641 402.265096 56.067641 C 404.940228 56.067641 407.171247 55.231662 408.958152 53.55448 C 410.781631 51.845948 412.558086 49.714202 414.292742 47.154016 Z M 443.113114 94.998132 C 436.12224 94.998132 430.38011 93.435897 425.886724 90.311426 C 421.424687 87.155605 418.11212 82.991386 415.95425 77.813541 C 413.791155 72.614798 412.740956 66.898792 412.79843 60.675975 C 412.850678 54.447932 413.932226 48.219889 416.037848 41.997072 C 418.138245 35.769029 421.168668 30.068698 425.118668 24.896079 C 429.068669 19.697335 433.875547 15.527891 439.534079 12.40342 C 445.187386 9.247599 451.572175 7.669689 458.677995 7.669689 C 464.137982 7.669689 468.584345 8.693763 472.027533 10.741912 C 475.465496 12.758711 477.994332 15.459967 479.614041 18.840457 C 481.23375 22.226171 482.043605 25.836555 482.043605 29.671608 C 482.043605 33.882852 480.878459 38.073196 478.548168 42.25309 C 476.249226 46.432985 472.994133 49.897072 468.78289 52.655802 C 464.60822 55.388408 459.66027 56.752099 453.944265 56.752099 C 451.499027 56.752099 449.111262 56.579678 446.780971 56.240062 C 444.45068 55.869096 442.303259 55.101041 440.343934 53.935895 C 439.748299 53.596279 439.089965 53.580604 438.379383 53.894096 C 437.70015 54.176239 437.355309 54.902496 437.355309 56.067641 C 437.355309 59.08239 439.136989 61.386557 442.689899 62.974917 C 446.242809 64.537152 450.521976 65.320882 455.522175 65.320882 C 461.46285 65.320882 467.607294 63.81612 473.945059 60.801371 C 480.282824 57.760498 485.429319 53.209638 489.379319 47.154016 C 490.319795 45.764202 491.542415 45.267839 493.047177 45.664929 C 494.583288 46.062019 495.832031 46.845749 496.798632 48.010895 C 497.796581 49.17604 497.953328 50.341186 497.26887 51.506331 C 489.567414 65.717972 481.134478 76.522999 471.980509 83.910962 C 462.85789 91.30415 453.233683 94.998132 443.113114 94.998132 Z M 449.424754 43.65858 C 452.779119 43.65858 455.407228 42.577032 457.314305 40.419162 C 459.247506 38.256066 460.214106 36.066847 460.214106 33.851503 C 460.214106 31.892177 459.545323 30.214995 458.207757 28.819955 C 456.875416 27.398791 454.869066 26.688209 452.199159 26.688209 C 448.813445 26.688209 446.127862 27.738407 444.137188 29.844029 C 442.177862 31.949651 441.195587 34.164995 441.195587 36.495286 C 441.195587 38.344889 441.86437 40.006397 443.201936 41.485035 C 444.534278 42.932323 446.60855 43.65858 449.424754 43.65858 Z M 557.145856 47.154016 C 558.086333 45.764202 559.282827 45.267839 560.730116 45.664929 C 562.208753 46.062019 563.431373 46.845749 564.397973 48.010895 C 565.390698 49.17604 565.604918 50.341186 565.035407 51.506331 C 564.100156 53.497006 562.720791 56.266186 560.902536 59.819096 C 559.110407 63.372006 556.848039 67.154811 554.120658 71.162285 C 551.393277 75.169758 548.065036 78.978687 544.14116 82.589071 C 540.248633 86.199455 535.770922 89.14628 530.708025 91.419098 C 525.650352 93.691915 519.850749 94.830936 513.314439 94.830936 C 505.639108 94.830936 499.552137 93.211227 495.063976 89.966584 C 490.596713 86.701042 487.545391 82.562946 485.894332 77.557523 C 484.274623 72.525975 483.82006 67.285433 484.530642 61.825446 C 485.209875 56.339334 486.834809 51.448858 489.389769 47.154016 L 490.116026 46.088143 C 493.240497 41.913474 496.338843 37.346939 499.411066 32.404214 C 502.509412 27.456264 505.696582 22.795682 508.962124 18.417243 C 512.232892 14.038803 515.602931 10.42842 519.067019 7.586091 C 522.56768 4.743763 526.178064 3.322599 529.89817 3.322599 C 535.384281 3.322599 539.438779 4.597467 542.051213 7.157652 C 544.668872 9.717838 545.917615 12.387745 545.807893 15.1726 C 545.807893 16.567639 545.196583 17.732785 543.973964 18.673261 C 542.751345 19.608513 541.283157 20.460166 539.57985 21.228222 C 537.902668 21.970153 536.42403 22.894955 535.143938 24.002627 C 533.863845 25.110299 533.226411 26.531463 533.226411 28.266119 C 533.226411 29.316317 534.036266 31.421939 535.655975 34.577759 C 537.307033 37.70223 539.052139 41.229016 540.901742 45.152892 C 542.77747 49.045419 544.073237 52.796874 544.783819 56.407258 C 547.453726 56.297535 549.742219 55.372734 551.649295 53.638077 C 553.582496 51.877297 555.416425 49.714202 557.145856 47.154016 Z M 507.044598 58.842046 C 510.879651 58.842046 513.852601 57.619427 515.958222 55.174189 C 518.058619 52.72895 519.114043 49.698527 519.114043 46.088143 C 519.114043 43.987746 518.784876 41.840326 518.131767 39.651106 C 517.478659 37.435762 516.512058 35.15772 515.231966 32.827428 C 514.06682 30.497137 512.67178 30.497137 511.052071 32.827428 C 508.836727 36.098196 506.475087 39.395087 503.972375 42.723328 C 501.474888 46.02022 499.238645 48.946146 497.27932 51.506331 C 497.27932 53.606728 498.172772 55.357059 499.964902 56.752099 C 501.783156 58.141914 504.144796 58.842046 507.044598 58.842046 Z M 570.626016 94.998132 C 564.089706 94.998132 559.272378 92.997008 556.174031 88.989534 C 553.101809 84.950711 551.565697 79.704944 551.565697 73.252232 C 551.565697 66.79952 552.84579 59.850445 555.405975 52.399784 C 556.942087 47.963871 558.629719 43.188342 560.479322 38.073196 C 562.35505 32.926701 564.387523 27.325643 566.576743 21.275245 C 564.016558 21.275245 562.072907 20.606462 560.735341 19.268896 C 559.397775 17.93133 558.519997 16.369094 558.091558 14.576965 C 557.694468 12.758711 557.694468 11.180801 558.091558 9.843234 C 558.519997 8.510893 559.256703 7.84211 560.306902 7.84211 C 565.427272 7.84211 569.434746 6.420946 572.334548 3.578618 C 575.260474 0.70494 577.308622 -2.294134 578.473767 -5.418605 C 580.579389 -10.538975 582.611863 -13.762719 584.571188 -15.100285 C 586.561863 -16.463976 588.667485 -17.148433 590.882829 -17.148433 C 594.153596 -17.148433 596.18607 -15.769068 596.98025 -13.010338 C 597.805779 -10.282957 596.880977 -6.18666 594.21107 -0.731898 C 592.930977 2.084306 592.220395 4.216052 592.079323 5.66334 C 591.964376 7.115853 592.732432 7.84211 594.378265 7.84211 L 603.464311 7.84211 C 604.629456 7.84211 605.381837 8.662414 605.721454 10.313473 C 606.06107 11.933182 606.034946 13.798459 605.637856 15.898856 C 605.240766 17.973129 604.48316 19.838407 603.375488 21.48424 C 602.267816 23.103949 600.830977 23.919029 599.070197 23.919029 C 593.725157 23.919029 589.775157 24.128023 587.214971 24.556463 C 584.654786 24.953552 582.852207 25.961952 581.802008 27.581661 C 580.746585 29.206595 579.638913 32.001899 578.473767 35.983249 C 576.59804 42.038871 576.854058 46.871874 579.241823 50.482257 C 581.629588 54.066517 585.396717 55.853422 590.543212 55.853422 C 594.038649 55.853422 597.15267 55.074916 599.880051 53.507456 C 602.607432 51.94522 604.838451 49.829149 606.573107 47.154016 C 607.513583 45.764202 608.704853 45.267839 610.157367 45.664929 C 611.636004 46.062019 612.858623 46.845749 613.825224 48.010895 C 614.817949 49.17604 615.032168 50.341186 614.462658 51.506331 C 613.412459 53.497006 612.00697 56.240062 610.240964 59.735498 C 608.506308 63.204811 606.416361 66.98239 603.976348 71.078687 C 601.53111 75.143634 598.673107 78.978687 595.402339 82.589071 C 592.162921 86.199455 588.46894 89.172404 584.31517 91.502695 C 580.192749 93.832987 575.631439 94.998132 570.626016 94.998132 Z M 635.409153 94.998132 C 628.41828 94.998132 622.67615 93.435897 618.182764 90.311426 C 613.720727 87.155605 610.40816 82.991386 608.25029 77.813541 C 606.087194 72.614798 605.036996 66.898792 605.09447 60.675975 C 605.151943 54.447932 606.228266 48.219889 608.333888 41.997072 C 610.439509 35.769029 613.464708 30.068698 617.414708 24.896079 C 621.369933 19.697335 626.171587 15.527891 631.830119 12.40342 C 637.483426 9.247599 643.868215 7.669689 650.974035 7.669689 C 656.434022 7.669689 660.880385 8.693763 664.323573 10.741912 C 667.761536 12.758711 670.290372 15.459967 671.910081 18.840457 C 673.535015 22.226171 674.344869 25.836555 674.344869 29.671608 C 674.344869 33.882852 673.174499 38.073196 670.844208 42.25309 C 668.545266 46.432985 665.290173 49.897072 661.07893 52.655802 C 656.90426 55.388408 651.95631 56.752099 646.240305 56.752099 C 643.795066 56.752099 641.407302 56.579678 639.077011 56.240062 C 636.74672 55.869096 634.599299 55.101041 632.639973 53.935895 C 632.044338 53.596279 631.386005 53.580604 630.675423 53.894096 C 629.99619 54.176239 629.656574 54.902496 629.656574 56.067641 C 629.656574 59.08239 631.433029 61.386557 634.985939 62.974917 C 638.538849 64.537152 642.818016 65.320882 647.818215 65.320882 C 653.75889 65.320882 659.903334 63.81612 666.241099 60.801371 C 672.578864 57.760498 677.725359 53.209638 681.675359 47.154016 C 682.615835 45.764202 683.838454 45.267839 685.343216 45.664929 C 686.879327 46.062019 688.128071 46.845749 689.094671 48.010895 C 690.092621 49.17604 690.249367 50.341186 689.56491 51.506331 C 681.863454 65.717972 673.430517 76.522999 664.281774 83.910962 C 655.153929 91.30415 645.529723 94.998132 635.409153 94.998132 Z M 641.720794 43.65858 C 645.075159 43.65858 647.703268 42.577032 649.610344 40.419162 C 651.543546 38.256066 652.510146 36.066847 652.510146 33.851503 C 652.510146 31.892177 651.841363 30.214995 650.503797 28.819955 C 649.171455 27.398791 647.165106 26.688209 644.495199 26.688209 C 641.109484 26.688209 638.423902 27.738407 636.433227 29.844029 C 634.473902 31.949651 633.491627 34.164995 633.491627 36.495286 C 633.491627 38.344889 634.16041 40.006397 635.497976 41.485035 C 636.830317 42.932323 638.909815 43.65858 641.720794 43.65858 Z M 698.102344 94.998132 C 691.252542 94.998132 686.220994 92.610367 683.0077 87.834838 C 679.794407 83.059309 678.190372 77.176108 678.190372 70.180009 C 678.190372 63.675049 679.115174 56.809572 680.964777 49.588805 C 682.840505 42.368037 685.667158 35.586159 689.449962 29.248394 C 693.258891 22.905404 697.976947 17.732785 703.60413 13.725311 C 709.262662 9.686488 715.814646 7.669689 723.265308 7.669689 C 726.760744 7.669689 729.462001 8.082454 731.363853 8.907983 C 733.297054 9.702163 734.760017 10.653089 735.757967 11.765986 C 736.750692 12.873658 737.591896 13.866383 738.271129 14.749385 C 738.981711 15.627163 739.922187 16.071277 741.087332 16.071277 C 742.022584 16.071277 742.78019 15.021079 743.344475 12.915457 C 743.945335 10.809835 744.812663 7.695814 745.94646 3.578618 C 747.111605 -0.575152 748.935084 -5.622375 751.406447 -11.56305 C 753.595666 -16.908089 755.769211 -20.941688 757.932307 -23.669069 C 760.090177 -26.401675 762.154 -28.235603 764.113325 -29.170855 C 766.104 -30.111331 767.979728 -30.581569 769.740508 -30.581569 C 772.755257 -30.581569 774.761606 -29.087257 775.754331 -26.103857 C 776.747056 -23.146582 776.083498 -19.165232 773.747982 -14.165034 L 754.008431 36.322865 C 751.108629 42.723328 750.027081 47.60858 750.769013 50.994294 C 751.531843 54.374784 753.83601 56.067641 757.676288 56.067641 C 760.685812 56.067641 763.303471 55.283911 765.518815 53.721675 C 767.739384 52.133316 769.730058 49.944096 771.490839 47.154016 C 772.399966 45.764202 773.580786 45.267839 775.028074 45.664929 C 776.506712 46.062019 777.729331 46.845749 778.695932 48.010895 C 779.693882 49.17604 779.902876 50.341186 779.338591 51.506331 C 777.232969 55.571279 774.986276 60.090789 772.598511 65.064864 C 770.210746 70.012814 767.551288 74.756994 764.625362 79.307854 C 761.725561 83.827364 758.412994 87.57882 754.687664 90.567444 C 750.967558 93.519494 746.657042 94.998132 741.77179 94.998132 C 736.196856 94.998132 732.058761 92.552894 729.362729 87.667642 C 726.687596 82.777166 725.820268 76.721544 726.760744 69.500777 L 726.076287 69.500777 C 722.465903 76.606597 718.24421 82.636095 713.411207 87.57882 C 708.578204 92.52677 703.478733 94.998132 698.102344 94.998132 Z M 714.012067 58.842046 C 716.906644 58.842046 719.466829 57.974718 721.687398 56.240062 C 723.902742 54.474056 725.653072 52.34231 726.92794 49.844823 C 728.208033 47.342112 728.850692 44.865524 728.850692 42.425511 C 728.850692 39.865326 728.093086 37.691781 726.588324 35.899651 C 725.083562 34.081397 722.638324 33.17227 719.252609 33.17227 C 716.467755 33.17227 713.996392 33.992574 711.833297 35.643632 C 709.675426 37.263341 707.982569 39.321939 706.75995 41.824651 C 705.537331 44.327363 704.926021 46.856199 704.926021 49.416384 C 704.926021 51.976569 705.620929 54.191913 707.015968 56.067641 C 708.411008 57.917244 710.741299 58.842046 714.012067 58.842046 Z M 861.416041 97.088079 C 855.700036 97.088079 851.008104 95.551968 847.340247 92.484971 C 843.677614 89.386624 841.843686 85.332126 841.843686 80.331928 C 841.843686 76.606597 842.862535 73.267906 844.910683 70.310631 C 846.958831 67.327232 849.602615 64.270684 852.842033 61.140988 C 856.1128 57.985168 859.66571 54.249387 863.505988 49.928421 C 868.281518 44.583381 872.356915 39.09727 875.742629 33.470087 C 879.123119 27.811555 882.268489 21.69846 885.163066 15.130801 C 888.094217 8.537017 891.176889 1.159504 894.416307 -6.996515 C 889.301161 -8.161661 884.551756 -8.334081 880.178542 -7.508552 C 875.826227 -6.714372 872.299441 -5.063314 869.603409 -2.565827 C 866.928277 -0.0631152 865.590711 3.176303 865.590711 7.157652 C 865.590711 9.717838 866.233369 11.849584 867.513462 13.552891 C 868.819679 15.230073 870.397589 16.071277 872.247192 16.071277 C 873.067497 17.915655 873.12497 20.151899 872.414388 22.764333 C 871.735155 25.381992 870.371465 27.884703 868.323316 30.272468 C 866.275168 32.660233 863.64706 34.677032 860.433766 36.322865 C 857.251821 37.947799 853.552615 38.757654 849.346596 38.757654 C 844.597191 38.757654 840.589717 37.691781 837.324175 35.560034 C 834.053408 33.396939 831.608169 30.59641 829.98846 27.158447 C 828.337402 23.715259 827.511873 20.021277 827.511873 16.071277 C 827.511873 6.859835 830.072058 -1.609676 835.187204 -9.342481 C 840.333699 -17.106634 847.653739 -23.303328 857.152549 -27.937786 C 866.646134 -32.598368 877.843026 -34.928659 890.753675 -34.928659 C 899.24931 -34.928659 905.393755 -33.820987 909.171334 -31.600418 C 912.954138 -29.416423 915.07021 -26.213579 915.524773 -22.007561 C 916.010686 -17.827666 915.498649 -12.769994 913.988662 -6.829319 C 912.713795 -1.599226 911.162009 4.398922 909.343755 11.165126 C 907.551625 17.905206 905.602749 24.880404 903.502352 32.101172 C 901.396731 39.321939 899.322458 46.286688 897.27431 52.995419 C 895.257511 59.678025 893.381783 65.535102 891.647127 70.56665 C 888.830923 79.182457 884.807775 85.760566 879.577682 90.311426 C 874.347589 94.830936 868.291967 97.088079 861.416041 97.088079 Z M 922.212604 94.998132 C 915.67107 94.998132 910.853742 92.997008 907.755395 88.989534 C 904.683172 84.950711 903.152286 79.704944 903.152286 73.252232 C 903.152286 66.79952 904.427154 59.850445 906.987339 52.399784 C 908.52345 47.963871 910.216308 43.188342 912.060686 38.073196 C 913.936414 32.926701 915.968887 27.325643 918.158107 21.275245 C 915.603146 21.275245 913.654271 20.606462 912.316705 19.268896 C 910.984363 17.93133 910.101361 16.369094 909.672921 14.576965 C 909.275831 12.758711 909.275831 11.180801 909.672921 9.843234 C 910.101361 8.510893 910.838067 7.84211 911.89349 7.84211 C 917.008636 7.84211 921.01611 6.420946 923.915911 3.578618 C 926.847062 0.70494 928.889986 -2.294134 930.055131 -5.418605 C 932.160753 -10.538975 934.193227 -13.762719 936.152552 -15.100285 C 938.143227 -16.463976 940.248849 -17.148433 942.464193 -17.148433 C 945.73496 -17.148433 947.767434 -15.769068 948.561613 -13.010338 C 949.387143 -10.282957 948.462341 -6.18666 945.792433 -0.731898 C 944.512341 2.084306 943.801759 4.216052 943.660687 5.66334 C 943.54574 7.115853 944.313796 7.84211 945.964854 7.84211 L 955.045675 7.84211 C 956.21082 7.84211 956.963201 8.662414 957.302818 10.313473 C 957.647659 11.933182 957.61631 13.798459 957.21922 15.898856 C 956.82213 17.973129 956.069749 19.838407 954.962077 21.48424 C 953.84918 23.103949 952.417566 23.919029 950.651561 23.919029 C 945.306521 23.919029 941.356521 24.128023 938.796335 24.556463 C 936.241375 24.953552 934.433571 25.961952 933.383372 27.581661 C 932.333174 29.206595 931.220277 32.001899 930.055131 35.983249 C 928.179404 42.038871 928.435422 46.871874 930.823187 50.482257 C 933.210951 54.066517 936.978081 55.853422 942.124576 55.853422 C 945.620013 55.853422 948.734034 55.074916 951.461415 53.507456 C 954.194021 51.94522 956.42504 49.829149 958.159696 47.154016 C 959.094947 45.764202 960.291442 45.267839 961.73873 45.664929 C 963.217368 46.062019 964.439987 46.845749 965.406588 48.010895 C 966.399313 49.17604 966.613532 50.341186 966.044022 51.506331 C 964.993823 53.497006 963.588334 56.240062 961.827553 59.735498 C 960.092897 63.204811 958.00295 66.98239 955.557712 71.078687 C 953.112473 75.143634 950.254471 78.978687 946.983703 82.589071 C 943.744285 86.199455 940.050304 89.172404 935.896534 91.502695 C 931.779338 93.832987 927.212803 94.998132 922.212604 94.998132 Z M 989.252885 0.506395 C 985.072991 0.506395 981.462607 -0.387057 978.421734 -2.179187 C 975.406985 -3.997441 973.902223 -7.242084 973.902223 -11.902666 C 973.902223 -18.073235 975.621205 -22.294928 979.064393 -24.567746 C 982.502356 -26.840563 986.593427 -27.979585 991.342832 -27.979585 C 995.778745 -27.979585 999.5302 -26.981635 1002.602423 -24.99096 C 1005.700769 -23.00551 1007.022661 -19.28018 1006.568097 -13.820193 C 1006.082185 -8.449028 1004.206457 -4.708023 1000.93569 -2.607626 C 997.696272 -0.533353 993.803745 0.506395 989.252885 0.506395 Z M 969.894749 94.998132 C 964.069022 94.998132 959.930926 92.882061 957.485688 88.644693 C 955.04045 84.3812 953.817831 79.224256 953.817831 73.168634 C 953.817831 69.103687 954.214921 64.793171 955.014325 60.247535 C 955.83463 55.696675 956.890053 51.333911 958.170146 47.154016 C 962.261217 34.447138 966.226892 24.697534 970.06717 17.905206 C 973.902223 11.081528 978.322461 7.669689 983.327885 7.669689 C 987.277885 7.669689 989.252885 10.287348 989.252885 15.517441 C 989.252885 19.012878 988.584102 22.597137 987.251761 26.259769 C 985.914194 29.927627 984.607977 33.538011 983.327885 37.090921 C 982.047792 40.643831 981.405133 43.998196 981.405133 47.154016 C 981.405133 50.053818 982.13139 52.232588 983.583903 53.679876 C 985.031192 55.13239 986.922594 55.853422 989.252885 55.853422 C 991.954142 55.853422 994.200835 55.043567 995.992965 53.423858 C 997.779869 51.804149 999.556325 49.714202 1001.32233 47.154016 C 1002.257581 45.764202 1003.454076 45.23649 1004.901364 45.576106 C 1006.353878 45.920948 1007.576497 46.699453 1008.569222 47.922072 C 1009.567172 49.144691 1009.765717 50.283712 1009.164857 51.333911 C 1007.999711 53.209638 1006.636021 55.89522 1005.073785 59.395882 C 1003.51155 62.859969 1001.620147 66.642774 999.404803 70.73907 C 997.184235 74.804018 994.639724 78.67042 991.771271 82.333052 C 988.928943 86.00091 985.699975 89.031333 982.089591 91.419098 C 978.479207 93.806862 974.41426 94.998132 969.894749 94.998132 Z M 1008.125108 94.998132 C 1004.060161 94.998132 1000.920015 93.775513 998.704671 91.330275 C 996.484102 88.890262 995.37643 85.859838 995.37643 82.249454 C 995.37643 78.184507 995.846668 73.095486 996.78192 66.98239 C 997.722396 60.87452 999.169684 54.265062 1001.134235 47.154016 C 1003.124909 40.27809 1005.314129 33.835828 1007.701894 27.83768 C 1010.089658 21.839531 1012.534897 16.980404 1015.032383 13.255073 C 1017.535095 9.529742 1019.896735 7.669689 1022.11208 7.669689 C 1024.442371 7.669689 1025.978482 8.338472 1026.720413 9.676039 C 1027.483244 11.00838 1027.869884 12.560166 1027.869884 14.320946 C 1027.869884 17.675311 1028.679739 19.765259 1030.299448 20.590788 C 1031.950506 21.416317 1034.16585 20.418367 1036.950704 17.607388 C 1040.221472 14.477692 1043.591512 12.048129 1047.060824 10.313473 C 1050.556261 8.552692 1054.234568 7.669689 1058.10097 7.669689 C 1063.44601 7.669689 1067.39601 9.247599 1069.956195 12.40342 C 1072.516381 15.527891 1073.796473 19.310695 1073.796473 23.746608 C 1073.796473 26.761357 1073.326235 29.514862 1072.385759 32.017574 C 1071.476632 34.520286 1070.55183 36.965524 1069.616579 39.353289 C 1068.676103 41.741053 1068.211089 44.400511 1068.211089 47.326437 C 1068.211089 53.152165 1071.006394 56.067641 1076.607452 56.067641 C 1079.282585 56.067641 1081.513603 55.231662 1083.305733 53.55448 C 1085.123987 51.845948 1086.900442 49.714202 1088.635098 47.154016 C 1089.57035 45.764202 1090.792969 45.267839 1092.302955 45.664929 C 1093.833842 46.062019 1095.08781 46.845749 1096.054411 48.010895 C 1097.047136 49.17604 1097.203882 50.341186 1096.524649 51.506331 C 1095.359503 53.382059 1093.948789 56.09899 1092.302955 59.6519 C 1090.683246 63.173461 1088.734371 66.956266 1086.461553 70.995089 C 1084.183511 75.002563 1081.529278 78.837616 1078.48318 82.505473 C 1075.473656 86.17333 1072.072267 89.172404 1068.294687 91.502695 C 1064.511883 93.832987 1060.232716 94.998132 1055.457187 94.998132 C 1050.002425 94.998132 1046.162147 93.195553 1043.946803 89.585169 C 1041.726234 85.974785 1040.618562 81.721743 1040.618562 76.836491 C 1040.618562 72.400578 1041.229871 68.178885 1042.45249 64.171411 C 1043.675109 60.163938 1044.897729 56.49608 1046.120348 53.167839 C 1047.342967 49.844823 1047.954276 47.012945 1047.954276 44.682654 C 1047.954276 42.723328 1047.342967 41.213342 1046.120348 40.163143 C 1044.897729 39.112945 1043.293694 38.585233 1041.303019 38.585233 C 1037.948654 38.585233 1034.834633 40.022072 1031.960956 42.890524 C 1029.118627 45.732852 1026.819686 49.432059 1025.05368 53.977694 C 1023.319024 58.497205 1022.451696 63.387681 1022.451696 68.649123 L 1022.451696 76.49165 C 1022.451696 79.391452 1022.096405 82.280804 1021.385823 85.149256 C 1020.70659 87.991584 1019.342899 90.353225 1017.294751 92.228952 C 1015.246603 94.078555 1012.190055 94.998132 1008.125108 94.998132 Z M 1117.460695 94.998132 C 1110.469821 94.998132 1104.727691 93.435897 1100.234305 90.311426 C 1095.772268 87.155605 1092.459701 82.991386 1090.296606 77.813541 C 1088.138736 72.614798 1087.088537 66.898792 1087.146011 60.675975 C 1087.198259 54.447932 1088.279807 48.219889 1090.385429 41.997072 C 1092.485826 35.769029 1095.516249 30.068698 1099.466249 24.896079 C 1103.41625 19.697335 1108.223128 15.527891 1113.88166 12.40342 C 1119.534967 9.247599 1125.919756 7.669689 1133.025576 7.669689 C 1138.485563 7.669689 1142.931926 8.693763 1146.375114 10.741912 C 1149.813077 12.758711 1152.341913 15.459967 1153.961622 18.840457 C 1155.581331 22.226171 1156.391186 25.836555 1156.391186 29.671608 C 1156.391186 33.882852 1155.22604 38.073196 1152.895749 42.25309 C 1150.596807 46.432985 1147.341714 49.897072 1143.130471 52.655802 C 1138.955801 55.388408 1134.007851 56.752099 1128.291846 56.752099 C 1125.846608 56.752099 1123.458843 56.579678 1121.128552 56.240062 C 1118.798261 55.869096 1116.65084 55.101041 1114.691515 53.935895 C 1114.090655 53.596279 1113.437546 53.580604 1112.726964 53.894096 C 1112.047731 54.176239 1111.70289 54.902496 1111.70289 56.067641 C 1111.70289 59.08239 1113.479345 61.386557 1117.03748 62.974917 C 1120.59039 64.537152 1124.869557 65.320882 1129.869756 65.320882 C 1135.810431 65.320882 1141.954875 63.81612 1148.29264 60.801371 C 1154.630405 57.760498 1159.7769 53.209638 1163.7269 47.154016 C 1164.667376 45.764202 1165.889996 45.267839 1167.394758 45.664929 C 1168.930869 46.062019 1170.179612 46.845749 1171.146213 48.010895 C 1172.144162 49.17604 1172.300909 50.341186 1171.616451 51.506331 C 1163.914995 65.717972 1155.482059 76.522999 1146.32809 83.910962 C 1137.205471 91.30415 1127.581264 94.998132 1117.460695 94.998132 Z M 1123.772335 43.65858 C 1127.1267 43.65858 1129.754809 42.577032 1131.661886 40.419162 C 1133.595087 38.256066 1134.561687 36.066847 1134.561687 33.851503 C 1134.561687 31.892177 1133.892904 30.214995 1132.555338 28.819955 C 1131.222997 27.398791 1129.216647 26.688209 1126.54674 26.688209 C 1123.161026 26.688209 1120.475443 27.738407 1118.484769 29.844029 C 1116.525443 31.949651 1115.543168 34.164995 1115.543168 36.495286 C 1115.543168 38.344889 1116.211951 40.006397 1117.549517 41.485035 C 1118.881859 42.932323 1120.956131 43.65858 1123.772335 43.65858 Z M 1232.731731 47.154016 C 1233.672207 45.764202 1234.894826 45.267839 1236.399588 45.664929 C 1237.90435 46.062019 1239.158319 46.845749 1240.151044 48.010895 C 1241.148993 49.17604 1241.290065 50.341186 1240.579483 51.506331 C 1239.414337 53.382059 1238.019297 56.09899 1236.399588 59.6519 C 1234.779879 63.173461 1232.831004 66.956266 1230.558186 70.995089 C 1228.285369 75.002563 1225.625911 78.837616 1222.585038 82.505473 C 1219.570289 86.17333 1216.174125 89.172404 1212.39132 91.502695 C 1208.613741 93.832987 1204.334574 94.998132 1199.559045 94.998132 C 1194.783515 94.998132 1190.985036 94.10468 1188.174057 92.31255 C 1185.383978 90.494296 1183.382853 88.164005 1182.160234 85.321677 C 1180.937615 82.447999 1180.326306 79.563872 1180.326306 76.664071 C 1180.326306 72.599123 1180.937615 68.59165 1182.160234 64.641649 C 1183.382853 60.6603 1184.804017 56.861821 1186.423727 53.251437 C 1188.074785 49.641054 1189.506399 46.333712 1190.729018 43.318963 C 1191.951637 40.27809 1192.562946 37.70223 1192.562946 35.601833 C 1192.562946 34.692706 1191.894163 33.339466 1190.561822 31.547336 C 1189.224256 29.729082 1186.805142 28.182521 1183.309705 26.902428 C 1182.259507 29.206595 1181.010763 31.902627 1179.55825 35.000974 C 1178.110962 38.09932 1176.642774 41.129744 1175.164136 44.087019 C 1173.716848 47.044294 1172.536028 49.515657 1171.626901 51.506331 C 1170.916319 53.011093 1169.766848 53.564929 1168.173263 53.167839 C 1166.611027 52.770749 1165.299585 51.929546 1164.249387 50.654678 C 1163.225313 49.374585 1163.058117 48.20944 1163.73735 47.154016 C 1165.388408 44.823725 1167.190988 41.411887 1169.155538 36.923725 C 1171.146213 32.430339 1172.891319 28.208645 1174.396081 24.258645 C 1172.666649 23.689134 1171.27161 22.706859 1170.221411 21.317044 C 1169.165988 19.89588 1168.643501 17.617838 1168.643501 14.493367 C 1168.643501 12.048129 1169.280935 9.629015 1170.561027 7.24125 C 1171.84112 4.853486 1173.6437 2.852361 1175.973991 1.232652 C 1178.309507 -0.418406 1181.036888 -1.243935 1184.161359 -1.243935 C 1189.652695 -1.243935 1194.924587 -0.188512 1199.982259 1.911885 C 1205.045156 4.017507 1209.209376 6.676964 1212.480143 9.885033 C 1215.745685 13.072203 1217.381069 16.228023 1217.381069 19.352494 C 1217.381069 22.623261 1216.76976 25.721608 1215.54714 28.647534 C 1214.324521 31.547336 1213.075778 34.520286 1211.795685 37.561159 C 1210.515593 40.575908 1209.878159 43.888474 1209.878159 47.498858 C 1209.878159 49.944096 1210.688013 51.987019 1212.307722 53.638077 C 1213.927431 55.257787 1216.727961 56.067641 1220.70931 56.067641 C 1223.379218 56.067641 1225.610236 55.231662 1227.402366 53.55448 C 1229.22062 51.845948 1230.997075 49.714202 1232.731731 47.154016 Z M 1247.225515 94.998132 C 1241.28484 94.998132 1236.791454 92.552894 1233.75058 87.667642 C 1230.735832 82.777166 1229.23107 76.434176 1229.23107 68.649123 C 1229.23107 63.727297 1229.842379 58.512879 1231.064998 52.995419 C 1232.287617 47.457059 1234.090197 42.012746 1236.477961 36.667706 C 1238.865726 31.322667 1241.8648 26.458314 1245.475184 22.0851 C 1249.085568 17.706661 1253.281137 14.205999 1258.056666 11.593565 C 1262.832195 8.975906 1268.250383 7.669689 1274.30078 7.669689 C 1277.801442 7.669689 1280.502699 7.998856 1282.404551 8.651965 C 1284.337752 9.273724 1285.800715 10.057454 1286.798665 10.99793 C 1287.79139 11.933182 1288.632593 12.732586 1289.311826 13.385695 C 1290.022408 14.007454 1290.962884 14.320946 1292.12803 14.320946 C 1294.087355 14.320946 1295.68094 13.76711 1296.903559 12.659438 C 1298.126178 11.551766 1299.489869 10.444094 1300.994631 9.331197 C 1302.530742 8.223525 1304.636364 7.669689 1307.306271 7.669689 C 1309.636562 7.669689 1311.245822 8.254875 1312.1236 9.42002 C 1313.006602 10.585166 1313.445491 12.163076 1313.445491 14.15375 C 1313.445491 17.393169 1312.536364 20.616912 1310.71811 23.830206 C 1308.92598 27.0435 1307.039803 31.207719 1305.049128 36.322865 C 1302.149327 42.723328 1301.067779 47.60858 1301.804485 50.994294 C 1302.572541 54.374784 1304.876708 56.067641 1308.716986 56.067641 C 1311.72651 56.067641 1314.344168 55.283911 1316.559512 53.721675 C 1318.780081 52.133316 1320.765531 49.944096 1322.531536 47.154016 C 1323.440663 45.764202 1324.621484 45.267839 1326.068772 45.664929 C 1327.54741 46.062019 1328.770029 46.845749 1329.736629 48.010895 C 1330.734579 49.17604 1330.943574 50.341186 1330.379288 51.506331 C 1328.273666 55.571279 1326.026973 60.090789 1323.639208 65.064864 C 1321.251444 70.012814 1318.591986 74.756994 1315.66606 79.307854 C 1312.766258 83.827364 1309.453692 87.57882 1305.728361 90.567444 C 1302.008255 93.519494 1297.697739 94.998132 1292.807263 94.998132 C 1286.756866 94.998132 1282.477699 92.552894 1279.974987 87.667642 C 1277.472275 82.777166 1276.746019 76.721544 1277.801442 69.500777 L 1277.116984 69.500777 C 1273.621548 76.606597 1269.300582 82.636095 1264.154087 87.57882 C 1259.038941 92.52677 1253.396084 94.998132 1247.225515 94.998132 Z M 1264.707923 58.842046 C 1267.722672 58.842046 1270.366455 57.974718 1272.639272 56.240062 C 1274.91209 54.474056 1276.688545 52.34231 1277.968638 49.844823 C 1279.24873 47.342112 1279.891389 44.865524 1279.891389 42.425511 C 1279.891389 39.525709 1279.06586 37.263341 1277.414802 35.643632 C 1275.795093 33.992574 1273.590198 33.17227 1270.805344 33.17227 C 1267.790595 33.17227 1265.178161 33.992574 1262.962817 35.643632 C 1260.742248 37.263341 1259.023267 39.321939 1257.800648 41.824651 C 1256.578028 44.327363 1255.966719 46.856199 1255.966719 49.416384 C 1255.966719 52.316186 1256.750449 54.620353 1258.312685 56.32366 C 1259.906269 58.000842 1262.038015 58.842046 1264.707923 58.842046 Z M 1391.494568 47.154016 C 1392.435045 45.764202 1393.657664 45.267839 1395.162426 45.664929 C 1396.667188 46.062019 1397.921156 46.845749 1398.913881 48.010895 C 1399.911831 49.17604 1400.052902 50.341186 1399.34232 51.506331 C 1398.177175 53.382059 1396.782135 56.09899 1395.162426 59.6519 C 1393.542717 63.173461 1391.593841 66.956266 1389.321023 70.995089 C 1387.048206 75.002563 1384.388748 78.837616 1381.347875 82.505473 C 1378.333126 86.17333 1374.936962 89.172404 1371.154158 91.502695 C 1367.371353 93.832987 1363.097411 94.998132 1358.321882 94.998132 C 1353.546353 94.998132 1349.747874 94.10468 1346.936895 92.31255 C 1344.146815 90.494296 1342.145691 88.164005 1340.923072 85.321677 C 1339.700453 82.447999 1339.089143 79.563872 1339.089143 76.664071 C 1339.089143 72.599123 1339.700453 68.59165 1340.923072 64.641649 C 1342.145691 60.6603 1343.566855 56.861821 1345.186564 53.251437 C 1346.832397 49.641054 1348.269236 46.333712 1349.491855 43.318963 C 1350.714474 40.27809 1351.325784 37.70223 1351.325784 35.601833 C 1351.325784 34.692706 1350.657001 33.339466 1349.324659 31.547336 C 1347.987093 29.729082 1345.567979 28.182521 1342.072543 26.902428 C 1341.022344 29.206595 1339.768376 31.902627 1338.321087 35.000974 C 1336.868574 38.09932 1335.405611 41.129744 1333.926973 44.087019 C 1332.479685 47.044294 1331.298865 49.515657 1330.389738 51.506331 C 1329.679156 53.011093 1328.529685 53.564929 1326.9361 53.167839 C 1325.373865 52.770749 1324.062423 51.929546 1323.012224 50.654678 C 1321.98815 49.374585 1321.820954 48.20944 1322.500187 47.154016 C 1324.151246 44.823725 1325.953825 41.411887 1327.918375 36.923725 C 1329.903825 32.430339 1331.654156 28.208645 1333.158918 24.258645 C 1331.429487 23.689134 1330.034447 22.706859 1328.984248 21.317044 C 1327.928825 19.89588 1327.406338 17.617838 1327.406338 14.493367 C 1327.406338 12.048129 1328.043772 9.629015 1329.323865 7.24125 C 1330.603957 4.853486 1332.406537 2.852361 1334.736828 1.232652 C 1337.072344 -0.418406 1339.799725 -1.243935 1342.924196 -1.243935 C 1348.410307 -1.243935 1353.687424 -0.188512 1358.745096 1.911885 C 1363.807993 4.017507 1367.972213 6.676964 1371.237755 9.885033 C 1374.508523 13.072203 1376.143906 16.228023 1376.143906 19.352494 C 1376.143906 22.623261 1375.532597 25.721608 1374.309978 28.647534 C 1373.087359 31.547336 1371.838615 34.520286 1370.558523 37.561159 C 1369.27843 40.575908 1368.640996 43.888474 1368.640996 47.498858 C 1368.640996 49.944096 1369.450851 51.987019 1371.07056 53.638077 C 1372.690269 55.257787 1375.490798 56.067641 1379.472147 56.067641 C 1382.142055 56.067641 1384.373073 55.231662 1386.165203 53.55448 C 1387.983457 51.845948 1389.759912 49.714202 1391.494568 47.154016 Z M 1478.305749 47.154016 C 1478.990207 46.103818 1480.087429 45.722403 1481.592191 46.004545 C 1483.128302 46.286688 1484.450194 46.929347 1485.557866 47.922072 C 1486.665538 48.920022 1486.864083 50.111292 1486.153501 51.506331 C 1483.593316 56.877496 1481.121953 62.123263 1478.734188 67.238409 C 1476.346424 72.358779 1473.817588 77.019362 1471.142455 81.22538 C 1468.472548 85.405275 1465.499598 88.743965 1462.234056 91.246677 C 1458.963288 93.749389 1455.237957 94.998132 1451.058063 94.998132 C 1448.503103 94.998132 1446.470629 93.723264 1444.960642 91.163079 C 1441.240536 103.159376 1437.32711 112.767908 1433.236038 119.988675 C 1429.171091 127.209443 1424.635906 132.439536 1419.635707 135.678954 C 1414.630284 138.949721 1408.856805 140.585105 1402.320495 140.585105 C 1393.140402 140.585105 1386.018907 138.165991 1380.95601 133.332988 C 1375.866988 128.499985 1373.322478 121.890527 1373.322478 113.504614 C 1373.322478 109.100051 1373.965136 105.291122 1375.245229 102.077828 C 1376.525322 98.864534 1377.988285 96.335698 1379.634118 94.486095 C 1381.253827 92.610367 1382.706341 91.419098 1383.986433 90.907061 C 1385.266526 90.363674 1385.961433 90.567444 1386.07638 91.502695 C 1386.557068 95.823661 1388.364873 99.376571 1391.489344 102.161426 C 1394.645164 104.951506 1398.892981 106.283847 1404.238021 106.174125 C 1409.358392 106.059178 1414.102572 104.564865 1418.481011 101.696413 C 1422.859451 98.854085 1426.469834 95.045156 1429.312163 90.264402 C 1432.154491 85.488872 1433.873472 80.316253 1434.474332 74.746544 C 1434.699001 72.755869 1434.176515 71.648197 1432.896422 71.418303 C 1431.616329 71.193634 1430.508657 72.186359 1429.568181 74.401703 C 1427.23789 80.201306 1423.967123 84.793965 1419.761104 88.179679 C 1415.58121 91.560169 1410.648934 93.253026 1404.964278 93.253026 C 1400.303696 93.253026 1396.249198 91.716915 1392.811235 88.644693 C 1389.373272 85.546346 1387.65429 80.671544 1387.65429 74.020287 C 1387.65429 71.35038 1387.852835 67.625049 1388.249925 62.84952 C 1388.67314 58.07399 1389.754687 52.843898 1391.489344 47.154016 C 1395.58564 34.337415 1399.692386 24.556463 1403.814807 17.816383 C 1407.937228 11.055404 1412.441064 7.669689 1417.33154 7.669689 C 1420.941924 7.669689 1422.744504 9.99998 1422.744504 14.665788 C 1422.744504 18.385893 1422.075721 22.168698 1420.743379 26.003751 C 1419.405813 29.844029 1418.099596 33.595484 1416.819503 37.263341 C 1415.539411 40.931199 1414.901977 44.510233 1414.901977 48.010895 C 1414.901977 50.456133 1415.398339 52.373659 1416.391064 53.763474 C 1417.389014 55.158514 1419.332665 55.853422 1422.232467 55.853422 C 1426.072744 55.853422 1429.155417 54.730075 1431.485708 52.488607 C 1433.821224 50.210564 1435.681277 47.02862 1437.076316 42.932323 C 1440.681475 31.536886 1444.349333 22.806132 1448.074663 16.75051 C 1451.799994 10.700113 1455.880616 7.669689 1460.311304 7.669689 C 1462.871489 7.669689 1464.820365 8.254875 1466.152706 9.42002 C 1467.490273 10.585166 1468.159056 12.560166 1468.159056 15.34502 C 1468.159056 18.955404 1467.020035 23.307719 1464.747217 28.391516 C 1462.500524 33.454413 1459.856741 40.403487 1456.815867 49.243964 C 1455.426053 54.13444 1455.33723 57.546279 1456.559849 59.47948 C 1457.782468 61.386557 1459.391727 62.337483 1461.377177 62.337483 C 1464.05231 62.337483 1466.894638 60.717774 1469.909387 57.473131 C 1472.95026 54.207588 1475.750789 50.7644 1478.305749 47.154016 Z M 1478.305749 47.154016 " stroke="#bc6c25" stroke-width="23.798243" stroke-opacity="1" stroke-miterlimit="4"/></g><g fill="#fefae0" fill-opacity="1"><g transform="translate(18.741841, 109.013115)"><g><path d="M 15.9375 5.484375 C 10.882812 5.484375 6.8125 4.414062 3.71875 2.28125 C 0.632812 0.15625 -1.625 -2.601562 -3.0625 -6 C -4.5 -9.394531 -5.21875 -12.878906 -5.21875 -16.453125 C -5.21875 -20.023438 -4.5 -23.441406 -3.0625 -26.703125 C -1.625 -29.960938 0.394531 -32.613281 3 -34.65625 C 5.613281 -36.707031 8.660156 -37.734375 12.140625 -37.734375 C 13.453125 -37.734375 14.109375 -37.210938 14.109375 -36.171875 C 14.109375 -33.296875 15.171875 -30.960938 17.296875 -29.171875 C 19.429688 -27.390625 22.023438 -26.5 25.078125 -26.5 C 28.640625 -26.5 32.421875 -28.109375 36.421875 -31.328125 C 40.429688 -34.554688 44.351562 -40.394531 48.1875 -48.84375 C 49.3125 -51.800781 50.460938 -54.867188 51.640625 -58.046875 C 52.816406 -61.222656 53.972656 -64.203125 55.109375 -66.984375 C 55.972656 -69.242188 57.125 -70.851562 58.5625 -71.8125 C 60 -72.769531 61.675781 -73.25 63.59375 -73.25 C 66.375 -73.25 68.195312 -72.617188 69.0625 -71.359375 C 69.9375 -70.097656 70.03125 -68.378906 69.34375 -66.203125 C 68.207031 -62.984375 67.3125 -60.265625 66.65625 -58.046875 C 66.007812 -55.828125 65.597656 -53.929688 65.421875 -52.359375 C 65.328125 -50.796875 65.738281 -49.816406 66.65625 -49.421875 C 67.570312 -49.035156 68.8125 -48.84375 70.375 -48.84375 C 73.070312 -48.84375 75.597656 -49.554688 77.953125 -50.984375 C 80.304688 -52.421875 82.203125 -54.378906 83.640625 -56.859375 C 85.078125 -59.347656 85.796875 -62.113281 85.796875 -65.15625 C 85.796875 -70.46875 83.617188 -74.210938 79.265625 -76.390625 C 74.910156 -78.566406 69.378906 -79.65625 62.671875 -79.65625 C 56.929688 -79.65625 52.101562 -78.804688 48.1875 -77.109375 C 44.269531 -75.410156 41.285156 -73.253906 39.234375 -70.640625 C 37.191406 -68.023438 36.171875 -65.328125 36.171875 -62.546875 C 36.171875 -60.804688 36.648438 -59.347656 37.609375 -58.171875 C 38.566406 -56.992188 39.738281 -56.40625 41.125 -56.40625 C 41.738281 -55.019531 41.785156 -53.34375 41.265625 -51.375 C 40.742188 -49.414062 39.71875 -47.546875 38.1875 -45.765625 C 36.664062 -43.984375 34.707031 -42.484375 32.3125 -41.265625 C 29.925781 -40.046875 27.164062 -39.4375 24.03125 -39.4375 C 20.457031 -39.4375 17.453125 -40.285156 15.015625 -41.984375 C 12.578125 -43.679688 10.75 -45.921875 9.53125 -48.703125 C 8.3125 -51.492188 7.703125 -54.453125 7.703125 -57.578125 C 7.703125 -62.191406 9.03125 -66.828125 11.6875 -71.484375 C 14.34375 -76.148438 18.148438 -80.414062 23.109375 -84.28125 C 28.078125 -88.15625 34.082031 -91.269531 41.125 -93.625 C 48.175781 -95.976562 56.144531 -97.15625 65.03125 -97.15625 C 79.300781 -97.15625 89.875 -94.648438 96.75 -89.640625 C 103.632812 -84.640625 107.078125 -77.738281 107.078125 -68.9375 C 107.078125 -61.71875 105.222656 -55.582031 101.515625 -50.53125 C 97.816406 -45.476562 92.75 -42.429688 86.3125 -41.390625 C 84.476562 -41.128906 83.253906 -40.820312 82.640625 -40.46875 C 82.035156 -40.125 81.734375 -39.734375 81.734375 -39.296875 C 81.734375 -38.773438 81.972656 -38.363281 82.453125 -38.0625 C 82.929688 -37.757812 83.582031 -37.28125 84.40625 -36.625 C 85.238281 -35.96875 86.09375 -34.816406 86.96875 -33.171875 C 87.925781 -31.429688 89.078125 -29.972656 90.421875 -28.796875 C 91.773438 -27.617188 93.710938 -27.03125 96.234375 -27.03125 C 99.191406 -27.03125 101.609375 -27.832031 103.484375 -29.4375 C 105.359375 -31.050781 107.164062 -33.164062 108.90625 -35.78125 C 109.601562 -36.820312 110.492188 -37.210938 111.578125 -36.953125 C 112.671875 -36.691406 113.5625 -36.101562 114.25 -35.1875 C 114.945312 -34.269531 115.125 -33.378906 114.78125 -32.515625 C 113.125 -28.597656 111.097656 -24.703125 108.703125 -20.828125 C 106.304688 -16.953125 103.671875 -13.445312 100.796875 -10.3125 C 97.929688 -7.175781 94.863281 -4.671875 91.59375 -2.796875 C 88.332031 -0.929688 85.003906 0 81.609375 0 C 77.953125 0 74.816406 -1.300781 72.203125 -3.90625 C 69.597656 -6.519531 68.078125 -10.789062 67.640625 -16.71875 C 67.460938 -18.539062 67.304688 -20.601562 67.171875 -22.90625 C 67.046875 -25.21875 66.832031 -27.394531 66.53125 -29.4375 C 66.226562 -31.488281 65.640625 -33.1875 64.765625 -34.53125 C 63.890625 -35.882812 62.671875 -36.5625 61.109375 -36.5625 C 60.148438 -36.5625 59.429688 -36.300781 58.953125 -35.78125 C 58.472656 -35.257812 58.0625 -34.519531 57.71875 -33.5625 C 55.019531 -26.15625 51.578125 -19.515625 47.390625 -13.640625 C 43.210938 -7.765625 38.488281 -3.109375 33.21875 0.328125 C 27.957031 3.765625 22.195312 5.484375 15.9375 5.484375 Z M 15.9375 5.484375 "/></g></g></g><g fill="#fefae0" fill-opacity="1"><g transform="translate(124.640251, 109.013115)"><g><path d="M 24.546875 0 C 19.328125 0 15.039062 -1.171875 11.6875 -3.515625 C 8.332031 -5.867188 5.847656 -8.984375 4.234375 -12.859375 C 2.628906 -16.734375 1.847656 -21 1.890625 -25.65625 C 1.929688 -30.3125 2.734375 -34.96875 4.296875 -39.625 C 5.867188 -44.28125 8.132812 -48.546875 11.09375 -52.421875 C 14.050781 -56.296875 17.640625 -59.40625 21.859375 -61.75 C 26.085938 -64.101562 30.859375 -65.28125 36.171875 -65.28125 C 40.265625 -65.28125 43.59375 -64.519531 46.15625 -63 C 48.726562 -61.476562 50.625 -59.453125 51.84375 -56.921875 C 53.0625 -54.398438 53.671875 -51.707031 53.671875 -48.84375 C 53.671875 -45.707031 52.796875 -42.570312 51.046875 -39.4375 C 49.304688 -36.300781 46.867188 -33.707031 43.734375 -31.65625 C 40.609375 -29.613281 36.910156 -28.59375 32.640625 -28.59375 C 30.816406 -28.59375 29.03125 -28.722656 27.28125 -28.984375 C 25.539062 -29.242188 23.929688 -29.8125 22.453125 -30.6875 C 22.023438 -30.945312 21.546875 -30.96875 21.015625 -30.75 C 20.492188 -30.53125 20.234375 -29.988281 20.234375 -29.125 C 20.234375 -26.851562 21.5625 -25.128906 24.21875 -23.953125 C 26.875 -22.785156 30.070312 -22.203125 33.8125 -22.203125 C 38.257812 -22.203125 42.851562 -23.332031 47.59375 -25.59375 C 52.34375 -27.851562 56.195312 -31.25 59.15625 -35.78125 C 59.851562 -36.820312 60.765625 -37.191406 61.890625 -36.890625 C 63.023438 -36.585938 63.960938 -36 64.703125 -35.125 C 65.441406 -34.25 65.550781 -33.378906 65.03125 -32.515625 C 59.28125 -21.890625 52.988281 -13.8125 46.15625 -8.28125 C 39.320312 -2.757812 32.117188 0 24.546875 0 Z M 29.25 -38.390625 C 31.769531 -38.390625 33.75 -39.191406 35.1875 -40.796875 C 36.625 -42.410156 37.34375 -44.046875 37.34375 -45.703125 C 37.34375 -47.179688 36.84375 -48.441406 35.84375 -49.484375 C 34.84375 -50.535156 33.34375 -51.0625 31.34375 -51.0625 C 28.8125 -51.0625 26.804688 -50.273438 25.328125 -48.703125 C 23.847656 -47.140625 23.109375 -45.488281 23.109375 -43.75 C 23.109375 -42.351562 23.609375 -41.109375 24.609375 -40.015625 C 25.609375 -38.929688 27.15625 -38.390625 29.25 -38.390625 Z M 29.25 -38.390625 "/></g></g></g><g fill="#fefae0" fill-opacity="1"><g transform="translate(180.788606, 109.013115)"><g><path d="M 29.640625 26.25 C 27.117188 26.25 25.007812 25.070312 23.3125 22.71875 C 21.613281 20.363281 21.328125 16.796875 22.453125 12.015625 C 23.242188 8.960938 24.332031 6.175781 25.71875 3.65625 C 27.113281 1.132812 28.550781 -1.253906 30.03125 -3.515625 C 31.507812 -5.785156 32.769531 -7.941406 33.8125 -9.984375 C 34.863281 -12.035156 35.390625 -14.101562 35.390625 -16.1875 C 35.390625 -17.320312 35.101562 -17.84375 34.53125 -17.75 C 33.96875 -17.664062 33.425781 -17.015625 32.90625 -15.796875 C 30.988281 -11.015625 28.570312 -7.1875 25.65625 -4.3125 C 22.738281 -1.4375 19.28125 0 15.28125 0 C 10.75 0 7.132812 -1.78125 4.4375 -5.34375 C 1.738281 -8.914062 0.390625 -13.316406 0.390625 -18.546875 C 0.390625 -23.421875 1.082031 -28.554688 2.46875 -33.953125 C 3.863281 -39.347656 5.976562 -44.414062 8.8125 -49.15625 C 11.644531 -53.90625 15.171875 -57.78125 19.390625 -60.78125 C 23.609375 -63.78125 28.503906 -65.28125 34.078125 -65.28125 C 36.691406 -65.28125 38.71875 -65.039062 40.15625 -64.5625 C 41.59375 -64.09375 42.679688 -63.507812 43.421875 -62.8125 C 44.160156 -62.113281 44.789062 -61.523438 45.3125 -61.046875 C 45.832031 -60.566406 46.53125 -60.328125 47.40625 -60.328125 C 48.882812 -60.328125 50.078125 -60.738281 50.984375 -61.5625 C 51.898438 -62.394531 52.921875 -63.222656 54.046875 -64.046875 C 55.179688 -64.867188 56.753906 -65.28125 58.765625 -65.28125 C 60.503906 -65.28125 61.695312 -64.84375 62.34375 -63.96875 C 63 -63.101562 63.328125 -61.929688 63.328125 -60.453125 C 63.328125 -58.890625 62.867188 -57.128906 61.953125 -55.171875 C 61.046875 -53.210938 59.851562 -50.726562 58.375 -47.71875 C 56.894531 -44.71875 55.304688 -40.929688 53.609375 -36.359375 C 51.910156 -31.796875 50.234375 -26.160156 48.578125 -19.453125 C 47.441406 -14.753906 46.394531 -10.488281 45.4375 -6.65625 C 44.476562 -2.820312 43.5625 0.875 42.6875 4.4375 C 41.820312 8.007812 40.910156 11.84375 39.953125 15.9375 C 39.085938 19.5 37.695312 22.109375 35.78125 23.765625 C 33.863281 25.421875 31.816406 26.25 29.640625 26.25 Z M 27.15625 -27.03125 C 29.332031 -27.03125 31.25 -27.679688 32.90625 -28.984375 C 34.5625 -30.296875 35.867188 -31.882812 36.828125 -33.75 C 37.785156 -35.625 38.265625 -37.472656 38.265625 -39.296875 C 38.265625 -41.210938 37.695312 -42.84375 36.5625 -44.1875 C 35.425781 -45.539062 33.597656 -46.21875 31.078125 -46.21875 C 28.984375 -46.21875 27.128906 -45.609375 25.515625 -44.390625 C 23.910156 -43.171875 22.648438 -41.625 21.734375 -39.75 C 20.828125 -37.882812 20.375 -35.992188 20.375 -34.078125 C 20.375 -32.160156 20.894531 -30.503906 21.9375 -29.109375 C 22.976562 -27.722656 24.71875 -27.03125 27.15625 -27.03125 Z M 27.15625 -27.03125 "/></g></g></g><g fill="#fefae0" fill-opacity="1"><g transform="translate(240.984875, 109.013115)"><g><path d="M 68.296875 -35.78125 C 68.992188 -36.820312 69.90625 -37.191406 71.03125 -36.890625 C 72.164062 -36.585938 73.101562 -36 73.84375 -35.125 C 74.582031 -34.25 74.691406 -33.378906 74.171875 -32.515625 C 73.296875 -31.117188 72.25 -29.09375 71.03125 -26.4375 C 69.8125 -23.78125 68.351562 -20.953125 66.65625 -17.953125 C 64.957031 -14.953125 62.976562 -12.078125 60.71875 -9.328125 C 58.457031 -6.585938 55.910156 -4.347656 53.078125 -2.609375 C 50.253906 -0.867188 47.054688 0 43.484375 0 C 35.992188 0 32.25 -4.742188 32.25 -14.234375 C 32.25 -15.890625 32.378906 -17.675781 32.640625 -19.59375 C 31.253906 -16.539062 29.554688 -13.507812 27.546875 -10.5 C 25.546875 -7.5 23.238281 -5.019531 20.625 -3.0625 C 18.019531 -1.101562 15.019531 -0.125 11.625 -0.125 C 8.132812 -0.125 5.34375 -1.382812 3.25 -3.90625 C 1.164062 -6.4375 0.125 -10.359375 0.125 -15.671875 C 0.125 -17.671875 0.273438 -20.453125 0.578125 -24.015625 C 0.890625 -27.585938 1.695312 -31.507812 3 -35.78125 C 6.050781 -45.351562 9.117188 -52.660156 12.203125 -57.703125 C 15.296875 -62.753906 18.671875 -65.28125 22.328125 -65.28125 C 25.023438 -65.28125 26.375 -63.539062 26.375 -60.0625 C 26.375 -57.28125 25.875 -54.453125 24.875 -51.578125 C 23.875 -48.703125 22.894531 -45.894531 21.9375 -43.15625 C 20.976562 -40.414062 20.5 -37.738281 20.5 -35.125 C 20.5 -33.300781 20.867188 -31.863281 21.609375 -30.8125 C 22.347656 -29.769531 23.804688 -29.25 25.984375 -29.25 C 28.335938 -29.25 30.46875 -29.96875 32.375 -31.40625 C 34.289062 -32.84375 35.816406 -35.171875 36.953125 -38.390625 L 37.078125 -38.90625 C 39.773438 -47.4375 42.515625 -53.960938 45.296875 -58.484375 C 48.085938 -63.015625 51.140625 -65.28125 54.453125 -65.28125 C 55.753906 -65.28125 56.753906 -64.890625 57.453125 -64.109375 C 58.148438 -63.328125 58.5 -61.976562 58.5 -60.0625 C 58.5 -57.625 58 -54.988281 57 -52.15625 C 56 -49.332031 55.019531 -46.523438 54.0625 -43.734375 C 53.101562 -40.953125 52.625 -38.472656 52.625 -36.296875 C 52.625 -33.859375 53.296875 -32.050781 54.640625 -30.875 C 55.992188 -29.707031 57.539062 -29.125 59.28125 -29.125 C 61.28125 -29.125 62.953125 -29.753906 64.296875 -31.015625 C 65.648438 -32.273438 66.984375 -33.863281 68.296875 -35.78125 Z M 68.296875 -35.78125 "/></g></g></g><g fill="#fefae0" fill-opacity="1"><g transform="translate(306.273655, 109.013115)"><g><path d="M 24.546875 0 C 19.328125 0 15.039062 -1.171875 11.6875 -3.515625 C 8.332031 -5.867188 5.847656 -8.984375 4.234375 -12.859375 C 2.628906 -16.734375 1.847656 -21 1.890625 -25.65625 C 1.929688 -30.3125 2.734375 -34.96875 4.296875 -39.625 C 5.867188 -44.28125 8.132812 -48.546875 11.09375 -52.421875 C 14.050781 -56.296875 17.640625 -59.40625 21.859375 -61.75 C 26.085938 -64.101562 30.859375 -65.28125 36.171875 -65.28125 C 40.265625 -65.28125 43.59375 -64.519531 46.15625 -63 C 48.726562 -61.476562 50.625 -59.453125 51.84375 -56.921875 C 53.0625 -54.398438 53.671875 -51.707031 53.671875 -48.84375 C 53.671875 -45.707031 52.796875 -42.570312 51.046875 -39.4375 C 49.304688 -36.300781 46.867188 -33.707031 43.734375 -31.65625 C 40.609375 -29.613281 36.910156 -28.59375 32.640625 -28.59375 C 30.816406 -28.59375 29.03125 -28.722656 27.28125 -28.984375 C 25.539062 -29.242188 23.929688 -29.8125 22.453125 -30.6875 C 22.023438 -30.945312 21.546875 -30.96875 21.015625 -30.75 C 20.492188 -30.53125 20.234375 -29.988281 20.234375 -29.125 C 20.234375 -26.851562 21.5625 -25.128906 24.21875 -23.953125 C 26.875 -22.785156 30.070312 -22.203125 33.8125 -22.203125 C 38.257812 -22.203125 42.851562 -23.332031 47.59375 -25.59375 C 52.34375 -27.851562 56.195312 -31.25 59.15625 -35.78125 C 59.851562 -36.820312 60.765625 -37.191406 61.890625 -36.890625 C 63.023438 -36.585938 63.960938 -36 64.703125 -35.125 C 65.441406 -34.25 65.550781 -33.378906 65.03125 -32.515625 C 59.28125 -21.890625 52.988281 -13.8125 46.15625 -8.28125 C 39.320312 -2.757812 32.117188 0 24.546875 0 Z M 29.25 -38.390625 C 31.769531 -38.390625 33.75 -39.191406 35.1875 -40.796875 C 36.625 -42.410156 37.34375 -44.046875 37.34375 -45.703125 C 37.34375 -47.179688 36.84375 -48.441406 35.84375 -49.484375 C 34.84375 -50.535156 33.34375 -51.0625 31.34375 -51.0625 C 28.8125 -51.0625 26.804688 -50.273438 25.328125 -48.703125 C 23.847656 -47.140625 23.109375 -45.488281 23.109375 -43.75 C 23.109375 -42.351562 23.609375 -41.109375 24.609375 -40.015625 C 25.609375 -38.929688 27.15625 -38.390625 29.25 -38.390625 Z M 29.25 -38.390625 "/></g></g></g><g fill="#fefae0" fill-opacity="1"><g transform="translate(362.42201, 109.013115)"><g><path d="M 53.671875 -35.78125 C 54.367188 -36.820312 55.257812 -37.191406 56.34375 -36.890625 C 57.4375 -36.585938 58.351562 -36 59.09375 -35.125 C 59.832031 -34.25 59.984375 -33.378906 59.546875 -32.515625 C 58.847656 -31.035156 57.820312 -28.96875 56.46875 -26.3125 C 55.125 -23.65625 53.425781 -20.820312 51.375 -17.8125 C 49.332031 -14.8125 46.851562 -11.960938 43.9375 -9.265625 C 41.019531 -6.566406 37.664062 -4.367188 33.875 -2.671875 C 30.09375 -0.972656 25.765625 -0.125 20.890625 -0.125 C 15.148438 -0.125 10.601562 -1.34375 7.25 -3.78125 C 3.894531 -6.21875 1.609375 -9.304688 0.390625 -13.046875 C -0.828125 -16.796875 -1.175781 -20.71875 -0.65625 -24.8125 C -0.132812 -28.90625 1.082031 -32.5625 3 -35.78125 L 3.53125 -36.5625 C 5.875 -39.695312 8.195312 -43.113281 10.5 -46.8125 C 12.8125 -50.507812 15.1875 -53.988281 17.625 -57.25 C 20.0625 -60.519531 22.585938 -63.21875 25.203125 -65.34375 C 27.816406 -67.476562 30.515625 -68.546875 33.296875 -68.546875 C 37.390625 -68.546875 40.414062 -67.585938 42.375 -65.671875 C 44.332031 -63.765625 45.269531 -61.765625 45.1875 -59.671875 C 45.1875 -58.628906 44.726562 -57.757812 43.8125 -57.0625 C 42.894531 -56.363281 41.804688 -55.734375 40.546875 -55.171875 C 39.285156 -54.609375 38.175781 -53.910156 37.21875 -53.078125 C 36.257812 -52.253906 35.78125 -51.1875 35.78125 -49.875 C 35.78125 -49.09375 36.390625 -47.523438 37.609375 -45.171875 C 38.828125 -42.828125 40.128906 -40.195312 41.515625 -37.28125 C 42.910156 -34.363281 43.867188 -31.554688 44.390625 -28.859375 C 46.398438 -28.941406 48.117188 -29.632812 49.546875 -30.9375 C 50.984375 -32.25 52.359375 -33.863281 53.671875 -35.78125 Z M 16.1875 -27.03125 C 19.0625 -27.03125 21.28125 -27.941406 22.84375 -29.765625 C 24.414062 -31.597656 25.203125 -33.863281 25.203125 -36.5625 C 25.203125 -38.125 24.960938 -39.734375 24.484375 -41.390625 C 24.003906 -43.046875 23.285156 -44.742188 22.328125 -46.484375 C 21.453125 -48.222656 20.40625 -48.222656 19.1875 -46.484375 C 17.539062 -44.046875 15.78125 -41.585938 13.90625 -39.109375 C 12.03125 -36.628906 10.351562 -34.429688 8.875 -32.515625 C 8.875 -30.941406 9.546875 -29.632812 10.890625 -28.59375 C 12.242188 -27.550781 14.007812 -27.03125 16.1875 -27.03125 Z M 16.1875 -27.03125 "/></g></g></g><g fill="#fefae0" fill-opacity="1"><g transform="translate(412.955546, 109.013115)"><g><path d="M 13.1875 0 C 8.3125 0 4.71875 -1.5 2.40625 -4.5 C 0.101562 -7.507812 -1.046875 -11.425781 -1.046875 -16.25 C -1.046875 -21.082031 -0.0859375 -26.285156 1.828125 -31.859375 C 2.960938 -35.171875 4.222656 -38.738281 5.609375 -42.5625 C 7.003906 -46.394531 8.53125 -50.578125 10.1875 -55.109375 C 8.269531 -55.109375 6.8125 -55.609375 5.8125 -56.609375 C 4.8125 -57.609375 4.15625 -58.78125 3.84375 -60.125 C 3.539062 -61.476562 3.539062 -62.65625 3.84375 -63.65625 C 4.15625 -64.65625 4.703125 -65.15625 5.484375 -65.15625 C 9.316406 -65.15625 12.320312 -66.222656 14.5 -68.359375 C 16.675781 -70.492188 18.195312 -72.734375 19.0625 -75.078125 C 20.632812 -78.910156 22.160156 -81.328125 23.640625 -82.328125 C 25.117188 -83.328125 26.679688 -83.828125 28.328125 -83.828125 C 30.765625 -83.828125 32.285156 -82.800781 32.890625 -80.75 C 33.503906 -78.707031 32.8125 -75.644531 30.8125 -71.5625 C 29.851562 -69.46875 29.332031 -67.875 29.25 -66.78125 C 29.164062 -65.695312 29.734375 -65.15625 30.953125 -65.15625 L 37.734375 -65.15625 C 38.609375 -65.15625 39.175781 -64.546875 39.4375 -63.328125 C 39.695312 -62.109375 39.671875 -60.710938 39.359375 -59.140625 C 39.054688 -57.578125 38.492188 -56.1875 37.671875 -54.96875 C 36.847656 -53.75 35.78125 -53.140625 34.46875 -53.140625 C 30.46875 -53.140625 27.507812 -52.988281 25.59375 -52.6875 C 23.675781 -52.382812 22.328125 -51.625 21.546875 -50.40625 C 20.765625 -49.1875 19.9375 -47.097656 19.0625 -44.140625 C 17.664062 -39.609375 17.859375 -35.992188 19.640625 -33.296875 C 21.429688 -30.597656 24.242188 -29.25 28.078125 -29.25 C 30.679688 -29.25 33.003906 -29.835938 35.046875 -31.015625 C 37.097656 -32.191406 38.78125 -33.78125 40.09375 -35.78125 C 40.78125 -36.820312 41.664062 -37.191406 42.75 -36.890625 C 43.84375 -36.585938 44.757812 -36 45.5 -35.125 C 46.238281 -34.25 46.394531 -33.378906 45.96875 -32.515625 C 45.175781 -31.035156 44.128906 -28.988281 42.828125 -26.375 C 41.523438 -23.757812 39.957031 -20.925781 38.125 -17.875 C 36.300781 -14.832031 34.171875 -11.960938 31.734375 -9.265625 C 29.296875 -6.566406 26.53125 -4.347656 23.4375 -2.609375 C 20.34375 -0.867188 16.925781 0 13.1875 0 Z M 13.1875 0 "/></g></g></g><g fill="#fefae0" fill-opacity="1"><g transform="translate(450.039584, 109.013115)"><g><path d="M 24.546875 0 C 19.328125 0 15.039062 -1.171875 11.6875 -3.515625 C 8.332031 -5.867188 5.847656 -8.984375 4.234375 -12.859375 C 2.628906 -16.734375 1.847656 -21 1.890625 -25.65625 C 1.929688 -30.3125 2.734375 -34.96875 4.296875 -39.625 C 5.867188 -44.28125 8.132812 -48.546875 11.09375 -52.421875 C 14.050781 -56.296875 17.640625 -59.40625 21.859375 -61.75 C 26.085938 -64.101562 30.859375 -65.28125 36.171875 -65.28125 C 40.265625 -65.28125 43.59375 -64.519531 46.15625 -63 C 48.726562 -61.476562 50.625 -59.453125 51.84375 -56.921875 C 53.0625 -54.398438 53.671875 -51.707031 53.671875 -48.84375 C 53.671875 -45.707031 52.796875 -42.570312 51.046875 -39.4375 C 49.304688 -36.300781 46.867188 -33.707031 43.734375 -31.65625 C 40.609375 -29.613281 36.910156 -28.59375 32.640625 -28.59375 C 30.816406 -28.59375 29.03125 -28.722656 27.28125 -28.984375 C 25.539062 -29.242188 23.929688 -29.8125 22.453125 -30.6875 C 22.023438 -30.945312 21.546875 -30.96875 21.015625 -30.75 C 20.492188 -30.53125 20.234375 -29.988281 20.234375 -29.125 C 20.234375 -26.851562 21.5625 -25.128906 24.21875 -23.953125 C 26.875 -22.785156 30.070312 -22.203125 33.8125 -22.203125 C 38.257812 -22.203125 42.851562 -23.332031 47.59375 -25.59375 C 52.34375 -27.851562 56.195312 -31.25 59.15625 -35.78125 C 59.851562 -36.820312 60.765625 -37.191406 61.890625 -36.890625 C 63.023438 -36.585938 63.960938 -36 64.703125 -35.125 C 65.441406 -34.25 65.550781 -33.378906 65.03125 -32.515625 C 59.28125 -21.890625 52.988281 -13.8125 46.15625 -8.28125 C 39.320312 -2.757812 32.117188 0 24.546875 0 Z M 29.25 -38.390625 C 31.769531 -38.390625 33.75 -39.191406 35.1875 -40.796875 C 36.625 -42.410156 37.34375 -44.046875 37.34375 -45.703125 C 37.34375 -47.179688 36.84375 -48.441406 35.84375 -49.484375 C 34.84375 -50.535156 33.34375 -51.0625 31.34375 -51.0625 C 28.8125 -51.0625 26.804688 -50.273438 25.328125 -48.703125 C 23.847656 -47.140625 23.109375 -45.488281 23.109375 -43.75 C 23.109375 -42.351562 23.609375 -41.109375 24.609375 -40.015625 C 25.609375 -38.929688 27.15625 -38.390625 29.25 -38.390625 Z M 29.25 -38.390625 "/></g></g></g><g fill="#fefae0" fill-opacity="1"><g transform="translate(506.187963, 109.013115)"><g><path d="M 15.28125 0 C 10.144531 0 6.378906 -1.78125 3.984375 -5.34375 C 1.585938 -8.914062 0.390625 -13.316406 0.390625 -18.546875 C 0.390625 -23.421875 1.082031 -28.554688 2.46875 -33.953125 C 3.863281 -39.347656 5.976562 -44.414062 8.8125 -49.15625 C 11.644531 -53.90625 15.171875 -57.78125 19.390625 -60.78125 C 23.609375 -63.78125 28.503906 -65.28125 34.078125 -65.28125 C 36.691406 -65.28125 38.71875 -64.972656 40.15625 -64.359375 C 41.59375 -63.753906 42.679688 -63.039062 43.421875 -62.21875 C 44.160156 -61.394531 44.789062 -60.65625 45.3125 -60 C 45.832031 -59.34375 46.53125 -59.015625 47.40625 -59.015625 C 48.09375 -59.015625 48.65625 -59.796875 49.09375 -61.359375 C 49.53125 -62.929688 50.179688 -65.265625 51.046875 -68.359375 C 51.921875 -71.453125 53.273438 -75.21875 55.109375 -79.65625 C 56.753906 -83.65625 58.382812 -86.675781 60 -88.71875 C 61.613281 -90.769531 63.160156 -92.144531 64.640625 -92.84375 C 66.117188 -93.539062 67.507812 -93.890625 68.8125 -93.890625 C 71.070312 -93.890625 72.570312 -92.773438 73.3125 -90.546875 C 74.050781 -88.328125 73.550781 -85.347656 71.8125 -81.609375 L 57.0625 -43.875 C 54.882812 -39.082031 54.078125 -35.425781 54.640625 -32.90625 C 55.210938 -30.382812 56.9375 -29.125 59.8125 -29.125 C 62.070312 -29.125 64.023438 -29.707031 65.671875 -30.875 C 67.328125 -32.050781 68.8125 -33.6875 70.125 -35.78125 C 70.820312 -36.820312 71.710938 -37.191406 72.796875 -36.890625 C 73.878906 -36.585938 74.789062 -36 75.53125 -35.125 C 76.28125 -34.25 76.4375 -33.378906 76 -32.515625 C 74.425781 -29.460938 72.75 -26.085938 70.96875 -22.390625 C 69.1875 -18.691406 67.207031 -15.144531 65.03125 -11.75 C 62.851562 -8.351562 60.367188 -5.546875 57.578125 -3.328125 C 54.796875 -1.109375 51.578125 0 47.921875 0 C 43.742188 0 40.648438 -1.828125 38.640625 -5.484375 C 36.640625 -9.140625 35.988281 -13.664062 36.6875 -19.0625 L 36.171875 -19.0625 C 33.472656 -13.75 30.316406 -9.242188 26.703125 -5.546875 C 23.085938 -1.847656 19.28125 0 15.28125 0 Z M 27.15625 -27.03125 C 29.332031 -27.03125 31.25 -27.679688 32.90625 -28.984375 C 34.5625 -30.296875 35.867188 -31.882812 36.828125 -33.75 C 37.785156 -35.625 38.265625 -37.472656 38.265625 -39.296875 C 38.265625 -41.210938 37.695312 -42.84375 36.5625 -44.1875 C 35.425781 -45.539062 33.597656 -46.21875 31.078125 -46.21875 C 28.984375 -46.21875 27.128906 -45.609375 25.515625 -44.390625 C 23.910156 -43.171875 22.648438 -41.625 21.734375 -39.75 C 20.828125 -37.882812 20.375 -35.992188 20.375 -34.078125 C 20.375 -32.160156 20.894531 -30.503906 21.9375 -29.109375 C 22.976562 -27.722656 24.71875 -27.03125 27.15625 -27.03125 Z M 27.15625 -27.03125 "/></g></g></g><g fill="#fefae0" fill-opacity="1"><g transform="translate(573.304831, 109.013115)"><g/></g></g><g fill="#fefae0" fill-opacity="1"><g transform="translate(620.312763, 109.013115)"><g><path d="M 23.25 1.5625 C 18.976562 1.5625 15.472656 0.410156 12.734375 -1.890625 C 9.992188 -4.203125 8.625 -7.226562 8.625 -10.96875 C 8.625 -13.75 9.382812 -16.25 10.90625 -18.46875 C 12.425781 -20.695312 14.40625 -22.984375 16.84375 -25.328125 C 19.28125 -27.679688 21.9375 -30.46875 24.8125 -33.6875 C 28.375 -37.695312 31.414062 -41.8125 33.9375 -46.03125 C 36.46875 -50.25 38.820312 -54.816406 41 -59.734375 C 43.175781 -64.648438 45.484375 -70.15625 47.921875 -76.25 C 44.085938 -77.125 40.539062 -77.253906 37.28125 -76.640625 C 34.019531 -76.035156 31.382812 -74.796875 29.375 -72.921875 C 27.375 -71.054688 26.375 -68.644531 26.375 -65.6875 C 26.375 -63.769531 26.851562 -62.175781 27.8125 -60.90625 C 28.769531 -59.644531 29.945312 -59.015625 31.34375 -59.015625 C 31.945312 -57.628906 31.988281 -55.957031 31.46875 -54 C 30.945312 -52.039062 29.921875 -50.164062 28.390625 -48.375 C 26.867188 -46.59375 24.910156 -45.09375 22.515625 -43.875 C 20.128906 -42.65625 17.367188 -42.046875 14.234375 -42.046875 C 10.660156 -42.046875 7.65625 -42.847656 5.21875 -44.453125 C 2.78125 -46.066406 0.953125 -48.15625 -0.265625 -50.71875 C -1.484375 -53.289062 -2.09375 -56.054688 -2.09375 -59.015625 C -2.09375 -65.898438 -0.175781 -72.234375 3.65625 -78.015625 C 7.488281 -83.804688 12.953125 -88.441406 20.046875 -91.921875 C 27.140625 -95.410156 35.519531 -97.15625 45.1875 -97.15625 C 51.539062 -97.15625 56.128906 -96.328125 58.953125 -94.671875 C 61.785156 -93.015625 63.375 -90.617188 63.71875 -87.484375 C 64.070312 -84.347656 63.679688 -80.5625 62.546875 -76.125 C 61.585938 -72.207031 60.429688 -67.722656 59.078125 -62.671875 C 57.734375 -57.628906 56.273438 -52.40625 54.703125 -47 C 53.140625 -41.601562 51.597656 -36.398438 50.078125 -31.390625 C 48.554688 -26.390625 47.140625 -22.019531 45.828125 -18.28125 C 43.742188 -11.84375 40.742188 -6.925781 36.828125 -3.53125 C 32.910156 -0.132812 28.382812 1.5625 23.25 1.5625 Z M 23.25 1.5625 "/></g></g></g><g fill="#fefae0" fill-opacity="1"><g transform="translate(675.808246, 109.013115)"><g><path d="M 13.1875 0 C 8.3125 0 4.71875 -1.5 2.40625 -4.5 C 0.101562 -7.507812 -1.046875 -11.425781 -1.046875 -16.25 C -1.046875 -21.082031 -0.0859375 -26.285156 1.828125 -31.859375 C 2.960938 -35.171875 4.222656 -38.738281 5.609375 -42.5625 C 7.003906 -46.394531 8.53125 -50.578125 10.1875 -55.109375 C 8.269531 -55.109375 6.8125 -55.609375 5.8125 -56.609375 C 4.8125 -57.609375 4.15625 -58.78125 3.84375 -60.125 C 3.539062 -61.476562 3.539062 -62.65625 3.84375 -63.65625 C 4.15625 -64.65625 4.703125 -65.15625 5.484375 -65.15625 C 9.316406 -65.15625 12.320312 -66.222656 14.5 -68.359375 C 16.675781 -70.492188 18.195312 -72.734375 19.0625 -75.078125 C 20.632812 -78.910156 22.160156 -81.328125 23.640625 -82.328125 C 25.117188 -83.328125 26.679688 -83.828125 28.328125 -83.828125 C 30.765625 -83.828125 32.285156 -82.800781 32.890625 -80.75 C 33.503906 -78.707031 32.8125 -75.644531 30.8125 -71.5625 C 29.851562 -69.46875 29.332031 -67.875 29.25 -66.78125 C 29.164062 -65.695312 29.734375 -65.15625 30.953125 -65.15625 L 37.734375 -65.15625 C 38.609375 -65.15625 39.175781 -64.546875 39.4375 -63.328125 C 39.695312 -62.109375 39.671875 -60.710938 39.359375 -59.140625 C 39.054688 -57.578125 38.492188 -56.1875 37.671875 -54.96875 C 36.847656 -53.75 35.78125 -53.140625 34.46875 -53.140625 C 30.46875 -53.140625 27.507812 -52.988281 25.59375 -52.6875 C 23.675781 -52.382812 22.328125 -51.625 21.546875 -50.40625 C 20.765625 -49.1875 19.9375 -47.097656 19.0625 -44.140625 C 17.664062 -39.609375 17.859375 -35.992188 19.640625 -33.296875 C 21.429688 -30.597656 24.242188 -29.25 28.078125 -29.25 C 30.679688 -29.25 33.003906 -29.835938 35.046875 -31.015625 C 37.097656 -32.191406 38.78125 -33.78125 40.09375 -35.78125 C 40.78125 -36.820312 41.664062 -37.191406 42.75 -36.890625 C 43.84375 -36.585938 44.757812 -36 45.5 -35.125 C 46.238281 -34.25 46.394531 -33.378906 45.96875 -32.515625 C 45.175781 -31.035156 44.128906 -28.988281 42.828125 -26.375 C 41.523438 -23.757812 39.957031 -20.925781 38.125 -17.875 C 36.300781 -14.832031 34.171875 -11.960938 31.734375 -9.265625 C 29.296875 -6.566406 26.53125 -4.347656 23.4375 -2.609375 C 20.34375 -0.867188 16.925781 0 13.1875 0 Z M 13.1875 0 "/></g></g></g><g fill="#fefae0" fill-opacity="1"><g transform="translate(712.892285, 109.013115)"><g><path d="M 26.25 -70.640625 C 23.113281 -70.640625 20.410156 -71.3125 18.140625 -72.65625 C 15.878906 -74.007812 14.75 -76.425781 14.75 -79.90625 C 14.75 -84.519531 16.03125 -87.675781 18.59375 -89.375 C 21.164062 -91.070312 24.238281 -91.921875 27.8125 -91.921875 C 31.125 -91.921875 33.929688 -91.179688 36.234375 -89.703125 C 38.546875 -88.222656 39.523438 -85.4375 39.171875 -81.34375 C 38.828125 -77.34375 37.4375 -74.554688 35 -72.984375 C 32.5625 -71.421875 29.644531 -70.640625 26.25 -70.640625 Z M 11.75 0 C 7.394531 0 4.300781 -1.585938 2.46875 -4.765625 C 0.644531 -7.941406 -0.265625 -11.796875 -0.265625 -16.328125 C -0.265625 -19.367188 0.0351562 -22.585938 0.640625 -25.984375 C 1.253906 -29.378906 2.039062 -32.644531 3 -35.78125 C 6.050781 -45.269531 9.007812 -52.554688 11.875 -57.640625 C 14.75 -62.734375 18.0625 -65.28125 21.8125 -65.28125 C 24.769531 -65.28125 26.25 -63.320312 26.25 -59.40625 C 26.25 -56.800781 25.75 -54.125 24.75 -51.375 C 23.75 -48.632812 22.769531 -45.9375 21.8125 -43.28125 C 20.851562 -40.625 20.375 -38.125 20.375 -35.78125 C 20.375 -33.601562 20.914062 -31.96875 22 -30.875 C 23.09375 -29.789062 24.507812 -29.25 26.25 -29.25 C 28.25 -29.25 29.921875 -29.859375 31.265625 -31.078125 C 32.617188 -32.296875 33.945312 -33.863281 35.25 -35.78125 C 35.945312 -36.820312 36.835938 -37.210938 37.921875 -36.953125 C 39.015625 -36.691406 39.929688 -36.101562 40.671875 -35.1875 C 41.410156 -34.269531 41.5625 -33.421875 41.125 -32.640625 C 40.257812 -31.253906 39.238281 -29.253906 38.0625 -26.640625 C 36.882812 -24.023438 35.46875 -21.191406 33.8125 -18.140625 C 32.164062 -15.097656 30.273438 -12.207031 28.140625 -9.46875 C 26.003906 -6.726562 23.585938 -4.460938 20.890625 -2.671875 C 18.191406 -0.890625 15.144531 0 11.75 0 Z M 11.75 0 "/></g></g></g><g fill="#fefae0" fill-opacity="1"><g transform="translate(745.014353, 109.013115)"><g><path d="M 8.21875 0 C 5.175781 0 2.828125 -0.910156 1.171875 -2.734375 C -0.484375 -4.566406 -1.3125 -6.832031 -1.3125 -9.53125 C -1.3125 -12.582031 -0.960938 -16.390625 -0.265625 -20.953125 C 0.429688 -25.523438 1.519531 -30.46875 3 -35.78125 C 4.476562 -40.914062 6.109375 -45.722656 7.890625 -50.203125 C 9.679688 -54.691406 11.507812 -58.328125 13.375 -61.109375 C 15.25 -63.890625 17.015625 -65.28125 18.671875 -65.28125 C 20.410156 -65.28125 21.5625 -64.78125 22.125 -63.78125 C 22.695312 -62.78125 22.984375 -61.628906 22.984375 -60.328125 C 22.984375 -57.804688 23.59375 -56.238281 24.8125 -55.625 C 26.03125 -55.019531 27.679688 -55.757812 29.765625 -57.84375 C 32.203125 -60.195312 34.726562 -62.023438 37.34375 -63.328125 C 39.957031 -64.628906 42.703125 -65.28125 45.578125 -65.28125 C 49.578125 -65.28125 52.535156 -64.101562 54.453125 -61.75 C 56.367188 -59.40625 57.328125 -56.582031 57.328125 -53.28125 C 57.328125 -51.007812 56.976562 -48.9375 56.28125 -47.0625 C 55.582031 -45.195312 54.882812 -43.367188 54.1875 -41.578125 C 53.488281 -39.796875 53.140625 -37.816406 53.140625 -35.640625 C 53.140625 -31.296875 55.226562 -29.125 59.40625 -29.125 C 61.414062 -29.125 63.09375 -29.753906 64.4375 -31.015625 C 65.789062 -32.273438 67.117188 -33.863281 68.421875 -35.78125 C 69.117188 -36.820312 70.03125 -37.191406 71.15625 -36.890625 C 72.289062 -36.585938 73.226562 -36 73.96875 -35.125 C 74.707031 -34.25 74.816406 -33.378906 74.296875 -32.515625 C 73.429688 -31.117188 72.390625 -29.09375 71.171875 -26.4375 C 69.953125 -23.78125 68.492188 -20.953125 66.796875 -17.953125 C 65.097656 -14.953125 63.113281 -12.078125 60.84375 -9.328125 C 58.582031 -6.585938 56.035156 -4.347656 53.203125 -2.609375 C 50.378906 -0.867188 47.179688 0 43.609375 0 C 39.515625 0 36.640625 -1.347656 34.984375 -4.046875 C 33.335938 -6.742188 32.515625 -9.921875 32.515625 -13.578125 C 32.515625 -16.890625 32.96875 -20.046875 33.875 -23.046875 C 34.789062 -26.046875 35.707031 -28.785156 36.625 -31.265625 C 37.539062 -33.753906 38 -35.867188 38 -37.609375 C 38 -39.085938 37.539062 -40.21875 36.625 -41 C 35.707031 -41.78125 34.507812 -42.171875 33.03125 -42.171875 C 30.507812 -42.171875 28.179688 -41.101562 26.046875 -38.96875 C 23.910156 -36.84375 22.191406 -34.082031 20.890625 -30.6875 C 19.585938 -27.289062 18.9375 -23.632812 18.9375 -19.71875 L 18.9375 -13.84375 C 18.9375 -11.664062 18.671875 -9.507812 18.140625 -7.375 C 17.617188 -5.238281 16.597656 -3.472656 15.078125 -2.078125 C 13.554688 -0.691406 11.269531 0 8.21875 0 Z M 8.21875 0 "/></g></g></g><g fill="#fefae0" fill-opacity="1"><g transform="translate(810.43373, 109.013115)"><g><path d="M 24.546875 0 C 19.328125 0 15.039062 -1.171875 11.6875 -3.515625 C 8.332031 -5.867188 5.847656 -8.984375 4.234375 -12.859375 C 2.628906 -16.734375 1.847656 -21 1.890625 -25.65625 C 1.929688 -30.3125 2.734375 -34.96875 4.296875 -39.625 C 5.867188 -44.28125 8.132812 -48.546875 11.09375 -52.421875 C 14.050781 -56.296875 17.640625 -59.40625 21.859375 -61.75 C 26.085938 -64.101562 30.859375 -65.28125 36.171875 -65.28125 C 40.265625 -65.28125 43.59375 -64.519531 46.15625 -63 C 48.726562 -61.476562 50.625 -59.453125 51.84375 -56.921875 C 53.0625 -54.398438 53.671875 -51.707031 53.671875 -48.84375 C 53.671875 -45.707031 52.796875 -42.570312 51.046875 -39.4375 C 49.304688 -36.300781 46.867188 -33.707031 43.734375 -31.65625 C 40.609375 -29.613281 36.910156 -28.59375 32.640625 -28.59375 C 30.816406 -28.59375 29.03125 -28.722656 27.28125 -28.984375 C 25.539062 -29.242188 23.929688 -29.8125 22.453125 -30.6875 C 22.023438 -30.945312 21.546875 -30.96875 21.015625 -30.75 C 20.492188 -30.53125 20.234375 -29.988281 20.234375 -29.125 C 20.234375 -26.851562 21.5625 -25.128906 24.21875 -23.953125 C 26.875 -22.785156 30.070312 -22.203125 33.8125 -22.203125 C 38.257812 -22.203125 42.851562 -23.332031 47.59375 -25.59375 C 52.34375 -27.851562 56.195312 -31.25 59.15625 -35.78125 C 59.851562 -36.820312 60.765625 -37.191406 61.890625 -36.890625 C 63.023438 -36.585938 63.960938 -36 64.703125 -35.125 C 65.441406 -34.25 65.550781 -33.378906 65.03125 -32.515625 C 59.28125 -21.890625 52.988281 -13.8125 46.15625 -8.28125 C 39.320312 -2.757812 32.117188 0 24.546875 0 Z M 29.25 -38.390625 C 31.769531 -38.390625 33.75 -39.191406 35.1875 -40.796875 C 36.625 -42.410156 37.34375 -44.046875 37.34375 -45.703125 C 37.34375 -47.179688 36.84375 -48.441406 35.84375 -49.484375 C 34.84375 -50.535156 33.34375 -51.0625 31.34375 -51.0625 C 28.8125 -51.0625 26.804688 -50.273438 25.328125 -48.703125 C 23.847656 -47.140625 23.109375 -45.488281 23.109375 -43.75 C 23.109375 -42.351562 23.609375 -41.109375 24.609375 -40.015625 C 25.609375 -38.929688 27.15625 -38.390625 29.25 -38.390625 Z M 29.25 -38.390625 "/></g></g></g><g fill="#fefae0" fill-opacity="1"><g transform="translate(866.582109, 109.013115)"><g><path d="M 54.578125 -35.78125 C 55.273438 -36.820312 56.1875 -37.191406 57.3125 -36.890625 C 58.445312 -36.585938 59.382812 -36 60.125 -35.125 C 60.863281 -34.25 60.972656 -33.378906 60.453125 -32.515625 C 59.585938 -31.117188 58.546875 -29.09375 57.328125 -26.4375 C 56.109375 -23.78125 54.648438 -20.953125 52.953125 -17.953125 C 51.253906 -14.953125 49.269531 -12.078125 47 -9.328125 C 44.738281 -6.585938 42.191406 -4.347656 39.359375 -2.609375 C 36.535156 -0.867188 33.335938 0 29.765625 0 C 26.203125 0 23.375 -0.671875 21.28125 -2.015625 C 19.195312 -3.367188 17.695312 -5.113281 16.78125 -7.25 C 15.863281 -9.382812 15.40625 -11.535156 15.40625 -13.703125 C 15.40625 -16.753906 15.863281 -19.757812 16.78125 -22.71875 C 17.695312 -25.675781 18.765625 -28.503906 19.984375 -31.203125 C 21.203125 -33.898438 22.265625 -36.378906 23.171875 -38.640625 C 24.085938 -40.910156 24.546875 -42.828125 24.546875 -44.390625 C 24.546875 -45.085938 24.046875 -46.109375 23.046875 -47.453125 C 22.046875 -48.804688 20.238281 -49.960938 17.625 -50.921875 C 16.84375 -49.179688 15.90625 -47.15625 14.8125 -44.84375 C 13.726562 -42.539062 12.640625 -40.28125 11.546875 -38.0625 C 10.460938 -35.84375 9.570312 -33.992188 8.875 -32.515625 C 8.351562 -31.378906 7.503906 -30.960938 6.328125 -31.265625 C 5.148438 -31.578125 4.171875 -32.210938 3.390625 -33.171875 C 2.609375 -34.128906 2.476562 -35 3 -35.78125 C 4.21875 -37.519531 5.566406 -40.0625 7.046875 -43.40625 C 8.523438 -46.757812 9.832031 -49.921875 10.96875 -52.890625 C 9.664062 -53.316406 8.617188 -54.050781 7.828125 -55.09375 C 7.046875 -56.144531 6.65625 -57.847656 6.65625 -60.203125 C 6.65625 -62.023438 7.132812 -63.828125 8.09375 -65.609375 C 9.050781 -67.398438 10.398438 -68.90625 12.140625 -70.125 C 13.878906 -71.34375 15.925781 -71.953125 18.28125 -71.953125 C 22.375 -71.953125 26.3125 -71.164062 30.09375 -69.59375 C 33.882812 -68.03125 37 -66.050781 39.4375 -63.65625 C 41.875 -61.257812 43.09375 -58.890625 43.09375 -56.546875 C 43.09375 -54.109375 42.632812 -51.800781 41.71875 -49.625 C 40.800781 -47.445312 39.863281 -45.222656 38.90625 -42.953125 C 37.945312 -40.691406 37.46875 -38.210938 37.46875 -35.515625 C 37.46875 -33.691406 38.078125 -32.171875 39.296875 -30.953125 C 40.515625 -29.734375 42.609375 -29.125 45.578125 -29.125 C 47.578125 -29.125 49.25 -29.753906 50.59375 -31.015625 C 51.945312 -32.273438 53.273438 -33.863281 54.578125 -35.78125 Z M 54.578125 -35.78125 "/></g></g></g><g fill="#fefae0" fill-opacity="1"><g transform="translate(918.160219, 109.013115)"><g><path d="M 13.84375 0 C 9.40625 0 6.050781 -1.828125 3.78125 -5.484375 C 1.519531 -9.140625 0.390625 -13.882812 0.390625 -19.71875 C 0.390625 -23.375 0.847656 -27.269531 1.765625 -31.40625 C 2.679688 -35.539062 4.03125 -39.609375 5.8125 -43.609375 C 7.59375 -47.617188 9.832031 -51.253906 12.53125 -54.515625 C 15.226562 -57.773438 18.363281 -60.382812 21.9375 -62.34375 C 25.507812 -64.300781 29.554688 -65.28125 34.078125 -65.28125 C 36.691406 -65.28125 38.71875 -65.039062 40.15625 -64.5625 C 41.59375 -64.09375 42.679688 -63.507812 43.421875 -62.8125 C 44.160156 -62.113281 44.789062 -61.523438 45.3125 -61.046875 C 45.832031 -60.566406 46.53125 -60.328125 47.40625 -60.328125 C 48.882812 -60.328125 50.078125 -60.738281 50.984375 -61.5625 C 51.898438 -62.394531 52.921875 -63.222656 54.046875 -64.046875 C 55.179688 -64.867188 56.753906 -65.28125 58.765625 -65.28125 C 60.503906 -65.28125 61.695312 -64.84375 62.34375 -63.96875 C 63 -63.101562 63.328125 -61.929688 63.328125 -60.453125 C 63.328125 -58.015625 62.648438 -55.597656 61.296875 -53.203125 C 59.953125 -50.816406 58.539062 -47.707031 57.0625 -43.875 C 54.882812 -39.082031 54.078125 -35.425781 54.640625 -32.90625 C 55.210938 -30.382812 56.9375 -29.125 59.8125 -29.125 C 62.070312 -29.125 64.023438 -29.707031 65.671875 -30.875 C 67.328125 -32.050781 68.8125 -33.6875 70.125 -35.78125 C 70.820312 -36.820312 71.710938 -37.191406 72.796875 -36.890625 C 73.878906 -36.585938 74.789062 -36 75.53125 -35.125 C 76.28125 -34.25 76.4375 -33.378906 76 -32.515625 C 74.425781 -29.460938 72.75 -26.085938 70.96875 -22.390625 C 69.1875 -18.691406 67.207031 -15.144531 65.03125 -11.75 C 62.851562 -8.351562 60.367188 -5.546875 57.578125 -3.328125 C 54.796875 -1.109375 51.578125 0 47.921875 0 C 43.390625 0 40.1875 -1.828125 38.3125 -5.484375 C 36.445312 -9.140625 35.90625 -13.664062 36.6875 -19.0625 L 36.171875 -19.0625 C 33.554688 -13.75 30.332031 -9.242188 26.5 -5.546875 C 22.675781 -1.847656 18.457031 0 13.84375 0 Z M 26.90625 -27.03125 C 29.164062 -27.03125 31.144531 -27.679688 32.84375 -28.984375 C 34.539062 -30.296875 35.867188 -31.882812 36.828125 -33.75 C 37.785156 -35.625 38.265625 -37.472656 38.265625 -39.296875 C 38.265625 -41.472656 37.65625 -43.171875 36.4375 -44.390625 C 35.21875 -45.609375 33.5625 -46.21875 31.46875 -46.21875 C 29.207031 -46.21875 27.25 -45.609375 25.59375 -44.390625 C 23.9375 -43.171875 22.648438 -41.625 21.734375 -39.75 C 20.828125 -37.882812 20.375 -35.992188 20.375 -34.078125 C 20.375 -31.898438 20.957031 -30.179688 22.125 -28.921875 C 23.300781 -27.660156 24.894531 -27.03125 26.90625 -27.03125 Z M 26.90625 -27.03125 "/></g></g></g><g fill="#fefae0" fill-opacity="1"><g transform="translate(985.277133, 109.013115)"><g><path d="M 54.578125 -35.78125 C 55.273438 -36.820312 56.1875 -37.191406 57.3125 -36.890625 C 58.445312 -36.585938 59.382812 -36 60.125 -35.125 C 60.863281 -34.25 60.972656 -33.378906 60.453125 -32.515625 C 59.585938 -31.117188 58.546875 -29.09375 57.328125 -26.4375 C 56.109375 -23.78125 54.648438 -20.953125 52.953125 -17.953125 C 51.253906 -14.953125 49.269531 -12.078125 47 -9.328125 C 44.738281 -6.585938 42.191406 -4.347656 39.359375 -2.609375 C 36.535156 -0.867188 33.335938 0 29.765625 0 C 26.203125 0 23.375 -0.671875 21.28125 -2.015625 C 19.195312 -3.367188 17.695312 -5.113281 16.78125 -7.25 C 15.863281 -9.382812 15.40625 -11.535156 15.40625 -13.703125 C 15.40625 -16.753906 15.863281 -19.757812 16.78125 -22.71875 C 17.695312 -25.675781 18.765625 -28.503906 19.984375 -31.203125 C 21.203125 -33.898438 22.265625 -36.378906 23.171875 -38.640625 C 24.085938 -40.910156 24.546875 -42.828125 24.546875 -44.390625 C 24.546875 -45.085938 24.046875 -46.109375 23.046875 -47.453125 C 22.046875 -48.804688 20.238281 -49.960938 17.625 -50.921875 C 16.84375 -49.179688 15.90625 -47.15625 14.8125 -44.84375 C 13.726562 -42.539062 12.640625 -40.28125 11.546875 -38.0625 C 10.460938 -35.84375 9.570312 -33.992188 8.875 -32.515625 C 8.351562 -31.378906 7.503906 -30.960938 6.328125 -31.265625 C 5.148438 -31.578125 4.171875 -32.210938 3.390625 -33.171875 C 2.609375 -34.128906 2.476562 -35 3 -35.78125 C 4.21875 -37.519531 5.566406 -40.0625 7.046875 -43.40625 C 8.523438 -46.757812 9.832031 -49.921875 10.96875 -52.890625 C 9.664062 -53.316406 8.617188 -54.050781 7.828125 -55.09375 C 7.046875 -56.144531 6.65625 -57.847656 6.65625 -60.203125 C 6.65625 -62.023438 7.132812 -63.828125 8.09375 -65.609375 C 9.050781 -67.398438 10.398438 -68.90625 12.140625 -70.125 C 13.878906 -71.34375 15.925781 -71.953125 18.28125 -71.953125 C 22.375 -71.953125 26.3125 -71.164062 30.09375 -69.59375 C 33.882812 -68.03125 37 -66.050781 39.4375 -63.65625 C 41.875 -61.257812 43.09375 -58.890625 43.09375 -56.546875 C 43.09375 -54.109375 42.632812 -51.800781 41.71875 -49.625 C 40.800781 -47.445312 39.863281 -45.222656 38.90625 -42.953125 C 37.945312 -40.691406 37.46875 -38.210938 37.46875 -35.515625 C 37.46875 -33.691406 38.078125 -32.171875 39.296875 -30.953125 C 40.515625 -29.734375 42.609375 -29.125 45.578125 -29.125 C 47.578125 -29.125 49.25 -29.753906 50.59375 -31.015625 C 51.945312 -32.273438 53.273438 -33.863281 54.578125 -35.78125 Z M 54.578125 -35.78125 "/></g></g></g><g fill="#fefae0" fill-opacity="1"><g transform="translate(1036.855242, 109.013115)"><g><path d="M 67.90625 -35.78125 C 68.425781 -36.5625 69.25 -36.84375 70.375 -36.625 C 71.507812 -36.40625 72.488281 -35.925781 73.3125 -35.1875 C 74.144531 -34.445312 74.300781 -33.554688 73.78125 -32.515625 C 71.863281 -28.503906 70.007812 -24.582031 68.21875 -20.75 C 66.4375 -16.925781 64.546875 -13.445312 62.546875 -10.3125 C 60.546875 -7.175781 58.328125 -4.671875 55.890625 -2.796875 C 53.453125 -0.929688 50.664062 0 47.53125 0 C 45.613281 0 44.085938 -0.957031 42.953125 -2.875 C 40.171875 6.09375 37.253906 13.273438 34.203125 18.671875 C 31.160156 24.066406 27.765625 27.984375 24.015625 30.421875 C 20.273438 32.859375 15.96875 34.078125 11.09375 34.078125 C 4.21875 34.078125 -1.109375 32.269531 -4.890625 28.65625 C -8.679688 25.050781 -10.578125 20.113281 -10.578125 13.84375 C -10.578125 10.53125 -10.097656 7.675781 -9.140625 5.28125 C -8.179688 2.894531 -7.09375 1.003906 -5.875 -0.390625 C -4.65625 -1.785156 -3.566406 -2.675781 -2.609375 -3.0625 C -1.648438 -3.457031 -1.128906 -3.304688 -1.046875 -2.609375 C -0.691406 0.609375 0.65625 3.257812 3 5.34375 C 5.351562 7.4375 8.53125 8.441406 12.53125 8.359375 C 16.363281 8.265625 19.910156 7.148438 23.171875 5.015625 C 26.441406 2.890625 29.140625 0.046875 31.265625 -3.515625 C 33.398438 -7.085938 34.6875 -10.960938 35.125 -15.140625 C 35.300781 -16.617188 34.910156 -17.445312 33.953125 -17.625 C 32.992188 -17.800781 32.164062 -17.0625 31.46875 -15.40625 C 29.726562 -11.050781 27.289062 -7.613281 24.15625 -5.09375 C 21.019531 -2.570312 17.320312 -1.3125 13.0625 -1.3125 C 9.570312 -1.3125 6.539062 -2.460938 3.96875 -4.765625 C 1.40625 -7.066406 0.125 -10.703125 0.125 -15.671875 C 0.125 -17.671875 0.273438 -20.453125 0.578125 -24.015625 C 0.890625 -27.585938 1.695312 -31.507812 3 -35.78125 C 6.050781 -45.351562 9.117188 -52.660156 12.203125 -57.703125 C 15.296875 -62.753906 18.671875 -65.28125 22.328125 -65.28125 C 25.023438 -65.28125 26.375 -63.539062 26.375 -60.0625 C 26.375 -57.28125 25.875 -54.453125 24.875 -51.578125 C 23.875 -48.703125 22.894531 -45.894531 21.9375 -43.15625 C 20.976562 -40.414062 20.5 -37.738281 20.5 -35.125 C 20.5 -33.300781 20.867188 -31.863281 21.609375 -30.8125 C 22.347656 -29.769531 23.804688 -29.25 25.984375 -29.25 C 28.859375 -29.25 31.164062 -30.097656 32.90625 -31.796875 C 34.644531 -33.492188 36.035156 -35.863281 37.078125 -38.90625 C 39.773438 -47.4375 42.515625 -53.960938 45.296875 -58.484375 C 48.085938 -63.015625 51.140625 -65.28125 54.453125 -65.28125 C 56.367188 -65.28125 57.828125 -64.84375 58.828125 -63.96875 C 59.828125 -63.101562 60.328125 -61.628906 60.328125 -59.546875 C 60.328125 -56.847656 59.476562 -53.601562 57.78125 -49.8125 C 56.082031 -46.03125 54.101562 -40.832031 51.84375 -34.21875 C 50.789062 -30.5625 50.722656 -28.015625 51.640625 -26.578125 C 52.554688 -25.140625 53.753906 -24.421875 55.234375 -24.421875 C 57.234375 -24.421875 59.363281 -25.640625 61.625 -28.078125 C 63.894531 -30.515625 65.988281 -33.082031 67.90625 -35.78125 Z M 67.90625 -35.78125 "/></g></g></g></svg>