<svg xmlns="http://www.w3.org/2000/svg" xmlns:xlink="http://www.w3.org/1999/xlink" width="1500" zoomAndPan="magnify" viewBox="0 0 1125 172.499995" height="230" preserveAspectRatio="xMidYMid meet" version="1.0"><defs><g/><clipPath id="6941b6ec3f"><path d="M 1.625 0 L 1123.375 0 L 1123.375 172 L 1.625 172 Z M 1.625 0 " clip-rule="nonzero"/></clipPath></defs><g clip-path="url(#6941b6ec3f)"><path stroke-linecap="butt" transform="matrix(0.807337, 0, 0, 0.807337, -33.888324, 56.685577)" fill="none" stroke-linejoin="miter" d="M 94.520882 114.213719 C 86.943887 114.213719 80.828101 112.607357 76.1832 109.389796 C 71.562492 106.206103 68.1901 102.083754 66.056349 97.022747 C 63.888729 91.927872 62.809757 86.702358 62.809757 81.355884 C 62.809757 76.004571 63.888729 70.89518 66.056349 66.022873 C 68.1901 61.121535 71.214124 57.1395 75.128421 54.081607 C 79.047556 50.994683 83.615042 49.451222 88.835717 49.451222 C 90.780769 49.451222 91.753295 50.23021 91.753295 51.793026 C 91.753295 56.123428 93.345141 59.621619 96.528834 62.297275 C 99.741557 64.972932 103.626823 66.308341 108.179793 66.308341 C 113.531106 66.308341 119.196917 63.889122 125.182065 59.050683 C 131.201083 54.212245 137.074947 45.469187 142.808496 32.831186 C 144.526142 28.404015 146.263141 23.817175 148.014656 19.075506 C 149.766171 14.299967 151.498332 9.824412 153.220816 5.653678 C 154.493325 2.247417 156.210971 -0.171802 158.378591 -1.60398 C 160.541373 -3.040996 163.057361 -3.757085 165.926555 -3.757085 C 170.097289 -3.757085 172.835845 -2.799074 174.137385 -0.887891 C 175.443763 0.989423 175.574401 3.553796 174.519621 6.800388 C 172.835845 11.638826 171.495597 15.732145 170.508556 19.075506 C 169.521514 22.384998 168.902194 25.220322 168.645757 27.576642 C 168.519958 29.899092 169.139278 31.365139 170.508556 31.969944 C 171.877834 32.54088 173.740633 32.831186 176.096952 32.831186 C 180.141887 32.831186 183.915869 31.761891 187.418898 29.62814 C 190.950958 27.465358 193.786283 24.518749 195.920034 20.793151 C 198.082816 17.067554 199.166626 12.930689 199.166626 8.377719 C 199.166626 0.413649 195.90068 -5.189263 189.373627 -8.435855 C 182.846574 -11.716316 174.568006 -13.356546 164.537923 -13.356546 C 155.940018 -13.356546 148.696876 -12.084037 142.808496 -9.53418 C 136.949148 -6.989162 132.492946 -3.757085 129.435053 0.16205 C 126.37716 4.076347 124.848213 8.121281 124.848213 12.292015 C 124.848213 14.904772 125.564302 17.101423 126.99648 18.881968 C 128.433496 20.633483 130.185011 21.50924 132.251024 21.50924 C 133.175166 23.580092 133.238065 26.081564 132.444561 29.00882 C 131.680088 31.936075 130.151142 34.742369 127.857722 37.413187 C 125.564302 40.088843 122.622532 42.348394 119.022733 44.196678 C 115.456804 46.011092 111.334455 46.920718 106.650847 46.920718 C 101.304372 46.920718 96.799786 45.643371 93.137088 43.098352 C 89.474391 40.553334 86.735834 37.190619 84.92142 33.019885 C 83.107006 28.849151 82.197379 24.42198 82.197379 19.74321 C 82.197379 12.83392 84.190816 5.890761 88.168012 -1.081428 C 92.150047 -8.087487 97.849727 -14.483903 105.267053 -20.280352 C 112.684379 -26.076801 121.683875 -30.72654 132.251024 -34.224731 C 142.823012 -37.761629 154.764277 -39.527659 168.074821 -39.527659 C 189.470396 -39.527659 205.311443 -35.773031 215.597963 -28.258937 C 225.913513 -20.773872 231.071289 -10.458322 231.071289 2.692554 C 231.071289 13.51614 228.298863 22.71885 222.758852 30.300683 C 217.21884 37.843808 209.607976 42.416132 199.931099 44.007979 C 197.192543 44.390215 195.358775 44.849867 194.439472 45.391772 C 193.544361 45.899808 193.099224 46.475582 193.099224 47.109417 C 193.099224 47.90776 193.45243 48.52708 194.149166 48.972216 C 194.884608 49.417353 195.87165 50.133441 197.11029 51.120483 C 198.353769 52.107524 199.626278 53.844524 200.932656 56.326643 C 202.364834 58.939399 204.087318 61.121535 206.090431 62.87305 C 208.127414 64.624564 211.044992 65.500322 214.83349 65.500322 C 219.255822 65.500322 222.870136 64.305227 225.671591 61.915039 C 228.477886 59.49582 231.182573 56.326643 233.795329 52.412346 C 234.845271 50.84953 236.180679 50.264079 237.806395 50.646316 C 239.427272 51.028553 240.767519 51.90431 241.81746 53.273588 C 242.867401 54.642866 243.123839 55.978275 242.581933 57.284653 C 240.128845 63.144002 237.104821 68.983997 233.505023 74.814315 C 229.910063 80.605926 225.961898 85.86047 221.660526 90.573109 C 217.363993 95.251879 212.762638 98.99683 207.856461 101.798286 C 202.988992 104.599742 198.005401 105.998051 192.910525 105.998051 C 187.433413 105.998051 182.73529 104.043321 178.820993 100.124186 C 174.901858 96.20989 172.627792 89.823151 171.989118 80.973647 C 171.737519 78.235091 171.495597 75.148168 171.273029 71.708038 C 171.08433 68.238878 170.764993 64.972932 170.319857 61.915039 C 169.87472 58.828115 168.998963 56.278258 167.692585 54.275145 C 166.386206 52.238162 164.557277 51.217252 162.200957 51.217252 C 160.763941 51.217252 159.684969 51.614004 158.949527 52.412346 C 158.252792 53.176819 157.628633 54.275145 157.086728 55.707322 C 153.046632 66.787346 147.888857 76.740014 141.613402 85.560487 C 135.371817 94.347091 128.302858 101.319281 120.406527 106.477056 C 112.544065 111.634831 103.912291 114.213719 94.520882 114.213719 Z M 266.067713 105.998051 C 258.234281 105.998051 251.803997 104.246536 246.772021 100.748345 C 241.773914 97.211447 238.062832 92.547192 235.643613 86.750743 C 233.224394 80.925263 232.048653 74.524009 232.111553 67.551819 C 232.174453 60.57963 233.384062 53.60744 235.740382 46.630412 C 238.096701 39.658222 241.488446 33.276322 245.915617 27.479873 C 250.33795 21.654393 255.718294 16.990139 262.056648 13.487109 C 268.395002 9.950211 275.541375 8.184181 283.500606 8.184181 C 289.616393 8.184181 294.599984 9.330891 298.451381 11.624311 C 302.302778 13.883861 305.138103 16.907885 306.952517 20.696383 C 308.766932 24.489718 309.676558 28.529814 309.676558 32.831186 C 309.676558 37.543825 308.37018 42.23711 305.757423 46.920718 C 303.178535 51.599488 299.535191 55.484754 294.822552 58.571678 C 290.138944 61.629571 284.598932 63.158517 278.197678 63.158517 C 275.46396 63.158517 272.788304 62.96498 270.175547 62.582743 C 267.567629 62.171476 265.162925 61.310234 262.966274 60.003856 C 262.293731 59.621619 261.563127 59.607104 260.769623 59.96031 C 260.00515 60.274808 259.622913 61.087666 259.622913 62.394044 C 259.622913 65.771274 261.611511 68.350162 265.588708 70.130707 C 269.570742 71.882222 274.365635 72.757979 279.968546 72.757979 C 286.621399 72.757979 293.501659 71.069364 300.599648 67.696973 C 307.702475 64.290712 313.465055 59.195836 317.887388 52.412346 C 318.942167 50.84953 320.311445 50.29311 321.995222 50.738246 C 323.717706 51.188221 325.116015 52.063978 326.199825 53.365518 C 327.312666 54.671897 327.491688 55.978275 326.727215 57.284653 C 318.095441 73.203115 308.655647 85.30405 298.402997 93.582618 C 288.184215 101.861186 277.404174 105.998051 266.067713 105.998051 Z M 273.136672 48.493211 C 276.896138 48.493211 279.837909 47.283601 281.97166 44.864382 C 284.13928 42.445163 285.223091 39.992075 285.223091 37.509956 C 285.223091 35.313305 284.473133 33.435991 282.978055 31.873175 C 281.478139 30.281329 279.233104 29.487825 276.242949 29.487825 C 272.454452 29.487825 269.444943 30.663566 267.214423 33.019885 C 265.017772 35.376205 263.919447 37.858323 263.919447 40.47108 C 263.919447 42.541932 264.669404 44.40473 266.164482 46.059476 C 267.659559 47.685192 269.986848 48.493211 273.136672 48.493211 Z M 393.792808 52.412346 C 394.84275 50.84953 396.182997 50.29311 397.803874 50.738246 C 399.463458 51.188221 400.827898 52.063978 401.911708 53.365518 C 403.029387 54.671897 403.266471 55.978275 402.627797 57.284653 C 401.577856 59.510335 400.034394 62.616612 397.997411 66.598647 C 395.98946 70.575843 393.458956 74.814315 390.401063 79.299548 C 387.348009 83.789619 383.622411 88.057121 379.224271 92.102056 C 374.864838 96.14699 369.847377 99.441967 364.181566 101.986985 C 358.515755 104.536842 352.017732 105.809351 344.697175 105.809351 C 336.09927 105.809351 329.28191 103.994937 324.254773 100.366108 C 319.251827 96.70341 315.831051 92.068187 313.982768 86.465275 C 312.168354 80.828494 311.660318 74.95463 312.453822 68.843683 C 313.218295 62.698866 315.037548 57.221754 317.901903 52.412346 L 318.714761 51.217252 C 322.212952 46.538482 325.68695 41.429091 329.12708 35.884241 C 332.59624 30.344229 336.162169 25.123554 339.824867 20.222216 C 343.482727 15.316039 347.256709 11.275943 351.141975 8.087412 C 355.06111 4.90372 359.101206 3.311874 363.271939 3.311874 C 369.421595 3.311874 373.955211 4.744051 376.887305 7.613245 C 379.81456 10.477601 381.217707 13.472594 381.087069 16.593387 C 381.087069 18.151364 380.40485 19.457742 379.035572 20.507683 C 377.666293 21.557625 376.026063 22.515635 374.11488 23.372039 C 372.237566 24.199412 370.58282 25.234838 369.150642 26.478316 C 367.713626 27.716957 366.997537 29.313641 366.997537 31.253855 C 366.997537 32.429596 367.907163 34.785915 369.721578 38.322813 C 371.569861 41.825843 373.52459 45.774009 375.595442 50.167311 C 377.700163 54.531582 379.146856 58.731346 379.94036 62.776281 C 382.935353 62.650481 385.499725 61.615056 387.633476 59.670003 C 389.796258 57.695921 391.852595 55.276701 393.792808 52.412346 Z M 337.671762 65.500322 C 341.973134 65.500322 345.301979 64.131044 347.658299 61.392487 C 350.014618 58.653931 351.190359 55.262186 351.190359 51.217252 C 351.190359 48.860932 350.822638 46.456228 350.092033 44.007979 C 349.361429 41.521021 348.277619 38.976003 346.845441 36.363246 C 345.539063 33.755328 343.976247 33.755328 342.161833 36.363246 C 339.679714 40.025944 337.037927 43.717672 334.236471 47.44327 C 331.435015 51.139837 328.933543 54.415459 326.736892 57.284653 C 326.736892 59.640973 327.738448 61.595702 329.7464 63.158517 C 331.783383 64.716495 334.42517 65.500322 337.671762 65.500322 Z M 425.895847 105.998051 C 418.062415 105.998051 411.627292 104.246536 406.600155 100.748345 C 401.602048 97.211447 397.890966 92.547192 395.471747 86.750743 C 393.052527 80.925263 391.871948 74.524009 391.934848 67.551819 C 391.997748 60.57963 393.207357 53.60744 395.563677 46.630412 C 397.919996 39.658222 401.311742 33.276322 405.738913 27.479873 C 410.166084 21.654393 415.546427 16.990139 421.884782 13.487109 C 428.218297 9.950211 435.364671 8.184181 443.32874 8.184181 C 449.439688 8.184181 454.423279 9.330891 458.274676 11.624311 C 462.130912 13.883861 464.961398 16.907885 466.775812 20.696383 C 468.595065 24.489718 469.499853 28.529814 469.499853 32.831186 C 469.499853 37.543825 468.193475 42.23711 465.585557 46.920718 C 463.006669 51.599488 459.358486 55.484754 454.645848 58.571678 C 449.967078 61.629571 444.427066 63.158517 438.025812 63.158517 C 435.287256 63.158517 432.611599 62.96498 430.003681 62.582743 C 427.390924 62.171476 424.98622 61.310234 422.789569 60.003856 C 422.121865 59.621619 421.391261 59.607104 420.592918 59.96031 C 419.828445 60.274808 419.446209 61.087666 419.446209 62.394044 C 419.446209 65.771274 421.434807 68.350162 425.416842 70.130707 C 429.398876 71.882222 434.18893 72.757979 439.791842 72.757979 C 446.449533 72.757979 453.324954 71.069364 460.427781 67.696973 C 467.52577 64.290712 473.28835 59.195836 477.715522 52.412346 C 478.765463 50.84953 480.134741 50.29311 481.823356 50.738246 C 483.541001 51.188221 484.944148 52.063978 486.027959 53.365518 C 487.140799 54.671897 487.314983 55.978275 486.55051 57.284653 C 477.923574 73.203115 468.483781 85.30405 458.23113 93.582618 C 448.00751 101.861186 437.227469 105.998051 425.895847 105.998051 Z M 432.964805 48.493211 C 436.719433 48.493211 439.666042 47.283601 441.799794 44.864382 C 443.962576 42.445163 445.046386 39.992075 445.046386 37.509956 C 445.046386 35.313305 444.296428 33.435991 442.80135 31.873175 C 441.306273 30.281329 439.061238 29.487825 436.066244 29.487825 C 432.277747 29.487825 429.268238 30.663566 427.042557 33.019885 C 424.845906 35.376205 423.742742 37.858323 423.742742 40.47108 C 423.742742 42.541932 424.4927 44.40473 425.987777 46.059476 C 427.487693 47.685192 429.810144 48.493211 432.964805 48.493211 Z M 493.009825 105.998051 C 485.684429 105.998051 480.289571 103.753015 476.82041 99.267783 C 473.380281 94.743843 471.662635 88.869979 471.662635 81.641352 C 471.662635 74.412725 473.094813 66.627678 475.959168 58.28621 C 477.676814 53.317134 479.573482 47.97066 481.644333 42.23711 C 483.744216 36.47453 486.02312 30.203914 488.47137 23.420423 C 485.607014 23.420423 483.424879 22.670465 481.929801 21.175388 C 480.434724 19.680311 479.447682 17.928796 478.968677 15.920844 C 478.523541 13.883861 478.523541 12.117831 478.968677 10.622754 C 479.447682 9.122838 480.275055 8.377719 481.450796 8.377719 C 487.184345 8.377719 491.674416 6.785872 494.921008 3.60218 C 498.201469 0.384618 500.494889 -2.973258 501.796429 -6.476287 C 504.152749 -12.209837 506.431653 -15.82415 508.628304 -17.319227 C 510.858824 -18.848174 513.215144 -19.612647 515.697263 -19.612647 C 519.35996 -19.612647 521.634026 -18.069185 522.524299 -14.977423 C 523.448441 -11.924369 522.413015 -7.337529 519.42286 -1.221743 C 517.990682 1.92808 517.19234 4.318269 517.032672 5.939146 C 516.906872 7.564861 517.768114 8.377719 519.611559 8.377719 L 529.786795 8.377719 C 531.093173 8.377719 531.935062 9.297022 532.317298 11.145305 C 532.699535 12.95972 532.665666 15.045087 532.220529 17.401406 C 531.775393 19.728695 530.933505 21.814062 529.690026 23.657507 C 528.451386 25.47676 526.840186 26.381548 524.866103 26.381548 C 518.880955 26.381548 514.453784 26.618631 511.589428 27.097637 C 508.725073 27.542773 506.702606 28.674967 505.522027 30.489382 C 504.346286 32.303796 503.102808 35.439104 501.796429 39.900144 C 499.696547 46.678796 499.982015 52.093009 502.657671 56.137943 C 505.333328 60.149009 509.552446 62.156961 515.315026 62.156961 C 519.229323 62.156961 522.717837 61.281203 525.77573 59.529689 C 528.828784 57.778174 531.330257 55.407339 533.275309 52.412346 C 534.32525 50.84953 535.660659 50.29311 537.286374 50.738246 C 538.94112 51.188221 540.310398 52.063978 541.394209 53.365518 C 542.507049 54.671897 542.744133 55.978275 542.110297 57.284653 C 540.929718 59.510335 539.352388 62.582743 537.378305 66.501878 C 535.438091 70.387144 533.096287 74.620778 530.357731 79.207617 C 527.619175 83.760588 524.420967 88.057121 520.758269 92.102056 C 517.12944 96.14699 512.992576 99.470997 508.342836 102.083754 C 503.726966 104.696511 498.612737 105.998051 493.009825 105.998051 Z M 690.969691 -39.527659 C 713.545845 -39.527659 730.194911 -35.197257 740.926567 -26.536453 C 751.687254 -17.875648 757.072436 -5.586015 757.072436 10.332448 C 757.072436 16.322434 755.988626 22.384998 753.821006 28.529814 C 751.687254 34.6456 748.440662 40.282381 744.081229 45.440156 C 739.716958 50.597932 734.239846 54.720281 727.649893 57.807205 C 721.05994 60.865098 713.400692 62.394044 704.676987 62.394044 C 700.375616 62.394044 697.080639 61.900524 694.792058 60.913482 C 692.498638 59.926441 690.66487 58.987784 689.295592 58.097511 C 687.926314 57.173369 686.397367 56.708879 684.713591 56.708879 C 682.768539 56.708879 681.210561 57.618506 680.029982 59.43292 L 679.028426 61.392487 L 679.599361 60.003856 L 679.028426 61.392487 C 675.239928 71.291932 670.478905 80.257559 664.750194 88.279689 C 659.016645 96.306659 652.489591 102.625659 645.164196 107.241529 C 637.872669 111.891268 629.995692 114.213719 621.523586 114.213719 C 613.946592 114.213719 607.767906 112.641226 602.992367 109.486565 C 598.250698 106.365772 594.810568 102.340191 592.676817 97.404984 C 590.509196 92.435908 589.430224 87.278133 589.430224 81.92682 C 589.430224 76.449708 590.509196 71.243548 592.676817 66.308341 C 594.810568 61.344103 597.834592 57.299169 601.748888 54.178376 C 605.668024 51.028553 610.235509 49.451222 615.456184 49.451222 C 617.401236 49.451222 618.373763 50.23021 618.373763 51.793026 C 618.373763 56.123428 619.965609 59.621619 623.149301 62.297275 C 626.362024 64.972932 630.24729 66.308341 634.800261 66.308341 C 640.151574 66.308341 646.122206 63.666553 652.71216 58.382979 C 659.302113 53.094566 664.875994 44.578914 669.428964 32.831186 C 671.14661 28.404015 672.883609 23.817175 674.635124 19.075506 C 676.386638 14.299967 678.118799 9.824412 679.841283 5.653678 C 681.147662 2.247417 682.865307 -0.171802 684.999059 -1.60398 C 687.161841 -3.040996 689.677828 -3.757085 692.547022 -3.757085 C 696.717756 -3.757085 699.456312 -2.799074 700.757852 -0.887891 C 702.064231 0.989423 702.194868 3.553796 701.140089 6.800388 C 699.707911 11.096921 698.435402 14.822518 697.322561 17.97718 C 696.204882 21.097973 695.329124 23.899429 694.695289 26.381548 L 695.266225 24.997754 C 693.959846 28.912051 693.867916 31.79576 694.980757 33.644044 C 696.093598 35.458458 698.803123 36.363246 703.099656 36.363246 C 706.762354 36.363246 710.313768 35.361689 713.749059 33.353737 C 717.223058 31.316755 720.087413 28.370146 722.346964 24.518749 C 724.640384 20.667352 725.787094 15.940198 725.787094 10.332448 C 725.787094 1.865181 722.811454 -4.202221 716.855337 -7.864919 C 710.933088 -11.522778 702.557751 -13.356546 691.734165 -13.356546 C 684.186201 -13.356546 677.214011 -12.461435 670.812757 -10.68089 C 664.411503 -8.929375 659.253728 -6.15695 655.339432 -2.368453 C 651.454166 1.420044 649.513952 6.306867 649.513952 12.292015 C 649.513952 14.904772 650.230041 17.101423 651.662218 18.881968 C 653.094396 20.633483 654.845911 21.50924 656.916762 21.50924 C 657.840904 23.580092 657.903804 26.081564 657.105462 29.00882 C 656.340988 31.936075 654.812042 34.742369 652.52346 37.413187 C 650.230041 40.088843 647.283432 42.348394 643.683634 44.196678 C 640.117705 46.011092 635.995355 46.920718 631.316585 46.920718 C 625.965272 46.920718 621.460686 45.643371 617.797988 43.098352 C 614.135291 40.553334 611.396735 37.190619 609.58232 33.019885 C 607.767906 28.849151 606.863118 24.42198 606.863118 19.74321 C 606.863118 11.653341 608.817847 4.061832 612.736982 -3.040996 C 616.651279 -10.172854 622.25419 -16.477339 629.545717 -21.954451 C 636.837243 -27.426725 645.67707 -31.728097 656.05552 -34.84889 C 666.433971 -37.969682 678.075253 -39.527659 690.969691 -39.527659 Z M 768.621788 105.998051 C 761.968936 105.998051 756.93696 103.259494 753.530699 97.787221 C 750.153469 92.310108 748.469693 85.207281 748.469693 76.483577 C 748.469693 70.977434 749.151913 65.1326 750.521191 58.953915 C 751.890469 52.746198 753.912936 46.649766 756.588592 40.664618 C 759.25941 34.674631 762.622125 29.231388 766.667059 24.33005 C 770.707155 19.423873 775.405279 15.509577 780.756592 12.577483 C 786.103066 9.650228 792.170468 8.184181 798.94912 8.184181 C 802.868255 8.184181 805.892279 8.551902 808.02603 9.282507 C 810.188812 9.98408 811.829043 10.859837 812.946722 11.909779 C 814.059563 12.95972 814.99822 13.854831 815.762693 14.585435 C 816.561036 15.287009 817.610977 15.635376 818.917355 15.635376 C 821.114006 15.635376 822.894551 15.016056 824.263829 13.772577 C 825.633107 12.529099 827.162054 11.290458 828.850669 10.04698 C 830.568315 8.803501 832.924634 8.184181 835.919627 8.184181 C 838.527546 8.184181 840.327445 8.83737 841.314486 10.143749 C 842.301528 11.450127 842.795048 13.216157 842.795048 15.446677 C 842.795048 19.075506 841.778976 22.689819 839.737155 26.284779 C 837.734042 29.884577 835.614806 34.548832 833.389124 40.282381 C 830.137694 47.44327 828.928084 52.920382 829.755457 56.708879 C 830.616699 60.497376 833.195587 62.394044 837.496958 62.394044 C 840.86935 62.394044 843.801443 61.518287 846.283562 59.766772 C 848.765681 57.986227 850.996201 55.533139 852.970284 52.412346 C 853.986356 50.84953 855.30725 50.29311 856.932965 50.738246 C 858.587711 51.188221 859.956989 52.063978 861.040799 53.365518 C 862.15364 54.671897 862.395562 55.978275 861.756888 57.284653 C 859.400569 61.837624 856.884581 66.89863 854.208924 72.472511 C 851.538106 78.012523 848.557628 83.329967 845.282006 88.424842 C 842.030575 93.485849 838.324331 97.690452 834.153597 101.033813 C 829.978025 104.343305 825.154102 105.998051 819.681828 105.998051 C 812.898338 105.998051 808.103445 103.259494 805.30199 97.787221 C 802.500534 92.310108 801.687676 85.526618 802.868255 77.436749 L 802.103782 77.436749 C 798.189485 85.400819 793.346208 92.15044 787.583628 97.690452 C 781.854917 103.230464 775.531078 105.998051 768.621788 105.998051 Z M 788.202948 65.500322 C 791.580178 65.500322 794.541303 64.527796 797.086321 62.582743 C 799.636178 60.60866 801.624776 58.22331 803.056954 55.421855 C 804.49397 52.620399 805.210059 49.847974 805.210059 47.109417 C 805.210059 43.862825 804.285917 41.332322 802.437634 39.517908 C 800.62322 37.669624 798.155616 36.745483 795.034823 36.745483 C 791.657593 36.745483 788.730338 37.669624 786.248219 39.517908 C 783.761262 41.332322 781.835564 43.640257 780.466286 46.441713 C 779.097007 49.243169 778.414788 52.078494 778.414788 54.942849 C 778.414788 58.189441 779.290545 60.768329 781.04206 62.679512 C 782.822605 64.556826 785.212794 65.500322 788.202948 65.500322 Z M 928.82732 52.412346 C 929.877262 50.84953 931.217509 50.29311 932.838386 50.738246 C 934.49797 51.188221 935.867248 52.063978 936.94622 53.365518 C 938.063899 54.671897 938.300983 55.978275 937.662309 57.284653 C 936.612368 59.510335 935.068906 62.616612 933.031923 66.598647 C 931.023971 70.575843 928.493468 74.814315 925.435575 79.299548 C 922.382521 83.789619 918.656923 88.057121 914.258783 92.102056 C 909.89935 96.14699 904.881889 99.441967 899.216078 101.986985 C 893.550266 104.536842 887.052244 105.809351 879.731687 105.809351 C 871.133782 105.809351 864.316422 103.994937 859.289285 100.366108 C 854.286339 96.70341 850.865563 92.068187 849.01728 86.465275 C 847.202866 80.828494 846.69483 74.95463 847.488333 68.843683 C 848.252807 62.698866 850.07206 57.221754 852.936415 52.412346 L 853.749273 51.217252 C 857.247464 46.538482 860.721462 41.429091 864.161592 35.884241 C 867.630752 30.344229 871.196681 25.123554 874.859379 20.222216 C 878.517239 15.316039 882.29122 11.275943 886.176486 8.087412 C 890.095621 4.90372 894.135717 3.311874 898.306451 3.311874 C 904.456106 3.311874 908.989723 4.744051 911.921817 7.613245 C 914.849072 10.477601 916.252219 13.472594 916.121581 16.593387 C 916.121581 18.151364 915.439362 19.457742 914.070083 20.507683 C 912.700805 21.557625 911.060575 22.515635 909.149392 23.372039 C 907.272078 24.199412 905.617332 25.234838 904.185154 26.478316 C 902.748138 27.716957 902.032049 29.313641 902.032049 31.253855 C 902.032049 32.429596 902.941675 34.785915 904.75609 38.322813 C 906.604373 41.825843 908.559102 45.774009 910.629954 50.167311 C 912.734674 54.531582 914.181368 58.731346 914.974871 62.776281 C 917.969865 62.650481 920.534237 61.615056 922.667988 59.670003 C 924.83077 57.695921 926.887107 55.276701 928.82732 52.412346 Z M 872.706274 65.500322 C 877.007646 65.500322 880.336491 64.131044 882.692811 61.392487 C 885.04913 58.653931 886.224871 55.262186 886.224871 51.217252 C 886.224871 48.860932 885.857149 46.456228 885.126545 44.007979 C 884.395941 41.521021 883.312131 38.976003 881.879953 36.363246 C 880.573575 33.755328 879.010759 33.755328 877.196345 36.363246 C 874.714226 40.025944 872.072439 43.717672 869.270983 47.44327 C 866.469527 51.139837 863.968054 54.415459 861.771403 57.284653 C 861.771403 59.640973 862.77296 61.595702 864.780912 63.158517 C 866.817895 64.716495 869.459682 65.500322 872.706274 65.500322 Z M 1004.534365 52.412346 C 1005.584306 50.84953 1006.924554 50.29311 1008.545431 50.738246 C 1010.200176 51.188221 1011.569455 52.063978 1012.653265 53.365518 C 1013.770944 54.671897 1014.008027 55.978275 1013.369354 57.284653 C 1012.319412 59.510335 1010.775951 62.616612 1008.738968 66.598647 C 1006.731016 70.575843 1004.200513 74.814315 1001.14262 79.299548 C 998.089565 83.789619 994.363968 88.057121 989.965827 92.102056 C 985.606394 96.14699 980.588934 99.441967 974.923123 101.986985 C 969.257311 104.536842 962.759289 105.809351 955.438731 105.809351 C 946.840826 105.809351 940.023467 103.994937 934.996329 100.366108 C 929.993384 96.70341 926.572608 92.068187 924.724325 86.465275 C 922.90991 80.828494 922.401874 74.95463 923.195378 68.843683 C 923.959851 62.698866 925.774266 57.221754 928.64346 52.412346 L 929.456317 51.217252 C 932.954508 46.538482 936.428507 41.429091 939.863798 35.884241 C 943.337797 30.344229 946.903726 25.123554 950.566424 20.222216 C 954.224283 15.316039 957.998265 11.275943 961.883531 8.087412 C 965.802666 4.90372 969.842762 3.311874 974.013496 3.311874 C 980.163151 3.311874 984.696768 4.744051 987.628862 7.613245 C 990.556117 10.477601 991.959264 13.472594 991.828626 16.593387 C 991.828626 18.151364 991.146406 19.457742 989.777128 20.507683 C 988.40785 21.557625 986.76762 22.515635 984.856436 23.372039 C 982.979122 24.199412 981.324376 25.234838 979.892199 26.478316 C 978.455182 27.716957 977.739094 29.313641 977.739094 31.253855 C 977.739094 32.429596 978.64872 34.785915 980.463134 38.322813 C 982.311418 41.825843 984.266147 45.774009 986.336999 50.167311 C 988.441719 54.531582 989.888412 58.731346 990.681916 62.776281 C 993.67691 62.650481 996.241282 61.615056 998.375033 59.670003 C 1000.537815 57.695921 1002.594151 55.276701 1004.534365 52.412346 Z M 948.413319 65.500322 C 952.714691 65.500322 956.043536 64.131044 958.399856 61.392487 C 960.756175 58.653931 961.931916 55.262186 961.931916 51.217252 C 961.931916 48.860932 961.564194 46.456228 960.83359 44.007979 C 960.102986 41.521021 959.019176 38.976003 957.586998 36.363246 C 956.28062 33.755328 954.717804 33.755328 952.90339 36.363246 C 950.421271 40.025944 947.779483 43.717672 944.978028 47.44327 C 942.176572 51.139837 939.675099 54.415459 937.478448 57.284653 C 937.478448 59.640973 938.480005 61.595702 940.487957 63.158517 C 942.524939 64.716495 945.166727 65.500322 948.413319 65.500322 Z M 1136.59954 52.412346 C 1137.397882 51.231767 1138.636522 50.805984 1140.325137 51.120483 C 1142.013752 51.43982 1143.479799 52.155909 1144.718439 53.273588 C 1145.961918 54.386429 1146.184486 55.721838 1145.386144 57.284653 C 1143.571729 61.19895 1141.200895 65.243884 1138.273639 69.414618 C 1135.341546 73.585352 1131.678848 77.073866 1127.285546 79.875322 C 1122.926113 82.676778 1117.560285 84.079925 1111.1929 84.079925 C 1109.088179 84.079925 1107.065712 83.697688 1105.125498 82.933215 C 1100.28706 89.426399 1095.158315 94.869642 1089.744103 99.267783 C 1084.334729 103.627216 1078.760848 105.809351 1073.032137 105.809351 C 1070.293581 105.809351 1067.714693 104.870694 1065.290635 102.99338 C 1062.871416 101.082197 1061.008617 97.656583 1059.702239 92.721376 C 1058.400699 87.757138 1058.144262 80.702695 1058.942604 71.562885 C 1055.531505 80.320458 1051.776877 87.215233 1047.669043 92.24237 C 1043.561209 97.245316 1039.453375 100.76286 1035.345541 102.799843 C 1031.237706 104.807795 1027.371794 105.809351 1023.738127 105.809351 C 1018.517452 105.809351 1014.235434 104.183636 1010.892073 100.937044 C 1007.582581 97.656583 1005.177877 93.408434 1003.6828 88.182921 C 1002.182884 82.962246 1001.466795 77.199666 1001.529695 70.89518 C 1001.592595 64.556826 1002.405452 58.397494 1003.968268 52.412346 C 1005.144008 47.31747 1006.672955 42.159695 1008.550269 36.93902 C 1010.461452 31.713507 1012.580688 26.923453 1014.903139 22.559181 C 1017.259458 18.199748 1019.712546 14.711234 1022.257565 12.103316 C 1024.807422 9.490559 1027.449209 8.184181 1030.187765 8.184181 C 1032.127979 8.184181 1033.627895 8.774471 1034.677836 9.950211 C 1035.727777 11.13079 1036.255167 13.153257 1036.255167 16.017613 C 1036.255167 19.680311 1035.505209 23.657507 1034.010132 27.958879 C 1032.510216 32.255412 1031.049007 36.585814 1029.61683 40.950085 C 1028.179813 45.309518 1027.463724 49.451222 1027.463724 53.365518 C 1027.463724 57.028216 1028.339482 59.974825 1030.090996 62.205345 C 1031.842511 64.401996 1034.484299 65.500322 1038.021197 65.500322 C 1042.830605 65.500322 1046.536848 63.777838 1049.149605 60.342546 C 1051.762362 56.868548 1053.528392 53.05102 1054.452534 48.875447 C 1055.217007 45.759493 1055.599243 42.861269 1055.599243 40.185612 C 1055.599243 37.509956 1055.662143 34.7714 1055.787943 31.969944 C 1055.947611 29.168488 1056.475001 26.062211 1057.365273 22.65595 C 1059.208718 16.670802 1061.502138 12.771021 1064.240694 10.956606 C 1066.97925 9.108323 1070.564533 8.184181 1074.986866 8.184181 C 1083.202534 8.184181 1087.310368 12.625867 1087.310368 21.50924 C 1087.310368 24.630033 1086.420096 28.055647 1084.634712 31.781245 C 1082.883197 35.472973 1081.131683 39.184055 1079.380168 42.909653 C 1077.628653 46.630412 1076.752896 50.118926 1076.752896 53.365518 C 1076.752896 57.028216 1077.628653 59.974825 1079.380168 62.205345 C 1081.131683 64.401996 1083.778308 65.500322 1087.310368 65.500322 C 1090.847267 65.500322 1093.871291 64.750364 1096.387279 63.255286 C 1098.932297 61.75537 1101.128948 59.766772 1102.977232 57.284653 C 1102.435327 54.28966 1101.970837 51.362405 1101.593438 48.493211 C 1101.211202 45.628855 1101.017664 42.682246 1101.017664 39.658222 C 1101.017664 33.929511 1101.704722 28.660452 1103.074 23.851044 C 1104.443278 19.012606 1106.591545 15.12734 1109.5188 12.195246 C 1112.450894 9.267991 1116.128107 7.801944 1120.55044 7.801944 C 1125.645315 7.801944 1128.848361 10.129233 1130.15474 14.774134 C 1131.45628 19.394843 1131.025659 25.776743 1128.862877 33.929511 C 1126.729126 42.077442 1122.989013 51.362405 1117.6377 61.774724 C 1118.276374 61.900524 1118.847309 61.963423 1119.360184 61.963423 C 1119.897251 61.963423 1120.42464 61.963423 1120.932676 61.963423 C 1123.830901 61.963423 1126.569457 61.218304 1129.148345 59.718388 C 1131.761101 58.22331 1134.24322 55.784737 1136.59954 52.412346 Z M 1229.724963 52.412346 C 1230.489436 51.231767 1231.718399 50.805984 1233.402176 51.120483 C 1235.12466 51.43982 1236.605222 52.155909 1237.843862 53.273588 C 1239.087341 54.386429 1239.309909 55.721838 1238.516405 57.284653 C 1236.697152 61.19895 1234.326317 65.243884 1231.399062 69.414618 C 1228.466969 73.585352 1224.809109 77.073866 1220.410969 79.875322 C 1216.051536 82.676778 1210.671192 84.079925 1204.269938 84.079925 L 1201.928134 84.079925 C 1197.118727 90.732778 1191.356146 96.050221 1184.640394 100.032256 C 1177.919803 104.009452 1170.899229 105.998051 1163.578672 105.998051 C 1154.850129 105.998051 1147.626341 103.070795 1141.892791 97.211447 C 1136.16408 91.323067 1133.294886 83.296098 1133.294886 73.140216 C 1133.294886 65.81482 1134.635134 58.34911 1137.305952 50.738246 C 1139.981608 43.098352 1143.721721 36.063263 1148.531129 29.62814 C 1153.369567 23.163986 1159.040217 17.97718 1165.533401 14.058045 C 1172.060454 10.143749 1179.240697 8.184181 1187.074129 8.184181 C 1192.425441 8.184181 1197.249364 9.267991 1201.545898 11.430773 C 1205.847269 13.564524 1209.268045 17.115938 1211.817902 22.085014 C 1214.362921 27.020221 1215.63543 33.610175 1215.63543 41.854873 C 1215.63543 48.764163 1214.667742 55.470239 1212.72269 61.963423 L 1214.058099 61.963423 C 1216.927293 61.963423 1219.665849 61.218304 1222.273767 59.718388 C 1224.886524 58.22331 1227.368643 55.784737 1229.724963 52.412346 Z M 1174.750626 65.500322 C 1178.002057 65.500322 1180.866412 64.527796 1183.348531 62.582743 C 1185.835488 60.60866 1187.790217 58.22331 1189.222395 55.421855 C 1190.659411 52.620399 1191.3755 49.847974 1191.3755 47.109417 C 1191.3755 44.245062 1190.528773 41.806489 1188.840159 39.803376 C 1187.156382 37.766393 1184.417826 36.745483 1180.629329 36.745483 C 1177.508536 36.745483 1174.736111 37.669624 1172.316892 39.517908 C 1169.897672 41.332322 1168.001005 43.640257 1166.631727 46.441713 C 1165.262448 49.243169 1164.580229 52.078494 1164.580229 54.942849 C 1164.580229 57.807205 1165.359217 60.294162 1166.922033 62.394044 C 1168.48001 64.464896 1171.092767 65.500322 1174.750626 65.500322 Z M 1306.985146 52.412346 C 1308.039926 50.84953 1309.409204 50.29311 1311.09298 50.738246 C 1312.781595 51.188221 1314.184742 52.063978 1315.297583 53.365518 C 1316.410424 54.671897 1316.570092 55.978275 1315.776588 57.284653 C 1314.47021 59.384536 1312.907394 62.427913 1311.09298 66.40511 C 1309.278566 70.353275 1307.09643 74.586909 1304.551411 79.110849 C 1302.001554 83.600919 1299.025915 87.897453 1295.619654 92.005287 C 1292.242424 96.113121 1288.439412 99.470997 1284.205778 102.083754 C 1279.972145 104.696511 1275.177252 105.998051 1269.830778 105.998051 C 1264.479465 105.998051 1260.226478 104.996494 1257.076654 102.99338 C 1253.955862 100.951559 1251.710826 98.343641 1250.341548 95.159949 C 1248.97227 91.942387 1248.29005 88.71031 1248.29005 85.463718 C 1248.29005 80.910748 1248.97227 76.420677 1250.341548 71.993506 C 1251.710826 67.537304 1253.302673 63.284317 1255.117087 59.239382 C 1256.96537 55.199286 1258.571732 51.488204 1259.94101 48.110974 C 1261.310288 44.704714 1261.997346 41.825843 1261.997346 39.469523 C 1261.997346 38.448613 1261.247388 36.93902 1259.752311 34.931068 C 1258.252395 32.894086 1255.547708 31.157086 1251.633411 29.724909 C 1250.452832 32.303796 1249.054524 35.32782 1247.428808 38.801819 C 1245.803093 42.270979 1244.162863 45.662724 1242.508117 48.972216 C 1240.88724 52.286547 1239.566346 55.054133 1238.545436 57.284653 C 1237.747093 58.973268 1236.460069 59.592588 1234.674685 59.147452 C 1232.92317 58.702316 1231.461962 57.75882 1230.281383 56.326643 C 1229.134673 54.894465 1228.945974 53.588086 1229.710447 52.412346 C 1231.553892 49.799589 1233.576359 45.982061 1235.77301 40.950085 C 1238.003531 35.91811 1239.963098 31.190955 1241.651713 26.763784 C 1239.706661 26.12511 1238.148684 25.026785 1236.968105 23.468808 C 1235.792364 21.876962 1235.202075 19.327105 1235.202075 15.828914 C 1235.202075 13.090358 1235.918164 10.380832 1237.350341 7.705176 C 1238.782519 5.034358 1240.804986 2.789322 1243.417743 0.974908 C 1246.025661 -0.873376 1249.083554 -1.797517 1252.586584 -1.797517 C 1258.7314 -1.797517 1264.639134 -0.616938 1270.304945 1.739381 C 1275.975595 4.095701 1280.639849 7.07134 1284.302547 10.6663 C 1287.960406 14.237067 1289.794175 17.769127 1289.794175 21.272157 C 1289.794175 24.934855 1289.107116 28.404015 1287.737838 31.684476 C 1286.36856 34.931068 1284.970251 38.259914 1283.538074 41.666174 C 1282.101058 45.038566 1281.384969 48.749648 1281.384969 52.794583 C 1281.384969 55.533139 1282.294595 57.826558 1284.109009 59.670003 C 1285.923424 61.484418 1289.058732 62.394044 1293.519772 62.394044 C 1296.509927 62.394044 1299.0114 61.455387 1301.014513 59.578073 C 1303.056334 57.66689 1305.044932 55.276701 1306.985146 52.412346 Z M 1325.371212 105.998051 C 1317.697448 105.998051 1312.060668 103.327233 1308.46087 97.97592 C 1304.86591 92.624607 1303.066011 86.034654 1303.066011 78.201222 C 1303.066011 70.909696 1304.101437 63.221417 1306.16745 55.136387 C 1308.272171 47.046518 1311.436509 39.455008 1315.674981 32.352181 C 1319.942484 25.249353 1325.226059 19.457742 1331.530544 14.967672 C 1337.868898 10.443732 1345.20397 8.184181 1353.550277 8.184181 C 1357.464573 8.184181 1360.488597 8.648671 1362.622348 9.567974 C 1364.789969 10.463085 1366.430199 11.527542 1367.54304 12.771021 C 1368.655881 14.009661 1369.594538 15.12734 1370.359011 16.114381 C 1371.157354 17.101423 1372.207295 17.594944 1373.513673 17.594944 C 1374.563614 17.594944 1375.405503 16.414365 1376.044176 14.058045 C 1376.711881 11.701726 1377.684407 8.21805 1378.956916 3.60218 C 1380.263295 -1.047559 1382.300277 -6.698855 1385.072702 -13.356546 C 1387.520952 -19.341695 1389.959525 -23.860796 1392.378744 -26.918689 C 1394.797963 -29.976582 1397.105899 -32.02808 1399.30255 -33.08286 C 1401.53307 -34.132801 1403.632952 -34.655352 1405.607035 -34.655352 C 1408.984265 -34.655352 1411.2293 -32.986091 1412.342141 -29.64273 C 1413.454982 -26.3284 1412.709862 -21.872198 1410.097105 -16.269286 L 1387.985442 40.282381 C 1384.73885 47.44327 1383.524402 52.920382 1384.356613 56.708879 C 1385.213017 60.497376 1387.791905 62.394044 1392.093276 62.394044 C 1395.465668 62.394044 1398.397762 61.518287 1400.87988 59.766772 C 1403.361999 57.986227 1405.592519 55.533139 1407.566602 52.412346 C 1408.587513 50.84953 1409.908406 50.29311 1411.529283 50.738246 C 1413.184029 51.188221 1414.553307 52.063978 1415.637117 53.365518 C 1416.749958 54.671897 1416.99188 55.978275 1416.353206 57.284653 C 1413.996887 61.837624 1411.480899 66.89863 1408.810081 72.472511 C 1406.134424 78.012523 1403.158785 83.329967 1399.878324 88.424842 C 1396.626893 93.485849 1392.920649 97.690452 1388.749916 101.033813 C 1384.579182 104.343305 1379.755259 105.998051 1374.278146 105.998051 C 1368.036561 105.998051 1363.401337 103.259494 1360.377313 97.787221 C 1357.387158 92.310108 1356.414632 85.526618 1357.464573 77.436749 L 1356.7001 77.436749 C 1352.655165 85.400819 1347.928011 92.15044 1342.513799 97.690452 C 1337.104425 103.230464 1331.385391 105.998051 1325.371212 105.998051 Z M 1343.186342 65.500322 C 1346.432934 65.500322 1349.297289 64.527796 1351.779408 62.582743 C 1354.266365 60.60866 1356.221095 58.22331 1357.658111 55.421855 C 1359.090288 52.620399 1359.806377 49.847974 1359.806377 47.109417 C 1359.806377 44.245062 1358.959651 41.806489 1357.275874 39.803376 C 1355.587259 37.766393 1352.848703 36.745483 1349.060206 36.745483 C 1345.939413 36.745483 1343.166988 37.669624 1340.747769 39.517908 C 1338.32855 41.332322 1336.431882 43.640257 1335.062604 46.441713 C 1333.693326 49.243169 1333.011106 52.078494 1333.011106 54.942849 C 1333.011106 57.807205 1333.790094 60.294162 1335.35291 62.394044 C 1336.910887 64.464896 1339.523644 65.500322 1343.186342 65.500322 Z M 1343.186342 65.500322 " stroke="#bc6c25" stroke-width="26.654997" stroke-opacity="1" stroke-miterlimit="4"/></g><g fill="#fefae0" fill-opacity="1"><g transform="translate(23.142462, 142.263293)"><g><path d="M 19.265625 6.640625 C 13.160156 6.640625 8.238281 5.347656 4.5 2.765625 C 0.757812 0.179688 -1.972656 -3.160156 -3.703125 -7.265625 C -5.441406 -11.367188 -6.3125 -15.582031 -6.3125 -19.90625 C -6.3125 -24.21875 -5.441406 -28.347656 -3.703125 -32.296875 C -1.972656 -36.242188 0.46875 -39.453125 3.625 -41.921875 C 6.789062 -44.398438 10.476562 -45.640625 14.6875 -45.640625 C 16.269531 -45.640625 17.0625 -45.007812 17.0625 -43.75 C 17.0625 -40.269531 18.347656 -37.453125 20.921875 -35.296875 C 23.503906 -33.140625 26.640625 -32.0625 30.328125 -32.0625 C 34.640625 -32.0625 39.21875 -34.007812 44.0625 -37.90625 C 48.90625 -41.800781 53.644531 -48.851562 58.28125 -59.0625 C 59.644531 -62.644531 61.035156 -66.359375 62.453125 -70.203125 C 63.878906 -74.046875 65.28125 -77.648438 66.65625 -81.015625 C 67.707031 -83.753906 69.097656 -85.703125 70.828125 -86.859375 C 72.566406 -88.023438 74.597656 -88.609375 76.921875 -88.609375 C 80.285156 -88.609375 82.492188 -87.84375 83.546875 -86.3125 C 84.597656 -84.78125 84.703125 -82.703125 83.859375 -80.078125 C 82.492188 -76.179688 81.414062 -72.890625 80.625 -70.203125 C 79.832031 -67.515625 79.332031 -65.222656 79.125 -63.328125 C 79.019531 -61.429688 79.519531 -60.242188 80.625 -59.765625 C 81.726562 -59.296875 83.226562 -59.0625 85.125 -59.0625 C 88.394531 -59.0625 91.445312 -59.929688 94.28125 -61.671875 C 97.125 -63.410156 99.414062 -65.78125 101.15625 -68.78125 C 102.894531 -71.78125 103.765625 -75.125 103.765625 -78.8125 C 103.765625 -85.226562 101.128906 -89.753906 95.859375 -92.390625 C 90.597656 -95.023438 83.914062 -96.34375 75.8125 -96.34375 C 68.863281 -96.34375 63.019531 -95.316406 58.28125 -93.265625 C 53.539062 -91.210938 49.929688 -88.601562 47.453125 -85.4375 C 44.984375 -82.28125 43.75 -79.019531 43.75 -75.65625 C 43.75 -73.550781 44.328125 -71.785156 45.484375 -70.359375 C 46.640625 -68.941406 48.0625 -68.234375 49.75 -68.234375 C 50.488281 -66.546875 50.539062 -64.515625 49.90625 -62.140625 C 49.269531 -59.773438 48.03125 -57.515625 46.1875 -55.359375 C 44.351562 -53.203125 41.988281 -51.382812 39.09375 -49.90625 C 36.195312 -48.4375 32.851562 -47.703125 29.0625 -47.703125 C 24.738281 -47.703125 21.101562 -48.726562 18.15625 -50.78125 C 15.207031 -52.832031 12.992188 -55.539062 11.515625 -58.90625 C 10.046875 -62.28125 9.3125 -65.863281 9.3125 -69.65625 C 9.3125 -75.226562 10.914062 -80.832031 14.125 -86.46875 C 17.34375 -92.101562 21.953125 -97.265625 27.953125 -101.953125 C 33.953125 -106.640625 41.21875 -110.398438 49.75 -113.234375 C 58.28125 -116.078125 67.914062 -117.5 78.65625 -117.5 C 95.914062 -117.5 108.707031 -114.472656 117.03125 -108.421875 C 125.351562 -102.367188 129.515625 -94.023438 129.515625 -83.390625 C 129.515625 -74.648438 127.273438 -67.226562 122.796875 -61.125 C 118.316406 -55.019531 112.179688 -51.332031 104.390625 -50.0625 C 102.179688 -49.75 100.707031 -49.378906 99.96875 -48.953125 C 99.238281 -48.535156 98.875 -48.066406 98.875 -47.546875 C 98.875 -46.910156 99.160156 -46.40625 99.734375 -46.03125 C 100.316406 -45.664062 101.109375 -45.085938 102.109375 -44.296875 C 103.109375 -43.503906 104.132812 -42.109375 105.1875 -40.109375 C 106.34375 -38.003906 107.734375 -36.238281 109.359375 -34.8125 C 110.992188 -33.394531 113.34375 -32.6875 116.40625 -32.6875 C 119.976562 -32.6875 122.894531 -33.660156 125.15625 -35.609375 C 127.425781 -37.554688 129.613281 -40.113281 131.71875 -43.28125 C 132.5625 -44.539062 133.640625 -45.007812 134.953125 -44.6875 C 136.273438 -44.375 137.351562 -43.664062 138.1875 -42.5625 C 139.03125 -41.457031 139.242188 -40.378906 138.828125 -39.328125 C 136.828125 -34.585938 134.378906 -29.875 131.484375 -25.1875 C 128.585938 -20.5 125.398438 -16.257812 121.921875 -12.46875 C 118.453125 -8.6875 114.742188 -5.660156 110.796875 -3.390625 C 106.847656 -1.128906 102.820312 0 98.71875 0 C 94.289062 0 90.492188 -1.578125 87.328125 -4.734375 C 84.171875 -7.890625 82.332031 -13.050781 81.8125 -20.21875 C 81.601562 -22.425781 81.414062 -24.925781 81.25 -27.71875 C 81.09375 -30.507812 80.832031 -33.140625 80.46875 -35.609375 C 80.101562 -38.085938 79.390625 -40.140625 78.328125 -41.765625 C 77.273438 -43.398438 75.804688 -44.21875 73.921875 -44.21875 C 72.753906 -44.21875 71.878906 -43.898438 71.296875 -43.265625 C 70.722656 -42.640625 70.226562 -41.75 69.8125 -40.59375 C 66.539062 -31.644531 62.378906 -23.613281 57.328125 -16.5 C 52.273438 -9.394531 46.5625 -3.765625 40.1875 0.390625 C 33.820312 4.554688 26.847656 6.640625 19.265625 6.640625 Z M 19.265625 6.640625 "/></g></g></g><g fill="#fefae0" fill-opacity="1"><g transform="translate(151.228027, 142.263293)"><g><path d="M 29.6875 0 C 23.375 0 18.191406 -1.421875 14.140625 -4.265625 C 10.085938 -7.109375 7.085938 -10.867188 5.140625 -15.546875 C 3.191406 -20.234375 2.242188 -25.394531 2.296875 -31.03125 C 2.347656 -36.664062 3.320312 -42.300781 5.21875 -47.9375 C 7.113281 -53.570312 9.847656 -58.726562 13.421875 -63.40625 C 17.003906 -68.09375 21.347656 -71.859375 26.453125 -74.703125 C 31.554688 -77.546875 37.320312 -78.96875 43.75 -78.96875 C 48.695312 -78.96875 52.722656 -78.046875 55.828125 -76.203125 C 58.929688 -74.359375 61.21875 -71.910156 62.6875 -68.859375 C 64.164062 -65.804688 64.90625 -62.539062 64.90625 -59.0625 C 64.90625 -55.28125 63.851562 -51.492188 61.75 -47.703125 C 59.644531 -43.910156 56.695312 -40.773438 52.90625 -38.296875 C 49.113281 -35.828125 44.640625 -34.59375 39.484375 -34.59375 C 37.273438 -34.59375 35.113281 -34.75 33 -35.0625 C 30.894531 -35.375 28.953125 -36.054688 27.171875 -37.109375 C 26.640625 -37.429688 26.054688 -37.457031 25.421875 -37.1875 C 24.796875 -36.925781 24.484375 -36.269531 24.484375 -35.21875 C 24.484375 -32.476562 26.085938 -30.394531 29.296875 -28.96875 C 32.503906 -27.550781 36.375 -26.84375 40.90625 -26.84375 C 46.269531 -26.84375 51.820312 -28.210938 57.5625 -30.953125 C 63.300781 -33.691406 67.960938 -37.800781 71.546875 -43.28125 C 72.390625 -44.539062 73.492188 -44.984375 74.859375 -44.609375 C 76.234375 -44.242188 77.363281 -43.535156 78.25 -42.484375 C 79.144531 -41.429688 79.28125 -40.378906 78.65625 -39.328125 C 71.707031 -26.484375 64.097656 -16.71875 55.828125 -10.03125 C 47.566406 -3.34375 38.851562 0 29.6875 0 Z M 35.375 -46.4375 C 38.425781 -46.4375 40.820312 -47.410156 42.5625 -49.359375 C 44.300781 -51.304688 45.171875 -53.28125 45.171875 -55.28125 C 45.171875 -57.070312 44.5625 -58.597656 43.34375 -59.859375 C 42.132812 -61.117188 40.320312 -61.75 37.90625 -61.75 C 34.851562 -61.75 32.429688 -60.800781 30.640625 -58.90625 C 28.847656 -57.007812 27.953125 -55.007812 27.953125 -52.90625 C 27.953125 -51.21875 28.554688 -49.71875 29.765625 -48.40625 C 30.984375 -47.09375 32.851562 -46.4375 35.375 -46.4375 Z M 35.375 -46.4375 "/></g></g></g><g fill="#fefae0" fill-opacity="1"><g transform="translate(219.14022, 142.263293)"><g><path d="M 64.90625 -43.28125 C 65.75 -44.539062 66.828125 -44.984375 68.140625 -44.609375 C 69.460938 -44.242188 70.570312 -43.535156 71.46875 -42.484375 C 72.363281 -41.429688 72.546875 -40.378906 72.015625 -39.328125 C 71.171875 -37.535156 69.929688 -35.03125 68.296875 -31.8125 C 66.671875 -28.601562 64.617188 -25.179688 62.140625 -21.546875 C 59.671875 -17.921875 56.671875 -14.472656 53.140625 -11.203125 C 49.617188 -7.941406 45.566406 -5.285156 40.984375 -3.234375 C 36.398438 -1.179688 31.160156 -0.15625 25.265625 -0.15625 C 18.316406 -0.15625 12.816406 -1.628906 8.765625 -4.578125 C 4.710938 -7.523438 1.945312 -11.257812 0.46875 -15.78125 C -1 -20.3125 -1.414062 -25.050781 -0.78125 -30 C -0.15625 -34.957031 1.3125 -39.382812 3.625 -43.28125 L 4.265625 -44.21875 C 7.109375 -48.007812 9.925781 -52.140625 12.71875 -56.609375 C 15.507812 -61.085938 18.378906 -65.300781 21.328125 -69.25 C 24.273438 -73.195312 27.328125 -76.460938 30.484375 -79.046875 C 33.640625 -81.628906 36.90625 -82.921875 40.28125 -82.921875 C 45.226562 -82.921875 48.882812 -81.757812 51.25 -79.4375 C 53.613281 -77.125 54.742188 -74.703125 54.640625 -72.171875 C 54.640625 -70.910156 54.085938 -69.859375 52.984375 -69.015625 C 51.878906 -68.171875 50.5625 -67.40625 49.03125 -66.71875 C 47.507812 -66.039062 46.171875 -65.203125 45.015625 -64.203125 C 43.859375 -63.203125 43.28125 -61.910156 43.28125 -60.328125 C 43.28125 -59.378906 44.015625 -57.484375 45.484375 -54.640625 C 46.960938 -51.796875 48.539062 -48.609375 50.21875 -45.078125 C 51.90625 -41.554688 53.066406 -38.164062 53.703125 -34.90625 C 56.117188 -35.007812 58.195312 -35.847656 59.9375 -37.421875 C 61.675781 -39.003906 63.332031 -40.957031 64.90625 -43.28125 Z M 19.578125 -32.6875 C 23.054688 -32.6875 25.742188 -33.789062 27.640625 -36 C 29.535156 -38.21875 30.484375 -40.957031 30.484375 -44.21875 C 30.484375 -46.113281 30.191406 -48.0625 29.609375 -50.0625 C 29.035156 -52.0625 28.164062 -54.113281 27 -56.21875 C 25.945312 -58.332031 24.6875 -58.332031 23.21875 -56.21875 C 21.21875 -53.269531 19.082031 -50.296875 16.8125 -47.296875 C 14.550781 -44.296875 12.523438 -41.640625 10.734375 -39.328125 C 10.734375 -37.429688 11.550781 -35.847656 13.1875 -34.578125 C 14.820312 -33.316406 16.953125 -32.6875 19.578125 -32.6875 Z M 19.578125 -32.6875 "/></g></g></g><g fill="#fefae0" fill-opacity="1"><g transform="translate(280.261192, 142.263293)"><g><path d="M 29.6875 0 C 23.375 0 18.191406 -1.421875 14.140625 -4.265625 C 10.085938 -7.109375 7.085938 -10.867188 5.140625 -15.546875 C 3.191406 -20.234375 2.242188 -25.394531 2.296875 -31.03125 C 2.347656 -36.664062 3.320312 -42.300781 5.21875 -47.9375 C 7.113281 -53.570312 9.847656 -58.726562 13.421875 -63.40625 C 17.003906 -68.09375 21.347656 -71.859375 26.453125 -74.703125 C 31.554688 -77.546875 37.320312 -78.96875 43.75 -78.96875 C 48.695312 -78.96875 52.722656 -78.046875 55.828125 -76.203125 C 58.929688 -74.359375 61.21875 -71.910156 62.6875 -68.859375 C 64.164062 -65.804688 64.90625 -62.539062 64.90625 -59.0625 C 64.90625 -55.28125 63.851562 -51.492188 61.75 -47.703125 C 59.644531 -43.910156 56.695312 -40.773438 52.90625 -38.296875 C 49.113281 -35.828125 44.640625 -34.59375 39.484375 -34.59375 C 37.273438 -34.59375 35.113281 -34.75 33 -35.0625 C 30.894531 -35.375 28.953125 -36.054688 27.171875 -37.109375 C 26.640625 -37.429688 26.054688 -37.457031 25.421875 -37.1875 C 24.796875 -36.925781 24.484375 -36.269531 24.484375 -35.21875 C 24.484375 -32.476562 26.085938 -30.394531 29.296875 -28.96875 C 32.503906 -27.550781 36.375 -26.84375 40.90625 -26.84375 C 46.269531 -26.84375 51.820312 -28.210938 57.5625 -30.953125 C 63.300781 -33.691406 67.960938 -37.800781 71.546875 -43.28125 C 72.390625 -44.539062 73.492188 -44.984375 74.859375 -44.609375 C 76.234375 -44.242188 77.363281 -43.535156 78.25 -42.484375 C 79.144531 -41.429688 79.28125 -40.378906 78.65625 -39.328125 C 71.707031 -26.484375 64.097656 -16.71875 55.828125 -10.03125 C 47.566406 -3.34375 38.851562 0 29.6875 0 Z M 35.375 -46.4375 C 38.425781 -46.4375 40.820312 -47.410156 42.5625 -49.359375 C 44.300781 -51.304688 45.171875 -53.28125 45.171875 -55.28125 C 45.171875 -57.070312 44.5625 -58.597656 43.34375 -59.859375 C 42.132812 -61.117188 40.320312 -61.75 37.90625 -61.75 C 34.851562 -61.75 32.429688 -60.800781 30.640625 -58.90625 C 28.847656 -57.007812 27.953125 -55.007812 27.953125 -52.90625 C 27.953125 -51.21875 28.554688 -49.71875 29.765625 -48.40625 C 30.984375 -47.09375 32.851562 -46.4375 35.375 -46.4375 Z M 35.375 -46.4375 "/></g></g></g><g fill="#fefae0" fill-opacity="1"><g transform="translate(348.173386, 142.263293)"><g><path d="M 15.953125 0 C 10.054688 0 5.710938 -1.8125 2.921875 -5.4375 C 0.128906 -9.070312 -1.265625 -13.8125 -1.265625 -19.65625 C -1.265625 -25.5 -0.101562 -31.789062 2.21875 -38.53125 C 3.582031 -42.53125 5.101562 -46.847656 6.78125 -51.484375 C 8.46875 -56.117188 10.3125 -61.175781 12.3125 -66.65625 C 10 -66.65625 8.238281 -67.257812 7.03125 -68.46875 C 5.820312 -69.675781 5.03125 -71.09375 4.65625 -72.71875 C 4.289062 -74.351562 4.289062 -75.773438 4.65625 -76.984375 C 5.03125 -78.203125 5.691406 -78.8125 6.640625 -78.8125 C 11.265625 -78.8125 14.894531 -80.097656 17.53125 -82.671875 C 20.164062 -85.253906 22.007812 -87.96875 23.0625 -90.8125 C 24.957031 -95.445312 26.796875 -98.367188 28.578125 -99.578125 C 30.367188 -100.785156 32.265625 -101.390625 34.265625 -101.390625 C 37.210938 -101.390625 39.054688 -100.148438 39.796875 -97.671875 C 40.535156 -95.203125 39.691406 -91.492188 37.265625 -86.546875 C 36.109375 -84.023438 35.476562 -82.101562 35.375 -80.78125 C 35.269531 -79.46875 35.957031 -78.8125 37.4375 -78.8125 L 45.640625 -78.8125 C 46.691406 -78.8125 47.375 -78.070312 47.6875 -76.59375 C 48.007812 -75.125 47.984375 -73.441406 47.609375 -71.546875 C 47.242188 -69.648438 46.5625 -67.960938 45.5625 -66.484375 C 44.5625 -65.015625 43.273438 -64.28125 41.703125 -64.28125 C 36.859375 -64.28125 33.273438 -64.09375 30.953125 -63.71875 C 28.640625 -63.351562 27.007812 -62.429688 26.0625 -60.953125 C 25.113281 -59.484375 24.113281 -56.960938 23.0625 -53.390625 C 21.375 -47.910156 21.609375 -43.535156 23.765625 -40.265625 C 25.921875 -37.003906 29.316406 -35.375 33.953125 -35.375 C 37.109375 -35.375 39.925781 -36.082031 42.40625 -37.5 C 44.882812 -38.925781 46.910156 -40.851562 48.484375 -43.28125 C 49.328125 -44.539062 50.40625 -44.984375 51.71875 -44.609375 C 53.039062 -44.242188 54.148438 -43.535156 55.046875 -42.484375 C 55.941406 -41.429688 56.125 -40.378906 55.59375 -39.328125 C 54.644531 -37.535156 53.378906 -35.0625 51.796875 -31.90625 C 50.222656 -28.75 48.328125 -25.328125 46.109375 -21.640625 C 43.898438 -17.953125 41.320312 -14.472656 38.375 -11.203125 C 35.425781 -7.941406 32.082031 -5.257812 28.34375 -3.15625 C 24.613281 -1.050781 20.484375 0 15.953125 0 Z M 15.953125 0 "/></g></g></g><g fill="#fefae0" fill-opacity="1"><g transform="translate(393.027029, 142.263293)"><g/></g></g><g fill="#fefae0" fill-opacity="1"><g transform="translate(449.883747, 142.263293)"><g><path d="M 74.078125 -117.5 C 92.285156 -117.5 105.734375 -114 114.421875 -107 C 123.109375 -100 127.453125 -90.078125 127.453125 -77.234375 C 127.453125 -72.390625 126.582031 -67.492188 124.84375 -62.546875 C 123.113281 -57.597656 120.484375 -53.039062 116.953125 -48.875 C 113.421875 -44.71875 108.992188 -41.398438 103.671875 -38.921875 C 98.359375 -36.453125 92.175781 -35.21875 85.125 -35.21875 C 81.65625 -35.21875 79 -35.613281 77.15625 -36.40625 C 75.3125 -37.195312 73.835938 -37.957031 72.734375 -38.6875 C 71.628906 -39.425781 70.390625 -39.796875 69.015625 -39.796875 C 67.441406 -39.796875 66.179688 -39.0625 65.234375 -37.59375 L 64.4375 -36.015625 L 64.90625 -37.109375 L 64.4375 -36.015625 C 61.382812 -28.003906 57.539062 -20.757812 52.90625 -14.28125 C 48.269531 -7.8125 43.003906 -2.707031 37.109375 1.03125 C 31.210938 4.769531 24.84375 6.640625 18 6.640625 C 11.894531 6.640625 6.921875 5.375 3.078125 2.84375 C -0.765625 0.3125 -3.550781 -2.953125 -5.28125 -6.953125 C -7.019531 -10.953125 -7.890625 -15.109375 -7.890625 -19.421875 C -7.890625 -23.847656 -7.019531 -28.0625 -5.28125 -32.0625 C -3.550781 -36.0625 -1.109375 -39.320312 2.046875 -41.84375 C 5.210938 -44.375 8.898438 -45.640625 13.109375 -45.640625 C 14.691406 -45.640625 15.484375 -45.007812 15.484375 -43.75 C 15.484375 -40.269531 16.769531 -37.453125 19.34375 -35.296875 C 21.925781 -33.140625 25.0625 -32.0625 28.75 -32.0625 C 33.0625 -32.0625 37.875 -34.191406 43.1875 -38.453125 C 48.507812 -42.722656 53.015625 -49.59375 56.703125 -59.0625 C 58.066406 -62.644531 59.457031 -66.359375 60.875 -70.203125 C 62.300781 -74.046875 63.695312 -77.648438 65.0625 -81.015625 C 66.125 -83.753906 67.519531 -85.703125 69.25 -86.859375 C 70.988281 -88.023438 73.019531 -88.609375 75.34375 -88.609375 C 78.707031 -88.609375 80.914062 -87.84375 81.96875 -86.3125 C 83.019531 -84.78125 83.125 -82.703125 82.28125 -80.078125 C 81.125 -76.597656 80.097656 -73.59375 79.203125 -71.0625 C 78.304688 -68.539062 77.597656 -66.28125 77.078125 -64.28125 L 77.546875 -65.390625 C 76.492188 -62.222656 76.414062 -59.898438 77.3125 -58.421875 C 78.207031 -56.953125 80.390625 -56.21875 83.859375 -56.21875 C 86.804688 -56.21875 89.675781 -57.035156 92.46875 -58.671875 C 95.257812 -60.304688 97.578125 -62.675781 99.421875 -65.78125 C 101.265625 -68.882812 102.1875 -72.703125 102.1875 -77.234375 C 102.1875 -84.078125 99.789062 -88.972656 95 -91.921875 C 90.207031 -94.867188 83.441406 -96.34375 74.703125 -96.34375 C 68.597656 -96.34375 62.960938 -95.628906 57.796875 -94.203125 C 52.640625 -92.785156 48.484375 -90.550781 45.328125 -87.5 C 42.171875 -84.445312 40.59375 -80.5 40.59375 -75.65625 C 40.59375 -73.550781 41.171875 -71.785156 42.328125 -70.359375 C 43.484375 -68.941406 44.90625 -68.234375 46.59375 -68.234375 C 47.332031 -66.546875 47.382812 -64.515625 46.75 -62.140625 C 46.113281 -59.773438 44.875 -57.515625 43.03125 -55.359375 C 41.195312 -53.203125 38.832031 -51.382812 35.9375 -49.90625 C 33.039062 -48.4375 29.695312 -47.703125 25.90625 -47.703125 C 21.582031 -47.703125 17.945312 -48.726562 15 -50.78125 C 12.050781 -52.832031 9.835938 -55.539062 8.359375 -58.90625 C 6.890625 -62.28125 6.15625 -65.863281 6.15625 -69.65625 C 6.15625 -76.175781 7.734375 -82.304688 10.890625 -88.046875 C 14.054688 -93.785156 18.585938 -98.863281 24.484375 -103.28125 C 30.378906 -107.707031 37.507812 -111.179688 45.875 -113.703125 C 54.25 -116.234375 63.648438 -117.5 74.078125 -117.5 Z M 74.078125 -117.5 "/></g></g></g><g fill="#fefae0" fill-opacity="1"><g transform="translate(569.914606, 142.263293)"><g><path d="M 16.734375 0 C 11.367188 0 7.316406 -2.207031 4.578125 -6.625 C 1.835938 -11.050781 0.46875 -16.789062 0.46875 -23.84375 C 0.46875 -28.269531 1.019531 -32.984375 2.125 -37.984375 C 3.238281 -42.984375 4.875 -47.90625 7.03125 -52.75 C 9.1875 -57.59375 11.894531 -61.988281 15.15625 -65.9375 C 18.425781 -69.882812 22.21875 -73.039062 26.53125 -75.40625 C 30.851562 -77.78125 35.75 -78.96875 41.21875 -78.96875 C 44.375 -78.96875 46.820312 -78.675781 48.5625 -78.09375 C 50.300781 -77.519531 51.617188 -76.8125 52.515625 -75.96875 C 53.410156 -75.125 54.171875 -74.410156 54.796875 -73.828125 C 55.429688 -73.253906 56.273438 -72.96875 57.328125 -72.96875 C 59.117188 -72.96875 60.566406 -73.46875 61.671875 -74.46875 C 62.773438 -75.46875 64.007812 -76.46875 65.375 -77.46875 C 66.75 -78.46875 68.648438 -78.96875 71.078125 -78.96875 C 73.179688 -78.96875 74.625 -78.441406 75.40625 -77.390625 C 76.195312 -76.335938 76.59375 -74.914062 76.59375 -73.125 C 76.59375 -70.175781 75.773438 -67.253906 74.140625 -64.359375 C 72.515625 -61.460938 70.804688 -57.695312 69.015625 -53.0625 C 66.378906 -47.269531 65.40625 -42.847656 66.09375 -39.796875 C 66.78125 -36.742188 68.859375 -35.21875 72.328125 -35.21875 C 75.066406 -35.21875 77.4375 -35.925781 79.4375 -37.34375 C 81.4375 -38.769531 83.226562 -40.75 84.8125 -43.28125 C 85.65625 -44.539062 86.734375 -44.984375 88.046875 -44.609375 C 89.367188 -44.242188 90.472656 -43.535156 91.359375 -42.484375 C 92.253906 -41.429688 92.441406 -40.378906 91.921875 -39.328125 C 90.023438 -35.640625 87.992188 -31.554688 85.828125 -27.078125 C 83.671875 -22.609375 81.273438 -18.320312 78.640625 -14.21875 C 76.015625 -10.113281 73.015625 -6.71875 69.640625 -4.03125 C 66.273438 -1.34375 62.382812 0 57.96875 0 C 52.488281 0 48.613281 -2.207031 46.34375 -6.625 C 44.082031 -11.050781 43.425781 -16.53125 44.375 -23.0625 L 43.75 -23.0625 C 40.59375 -16.632812 36.695312 -11.179688 32.0625 -6.703125 C 27.425781 -2.234375 22.316406 0 16.734375 0 Z M 32.53125 -32.6875 C 35.269531 -32.6875 37.664062 -33.476562 39.71875 -35.0625 C 41.769531 -36.644531 43.375 -38.566406 44.53125 -40.828125 C 45.695312 -43.085938 46.28125 -45.328125 46.28125 -47.546875 C 46.28125 -50.171875 45.539062 -52.21875 44.0625 -53.6875 C 42.59375 -55.164062 40.59375 -55.90625 38.0625 -55.90625 C 35.320312 -55.90625 32.953125 -55.164062 30.953125 -53.6875 C 28.953125 -52.21875 27.398438 -50.351562 26.296875 -48.09375 C 25.191406 -45.832031 24.640625 -43.539062 24.640625 -41.21875 C 24.640625 -38.582031 25.347656 -36.5 26.765625 -34.96875 C 28.191406 -33.445312 30.113281 -32.6875 32.53125 -32.6875 Z M 32.53125 -32.6875 "/></g></g></g><g fill="#fefae0" fill-opacity="1"><g transform="translate(651.093361, 142.263293)"><g><path d="M 64.90625 -43.28125 C 65.75 -44.539062 66.828125 -44.984375 68.140625 -44.609375 C 69.460938 -44.242188 70.570312 -43.535156 71.46875 -42.484375 C 72.363281 -41.429688 72.546875 -40.378906 72.015625 -39.328125 C 71.171875 -37.535156 69.929688 -35.03125 68.296875 -31.8125 C 66.671875 -28.601562 64.617188 -25.179688 62.140625 -21.546875 C 59.671875 -17.921875 56.671875 -14.472656 53.140625 -11.203125 C 49.617188 -7.941406 45.566406 -5.285156 40.984375 -3.234375 C 36.398438 -1.179688 31.160156 -0.15625 25.265625 -0.15625 C 18.316406 -0.15625 12.816406 -1.628906 8.765625 -4.578125 C 4.710938 -7.523438 1.945312 -11.257812 0.46875 -15.78125 C -1 -20.3125 -1.414062 -25.050781 -0.78125 -30 C -0.15625 -34.957031 1.3125 -39.382812 3.625 -43.28125 L 4.265625 -44.21875 C 7.109375 -48.007812 9.925781 -52.140625 12.71875 -56.609375 C 15.507812 -61.085938 18.378906 -65.300781 21.328125 -69.25 C 24.273438 -73.195312 27.328125 -76.460938 30.484375 -79.046875 C 33.640625 -81.628906 36.90625 -82.921875 40.28125 -82.921875 C 45.226562 -82.921875 48.882812 -81.757812 51.25 -79.4375 C 53.613281 -77.125 54.742188 -74.703125 54.640625 -72.171875 C 54.640625 -70.910156 54.085938 -69.859375 52.984375 -69.015625 C 51.878906 -68.171875 50.5625 -67.40625 49.03125 -66.71875 C 47.507812 -66.039062 46.171875 -65.203125 45.015625 -64.203125 C 43.859375 -63.203125 43.28125 -61.910156 43.28125 -60.328125 C 43.28125 -59.378906 44.015625 -57.484375 45.484375 -54.640625 C 46.960938 -51.796875 48.539062 -48.609375 50.21875 -45.078125 C 51.90625 -41.554688 53.066406 -38.164062 53.703125 -34.90625 C 56.117188 -35.007812 58.195312 -35.847656 59.9375 -37.421875 C 61.675781 -39.003906 63.332031 -40.957031 64.90625 -43.28125 Z M 19.578125 -32.6875 C 23.054688 -32.6875 25.742188 -33.789062 27.640625 -36 C 29.535156 -38.21875 30.484375 -40.957031 30.484375 -44.21875 C 30.484375 -46.113281 30.191406 -48.0625 29.609375 -50.0625 C 29.035156 -52.0625 28.164062 -54.113281 27 -56.21875 C 25.945312 -58.332031 24.6875 -58.332031 23.21875 -56.21875 C 21.21875 -53.269531 19.082031 -50.296875 16.8125 -47.296875 C 14.550781 -44.296875 12.523438 -41.640625 10.734375 -39.328125 C 10.734375 -37.429688 11.550781 -35.847656 13.1875 -34.578125 C 14.820312 -33.316406 16.953125 -32.6875 19.578125 -32.6875 Z M 19.578125 -32.6875 "/></g></g></g><g fill="#fefae0" fill-opacity="1"><g transform="translate(712.214345, 142.263293)"><g><path d="M 64.90625 -43.28125 C 65.75 -44.539062 66.828125 -44.984375 68.140625 -44.609375 C 69.460938 -44.242188 70.570312 -43.535156 71.46875 -42.484375 C 72.363281 -41.429688 72.546875 -40.378906 72.015625 -39.328125 C 71.171875 -37.535156 69.929688 -35.03125 68.296875 -31.8125 C 66.671875 -28.601562 64.617188 -25.179688 62.140625 -21.546875 C 59.671875 -17.921875 56.671875 -14.472656 53.140625 -11.203125 C 49.617188 -7.941406 45.566406 -5.285156 40.984375 -3.234375 C 36.398438 -1.179688 31.160156 -0.15625 25.265625 -0.15625 C 18.316406 -0.15625 12.816406 -1.628906 8.765625 -4.578125 C 4.710938 -7.523438 1.945312 -11.257812 0.46875 -15.78125 C -1 -20.3125 -1.414062 -25.050781 -0.78125 -30 C -0.15625 -34.957031 1.3125 -39.382812 3.625 -43.28125 L 4.265625 -44.21875 C 7.109375 -48.007812 9.925781 -52.140625 12.71875 -56.609375 C 15.507812 -61.085938 18.378906 -65.300781 21.328125 -69.25 C 24.273438 -73.195312 27.328125 -76.460938 30.484375 -79.046875 C 33.640625 -81.628906 36.90625 -82.921875 40.28125 -82.921875 C 45.226562 -82.921875 48.882812 -81.757812 51.25 -79.4375 C 53.613281 -77.125 54.742188 -74.703125 54.640625 -72.171875 C 54.640625 -70.910156 54.085938 -69.859375 52.984375 -69.015625 C 51.878906 -68.171875 50.5625 -67.40625 49.03125 -66.71875 C 47.507812 -66.039062 46.171875 -65.203125 45.015625 -64.203125 C 43.859375 -63.203125 43.28125 -61.910156 43.28125 -60.328125 C 43.28125 -59.378906 44.015625 -57.484375 45.484375 -54.640625 C 46.960938 -51.796875 48.539062 -48.609375 50.21875 -45.078125 C 51.90625 -41.554688 53.066406 -38.164062 53.703125 -34.90625 C 56.117188 -35.007812 58.195312 -35.847656 59.9375 -37.421875 C 61.675781 -39.003906 63.332031 -40.957031 64.90625 -43.28125 Z M 19.578125 -32.6875 C 23.054688 -32.6875 25.742188 -33.789062 27.640625 -36 C 29.535156 -38.21875 30.484375 -40.957031 30.484375 -44.21875 C 30.484375 -46.113281 30.191406 -48.0625 29.609375 -50.0625 C 29.035156 -52.0625 28.164062 -54.113281 27 -56.21875 C 25.945312 -58.332031 24.6875 -58.332031 23.21875 -56.21875 C 21.21875 -53.269531 19.082031 -50.296875 16.8125 -47.296875 C 14.550781 -44.296875 12.523438 -41.640625 10.734375 -39.328125 C 10.734375 -37.429688 11.550781 -35.847656 13.1875 -34.578125 C 14.820312 -33.316406 16.953125 -32.6875 19.578125 -32.6875 Z M 19.578125 -32.6875 "/></g></g></g><g fill="#fefae0" fill-opacity="1"><g transform="translate(773.335329, 142.263293)"><g><path d="M 110.390625 -43.28125 C 111.023438 -44.226562 112.023438 -44.566406 113.390625 -44.296875 C 114.765625 -44.035156 115.953125 -43.457031 116.953125 -42.5625 C 117.953125 -41.664062 118.132812 -40.585938 117.5 -39.328125 C 116.03125 -36.171875 114.109375 -32.90625 111.734375 -29.53125 C 109.367188 -26.164062 106.421875 -23.347656 102.890625 -21.078125 C 99.367188 -18.816406 95.023438 -17.6875 89.859375 -17.6875 C 88.179688 -17.6875 86.550781 -18.003906 84.96875 -18.640625 C 81.070312 -13.367188 76.9375 -8.96875 72.5625 -5.4375 C 68.195312 -1.914062 63.695312 -0.15625 59.0625 -0.15625 C 56.851562 -0.15625 54.773438 -0.914062 52.828125 -2.4375 C 50.878906 -3.96875 49.378906 -6.734375 48.328125 -10.734375 C 47.273438 -14.734375 47.066406 -20.421875 47.703125 -27.796875 C 44.960938 -20.742188 41.929688 -15.1875 38.609375 -11.125 C 35.296875 -7.070312 31.976562 -4.226562 28.65625 -2.59375 C 25.34375 -0.96875 22.210938 -0.15625 19.265625 -0.15625 C 15.054688 -0.15625 11.609375 -1.472656 8.921875 -4.109375 C 6.234375 -6.742188 4.285156 -10.164062 3.078125 -14.375 C 1.867188 -18.582031 1.289062 -23.238281 1.34375 -28.34375 C 1.394531 -33.457031 2.050781 -38.4375 3.3125 -43.28125 C 4.257812 -47.382812 5.492188 -51.539062 7.015625 -55.75 C 8.546875 -59.957031 10.257812 -63.828125 12.15625 -67.359375 C 14.050781 -70.890625 16.023438 -73.707031 18.078125 -75.8125 C 20.128906 -77.914062 22.265625 -78.96875 24.484375 -78.96875 C 26.054688 -78.96875 27.265625 -78.492188 28.109375 -77.546875 C 28.953125 -76.597656 29.375 -74.96875 29.375 -72.65625 C 29.375 -69.707031 28.769531 -66.492188 27.5625 -63.015625 C 26.351562 -59.546875 25.164062 -56.046875 24 -52.515625 C 22.84375 -48.984375 22.265625 -45.640625 22.265625 -42.484375 C 22.265625 -39.535156 22.972656 -37.164062 24.390625 -35.375 C 25.816406 -33.582031 27.953125 -32.6875 30.796875 -32.6875 C 34.691406 -32.6875 37.691406 -34.082031 39.796875 -36.875 C 41.898438 -39.664062 43.320312 -42.75 44.0625 -46.125 C 44.695312 -48.644531 45.015625 -50.984375 45.015625 -53.140625 C 45.015625 -55.304688 45.066406 -57.519531 45.171875 -59.78125 C 45.273438 -62.039062 45.695312 -64.539062 46.4375 -67.28125 C 47.90625 -72.125 49.742188 -75.28125 51.953125 -76.75 C 54.171875 -78.226562 57.066406 -78.96875 60.640625 -78.96875 C 67.273438 -78.96875 70.59375 -75.390625 70.59375 -68.234375 C 70.59375 -65.703125 69.878906 -62.9375 68.453125 -59.9375 C 67.035156 -56.9375 65.613281 -53.9375 64.1875 -50.9375 C 62.769531 -47.9375 62.0625 -45.117188 62.0625 -42.484375 C 62.0625 -39.535156 62.769531 -37.164062 64.1875 -35.375 C 65.613281 -33.582031 67.75 -32.6875 70.59375 -32.6875 C 73.4375 -32.6875 75.882812 -33.289062 77.9375 -34.5 C 79.988281 -35.71875 81.753906 -37.328125 83.234375 -39.328125 C 82.804688 -41.742188 82.4375 -44.109375 82.125 -46.421875 C 81.8125 -48.742188 81.65625 -51.117188 81.65625 -53.546875 C 81.65625 -58.171875 82.207031 -62.429688 83.3125 -66.328125 C 84.414062 -70.222656 86.148438 -73.351562 88.515625 -75.71875 C 90.890625 -78.09375 93.867188 -79.28125 97.453125 -79.28125 C 101.554688 -79.28125 104.132812 -77.410156 105.1875 -73.671875 C 106.238281 -69.941406 105.894531 -64.785156 104.15625 -58.203125 C 102.414062 -51.617188 99.390625 -44.113281 95.078125 -35.6875 C 95.609375 -35.582031 96.082031 -35.53125 96.5 -35.53125 C 96.914062 -35.53125 97.335938 -35.53125 97.765625 -35.53125 C 100.078125 -35.53125 102.285156 -36.132812 104.390625 -37.34375 C 106.503906 -38.5625 108.503906 -40.539062 110.390625 -43.28125 Z M 110.390625 -43.28125 "/></g></g></g><g fill="#fefae0" fill-opacity="1"><g transform="translate(880.099578, 142.263293)"><g><path d="M 78.8125 -43.28125 C 79.445312 -44.226562 80.445312 -44.566406 81.8125 -44.296875 C 83.175781 -44.035156 84.359375 -43.457031 85.359375 -42.5625 C 86.359375 -41.664062 86.546875 -40.585938 85.921875 -39.328125 C 84.441406 -36.171875 82.515625 -32.90625 80.140625 -29.53125 C 77.773438 -26.164062 74.828125 -23.347656 71.296875 -21.078125 C 67.773438 -18.816406 63.4375 -17.6875 58.28125 -17.6875 L 56.390625 -17.6875 C 52.492188 -12.320312 47.832031 -8.03125 42.40625 -4.8125 C 36.976562 -1.601562 31.316406 0 25.421875 0 C 18.367188 0 12.523438 -2.367188 7.890625 -7.109375 C 3.265625 -11.847656 0.953125 -18.320312 0.953125 -26.53125 C 0.953125 -32.425781 2.03125 -38.453125 4.1875 -44.609375 C 6.34375 -50.773438 9.367188 -56.460938 13.265625 -61.671875 C 17.160156 -66.890625 21.738281 -71.078125 27 -74.234375 C 32.269531 -77.390625 38.0625 -78.96875 44.375 -78.96875 C 48.695312 -78.96875 52.59375 -78.097656 56.0625 -76.359375 C 59.539062 -74.617188 62.304688 -71.75 64.359375 -67.75 C 66.410156 -63.75 67.4375 -58.429688 67.4375 -51.796875 C 67.4375 -46.222656 66.644531 -40.800781 65.0625 -35.53125 L 66.171875 -35.53125 C 68.492188 -35.53125 70.707031 -36.132812 72.8125 -37.34375 C 74.914062 -38.5625 76.914062 -40.539062 78.8125 -43.28125 Z M 34.4375 -32.6875 C 37.0625 -32.6875 39.375 -33.476562 41.375 -35.0625 C 43.375 -36.644531 44.953125 -38.566406 46.109375 -40.828125 C 47.273438 -43.085938 47.859375 -45.328125 47.859375 -47.546875 C 47.859375 -49.859375 47.171875 -51.828125 45.796875 -53.453125 C 44.429688 -55.085938 42.222656 -55.90625 39.171875 -55.90625 C 36.640625 -55.90625 34.398438 -55.164062 32.453125 -53.6875 C 30.503906 -52.21875 28.976562 -50.351562 27.875 -48.09375 C 26.769531 -45.832031 26.21875 -43.539062 26.21875 -41.21875 C 26.21875 -38.90625 26.847656 -36.90625 28.109375 -35.21875 C 29.378906 -33.53125 31.488281 -32.6875 34.4375 -32.6875 Z M 34.4375 -32.6875 "/></g></g></g><g fill="#fefae0" fill-opacity="1"><g transform="translate(955.276819, 142.263293)"><g><path d="M 66.015625 -43.28125 C 66.859375 -44.539062 67.960938 -44.984375 69.328125 -44.609375 C 70.703125 -44.242188 71.835938 -43.535156 72.734375 -42.484375 C 73.628906 -41.429688 73.757812 -40.378906 73.125 -39.328125 C 72.070312 -37.640625 70.804688 -35.191406 69.328125 -31.984375 C 67.859375 -28.773438 66.097656 -25.351562 64.046875 -21.71875 C 61.992188 -18.082031 59.597656 -14.601562 56.859375 -11.28125 C 54.117188 -7.96875 51.035156 -5.257812 47.609375 -3.15625 C 44.191406 -1.050781 40.328125 0 36.015625 0 C 31.691406 0 28.265625 -0.8125 25.734375 -2.4375 C 23.210938 -4.070312 21.398438 -6.179688 20.296875 -8.765625 C 19.191406 -11.347656 18.640625 -13.953125 18.640625 -16.578125 C 18.640625 -20.265625 19.191406 -23.894531 20.296875 -27.46875 C 21.398438 -31.050781 22.6875 -34.472656 24.15625 -37.734375 C 25.632812 -41.003906 26.925781 -44.007812 28.03125 -46.75 C 29.132812 -49.488281 29.6875 -51.804688 29.6875 -53.703125 C 29.6875 -54.546875 29.082031 -55.78125 27.875 -57.40625 C 26.664062 -59.039062 24.484375 -60.4375 21.328125 -61.59375 C 20.378906 -59.488281 19.242188 -57.039062 17.921875 -54.25 C 16.609375 -51.457031 15.289062 -48.71875 13.96875 -46.03125 C 12.65625 -43.351562 11.578125 -41.117188 10.734375 -39.328125 C 10.109375 -37.953125 9.082031 -37.445312 7.65625 -37.8125 C 6.238281 -38.1875 5.054688 -38.953125 4.109375 -40.109375 C 3.160156 -41.273438 3 -42.332031 3.625 -43.28125 C 5.101562 -45.382812 6.738281 -48.460938 8.53125 -52.515625 C 10.320312 -56.566406 11.898438 -60.382812 13.265625 -63.96875 C 11.679688 -64.488281 10.414062 -65.378906 9.46875 -66.640625 C 8.53125 -67.910156 8.0625 -69.96875 8.0625 -72.8125 C 8.0625 -75.019531 8.640625 -77.203125 9.796875 -79.359375 C 10.953125 -81.515625 12.582031 -83.332031 14.6875 -84.8125 C 16.789062 -86.289062 19.265625 -87.03125 22.109375 -87.03125 C 27.054688 -87.03125 31.820312 -86.082031 36.40625 -84.1875 C 40.988281 -82.289062 44.753906 -79.894531 47.703125 -77 C 50.648438 -74.101562 52.125 -71.234375 52.125 -68.390625 C 52.125 -65.441406 51.566406 -62.648438 50.453125 -60.015625 C 49.347656 -57.378906 48.21875 -54.691406 47.0625 -51.953125 C 45.90625 -49.222656 45.328125 -46.222656 45.328125 -42.953125 C 45.328125 -40.742188 46.0625 -38.898438 47.53125 -37.421875 C 49.007812 -35.953125 51.539062 -35.21875 55.125 -35.21875 C 57.539062 -35.21875 59.566406 -35.976562 61.203125 -37.5 C 62.835938 -39.03125 64.441406 -40.957031 66.015625 -43.28125 Z M 66.015625 -43.28125 "/></g></g></g><g fill="#fefae0" fill-opacity="1"><g transform="translate(1017.661239, 142.263293)"><g><path d="M 18.484375 0 C 12.265625 0 7.707031 -2.15625 4.8125 -6.46875 C 1.914062 -10.789062 0.46875 -16.109375 0.46875 -22.421875 C 0.46875 -28.316406 1.3125 -34.53125 3 -41.0625 C 4.6875 -47.59375 7.238281 -53.726562 10.65625 -59.46875 C 14.082031 -65.207031 18.347656 -69.890625 23.453125 -73.515625 C 28.554688 -77.148438 34.476562 -78.96875 41.21875 -78.96875 C 44.375 -78.96875 46.820312 -78.597656 48.5625 -77.859375 C 50.300781 -77.117188 51.617188 -76.25 52.515625 -75.25 C 53.410156 -74.25 54.171875 -73.351562 54.796875 -72.5625 C 55.429688 -71.78125 56.273438 -71.390625 57.328125 -71.390625 C 58.171875 -71.390625 58.851562 -72.335938 59.375 -74.234375 C 59.90625 -76.128906 60.695312 -78.941406 61.75 -82.671875 C 62.800781 -86.410156 64.4375 -90.96875 66.65625 -96.34375 C 68.65625 -101.1875 70.628906 -104.84375 72.578125 -107.3125 C 74.523438 -109.789062 76.390625 -111.453125 78.171875 -112.296875 C 79.960938 -113.140625 81.648438 -113.5625 83.234375 -113.5625 C 85.972656 -113.5625 87.789062 -112.21875 88.6875 -109.53125 C 89.582031 -106.84375 88.972656 -103.238281 86.859375 -98.71875 L 69.015625 -53.0625 C 66.378906 -47.269531 65.40625 -42.847656 66.09375 -39.796875 C 66.78125 -36.742188 68.859375 -35.21875 72.328125 -35.21875 C 75.066406 -35.21875 77.4375 -35.925781 79.4375 -37.34375 C 81.4375 -38.769531 83.226562 -40.75 84.8125 -43.28125 C 85.65625 -44.539062 86.734375 -44.984375 88.046875 -44.609375 C 89.367188 -44.242188 90.472656 -43.535156 91.359375 -42.484375 C 92.253906 -41.429688 92.441406 -40.378906 91.921875 -39.328125 C 90.023438 -35.640625 87.992188 -31.554688 85.828125 -27.078125 C 83.671875 -22.609375 81.273438 -18.320312 78.640625 -14.21875 C 76.015625 -10.113281 73.015625 -6.71875 69.640625 -4.03125 C 66.273438 -1.34375 62.382812 0 57.96875 0 C 52.90625 0 49.160156 -2.207031 46.734375 -6.625 C 44.316406 -11.050781 43.53125 -16.53125 44.375 -23.0625 L 43.75 -23.0625 C 40.488281 -16.632812 36.671875 -11.179688 32.296875 -6.703125 C 27.929688 -2.234375 23.328125 0 18.484375 0 Z M 32.84375 -32.6875 C 35.476562 -32.6875 37.796875 -33.476562 39.796875 -35.0625 C 41.796875 -36.644531 43.375 -38.566406 44.53125 -40.828125 C 45.695312 -43.085938 46.28125 -45.328125 46.28125 -47.546875 C 46.28125 -49.859375 45.59375 -51.828125 44.21875 -53.453125 C 42.851562 -55.085938 40.644531 -55.90625 37.59375 -55.90625 C 35.0625 -55.90625 32.820312 -55.164062 30.875 -53.6875 C 28.925781 -52.21875 27.398438 -50.351562 26.296875 -48.09375 C 25.191406 -45.832031 24.640625 -43.539062 24.640625 -41.21875 C 24.640625 -38.90625 25.269531 -36.90625 26.53125 -35.21875 C 27.789062 -33.53125 29.894531 -32.6875 32.84375 -32.6875 Z M 32.84375 -32.6875 "/></g></g></g></svg>