<svg xmlns="http://www.w3.org/2000/svg" xmlns:xlink="http://www.w3.org/1999/xlink" width="1500" zoomAndPan="magnify" viewBox="0 0 1125 179.999997" height="240" preserveAspectRatio="xMidYMid meet" version="1.0"><defs><g/></defs><path stroke-linecap="butt" transform="matrix(0.752342, 0, 0, 0.752342, -128.180739, 48.084935)" fill="none" stroke-linejoin="miter" d="M 229.108839 107.784529 C 221.087015 107.784529 213.818048 106.138627 207.301939 102.852016 C 200.816983 99.591365 195.687169 94.721158 191.917691 88.236201 C 188.179365 81.751245 186.30501 73.739805 186.30501 64.212267 C 186.30501 56.938108 187.286321 50.832176 189.248942 45.884087 C 191.237523 40.935998 193.771277 36.958835 196.850204 33.942213 C 199.923938 30.89444 203.169013 28.724134 206.580235 27.426104 C 209.986265 26.128074 213.049615 25.47906 215.765093 25.47906 C 218.117123 25.47906 219.970709 25.915198 221.325852 26.792666 C 222.686188 27.664942 223.366355 28.781247 223.366355 30.141582 C 223.366355 31.496725 222.836759 32.675336 221.782759 33.667031 C 220.723567 34.632765 219.638414 35.899642 218.522108 37.467662 C 217.405803 39.009722 216.850246 41.496747 216.850246 44.933929 C 216.850246 49.882019 218.205389 53.848798 220.920867 56.834266 C 223.667498 59.788582 227.436976 61.268335 232.234494 61.268335 C 236.694525 61.268335 240.344584 59.850887 243.184673 57.01599 C 246.01957 54.181093 247.437019 50.468728 247.437019 45.884087 C 247.437019 42.296333 246.471285 38.718963 244.539816 35.162361 C 242.639501 31.574607 240.484771 27.768784 238.070436 23.760468 C 235.687254 19.715808 233.527332 15.390772 231.601056 10.774979 C 229.70074 6.128032 228.750583 1.029371 228.750583 -4.521004 C 228.750583 -10.22195 230.01746 -15.590601 232.551214 -20.626957 C 235.084968 -25.694465 239.005018 -29.827392 244.311363 -33.025737 C 249.622901 -36.250043 256.346695 -37.864792 264.493129 -37.864792 C 271.793249 -37.864792 277.62919 -36.597915 282.006147 -34.064161 C 286.409064 -31.530407 289.591832 -28.259372 291.549261 -24.245864 C 293.543035 -20.237548 294.53473 -16.011163 294.53473 -11.577093 C 294.53473 -5.995566 293.044592 -0.793062 290.059123 4.030416 C 287.099615 8.827934 283.0913 12.524723 278.023791 15.11559 C 277.296895 16.112477 276.123476 16.309777 274.493151 15.707492 C 272.893978 15.074053 271.564795 14.046014 270.510795 12.628565 C 269.456795 11.211117 269.363337 9.94424 270.240805 8.827934 C 271.113081 7.711629 271.793249 6.205914 272.276116 4.305598 C 272.790136 2.37413 272.878402 0.395933 272.546106 -1.623801 C 272.244963 -3.674688 271.445377 -5.377703 270.147347 -6.738039 C 268.854509 -8.093182 266.907465 -8.773349 264.311405 -8.773349 C 261.237671 -8.773349 258.553345 -7.776462 256.258429 -5.787881 C 253.963512 -3.82526 252.821246 -0.507496 252.821246 4.165411 C 252.696635 8.272377 253.78698 12.415688 256.076705 16.61092 C 258.371621 20.80096 261.055947 25.16234 264.129681 29.684676 C 267.208608 34.181051 269.924086 38.962992 272.276116 44.030501 C 274.628146 49.098009 275.806757 54.528965 275.806757 60.318178 C 275.806757 69.48746 273.797407 77.665047 269.789091 84.840556 C 265.775583 91.990103 260.271937 97.602784 253.27296 101.673405 C 246.305137 105.744026 238.25216 107.784529 229.108839 107.784529 Z M 301.762159 100.001543 C 294.825488 100.001543 289.711251 97.872774 286.42464 93.620429 C 283.169181 89.336931 281.538856 83.770979 281.538856 76.922574 C 281.538856 70.079361 282.893999 62.70136 285.609477 54.798955 C 287.239803 50.094896 289.036276 45.027387 290.993705 39.596431 C 292.987478 34.134322 295.142208 28.194538 297.463085 21.766695 C 294.747607 21.766695 292.686335 21.060566 291.263695 19.643118 C 289.846246 18.225669 288.911665 16.564191 288.459951 14.663876 C 288.039389 12.732408 288.039389 11.060545 288.459951 9.643097 C 288.911665 8.225648 289.695675 7.514328 290.81198 7.514328 C 296.242937 7.514328 300.495282 6.008613 303.574209 2.991992 C 306.679096 -0.0557815 308.849402 -3.23855 310.090318 -6.556314 C 312.322929 -11.987271 314.477659 -15.408877 316.559698 -16.826326 C 318.672891 -18.274927 320.90031 -18.996631 323.257532 -18.996631 C 326.725867 -18.996631 328.880597 -17.537646 329.726912 -14.609291 C 330.599188 -11.712088 329.617877 -7.371477 326.782981 -1.577072 C 325.427837 1.408396 324.67498 3.67216 324.524409 5.209027 C 324.399798 6.745894 325.214961 7.514328 326.964705 7.514328 L 336.601277 7.514328 C 337.842194 7.514328 338.64178 8.391796 339.000036 10.14154 C 339.363485 11.860132 339.332332 13.833137 338.91177 16.065748 C 338.486017 18.267206 337.691622 20.245404 336.513011 21.995148 C 335.3344 23.713739 333.81311 24.575631 331.943947 24.575631 C 326.274153 24.575631 322.078921 24.798892 319.363443 25.250606 C 316.647964 25.67636 314.732072 26.745937 313.615767 28.464528 C 312.499461 30.183119 311.326042 33.158203 310.090318 37.379396 C 308.096544 43.802047 308.371727 48.931861 310.905481 52.763645 C 313.439235 56.564276 317.431974 58.464591 322.894083 58.464591 C 326.601256 58.464591 329.908636 57.633852 332.800646 55.977566 C 335.697849 54.316088 338.065455 52.067901 339.908657 49.233004 C 340.900352 47.75325 342.167229 47.228846 343.709288 47.649407 C 345.277308 48.069969 346.570146 48.900708 347.598185 50.136432 C 348.652186 51.377349 348.880639 52.613073 348.278353 53.848798 C 347.162047 55.96199 345.666717 58.869577 343.797554 62.581942 C 341.959544 66.263154 339.742509 70.27147 337.14645 74.617273 C 334.55039 78.931924 331.518193 83.002545 328.049858 86.834329 C 324.612675 90.666113 320.692625 93.817729 316.289708 96.289178 C 311.912752 98.765819 307.073697 100.001543 301.762159 100.001543 Z M 355.30329 100.001543 C 348.994865 100.001543 344.2285 97.405483 341.004194 92.218557 C 337.805849 87.03163 336.206676 80.302644 336.206676 72.03679 C 336.206676 66.818711 336.855691 61.283912 338.153721 55.432394 C 339.451751 49.549723 341.367643 43.776087 343.901397 38.101101 C 346.435151 32.431307 349.61792 27.275533 353.444511 22.628586 C 357.276295 17.98164 361.725941 14.274467 366.793449 11.496683 C 371.860957 8.724092 377.608633 7.332604 384.031284 7.332604 C 387.743649 7.332604 390.609699 7.680476 392.629433 8.37622 C 394.68032 9.040811 396.232764 9.866358 397.291956 10.863245 C 398.345956 11.860132 399.233808 12.706447 399.960705 13.396999 C 400.713562 14.06159 401.710449 14.393886 402.946173 14.393886 C 405.028213 14.393886 406.715652 13.807176 408.013682 12.628565 C 409.311711 11.449954 410.760312 10.276535 412.359485 9.097924 C 413.984618 7.924505 416.217229 7.332604 419.052126 7.332604 C 421.528767 7.332604 423.231782 7.955658 424.166364 9.191382 C 425.100945 10.427107 425.568236 12.098969 425.568236 14.212161 C 425.568236 17.649344 424.602502 21.076143 422.671033 24.482173 C 420.770718 27.893395 418.76656 32.311888 416.653367 37.742845 C 413.579633 44.528944 412.432175 49.715871 413.216185 53.303625 C 414.031347 56.896571 416.476835 58.687852 420.547457 58.687852 C 423.745802 58.687852 426.518393 57.862305 428.870423 56.200827 C 431.227645 54.513389 433.335646 52.187319 435.204808 49.233004 C 436.170543 47.75325 437.421843 47.228846 438.963903 47.649407 C 440.531923 48.069969 441.829952 48.900708 442.8528 50.136432 C 443.9068 51.377349 444.135253 52.613073 443.532967 53.848798 C 441.300356 58.163448 438.917174 62.955774 436.383419 68.236159 C 433.849665 73.485391 431.030345 78.521747 427.920266 83.350417 C 424.846531 88.147935 421.331467 92.125098 417.380264 95.292291 C 413.429062 98.433523 408.859997 100.001543 403.667878 100.001543 C 397.245227 100.001543 392.707315 97.405483 390.04895 92.218557 C 387.395777 87.03163 386.627344 80.603786 387.743649 72.940219 L 387.016752 72.940219 C 383.30958 80.484368 378.724939 86.881058 373.262829 92.125098 C 367.837065 97.374331 361.84536 100.001543 355.30329 100.001543 Z M 373.854731 61.631784 C 377.047884 61.631784 379.85682 60.712779 382.265964 58.869577 C 384.680299 57.000414 386.565038 54.73665 387.925373 52.083477 C 389.280516 49.430304 389.960684 46.803092 389.960684 44.212225 C 389.960684 41.133298 389.083216 38.734539 387.333472 37.015948 C 385.61488 35.266204 383.278427 34.393928 380.324111 34.393928 C 377.125766 34.393928 374.347982 35.266204 371.995952 37.015948 C 369.643922 38.734539 367.821489 40.925613 366.523459 43.578786 C 365.225429 46.231959 364.576414 48.916285 364.576414 51.631763 C 364.576414 54.710689 365.407153 57.150985 367.063439 58.963035 C 368.75607 60.738739 371.014642 61.631784 373.854731 61.631784 Z M 442.598386 100.001543 C 438.283735 100.001543 434.950395 98.703513 432.598365 96.107454 C 430.246335 93.516586 429.067724 90.302665 429.067724 86.470881 C 429.067724 82.15623 429.566167 76.756426 430.563054 70.27147 C 431.554749 63.786513 433.096808 56.77196 435.173656 49.233004 C 437.286848 41.932885 439.607725 35.100056 442.141479 28.734518 C 444.680426 22.374172 447.271293 17.213206 449.924466 13.262004 C 452.582831 9.310801 455.085432 7.332604 457.437462 7.332604 C 459.90891 7.332604 461.539236 8.043924 462.323246 9.461373 C 463.138408 10.878821 463.543394 12.524723 463.543394 14.393886 C 463.543394 17.950487 464.405285 20.167522 466.123877 21.04499 C 467.873621 21.917266 470.225651 20.863266 473.185159 17.877797 C 476.653494 14.560033 480.225672 11.97955 483.906884 10.14154 C 487.619249 8.272377 491.523723 7.332604 495.625497 7.332604 C 501.295291 7.332604 505.490523 9.009658 508.206001 12.358575 C 510.916287 15.676339 512.276622 19.689847 512.276622 24.393907 C 512.276622 27.592252 511.778179 30.515415 510.781292 33.168588 C 509.815558 35.826953 508.839439 38.41782 507.842553 40.951574 C 506.845666 43.485328 506.347222 46.309841 506.347222 49.414728 C 506.347222 55.598542 509.322307 58.687852 515.262091 58.687852 C 518.096988 58.687852 520.464594 57.8 522.364909 56.019103 C 524.296378 54.212246 526.181117 51.948482 528.024319 49.233004 C 529.016014 47.75325 530.314043 47.228846 531.913216 47.649407 C 533.543541 48.069969 534.867532 48.900708 535.895571 50.136432 C 536.949571 51.377349 537.115719 52.613073 536.394015 53.848798 C 535.15829 55.837379 533.66296 58.719005 531.913216 62.488483 C 530.194625 66.232001 528.128161 70.240317 525.713826 74.523815 C 523.299491 78.781353 520.48017 82.851974 517.255864 86.740871 C 514.057519 90.63496 510.448996 93.817729 506.44068 96.289178 C 502.427173 98.765819 497.889261 100.001543 492.821752 100.001543 C 487.027348 100.001543 482.956726 98.085651 480.604697 94.253867 C 478.252667 90.422083 477.074056 85.915324 477.074056 80.723205 C 477.074056 76.019145 477.723071 71.538347 479.0211 67.286001 C 480.31913 63.033656 481.611968 59.144759 482.909997 55.614118 C 484.208027 52.083477 484.857042 49.082432 484.857042 46.610984 C 484.857042 44.528944 484.208027 42.929771 482.909997 41.813466 C 481.611968 40.69716 479.908953 40.136411 477.800952 40.136411 C 474.239159 40.136411 470.936971 41.662894 467.889197 44.710668 C 464.872576 47.727289 462.427088 51.647339 460.557925 56.470818 C 458.719915 61.268335 457.80091 66.455262 457.80091 72.03679 L 457.80091 80.364949 C 457.80091 83.438683 457.421885 86.502034 456.669028 89.549807 C 455.942132 92.566429 454.498723 95.06903 452.323225 97.057611 C 450.152919 99.020232 446.907845 100.001543 442.598386 100.001543 Z M 545.443878 100.001543 C 538.174912 100.001543 532.837413 97.467789 529.426191 92.400281 C 526.020161 87.332773 524.317146 81.086654 524.317146 73.667116 C 524.317146 66.756405 525.293264 59.471862 527.255885 51.813487 C 529.249659 44.149919 532.250704 36.958835 536.25902 30.229848 C 540.30368 23.500862 545.308883 18.012793 551.27982 13.760447 C 557.287101 9.476949 564.239349 7.332604 572.141754 7.332604 C 575.848927 7.332604 578.714976 7.773934 580.739903 8.64621 C 582.79079 9.492525 584.343233 10.499796 585.397233 11.678407 C 586.451234 12.857018 587.344278 13.911019 588.065983 14.8456 C 588.824032 15.780181 589.815727 16.247472 591.051451 16.247472 C 592.048338 16.247472 592.847924 15.131166 593.45021 12.898555 C 594.083648 10.665944 595.007846 7.363757 596.212417 2.991992 C 597.448141 -1.410924 599.37961 -6.769191 602.00163 -13.072424 C 604.327699 -18.742218 606.633 -23.025716 608.927916 -25.922918 C 611.217641 -28.814928 613.403523 -30.761973 615.485563 -31.75886 C 617.598755 -32.755747 619.587337 -33.248998 621.461692 -33.248998 C 624.654845 -33.248998 626.783614 -31.665402 627.837614 -28.498209 C 628.896806 -25.362169 628.185486 -21.140977 625.714037 -15.829439 L 604.763837 37.742845 C 601.684911 44.528944 600.542644 49.715871 601.326654 53.303625 C 602.141817 56.896571 604.582113 58.687852 608.652734 58.687852 C 611.851079 58.687852 614.628863 57.862305 616.980893 56.200827 C 619.332923 54.513389 621.446115 52.187319 623.315278 49.233004 C 624.281012 47.75325 625.532313 47.228846 627.06918 47.649407 C 628.6372 48.069969 629.93523 48.900708 630.963269 50.136432 C 632.017269 51.377349 632.245723 52.613073 631.638245 53.848798 C 629.405634 58.163448 627.022451 62.955774 624.488697 68.236159 C 621.954943 73.485391 619.135622 78.521747 616.030735 83.350417 C 612.951809 88.147935 609.436744 92.125098 605.485542 95.292291 C 601.534339 98.433523 596.965274 100.001543 591.778348 100.001543 C 585.864524 100.001543 581.477184 97.405483 578.611134 92.218557 C 575.776237 87.03163 574.857232 80.603786 575.848927 72.940219 L 575.127222 72.940219 C 571.295438 80.484368 566.81464 86.881058 561.690018 92.125098 C 556.560205 97.374331 551.144825 100.001543 545.443878 100.001543 Z M 562.323457 61.631784 C 565.397191 61.631784 568.112669 60.712779 570.464699 58.869577 C 572.821921 57.000414 574.675508 54.73665 576.030651 52.083477 C 577.390986 49.430304 578.065961 46.803092 578.065961 44.212225 C 578.065961 41.496747 577.266375 39.186254 575.672395 37.285938 C 574.073222 35.359662 571.477162 34.393928 567.889408 34.393928 C 564.9299 34.393928 562.30788 35.266204 560.012964 37.015948 C 557.723239 38.734539 555.926766 40.925613 554.628736 43.578786 C 553.335899 46.231959 552.686884 48.916285 552.686884 51.631763 C 552.686884 54.347241 553.424165 56.699271 554.903919 58.687852 C 556.378481 60.650473 558.855121 61.631784 562.323457 61.631784 Z M 638.668374 100.001543 C 632.365141 100.001543 627.598776 97.405483 624.369278 92.218557 C 621.170933 87.03163 619.57176 80.302644 619.57176 72.03679 C 619.57176 66.818711 620.220775 61.283912 621.518805 55.432394 C 622.816835 49.549723 624.732727 43.776087 627.266481 38.101101 C 629.800235 32.431307 632.983004 27.275533 636.814787 22.628586 C 640.641379 17.98164 645.091025 14.274467 650.158533 11.496683 C 655.226041 8.724092 660.973717 7.332604 667.40156 7.332604 C 671.108733 7.332604 673.974783 7.680476 675.994517 8.37622 C 678.045404 9.040811 679.60304 9.866358 680.65704 10.863245 C 681.71104 11.860132 682.604084 12.706447 683.325789 13.396999 C 684.078646 14.06159 685.075533 14.393886 686.311257 14.393886 C 688.393297 14.393886 690.080736 13.807176 691.378765 12.628565 C 692.676795 11.449954 694.125396 10.276535 695.724569 9.097924 C 697.354894 7.924505 699.582313 7.332604 702.422402 7.332604 C 704.893851 7.332604 706.596866 7.955658 707.531448 9.191382 C 708.466029 10.427107 708.93332 12.098969 708.93332 14.212161 C 708.93332 17.649344 707.972778 21.076143 706.041309 24.482173 C 704.140994 27.893395 702.131644 32.311888 700.023644 37.742845 C 696.944717 44.528944 695.797259 49.715871 696.581269 53.303625 C 697.396431 56.896571 699.841919 58.687852 703.912541 58.687852 C 707.110886 58.687852 709.883477 57.862305 712.240699 56.200827 C 714.592729 54.513389 716.70073 52.187319 718.575085 49.233004 C 719.540819 47.75325 720.792119 47.228846 722.328987 47.649407 C 723.897006 48.069969 725.195036 48.900708 726.217884 50.136432 C 727.277076 51.377349 727.500337 52.613073 726.898051 53.848798 C 724.66544 58.163448 722.282257 62.955774 719.748503 68.236159 C 717.214749 73.485391 714.395429 78.521747 711.290542 83.350417 C 708.211615 88.147935 704.696551 92.125098 700.745348 95.292291 C 696.794146 98.433523 692.225081 100.001543 687.038154 100.001543 C 680.610311 100.001543 676.072399 97.405483 673.419226 92.218557 C 670.760861 87.03163 669.992427 80.603786 671.108733 72.940219 L 670.387029 72.940219 C 666.674663 80.484368 662.090022 86.881058 656.633105 92.125098 C 651.202149 97.374331 645.215636 100.001543 638.668374 100.001543 Z M 657.219815 61.631784 C 660.41816 61.631784 663.221904 60.712779 665.63624 58.869577 C 668.045383 57.000414 669.935314 54.73665 671.290457 52.083477 C 672.6456 49.430304 673.325768 46.803092 673.325768 44.212225 C 673.325768 41.133298 672.453492 38.734539 670.703748 37.015948 C 668.985156 35.266204 666.643511 34.393928 663.689195 34.393928 C 660.49085 34.393928 657.718258 35.266204 655.366228 37.015948 C 653.009006 38.734539 651.186573 40.925613 649.888543 43.578786 C 648.590513 46.231959 647.941498 48.916285 647.941498 51.631763 C 647.941498 54.710689 648.772237 57.150985 650.433715 58.963035 C 652.121154 60.738739 654.384918 61.631784 657.219815 61.631784 Z M 791.752809 49.233004 C 792.744504 47.75325 794.042533 47.228846 795.641706 47.649407 C 797.240879 48.069969 798.570061 48.900708 799.624061 50.136432 C 800.678062 51.377349 800.828633 52.613073 800.075776 53.848798 C 798.840051 55.837379 797.360297 58.719005 795.641706 62.488483 C 793.923115 66.232001 791.856651 70.240317 789.442316 74.523815 C 787.033173 78.781353 784.20866 82.851974 780.984354 86.740871 C 777.786009 90.63496 774.182678 93.817729 770.169171 96.289178 C 766.155663 98.765819 761.617751 100.001543 756.550243 100.001543 C 751.482734 100.001543 747.45365 99.051385 744.468182 97.15107 C 741.513866 95.219601 739.385097 92.742961 738.087068 89.731532 C 736.79423 86.683758 736.145215 83.620408 736.145215 80.541481 C 736.145215 76.232022 736.79423 71.979677 738.087068 67.784445 C 739.385097 63.563252 740.896004 59.534168 742.614595 55.702384 C 744.364339 51.8706 745.88563 48.360728 747.18366 45.162383 C 748.48169 41.932885 749.130705 39.20183 749.130705 36.969219 C 749.130705 36.008677 748.419384 34.575652 747.001936 32.675336 C 745.584487 30.743868 743.019581 29.097966 739.312408 27.742823 C 738.196102 30.183119 736.86692 33.049169 735.330052 36.33578 C 733.793185 39.627584 732.235549 42.836313 730.66753 45.977545 C 729.130662 49.113585 727.879362 51.735605 726.913628 53.848798 C 726.16077 55.44797 724.93543 56.03468 723.247992 55.614118 C 721.591706 55.188364 720.200218 54.300512 719.083912 52.945369 C 717.998759 51.585034 717.817035 50.349309 718.543932 49.233004 C 720.293676 46.761555 722.209568 43.142648 724.286415 38.376283 C 726.399608 33.609918 728.253194 29.129119 729.852367 24.933887 C 728.014357 24.331601 726.534603 23.293177 725.418297 21.813424 C 724.301992 20.307709 723.746435 17.893374 723.746435 14.57561 C 723.746435 11.97955 724.426603 9.414644 725.781746 6.880889 C 727.136889 4.347135 729.052781 2.223559 731.529421 0.504967 C 734.00087 -1.244777 736.898072 -2.122245 740.215836 -2.122245 C 746.036202 -2.122245 751.633306 -1.005939 757.001957 1.226672 C 762.370608 3.459283 766.789101 6.278604 770.257437 9.689826 C 773.730964 13.064703 775.465132 16.41362 775.465132 19.731384 C 775.465132 23.199719 774.816117 26.491523 773.518087 29.59641 C 772.220058 32.675336 770.890875 35.826953 769.535732 39.051258 C 768.180589 42.249604 767.500421 45.764668 767.500421 49.596452 C 767.500421 52.187319 768.357121 54.362817 770.080905 56.112561 C 771.799496 57.831153 774.769388 58.687852 778.990581 58.687852 C 781.825478 58.687852 784.193084 57.8 786.093399 56.019103 C 788.024868 54.212246 789.909607 51.948482 791.752809 49.233004 Z M 809.167176 100.001543 C 801.898209 100.001543 796.560711 97.467789 793.149489 92.400281 C 789.743459 87.332773 788.035252 81.086654 788.035252 73.667116 C 788.035252 66.756405 789.016562 59.471862 790.979183 51.813487 C 792.967765 44.149919 795.96881 36.958835 799.982318 30.229848 C 804.021786 23.500862 809.032181 18.012793 815.003118 13.760447 C 821.005207 9.476949 827.957454 7.332604 835.865052 7.332604 C 839.572225 7.332604 842.438274 7.773934 844.458009 8.64621 C 846.508895 9.492525 848.066531 10.499796 849.120531 11.678407 C 850.174531 12.857018 851.067576 13.911019 851.78928 14.8456 C 852.542138 15.780181 853.539025 16.247472 854.774749 16.247472 C 855.771636 16.247472 856.571222 15.131166 857.173508 12.898555 C 857.806946 10.665944 858.725951 7.363757 859.935715 2.991992 C 861.171439 -1.410924 863.102908 -6.769191 865.724928 -13.072424 C 868.045805 -18.742218 870.356298 -23.025716 872.646022 -25.922918 C 874.940939 -28.814928 877.126821 -30.761973 879.208861 -31.75886 C 881.322053 -32.755747 883.310635 -33.248998 885.179797 -33.248998 C 888.378143 -33.248998 890.506911 -31.665402 891.560912 -28.498209 C 892.614912 -25.362169 891.908784 -21.140977 889.432143 -15.829439 L 868.487135 37.742845 C 865.408208 44.528944 864.26075 49.715871 865.04476 53.303625 C 865.859923 56.896571 868.305411 58.687852 872.376032 58.687852 C 875.574377 58.687852 878.346969 57.862305 880.704191 56.200827 C 883.056221 54.513389 885.164221 52.187319 887.038576 49.233004 C 888.00431 47.75325 889.255611 47.228846 890.792478 47.649407 C 892.360498 48.069969 893.658528 48.900708 894.681375 50.136432 C 895.740567 51.377349 895.963829 52.613073 895.361543 53.848798 C 893.128932 58.163448 890.745749 62.955774 888.211995 68.236159 C 885.678241 73.485391 882.85892 78.521747 879.754033 83.350417 C 876.675107 88.147935 873.160042 92.125098 869.20884 95.292291 C 865.257637 98.433523 860.688572 100.001543 855.501646 100.001543 C 849.587822 100.001543 845.200482 97.405483 842.334432 92.218557 C 839.499535 87.03163 838.575338 80.603786 839.572225 72.940219 L 838.85052 72.940219 C 835.018736 80.484368 830.537938 86.881058 825.408124 92.125098 C 820.283503 97.374331 814.868123 100.001543 809.167176 100.001543 Z M 826.041563 61.631784 C 829.120489 61.631784 831.835967 60.712779 834.187997 58.869577 C 836.540027 57.000414 838.398806 54.73665 839.753949 52.083477 C 841.109092 49.430304 841.789259 46.803092 841.789259 44.212225 C 841.789259 41.496747 840.989673 39.186254 839.3905 37.285938 C 837.791328 35.359662 835.20046 34.393928 831.607514 34.393928 C 828.653198 34.393928 826.031178 35.266204 823.736262 37.015948 C 821.446537 38.734539 819.650064 40.925613 818.352034 43.578786 C 817.054005 46.231959 816.40499 48.916285 816.40499 51.631763 C 816.40499 54.347241 817.147463 56.699271 818.622025 58.687852 C 820.101779 60.650473 822.573227 61.631784 826.041563 61.631784 Z M 982.454146 102.218578 C 976.394943 102.218578 971.415701 100.588252 967.521612 97.332794 C 963.632715 94.04099 961.68567 89.741916 961.68567 84.43557 C 961.68567 80.484368 962.770823 76.93815 964.946321 73.802111 C 967.116627 70.634918 969.920371 67.389844 973.362746 64.07208 C 976.831081 60.728355 980.60056 56.761576 984.671181 52.176935 C 989.738689 46.501949 994.068916 40.681584 997.65667 34.710647 C 1001.249617 28.708558 1004.582957 22.223601 1007.656691 15.250585 C 1010.766771 8.256801 1014.037806 0.427086 1017.474988 -8.228177 C 1012.049224 -9.469093 1007.007677 -9.645625 1002.365922 -8.773349 C 997.750128 -7.927034 994.006611 -6.17729 991.140561 -3.524117 C 988.305664 -0.870944 986.888216 2.571431 986.888216 6.792623 C 986.888216 9.508102 987.568383 11.766673 988.923526 13.578723 C 990.315014 15.35962 991.986876 16.247472 993.949497 16.247472 C 994.821773 18.210093 994.884079 20.577699 994.131222 23.350291 C 993.404325 26.128074 991.955724 28.781247 989.785418 31.315001 C 987.615112 33.848755 984.821752 35.9931 981.415722 37.742845 C 978.035653 39.461436 974.115603 40.318136 969.650381 40.318136 C 964.614025 40.318136 960.36168 39.186254 956.893344 36.927682 C 953.419817 34.632765 950.828949 31.662873 949.110358 28.012814 C 947.360614 24.362754 946.483146 20.442704 946.483146 16.247472 C 946.483146 6.475904 949.198624 -2.511654 954.629581 -10.720394 C 960.086498 -18.955094 967.853908 -25.528317 977.93181 -30.445254 C 988.004521 -35.393343 999.889281 -37.864792 1013.586091 -37.864792 C 1022.604802 -37.864792 1029.120911 -36.691373 1033.129227 -34.339343 C 1037.142735 -32.013274 1039.390922 -28.62282 1039.87379 -24.157598 C 1040.387809 -19.723528 1039.842637 -14.354877 1038.243464 -8.046453 C 1036.888321 -2.496077 1035.242419 3.864268 1033.310951 11.044969 C 1031.410636 18.194517 1029.344172 25.598478 1027.111561 33.262046 C 1024.884142 40.925613 1022.677492 48.313999 1020.507186 55.432394 C 1018.368033 62.519636 1016.374259 68.734603 1014.536249 74.072101 C 1011.550781 83.215422 1007.282859 90.198822 1001.732484 95.022301 C 996.182109 99.819819 989.754265 102.218578 982.454146 102.218578 Z M 1046.966224 100.001543 C 1040.029553 100.001543 1034.915316 97.872774 1031.628705 93.620429 C 1028.373246 89.336931 1026.742921 83.770979 1026.742921 76.922574 C 1026.742921 70.079361 1028.098064 62.70136 1030.813542 54.798955 C 1032.443867 50.094896 1034.24034 45.027387 1036.197769 39.596431 C 1038.191543 34.134322 1040.346272 28.194538 1042.66715 21.766695 C 1039.951671 21.766695 1037.885208 21.060566 1036.467759 19.643118 C 1035.050311 18.225669 1034.11573 16.564191 1033.664015 14.663876 C 1033.243454 12.732408 1033.243454 11.060545 1033.664015 9.643097 C 1034.11573 8.225648 1034.89974 7.514328 1036.016045 7.514328 C 1041.447002 7.514328 1045.699347 6.008613 1048.778274 2.991992 C 1051.883161 -0.0557815 1054.053466 -3.23855 1055.294383 -6.556314 C 1057.526994 -11.987271 1059.681723 -15.408877 1061.763763 -16.826326 C 1063.871763 -18.274927 1066.104374 -18.996631 1068.461596 -18.996631 C 1071.929932 -18.996631 1074.084661 -17.537646 1074.930977 -14.609291 C 1075.803253 -11.712088 1074.821942 -7.371477 1071.987045 -1.577072 C 1070.631902 1.408396 1069.879045 3.67216 1069.728473 5.209027 C 1069.603863 6.745894 1070.419025 7.514328 1072.168769 7.514328 L 1081.805342 7.514328 C 1083.046259 7.514328 1083.840653 8.391796 1084.204101 10.14154 C 1084.567549 11.860132 1084.536397 13.833137 1084.115835 16.065748 C 1083.690081 18.267206 1082.890495 20.245404 1081.717076 21.995148 C 1080.538465 23.713739 1079.017174 24.575631 1077.148011 24.575631 C 1071.478218 24.575631 1067.282985 24.798892 1064.567507 25.250606 C 1061.852029 25.67636 1059.936137 26.745937 1058.819832 28.464528 C 1057.703526 30.183119 1056.530107 33.158203 1055.294383 37.379396 C 1053.300609 43.802047 1053.575791 48.931861 1056.109545 52.763645 C 1058.6433 56.564276 1062.636039 58.464591 1068.098148 58.464591 C 1071.805321 58.464591 1075.112701 57.633852 1078.004711 55.977566 C 1080.901913 54.316088 1083.26952 52.067901 1085.10753 49.233004 C 1086.104417 47.75325 1087.371294 47.228846 1088.913353 47.649407 C 1090.481373 48.069969 1091.774211 48.900708 1092.80225 50.136432 C 1093.85625 51.377349 1094.084703 52.613073 1093.482418 53.848798 C 1092.366112 55.96199 1090.870782 58.869577 1089.001619 62.581942 C 1087.163609 66.263154 1084.946574 70.27147 1082.350515 74.617273 C 1079.754455 78.931924 1076.722258 83.002545 1073.253922 86.834329 C 1069.81674 90.666113 1065.89669 93.817729 1061.493773 96.289178 C 1057.116817 98.765819 1052.277762 100.001543 1046.966224 100.001543 Z M 1118.108638 -0.268658 C 1113.674568 -0.268658 1109.842785 -1.218816 1106.613287 -3.119132 C 1103.414941 -5.045408 1101.815769 -8.487783 1101.815769 -13.43068 C 1101.815769 -19.977942 1103.643394 -24.458741 1107.293454 -26.873076 C 1110.943514 -29.282219 1115.284125 -30.491983 1120.325673 -30.491983 C 1125.029732 -30.491983 1129.012088 -29.437983 1132.267546 -27.32479 C 1135.554158 -25.211598 1136.961222 -21.260395 1136.478355 -15.471183 C 1135.964335 -9.770236 1133.970561 -5.803457 1130.502226 -3.570846 C 1127.065043 -1.369388 1122.932116 -0.268658 1118.108638 -0.268658 Z M 1097.563423 100.001543 C 1091.37961 100.001543 1086.992269 97.753355 1084.39621 93.25698 C 1081.805342 88.734645 1080.507312 83.256959 1080.507312 76.834308 C 1080.507312 72.519657 1080.927874 67.950593 1081.774189 63.121922 C 1082.646465 58.298443 1083.762771 53.667073 1085.123106 49.233004 C 1089.463718 35.749071 1093.674526 25.401178 1097.745147 18.194517 C 1101.815769 10.956703 1106.509444 7.332604 1111.81579 7.332604 C 1116.011022 7.332604 1118.108638 10.110387 1118.108638 15.660763 C 1118.108638 19.373128 1117.397318 23.173759 1115.979869 27.062656 C 1114.562421 30.951553 1113.176125 34.783337 1111.81579 38.552815 C 1110.460647 42.327486 1109.780479 45.884087 1109.780479 49.233004 C 1109.780479 52.31193 1110.548913 54.617231 1112.090972 56.154098 C 1113.627839 57.696158 1115.631997 58.464591 1118.108638 58.464591 C 1120.969495 58.464591 1123.352678 57.6027 1125.252994 55.884108 C 1127.153309 54.165517 1129.04324 51.948482 1130.912403 49.233004 C 1131.904098 47.75325 1133.170975 47.197693 1134.713034 47.561141 C 1136.249901 47.919398 1137.547931 48.750137 1138.601931 50.048166 C 1139.661124 51.346196 1139.868808 52.550768 1139.23537 53.667073 C 1137.999646 55.660847 1136.551044 58.51132 1134.894758 62.218493 C 1133.23328 65.899706 1131.229122 69.913214 1128.877093 74.253825 C 1126.519871 78.568476 1123.819969 82.67025 1120.777387 86.564339 C 1117.760766 90.453236 1114.333967 93.667158 1110.502184 96.200912 C 1106.675592 98.734666 1102.360941 100.001543 1097.563423 100.001543 Z M 1138.134641 100.001543 C 1133.81999 100.001543 1130.486649 98.703513 1128.13462 96.107454 C 1125.78259 93.516586 1124.603979 90.302665 1124.603979 86.470881 C 1124.603979 82.15623 1125.102422 76.756426 1126.099309 70.27147 C 1127.091004 63.786513 1128.633063 56.77196 1130.709911 49.233004 C 1132.823103 41.932885 1135.14398 35.100056 1137.677734 28.734518 C 1140.211488 22.374172 1142.807548 17.213206 1145.460721 13.262004 C 1148.119085 9.310801 1150.621687 7.332604 1152.973717 7.332604 C 1155.445165 7.332604 1157.075491 8.043924 1157.859501 9.461373 C 1158.674663 10.878821 1159.079649 12.524723 1159.079649 14.393886 C 1159.079649 17.950487 1159.94154 20.167522 1161.660132 21.04499 C 1163.409876 21.917266 1165.761906 20.863266 1168.721413 17.877797 C 1172.189749 14.560033 1175.761927 11.97955 1179.443139 10.14154 C 1183.155504 8.272377 1187.059978 7.332604 1191.161752 7.332604 C 1196.831545 7.332604 1201.026778 9.009658 1203.742256 12.358575 C 1206.452542 15.676339 1207.812877 19.689847 1207.812877 24.393907 C 1207.812877 27.592252 1207.314434 30.515415 1206.317547 33.168588 C 1205.351813 35.826953 1204.375694 38.41782 1203.378807 40.951574 C 1202.381921 43.485328 1201.883477 46.309841 1201.883477 49.414728 C 1201.883477 55.598542 1204.858561 58.687852 1210.798345 58.687852 C 1213.633242 58.687852 1216.000849 57.8 1217.901164 56.019103 C 1219.832632 54.212246 1221.717372 51.948482 1223.560574 49.233004 C 1224.552269 47.75325 1225.850298 47.228846 1227.449471 47.649407 C 1229.079796 48.069969 1230.403787 48.900708 1231.431826 50.136432 C 1232.485826 51.377349 1232.651974 52.613073 1231.93027 53.848798 C 1230.694545 55.837379 1229.199215 58.719005 1227.449471 62.488483 C 1225.73088 66.232001 1223.664416 70.240317 1221.250081 74.523815 C 1218.835746 78.781353 1216.016425 82.851974 1212.786927 86.740871 C 1209.593774 90.63496 1205.985251 93.817729 1201.976935 96.289178 C 1197.963427 98.765819 1193.425515 100.001543 1188.358007 100.001543 C 1182.563603 100.001543 1178.492981 98.085651 1176.140951 94.253867 C 1173.788922 90.422083 1172.610311 85.915324 1172.610311 80.723205 C 1172.610311 76.019145 1173.259325 71.538347 1174.557355 67.286001 C 1175.855385 63.033656 1177.148222 59.144759 1178.446252 55.614118 C 1179.744282 52.083477 1180.393297 49.082432 1180.393297 46.610984 C 1180.393297 44.528944 1179.744282 42.929771 1178.446252 41.813466 C 1177.148222 40.69716 1175.445207 40.136411 1173.332015 40.136411 C 1169.775414 40.136411 1166.473226 41.662894 1163.425452 44.710668 C 1160.408831 47.727289 1157.963343 51.647339 1156.09418 56.470818 C 1154.25617 61.268335 1153.337165 66.455262 1153.337165 72.03679 L 1153.337165 80.364949 C 1153.337165 83.438683 1152.95814 86.502034 1152.205283 89.549807 C 1151.478386 92.566429 1150.034977 95.06903 1147.859479 97.057611 C 1145.689174 99.020232 1142.444099 100.001543 1138.134641 100.001543 Z M 1254.147347 100.001543 C 1246.727809 100.001543 1240.632261 98.340065 1235.871088 95.022301 C 1231.130683 91.673384 1227.620811 87.254891 1225.325894 81.766821 C 1223.03617 76.247599 1221.919864 70.183204 1221.976978 63.578828 C 1222.039283 56.969261 1223.186741 50.364886 1225.41416 43.76051 C 1227.646771 37.150943 1230.860693 31.102124 1235.055925 25.614055 C 1239.245965 20.094832 1244.344626 15.676339 1250.346715 12.358575 C 1256.348805 9.009658 1263.12452 7.332604 1270.663477 7.332604 C 1276.45269 7.332604 1281.177518 8.422949 1284.827577 10.593255 C 1288.477637 12.732408 1291.161963 15.598457 1292.880554 19.191404 C 1294.599145 22.779158 1295.455845 26.610941 1295.455845 30.681563 C 1295.455845 35.146785 1294.220121 39.596431 1291.748672 44.030501 C 1289.303184 48.46457 1285.850425 52.145782 1281.385203 55.068945 C 1276.951133 57.966148 1271.701901 59.414749 1265.642698 59.414749 C 1263.046638 59.414749 1260.512884 59.233025 1258.041436 58.869577 C 1255.564795 58.480168 1253.290647 57.665005 1251.208607 56.429281 C 1250.575169 56.065832 1249.879425 56.050256 1249.126568 56.382552 C 1248.399671 56.683694 1248.041415 57.452128 1248.041415 58.687852 C 1248.041415 61.886198 1249.926154 64.331686 1253.695632 66.019124 C 1257.465111 67.680602 1262.008215 68.506149 1267.31456 68.506149 C 1273.617793 68.506149 1280.133902 66.912169 1286.862888 63.713824 C 1293.586682 60.484326 1299.048791 55.660847 1303.238831 49.233004 C 1304.235718 47.75325 1305.533748 47.228846 1307.13292 47.649407 C 1308.763246 48.069969 1310.087236 48.900708 1311.115276 50.136432 C 1312.169276 51.377349 1312.335424 52.613073 1311.613719 53.848798 C 1303.436132 68.931903 1294.495303 80.39091 1284.780848 88.236201 C 1275.097547 96.076301 1264.884649 100.001543 1254.147347 100.001543 Z M 1260.84518 45.520639 C 1264.401781 45.520639 1267.195141 44.378373 1269.214876 42.083456 C 1271.265763 39.793732 1272.293802 37.467662 1272.293802 35.115632 C 1272.293802 33.033593 1271.582482 31.257888 1270.165034 29.778134 C 1268.747585 28.267227 1266.618816 27.51437 1263.783919 27.51437 C 1260.196165 27.51437 1257.345692 28.630676 1255.232499 30.863287 C 1253.15046 33.095898 1252.112036 35.447928 1252.112036 37.919377 C 1252.112036 39.881998 1252.823356 41.647318 1254.240805 43.215338 C 1255.658253 44.752205 1257.859712 45.520639 1260.84518 45.520639 Z M 1376.463285 49.233004 C 1377.45498 47.75325 1378.753009 47.228846 1380.352182 47.649407 C 1381.951355 48.069969 1383.280537 48.900708 1384.334537 50.136432 C 1385.388537 51.377349 1385.539109 52.613073 1384.786251 53.848798 C 1383.550527 55.837379 1382.070773 58.719005 1380.352182 62.488483 C 1378.633591 66.232001 1376.567127 70.240317 1374.152792 74.523815 C 1371.738457 78.781353 1368.919136 82.851974 1365.69483 86.740871 C 1362.496485 90.63496 1358.893154 93.817729 1354.879646 96.289178 C 1350.866138 98.765819 1346.328226 100.001543 1341.260718 100.001543 C 1336.19321 100.001543 1332.164126 99.051385 1329.178658 97.15107 C 1326.224342 95.219601 1324.095573 92.742961 1322.797543 89.731532 C 1321.499514 86.683758 1320.855691 83.620408 1320.855691 80.541481 C 1320.855691 76.232022 1321.499514 71.979677 1322.797543 67.784445 C 1324.095573 63.563252 1325.60648 59.534168 1327.325071 55.702384 C 1329.074815 51.8706 1330.596106 48.360728 1331.894136 45.162383 C 1333.192165 41.932885 1333.84118 39.20183 1333.84118 36.969219 C 1333.84118 36.008677 1333.12986 34.575652 1331.712412 32.675336 C 1330.294963 30.743868 1327.730056 29.097966 1324.022883 27.742823 C 1322.906578 30.183119 1321.577395 33.049169 1320.040528 36.33578 C 1318.498469 39.627584 1316.946025 42.836313 1315.378005 45.977545 C 1313.841138 49.113585 1312.589837 51.735605 1311.624103 53.848798 C 1310.871246 55.44797 1309.645906 56.03468 1307.958467 55.614118 C 1306.296989 55.188364 1304.910694 54.300512 1303.794388 52.945369 C 1302.709235 51.585034 1302.527511 50.349309 1303.254408 49.233004 C 1305.004152 46.761555 1306.920044 43.142648 1308.996891 38.376283 C 1311.110084 33.609918 1312.96367 29.129119 1314.562843 24.933887 C 1312.724833 24.331601 1311.245079 23.293177 1310.128773 21.813424 C 1309.012468 20.307709 1308.456911 17.893374 1308.456911 14.57561 C 1308.456911 11.97955 1309.137078 9.414644 1310.492221 6.880889 C 1311.847364 4.347135 1313.763256 2.223559 1316.239897 0.504967 C 1318.711346 -1.244777 1321.608548 -2.122245 1324.926312 -2.122245 C 1330.746677 -2.122245 1336.343782 -1.005939 1341.712433 1.226672 C 1347.081084 3.459283 1351.499577 6.278604 1354.967912 9.689826 C 1358.436248 13.064703 1360.170416 16.41362 1360.170416 19.731384 C 1360.170416 23.199719 1359.526593 26.491523 1358.228563 29.59641 C 1356.930533 32.675336 1355.601351 35.826953 1354.246208 39.051258 C 1352.885873 42.249604 1352.210897 45.764668 1352.210897 49.596452 C 1352.210897 52.187319 1353.067597 54.362817 1354.786188 56.112561 C 1356.509972 57.831153 1359.479864 58.687852 1363.701056 58.687852 C 1366.535953 58.687852 1368.90356 57.8 1370.803875 56.019103 C 1372.735343 54.212246 1374.620083 51.948482 1376.463285 49.233004 Z M 1391.842341 100.001543 C 1385.539109 100.001543 1380.772744 97.405483 1377.543246 92.218557 C 1374.3449 87.03163 1372.745728 80.302644 1372.745728 72.03679 C 1372.745728 66.818711 1373.394743 61.283912 1374.692772 55.432394 C 1375.990802 49.549723 1377.906694 43.776087 1380.440448 38.101101 C 1382.974202 32.431307 1386.156971 27.275533 1389.983563 22.628586 C 1393.815346 17.98164 1398.264992 14.274467 1403.3325 11.496683 C 1408.400008 8.724092 1414.147684 7.332604 1420.570335 7.332604 C 1424.2827 7.332604 1427.14875 7.680476 1429.168484 8.37622 C 1431.219371 9.040811 1432.771815 9.866358 1433.831007 10.863245 C 1434.885007 11.860132 1435.77286 12.706447 1436.499756 13.396999 C 1437.252613 14.06159 1438.2495 14.393886 1439.485225 14.393886 C 1441.567264 14.393886 1443.254703 13.807176 1444.552733 12.628565 C 1445.850762 11.449954 1447.299364 10.276535 1448.898536 9.097924 C 1450.52367 7.924505 1452.756281 7.332604 1455.591178 7.332604 C 1458.067818 7.332604 1459.770833 7.955658 1460.705415 9.191382 C 1461.639996 10.427107 1462.107287 12.098969 1462.107287 14.212161 C 1462.107287 17.649344 1461.141553 21.076143 1459.215277 24.482173 C 1457.314961 27.893395 1455.305611 32.311888 1453.197611 37.742845 C 1450.118684 44.528944 1448.971226 49.715871 1449.755236 53.303625 C 1450.570399 56.896571 1453.015887 58.687852 1457.086508 58.687852 C 1460.284853 58.687852 1463.057445 57.862305 1465.409475 56.200827 C 1467.766697 54.513389 1469.874697 52.187319 1471.749052 49.233004 C 1472.709594 47.75325 1473.966087 47.228846 1475.502954 47.649407 C 1477.070974 48.069969 1478.369003 48.900708 1479.391851 50.136432 C 1480.451043 51.377349 1480.674304 52.613073 1480.072018 53.848798 C 1477.839407 58.163448 1475.456225 62.955774 1472.922471 68.236159 C 1470.388717 73.485391 1467.569396 78.521747 1464.459317 83.350417 C 1461.385582 88.147935 1457.870518 92.125098 1453.919315 95.292291 C 1449.968113 98.433523 1445.399048 100.001543 1440.212121 100.001543 C 1433.784278 100.001543 1429.246366 97.405483 1426.588001 92.218557 C 1423.934828 87.03163 1423.166395 80.603786 1424.2827 72.940219 L 1423.560996 72.940219 C 1419.848631 80.484368 1415.26399 86.881058 1409.801881 92.125098 C 1404.376116 97.374331 1398.384411 100.001543 1391.842341 100.001543 Z M 1410.393782 61.631784 C 1413.586935 61.631784 1416.395872 60.712779 1418.810207 58.869577 C 1421.21935 57.000414 1423.104089 54.73665 1424.464425 52.083477 C 1425.819568 49.430304 1426.499735 46.803092 1426.499735 44.212225 C 1426.499735 41.133298 1425.627459 38.734539 1423.877715 37.015948 C 1422.153932 35.266204 1419.817478 34.393928 1416.863162 34.393928 C 1413.664817 34.393928 1410.892226 35.266204 1408.535004 37.015948 C 1406.182974 38.734539 1404.36054 40.925613 1403.06251 43.578786 C 1401.76448 46.231959 1401.115466 48.916285 1401.115466 51.631763 C 1401.115466 54.710689 1401.946205 57.150985 1403.607683 58.963035 C 1405.295121 60.738739 1407.558885 61.631784 1410.393782 61.631784 Z M 1544.926776 49.233004 C 1545.918471 47.75325 1547.216501 47.228846 1548.815673 47.649407 C 1550.414846 48.069969 1551.744029 48.900708 1552.798029 50.136432 C 1553.852029 51.377349 1554.0026 52.613073 1553.249743 53.848798 C 1552.014019 55.837379 1550.534265 58.719005 1548.815673 62.488483 C 1547.097082 66.232001 1545.030619 70.240317 1542.616283 74.523815 C 1540.201948 78.781353 1537.382627 82.851974 1534.158322 86.740871 C 1530.959976 90.63496 1527.351454 93.817729 1523.343138 96.289178 C 1519.32963 98.765819 1514.791718 100.001543 1509.72421 100.001543 C 1504.656702 100.001543 1500.627617 99.051385 1497.642149 97.15107 C 1494.687833 95.219601 1492.559065 92.742961 1491.261035 89.731532 C 1489.963005 86.683758 1489.319182 83.620408 1489.319182 80.541481 C 1489.319182 76.232022 1489.963005 71.979677 1491.261035 67.784445 C 1492.559065 63.563252 1494.069971 59.534168 1495.788563 55.702384 C 1497.538307 51.8706 1499.059598 48.360728 1500.357627 45.162383 C 1501.655657 41.932885 1502.304672 39.20183 1502.304672 36.969219 C 1502.304672 36.008677 1501.593352 34.575652 1500.175903 32.675336 C 1498.758455 30.743868 1496.193548 29.097966 1492.486375 27.742823 C 1491.370069 30.183119 1490.040887 33.049169 1488.50402 36.33578 C 1486.96196 39.627584 1485.409517 42.836313 1483.841497 45.977545 C 1482.30463 49.113585 1481.053329 51.735605 1480.087595 53.848798 C 1479.334738 55.44797 1478.109398 56.03468 1476.421959 55.614118 C 1474.760481 55.188364 1473.374185 54.300512 1472.257879 52.945369 C 1471.172727 51.585034 1470.991002 50.349309 1471.717899 49.233004 C 1473.467643 46.761555 1475.378343 43.142648 1477.460383 38.376283 C 1479.573575 33.609918 1481.427162 29.129119 1483.026334 24.933887 C 1481.188324 24.331601 1479.70857 23.293177 1478.592265 21.813424 C 1477.475959 20.307709 1476.920402 17.893374 1476.920402 14.57561 C 1476.920402 11.97955 1477.595378 9.414644 1478.955713 6.880889 C 1480.310856 4.347135 1482.226748 2.223559 1484.703389 0.504967 C 1487.174837 -1.244777 1490.07204 -2.122245 1493.389804 -2.122245 C 1499.210169 -2.122245 1504.807273 -1.005939 1510.175924 1.226672 C 1515.544575 3.459283 1519.963068 6.278604 1523.431404 9.689826 C 1526.899739 13.064703 1528.633907 16.41362 1528.633907 19.731384 C 1528.633907 23.199719 1527.984892 26.491523 1526.692055 29.59641 C 1525.394025 32.675336 1524.064842 35.826953 1522.709699 39.051258 C 1521.349364 42.249604 1520.674389 45.764668 1520.674389 49.596452 C 1520.674389 52.187319 1521.531088 54.362817 1523.24968 56.112561 C 1524.973463 57.831153 1527.943355 58.687852 1532.164548 58.687852 C 1534.999445 58.687852 1537.367051 57.8 1539.267367 56.019103 C 1541.198835 54.212246 1543.083574 51.948482 1544.926776 49.233004 Z M 1637.040159 49.233004 C 1637.767055 48.116698 1638.93009 47.711713 1640.52407 48.012856 C 1642.154396 48.313999 1643.556268 48.994166 1644.734879 50.048166 C 1645.908298 51.102167 1646.121175 52.369044 1645.368317 53.848798 C 1642.652839 59.549744 1640.030819 65.115696 1637.497065 70.546652 C 1634.963311 75.972416 1632.273793 80.920506 1629.438897 85.385728 C 1626.604 89.819798 1623.452383 93.366015 1619.984048 96.019188 C 1616.515712 98.67236 1612.56451 100.001543 1608.13044 100.001543 C 1605.414962 100.001543 1603.260233 98.641208 1601.66106 95.925729 C 1597.709858 108.656805 1593.561355 118.854127 1589.215551 126.512502 C 1584.9009 134.17607 1580.092998 139.726445 1574.78146 143.163628 C 1569.475115 146.631963 1563.348414 148.366131 1556.411743 148.366131 C 1546.671328 148.366131 1539.111603 145.806416 1533.742952 140.676603 C 1528.343148 135.546789 1525.643247 128.537429 1525.643247 119.638137 C 1525.643247 114.960038 1526.323414 110.920569 1527.683749 107.509347 C 1529.038892 104.103317 1530.591336 101.418991 1532.34108 99.45637 C 1534.059671 97.467789 1535.601731 96.200912 1536.956874 95.655739 C 1538.312017 95.084606 1539.05449 95.292291 1539.173909 96.289178 C 1539.687928 100.873819 1541.60382 104.643297 1544.921584 107.602805 C 1548.270501 110.557121 1552.77726 111.974569 1558.447054 111.85515 C 1563.87801 111.735732 1568.914366 110.152135 1573.561312 107.104362 C 1578.208259 104.08774 1582.040043 100.04308 1585.051472 94.975572 C 1588.068093 89.908064 1589.895719 84.419994 1590.529157 78.50617 C 1590.767995 76.39817 1590.212438 75.219559 1588.857295 74.980722 C 1587.49696 74.736692 1586.318349 75.790692 1585.326654 78.147914 C 1582.850013 84.300575 1579.381678 89.170783 1574.916455 92.758537 C 1570.482386 96.351483 1565.24873 98.142764 1559.22068 98.142764 C 1554.27259 98.142764 1549.973516 96.517631 1546.323456 93.25698 C 1542.673397 89.970369 1540.845771 84.799019 1540.845771 77.737737 C 1540.845771 74.90284 1541.058648 70.951637 1541.479209 65.884129 C 1541.936116 60.816621 1543.078382 55.266246 1544.921584 49.233004 C 1549.262196 35.629652 1553.623576 25.250606 1557.99534 18.106251 C 1562.372296 10.92555 1567.149045 7.332604 1572.341164 7.332604 C 1576.172948 7.332604 1578.083648 9.809245 1578.083648 14.757334 C 1578.083648 18.708536 1577.37752 22.716852 1575.960071 26.792666 C 1574.542623 30.863287 1573.156327 34.845642 1571.795992 38.734539 C 1570.440849 42.628628 1569.760681 46.42926 1569.760681 50.136432 C 1569.760681 52.732492 1570.290277 54.767803 1571.344278 56.247556 C 1572.398278 57.722118 1574.464741 58.464591 1577.543668 58.464591 C 1581.614289 58.464591 1584.890516 57.270404 1587.361965 54.887221 C 1589.833413 52.478078 1591.81161 49.098009 1593.291364 44.752205 C 1597.117956 32.65976 1601.012045 23.39702 1604.963248 16.974369 C 1608.91445 10.546525 1613.244677 7.332604 1617.948737 7.332604 C 1620.664215 7.332604 1622.730679 7.955658 1624.148127 9.191382 C 1625.565576 10.427107 1626.271704 12.524723 1626.271704 15.479038 C 1626.271704 19.310822 1625.067132 23.926616 1622.652797 29.32642 C 1620.269614 34.695071 1617.46587 42.06788 1614.236372 51.450039 C 1612.76181 56.636965 1612.668352 60.255872 1613.966382 62.311951 C 1615.264412 64.331686 1616.967427 65.338957 1619.080619 65.338957 C 1621.915516 65.338957 1624.932137 63.620365 1628.130483 60.183183 C 1631.354788 56.714847 1634.329873 53.064788 1637.040159 49.233004 Z M 1637.040159 49.233004 " stroke="#bc6c25" stroke-width="25.251757" stroke-opacity="1" stroke-miterlimit="4"/><g fill="#fefae0" fill-opacity="1"><g transform="translate(12.530756, 123.319152)"><g><path d="M 31.65625 5.859375 C 25.613281 5.859375 20.148438 4.625 15.265625 2.15625 C 10.390625 -0.300781 6.53125 -3.96875 3.6875 -8.84375 C 0.851562 -13.726562 -0.5625 -19.75 -0.5625 -26.90625 C -0.5625 -32.394531 0.179688 -37 1.671875 -40.71875 C 3.160156 -44.4375 5.066406 -47.429688 7.390625 -49.703125 C 9.710938 -51.984375 12.148438 -53.609375 14.703125 -54.578125 C 17.265625 -55.554688 19.566406 -56.046875 21.609375 -56.046875 C 23.378906 -56.046875 24.773438 -55.722656 25.796875 -55.078125 C 26.816406 -54.429688 27.328125 -53.59375 27.328125 -52.5625 C 27.328125 -51.539062 26.929688 -50.65625 26.140625 -49.90625 C 25.347656 -49.164062 24.535156 -48.210938 23.703125 -47.046875 C 22.867188 -45.890625 22.453125 -44.007812 22.453125 -41.40625 C 22.453125 -37.6875 23.472656 -34.710938 25.515625 -32.484375 C 27.554688 -30.253906 30.390625 -29.140625 34.015625 -29.140625 C 37.367188 -29.140625 40.113281 -30.207031 42.25 -32.34375 C 44.382812 -34.488281 45.453125 -37.28125 45.453125 -40.71875 C 45.453125 -43.414062 44.734375 -46.109375 43.296875 -48.796875 C 41.859375 -51.492188 40.234375 -54.351562 38.421875 -57.375 C 36.609375 -60.394531 34.976562 -63.648438 33.53125 -67.140625 C 32.09375 -70.628906 31.375 -74.460938 31.375 -78.640625 C 31.375 -82.921875 32.328125 -86.960938 34.234375 -90.765625 C 36.140625 -94.578125 39.085938 -97.691406 43.078125 -100.109375 C 47.078125 -102.523438 52.144531 -103.734375 58.28125 -103.734375 C 63.769531 -103.734375 68.160156 -102.78125 71.453125 -100.875 C 74.753906 -98.976562 77.148438 -96.519531 78.640625 -93.5 C 80.128906 -90.476562 80.875 -87.289062 80.875 -83.9375 C 80.875 -79.757812 79.757812 -75.859375 77.53125 -72.234375 C 75.300781 -68.609375 72.28125 -65.816406 68.46875 -63.859375 C 67.90625 -63.117188 67.019531 -62.976562 65.8125 -63.4375 C 64.601562 -63.90625 63.601562 -64.671875 62.8125 -65.734375 C 62.019531 -66.804688 61.953125 -67.765625 62.609375 -68.609375 C 63.253906 -69.441406 63.765625 -70.578125 64.140625 -72.015625 C 64.515625 -73.460938 64.582031 -74.953125 64.34375 -76.484375 C 64.113281 -78.015625 63.507812 -79.289062 62.53125 -80.3125 C 61.5625 -81.332031 60.097656 -81.84375 58.140625 -81.84375 C 55.816406 -81.84375 53.796875 -81.097656 52.078125 -79.609375 C 50.359375 -78.128906 49.5 -75.625 49.5 -72.09375 C 49.40625 -69.019531 50.21875 -65.898438 51.9375 -62.734375 C 53.65625 -59.578125 55.675781 -56.300781 58 -52.90625 C 60.320312 -49.519531 62.367188 -45.921875 64.140625 -42.109375 C 65.910156 -38.296875 66.796875 -34.207031 66.796875 -29.84375 C 66.796875 -22.957031 65.285156 -16.816406 62.265625 -11.421875 C 59.242188 -6.035156 55.101562 -1.8125 49.84375 1.25 C 44.59375 4.320312 38.53125 5.859375 31.65625 5.859375 Z M 31.65625 5.859375 "/></g></g></g><g fill="#fefae0" fill-opacity="1"><g transform="translate(84.755534, 123.319152)"><g><path d="M 14.078125 0 C 8.878906 0 5.046875 -1.601562 2.578125 -4.8125 C 0.117188 -8.019531 -1.109375 -12.203125 -1.109375 -17.359375 C -1.109375 -22.515625 -0.0859375 -28.066406 1.953125 -34.015625 C 3.160156 -37.554688 4.507812 -41.367188 6 -45.453125 C 7.488281 -49.546875 9.113281 -54.007812 10.875 -58.84375 C 8.832031 -58.84375 7.273438 -59.375 6.203125 -60.4375 C 5.128906 -61.507812 4.429688 -62.765625 4.109375 -64.203125 C 3.785156 -65.648438 3.785156 -66.90625 4.109375 -67.96875 C 4.429688 -69.039062 5.015625 -69.578125 5.859375 -69.578125 C 9.941406 -69.578125 13.144531 -70.710938 15.46875 -72.984375 C 17.800781 -75.265625 19.429688 -77.660156 20.359375 -80.171875 C 22.035156 -84.265625 23.660156 -86.84375 25.234375 -87.90625 C 26.816406 -88.976562 28.492188 -89.515625 30.265625 -89.515625 C 32.859375 -89.515625 34.476562 -88.421875 35.125 -86.234375 C 35.78125 -84.054688 35.039062 -80.78125 32.90625 -76.40625 C 31.882812 -74.175781 31.328125 -72.476562 31.234375 -71.3125 C 31.140625 -70.15625 31.742188 -69.578125 33.046875 -69.578125 L 40.296875 -69.578125 C 41.222656 -69.578125 41.828125 -68.925781 42.109375 -67.625 C 42.390625 -66.320312 42.363281 -64.832031 42.03125 -63.15625 C 41.707031 -61.488281 41.101562 -60.003906 40.21875 -58.703125 C 39.34375 -57.398438 38.207031 -56.75 36.8125 -56.75 C 32.53125 -56.75 29.367188 -56.585938 27.328125 -56.265625 C 25.285156 -55.941406 23.84375 -55.128906 23 -53.828125 C 22.164062 -52.523438 21.285156 -50.289062 20.359375 -47.125 C 18.867188 -42.289062 19.078125 -38.429688 20.984375 -35.546875 C 22.890625 -32.671875 25.890625 -31.234375 29.984375 -31.234375 C 32.765625 -31.234375 35.25 -31.859375 37.4375 -33.109375 C 39.625 -34.367188 41.414062 -36.066406 42.8125 -38.203125 C 43.550781 -39.316406 44.5 -39.710938 45.65625 -39.390625 C 46.820312 -39.066406 47.800781 -38.4375 48.59375 -37.5 C 49.382812 -36.570312 49.546875 -35.644531 49.078125 -34.71875 C 48.242188 -33.132812 47.128906 -30.945312 45.734375 -28.15625 C 44.335938 -25.375 42.660156 -22.351562 40.703125 -19.09375 C 38.753906 -15.84375 36.476562 -12.773438 33.875 -9.890625 C 31.28125 -7.015625 28.332031 -4.644531 25.03125 -2.78125 C 21.726562 -0.925781 18.078125 0 14.078125 0 Z M 14.078125 0 "/></g></g></g><g fill="#fefae0" fill-opacity="1"><g transform="translate(124.353671, 123.319152)"><g><path d="M 14.78125 0 C 10.039062 0 6.460938 -1.953125 4.046875 -5.859375 C 1.628906 -9.765625 0.421875 -14.832031 0.421875 -21.0625 C 0.421875 -24.957031 0.90625 -29.113281 1.875 -33.53125 C 2.851562 -37.945312 4.296875 -42.289062 6.203125 -46.5625 C 8.109375 -50.84375 10.5 -54.722656 13.375 -58.203125 C 16.257812 -61.691406 19.609375 -64.484375 23.421875 -66.578125 C 27.234375 -68.671875 31.554688 -69.71875 36.390625 -69.71875 C 39.179688 -69.71875 41.34375 -69.460938 42.875 -68.953125 C 44.40625 -68.441406 45.566406 -67.8125 46.359375 -67.0625 C 47.148438 -66.320312 47.820312 -65.695312 48.375 -65.1875 C 48.9375 -64.675781 49.679688 -64.421875 50.609375 -64.421875 C 52.191406 -64.421875 53.472656 -64.859375 54.453125 -65.734375 C 55.429688 -66.617188 56.523438 -67.503906 57.734375 -68.390625 C 58.941406 -69.273438 60.613281 -69.71875 62.75 -69.71875 C 64.601562 -69.71875 65.878906 -69.253906 66.578125 -68.328125 C 67.273438 -67.398438 67.625 -66.144531 67.625 -64.5625 C 67.625 -61.957031 66.898438 -59.375 65.453125 -56.8125 C 64.015625 -54.257812 62.507812 -50.9375 60.9375 -46.84375 C 58.613281 -41.738281 57.753906 -37.835938 58.359375 -35.140625 C 58.960938 -32.441406 60.796875 -31.09375 63.859375 -31.09375 C 66.273438 -31.09375 68.363281 -31.71875 70.125 -32.96875 C 71.894531 -34.226562 73.476562 -35.972656 74.875 -38.203125 C 75.625 -39.316406 76.578125 -39.710938 77.734375 -39.390625 C 78.898438 -39.066406 79.875 -38.4375 80.65625 -37.5 C 81.445312 -36.570312 81.613281 -35.644531 81.15625 -34.71875 C 79.476562 -31.46875 77.6875 -27.863281 75.78125 -23.90625 C 73.875 -19.957031 71.757812 -16.171875 69.4375 -12.546875 C 67.113281 -8.921875 64.460938 -5.921875 61.484375 -3.546875 C 58.515625 -1.179688 55.078125 0 51.171875 0 C 46.335938 0 42.921875 -1.953125 40.921875 -5.859375 C 38.921875 -9.765625 38.34375 -14.597656 39.1875 -20.359375 L 38.625 -20.359375 C 35.832031 -14.691406 32.390625 -9.878906 28.296875 -5.921875 C 24.210938 -1.972656 19.707031 0 14.78125 0 Z M 28.71875 -28.859375 C 31.132812 -28.859375 33.25 -29.554688 35.0625 -30.953125 C 36.875 -32.347656 38.289062 -34.046875 39.3125 -36.046875 C 40.34375 -38.046875 40.859375 -40.019531 40.859375 -41.96875 C 40.859375 -44.289062 40.207031 -46.101562 38.90625 -47.40625 C 37.601562 -48.707031 35.835938 -49.359375 33.609375 -49.359375 C 31.191406 -49.359375 29.097656 -48.707031 27.328125 -47.40625 C 25.566406 -46.101562 24.195312 -44.453125 23.21875 -42.453125 C 22.238281 -40.453125 21.75 -38.429688 21.75 -36.390625 C 21.75 -34.066406 22.375 -32.226562 23.625 -30.875 C 24.882812 -29.53125 26.582031 -28.859375 28.71875 -28.859375 Z M 28.71875 -28.859375 "/></g></g></g><g fill="#fefae0" fill-opacity="1"><g transform="translate(196.020725, 123.319152)"><g><path d="M 8.78125 0 C 5.53125 0 3.019531 -0.972656 1.25 -2.921875 C -0.507812 -4.878906 -1.390625 -7.296875 -1.390625 -10.171875 C -1.390625 -13.429688 -1.015625 -17.5 -0.265625 -22.375 C 0.472656 -27.257812 1.628906 -32.535156 3.203125 -38.203125 C 4.785156 -43.691406 6.53125 -48.828125 8.4375 -53.609375 C 10.34375 -58.398438 12.296875 -62.28125 14.296875 -65.25 C 16.296875 -68.226562 18.175781 -69.71875 19.9375 -69.71875 C 21.800781 -69.71875 23.035156 -69.179688 23.640625 -68.109375 C 24.242188 -67.046875 24.546875 -65.816406 24.546875 -64.421875 C 24.546875 -61.722656 25.191406 -60.046875 26.484375 -59.390625 C 27.785156 -58.742188 29.554688 -59.535156 31.796875 -61.765625 C 34.398438 -64.273438 37.09375 -66.226562 39.875 -67.625 C 42.664062 -69.019531 45.59375 -69.71875 48.65625 -69.71875 C 52.9375 -69.71875 56.097656 -68.460938 58.140625 -65.953125 C 60.191406 -63.441406 61.21875 -60.421875 61.21875 -56.890625 C 61.21875 -54.472656 60.84375 -52.265625 60.09375 -50.265625 C 59.351562 -48.265625 58.609375 -46.3125 57.859375 -44.40625 C 57.117188 -42.5 56.75 -40.382812 56.75 -38.0625 C 56.75 -33.414062 58.976562 -31.09375 63.4375 -31.09375 C 65.582031 -31.09375 67.375 -31.765625 68.8125 -33.109375 C 70.25 -34.460938 71.664062 -36.160156 73.0625 -38.203125 C 73.8125 -39.316406 74.789062 -39.710938 76 -39.390625 C 77.207031 -39.066406 78.203125 -38.4375 78.984375 -37.5 C 79.773438 -36.570312 79.894531 -35.644531 79.34375 -34.71875 C 78.414062 -33.226562 77.300781 -31.066406 76 -28.234375 C 74.695312 -25.398438 73.140625 -22.378906 71.328125 -19.171875 C 69.515625 -15.960938 67.398438 -12.894531 64.984375 -9.96875 C 62.566406 -7.039062 59.84375 -4.644531 56.8125 -2.78125 C 53.789062 -0.925781 50.378906 0 46.578125 0 C 42.203125 0 39.128906 -1.4375 37.359375 -4.3125 C 35.597656 -7.195312 34.71875 -10.59375 34.71875 -14.5 C 34.71875 -18.03125 35.203125 -21.398438 36.171875 -24.609375 C 37.148438 -27.816406 38.128906 -30.742188 39.109375 -33.390625 C 40.085938 -36.046875 40.578125 -38.300781 40.578125 -40.15625 C 40.578125 -41.738281 40.085938 -42.945312 39.109375 -43.78125 C 38.128906 -44.613281 36.851562 -45.03125 35.28125 -45.03125 C 32.582031 -45.03125 30.09375 -43.890625 27.8125 -41.609375 C 25.539062 -39.335938 23.707031 -36.390625 22.3125 -32.765625 C 20.914062 -29.140625 20.21875 -25.238281 20.21875 -21.0625 L 20.21875 -14.78125 C 20.21875 -12.457031 19.9375 -10.15625 19.375 -7.875 C 18.820312 -5.601562 17.734375 -3.722656 16.109375 -2.234375 C 14.484375 -0.742188 12.039062 0 8.78125 0 Z M 8.78125 0 "/></g></g></g><g fill="#fefae0" fill-opacity="1"><g transform="translate(265.875182, 123.319152)"><g><path d="M 16.3125 0 C 10.832031 0 6.8125 -1.90625 4.25 -5.71875 C 1.695312 -9.53125 0.421875 -14.222656 0.421875 -19.796875 C 0.421875 -25.003906 1.160156 -30.488281 2.640625 -36.25 C 4.128906 -42.019531 6.382812 -47.4375 9.40625 -52.5 C 12.425781 -57.5625 16.191406 -61.695312 20.703125 -64.90625 C 25.210938 -68.113281 30.441406 -69.71875 36.390625 -69.71875 C 39.179688 -69.71875 41.34375 -69.390625 42.875 -68.734375 C 44.40625 -68.085938 45.566406 -67.320312 46.359375 -66.4375 C 47.148438 -65.5625 47.820312 -64.773438 48.375 -64.078125 C 48.9375 -63.378906 49.679688 -63.03125 50.609375 -63.03125 C 51.359375 -63.03125 51.960938 -63.863281 52.421875 -65.53125 C 52.890625 -67.207031 53.585938 -69.695312 54.515625 -73 C 55.453125 -76.300781 56.894531 -80.320312 58.84375 -85.0625 C 60.601562 -89.332031 62.34375 -92.5625 64.0625 -94.75 C 65.789062 -96.9375 67.441406 -98.398438 69.015625 -99.140625 C 70.597656 -99.878906 72.085938 -100.25 73.484375 -100.25 C 75.898438 -100.25 77.503906 -99.0625 78.296875 -96.6875 C 79.085938 -94.320312 78.550781 -91.140625 76.6875 -87.140625 L 60.9375 -46.84375 C 58.613281 -41.738281 57.753906 -37.835938 58.359375 -35.140625 C 58.960938 -32.441406 60.796875 -31.09375 63.859375 -31.09375 C 66.273438 -31.09375 68.363281 -31.71875 70.125 -32.96875 C 71.894531 -34.226562 73.476562 -35.972656 74.875 -38.203125 C 75.625 -39.316406 76.578125 -39.710938 77.734375 -39.390625 C 78.898438 -39.066406 79.875 -38.4375 80.65625 -37.5 C 81.445312 -36.570312 81.613281 -35.644531 81.15625 -34.71875 C 79.476562 -31.46875 77.6875 -27.863281 75.78125 -23.90625 C 73.875 -19.957031 71.757812 -16.171875 69.4375 -12.546875 C 67.113281 -8.921875 64.460938 -5.921875 61.484375 -3.546875 C 58.515625 -1.179688 55.078125 0 51.171875 0 C 46.710938 0 43.410156 -1.953125 41.265625 -5.859375 C 39.128906 -9.765625 38.4375 -14.597656 39.1875 -20.359375 L 38.625 -20.359375 C 35.738281 -14.691406 32.367188 -9.878906 28.515625 -5.921875 C 24.660156 -1.972656 20.59375 0 16.3125 0 Z M 29 -28.859375 C 31.320312 -28.859375 33.363281 -29.554688 35.125 -30.953125 C 36.894531 -32.347656 38.289062 -34.046875 39.3125 -36.046875 C 40.34375 -38.046875 40.859375 -40.019531 40.859375 -41.96875 C 40.859375 -44.007812 40.253906 -45.75 39.046875 -47.1875 C 37.835938 -48.632812 35.882812 -49.359375 33.1875 -49.359375 C 30.957031 -49.359375 28.984375 -48.707031 27.265625 -47.40625 C 25.546875 -46.101562 24.195312 -44.453125 23.21875 -42.453125 C 22.238281 -40.453125 21.75 -38.429688 21.75 -36.390625 C 21.75 -34.347656 22.304688 -32.582031 23.421875 -31.09375 C 24.535156 -29.601562 26.394531 -28.859375 29 -28.859375 Z M 29 -28.859375 "/></g></g></g><g fill="#fefae0" fill-opacity="1"><g transform="translate(337.542248, 123.319152)"><g><path d="M 14.78125 0 C 10.039062 0 6.460938 -1.953125 4.046875 -5.859375 C 1.628906 -9.765625 0.421875 -14.832031 0.421875 -21.0625 C 0.421875 -24.957031 0.90625 -29.113281 1.875 -33.53125 C 2.851562 -37.945312 4.296875 -42.289062 6.203125 -46.5625 C 8.109375 -50.84375 10.5 -54.722656 13.375 -58.203125 C 16.257812 -61.691406 19.609375 -64.484375 23.421875 -66.578125 C 27.234375 -68.671875 31.554688 -69.71875 36.390625 -69.71875 C 39.179688 -69.71875 41.34375 -69.460938 42.875 -68.953125 C 44.40625 -68.441406 45.566406 -67.8125 46.359375 -67.0625 C 47.148438 -66.320312 47.820312 -65.695312 48.375 -65.1875 C 48.9375 -64.675781 49.679688 -64.421875 50.609375 -64.421875 C 52.191406 -64.421875 53.472656 -64.859375 54.453125 -65.734375 C 55.429688 -66.617188 56.523438 -67.503906 57.734375 -68.390625 C 58.941406 -69.273438 60.613281 -69.71875 62.75 -69.71875 C 64.601562 -69.71875 65.878906 -69.253906 66.578125 -68.328125 C 67.273438 -67.398438 67.625 -66.144531 67.625 -64.5625 C 67.625 -61.957031 66.898438 -59.375 65.453125 -56.8125 C 64.015625 -54.257812 62.507812 -50.9375 60.9375 -46.84375 C 58.613281 -41.738281 57.753906 -37.835938 58.359375 -35.140625 C 58.960938 -32.441406 60.796875 -31.09375 63.859375 -31.09375 C 66.273438 -31.09375 68.363281 -31.71875 70.125 -32.96875 C 71.894531 -34.226562 73.476562 -35.972656 74.875 -38.203125 C 75.625 -39.316406 76.578125 -39.710938 77.734375 -39.390625 C 78.898438 -39.066406 79.875 -38.4375 80.65625 -37.5 C 81.445312 -36.570312 81.613281 -35.644531 81.15625 -34.71875 C 79.476562 -31.46875 77.6875 -27.863281 75.78125 -23.90625 C 73.875 -19.957031 71.757812 -16.171875 69.4375 -12.546875 C 67.113281 -8.921875 64.460938 -5.921875 61.484375 -3.546875 C 58.515625 -1.179688 55.078125 0 51.171875 0 C 46.335938 0 42.921875 -1.953125 40.921875 -5.859375 C 38.921875 -9.765625 38.34375 -14.597656 39.1875 -20.359375 L 38.625 -20.359375 C 35.832031 -14.691406 32.390625 -9.878906 28.296875 -5.921875 C 24.210938 -1.972656 19.707031 0 14.78125 0 Z M 28.71875 -28.859375 C 31.132812 -28.859375 33.25 -29.554688 35.0625 -30.953125 C 36.875 -32.347656 38.289062 -34.046875 39.3125 -36.046875 C 40.34375 -38.046875 40.859375 -40.019531 40.859375 -41.96875 C 40.859375 -44.289062 40.207031 -46.101562 38.90625 -47.40625 C 37.601562 -48.707031 35.835938 -49.359375 33.609375 -49.359375 C 31.191406 -49.359375 29.097656 -48.707031 27.328125 -47.40625 C 25.566406 -46.101562 24.195312 -44.453125 23.21875 -42.453125 C 22.238281 -40.453125 21.75 -38.429688 21.75 -36.390625 C 21.75 -34.066406 22.375 -32.226562 23.625 -30.875 C 24.882812 -29.53125 26.582031 -28.859375 28.71875 -28.859375 Z M 28.71875 -28.859375 "/></g></g></g><g fill="#fefae0" fill-opacity="1"><g transform="translate(409.209314, 123.319152)"><g><path d="M 58.28125 -38.203125 C 59.03125 -39.316406 60.007812 -39.710938 61.21875 -39.390625 C 62.425781 -39.066406 63.421875 -38.4375 64.203125 -37.5 C 64.992188 -36.570312 65.113281 -35.644531 64.5625 -34.71875 C 63.632812 -33.226562 62.519531 -31.066406 61.21875 -28.234375 C 59.914062 -25.398438 58.359375 -22.378906 56.546875 -19.171875 C 54.734375 -15.960938 52.617188 -12.894531 50.203125 -9.96875 C 47.785156 -7.039062 45.066406 -4.644531 42.046875 -2.78125 C 39.023438 -0.925781 35.609375 0 31.796875 0 C 27.984375 0 24.957031 -0.71875 22.71875 -2.15625 C 20.488281 -3.601562 18.882812 -5.460938 17.90625 -7.734375 C 16.9375 -10.015625 16.453125 -12.316406 16.453125 -14.640625 C 16.453125 -17.890625 16.9375 -21.09375 17.90625 -24.25 C 18.882812 -27.414062 20.023438 -30.4375 21.328125 -33.3125 C 22.628906 -36.195312 23.769531 -38.847656 24.75 -41.265625 C 25.726562 -43.691406 26.21875 -45.738281 26.21875 -47.40625 C 26.21875 -48.15625 25.679688 -49.25 24.609375 -50.6875 C 23.535156 -52.125 21.609375 -53.351562 18.828125 -54.375 C 17.984375 -52.519531 16.976562 -50.359375 15.8125 -47.890625 C 14.65625 -45.429688 13.492188 -43.015625 12.328125 -40.640625 C 11.171875 -38.273438 10.222656 -36.300781 9.484375 -34.71875 C 8.921875 -33.507812 8.007812 -33.066406 6.75 -33.390625 C 5.5 -33.722656 4.457031 -34.398438 3.625 -35.421875 C 2.789062 -36.441406 2.648438 -37.367188 3.203125 -38.203125 C 4.503906 -40.066406 5.945312 -42.785156 7.53125 -46.359375 C 9.113281 -49.941406 10.507812 -53.3125 11.71875 -56.46875 C 10.320312 -56.9375 9.203125 -57.726562 8.359375 -58.84375 C 7.523438 -59.957031 7.109375 -61.769531 7.109375 -64.28125 C 7.109375 -66.226562 7.617188 -68.15625 8.640625 -70.0625 C 9.660156 -71.96875 11.097656 -73.570312 12.953125 -74.875 C 14.816406 -76.175781 17.003906 -76.828125 19.515625 -76.828125 C 23.890625 -76.828125 28.097656 -75.988281 32.140625 -74.3125 C 36.179688 -72.644531 39.503906 -70.53125 42.109375 -67.96875 C 44.710938 -65.414062 46.015625 -62.882812 46.015625 -60.375 C 46.015625 -57.769531 45.523438 -55.304688 44.546875 -52.984375 C 43.578125 -50.660156 42.578125 -48.289062 41.546875 -45.875 C 40.523438 -43.457031 40.015625 -40.804688 40.015625 -37.921875 C 40.015625 -35.972656 40.664062 -34.347656 41.96875 -33.046875 C 43.269531 -31.742188 45.5 -31.09375 48.65625 -31.09375 C 50.800781 -31.09375 52.59375 -31.765625 54.03125 -33.109375 C 55.46875 -34.460938 56.882812 -36.160156 58.28125 -38.203125 Z M 58.28125 -38.203125 "/></g></g></g><g fill="#fefae0" fill-opacity="1"><g transform="translate(464.284213, 123.319152)"><g><path d="M 16.3125 0 C 10.832031 0 6.8125 -1.90625 4.25 -5.71875 C 1.695312 -9.53125 0.421875 -14.222656 0.421875 -19.796875 C 0.421875 -25.003906 1.160156 -30.488281 2.640625 -36.25 C 4.128906 -42.019531 6.382812 -47.4375 9.40625 -52.5 C 12.425781 -57.5625 16.191406 -61.695312 20.703125 -64.90625 C 25.210938 -68.113281 30.441406 -69.71875 36.390625 -69.71875 C 39.179688 -69.71875 41.34375 -69.390625 42.875 -68.734375 C 44.40625 -68.085938 45.566406 -67.320312 46.359375 -66.4375 C 47.148438 -65.5625 47.820312 -64.773438 48.375 -64.078125 C 48.9375 -63.378906 49.679688 -63.03125 50.609375 -63.03125 C 51.359375 -63.03125 51.960938 -63.863281 52.421875 -65.53125 C 52.890625 -67.207031 53.585938 -69.695312 54.515625 -73 C 55.453125 -76.300781 56.894531 -80.320312 58.84375 -85.0625 C 60.601562 -89.332031 62.34375 -92.5625 64.0625 -94.75 C 65.789062 -96.9375 67.441406 -98.398438 69.015625 -99.140625 C 70.597656 -99.878906 72.085938 -100.25 73.484375 -100.25 C 75.898438 -100.25 77.503906 -99.0625 78.296875 -96.6875 C 79.085938 -94.320312 78.550781 -91.140625 76.6875 -87.140625 L 60.9375 -46.84375 C 58.613281 -41.738281 57.753906 -37.835938 58.359375 -35.140625 C 58.960938 -32.441406 60.796875 -31.09375 63.859375 -31.09375 C 66.273438 -31.09375 68.363281 -31.71875 70.125 -32.96875 C 71.894531 -34.226562 73.476562 -35.972656 74.875 -38.203125 C 75.625 -39.316406 76.578125 -39.710938 77.734375 -39.390625 C 78.898438 -39.066406 79.875 -38.4375 80.65625 -37.5 C 81.445312 -36.570312 81.613281 -35.644531 81.15625 -34.71875 C 79.476562 -31.46875 77.6875 -27.863281 75.78125 -23.90625 C 73.875 -19.957031 71.757812 -16.171875 69.4375 -12.546875 C 67.113281 -8.921875 64.460938 -5.921875 61.484375 -3.546875 C 58.515625 -1.179688 55.078125 0 51.171875 0 C 46.710938 0 43.410156 -1.953125 41.265625 -5.859375 C 39.128906 -9.765625 38.4375 -14.597656 39.1875 -20.359375 L 38.625 -20.359375 C 35.738281 -14.691406 32.367188 -9.878906 28.515625 -5.921875 C 24.660156 -1.972656 20.59375 0 16.3125 0 Z M 29 -28.859375 C 31.320312 -28.859375 33.363281 -29.554688 35.125 -30.953125 C 36.894531 -32.347656 38.289062 -34.046875 39.3125 -36.046875 C 40.34375 -38.046875 40.859375 -40.019531 40.859375 -41.96875 C 40.859375 -44.007812 40.253906 -45.75 39.046875 -47.1875 C 37.835938 -48.632812 35.882812 -49.359375 33.1875 -49.359375 C 30.957031 -49.359375 28.984375 -48.707031 27.265625 -47.40625 C 25.546875 -46.101562 24.195312 -44.453125 23.21875 -42.453125 C 22.238281 -40.453125 21.75 -38.429688 21.75 -36.390625 C 21.75 -34.347656 22.304688 -32.582031 23.421875 -31.09375 C 24.535156 -29.601562 26.394531 -28.859375 29 -28.859375 Z M 29 -28.859375 "/></g></g></g><g fill="#fefae0" fill-opacity="1"><g transform="translate(535.951279, 123.319152)"><g/></g></g><g fill="#fefae0" fill-opacity="1"><g transform="translate(586.146103, 123.319152)"><g><path d="M 24.8125 1.671875 C 20.257812 1.671875 16.519531 0.441406 13.59375 -2.015625 C 10.664062 -4.484375 9.203125 -7.71875 9.203125 -11.71875 C 9.203125 -14.6875 10.015625 -17.351562 11.640625 -19.71875 C 13.265625 -22.09375 15.378906 -24.535156 17.984375 -27.046875 C 20.585938 -29.554688 23.425781 -32.53125 26.5 -35.96875 C 30.300781 -40.25 33.550781 -44.644531 36.25 -49.15625 C 38.945312 -53.664062 41.457031 -58.546875 43.78125 -63.796875 C 46.101562 -69.046875 48.566406 -74.925781 51.171875 -81.4375 C 47.078125 -82.363281 43.285156 -82.5 39.796875 -81.84375 C 36.316406 -81.195312 33.507812 -79.875 31.375 -77.875 C 29.238281 -75.875 28.171875 -73.296875 28.171875 -70.140625 C 28.171875 -68.085938 28.679688 -66.390625 29.703125 -65.046875 C 30.722656 -63.703125 31.976562 -63.03125 33.46875 -63.03125 C 34.113281 -61.539062 34.15625 -59.75 33.59375 -57.65625 C 33.039062 -55.5625 31.953125 -53.5625 30.328125 -51.65625 C 28.703125 -49.75 26.609375 -48.144531 24.046875 -46.84375 C 21.492188 -45.550781 18.546875 -44.90625 15.203125 -44.90625 C 11.390625 -44.90625 8.179688 -45.765625 5.578125 -47.484375 C 2.972656 -49.203125 1.019531 -51.429688 -0.28125 -54.171875 C -1.582031 -56.910156 -2.234375 -59.863281 -2.234375 -63.03125 C -2.234375 -70.375 -0.1875 -77.132812 3.90625 -83.3125 C 8 -89.5 13.832031 -94.445312 21.40625 -98.15625 C 28.976562 -101.875 37.925781 -103.734375 48.25 -103.734375 C 55.03125 -103.734375 59.929688 -102.847656 62.953125 -101.078125 C 65.972656 -99.316406 67.671875 -96.765625 68.046875 -93.421875 C 68.421875 -90.078125 68.003906 -86.035156 66.796875 -81.296875 C 65.765625 -77.109375 64.53125 -72.316406 63.09375 -66.921875 C 61.65625 -61.535156 60.097656 -55.957031 58.421875 -50.1875 C 56.753906 -44.425781 55.101562 -38.875 53.46875 -33.53125 C 51.84375 -28.1875 50.332031 -23.515625 48.9375 -19.515625 C 46.707031 -12.640625 43.5 -7.390625 39.3125 -3.765625 C 35.132812 -0.140625 30.300781 1.671875 24.8125 1.671875 Z M 24.8125 1.671875 "/></g></g></g><g fill="#fefae0" fill-opacity="1"><g transform="translate(645.403885, 123.319152)"><g><path d="M 14.078125 0 C 8.878906 0 5.046875 -1.601562 2.578125 -4.8125 C 0.117188 -8.019531 -1.109375 -12.203125 -1.109375 -17.359375 C -1.109375 -22.515625 -0.0859375 -28.066406 1.953125 -34.015625 C 3.160156 -37.554688 4.507812 -41.367188 6 -45.453125 C 7.488281 -49.546875 9.113281 -54.007812 10.875 -58.84375 C 8.832031 -58.84375 7.273438 -59.375 6.203125 -60.4375 C 5.128906 -61.507812 4.429688 -62.765625 4.109375 -64.203125 C 3.785156 -65.648438 3.785156 -66.90625 4.109375 -67.96875 C 4.429688 -69.039062 5.015625 -69.578125 5.859375 -69.578125 C 9.941406 -69.578125 13.144531 -70.710938 15.46875 -72.984375 C 17.800781 -75.265625 19.429688 -77.660156 20.359375 -80.171875 C 22.035156 -84.265625 23.660156 -86.84375 25.234375 -87.90625 C 26.816406 -88.976562 28.492188 -89.515625 30.265625 -89.515625 C 32.859375 -89.515625 34.476562 -88.421875 35.125 -86.234375 C 35.78125 -84.054688 35.039062 -80.78125 32.90625 -76.40625 C 31.882812 -74.175781 31.328125 -72.476562 31.234375 -71.3125 C 31.140625 -70.15625 31.742188 -69.578125 33.046875 -69.578125 L 40.296875 -69.578125 C 41.222656 -69.578125 41.828125 -68.925781 42.109375 -67.625 C 42.390625 -66.320312 42.363281 -64.832031 42.03125 -63.15625 C 41.707031 -61.488281 41.101562 -60.003906 40.21875 -58.703125 C 39.34375 -57.398438 38.207031 -56.75 36.8125 -56.75 C 32.53125 -56.75 29.367188 -56.585938 27.328125 -56.265625 C 25.285156 -55.941406 23.84375 -55.128906 23 -53.828125 C 22.164062 -52.523438 21.285156 -50.289062 20.359375 -47.125 C 18.867188 -42.289062 19.078125 -38.429688 20.984375 -35.546875 C 22.890625 -32.671875 25.890625 -31.234375 29.984375 -31.234375 C 32.765625 -31.234375 35.25 -31.859375 37.4375 -33.109375 C 39.625 -34.367188 41.414062 -36.066406 42.8125 -38.203125 C 43.550781 -39.316406 44.5 -39.710938 45.65625 -39.390625 C 46.820312 -39.066406 47.800781 -38.4375 48.59375 -37.5 C 49.382812 -36.570312 49.546875 -35.644531 49.078125 -34.71875 C 48.242188 -33.132812 47.128906 -30.945312 45.734375 -28.15625 C 44.335938 -25.375 42.660156 -22.351562 40.703125 -19.09375 C 38.753906 -15.84375 36.476562 -12.773438 33.875 -9.890625 C 31.28125 -7.015625 28.332031 -4.644531 25.03125 -2.78125 C 21.726562 -0.925781 18.078125 0 14.078125 0 Z M 14.078125 0 "/></g></g></g><g fill="#fefae0" fill-opacity="1"><g transform="translate(685.002044, 123.319152)"><g><path d="M 28.03125 -75.4375 C 24.675781 -75.4375 21.789062 -76.15625 19.375 -77.59375 C 16.957031 -79.039062 15.75 -81.617188 15.75 -85.328125 C 15.75 -90.253906 17.117188 -93.625 19.859375 -95.4375 C 22.609375 -97.25 25.890625 -98.15625 29.703125 -98.15625 C 33.234375 -98.15625 36.226562 -97.363281 38.6875 -95.78125 C 41.15625 -94.207031 42.203125 -91.238281 41.828125 -86.875 C 41.460938 -82.59375 39.976562 -79.613281 37.375 -77.9375 C 34.769531 -76.269531 31.65625 -75.4375 28.03125 -75.4375 Z M 12.546875 0 C 7.898438 0 4.597656 -1.691406 2.640625 -5.078125 C 0.691406 -8.472656 -0.28125 -12.585938 -0.28125 -17.421875 C -0.28125 -20.679688 0.0390625 -24.125 0.6875 -27.75 C 1.34375 -31.375 2.179688 -34.859375 3.203125 -38.203125 C 6.460938 -48.335938 9.625 -56.125 12.6875 -61.5625 C 15.757812 -67 19.289062 -69.71875 23.28125 -69.71875 C 26.445312 -69.71875 28.03125 -67.625 28.03125 -63.4375 C 28.03125 -60.65625 27.492188 -57.796875 26.421875 -54.859375 C 25.347656 -51.929688 24.300781 -49.050781 23.28125 -46.21875 C 22.257812 -43.382812 21.75 -40.710938 21.75 -38.203125 C 21.75 -35.878906 22.328125 -34.132812 23.484375 -32.96875 C 24.648438 -31.8125 26.164062 -31.234375 28.03125 -31.234375 C 30.164062 -31.234375 31.953125 -31.882812 33.390625 -33.1875 C 34.835938 -34.488281 36.253906 -36.160156 37.640625 -38.203125 C 38.390625 -39.316406 39.34375 -39.734375 40.5 -39.453125 C 41.664062 -39.179688 42.644531 -38.554688 43.4375 -37.578125 C 44.226562 -36.597656 44.390625 -35.691406 43.921875 -34.859375 C 42.992188 -33.367188 41.898438 -31.226562 40.640625 -28.4375 C 39.390625 -25.65625 37.878906 -22.632812 36.109375 -19.375 C 34.347656 -16.125 32.328125 -13.035156 30.046875 -10.109375 C 27.765625 -7.179688 25.179688 -4.765625 22.296875 -2.859375 C 19.421875 -0.953125 16.171875 0 12.546875 0 Z M 12.546875 0 "/></g></g></g><g fill="#fefae0" fill-opacity="1"><g transform="translate(719.301849, 123.319152)"><g><path d="M 8.78125 0 C 5.53125 0 3.019531 -0.972656 1.25 -2.921875 C -0.507812 -4.878906 -1.390625 -7.296875 -1.390625 -10.171875 C -1.390625 -13.429688 -1.015625 -17.5 -0.265625 -22.375 C 0.472656 -27.257812 1.628906 -32.535156 3.203125 -38.203125 C 4.785156 -43.691406 6.53125 -48.828125 8.4375 -53.609375 C 10.34375 -58.398438 12.296875 -62.28125 14.296875 -65.25 C 16.296875 -68.226562 18.175781 -69.71875 19.9375 -69.71875 C 21.800781 -69.71875 23.035156 -69.179688 23.640625 -68.109375 C 24.242188 -67.046875 24.546875 -65.816406 24.546875 -64.421875 C 24.546875 -61.722656 25.191406 -60.046875 26.484375 -59.390625 C 27.785156 -58.742188 29.554688 -59.535156 31.796875 -61.765625 C 34.398438 -64.273438 37.09375 -66.226562 39.875 -67.625 C 42.664062 -69.019531 45.59375 -69.71875 48.65625 -69.71875 C 52.9375 -69.71875 56.097656 -68.460938 58.140625 -65.953125 C 60.191406 -63.441406 61.21875 -60.421875 61.21875 -56.890625 C 61.21875 -54.472656 60.84375 -52.265625 60.09375 -50.265625 C 59.351562 -48.265625 58.609375 -46.3125 57.859375 -44.40625 C 57.117188 -42.5 56.75 -40.382812 56.75 -38.0625 C 56.75 -33.414062 58.976562 -31.09375 63.4375 -31.09375 C 65.582031 -31.09375 67.375 -31.765625 68.8125 -33.109375 C 70.25 -34.460938 71.664062 -36.160156 73.0625 -38.203125 C 73.8125 -39.316406 74.789062 -39.710938 76 -39.390625 C 77.207031 -39.066406 78.203125 -38.4375 78.984375 -37.5 C 79.773438 -36.570312 79.894531 -35.644531 79.34375 -34.71875 C 78.414062 -33.226562 77.300781 -31.066406 76 -28.234375 C 74.695312 -25.398438 73.140625 -22.378906 71.328125 -19.171875 C 69.515625 -15.960938 67.398438 -12.894531 64.984375 -9.96875 C 62.566406 -7.039062 59.84375 -4.644531 56.8125 -2.78125 C 53.789062 -0.925781 50.378906 0 46.578125 0 C 42.203125 0 39.128906 -1.4375 37.359375 -4.3125 C 35.597656 -7.195312 34.71875 -10.59375 34.71875 -14.5 C 34.71875 -18.03125 35.203125 -21.398438 36.171875 -24.609375 C 37.148438 -27.816406 38.128906 -30.742188 39.109375 -33.390625 C 40.085938 -36.046875 40.578125 -38.300781 40.578125 -40.15625 C 40.578125 -41.738281 40.085938 -42.945312 39.109375 -43.78125 C 38.128906 -44.613281 36.851562 -45.03125 35.28125 -45.03125 C 32.582031 -45.03125 30.09375 -43.890625 27.8125 -41.609375 C 25.539062 -39.335938 23.707031 -36.390625 22.3125 -32.765625 C 20.914062 -29.140625 20.21875 -25.238281 20.21875 -21.0625 L 20.21875 -14.78125 C 20.21875 -12.457031 19.9375 -10.15625 19.375 -7.875 C 18.820312 -5.601562 17.734375 -3.722656 16.109375 -2.234375 C 14.484375 -0.742188 12.039062 0 8.78125 0 Z M 8.78125 0 "/></g></g></g><g fill="#fefae0" fill-opacity="1"><g transform="translate(789.156341, 123.319152)"><g><path d="M 26.21875 0 C 20.632812 0 16.050781 -1.253906 12.46875 -3.765625 C 8.894531 -6.273438 6.25 -9.597656 4.53125 -13.734375 C 2.8125 -17.867188 1.972656 -22.421875 2.015625 -27.390625 C 2.066406 -32.367188 2.925781 -37.34375 4.59375 -42.3125 C 6.269531 -47.289062 8.6875 -51.847656 11.84375 -55.984375 C 15.007812 -60.117188 18.847656 -63.441406 23.359375 -65.953125 C 27.867188 -68.460938 32.957031 -69.71875 38.625 -69.71875 C 42.988281 -69.71875 46.539062 -68.90625 49.28125 -67.28125 C 52.03125 -65.65625 54.054688 -63.492188 55.359375 -60.796875 C 56.660156 -58.097656 57.3125 -55.21875 57.3125 -52.15625 C 57.3125 -48.800781 56.378906 -45.453125 54.515625 -42.109375 C 52.660156 -38.765625 50.054688 -36 46.703125 -33.8125 C 43.359375 -31.625 39.410156 -30.53125 34.859375 -30.53125 C 32.910156 -30.53125 31.003906 -30.671875 29.140625 -30.953125 C 27.285156 -31.234375 25.566406 -31.835938 23.984375 -32.765625 C 23.515625 -33.046875 23 -33.066406 22.4375 -32.828125 C 21.882812 -32.597656 21.609375 -32.019531 21.609375 -31.09375 C 21.609375 -28.675781 23.023438 -26.835938 25.859375 -25.578125 C 28.703125 -24.328125 32.117188 -23.703125 36.109375 -23.703125 C 40.847656 -23.703125 45.75 -24.910156 50.8125 -27.328125 C 55.882812 -29.742188 60.003906 -33.367188 63.171875 -38.203125 C 63.910156 -39.316406 64.882812 -39.710938 66.09375 -39.390625 C 67.300781 -39.066406 68.300781 -38.4375 69.09375 -37.5 C 69.882812 -36.570312 70 -35.644531 69.4375 -34.71875 C 63.300781 -23.375 56.582031 -14.75 49.28125 -8.84375 C 41.988281 -2.945312 34.300781 0 26.21875 0 Z M 31.234375 -41 C 33.929688 -41 36.046875 -41.859375 37.578125 -43.578125 C 39.109375 -45.296875 39.875 -47.035156 39.875 -48.796875 C 39.875 -50.378906 39.335938 -51.726562 38.265625 -52.84375 C 37.203125 -53.957031 35.601562 -54.515625 33.46875 -54.515625 C 30.769531 -54.515625 28.628906 -53.675781 27.046875 -52 C 25.472656 -50.332031 24.6875 -48.570312 24.6875 -46.71875 C 24.6875 -45.226562 25.21875 -43.898438 26.28125 -42.734375 C 27.351562 -41.578125 29.003906 -41 31.234375 -41 Z M 31.234375 -41 "/></g></g></g><g fill="#fefae0" fill-opacity="1"><g transform="translate(849.11127, 123.319152)"><g><path d="M 58.28125 -38.203125 C 59.03125 -39.316406 60.007812 -39.710938 61.21875 -39.390625 C 62.425781 -39.066406 63.421875 -38.4375 64.203125 -37.5 C 64.992188 -36.570312 65.113281 -35.644531 64.5625 -34.71875 C 63.632812 -33.226562 62.519531 -31.066406 61.21875 -28.234375 C 59.914062 -25.398438 58.359375 -22.378906 56.546875 -19.171875 C 54.734375 -15.960938 52.617188 -12.894531 50.203125 -9.96875 C 47.785156 -7.039062 45.066406 -4.644531 42.046875 -2.78125 C 39.023438 -0.925781 35.609375 0 31.796875 0 C 27.984375 0 24.957031 -0.71875 22.71875 -2.15625 C 20.488281 -3.601562 18.882812 -5.460938 17.90625 -7.734375 C 16.9375 -10.015625 16.453125 -12.316406 16.453125 -14.640625 C 16.453125 -17.890625 16.9375 -21.09375 17.90625 -24.25 C 18.882812 -27.414062 20.023438 -30.4375 21.328125 -33.3125 C 22.628906 -36.195312 23.769531 -38.847656 24.75 -41.265625 C 25.726562 -43.691406 26.21875 -45.738281 26.21875 -47.40625 C 26.21875 -48.15625 25.679688 -49.25 24.609375 -50.6875 C 23.535156 -52.125 21.609375 -53.351562 18.828125 -54.375 C 17.984375 -52.519531 16.976562 -50.359375 15.8125 -47.890625 C 14.65625 -45.429688 13.492188 -43.015625 12.328125 -40.640625 C 11.171875 -38.273438 10.222656 -36.300781 9.484375 -34.71875 C 8.921875 -33.507812 8.007812 -33.066406 6.75 -33.390625 C 5.5 -33.722656 4.457031 -34.398438 3.625 -35.421875 C 2.789062 -36.441406 2.648438 -37.367188 3.203125 -38.203125 C 4.503906 -40.066406 5.945312 -42.785156 7.53125 -46.359375 C 9.113281 -49.941406 10.507812 -53.3125 11.71875 -56.46875 C 10.320312 -56.9375 9.203125 -57.726562 8.359375 -58.84375 C 7.523438 -59.957031 7.109375 -61.769531 7.109375 -64.28125 C 7.109375 -66.226562 7.617188 -68.15625 8.640625 -70.0625 C 9.660156 -71.96875 11.097656 -73.570312 12.953125 -74.875 C 14.816406 -76.175781 17.003906 -76.828125 19.515625 -76.828125 C 23.890625 -76.828125 28.097656 -75.988281 32.140625 -74.3125 C 36.179688 -72.644531 39.503906 -70.53125 42.109375 -67.96875 C 44.710938 -65.414062 46.015625 -62.882812 46.015625 -60.375 C 46.015625 -57.769531 45.523438 -55.304688 44.546875 -52.984375 C 43.578125 -50.660156 42.578125 -48.289062 41.546875 -45.875 C 40.523438 -43.457031 40.015625 -40.804688 40.015625 -37.921875 C 40.015625 -35.972656 40.664062 -34.347656 41.96875 -33.046875 C 43.269531 -31.742188 45.5 -31.09375 48.65625 -31.09375 C 50.800781 -31.09375 52.59375 -31.765625 54.03125 -33.109375 C 55.46875 -34.460938 56.882812 -36.160156 58.28125 -38.203125 Z M 58.28125 -38.203125 "/></g></g></g><g fill="#fefae0" fill-opacity="1"><g transform="translate(904.18617, 123.319152)"><g><path d="M 14.78125 0 C 10.039062 0 6.460938 -1.953125 4.046875 -5.859375 C 1.628906 -9.765625 0.421875 -14.832031 0.421875 -21.0625 C 0.421875 -24.957031 0.90625 -29.113281 1.875 -33.53125 C 2.851562 -37.945312 4.296875 -42.289062 6.203125 -46.5625 C 8.109375 -50.84375 10.5 -54.722656 13.375 -58.203125 C 16.257812 -61.691406 19.609375 -64.484375 23.421875 -66.578125 C 27.234375 -68.671875 31.554688 -69.71875 36.390625 -69.71875 C 39.179688 -69.71875 41.34375 -69.460938 42.875 -68.953125 C 44.40625 -68.441406 45.566406 -67.8125 46.359375 -67.0625 C 47.148438 -66.320312 47.820312 -65.695312 48.375 -65.1875 C 48.9375 -64.675781 49.679688 -64.421875 50.609375 -64.421875 C 52.191406 -64.421875 53.472656 -64.859375 54.453125 -65.734375 C 55.429688 -66.617188 56.523438 -67.503906 57.734375 -68.390625 C 58.941406 -69.273438 60.613281 -69.71875 62.75 -69.71875 C 64.601562 -69.71875 65.878906 -69.253906 66.578125 -68.328125 C 67.273438 -67.398438 67.625 -66.144531 67.625 -64.5625 C 67.625 -61.957031 66.898438 -59.375 65.453125 -56.8125 C 64.015625 -54.257812 62.507812 -50.9375 60.9375 -46.84375 C 58.613281 -41.738281 57.753906 -37.835938 58.359375 -35.140625 C 58.960938 -32.441406 60.796875 -31.09375 63.859375 -31.09375 C 66.273438 -31.09375 68.363281 -31.71875 70.125 -32.96875 C 71.894531 -34.226562 73.476562 -35.972656 74.875 -38.203125 C 75.625 -39.316406 76.578125 -39.710938 77.734375 -39.390625 C 78.898438 -39.066406 79.875 -38.4375 80.65625 -37.5 C 81.445312 -36.570312 81.613281 -35.644531 81.15625 -34.71875 C 79.476562 -31.46875 77.6875 -27.863281 75.78125 -23.90625 C 73.875 -19.957031 71.757812 -16.171875 69.4375 -12.546875 C 67.113281 -8.921875 64.460938 -5.921875 61.484375 -3.546875 C 58.515625 -1.179688 55.078125 0 51.171875 0 C 46.335938 0 42.921875 -1.953125 40.921875 -5.859375 C 38.921875 -9.765625 38.34375 -14.597656 39.1875 -20.359375 L 38.625 -20.359375 C 35.832031 -14.691406 32.390625 -9.878906 28.296875 -5.921875 C 24.210938 -1.972656 19.707031 0 14.78125 0 Z M 28.71875 -28.859375 C 31.132812 -28.859375 33.25 -29.554688 35.0625 -30.953125 C 36.875 -32.347656 38.289062 -34.046875 39.3125 -36.046875 C 40.34375 -38.046875 40.859375 -40.019531 40.859375 -41.96875 C 40.859375 -44.289062 40.207031 -46.101562 38.90625 -47.40625 C 37.601562 -48.707031 35.835938 -49.359375 33.609375 -49.359375 C 31.191406 -49.359375 29.097656 -48.707031 27.328125 -47.40625 C 25.566406 -46.101562 24.195312 -44.453125 23.21875 -42.453125 C 22.238281 -40.453125 21.75 -38.429688 21.75 -36.390625 C 21.75 -34.066406 22.375 -32.226562 23.625 -30.875 C 24.882812 -29.53125 26.582031 -28.859375 28.71875 -28.859375 Z M 28.71875 -28.859375 "/></g></g></g><g fill="#fefae0" fill-opacity="1"><g transform="translate(975.853189, 123.319152)"><g><path d="M 58.28125 -38.203125 C 59.03125 -39.316406 60.007812 -39.710938 61.21875 -39.390625 C 62.425781 -39.066406 63.421875 -38.4375 64.203125 -37.5 C 64.992188 -36.570312 65.113281 -35.644531 64.5625 -34.71875 C 63.632812 -33.226562 62.519531 -31.066406 61.21875 -28.234375 C 59.914062 -25.398438 58.359375 -22.378906 56.546875 -19.171875 C 54.734375 -15.960938 52.617188 -12.894531 50.203125 -9.96875 C 47.785156 -7.039062 45.066406 -4.644531 42.046875 -2.78125 C 39.023438 -0.925781 35.609375 0 31.796875 0 C 27.984375 0 24.957031 -0.71875 22.71875 -2.15625 C 20.488281 -3.601562 18.882812 -5.460938 17.90625 -7.734375 C 16.9375 -10.015625 16.453125 -12.316406 16.453125 -14.640625 C 16.453125 -17.890625 16.9375 -21.09375 17.90625 -24.25 C 18.882812 -27.414062 20.023438 -30.4375 21.328125 -33.3125 C 22.628906 -36.195312 23.769531 -38.847656 24.75 -41.265625 C 25.726562 -43.691406 26.21875 -45.738281 26.21875 -47.40625 C 26.21875 -48.15625 25.679688 -49.25 24.609375 -50.6875 C 23.535156 -52.125 21.609375 -53.351562 18.828125 -54.375 C 17.984375 -52.519531 16.976562 -50.359375 15.8125 -47.890625 C 14.65625 -45.429688 13.492188 -43.015625 12.328125 -40.640625 C 11.171875 -38.273438 10.222656 -36.300781 9.484375 -34.71875 C 8.921875 -33.507812 8.007812 -33.066406 6.75 -33.390625 C 5.5 -33.722656 4.457031 -34.398438 3.625 -35.421875 C 2.789062 -36.441406 2.648438 -37.367188 3.203125 -38.203125 C 4.503906 -40.066406 5.945312 -42.785156 7.53125 -46.359375 C 9.113281 -49.941406 10.507812 -53.3125 11.71875 -56.46875 C 10.320312 -56.9375 9.203125 -57.726562 8.359375 -58.84375 C 7.523438 -59.957031 7.109375 -61.769531 7.109375 -64.28125 C 7.109375 -66.226562 7.617188 -68.15625 8.640625 -70.0625 C 9.660156 -71.96875 11.097656 -73.570312 12.953125 -74.875 C 14.816406 -76.175781 17.003906 -76.828125 19.515625 -76.828125 C 23.890625 -76.828125 28.097656 -75.988281 32.140625 -74.3125 C 36.179688 -72.644531 39.503906 -70.53125 42.109375 -67.96875 C 44.710938 -65.414062 46.015625 -62.882812 46.015625 -60.375 C 46.015625 -57.769531 45.523438 -55.304688 44.546875 -52.984375 C 43.578125 -50.660156 42.578125 -48.289062 41.546875 -45.875 C 40.523438 -43.457031 40.015625 -40.804688 40.015625 -37.921875 C 40.015625 -35.972656 40.664062 -34.347656 41.96875 -33.046875 C 43.269531 -31.742188 45.5 -31.09375 48.65625 -31.09375 C 50.800781 -31.09375 52.59375 -31.765625 54.03125 -33.109375 C 55.46875 -34.460938 56.882812 -36.160156 58.28125 -38.203125 Z M 58.28125 -38.203125 "/></g></g></g><g fill="#fefae0" fill-opacity="1"><g transform="translate(1030.928089, 123.319152)"><g><path d="M 72.5 -38.203125 C 73.0625 -39.035156 73.945312 -39.335938 75.15625 -39.109375 C 76.363281 -38.878906 77.410156 -38.367188 78.296875 -37.578125 C 79.179688 -36.785156 79.34375 -35.832031 78.78125 -34.71875 C 76.738281 -30.445312 74.765625 -26.265625 72.859375 -22.171875 C 70.953125 -18.078125 68.925781 -14.359375 66.78125 -11.015625 C 64.644531 -7.671875 62.273438 -5 59.671875 -3 C 57.078125 -1 54.101562 0 50.75 0 C 48.707031 0 47.082031 -1.019531 45.875 -3.0625 C 42.894531 6.507812 39.78125 14.175781 36.53125 19.9375 C 33.28125 25.695312 29.65625 29.878906 25.65625 32.484375 C 21.65625 35.085938 17.054688 36.390625 11.859375 36.390625 C 4.515625 36.390625 -1.175781 34.457031 -5.21875 30.59375 C -9.269531 26.738281 -11.296875 21.46875 -11.296875 14.78125 C -11.296875 11.25 -10.785156 8.203125 -9.765625 5.640625 C -8.742188 3.085938 -7.582031 1.066406 -6.28125 -0.421875 C -4.976562 -1.910156 -3.8125 -2.863281 -2.78125 -3.28125 C -1.757812 -3.695312 -1.203125 -3.53125 -1.109375 -2.78125 C -0.742188 0.65625 0.691406 3.488281 3.203125 5.71875 C 5.710938 7.945312 9.109375 9.015625 13.390625 8.921875 C 17.472656 8.828125 21.257812 7.640625 24.75 5.359375 C 28.238281 3.085938 31.117188 0.046875 33.390625 -3.765625 C 35.671875 -7.578125 37.046875 -11.710938 37.515625 -16.171875 C 37.691406 -17.753906 37.269531 -18.640625 36.25 -18.828125 C 35.226562 -19.015625 34.347656 -18.222656 33.609375 -16.453125 C 31.742188 -11.804688 29.140625 -8.132812 25.796875 -5.4375 C 22.453125 -2.738281 18.5 -1.390625 13.9375 -1.390625 C 10.21875 -1.390625 6.988281 -2.617188 4.25 -5.078125 C 1.507812 -7.546875 0.140625 -11.429688 0.140625 -16.734375 C 0.140625 -18.867188 0.300781 -21.84375 0.625 -25.65625 C 0.945312 -29.46875 1.804688 -33.648438 3.203125 -38.203125 C 6.460938 -48.429688 9.738281 -56.238281 13.03125 -61.625 C 16.332031 -67.019531 19.9375 -69.71875 23.84375 -69.71875 C 26.726562 -69.71875 28.171875 -67.859375 28.171875 -64.140625 C 28.171875 -61.160156 27.632812 -58.132812 26.5625 -55.0625 C 25.488281 -52 24.441406 -49.003906 23.421875 -46.078125 C 22.398438 -43.148438 21.890625 -40.296875 21.890625 -37.515625 C 21.890625 -35.554688 22.285156 -34.019531 23.078125 -32.90625 C 23.867188 -31.789062 25.425781 -31.234375 27.75 -31.234375 C 30.8125 -31.234375 33.269531 -32.140625 35.125 -33.953125 C 36.988281 -35.765625 38.476562 -38.296875 39.59375 -41.546875 C 42.476562 -50.660156 45.40625 -57.632812 48.375 -62.46875 C 51.351562 -67.300781 54.609375 -69.71875 58.140625 -69.71875 C 60.191406 -69.71875 61.75 -69.253906 62.8125 -68.328125 C 63.882812 -67.398438 64.421875 -65.816406 64.421875 -63.578125 C 64.421875 -60.703125 63.515625 -57.238281 61.703125 -53.1875 C 59.890625 -49.144531 57.773438 -43.59375 55.359375 -36.53125 C 54.242188 -32.625 54.171875 -29.90625 55.140625 -28.375 C 56.117188 -26.84375 57.398438 -26.078125 58.984375 -26.078125 C 61.117188 -26.078125 63.394531 -27.378906 65.8125 -29.984375 C 68.226562 -32.585938 70.457031 -35.328125 72.5 -38.203125 Z M 72.5 -38.203125 "/></g></g></g></svg>