<svg xmlns="http://www.w3.org/2000/svg" xmlns:xlink="http://www.w3.org/1999/xlink" width="1500" zoomAndPan="magnify" viewBox="0 0 1125 217.499994" height="290" preserveAspectRatio="xMidYMid meet" version="1.0"><defs><g/><clipPath id="35289f794e"><path d="M 1.289062 0 L 1123.707031 0 L 1123.707031 217 L 1.289062 217 Z M 1.289062 0 " clip-rule="nonzero"/></clipPath></defs><g clip-path="url(#35289f794e)"><path stroke-linecap="butt" transform="matrix(3.404366, 0, 0, 3.404366, -121.321316, 65.24512)" fill="none" stroke-linejoin="miter" d="M 52.220688 37.709214 C 49.7216 37.709214 47.704429 37.179104 46.171471 36.118885 C 44.64884 35.067845 43.534692 33.708148 42.831321 32.038646 C 42.117624 30.357671 41.759628 28.635388 41.759628 26.870651 C 41.759628 25.105913 42.117624 23.420348 42.831321 21.813955 C 43.534692 20.196088 44.53295 18.883435 45.824949 17.87485 C 47.116948 16.855938 48.623515 16.346482 50.345798 16.346482 C 50.987208 16.346482 51.307339 16.604652 51.307339 17.118698 C 51.307339 18.54724 51.832859 19.702696 52.882751 20.585064 C 53.942971 21.467433 55.224643 21.908044 56.72662 21.908044 C 58.491358 21.908044 60.360511 21.109437 62.335227 19.513371 C 64.320269 17.917305 66.258268 15.033829 68.148074 10.864092 C 68.716049 9.404569 69.288613 7.892265 69.865767 6.327179 C 70.444069 4.751767 71.015486 3.27618 71.58346 1.900419 C 72.003417 0.775944 72.570245 -0.0215151 73.28509 -0.494254 C 73.998787 -0.966992 74.828374 -1.203361 75.773851 -1.203361 C 77.149612 -1.203361 78.052634 -0.888967 78.484066 -0.257884 C 78.91435 0.361724 78.955657 1.207376 78.609135 2.277922 C 78.052634 3.875135 77.612024 5.224505 77.286156 6.327179 C 76.960287 7.419527 76.756046 8.353529 76.672284 9.131483 C 76.629829 9.897962 76.834071 10.381027 77.286156 10.580679 C 77.73824 10.770003 78.352112 10.864092 79.128918 10.864092 C 80.463371 10.864092 81.708326 10.512981 82.863781 9.808462 C 84.029564 9.094765 84.963567 8.122897 85.668085 6.894007 C 86.381782 5.665116 86.738631 4.299682 86.738631 2.797705 C 86.738631 0.1724 85.662347 -1.6761 83.508633 -2.747793 C 81.356067 -3.829814 78.625199 -4.37025 75.317177 -4.37025 C 72.480746 -4.37025 70.09181 -3.950293 68.148074 -3.110379 C 66.215813 -2.269318 64.745964 -1.203361 63.737378 0.0886376 C 62.728793 1.380637 62.225074 2.713943 62.225074 4.089704 C 62.225074 4.951419 62.461443 5.675443 62.934182 6.264071 C 63.40692 6.841225 63.984074 7.130376 64.666791 7.130376 C 64.972006 7.813093 64.99266 8.63809 64.7299 9.604221 C 64.477466 10.570352 63.973747 11.494028 63.217595 12.376396 C 62.461443 13.258765 61.489575 14.00459 60.30314 14.613872 C 59.12703 15.212827 57.766186 15.512305 56.222901 15.512305 C 54.458164 15.512305 52.97225 15.091201 51.764013 14.251286 C 50.555776 13.411372 49.652754 12.302961 49.053799 10.9272 C 48.455991 9.55144 48.156514 8.091917 48.156514 6.547485 C 48.156514 4.268702 48.81284 1.978444 50.125493 -0.320993 C 51.438145 -2.631904 53.318772 -4.743163 55.766227 -6.654771 C 58.212534 -8.566378 61.179771 -10.099336 64.666791 -11.254792 C 68.153811 -12.420574 72.092917 -13.003465 76.482959 -13.003465 C 83.540761 -13.003465 88.766128 -11.764248 92.157912 -9.285813 C 95.56117 -6.817705 97.2628 -3.414447 97.2628 0.922815 C 97.2628 4.494744 96.34945 7.529679 94.521605 10.028768 C 92.693759 12.518677 90.184344 14.025244 86.991064 14.550764 C 86.088042 14.676981 85.483349 14.829588 85.179282 15.007439 C 84.885542 15.17611 84.737524 15.364287 84.737524 15.574266 C 84.737524 15.837026 84.853414 16.042415 85.084046 16.189285 C 85.326152 16.336155 85.652021 16.572524 86.061651 16.898393 C 86.471281 17.224261 86.891238 17.795678 87.321522 18.614938 C 87.79426 19.476653 88.361088 20.196088 89.023151 20.773242 C 89.695541 21.351543 90.655935 21.640694 91.906626 21.640694 C 93.366149 21.640694 94.558322 21.24598 95.481998 20.458848 C 96.406822 19.660241 97.299517 18.614938 98.161232 17.324087 C 98.507754 16.808894 98.948365 16.614979 99.484212 16.741196 C 100.020058 16.866265 100.460669 17.155415 100.807191 17.6075 C 101.153713 18.058438 101.238622 18.500196 101.059624 18.93048 C 100.25069 20.862741 99.253579 22.790413 98.065996 24.712347 C 96.87956 26.623955 95.577234 28.356564 94.159019 29.911323 C 92.740803 31.455755 91.223909 32.689236 89.606042 33.614059 C 87.999649 34.537735 86.355391 35.000147 84.675563 35.000147 C 82.868371 35.000147 81.319349 34.354147 80.02735 33.062148 C 78.735351 31.770149 77.984936 29.664627 77.774958 26.744434 C 77.690049 25.841412 77.612024 24.8225 77.538589 23.688845 C 77.47548 22.543716 77.369917 21.467433 77.223047 20.458848 C 77.076177 19.439936 76.787026 18.600022 76.356742 17.937958 C 75.926459 17.265568 75.321766 16.929373 74.544961 16.929373 C 74.072222 16.929373 73.715373 17.061327 73.473267 17.324087 C 73.242635 17.575373 73.037246 17.937958 72.859395 18.410697 C 71.524942 22.065241 69.823313 25.34802 67.754508 28.256738 C 65.69603 31.156278 63.364466 33.455714 60.759814 35.157344 C 58.165489 36.858973 55.319879 37.709214 52.220688 37.709214 Z M 128.867434 17.324087 C 129.119867 16.93511 129.52376 16.79283 130.081408 16.898393 C 130.648235 17.002808 131.137038 17.239177 131.546668 17.6075 C 131.956298 17.974676 132.029733 18.416434 131.766973 18.93048 C 131.168018 20.222479 130.385475 21.555785 129.419345 22.932693 C 128.453214 24.308454 127.244977 25.458172 125.795781 26.381848 C 124.356912 27.306672 122.581848 27.769083 120.470588 27.769083 L 119.698372 27.769083 C 118.112633 29.964105 116.211352 31.717368 113.995677 33.031168 C 111.780002 34.34382 109.463354 35.000147 107.048028 35.000147 C 104.170289 35.000147 101.785943 34.034016 99.894989 32.101755 C 98.005183 30.158019 97.059706 27.510913 97.059706 24.160436 C 97.059706 21.74511 97.500316 19.282739 98.382685 16.772176 C 99.265054 14.251286 100.499681 11.930049 102.085421 9.808462 C 103.681487 7.67655 105.551787 5.964594 107.694027 4.672595 C 109.846594 3.380596 112.216023 2.734596 114.798874 2.734596 C 116.563611 2.734596 118.155088 3.092592 119.573303 3.80629 C 120.990371 4.509661 122.119436 5.68118 122.960497 7.319701 C 123.800411 8.947895 124.220368 11.121115 124.220368 13.841656 C 124.220368 16.120439 123.900237 18.331525 123.258828 20.474912 L 123.700586 20.474912 C 124.646063 20.474912 125.549085 20.227068 126.409653 19.733676 C 127.271368 19.240284 128.090628 18.437088 128.867434 17.324087 Z M 110.734699 21.640694 C 111.806393 21.640694 112.750723 21.319416 113.569983 20.679153 C 114.389243 20.028564 115.035243 19.240284 115.507981 18.316608 C 115.98072 17.391785 116.217089 16.478436 116.217089 15.574266 C 116.217089 14.629936 115.938265 13.825592 115.381765 13.164676 C 114.825264 12.492286 113.922242 12.156091 112.672698 12.156091 C 111.643459 12.156091 110.728962 12.460158 109.931503 13.06944 C 109.132896 13.668395 108.50755 14.430285 108.056613 15.353961 C 107.604528 16.278784 107.378486 17.212787 107.378486 18.158264 C 107.378486 19.103741 107.636656 19.923001 108.150702 20.616045 C 108.665895 21.298762 109.526462 21.640694 110.734699 21.640694 Z M 134.21328 35.000147 C 132.017112 35.000147 130.357937 34.097124 129.234609 32.289932 C 128.120461 30.483887 127.563961 28.141996 127.563961 25.264258 C 127.563961 23.446739 127.790003 21.519067 128.242088 19.48239 C 128.693025 17.434239 129.360826 15.422806 130.242047 13.44809 C 131.124416 11.473374 132.232827 9.677656 133.567281 8.059789 C 134.900587 6.443069 136.449609 5.15107 138.214346 4.18494 C 139.979084 3.217662 141.98019 2.734596 144.216519 2.734596 C 145.508518 2.734596 146.506776 2.856223 147.210147 3.097182 C 147.923844 3.328962 148.465428 3.616965 148.832604 3.963487 C 149.200927 4.310009 149.510731 4.604897 149.762017 4.845856 C 150.024777 5.077635 150.371299 5.192378 150.801582 5.192378 C 151.526754 5.192378 152.115382 4.988136 152.56632 4.578506 C 153.018405 4.168876 153.522124 3.759246 154.078624 3.349615 C 154.646599 2.939985 155.423405 2.734596 156.410189 2.734596 C 157.271904 2.734596 157.865122 2.950312 158.19099 3.380596 C 158.516858 3.812027 158.679793 4.394918 158.679793 5.129269 C 158.679793 6.327179 158.343597 7.519353 157.671207 8.705788 C 157.009144 9.892224 156.310363 11.430919 155.576012 13.321873 C 154.504318 15.685566 154.105015 17.491611 154.378102 18.741155 C 154.661515 19.991847 155.512904 20.616045 156.931119 20.616045 C 158.04412 20.616045 159.010251 20.326894 159.829511 19.74974 C 160.648771 19.161112 161.38427 18.353326 162.034859 17.324087 C 162.371054 16.808894 162.807075 16.625306 163.342922 16.772176 C 163.889096 16.919046 164.340033 17.208197 164.698029 17.638481 C 165.065205 18.068765 165.144377 18.500196 164.933251 18.93048 C 164.156445 20.432457 163.326858 22.101958 162.444489 23.940131 C 161.562121 25.767977 160.579926 27.522387 159.499053 29.202215 C 158.427359 30.872864 157.204206 32.258952 155.827298 33.361626 C 154.451537 34.453973 152.861208 35.000147 151.054016 35.000147 C 148.81654 35.000147 147.236538 34.097124 146.311714 32.289932 C 145.388038 30.483887 145.119541 28.246412 145.508518 25.578652 L 145.256084 25.578652 C 143.965233 28.205104 142.368019 30.431106 140.466739 32.258952 C 138.576932 34.086797 136.492063 35.000147 134.21328 35.000147 Z M 140.672127 21.640694 C 141.785128 21.640694 142.761586 21.319416 143.602647 20.679153 C 144.442561 20.028564 145.098887 19.240284 145.571626 18.316608 C 146.044364 17.391785 146.280734 16.478436 146.280734 15.574266 C 146.280734 14.50372 145.975519 13.668395 145.367385 13.06944 C 144.768429 12.460158 143.953759 12.156091 142.92452 12.156091 C 141.811519 12.156091 140.845388 12.460158 140.026128 13.06944 C 139.206867 13.668395 138.571195 14.430285 138.120257 15.353961 C 137.668173 16.278784 137.44213 17.212787 137.44213 18.158264 C 137.44213 19.229957 137.731281 20.080198 138.308435 20.711281 C 138.897063 21.33089 139.684196 21.640694 140.672127 21.640694 Z M 164.600498 35.000147 C 163.098521 35.000147 161.938475 34.548062 161.119215 33.645039 C 160.299955 32.742017 159.890324 31.623279 159.890324 30.289973 C 159.890324 28.787995 160.021131 26.907368 160.283891 24.649239 C 160.536324 22.391109 161.113478 19.949392 162.017648 17.324087 C 162.92067 14.656327 163.803039 12.224936 164.663606 10.028768 C 165.525322 7.833747 166.397363 6.070157 167.279732 4.735703 C 168.160953 3.402397 169.032995 2.734596 169.89471 2.734596 C 170.630209 2.734596 171.144255 2.981292 171.437995 3.475832 C 171.74321 3.969224 171.895817 4.541788 171.895817 5.192378 C 171.895817 6.264071 172.215948 6.993833 172.856211 7.382809 C 173.507947 7.770638 174.347861 7.445917 175.3771 6.405204 C 176.585337 5.250896 177.834881 4.352464 179.12688 3.712201 C 180.418879 3.060465 181.772839 2.734596 183.191055 2.734596 C 184.776794 2.734596 186.032075 3.123573 186.956899 3.900379 C 187.880575 4.668005 188.495594 5.634136 188.799661 6.799918 C 188.883423 7.230202 189.052094 7.476898 189.30338 7.540006 C 189.56614 7.603114 189.934463 7.356418 190.407201 6.799918 C 191.656745 5.424157 192.969398 4.383444 194.345159 3.680073 C 195.72092 2.966376 197.18618 2.609527 198.740938 2.609527 C 201.272155 2.609527 203.051809 3.192418 204.081048 4.358201 C 205.121761 5.512509 205.641544 6.910071 205.641544 8.548591 C 205.641544 9.661592 205.468283 10.680504 205.121761 11.60418 C 204.785566 12.529004 204.443634 13.432026 204.097112 14.314395 C 203.75059 15.196763 203.577329 16.178958 203.577329 17.260978 C 203.577329 19.497307 204.632958 20.616045 206.744218 20.616045 C 207.731002 20.616045 208.556 20.306241 209.216916 19.686632 C 209.889306 19.056696 210.545632 18.268416 211.187042 17.324087 C 211.533564 16.808894 211.984501 16.625306 212.542149 16.772176 C 213.108976 16.919046 213.571388 17.208197 213.928237 17.638481 C 214.295412 18.068765 214.352783 18.500196 214.101498 18.93048 C 213.671214 19.623524 213.150283 20.626372 212.542149 21.940172 C 211.943194 23.242497 211.223759 24.638912 210.382698 26.130563 C 209.542784 27.610739 208.560589 29.028954 207.437262 30.384062 C 206.324261 31.739169 205.068979 32.846433 203.671417 33.708148 C 202.275003 34.569863 200.693853 35.000147 198.930263 35.000147 C 196.871786 35.000147 195.431769 34.322019 194.612509 32.968059 C 193.794396 31.612952 193.384765 30.011149 193.384765 28.16265 C 193.384765 26.524129 193.60966 24.96478 194.061745 23.483456 C 194.51383 22.002133 194.964768 20.648173 195.416852 19.419282 C 195.86779 18.190392 196.093832 17.145089 196.093832 16.283374 C 196.093832 15.559349 195.86779 15.002849 195.416852 14.613872 C 194.964768 14.224896 194.37155 14.030981 193.636051 14.030981 C 192.386507 14.030981 191.236788 14.545027 190.185748 15.574266 C 189.135856 16.604652 188.285615 17.895504 187.633878 19.450263 C 186.993616 20.994695 186.672338 22.585024 186.672338 24.223545 C 186.672338 25.169022 186.74692 25.898783 186.89379 26.413976 C 187.050987 26.928022 187.13016 27.658931 187.13016 28.60326 C 187.13016 29.517757 186.987879 30.457497 186.704465 31.423627 C 186.421052 32.389758 185.869141 33.209018 185.049881 33.881409 C 184.240947 34.543472 183.017794 34.87393 181.379273 34.87393 C 179.91975 34.87393 178.690859 34.4643 177.692601 33.645039 C 176.705817 32.825779 176.212424 31.360519 176.212424 29.24926 C 176.212424 27.622213 176.479774 26.057127 177.015621 24.55515 C 177.561795 23.042846 178.102231 21.618893 178.638078 20.285587 C 179.173925 18.951133 179.441274 17.748633 179.441274 16.678087 C 179.441274 15.816372 179.215232 15.1807 178.764294 14.771069 C 178.31221 14.361439 177.718992 14.157198 176.983493 14.157198 C 175.744276 14.157198 174.594557 14.687307 173.53319 15.748674 C 172.483298 16.798567 171.633057 18.164001 170.98132 19.843829 C 170.341058 21.514478 170.020927 23.320522 170.020927 25.264258 L 170.020927 28.16265 C 170.020927 29.234343 169.888973 30.3003 169.626213 31.360519 C 169.374928 32.411559 168.859734 33.282454 168.082929 33.975497 C 167.31645 34.658214 166.155257 35.000147 164.600498 35.000147 Z M 277.898247 17.324087 C 278.202314 16.851348 278.548836 16.688414 278.937813 16.835284 C 279.326789 16.982155 279.688228 17.260978 280.024423 17.670609 C 280.370945 18.080239 280.633705 18.500196 280.812703 18.93048 C 280.382419 19.623524 279.861489 20.626372 279.253354 21.940172 C 278.654399 23.242497 277.934965 24.638912 277.095051 26.130563 C 276.253989 27.610739 275.271795 29.028954 274.148467 30.384062 C 273.035466 31.739169 271.780185 32.846433 270.382623 33.708148 C 268.986208 34.569863 267.405059 35.000147 265.641469 35.000147 C 263.277776 35.000147 261.482058 34.164822 260.253168 32.495321 C 259.024277 30.814345 258.409258 28.509172 258.409258 25.578652 C 258.409258 23.730152 258.6353 21.924108 259.087385 20.15937 C 259.538323 18.394633 260.063843 16.741196 260.662798 15.196763 C 261.27208 13.642005 261.802189 12.286897 262.254274 11.132589 C 262.705212 9.966807 262.931254 9.058047 262.931254 8.406311 C 262.931254 7.460834 262.521624 6.989243 261.702364 6.989243 C 261.145863 6.989243 260.589363 7.26233 260.032862 7.807356 C 259.476362 8.343203 258.87167 9.309333 258.221081 10.706895 C 257.579671 12.10331 256.849909 14.083763 256.030649 16.645959 C 255.211389 19.197829 254.287713 22.523063 253.258474 26.618218 C 252.701973 28.855693 251.89304 30.294563 250.831673 30.934825 C 249.78178 31.576235 248.715824 31.896366 247.633803 31.896366 C 245.61778 31.896366 244.262673 31.555581 243.569629 30.872864 C 242.886912 30.178673 242.54498 29.165498 242.54498 27.832192 C 242.54498 26.634281 242.738895 25.315892 243.127871 23.877023 C 243.516848 22.427827 243.947132 20.909785 244.41987 19.324046 C 244.892609 17.72798 245.318303 16.126177 245.695805 14.519784 C 246.084782 12.901916 246.278696 11.363221 246.278696 9.903699 C 246.278696 8.653007 246.126089 7.82342 245.822022 7.41379 C 245.528281 7.004159 245.165695 6.799918 244.735412 6.799918 C 243.789935 6.799918 243.185242 7.403463 242.92363 8.6117 C 241.505414 15.574266 239.536435 21.198936 237.015546 25.484563 C 234.504983 29.758716 231.627245 32.868234 228.382331 34.810822 C 225.13627 36.743083 221.681378 37.709214 218.015359 37.709214 C 215.526598 37.709214 213.452056 37.179104 211.792881 36.118885 C 210.132559 35.067845 208.899079 33.708148 208.090146 32.038646 C 207.270885 30.357671 206.861255 28.635388 206.861255 26.870651 C 206.861255 25.105913 207.218104 23.420348 207.932949 21.813955 C 208.636319 20.196088 209.634578 18.883435 210.926577 17.87485 C 212.217428 16.855938 213.725143 16.346482 215.447425 16.346482 C 216.087688 16.346482 216.408966 16.604652 216.408966 17.118698 C 216.408966 18.54724 217.033165 19.702696 218.283856 20.585064 C 219.533401 21.467433 221.082422 21.908044 222.930922 21.908044 C 224.736966 21.908044 226.434006 21.467433 228.019745 20.585064 C 229.615811 19.702696 231.060418 18.552977 232.352417 17.134762 C 233.644415 15.70622 234.762006 14.135397 235.707483 12.423441 C 236.65296 10.701158 237.372395 8.978875 237.865787 7.256593 C 238.359179 5.53431 238.607022 3.985288 238.607022 2.609527 C 238.607022 0.886097 238.207719 -0.426556 237.409112 -1.329578 C 236.610505 -2.2326 235.523895 -2.684685 234.148134 -2.684685 C 232.603702 -2.684685 231.227941 -2.112121 230.020852 -0.966992 C 228.822942 0.166662 228.223987 1.747812 228.223987 3.775309 C 228.223987 4.88831 228.533791 5.833787 229.1534 6.610593 C 229.773008 7.377072 230.555551 7.760311 231.501028 7.760311 C 231.890005 8.622027 231.826897 9.667329 231.311703 10.89622 C 230.797658 12.125111 229.904962 13.201394 228.633617 14.12507 C 227.363419 15.049893 225.761616 15.512305 223.829354 15.512305 C 221.286664 15.512305 219.176552 14.587482 217.495576 12.738982 C 215.826075 10.890483 214.990751 8.459092 214.990751 5.444811 C 214.990751 2.997356 215.484143 0.665792 216.472075 -1.549883 C 217.458859 -3.766706 218.887401 -5.735684 220.756554 -7.457967 C 222.637181 -9.18025 224.884984 -10.535357 227.499962 -11.523289 C 230.125267 -12.510073 233.055787 -13.003465 236.290374 -13.003465 C 241.919634 -13.003465 246.274107 -11.411989 249.351496 -8.230183 C 252.428886 -5.04723 254.245258 -0.76734 254.801758 4.609486 C 255.873452 2.373158 257.149387 0.19879 258.630711 -1.912469 C 260.121214 -4.023728 261.739081 -5.903208 263.483165 -7.552056 C 265.226101 -9.212378 267.021819 -10.535357 268.870319 -11.523289 C 270.718818 -12.510073 272.546664 -13.003465 274.352708 -13.003465 C 276.852944 -13.003465 278.617682 -12.336812 279.646921 -11.002358 C 280.676159 -9.669052 281.190205 -8.12462 281.190205 -6.371357 C 281.190205 -5.079358 280.953836 -3.808013 280.482245 -2.558469 C 280.009506 -1.308924 279.404814 -0.273948 278.670463 0.545312 C 277.945291 1.364573 277.193729 1.774203 276.416923 1.774203 C 275.944185 1.774203 275.534555 1.658313 275.188033 1.427681 C 274.851838 1.185575 274.468598 1.065095 274.038314 1.065095 C 273.386578 1.065095 272.783033 1.454072 272.226532 2.230877 C 271.670032 2.997356 271.17664 3.995615 270.745209 5.224505 C 270.314925 6.443069 269.947749 7.745395 269.642535 9.131483 C 269.348794 10.507243 269.112425 11.819896 268.933427 13.06944 C 268.765903 14.308658 268.682141 15.317243 268.682141 16.095196 C 268.682141 17.428502 268.970144 18.515112 269.548446 19.356174 C 270.1256 20.196088 271.150249 20.616045 272.620099 20.616045 C 274.678577 20.616045 276.437577 19.519108 277.898247 17.324087 Z M 283.244093 35.000147 C 281.049072 35.000147 279.38875 34.097124 278.265423 32.289932 C 277.152422 30.483887 276.595921 28.141996 276.595921 25.264258 C 276.595921 23.446739 276.820816 21.519067 277.272901 19.48239 C 277.724986 17.434239 278.391639 15.422806 279.274008 13.44809 C 280.156377 11.473374 281.26364 9.677656 282.598094 8.059789 C 283.9314 6.443069 285.480422 5.15107 287.245159 4.18494 C 289.009897 3.217662 291.011003 2.734596 293.247332 2.734596 C 294.539331 2.734596 295.537589 2.856223 296.24096 3.097182 C 296.955805 3.328962 297.496241 3.616965 297.863417 3.963487 C 298.23174 4.310009 298.541544 4.604897 298.79283 4.845856 C 299.05559 5.077635 299.402112 5.192378 299.833543 5.192378 C 300.557567 5.192378 301.146196 4.988136 301.597133 4.578506 C 302.049218 4.168876 302.552937 3.759246 303.110585 3.349615 C 303.677412 2.939985 304.454218 2.734596 305.442149 2.734596 C 306.302717 2.734596 306.895935 2.950312 307.221803 3.380596 C 307.547672 3.812027 307.710606 4.394918 307.710606 5.129269 C 307.710606 6.327179 307.374411 7.519353 306.70202 8.705788 C 306.039957 9.892224 305.342324 11.430919 304.606825 13.321873 C 303.535131 15.685566 303.135828 17.491611 303.408915 18.741155 C 303.693476 19.991847 304.543717 20.616045 305.961932 20.616045 C 307.074933 20.616045 308.041064 20.326894 308.860324 19.74974 C 309.679585 19.161112 310.415083 18.353326 311.065672 17.324087 C 311.401867 16.808894 311.837888 16.625306 312.373735 16.772176 C 312.919909 16.919046 313.370846 17.208197 313.728842 17.638481 C 314.096018 18.068765 314.17519 18.500196 313.965212 18.93048 C 313.187258 20.432457 312.357671 22.101958 311.475302 23.940131 C 310.592934 25.767977 309.611887 27.522387 308.529866 29.202215 C 307.458173 30.872864 306.235019 32.258952 304.859258 33.361626 C 303.48235 34.453973 301.892021 35.000147 300.084829 35.000147 C 297.8485 35.000147 296.267351 34.097124 295.342527 32.289932 C 294.418851 30.483887 294.151502 28.246412 294.539331 25.578652 L 294.288045 25.578652 C 292.996046 28.205104 291.398833 30.431106 289.498699 32.258952 C 287.607745 34.086797 285.522877 35.000147 283.244093 35.000147 Z M 289.702941 21.640694 C 290.815941 21.640694 291.793546 21.319416 292.63346 20.679153 C 293.473374 20.028564 294.129701 19.240284 294.602439 18.316608 C 295.075178 17.391785 295.311547 16.478436 295.311547 15.574266 C 295.311547 14.50372 295.00748 13.668395 294.398198 13.06944 C 293.799243 12.460158 292.985719 12.156091 291.955333 12.156091 C 290.842332 12.156091 289.876201 12.460158 289.056941 13.06944 C 288.237681 13.668395 287.602008 14.430285 287.151071 15.353961 C 286.698986 16.278784 286.472943 17.212787 286.472943 18.158264 C 286.472943 19.229957 286.762094 20.080198 287.340395 20.711281 C 287.927876 21.33089 288.716156 21.640694 289.702941 21.640694 Z M 316.089093 35.000147 C 313.673766 35.000147 311.894112 34.260058 310.748983 32.778735 C 309.614181 31.287084 309.047354 29.349086 309.047354 26.964739 C 309.047354 24.581541 309.520093 22.013607 310.46557 19.260938 C 311.032397 17.622417 311.657743 15.858827 312.34046 13.967873 C 313.033504 12.066592 313.783919 9.997787 314.592852 7.760311 C 313.647375 7.760311 312.927941 7.513615 312.434549 7.020223 C 311.941156 6.526831 311.615288 5.94853 311.458091 5.287614 C 311.311221 4.615223 311.311221 4.032332 311.458091 3.53894 C 311.615288 3.044401 311.888375 2.797705 312.277352 2.797705 C 314.167158 2.797705 315.648482 2.273332 316.720175 1.222292 C 317.802196 0.162073 318.558348 -0.946338 318.988632 -2.101794 C 319.765438 -3.991601 320.517 -5.183774 321.241024 -5.678313 C 321.976523 -6.182032 322.753329 -6.434465 323.572589 -6.434465 C 324.780826 -6.434465 325.531241 -5.925009 325.826129 -4.906097 C 326.130196 -3.897512 325.789411 -2.385208 324.80148 -0.369184 C 324.328741 0.671529 324.067128 1.458661 324.014347 1.994508 C 323.971892 2.530355 324.255306 2.797705 324.864588 2.797705 L 328.220802 2.797705 C 328.651086 2.797705 328.92991 3.102919 329.054979 3.712201 C 329.181195 4.310009 329.170868 4.998463 329.023998 5.775269 C 328.877128 6.541748 328.598304 7.230202 328.188674 7.839484 C 327.779044 8.438439 327.248934 8.737916 326.598345 8.737916 C 324.623629 8.737916 323.162959 8.815941 322.218629 8.974286 C 321.273152 9.121156 320.605352 9.494068 320.217522 10.091876 C 319.828546 10.690831 319.418916 11.725807 318.988632 13.195657 C 318.295588 15.433133 318.389677 17.218524 319.272045 18.552977 C 320.154414 19.875957 321.546239 20.53802 323.446372 20.53802 C 324.738371 20.53802 325.889237 20.248869 326.896675 19.670568 C 327.90526 19.093414 328.730258 18.310871 329.37052 17.324087 C 329.717042 16.808894 330.1588 16.625306 330.6935 16.772176 C 331.239673 16.919046 331.691758 17.208197 332.048607 17.638481 C 332.41693 18.068765 332.494954 18.500196 332.284976 18.93048 C 331.895999 19.665978 331.376217 20.679153 330.725627 21.971152 C 330.085365 23.252824 329.313149 24.649239 328.410127 26.161543 C 327.505957 27.66352 326.450327 29.081736 325.243238 30.415042 C 324.045327 31.749496 322.679893 32.846433 321.146936 33.708148 C 319.624305 34.569863 317.938739 35.000147 316.089093 35.000147 Z M 340.020906 35.000147 C 337.436908 35.000147 335.315322 34.421845 333.656147 33.267537 C 332.007299 32.101755 330.782999 30.56306 329.985539 28.651452 C 329.186932 26.72837 328.797956 24.618258 328.819757 22.317674 C 328.84041 20.01709 329.239714 17.717653 330.01652 15.417069 C 330.793325 13.117632 331.912063 11.010962 333.372734 9.099355 C 334.832256 7.17742 336.60732 5.638725 338.696779 4.48327 C 340.787384 3.317487 343.14534 2.734596 345.770645 2.734596 C 347.787816 2.734596 349.430926 3.113246 350.702271 3.869398 C 351.972469 4.615223 352.907619 5.612335 353.506575 6.863026 C 354.10553 8.11257 354.40386 9.445877 354.40386 10.864092 C 354.40386 12.418851 353.973576 13.967873 353.113008 15.512305 C 352.26162 17.05559 351.05912 18.337262 349.504361 19.356174 C 347.961077 20.363612 346.133231 20.868478 344.021971 20.868478 C 343.118949 20.868478 342.23658 20.80537 341.376013 20.679153 C 340.514298 20.54261 339.721428 20.259196 338.996256 19.828912 C 338.775951 19.702696 338.534992 19.696959 338.272232 19.812848 C 338.019799 19.917264 337.893582 20.185761 337.893582 20.616045 C 337.893582 21.729046 338.549909 22.580434 339.862561 23.167915 C 341.176361 23.746216 342.756363 24.035367 344.604863 24.035367 C 346.799884 24.035367 349.069488 23.477719 351.411379 22.364718 C 353.753271 21.241391 355.654551 19.560415 357.114074 17.324087 C 357.460596 16.808894 357.912681 16.625306 358.469181 16.772176 C 359.036009 16.919046 359.49842 17.208197 359.855269 17.638481 C 360.223592 18.068765 360.280963 18.500196 360.02853 18.93048 C 357.18292 24.182237 354.068812 28.172976 350.686207 30.903844 C 347.315077 33.634713 343.759211 35.000147 340.020906 35.000147 Z M 342.35247 16.032088 C 343.591688 16.032088 344.563555 15.632784 345.266926 14.834178 C 345.980623 14.036718 346.33862 13.227785 346.33862 12.408524 C 346.33862 11.683353 346.090776 11.063744 345.597384 10.549698 C 345.103992 10.024178 344.363904 9.761418 343.375972 9.761418 C 342.126428 9.761418 341.133906 10.150395 340.398408 10.9272 C 339.674384 11.704006 339.311798 12.523267 339.311798 13.384982 C 339.311798 14.067699 339.558494 14.68157 340.051886 15.227744 C 340.545278 15.763591 341.312904 16.032088 342.35247 16.032088 Z M 342.35247 16.032088 " stroke="#bc6c25" stroke-width="8.792757" stroke-opacity="1" stroke-miterlimit="4"/></g><g fill="#fefae0" fill-opacity="1"><g transform="translate(29.641049, 184.397939)"><g><path d="M 26.796875 9.234375 C 18.304688 9.234375 11.460938 7.4375 6.265625 3.84375 C 1.066406 0.257812 -2.738281 -4.382812 -5.15625 -10.09375 C -7.570312 -15.8125 -8.78125 -21.675781 -8.78125 -27.6875 C -8.78125 -33.6875 -7.570312 -39.429688 -5.15625 -44.921875 C -2.738281 -50.421875 0.660156 -54.890625 5.046875 -58.328125 C 9.441406 -61.765625 14.570312 -63.484375 20.4375 -63.484375 C 22.625 -63.484375 23.71875 -62.609375 23.71875 -60.859375 C 23.71875 -56.023438 25.507812 -52.101562 29.09375 -49.09375 C 32.6875 -46.09375 37.050781 -44.59375 42.1875 -44.59375 C 48.1875 -44.59375 54.550781 -47.300781 61.28125 -52.71875 C 68.019531 -58.144531 74.613281 -67.957031 81.0625 -82.15625 C 82.96875 -87.132812 84.910156 -92.296875 86.890625 -97.640625 C 88.867188 -102.992188 90.804688 -108.015625 92.703125 -112.703125 C 94.171875 -116.503906 96.113281 -119.210938 98.53125 -120.828125 C 100.945312 -122.441406 103.765625 -123.25 106.984375 -123.25 C 111.671875 -123.25 114.742188 -122.1875 116.203125 -120.0625 C 117.671875 -117.9375 117.820312 -115.039062 116.65625 -111.375 C 114.75 -105.957031 113.242188 -101.378906 112.140625 -97.640625 C 111.046875 -93.910156 110.351562 -90.726562 110.0625 -88.09375 C 109.914062 -85.457031 110.609375 -83.804688 112.140625 -83.140625 C 113.679688 -82.484375 115.769531 -82.15625 118.40625 -82.15625 C 122.945312 -82.15625 127.191406 -83.363281 131.140625 -85.78125 C 135.097656 -88.195312 138.285156 -91.492188 140.703125 -95.671875 C 143.117188 -99.847656 144.328125 -104.5 144.328125 -109.625 C 144.328125 -118.5625 140.664062 -124.859375 133.34375 -128.515625 C 126.019531 -132.179688 116.722656 -134.015625 105.453125 -134.015625 C 95.785156 -134.015625 87.65625 -132.582031 81.0625 -129.71875 C 74.46875 -126.863281 69.453125 -123.238281 66.015625 -118.84375 C 62.578125 -114.457031 60.859375 -109.921875 60.859375 -105.234375 C 60.859375 -102.304688 61.660156 -99.851562 63.265625 -97.875 C 64.878906 -95.894531 66.859375 -94.90625 69.203125 -94.90625 C 70.222656 -92.5625 70.296875 -89.738281 69.421875 -86.4375 C 68.546875 -83.144531 66.820312 -80 64.25 -77 C 61.6875 -74 58.390625 -71.472656 54.359375 -69.421875 C 50.335938 -67.367188 45.691406 -66.34375 40.421875 -66.34375 C 34.421875 -66.34375 29.367188 -67.769531 25.265625 -70.625 C 21.160156 -73.476562 18.082031 -77.25 16.03125 -81.9375 C 13.988281 -86.625 12.96875 -91.601562 12.96875 -96.875 C 12.96875 -104.644531 15.195312 -112.445312 19.65625 -120.28125 C 24.125 -128.113281 30.53125 -135.285156 38.875 -141.796875 C 47.226562 -148.316406 57.335938 -153.554688 69.203125 -157.515625 C 81.066406 -161.472656 94.46875 -163.453125 109.40625 -163.453125 C 133.425781 -163.453125 151.21875 -159.238281 162.78125 -150.8125 C 174.351562 -142.394531 180.140625 -130.789062 180.140625 -116 C 180.140625 -103.84375 177.023438 -93.515625 170.796875 -85.015625 C 164.578125 -76.523438 156.050781 -71.398438 145.21875 -69.640625 C 142.132812 -69.203125 140.082031 -68.6875 139.0625 -68.09375 C 138.039062 -67.507812 137.53125 -66.851562 137.53125 -66.125 C 137.53125 -65.25 137.929688 -64.550781 138.734375 -64.03125 C 139.535156 -63.519531 140.628906 -62.710938 142.015625 -61.609375 C 143.410156 -60.515625 144.84375 -58.578125 146.3125 -55.796875 C 147.925781 -52.867188 149.863281 -50.414062 152.125 -48.4375 C 154.394531 -46.457031 157.65625 -45.46875 161.90625 -45.46875 C 166.882812 -45.46875 170.945312 -46.820312 174.09375 -49.53125 C 177.25 -52.25 180.289062 -55.800781 183.21875 -60.1875 C 184.394531 -61.945312 185.894531 -62.609375 187.71875 -62.171875 C 189.550781 -61.734375 191.050781 -60.742188 192.21875 -59.203125 C 193.394531 -57.671875 193.691406 -56.171875 193.109375 -54.703125 C 190.328125 -48.109375 186.921875 -41.550781 182.890625 -35.03125 C 178.859375 -28.519531 174.425781 -22.628906 169.59375 -17.359375 C 164.757812 -12.085938 159.597656 -7.875 154.109375 -4.71875 C 148.617188 -1.570312 143.015625 0 137.296875 0 C 131.148438 0 125.878906 -2.195312 121.484375 -6.59375 C 117.085938 -10.988281 114.523438 -18.164062 113.796875 -28.125 C 113.503906 -31.195312 113.25 -34.671875 113.03125 -38.546875 C 112.8125 -42.429688 112.441406 -46.09375 111.921875 -49.53125 C 111.410156 -52.976562 110.421875 -55.835938 108.953125 -58.109375 C 107.492188 -60.378906 105.445312 -61.515625 102.8125 -61.515625 C 101.195312 -61.515625 99.988281 -61.070312 99.1875 -60.1875 C 98.382812 -59.3125 97.691406 -58.066406 97.109375 -56.453125 C 92.566406 -44.003906 86.78125 -32.835938 79.75 -22.953125 C 72.71875 -13.066406 64.769531 -5.234375 55.90625 0.546875 C 47.050781 6.335938 37.347656 9.234375 26.796875 9.234375 Z M 26.796875 9.234375 "/></g></g></g><g fill="#fefae0" fill-opacity="1"><g transform="translate(207.76479, 184.397939)"><g><path d="M 109.625 -60.1875 C 110.5 -61.507812 111.890625 -61.988281 113.796875 -61.625 C 115.703125 -61.257812 117.347656 -60.453125 118.734375 -59.203125 C 120.128906 -57.960938 120.390625 -56.460938 119.515625 -54.703125 C 117.460938 -50.304688 114.785156 -45.765625 111.484375 -41.078125 C 108.191406 -36.390625 104.09375 -32.472656 99.1875 -29.328125 C 94.28125 -26.179688 88.238281 -24.609375 81.0625 -24.609375 L 78.421875 -24.609375 C 73.003906 -17.140625 66.523438 -11.171875 58.984375 -6.703125 C 51.441406 -2.234375 43.570312 0 35.375 0 C 25.5625 0 17.429688 -3.289062 10.984375 -9.875 C 4.535156 -16.46875 1.3125 -25.476562 1.3125 -36.90625 C 1.3125 -45.101562 2.8125 -53.484375 5.8125 -62.046875 C 8.820312 -70.617188 13.035156 -78.53125 18.453125 -85.78125 C 23.867188 -93.03125 30.238281 -98.851562 37.5625 -103.25 C 44.882812 -107.644531 52.941406 -109.84375 61.734375 -109.84375 C 67.734375 -109.84375 73.148438 -108.632812 77.984375 -106.21875 C 82.816406 -103.800781 86.660156 -99.804688 89.515625 -94.234375 C 92.378906 -88.671875 93.8125 -81.28125 93.8125 -72.0625 C 93.8125 -64.289062 92.710938 -56.742188 90.515625 -49.421875 L 92.046875 -49.421875 C 95.265625 -49.421875 98.335938 -50.265625 101.265625 -51.953125 C 104.203125 -53.640625 106.988281 -56.382812 109.625 -60.1875 Z M 47.890625 -45.46875 C 51.554688 -45.46875 54.78125 -46.566406 57.5625 -48.765625 C 60.34375 -50.960938 62.535156 -53.632812 64.140625 -56.78125 C 65.753906 -59.9375 66.5625 -63.050781 66.5625 -66.125 C 66.5625 -69.34375 65.609375 -72.085938 63.703125 -74.359375 C 61.804688 -76.628906 58.734375 -77.765625 54.484375 -77.765625 C 50.960938 -77.765625 47.847656 -76.738281 45.140625 -74.6875 C 42.429688 -72.644531 40.304688 -70.046875 38.765625 -66.890625 C 37.234375 -63.742188 36.46875 -60.5625 36.46875 -57.34375 C 36.46875 -54.113281 37.34375 -51.328125 39.09375 -48.984375 C 40.851562 -46.640625 43.785156 -45.46875 47.890625 -45.46875 Z M 47.890625 -45.46875 "/></g></g></g><g fill="#fefae0" fill-opacity="1"><g transform="translate(312.310926, 184.397939)"><g><path d="M 23.28125 0 C 15.8125 0 10.171875 -3.070312 6.359375 -9.21875 C 2.554688 -15.375 0.65625 -23.359375 0.65625 -33.171875 C 0.65625 -39.328125 1.421875 -45.878906 2.953125 -52.828125 C 4.492188 -59.785156 6.765625 -66.632812 9.765625 -73.375 C 12.773438 -80.113281 16.550781 -86.226562 21.09375 -91.71875 C 25.632812 -97.207031 30.90625 -101.597656 36.90625 -104.890625 C 42.914062 -108.191406 49.726562 -109.84375 57.34375 -109.84375 C 61.726562 -109.84375 65.128906 -109.4375 67.546875 -108.625 C 69.960938 -107.820312 71.789062 -106.832031 73.03125 -105.65625 C 74.28125 -104.488281 75.34375 -103.503906 76.21875 -102.703125 C 77.101562 -101.898438 78.28125 -101.5 79.75 -101.5 C 82.238281 -101.5 84.25 -102.191406 85.78125 -103.578125 C 87.320312 -104.972656 89.046875 -106.363281 90.953125 -107.75 C 92.859375 -109.144531 95.492188 -109.84375 98.859375 -109.84375 C 101.785156 -109.84375 103.796875 -109.109375 104.890625 -107.640625 C 105.992188 -106.179688 106.546875 -104.207031 106.546875 -101.71875 C 106.546875 -97.613281 105.410156 -93.546875 103.140625 -89.515625 C 100.867188 -85.492188 98.488281 -80.257812 96 -73.8125 C 92.34375 -65.757812 90.988281 -59.609375 91.9375 -55.359375 C 92.882812 -51.109375 95.773438 -48.984375 100.609375 -48.984375 C 104.421875 -48.984375 107.71875 -49.972656 110.5 -51.953125 C 113.28125 -53.929688 115.769531 -56.675781 117.96875 -60.1875 C 119.144531 -61.945312 120.644531 -62.570312 122.46875 -62.0625 C 124.300781 -61.550781 125.835938 -60.5625 127.078125 -59.09375 C 128.328125 -57.632812 128.585938 -56.171875 127.859375 -54.703125 C 125.222656 -49.578125 122.398438 -43.898438 119.390625 -37.671875 C 116.390625 -31.453125 113.054688 -25.484375 109.390625 -19.765625 C 105.734375 -14.054688 101.5625 -9.332031 96.875 -5.59375 C 92.195312 -1.863281 86.78125 0 80.625 0 C 73.007812 0 67.625 -3.070312 64.46875 -9.21875 C 61.320312 -15.375 60.410156 -22.992188 61.734375 -32.078125 L 60.859375 -32.078125 C 56.460938 -23.140625 51.039062 -15.554688 44.59375 -9.328125 C 38.15625 -3.109375 31.050781 0 23.28125 0 Z M 45.25 -45.46875 C 49.0625 -45.46875 52.394531 -46.566406 55.25 -48.765625 C 58.101562 -50.960938 60.335938 -53.632812 61.953125 -56.78125 C 63.566406 -59.9375 64.375 -63.050781 64.375 -66.125 C 64.375 -69.789062 63.347656 -72.644531 61.296875 -74.6875 C 59.242188 -76.738281 56.457031 -77.765625 52.9375 -77.765625 C 49.132812 -77.765625 45.84375 -76.738281 43.0625 -74.6875 C 40.28125 -72.644531 38.117188 -70.046875 36.578125 -66.890625 C 35.035156 -63.742188 34.265625 -60.5625 34.265625 -57.34375 C 34.265625 -53.675781 35.253906 -50.78125 37.234375 -48.65625 C 39.210938 -46.53125 41.882812 -45.46875 45.25 -45.46875 Z M 45.25 -45.46875 "/></g></g></g><g fill="#fefae0" fill-opacity="1"><g transform="translate(425.203153, 184.397939)"><g><path d="M 13.84375 0 C 8.71875 0 4.757812 -1.535156 1.96875 -4.609375 C -0.8125 -7.691406 -2.203125 -11.5 -2.203125 -16.03125 C -2.203125 -21.15625 -1.757812 -27.5625 -0.875 -35.25 C 0 -42.945312 1.972656 -51.257812 5.046875 -60.1875 C 8.128906 -69.269531 11.132812 -77.546875 14.0625 -85.015625 C 16.988281 -92.484375 19.953125 -98.488281 22.953125 -103.03125 C 25.953125 -107.570312 28.921875 -109.84375 31.859375 -109.84375 C 34.347656 -109.84375 36.101562 -109 37.125 -107.3125 C 38.15625 -105.632812 38.671875 -103.695312 38.671875 -101.5 C 38.671875 -97.832031 39.765625 -95.335938 41.953125 -94.015625 C 44.148438 -92.703125 47.007812 -93.804688 50.53125 -97.328125 C 54.625 -101.273438 58.867188 -104.347656 63.265625 -106.546875 C 67.660156 -108.742188 72.273438 -109.84375 77.109375 -109.84375 C 82.523438 -109.84375 86.804688 -108.523438 89.953125 -105.890625 C 93.109375 -103.253906 95.195312 -99.957031 96.21875 -96 C 96.507812 -94.539062 97.09375 -93.695312 97.96875 -93.46875 C 98.851562 -93.25 100.101562 -94.09375 101.71875 -96 C 105.96875 -100.6875 110.429688 -104.238281 115.109375 -106.65625 C 119.796875 -109.070312 124.78125 -110.28125 130.0625 -110.28125 C 138.695312 -110.28125 144.769531 -108.300781 148.28125 -104.34375 C 151.800781 -100.394531 153.5625 -95.640625 153.5625 -90.078125 C 153.5625 -86.265625 152.972656 -82.78125 151.796875 -79.625 C 150.628906 -76.476562 149.457031 -73.40625 148.28125 -70.40625 C 147.113281 -67.40625 146.53125 -64.070312 146.53125 -60.40625 C 146.53125 -52.789062 150.117188 -48.984375 157.296875 -48.984375 C 160.660156 -48.984375 163.476562 -50.046875 165.75 -52.171875 C 168.019531 -54.296875 170.253906 -56.96875 172.453125 -60.1875 C 173.628906 -61.945312 175.164062 -62.570312 177.0625 -62.0625 C 178.96875 -61.550781 180.539062 -60.5625 181.78125 -59.09375 C 183.03125 -57.632812 183.21875 -56.171875 182.34375 -54.703125 C 180.875 -52.359375 179.113281 -48.953125 177.0625 -44.484375 C 175.019531 -40.015625 172.566406 -35.253906 169.703125 -30.203125 C 166.847656 -25.148438 163.515625 -20.316406 159.703125 -15.703125 C 155.898438 -11.085938 151.617188 -7.316406 146.859375 -4.390625 C 142.097656 -1.460938 136.71875 0 130.71875 0 C 123.6875 0 118.78125 -2.304688 116 -6.921875 C 113.21875 -11.535156 111.828125 -16.988281 111.828125 -23.28125 C 111.828125 -28.851562 112.59375 -34.164062 114.125 -39.21875 C 115.664062 -44.269531 117.203125 -48.878906 118.734375 -53.046875 C 120.273438 -57.222656 121.046875 -60.773438 121.046875 -63.703125 C 121.046875 -66.191406 120.273438 -68.09375 118.734375 -69.40625 C 117.203125 -70.726562 115.191406 -71.390625 112.703125 -71.390625 C 108.453125 -71.390625 104.53125 -69.632812 100.9375 -66.125 C 97.351562 -62.613281 94.460938 -58.21875 92.265625 -52.9375 C 90.066406 -47.664062 88.96875 -42.25 88.96875 -36.6875 C 88.96875 -33.46875 89.222656 -30.976562 89.734375 -29.21875 C 90.253906 -27.457031 90.515625 -24.96875 90.515625 -21.75 C 90.515625 -18.675781 90.035156 -15.488281 89.078125 -12.1875 C 88.128906 -8.894531 86.265625 -6.113281 83.484375 -3.84375 C 80.703125 -1.570312 76.523438 -0.4375 70.953125 -0.4375 C 65.972656 -0.4375 61.800781 -1.828125 58.4375 -4.609375 C 55.070312 -7.390625 53.390625 -12.367188 53.390625 -19.546875 C 53.390625 -25.117188 54.300781 -30.46875 56.125 -35.59375 C 57.957031 -40.71875 59.789062 -45.550781 61.625 -50.09375 C 63.457031 -54.632812 64.375 -58.734375 64.375 -62.390625 C 64.375 -65.316406 63.601562 -67.472656 62.0625 -68.859375 C 60.519531 -70.253906 58.503906 -70.953125 56.015625 -70.953125 C 51.773438 -70.953125 47.859375 -69.15625 44.265625 -65.5625 C 40.679688 -61.976562 37.789062 -57.332031 35.59375 -51.625 C 33.394531 -45.914062 32.296875 -39.765625 32.296875 -33.171875 L 32.296875 -23.28125 C 32.296875 -19.625 31.851562 -16 30.96875 -12.40625 C 30.09375 -8.820312 28.335938 -5.859375 25.703125 -3.515625 C 23.066406 -1.171875 19.113281 0 13.84375 0 Z M 13.84375 0 "/></g></g></g><g fill="#fefae0" fill-opacity="1"><g transform="translate(592.564769, 184.397939)"><g><path d="M 232.203125 -60.1875 C 233.234375 -61.800781 234.40625 -62.351562 235.71875 -61.84375 C 237.039062 -61.332031 238.285156 -60.378906 239.453125 -58.984375 C 240.628906 -57.597656 241.507812 -56.171875 242.09375 -54.703125 C 240.632812 -52.359375 238.878906 -48.953125 236.828125 -44.484375 C 234.773438 -40.015625 232.316406 -35.253906 229.453125 -30.203125 C 226.597656 -25.148438 223.265625 -20.316406 219.453125 -15.703125 C 215.648438 -11.085938 211.367188 -7.316406 206.609375 -4.390625 C 201.847656 -1.460938 196.46875 0 190.46875 0 C 182.414062 0 176.300781 -2.851562 172.125 -8.5625 C 167.945312 -14.28125 165.859375 -22.117188 165.859375 -32.078125 C 165.859375 -38.367188 166.628906 -44.515625 168.171875 -50.515625 C 169.710938 -56.523438 171.503906 -62.164062 173.546875 -67.4375 C 175.597656 -72.71875 177.390625 -77.332031 178.921875 -81.28125 C 180.460938 -85.238281 181.234375 -88.316406 181.234375 -90.515625 C 181.234375 -93.734375 179.84375 -95.34375 177.0625 -95.34375 C 175.164062 -95.34375 173.265625 -94.425781 171.359375 -92.59375 C 169.453125 -90.769531 167.398438 -87.476562 165.203125 -82.71875 C 163.003906 -77.957031 160.515625 -71.21875 157.734375 -62.5 C 154.953125 -53.78125 151.800781 -42.46875 148.28125 -28.5625 C 146.382812 -20.945312 143.640625 -16.039062 140.046875 -13.84375 C 136.460938 -11.644531 132.835938 -10.546875 129.171875 -10.546875 C 122.285156 -10.546875 117.671875 -11.71875 115.328125 -14.0625 C 112.992188 -16.40625 111.828125 -19.847656 111.828125 -24.390625 C 111.828125 -28.484375 112.484375 -32.984375 113.796875 -37.890625 C 115.117188 -42.796875 116.582031 -47.957031 118.1875 -53.375 C 119.800781 -58.800781 121.265625 -64.257812 122.578125 -69.75 C 123.898438 -75.238281 124.5625 -80.472656 124.5625 -85.453125 C 124.5625 -89.703125 124.046875 -92.519531 123.015625 -93.90625 C 121.992188 -95.300781 120.753906 -96 119.296875 -96 C 116.066406 -96 114.015625 -93.953125 113.140625 -89.859375 C 108.304688 -66.128906 101.601562 -46.976562 93.03125 -32.40625 C 84.46875 -17.832031 74.65625 -7.25 63.59375 -0.65625 C 52.539062 5.9375 40.789062 9.234375 28.34375 9.234375 C 19.84375 9.234375 12.773438 7.4375 7.140625 3.84375 C 1.503906 0.257812 -2.703125 -4.382812 -5.484375 -10.09375 C -8.273438 -15.8125 -9.671875 -21.675781 -9.671875 -27.6875 C -9.671875 -33.6875 -8.460938 -39.429688 -6.046875 -44.921875 C -3.628906 -50.421875 -0.222656 -54.890625 4.171875 -58.328125 C 8.566406 -61.765625 13.691406 -63.484375 19.546875 -63.484375 C 21.742188 -63.484375 22.84375 -62.609375 22.84375 -60.859375 C 22.84375 -56.023438 24.96875 -52.101562 29.21875 -49.09375 C 33.46875 -46.09375 38.738281 -44.59375 45.03125 -44.59375 C 51.1875 -44.59375 56.972656 -46.09375 62.390625 -49.09375 C 67.804688 -52.101562 72.710938 -56.023438 77.109375 -60.859375 C 81.503906 -65.691406 85.3125 -71.035156 88.53125 -76.890625 C 91.75 -82.742188 94.203125 -88.597656 95.890625 -94.453125 C 97.578125 -100.316406 98.421875 -105.59375 98.421875 -110.28125 C 98.421875 -116.144531 97.066406 -120.613281 94.359375 -123.6875 C 91.648438 -126.757812 87.953125 -128.296875 83.265625 -128.296875 C 77.992188 -128.296875 73.304688 -126.351562 69.203125 -122.46875 C 65.097656 -118.59375 63.046875 -113.210938 63.046875 -106.328125 C 63.046875 -102.515625 64.109375 -99.289062 66.234375 -96.65625 C 68.359375 -94.019531 71.03125 -92.703125 74.25 -92.703125 C 75.570312 -89.773438 75.351562 -86.222656 73.59375 -82.046875 C 71.832031 -77.878906 68.789062 -74.21875 64.46875 -71.0625 C 60.15625 -67.914062 54.703125 -66.34375 48.109375 -66.34375 C 39.472656 -66.34375 32.296875 -69.488281 26.578125 -75.78125 C 20.867188 -82.082031 18.015625 -90.359375 18.015625 -100.609375 C 18.015625 -108.960938 19.695312 -116.910156 23.0625 -124.453125 C 26.4375 -131.992188 31.304688 -138.691406 37.671875 -144.546875 C 44.046875 -150.410156 51.695312 -155.023438 60.625 -158.390625 C 69.5625 -161.765625 79.523438 -163.453125 90.515625 -163.453125 C 109.703125 -163.453125 124.53125 -158.03125 135 -147.1875 C 145.46875 -136.351562 151.65625 -121.78125 153.5625 -103.46875 C 157.21875 -111.082031 161.570312 -118.476562 166.625 -125.65625 C 171.6875 -132.832031 177.179688 -139.238281 183.109375 -144.875 C 189.035156 -150.519531 195.148438 -155.023438 201.453125 -158.390625 C 207.753906 -161.765625 213.976562 -163.453125 220.125 -163.453125 C 228.625 -163.453125 234.628906 -161.179688 238.140625 -156.640625 C 241.648438 -152.097656 243.40625 -146.820312 243.40625 -140.8125 C 243.40625 -136.425781 242.597656 -132.109375 240.984375 -127.859375 C 239.378906 -123.609375 237.332031 -120.09375 234.84375 -117.3125 C 232.351562 -114.53125 229.789062 -113.140625 227.15625 -113.140625 C 225.539062 -113.140625 224.144531 -113.539062 222.96875 -114.34375 C 221.800781 -115.15625 220.488281 -115.5625 219.03125 -115.5625 C 216.832031 -115.5625 214.78125 -114.238281 212.875 -111.59375 C 210.96875 -108.957031 209.28125 -105.550781 207.8125 -101.375 C 206.351562 -97.207031 205.109375 -92.78125 204.078125 -88.09375 C 203.054688 -83.40625 202.253906 -78.9375 201.671875 -74.6875 C 201.085938 -70.445312 200.796875 -67.007812 200.796875 -64.375 C 200.796875 -59.832031 201.78125 -56.128906 203.75 -53.265625 C 205.726562 -50.410156 209.207031 -48.984375 214.1875 -48.984375 C 221.21875 -48.984375 227.222656 -52.71875 232.203125 -60.1875 Z M 232.203125 -60.1875 "/></g></g></g><g fill="#fefae0" fill-opacity="1"><g transform="translate(819.667052, 184.397939)"><g><path d="M 23.28125 0 C 15.8125 0 10.171875 -3.070312 6.359375 -9.21875 C 2.554688 -15.375 0.65625 -23.359375 0.65625 -33.171875 C 0.65625 -39.328125 1.421875 -45.878906 2.953125 -52.828125 C 4.492188 -59.785156 6.765625 -66.632812 9.765625 -73.375 C 12.773438 -80.113281 16.550781 -86.226562 21.09375 -91.71875 C 25.632812 -97.207031 30.90625 -101.597656 36.90625 -104.890625 C 42.914062 -108.191406 49.726562 -109.84375 57.34375 -109.84375 C 61.726562 -109.84375 65.128906 -109.4375 67.546875 -108.625 C 69.960938 -107.820312 71.789062 -106.832031 73.03125 -105.65625 C 74.28125 -104.488281 75.34375 -103.503906 76.21875 -102.703125 C 77.101562 -101.898438 78.28125 -101.5 79.75 -101.5 C 82.238281 -101.5 84.25 -102.191406 85.78125 -103.578125 C 87.320312 -104.972656 89.046875 -106.363281 90.953125 -107.75 C 92.859375 -109.144531 95.492188 -109.84375 98.859375 -109.84375 C 101.785156 -109.84375 103.796875 -109.109375 104.890625 -107.640625 C 105.992188 -106.179688 106.546875 -104.207031 106.546875 -101.71875 C 106.546875 -97.613281 105.410156 -93.546875 103.140625 -89.515625 C 100.867188 -85.492188 98.488281 -80.257812 96 -73.8125 C 92.34375 -65.757812 90.988281 -59.609375 91.9375 -55.359375 C 92.882812 -51.109375 95.773438 -48.984375 100.609375 -48.984375 C 104.421875 -48.984375 107.71875 -49.972656 110.5 -51.953125 C 113.28125 -53.929688 115.769531 -56.675781 117.96875 -60.1875 C 119.144531 -61.945312 120.644531 -62.570312 122.46875 -62.0625 C 124.300781 -61.550781 125.835938 -60.5625 127.078125 -59.09375 C 128.328125 -57.632812 128.585938 -56.171875 127.859375 -54.703125 C 125.222656 -49.578125 122.398438 -43.898438 119.390625 -37.671875 C 116.390625 -31.453125 113.054688 -25.484375 109.390625 -19.765625 C 105.734375 -14.054688 101.5625 -9.332031 96.875 -5.59375 C 92.195312 -1.863281 86.78125 0 80.625 0 C 73.007812 0 67.625 -3.070312 64.46875 -9.21875 C 61.320312 -15.375 60.410156 -22.992188 61.734375 -32.078125 L 60.859375 -32.078125 C 56.460938 -23.140625 51.039062 -15.554688 44.59375 -9.328125 C 38.15625 -3.109375 31.050781 0 23.28125 0 Z M 45.25 -45.46875 C 49.0625 -45.46875 52.394531 -46.566406 55.25 -48.765625 C 58.101562 -50.960938 60.335938 -53.632812 61.953125 -56.78125 C 63.566406 -59.9375 64.375 -63.050781 64.375 -66.125 C 64.375 -69.789062 63.347656 -72.644531 61.296875 -74.6875 C 59.242188 -76.738281 56.457031 -77.765625 52.9375 -77.765625 C 49.132812 -77.765625 45.84375 -76.738281 43.0625 -74.6875 C 40.28125 -72.644531 38.117188 -70.046875 36.578125 -66.890625 C 35.035156 -63.742188 34.265625 -60.5625 34.265625 -57.34375 C 34.265625 -53.675781 35.253906 -50.78125 37.234375 -48.65625 C 39.210938 -46.53125 41.882812 -45.46875 45.25 -45.46875 Z M 45.25 -45.46875 "/></g></g></g><g fill="#fefae0" fill-opacity="1"><g transform="translate(932.559223, 184.397939)"><g><path d="M 22.1875 0 C 13.988281 0 7.945312 -2.523438 4.0625 -7.578125 C 0.1875 -12.628906 -1.75 -19.21875 -1.75 -27.34375 C -1.75 -35.476562 -0.140625 -44.234375 3.078125 -53.609375 C 4.984375 -59.171875 7.109375 -65.171875 9.453125 -71.609375 C 11.796875 -78.054688 14.359375 -85.085938 17.140625 -92.703125 C 13.910156 -92.703125 11.453125 -93.546875 9.765625 -95.234375 C 8.085938 -96.921875 6.992188 -98.898438 6.484375 -101.171875 C 5.972656 -103.441406 5.972656 -105.414062 6.484375 -107.09375 C 6.992188 -108.78125 7.910156 -109.625 9.234375 -109.625 C 15.671875 -109.625 20.71875 -111.414062 24.375 -115 C 28.039062 -118.59375 30.609375 -122.363281 32.078125 -126.3125 C 34.710938 -132.757812 37.273438 -136.828125 39.765625 -138.515625 C 42.253906 -140.203125 44.890625 -141.046875 47.671875 -141.046875 C 51.773438 -141.046875 54.335938 -139.320312 55.359375 -135.875 C 56.390625 -132.4375 55.21875 -127.273438 51.84375 -120.390625 C 50.226562 -116.867188 49.347656 -114.191406 49.203125 -112.359375 C 49.054688 -110.535156 50.007812 -109.625 52.0625 -109.625 L 63.484375 -109.625 C 64.953125 -109.625 65.90625 -108.597656 66.34375 -106.546875 C 66.78125 -104.492188 66.742188 -102.148438 66.234375 -99.515625 C 65.722656 -96.878906 64.769531 -94.535156 63.375 -92.484375 C 61.988281 -90.429688 60.195312 -89.40625 58 -89.40625 C 51.257812 -89.40625 46.273438 -89.148438 43.046875 -88.640625 C 39.828125 -88.128906 37.554688 -86.847656 36.234375 -84.796875 C 34.921875 -82.742188 33.535156 -79.226562 32.078125 -74.25 C 29.734375 -66.632812 30.0625 -60.554688 33.0625 -56.015625 C 36.0625 -51.472656 40.785156 -49.203125 47.234375 -49.203125 C 51.628906 -49.203125 55.546875 -50.191406 58.984375 -52.171875 C 62.429688 -54.148438 65.25 -56.820312 67.4375 -60.1875 C 68.613281 -61.945312 70.113281 -62.570312 71.9375 -62.0625 C 73.769531 -61.550781 75.304688 -60.5625 76.546875 -59.09375 C 77.796875 -57.632812 78.054688 -56.171875 77.328125 -54.703125 C 76.015625 -52.210938 74.257812 -48.769531 72.0625 -44.375 C 69.863281 -39.976562 67.222656 -35.21875 64.140625 -30.09375 C 61.066406 -24.96875 57.476562 -20.132812 53.375 -15.59375 C 49.28125 -11.050781 44.632812 -7.316406 39.4375 -4.390625 C 34.238281 -1.460938 28.488281 0 22.1875 0 Z M 22.1875 0 "/></g></g></g><g fill="#fefae0" fill-opacity="1"><g transform="translate(994.93555, 184.397939)"><g><path d="M 41.296875 0 C 32.515625 0 25.300781 -1.972656 19.65625 -5.921875 C 14.019531 -9.878906 9.847656 -15.117188 7.140625 -21.640625 C 4.429688 -28.160156 3.113281 -35.335938 3.1875 -43.171875 C 3.257812 -51.003906 4.613281 -58.835938 7.25 -66.671875 C 9.882812 -74.503906 13.691406 -81.679688 18.671875 -88.203125 C 23.648438 -94.722656 29.691406 -99.957031 36.796875 -103.90625 C 43.898438 -107.863281 51.921875 -109.84375 60.859375 -109.84375 C 67.734375 -109.84375 73.332031 -108.5625 77.65625 -106 C 81.976562 -103.4375 85.164062 -100.03125 87.21875 -95.78125 C 89.269531 -91.53125 90.296875 -86.988281 90.296875 -82.15625 C 90.296875 -76.882812 88.828125 -71.613281 85.890625 -66.34375 C 82.960938 -61.070312 78.863281 -56.710938 73.59375 -53.265625 C 68.320312 -49.828125 62.097656 -48.109375 54.921875 -48.109375 C 51.847656 -48.109375 48.84375 -48.328125 45.90625 -48.765625 C 42.976562 -49.203125 40.269531 -50.15625 37.78125 -51.625 C 37.050781 -52.0625 36.242188 -52.097656 35.359375 -51.734375 C 34.484375 -51.367188 34.046875 -50.453125 34.046875 -48.984375 C 34.046875 -45.179688 36.28125 -42.289062 40.75 -40.3125 C 45.21875 -38.332031 50.601562 -37.34375 56.90625 -37.34375 C 64.375 -37.34375 72.097656 -39.242188 80.078125 -43.046875 C 88.054688 -46.859375 94.535156 -52.570312 99.515625 -60.1875 C 100.691406 -61.945312 102.226562 -62.570312 104.125 -62.0625 C 106.03125 -61.550781 107.601562 -60.5625 108.84375 -59.09375 C 110.09375 -57.632812 110.28125 -56.171875 109.40625 -54.703125 C 99.738281 -36.835938 89.15625 -23.253906 77.65625 -13.953125 C 66.15625 -4.648438 54.035156 0 41.296875 0 Z M 49.203125 -64.59375 C 53.453125 -64.59375 56.785156 -65.945312 59.203125 -68.65625 C 61.617188 -71.363281 62.828125 -74.109375 62.828125 -76.890625 C 62.828125 -79.378906 61.984375 -81.5 60.296875 -83.25 C 58.617188 -85.007812 56.09375 -85.890625 52.71875 -85.890625 C 48.476562 -85.890625 45.113281 -84.570312 42.625 -81.9375 C 40.132812 -79.300781 38.890625 -76.519531 38.890625 -73.59375 C 38.890625 -71.25 39.726562 -69.160156 41.40625 -67.328125 C 43.09375 -65.503906 45.691406 -64.59375 49.203125 -64.59375 Z M 49.203125 -64.59375 "/></g></g></g></svg>