<?xml version="1.0" encoding="UTF-8"?>
<svg version="1.1" xmlns="http://www.w3.org/2000/svg" width="96" height="96">
<path d="M0 0 C4.57520713 1.79029844 7.22619873 4.99339816 10 9 C11.35940534 13.98448624 11.42374667 18.39134301 9 23 C5.62911159 27.58568028 2.02650582 31.97349418 -2 36 C-4.83203125 36.41796875 -4.83203125 36.41796875 -8 36 C-10.44921875 33.98828125 -10.44921875 33.98828125 -12.6875 31.3125 C-13.43386719 30.44238281 -14.18023437 29.57226562 -14.94921875 28.67578125 C-18.76056193 23.70288586 -21.48704246 19.4985013 -20.78515625 13.015625 C-19.79393002 7.99341213 -18.0208513 5.3343645 -14 2 C-9.5315191 -0.97898726 -5.23890827 -0.48536944 0 0 Z M-11.5 8.5 C-13.1792657 11.29877617 -13.73475619 13.55284325 -13.60546875 16.828125 C-12.41633782 21.09365271 -9.12447605 24.00305359 -6 27 C-2.00752908 25.17438296 0.85113198 22.87305856 3 19 C3.87947826 15.09120773 3.59828079 11.99713465 1.5 8.5 C-2.88057003 5.87165798 -7.11942997 5.87165798 -11.5 8.5 Z " fill="#BB6B24" transform="translate(78,28)"/>
<path d="M0 0 C3.86822256 2.02464415 6.1619825 4.27454499 7.8359375 8.2734375 C9.04923116 13.3132727 9.27520371 17.63527073 6.8359375 22.2734375 C3.46504909 26.85911778 -0.13755668 31.24693168 -4.1640625 35.2734375 C-6.99609375 35.6875 -6.99609375 35.6875 -10.1640625 35.2734375 C-12.61328125 33.296875 -12.61328125 33.296875 -14.8515625 30.6484375 C-15.59792969 29.78992188 -16.34429688 28.93140625 -17.11328125 28.046875 C-21.91926488 21.54735427 -23.23038873 16.23534002 -22.1640625 8.2734375 C-17.79572312 -0.78682196 -9.37687802 -3.1481937 0 0 Z M-13.6640625 7.8359375 C-15.82446964 11.3465991 -15.84297234 13.19997846 -15.1640625 17.2734375 C-13.52724608 20.28834775 -11.74399276 22.99528808 -9.1640625 25.2734375 C-5.31417412 25.70034504 -5.31417412 25.70034504 -3.49609375 23.8828125 C-2.99464844 23.26921875 -2.49320313 22.655625 -1.9765625 22.0234375 C-1.46738281 21.42015625 -0.95820313 20.816875 -0.43359375 20.1953125 C0.90832081 18.1638603 1.49010177 16.67480394 1.8359375 14.2734375 C0.85618984 10.92596633 -0.16906949 8.17026641 -3.1640625 6.2734375 C-8.73442367 5.63928097 -8.73442367 5.63928097 -13.6640625 7.8359375 Z " fill="#BB6B24" transform="translate(30.1640625,8.7265625)"/>
<path d="M0 0 C1.99954746 -0.04254356 4.00041636 -0.04080783 6 0 C7 1 7 1 7.0625 4.0625 C7.041875 5.031875 7.02125 6.00125 7 7 C5.35 7.66 3.7 8.32 2 9 C0.68 7.68 -0.64 6.36 -2 5 C-1.34 3.35 -0.68 1.7 0 0 Z " fill="#BC6822" transform="translate(70,39)"/>
<path d="M0 0 C3 0.125 3 0.125 4 1.125 C4.125 4.125 4.125 4.125 4 7.125 C3 8.125 3 8.125 0 8.25 C-3 8.125 -3 8.125 -4 7.125 C-4.125 4.125 -4.125 4.125 -4 1.125 C-3 0.125 -3 0.125 0 0 Z " fill="#BB6B24" transform="translate(23,18.875)"/>
<path d="M0 0 C1.98 0 3.96 0 6 0 C6 1.98 6 3.96 6 6 C4.02 6 2.04 6 0 6 C0 4.02 0 2.04 0 0 Z " fill="#B96E25" transform="translate(70,80)"/>
<path d="M0 0 C1.98 0 3.96 0 6 0 C6 1.98 6 3.96 6 6 C4.02 6 2.04 6 0 6 C0 4.02 0 2.04 0 0 Z " fill="#B96E25" transform="translate(60,80)"/>
<path d="M0 0 C1.98 0 3.96 0 6 0 C6 1.98 6 3.96 6 6 C4.02 6 2.04 6 0 6 C0 4.02 0 2.04 0 0 Z " fill="#B96E25" transform="translate(50,80)"/>
<path d="M0 0 C1.98 0 3.96 0 6 0 C6 1.98 6 3.96 6 6 C4.02 6 2.04 6 0 6 C0 4.02 0 2.04 0 0 Z " fill="#B96E25" transform="translate(40,80)"/>
<path d="M0 0 C1.98 0 3.96 0 6 0 C6 1.98 6 3.96 6 6 C4.02 6 2.04 6 0 6 C0 4.02 0 2.04 0 0 Z " fill="#B96E25" transform="translate(30,80)"/>
<path d="M0 0 C1.98 0 3.96 0 6 0 C6 1.98 6 3.96 6 6 C4.02 6 2.04 6 0 6 C0 4.02 0 2.04 0 0 Z " fill="#B96E25" transform="translate(20,80)"/>
<path d="M0 0 C1.98 0 3.96 0 6 0 C6 1.98 6 3.96 6 6 C4.02 6 2.04 6 0 6 C0 4.02 0 2.04 0 0 Z " fill="#B96E25" transform="translate(70,70)"/>
<path d="M0 0 C1.98 0 3.96 0 6 0 C6 1.98 6 3.96 6 6 C4.02 6 2.04 6 0 6 C0 4.02 0 2.04 0 0 Z " fill="#B96E25" transform="translate(20,70)"/>
<path d="M0 0 C1.98 0 3.96 0 6 0 C6 1.98 6 3.96 6 6 C4.02 6 2.04 6 0 6 C0 4.02 0 2.04 0 0 Z " fill="#B96E25" transform="translate(20,60)"/>
<path d="M0 0 C1.98 0 3.96 0 6 0 C6 1.98 6 3.96 6 6 C4.02 6 2.04 6 0 6 C0 4.02 0 2.04 0 0 Z " fill="#B96E25" transform="translate(20,50)"/>
</svg>
